G04 #@! TF.FileFunction,Copper,L2,Bot,Signal*
%FSLAX46Y46*%
G04 Gerber Fmt 4.6, Leading zero omitted, Abs format (unit mm)*
G04 Created by KiCad (PCBNEW 4.0.2+dfsg1-stable) date Po  3. jún 2019, 21:27:26 CEST*
%MOMM*%
G01*
G04 APERTURE LIST*
%ADD10C,0.100000*%
%ADD11C,1.524000*%
%ADD12R,2.500000X2.500000*%
%ADD13C,2.000000*%
%ADD14R,1.700000X1.700000*%
%ADD15C,1.700000*%
%ADD16R,2.000000X2.000000*%
%ADD17R,1.400000X1.400000*%
%ADD18R,1.800860X0.800100*%
%ADD19R,0.600000X1.500000*%
%ADD20R,3.000000X3.000000*%
%ADD21C,1.000000*%
%ADD22C,0.400000*%
%ADD23C,1.000000*%
%ADD24C,0.500000*%
%ADD25C,0.254000*%
G04 APERTURE END LIST*
D10*
D11*
X120858000Y-61432000D03*
X120858000Y-64432000D03*
X120858000Y-67432000D03*
D12*
X121080000Y-80434000D03*
D13*
X121080000Y-82974000D03*
X121080000Y-85514000D03*
D11*
X134493000Y-124460000D03*
X134493000Y-127000000D03*
X134493000Y-129540000D03*
X134493000Y-132080000D03*
X134493000Y-134620000D03*
X134493000Y-137160000D03*
X142113000Y-137160000D03*
X142113000Y-134620000D03*
X142113000Y-132080000D03*
X142113000Y-129540000D03*
X142113000Y-127000000D03*
X142113000Y-124460000D03*
X121793000Y-124460000D03*
X121793000Y-127000000D03*
X121793000Y-129540000D03*
X121793000Y-132080000D03*
X121793000Y-134620000D03*
X121793000Y-137160000D03*
X129413000Y-137160000D03*
X129413000Y-134620000D03*
X129413000Y-132080000D03*
X129413000Y-129540000D03*
X129413000Y-127000000D03*
X129413000Y-124460000D03*
D14*
X186436000Y-58674000D03*
D15*
X184436000Y-58674000D03*
D16*
X186612000Y-74338000D03*
D13*
X186612000Y-76878000D03*
X186612000Y-79418000D03*
X186612000Y-81958000D03*
X186612000Y-84498000D03*
X186612000Y-87038000D03*
D11*
X172593000Y-124460000D03*
X172593000Y-127000000D03*
X172593000Y-129540000D03*
X172593000Y-132080000D03*
X172593000Y-134620000D03*
X172593000Y-137160000D03*
X180213000Y-137160000D03*
X180213000Y-134620000D03*
X180213000Y-132080000D03*
X180213000Y-129540000D03*
X180213000Y-127000000D03*
X180213000Y-124460000D03*
X147193000Y-124460000D03*
X147193000Y-127000000D03*
X147193000Y-129540000D03*
X147193000Y-132080000D03*
X147193000Y-134620000D03*
X147193000Y-137160000D03*
X154813000Y-137160000D03*
X154813000Y-134620000D03*
X154813000Y-132080000D03*
X154813000Y-129540000D03*
X154813000Y-127000000D03*
X154813000Y-124460000D03*
X159893000Y-124460000D03*
X159893000Y-127000000D03*
X159893000Y-129540000D03*
X159893000Y-132080000D03*
X159893000Y-134620000D03*
X159893000Y-137160000D03*
X167513000Y-137160000D03*
X167513000Y-134620000D03*
X167513000Y-132080000D03*
X167513000Y-129540000D03*
X167513000Y-127000000D03*
X167513000Y-124460000D03*
D17*
X171274000Y-117178000D03*
X171274000Y-114978000D03*
X174574000Y-116078000D03*
X164924000Y-117178000D03*
X164924000Y-114978000D03*
X168224000Y-116078000D03*
X159082000Y-117178000D03*
X159082000Y-114978000D03*
X162382000Y-116078000D03*
X152732000Y-117432000D03*
X152732000Y-115232000D03*
X156032000Y-116332000D03*
X146382000Y-117432000D03*
X146382000Y-115232000D03*
X149682000Y-116332000D03*
X140032000Y-117432000D03*
X140032000Y-115232000D03*
X143332000Y-116332000D03*
X133555000Y-116924000D03*
X133555000Y-114724000D03*
X136855000Y-115824000D03*
D18*
X174475140Y-109286000D03*
X174475140Y-111186000D03*
X171472860Y-110236000D03*
X168125140Y-109032000D03*
X168125140Y-110932000D03*
X165122860Y-109982000D03*
X162029140Y-109032000D03*
X162029140Y-110932000D03*
X159026860Y-109982000D03*
X155933140Y-109032000D03*
X155933140Y-110932000D03*
X152930860Y-109982000D03*
X149329140Y-109032000D03*
X149329140Y-110932000D03*
X146326860Y-109982000D03*
X142725140Y-109032000D03*
X142725140Y-110932000D03*
X139722860Y-109982000D03*
X136297140Y-108948000D03*
X136297140Y-110848000D03*
X133294860Y-109898000D03*
D19*
X162433000Y-103030000D03*
X161163000Y-103030000D03*
X159893000Y-103030000D03*
X158623000Y-103030000D03*
X157353000Y-103030000D03*
X156083000Y-103030000D03*
X154813000Y-103030000D03*
X153543000Y-103030000D03*
X153543000Y-97630000D03*
X154813000Y-97630000D03*
X156083000Y-97630000D03*
X157353000Y-97630000D03*
X158623000Y-97630000D03*
X159893000Y-97630000D03*
X161163000Y-97630000D03*
X162433000Y-97630000D03*
D20*
X138910000Y-88466000D03*
X134410000Y-88466000D03*
X130010000Y-88466000D03*
D16*
X148082000Y-88646000D03*
D13*
X145542000Y-88646000D03*
D21*
X164592000Y-97536000D03*
X173736000Y-60198000D03*
X181356000Y-102362000D03*
X164846000Y-103632000D03*
X135382000Y-103378000D03*
X167386000Y-98298000D03*
X167386000Y-103632000D03*
X183056000Y-136822000D03*
X183056000Y-132250000D03*
X171196000Y-71374000D03*
X182880000Y-100838000D03*
X142748000Y-104648000D03*
X143256000Y-98298000D03*
X170434000Y-121666000D03*
X158164000Y-121582000D03*
X124382000Y-126662000D03*
X124128000Y-130218000D03*
X165862000Y-102616000D03*
X165862000Y-98298000D03*
X133350000Y-95250000D03*
X154940000Y-95250000D03*
X155194000Y-100330000D03*
X152146000Y-100330000D03*
X149606000Y-100330000D03*
X151638000Y-75438000D03*
X160020000Y-93726000D03*
X156718000Y-92710000D03*
X184404000Y-100584000D03*
X180848000Y-70104000D03*
X147066000Y-81026000D03*
X161544000Y-95504000D03*
X166878000Y-96266000D03*
X166624000Y-75184000D03*
X162814000Y-83312000D03*
D22*
X162433000Y-97630000D02*
X164498000Y-97630000D01*
X164498000Y-97630000D02*
X164592000Y-97536000D01*
X174475140Y-109286000D02*
X174475140Y-106403140D01*
X174475140Y-106403140D02*
X172974000Y-104902000D01*
X164305000Y-104902000D02*
X162433000Y-103030000D01*
X172974000Y-104902000D02*
X164305000Y-104902000D01*
X168125140Y-109032000D02*
X168125140Y-106194860D01*
X161163000Y-104013000D02*
X161163000Y-103030000D01*
X162052000Y-104902000D02*
X161163000Y-104013000D01*
X163391996Y-104902000D02*
X162052000Y-104902000D01*
X163991998Y-105502002D02*
X163391996Y-104902000D01*
X167432282Y-105502002D02*
X163991998Y-105502002D01*
X168125140Y-106194860D02*
X167432282Y-105502002D01*
X167386000Y-103632000D02*
X167386000Y-98298000D01*
X162029140Y-106172000D02*
X161798000Y-106172000D01*
X159893000Y-104267000D02*
X159893000Y-103030000D01*
X161798000Y-106172000D02*
X159893000Y-104267000D01*
X162029140Y-106172000D02*
X162029140Y-109032000D01*
X183056000Y-132250000D02*
X183056000Y-136822000D01*
X179324000Y-71374000D02*
X171196000Y-71374000D01*
X179832000Y-71882000D02*
X179324000Y-71374000D01*
X179832000Y-91694000D02*
X179832000Y-71882000D01*
X182626000Y-94488000D02*
X179832000Y-91694000D01*
X182626000Y-100584000D02*
X182626000Y-94488000D01*
X182880000Y-100838000D02*
X182626000Y-100584000D01*
X155933140Y-109032000D02*
X156906000Y-109032000D01*
X158623000Y-107315000D02*
X158623000Y-103030000D01*
X156906000Y-109032000D02*
X158623000Y-107315000D01*
X142748000Y-99314000D02*
X142748000Y-104648000D01*
X143256000Y-98298000D02*
X142748000Y-99314000D01*
X149329140Y-109032000D02*
X149794000Y-109032000D01*
X149794000Y-109032000D02*
X150876000Y-107950000D01*
X150876000Y-107950000D02*
X155448000Y-107950000D01*
X155448000Y-107950000D02*
X157353000Y-106045000D01*
X157353000Y-106045000D02*
X157353000Y-103030000D01*
X156083000Y-103030000D02*
X156083000Y-105283000D01*
X143002000Y-108458000D02*
X143002000Y-108712000D01*
X144526000Y-106934000D02*
X143002000Y-108458000D01*
X154432000Y-106934000D02*
X144526000Y-106934000D01*
X156083000Y-105283000D02*
X154432000Y-106934000D01*
X143002000Y-108712000D02*
X142725140Y-109032000D01*
X154813000Y-103030000D02*
X154813000Y-104775000D01*
X136297140Y-106526860D02*
X136297140Y-108948000D01*
X136906000Y-105918000D02*
X136297140Y-106526860D01*
X153670000Y-105918000D02*
X136906000Y-105918000D01*
X154813000Y-104775000D02*
X153670000Y-105918000D01*
X154813000Y-124460000D02*
X154813000Y-122852000D01*
X154686000Y-122725000D02*
X154686000Y-122852000D01*
X154813000Y-122852000D02*
X154686000Y-122725000D01*
X142113000Y-124460000D02*
X142113000Y-122852000D01*
X173658000Y-122852000D02*
X173658000Y-120312000D01*
X171274000Y-117928000D02*
X171274000Y-117178000D01*
X173658000Y-120312000D02*
X171274000Y-117928000D01*
X170864000Y-117588000D02*
X171274000Y-117178000D01*
X142113000Y-122852000D02*
X142162000Y-122852000D01*
X167513000Y-124460000D02*
X167513000Y-122852000D01*
X167513000Y-122852000D02*
X167562000Y-122852000D01*
X129413000Y-124460000D02*
X129413000Y-123917000D01*
X129413000Y-123917000D02*
X130478000Y-122852000D01*
X130478000Y-122852000D02*
X142162000Y-122852000D01*
X142162000Y-122852000D02*
X154686000Y-122852000D01*
X154686000Y-122852000D02*
X167562000Y-122852000D01*
X167562000Y-122852000D02*
X173658000Y-122852000D01*
X173658000Y-122852000D02*
X178605000Y-122852000D01*
X178605000Y-122852000D02*
X180213000Y-124460000D01*
X164924000Y-117178000D02*
X164924000Y-119458000D01*
X167132000Y-121666000D02*
X170434000Y-121666000D01*
X164924000Y-119458000D02*
X167132000Y-121666000D01*
X142113000Y-127000000D02*
X142113000Y-125646000D01*
X142113000Y-125646000D02*
X142162000Y-125646000D01*
X154813000Y-127000000D02*
X154813000Y-125646000D01*
X154813000Y-125646000D02*
X154862000Y-125646000D01*
X167513000Y-127000000D02*
X167513000Y-125646000D01*
X167513000Y-125646000D02*
X167562000Y-125646000D01*
X129413000Y-127000000D02*
X129886000Y-127000000D01*
X129886000Y-127000000D02*
X131240000Y-125646000D01*
X131240000Y-125646000D02*
X142162000Y-125646000D01*
X142162000Y-125646000D02*
X154862000Y-125646000D01*
X154862000Y-125646000D02*
X167562000Y-125646000D01*
X167562000Y-125646000D02*
X178859000Y-125646000D01*
X178859000Y-125646000D02*
X180213000Y-127000000D01*
X159082000Y-119648000D02*
X159082000Y-117178000D01*
X158164000Y-121582000D02*
X159082000Y-119648000D01*
X134493000Y-127000000D02*
X134493000Y-128186000D01*
X134493000Y-128186000D02*
X134542000Y-128186000D01*
X147193000Y-127000000D02*
X147193000Y-128186000D01*
X147193000Y-128186000D02*
X147242000Y-128186000D01*
X159893000Y-127000000D02*
X159893000Y-128186000D01*
X159893000Y-128186000D02*
X159942000Y-128186000D01*
X121793000Y-127000000D02*
X121793000Y-127629000D01*
X121793000Y-127629000D02*
X122350000Y-128186000D01*
X122350000Y-128186000D02*
X134542000Y-128186000D01*
X134542000Y-128186000D02*
X147242000Y-128186000D01*
X147242000Y-128186000D02*
X159942000Y-128186000D01*
X159942000Y-128186000D02*
X171407000Y-128186000D01*
X171407000Y-128186000D02*
X172593000Y-127000000D01*
X129413000Y-132080000D02*
X125990000Y-132080000D01*
X152732000Y-119394000D02*
X152732000Y-117432000D01*
X150290000Y-121836000D02*
X152732000Y-119394000D01*
X126160000Y-121836000D02*
X150290000Y-121836000D01*
X124636000Y-123360000D02*
X126160000Y-121836000D01*
X124636000Y-126408000D02*
X124636000Y-123360000D01*
X124382000Y-126662000D02*
X124636000Y-126408000D01*
X125990000Y-132080000D02*
X124128000Y-130218000D01*
X142113000Y-132080000D02*
X142113000Y-130726000D01*
X142113000Y-130726000D02*
X142162000Y-130726000D01*
X154813000Y-132080000D02*
X154813000Y-130726000D01*
X154813000Y-130726000D02*
X154862000Y-130726000D01*
X167513000Y-132080000D02*
X167513000Y-130726000D01*
X167513000Y-130726000D02*
X167562000Y-130726000D01*
X129413000Y-132080000D02*
X129632000Y-132080000D01*
X129632000Y-132080000D02*
X130986000Y-130726000D01*
X130986000Y-130726000D02*
X142162000Y-130726000D01*
X142162000Y-130726000D02*
X154862000Y-130726000D01*
X154862000Y-130726000D02*
X167562000Y-130726000D01*
X167562000Y-130726000D02*
X178859000Y-130726000D01*
X178859000Y-130726000D02*
X180213000Y-132080000D01*
X147193000Y-132080000D02*
X147193000Y-132461000D01*
X147193000Y-132461000D02*
X146388000Y-133266000D01*
X159893000Y-132080000D02*
X159893000Y-133266000D01*
X159893000Y-133266000D02*
X159766000Y-133139000D01*
X159766000Y-133096000D02*
X159893000Y-133096000D01*
X159766000Y-133139000D02*
X159766000Y-133096000D01*
X121793000Y-132080000D02*
X121418000Y-132080000D01*
X121418000Y-132080000D02*
X120064000Y-130726000D01*
X146382000Y-119140000D02*
X146382000Y-117432000D01*
X144448000Y-121074000D02*
X146382000Y-119140000D01*
X121334000Y-121074000D02*
X144448000Y-121074000D01*
X120064000Y-122344000D02*
X121334000Y-121074000D01*
X120064000Y-130726000D02*
X120064000Y-122344000D01*
X134493000Y-132080000D02*
X134493000Y-133266000D01*
X134493000Y-133266000D02*
X134542000Y-133266000D01*
X159893000Y-132080000D02*
X159893000Y-133096000D01*
X159893000Y-133096000D02*
X159893000Y-133266000D01*
X159893000Y-133266000D02*
X159942000Y-133266000D01*
X121793000Y-132080000D02*
X121793000Y-132201000D01*
X121793000Y-132201000D02*
X122858000Y-133266000D01*
X122858000Y-133266000D02*
X134542000Y-133266000D01*
X134542000Y-133266000D02*
X146388000Y-133266000D01*
X146388000Y-133266000D02*
X159942000Y-133266000D01*
X159942000Y-133266000D02*
X171407000Y-133266000D01*
X171407000Y-133266000D02*
X172593000Y-132080000D01*
X140032000Y-117432000D02*
X140032000Y-119140000D01*
X119302000Y-132129000D02*
X121793000Y-134620000D01*
X119302000Y-121836000D02*
X119302000Y-132129000D01*
X120826000Y-120312000D02*
X119302000Y-121836000D01*
X138860000Y-120312000D02*
X120826000Y-120312000D01*
X140032000Y-119140000D02*
X138860000Y-120312000D01*
X134493000Y-134620000D02*
X134493000Y-135806000D01*
X134493000Y-135806000D02*
X134542000Y-135806000D01*
X147193000Y-134620000D02*
X147193000Y-135806000D01*
X147193000Y-135806000D02*
X147242000Y-135806000D01*
X159893000Y-134620000D02*
X159893000Y-135806000D01*
X159893000Y-135806000D02*
X159942000Y-135806000D01*
X121793000Y-134620000D02*
X121926000Y-134620000D01*
X121926000Y-134620000D02*
X123112000Y-135806000D01*
X123112000Y-135806000D02*
X134542000Y-135806000D01*
X134542000Y-135806000D02*
X147242000Y-135806000D01*
X147242000Y-135806000D02*
X159942000Y-135806000D01*
X159942000Y-135806000D02*
X171407000Y-135806000D01*
X171407000Y-135806000D02*
X172593000Y-134620000D01*
X159893000Y-137160000D02*
X159893000Y-138854000D01*
X159766000Y-138938000D02*
X159766000Y-138854000D01*
X159809000Y-138938000D02*
X159766000Y-138938000D01*
X159893000Y-138854000D02*
X159809000Y-138938000D01*
X147193000Y-137160000D02*
X147193000Y-137795000D01*
X147193000Y-137795000D02*
X146134000Y-138854000D01*
X121793000Y-137160000D02*
X121793000Y-136265000D01*
X133555000Y-117743000D02*
X133555000Y-116924000D01*
X131748000Y-119550000D02*
X133555000Y-117743000D01*
X120318000Y-119550000D02*
X131748000Y-119550000D01*
X118540000Y-121328000D02*
X120318000Y-119550000D01*
X118540000Y-133012000D02*
X118540000Y-121328000D01*
X121793000Y-136265000D02*
X118540000Y-133012000D01*
X134493000Y-137160000D02*
X134493000Y-138854000D01*
X134493000Y-138854000D02*
X134542000Y-138854000D01*
X147193000Y-137160000D02*
X147193000Y-138854000D01*
X147193000Y-138854000D02*
X147242000Y-138854000D01*
X121793000Y-137160000D02*
X122180000Y-137160000D01*
X122180000Y-137160000D02*
X123874000Y-138854000D01*
X123874000Y-138854000D02*
X134542000Y-138854000D01*
X134542000Y-138854000D02*
X146134000Y-138854000D01*
X146134000Y-138854000D02*
X147242000Y-138854000D01*
X147242000Y-138854000D02*
X159766000Y-138854000D01*
X159766000Y-138854000D02*
X170899000Y-138854000D01*
X170899000Y-138854000D02*
X172593000Y-137160000D01*
X158623000Y-97630000D02*
X158623000Y-98933000D01*
X164846000Y-99314000D02*
X165862000Y-98298000D01*
X159004000Y-99314000D02*
X164846000Y-99314000D01*
X158623000Y-98933000D02*
X159004000Y-99314000D01*
X165862000Y-98298000D02*
X165862000Y-102616000D01*
X154940000Y-95250000D02*
X133350000Y-95250000D01*
X154813000Y-97630000D02*
X154813000Y-95377000D01*
X154813000Y-95377000D02*
X154940000Y-95250000D01*
X154813000Y-99949000D02*
X154813000Y-97630000D01*
X155194000Y-100330000D02*
X154813000Y-99949000D01*
X149606000Y-100330000D02*
X152146000Y-100330000D01*
X157353000Y-97630000D02*
X157353000Y-95631000D01*
X157226000Y-75438000D02*
X151638000Y-75438000D01*
X157988000Y-76200000D02*
X157226000Y-75438000D01*
X157988000Y-94996000D02*
X157988000Y-76200000D01*
X157353000Y-95631000D02*
X157988000Y-94996000D01*
X159893000Y-93853000D02*
X159893000Y-97630000D01*
X160020000Y-93726000D02*
X159893000Y-93853000D01*
X156083000Y-97630000D02*
X156083000Y-93091000D01*
X156464000Y-92710000D02*
X156718000Y-92710000D01*
X156083000Y-93091000D02*
X156464000Y-92710000D01*
X184150000Y-100330000D02*
X184404000Y-100584000D01*
X184150000Y-94234000D02*
X184150000Y-100330000D01*
X181102000Y-91186000D02*
X184150000Y-94234000D01*
X181102000Y-70358000D02*
X181102000Y-91186000D01*
X180848000Y-70104000D02*
X181102000Y-70358000D01*
D23*
X122006000Y-68580000D02*
X120858000Y-67432000D01*
X134620000Y-68580000D02*
X122006000Y-68580000D01*
X147066000Y-81026000D02*
X134620000Y-68580000D01*
D22*
X171472860Y-110236000D02*
X171472860Y-111274860D01*
X174574000Y-114376000D02*
X174574000Y-116078000D01*
X171472860Y-111274860D02*
X174574000Y-114376000D01*
X165122860Y-109982000D02*
X165122860Y-110512860D01*
X168224000Y-113614000D02*
X168224000Y-116078000D01*
X165122860Y-110512860D02*
X168224000Y-113614000D01*
X159026860Y-109982000D02*
X159026860Y-111274860D01*
X162382000Y-114630000D02*
X162382000Y-116078000D01*
X159026860Y-111274860D02*
X162382000Y-114630000D01*
X152930860Y-109982000D02*
X152930860Y-110766860D01*
X156032000Y-113868000D02*
X156032000Y-116332000D01*
X152930860Y-110766860D02*
X156032000Y-113868000D01*
X146326860Y-109982000D02*
X146326860Y-111020860D01*
X149682000Y-114376000D02*
X149682000Y-116332000D01*
X146326860Y-111020860D02*
X149682000Y-114376000D01*
X139722860Y-109982000D02*
X139722860Y-111274860D01*
X143332000Y-114884000D02*
X143332000Y-116332000D01*
X139722860Y-111274860D02*
X143332000Y-114884000D01*
X136855000Y-115824000D02*
X136855000Y-115265000D01*
X136855000Y-115265000D02*
X133294860Y-111704860D01*
X133294860Y-111704860D02*
X133294860Y-109898000D01*
D24*
X166116000Y-95504000D02*
X161544000Y-95504000D01*
X166878000Y-96266000D02*
X166116000Y-95504000D01*
X166624000Y-79502000D02*
X166624000Y-75184000D01*
X162814000Y-83312000D02*
X166624000Y-79502000D01*
D25*
G36*
X188009000Y-73166412D02*
X187924073Y-73034433D01*
X187781381Y-72936936D01*
X187612000Y-72902635D01*
X185612000Y-72902635D01*
X185453763Y-72932409D01*
X185308433Y-73025927D01*
X185210936Y-73168619D01*
X185176635Y-73338000D01*
X185176635Y-75338000D01*
X185206409Y-75496237D01*
X185299927Y-75641567D01*
X185442619Y-75739064D01*
X185612000Y-75773365D01*
X185698718Y-75773365D01*
X185402953Y-76068614D01*
X185185248Y-76592907D01*
X185184752Y-77160603D01*
X185401543Y-77685275D01*
X185802614Y-78087047D01*
X185949118Y-78147881D01*
X185804725Y-78207543D01*
X185402953Y-78608614D01*
X185185248Y-79132907D01*
X185184752Y-79700603D01*
X185401543Y-80225275D01*
X185802614Y-80627047D01*
X185949118Y-80687881D01*
X185804725Y-80747543D01*
X185402953Y-81148614D01*
X185185248Y-81672907D01*
X185184752Y-82240603D01*
X185401543Y-82765275D01*
X185731411Y-83095720D01*
X185639073Y-83345468D01*
X186612000Y-84318395D01*
X187584927Y-83345468D01*
X187492468Y-83095392D01*
X187821047Y-82767386D01*
X188009000Y-82314744D01*
X188009000Y-83615459D01*
X187764532Y-83525073D01*
X186791605Y-84498000D01*
X187764532Y-85470927D01*
X188009000Y-85380541D01*
X188009000Y-86682192D01*
X187822457Y-86230725D01*
X187492589Y-85900280D01*
X187584927Y-85650532D01*
X186612000Y-84677605D01*
X185639073Y-85650532D01*
X185731532Y-85900608D01*
X185402953Y-86228614D01*
X185185248Y-86752907D01*
X185184752Y-87320603D01*
X185401543Y-87845275D01*
X185802614Y-88247047D01*
X186326907Y-88464752D01*
X186894603Y-88465248D01*
X187419275Y-88248457D01*
X187821047Y-87847386D01*
X188009000Y-87394744D01*
X188009000Y-141267000D01*
X117397000Y-141267000D01*
X117397000Y-121328000D01*
X117913000Y-121328000D01*
X117913000Y-133012000D01*
X117960728Y-133251943D01*
X117970121Y-133266000D01*
X118096644Y-133455356D01*
X120956397Y-136315109D01*
X120785603Y-136485606D01*
X120604207Y-136922456D01*
X120603794Y-137395469D01*
X120784427Y-137832635D01*
X121118606Y-138167397D01*
X121555456Y-138348793D01*
X122028469Y-138349206D01*
X122349745Y-138216457D01*
X123430644Y-139297356D01*
X123634058Y-139433273D01*
X123874000Y-139481000D01*
X159471772Y-139481000D01*
X159526057Y-139517272D01*
X159766000Y-139565000D01*
X159809000Y-139565000D01*
X160048943Y-139517272D01*
X160103228Y-139481000D01*
X170899000Y-139481000D01*
X171138943Y-139433272D01*
X171342356Y-139297356D01*
X172309854Y-138329858D01*
X172355456Y-138348793D01*
X172828469Y-138349206D01*
X173265635Y-138168573D01*
X173600397Y-137834394D01*
X173781793Y-137397544D01*
X173781794Y-137395469D01*
X179023794Y-137395469D01*
X179204427Y-137832635D01*
X179538606Y-138167397D01*
X179975456Y-138348793D01*
X180448469Y-138349206D01*
X180885635Y-138168573D01*
X181220397Y-137834394D01*
X181401793Y-137397544D01*
X181402206Y-136924531D01*
X181221573Y-136487365D01*
X180887394Y-136152603D01*
X180450544Y-135971207D01*
X179977531Y-135970794D01*
X179540365Y-136151427D01*
X179205603Y-136485606D01*
X179024207Y-136922456D01*
X179023794Y-137395469D01*
X173781794Y-137395469D01*
X173782206Y-136924531D01*
X173601573Y-136487365D01*
X173267394Y-136152603D01*
X172830544Y-135971207D01*
X172357531Y-135970794D01*
X171967944Y-136131768D01*
X172309854Y-135789858D01*
X172355456Y-135808793D01*
X172828469Y-135809206D01*
X173265635Y-135628573D01*
X173600397Y-135294394D01*
X173781793Y-134857544D01*
X173781794Y-134855469D01*
X179023794Y-134855469D01*
X179204427Y-135292635D01*
X179538606Y-135627397D01*
X179975456Y-135808793D01*
X180448469Y-135809206D01*
X180885635Y-135628573D01*
X181220397Y-135294394D01*
X181401793Y-134857544D01*
X181402206Y-134384531D01*
X181221573Y-133947365D01*
X180887394Y-133612603D01*
X180450544Y-133431207D01*
X179977531Y-133430794D01*
X179540365Y-133611427D01*
X179205603Y-133945606D01*
X179024207Y-134382456D01*
X179023794Y-134855469D01*
X173781794Y-134855469D01*
X173782206Y-134384531D01*
X173601573Y-133947365D01*
X173267394Y-133612603D01*
X172830544Y-133431207D01*
X172357531Y-133430794D01*
X171967944Y-133591768D01*
X172309854Y-133249858D01*
X172355456Y-133268793D01*
X172828469Y-133269206D01*
X173265635Y-133088573D01*
X173600397Y-132754394D01*
X173781793Y-132317544D01*
X173782206Y-131844531D01*
X173601573Y-131407365D01*
X173547303Y-131353000D01*
X178599288Y-131353000D01*
X179043142Y-131796854D01*
X179024207Y-131842456D01*
X179023794Y-132315469D01*
X179204427Y-132752635D01*
X179538606Y-133087397D01*
X179975456Y-133268793D01*
X180448469Y-133269206D01*
X180885635Y-133088573D01*
X181220397Y-132754394D01*
X181353609Y-132433583D01*
X182128839Y-132433583D01*
X182269669Y-132774417D01*
X182429000Y-132934026D01*
X182429000Y-136138073D01*
X182270586Y-136296211D01*
X182129161Y-136636799D01*
X182128839Y-137005583D01*
X182269669Y-137346417D01*
X182530211Y-137607414D01*
X182870799Y-137748839D01*
X183239583Y-137749161D01*
X183580417Y-137608331D01*
X183841414Y-137347789D01*
X183982839Y-137007201D01*
X183983161Y-136638417D01*
X183842331Y-136297583D01*
X183683000Y-136137974D01*
X183683000Y-132933927D01*
X183841414Y-132775789D01*
X183982839Y-132435201D01*
X183983161Y-132066417D01*
X183842331Y-131725583D01*
X183581789Y-131464586D01*
X183241201Y-131323161D01*
X182872417Y-131322839D01*
X182531583Y-131463669D01*
X182270586Y-131724211D01*
X182129161Y-132064799D01*
X182128839Y-132433583D01*
X181353609Y-132433583D01*
X181401793Y-132317544D01*
X181402206Y-131844531D01*
X181221573Y-131407365D01*
X180887394Y-131072603D01*
X180450544Y-130891207D01*
X179977531Y-130890794D01*
X179930103Y-130910391D01*
X179587349Y-130567637D01*
X179975456Y-130728793D01*
X180448469Y-130729206D01*
X180885635Y-130548573D01*
X181220397Y-130214394D01*
X181401793Y-129777544D01*
X181402206Y-129304531D01*
X181221573Y-128867365D01*
X180887394Y-128532603D01*
X180450544Y-128351207D01*
X179977531Y-128350794D01*
X179540365Y-128531427D01*
X179205603Y-128865606D01*
X179024207Y-129302456D01*
X179023794Y-129775469D01*
X179204427Y-130212635D01*
X179218143Y-130226375D01*
X179200212Y-130214394D01*
X179098943Y-130146728D01*
X178859000Y-130099000D01*
X173648313Y-130099000D01*
X173781793Y-129777544D01*
X173782206Y-129304531D01*
X173601573Y-128867365D01*
X173267394Y-128532603D01*
X172830544Y-128351207D01*
X172357531Y-128350794D01*
X171967944Y-128511768D01*
X172309854Y-128169858D01*
X172355456Y-128188793D01*
X172828469Y-128189206D01*
X173265635Y-128008573D01*
X173600397Y-127674394D01*
X173781793Y-127237544D01*
X173782206Y-126764531D01*
X173601573Y-126327365D01*
X173547303Y-126273000D01*
X178599288Y-126273000D01*
X179043142Y-126716854D01*
X179024207Y-126762456D01*
X179023794Y-127235469D01*
X179204427Y-127672635D01*
X179538606Y-128007397D01*
X179975456Y-128188793D01*
X180448469Y-128189206D01*
X180885635Y-128008573D01*
X181220397Y-127674394D01*
X181401793Y-127237544D01*
X181402206Y-126764531D01*
X181221573Y-126327365D01*
X180887394Y-125992603D01*
X180450544Y-125811207D01*
X179977531Y-125810794D01*
X179930103Y-125830391D01*
X179587349Y-125487637D01*
X179975456Y-125648793D01*
X180448469Y-125649206D01*
X180885635Y-125468573D01*
X181220397Y-125134394D01*
X181401793Y-124697544D01*
X181402206Y-124224531D01*
X181221573Y-123787365D01*
X180887394Y-123452603D01*
X180450544Y-123271207D01*
X179977531Y-123270794D01*
X179930103Y-123290391D01*
X179048356Y-122408644D01*
X178951609Y-122344000D01*
X178844943Y-122272728D01*
X178605000Y-122225000D01*
X174285000Y-122225000D01*
X174285000Y-120312000D01*
X174237272Y-120072057D01*
X174101356Y-119868644D01*
X172336514Y-118103802D01*
X172375064Y-118047381D01*
X172409365Y-117878000D01*
X172409365Y-116478000D01*
X172379591Y-116319763D01*
X172286073Y-116174433D01*
X172143381Y-116076936D01*
X172142771Y-116076812D01*
X172277567Y-115990073D01*
X172375064Y-115847381D01*
X172409365Y-115678000D01*
X172409365Y-114278000D01*
X172379591Y-114119763D01*
X172286073Y-113974433D01*
X172143381Y-113876936D01*
X171974000Y-113842635D01*
X170574000Y-113842635D01*
X170415763Y-113872409D01*
X170270433Y-113965927D01*
X170172936Y-114108619D01*
X170138635Y-114278000D01*
X170138635Y-115678000D01*
X170168409Y-115836237D01*
X170261927Y-115981567D01*
X170404619Y-116079064D01*
X170405229Y-116079188D01*
X170270433Y-116165927D01*
X170172936Y-116308619D01*
X170138635Y-116478000D01*
X170138635Y-117878000D01*
X170168409Y-118036237D01*
X170261927Y-118181567D01*
X170404619Y-118279064D01*
X170574000Y-118313365D01*
X170791896Y-118313365D01*
X170830644Y-118371356D01*
X173031000Y-120571712D01*
X173031000Y-122225000D01*
X171186145Y-122225000D01*
X171219414Y-122191789D01*
X171360839Y-121851201D01*
X171361161Y-121482417D01*
X171220331Y-121141583D01*
X170959789Y-120880586D01*
X170619201Y-120739161D01*
X170250417Y-120738839D01*
X169909583Y-120879669D01*
X169749974Y-121039000D01*
X167391712Y-121039000D01*
X165551000Y-119198288D01*
X165551000Y-118313365D01*
X165624000Y-118313365D01*
X165782237Y-118283591D01*
X165927567Y-118190073D01*
X166025064Y-118047381D01*
X166059365Y-117878000D01*
X166059365Y-116478000D01*
X166029591Y-116319763D01*
X165936073Y-116174433D01*
X165793381Y-116076936D01*
X165792771Y-116076812D01*
X165927567Y-115990073D01*
X166025064Y-115847381D01*
X166059365Y-115678000D01*
X166059365Y-114278000D01*
X166029591Y-114119763D01*
X165936073Y-113974433D01*
X165793381Y-113876936D01*
X165624000Y-113842635D01*
X164224000Y-113842635D01*
X164065763Y-113872409D01*
X163920433Y-113965927D01*
X163822936Y-114108619D01*
X163788635Y-114278000D01*
X163788635Y-115678000D01*
X163818409Y-115836237D01*
X163911927Y-115981567D01*
X164054619Y-116079064D01*
X164055229Y-116079188D01*
X163920433Y-116165927D01*
X163822936Y-116308619D01*
X163788635Y-116478000D01*
X163788635Y-117878000D01*
X163818409Y-118036237D01*
X163911927Y-118181567D01*
X164054619Y-118279064D01*
X164224000Y-118313365D01*
X164297000Y-118313365D01*
X164297000Y-119458000D01*
X164344728Y-119697943D01*
X164437881Y-119837356D01*
X164480644Y-119901356D01*
X166688644Y-122109356D01*
X166861717Y-122225000D01*
X158831998Y-122225000D01*
X158949414Y-122107789D01*
X159090839Y-121767201D01*
X159091161Y-121398417D01*
X159023228Y-121234007D01*
X159648429Y-119916863D01*
X159652352Y-119901293D01*
X159661272Y-119887943D01*
X159682108Y-119783196D01*
X159708201Y-119679634D01*
X159705867Y-119663749D01*
X159709000Y-119648000D01*
X159709000Y-118313365D01*
X159782000Y-118313365D01*
X159940237Y-118283591D01*
X160085567Y-118190073D01*
X160183064Y-118047381D01*
X160217365Y-117878000D01*
X160217365Y-116478000D01*
X160187591Y-116319763D01*
X160094073Y-116174433D01*
X159951381Y-116076936D01*
X159950771Y-116076812D01*
X160085567Y-115990073D01*
X160183064Y-115847381D01*
X160217365Y-115678000D01*
X160217365Y-114278000D01*
X160187591Y-114119763D01*
X160094073Y-113974433D01*
X159951381Y-113876936D01*
X159782000Y-113842635D01*
X158382000Y-113842635D01*
X158223763Y-113872409D01*
X158078433Y-113965927D01*
X157980936Y-114108619D01*
X157946635Y-114278000D01*
X157946635Y-115678000D01*
X157976409Y-115836237D01*
X158069927Y-115981567D01*
X158212619Y-116079064D01*
X158213229Y-116079188D01*
X158078433Y-116165927D01*
X157980936Y-116308619D01*
X157946635Y-116478000D01*
X157946635Y-117878000D01*
X157976409Y-118036237D01*
X158069927Y-118181567D01*
X158212619Y-118279064D01*
X158382000Y-118313365D01*
X158455000Y-118313365D01*
X158455000Y-119506745D01*
X157892871Y-120691012D01*
X157639583Y-120795669D01*
X157378586Y-121056211D01*
X157237161Y-121396799D01*
X157236839Y-121765583D01*
X157377669Y-122106417D01*
X157496045Y-122225000D01*
X155044582Y-122225000D01*
X154925943Y-122145728D01*
X154686000Y-122098000D01*
X154446057Y-122145728D01*
X154327418Y-122225000D01*
X150787712Y-122225000D01*
X153175356Y-119837356D01*
X153254257Y-119719272D01*
X153311272Y-119633943D01*
X153311272Y-119633942D01*
X153311273Y-119633941D01*
X153359000Y-119394000D01*
X153359000Y-118567365D01*
X153432000Y-118567365D01*
X153590237Y-118537591D01*
X153735567Y-118444073D01*
X153833064Y-118301381D01*
X153867365Y-118132000D01*
X153867365Y-116732000D01*
X153837591Y-116573763D01*
X153744073Y-116428433D01*
X153601381Y-116330936D01*
X153600771Y-116330812D01*
X153735567Y-116244073D01*
X153833064Y-116101381D01*
X153867365Y-115932000D01*
X153867365Y-114532000D01*
X153837591Y-114373763D01*
X153744073Y-114228433D01*
X153601381Y-114130936D01*
X153432000Y-114096635D01*
X152032000Y-114096635D01*
X151873763Y-114126409D01*
X151728433Y-114219927D01*
X151630936Y-114362619D01*
X151596635Y-114532000D01*
X151596635Y-115932000D01*
X151626409Y-116090237D01*
X151719927Y-116235567D01*
X151862619Y-116333064D01*
X151863229Y-116333188D01*
X151728433Y-116419927D01*
X151630936Y-116562619D01*
X151596635Y-116732000D01*
X151596635Y-118132000D01*
X151626409Y-118290237D01*
X151719927Y-118435567D01*
X151862619Y-118533064D01*
X152032000Y-118567365D01*
X152105000Y-118567365D01*
X152105000Y-119134288D01*
X150030288Y-121209000D01*
X145199712Y-121209000D01*
X146825356Y-119583356D01*
X146951879Y-119394000D01*
X146961272Y-119379943D01*
X147009000Y-119140000D01*
X147009000Y-118567365D01*
X147082000Y-118567365D01*
X147240237Y-118537591D01*
X147385567Y-118444073D01*
X147483064Y-118301381D01*
X147517365Y-118132000D01*
X147517365Y-116732000D01*
X147487591Y-116573763D01*
X147394073Y-116428433D01*
X147251381Y-116330936D01*
X147250771Y-116330812D01*
X147385567Y-116244073D01*
X147483064Y-116101381D01*
X147517365Y-115932000D01*
X147517365Y-114532000D01*
X147487591Y-114373763D01*
X147394073Y-114228433D01*
X147251381Y-114130936D01*
X147082000Y-114096635D01*
X145682000Y-114096635D01*
X145523763Y-114126409D01*
X145378433Y-114219927D01*
X145280936Y-114362619D01*
X145246635Y-114532000D01*
X145246635Y-115932000D01*
X145276409Y-116090237D01*
X145369927Y-116235567D01*
X145512619Y-116333064D01*
X145513229Y-116333188D01*
X145378433Y-116419927D01*
X145280936Y-116562619D01*
X145246635Y-116732000D01*
X145246635Y-118132000D01*
X145276409Y-118290237D01*
X145369927Y-118435567D01*
X145512619Y-118533064D01*
X145682000Y-118567365D01*
X145755000Y-118567365D01*
X145755000Y-118880288D01*
X144188288Y-120447000D01*
X139611712Y-120447000D01*
X140475356Y-119583356D01*
X140601879Y-119394000D01*
X140611272Y-119379943D01*
X140659000Y-119140000D01*
X140659000Y-118567365D01*
X140732000Y-118567365D01*
X140890237Y-118537591D01*
X141035567Y-118444073D01*
X141133064Y-118301381D01*
X141167365Y-118132000D01*
X141167365Y-116732000D01*
X141137591Y-116573763D01*
X141044073Y-116428433D01*
X140901381Y-116330936D01*
X140900771Y-116330812D01*
X141035567Y-116244073D01*
X141133064Y-116101381D01*
X141167365Y-115932000D01*
X141167365Y-114532000D01*
X141137591Y-114373763D01*
X141044073Y-114228433D01*
X140901381Y-114130936D01*
X140732000Y-114096635D01*
X139332000Y-114096635D01*
X139173763Y-114126409D01*
X139028433Y-114219927D01*
X138930936Y-114362619D01*
X138896635Y-114532000D01*
X138896635Y-115932000D01*
X138926409Y-116090237D01*
X139019927Y-116235567D01*
X139162619Y-116333064D01*
X139163229Y-116333188D01*
X139028433Y-116419927D01*
X138930936Y-116562619D01*
X138896635Y-116732000D01*
X138896635Y-118132000D01*
X138926409Y-118290237D01*
X139019927Y-118435567D01*
X139162619Y-118533064D01*
X139332000Y-118567365D01*
X139405000Y-118567365D01*
X139405000Y-118880288D01*
X138600288Y-119685000D01*
X132499712Y-119685000D01*
X133998356Y-118186356D01*
X134083209Y-118059365D01*
X134255000Y-118059365D01*
X134413237Y-118029591D01*
X134558567Y-117936073D01*
X134656064Y-117793381D01*
X134690365Y-117624000D01*
X134690365Y-116224000D01*
X134660591Y-116065763D01*
X134567073Y-115920433D01*
X134424381Y-115822936D01*
X134423771Y-115822812D01*
X134558567Y-115736073D01*
X134656064Y-115593381D01*
X134690365Y-115424000D01*
X134690365Y-114024000D01*
X134681807Y-113978519D01*
X135737764Y-115034476D01*
X135719635Y-115124000D01*
X135719635Y-116524000D01*
X135749409Y-116682237D01*
X135842927Y-116827567D01*
X135985619Y-116925064D01*
X136155000Y-116959365D01*
X137555000Y-116959365D01*
X137713237Y-116929591D01*
X137858567Y-116836073D01*
X137956064Y-116693381D01*
X137990365Y-116524000D01*
X137990365Y-115124000D01*
X137960591Y-114965763D01*
X137867073Y-114820433D01*
X137724381Y-114722936D01*
X137555000Y-114688635D01*
X137165347Y-114688635D01*
X133921860Y-111445148D01*
X133921860Y-111133750D01*
X134761710Y-111133750D01*
X134761710Y-111374359D01*
X134858383Y-111607748D01*
X135037011Y-111786377D01*
X135270400Y-111883050D01*
X136011390Y-111883050D01*
X136170140Y-111724300D01*
X136170140Y-110975000D01*
X136424140Y-110975000D01*
X136424140Y-111724300D01*
X136582890Y-111883050D01*
X137323880Y-111883050D01*
X137557269Y-111786377D01*
X137735897Y-111607748D01*
X137832570Y-111374359D01*
X137832570Y-111133750D01*
X137673820Y-110975000D01*
X136424140Y-110975000D01*
X136170140Y-110975000D01*
X134920460Y-110975000D01*
X134761710Y-111133750D01*
X133921860Y-111133750D01*
X133921860Y-110733415D01*
X134195290Y-110733415D01*
X134353527Y-110703641D01*
X134498857Y-110610123D01*
X134596354Y-110467431D01*
X134625877Y-110321641D01*
X134761710Y-110321641D01*
X134761710Y-110562250D01*
X134920460Y-110721000D01*
X136170140Y-110721000D01*
X136170140Y-109971700D01*
X136424140Y-109971700D01*
X136424140Y-110721000D01*
X137673820Y-110721000D01*
X137832570Y-110562250D01*
X137832570Y-110321641D01*
X137735897Y-110088252D01*
X137557269Y-109909623D01*
X137323880Y-109812950D01*
X136582890Y-109812950D01*
X136424140Y-109971700D01*
X136170140Y-109971700D01*
X136011390Y-109812950D01*
X135270400Y-109812950D01*
X135037011Y-109909623D01*
X134858383Y-110088252D01*
X134761710Y-110321641D01*
X134625877Y-110321641D01*
X134630655Y-110298050D01*
X134630655Y-109497950D01*
X134600881Y-109339713D01*
X134507363Y-109194383D01*
X134364671Y-109096886D01*
X134195290Y-109062585D01*
X132394430Y-109062585D01*
X132236193Y-109092359D01*
X132090863Y-109185877D01*
X131993366Y-109328569D01*
X131959065Y-109497950D01*
X131959065Y-110298050D01*
X131988839Y-110456287D01*
X132082357Y-110601617D01*
X132225049Y-110699114D01*
X132394430Y-110733415D01*
X132667860Y-110733415D01*
X132667860Y-111704860D01*
X132715588Y-111944803D01*
X132794097Y-112062300D01*
X132851504Y-112148216D01*
X134301299Y-113598011D01*
X134255000Y-113588635D01*
X132855000Y-113588635D01*
X132696763Y-113618409D01*
X132551433Y-113711927D01*
X132453936Y-113854619D01*
X132419635Y-114024000D01*
X132419635Y-115424000D01*
X132449409Y-115582237D01*
X132542927Y-115727567D01*
X132685619Y-115825064D01*
X132686229Y-115825188D01*
X132551433Y-115911927D01*
X132453936Y-116054619D01*
X132419635Y-116224000D01*
X132419635Y-117624000D01*
X132449409Y-117782237D01*
X132519746Y-117891542D01*
X131488288Y-118923000D01*
X120318000Y-118923000D01*
X120078058Y-118970727D01*
X119874644Y-119106644D01*
X118096644Y-120884644D01*
X117960728Y-121088057D01*
X117913000Y-121328000D01*
X117397000Y-121328000D01*
X117397000Y-95433583D01*
X132422839Y-95433583D01*
X132563669Y-95774417D01*
X132824211Y-96035414D01*
X133164799Y-96176839D01*
X133533583Y-96177161D01*
X133874417Y-96036331D01*
X134034026Y-95877000D01*
X154186000Y-95877000D01*
X154186000Y-96602222D01*
X154178619Y-96613025D01*
X154155073Y-96576433D01*
X154012381Y-96478936D01*
X153843000Y-96444635D01*
X153243000Y-96444635D01*
X153084763Y-96474409D01*
X152939433Y-96567927D01*
X152841936Y-96710619D01*
X152807635Y-96880000D01*
X152807635Y-98380000D01*
X152837409Y-98538237D01*
X152930927Y-98683567D01*
X153073619Y-98781064D01*
X153243000Y-98815365D01*
X153843000Y-98815365D01*
X154001237Y-98785591D01*
X154146567Y-98692073D01*
X154177381Y-98646975D01*
X154186000Y-98660370D01*
X154186000Y-99949000D01*
X154233728Y-100188943D01*
X154267079Y-100238856D01*
X154266839Y-100513583D01*
X154407669Y-100854417D01*
X154668211Y-101115414D01*
X155008799Y-101256839D01*
X155377583Y-101257161D01*
X155718417Y-101116331D01*
X155979414Y-100855789D01*
X156120839Y-100515201D01*
X156121161Y-100146417D01*
X155980331Y-99805583D01*
X155719789Y-99544586D01*
X155440000Y-99428407D01*
X155440000Y-98657778D01*
X155447381Y-98646975D01*
X155470927Y-98683567D01*
X155613619Y-98781064D01*
X155783000Y-98815365D01*
X156383000Y-98815365D01*
X156541237Y-98785591D01*
X156686567Y-98692073D01*
X156717381Y-98646975D01*
X156740927Y-98683567D01*
X156883619Y-98781064D01*
X157053000Y-98815365D01*
X157653000Y-98815365D01*
X157811237Y-98785591D01*
X157956567Y-98692073D01*
X157987381Y-98646975D01*
X157996000Y-98660370D01*
X157996000Y-98933000D01*
X158043728Y-99172943D01*
X158078404Y-99224839D01*
X158179644Y-99376356D01*
X158560644Y-99757356D01*
X158764057Y-99893272D01*
X159004000Y-99941000D01*
X164846000Y-99941000D01*
X165085943Y-99893272D01*
X165235000Y-99793675D01*
X165235000Y-101932073D01*
X165076586Y-102090211D01*
X164935161Y-102430799D01*
X164934839Y-102799583D01*
X165075669Y-103140417D01*
X165336211Y-103401414D01*
X165676799Y-103542839D01*
X166045583Y-103543161D01*
X166386417Y-103402331D01*
X166542200Y-103246820D01*
X166459161Y-103446799D01*
X166458839Y-103815583D01*
X166599669Y-104156417D01*
X166718045Y-104275000D01*
X164564712Y-104275000D01*
X163168365Y-102878653D01*
X163168365Y-102280000D01*
X163138591Y-102121763D01*
X163045073Y-101976433D01*
X162902381Y-101878936D01*
X162733000Y-101844635D01*
X162133000Y-101844635D01*
X161974763Y-101874409D01*
X161829433Y-101967927D01*
X161798619Y-102013025D01*
X161775073Y-101976433D01*
X161632381Y-101878936D01*
X161463000Y-101844635D01*
X160863000Y-101844635D01*
X160704763Y-101874409D01*
X160559433Y-101967927D01*
X160528619Y-102013025D01*
X160505073Y-101976433D01*
X160362381Y-101878936D01*
X160193000Y-101844635D01*
X159593000Y-101844635D01*
X159434763Y-101874409D01*
X159289433Y-101967927D01*
X159258619Y-102013025D01*
X159235073Y-101976433D01*
X159092381Y-101878936D01*
X158923000Y-101844635D01*
X158323000Y-101844635D01*
X158164763Y-101874409D01*
X158019433Y-101967927D01*
X157988619Y-102013025D01*
X157965073Y-101976433D01*
X157822381Y-101878936D01*
X157653000Y-101844635D01*
X157053000Y-101844635D01*
X156894763Y-101874409D01*
X156749433Y-101967927D01*
X156718619Y-102013025D01*
X156695073Y-101976433D01*
X156552381Y-101878936D01*
X156383000Y-101844635D01*
X155783000Y-101844635D01*
X155624763Y-101874409D01*
X155479433Y-101967927D01*
X155448619Y-102013025D01*
X155425073Y-101976433D01*
X155282381Y-101878936D01*
X155113000Y-101844635D01*
X154513000Y-101844635D01*
X154354763Y-101874409D01*
X154343002Y-101881977D01*
X154202699Y-101741673D01*
X153969310Y-101645000D01*
X153828750Y-101645000D01*
X153670000Y-101803750D01*
X153670000Y-102903000D01*
X153690000Y-102903000D01*
X153690000Y-103157000D01*
X153670000Y-103157000D01*
X153670000Y-104256250D01*
X153828750Y-104415000D01*
X153969310Y-104415000D01*
X154186000Y-104325244D01*
X154186000Y-104515288D01*
X153410288Y-105291000D01*
X143415998Y-105291000D01*
X143533414Y-105173789D01*
X143674839Y-104833201D01*
X143675161Y-104464417D01*
X143534331Y-104123583D01*
X143375000Y-103963974D01*
X143375000Y-103315750D01*
X152608000Y-103315750D01*
X152608000Y-103906309D01*
X152704673Y-104139698D01*
X152883301Y-104318327D01*
X153116690Y-104415000D01*
X153257250Y-104415000D01*
X153416000Y-104256250D01*
X153416000Y-103157000D01*
X152766750Y-103157000D01*
X152608000Y-103315750D01*
X143375000Y-103315750D01*
X143375000Y-102153691D01*
X152608000Y-102153691D01*
X152608000Y-102744250D01*
X152766750Y-102903000D01*
X153416000Y-102903000D01*
X153416000Y-101803750D01*
X153257250Y-101645000D01*
X153116690Y-101645000D01*
X152883301Y-101741673D01*
X152704673Y-101920302D01*
X152608000Y-102153691D01*
X143375000Y-102153691D01*
X143375000Y-100513583D01*
X148678839Y-100513583D01*
X148819669Y-100854417D01*
X149080211Y-101115414D01*
X149420799Y-101256839D01*
X149789583Y-101257161D01*
X150130417Y-101116331D01*
X150290026Y-100957000D01*
X151462073Y-100957000D01*
X151620211Y-101115414D01*
X151960799Y-101256839D01*
X152329583Y-101257161D01*
X152670417Y-101116331D01*
X152931414Y-100855789D01*
X153072839Y-100515201D01*
X153073161Y-100146417D01*
X152932331Y-99805583D01*
X152671789Y-99544586D01*
X152331201Y-99403161D01*
X151962417Y-99402839D01*
X151621583Y-99543669D01*
X151461974Y-99703000D01*
X150289927Y-99703000D01*
X150131789Y-99544586D01*
X149791201Y-99403161D01*
X149422417Y-99402839D01*
X149081583Y-99543669D01*
X148820586Y-99804211D01*
X148679161Y-100144799D01*
X148678839Y-100513583D01*
X143375000Y-100513583D01*
X143375000Y-99462015D01*
X143507448Y-99197120D01*
X143780417Y-99084331D01*
X144041414Y-98823789D01*
X144182839Y-98483201D01*
X144183161Y-98114417D01*
X144042331Y-97773583D01*
X143781789Y-97512586D01*
X143441201Y-97371161D01*
X143072417Y-97370839D01*
X142731583Y-97511669D01*
X142470586Y-97772211D01*
X142329161Y-98112799D01*
X142328839Y-98481583D01*
X142389634Y-98628717D01*
X142187194Y-99033597D01*
X142181244Y-99055326D01*
X142168728Y-99074057D01*
X142149121Y-99172626D01*
X142122578Y-99269553D01*
X142125395Y-99291903D01*
X142121000Y-99314000D01*
X142121000Y-103964073D01*
X141962586Y-104122211D01*
X141821161Y-104462799D01*
X141820839Y-104831583D01*
X141961669Y-105172417D01*
X142080045Y-105291000D01*
X136906000Y-105291000D01*
X136666057Y-105338728D01*
X136571364Y-105402000D01*
X136462644Y-105474644D01*
X135853784Y-106083504D01*
X135717868Y-106286917D01*
X135670140Y-106526860D01*
X135670140Y-108112585D01*
X135396710Y-108112585D01*
X135238473Y-108142359D01*
X135093143Y-108235877D01*
X134995646Y-108378569D01*
X134961345Y-108547950D01*
X134961345Y-109348050D01*
X134991119Y-109506287D01*
X135084637Y-109651617D01*
X135227329Y-109749114D01*
X135396710Y-109783415D01*
X137197570Y-109783415D01*
X137355807Y-109753641D01*
X137501137Y-109660123D01*
X137554550Y-109581950D01*
X138387065Y-109581950D01*
X138387065Y-110382050D01*
X138416839Y-110540287D01*
X138510357Y-110685617D01*
X138653049Y-110783114D01*
X138822430Y-110817415D01*
X139095860Y-110817415D01*
X139095860Y-111274860D01*
X139143588Y-111514803D01*
X139279504Y-111718216D01*
X142705000Y-115143712D01*
X142705000Y-115196635D01*
X142632000Y-115196635D01*
X142473763Y-115226409D01*
X142328433Y-115319927D01*
X142230936Y-115462619D01*
X142196635Y-115632000D01*
X142196635Y-117032000D01*
X142226409Y-117190237D01*
X142319927Y-117335567D01*
X142462619Y-117433064D01*
X142632000Y-117467365D01*
X144032000Y-117467365D01*
X144190237Y-117437591D01*
X144335567Y-117344073D01*
X144433064Y-117201381D01*
X144467365Y-117032000D01*
X144467365Y-115632000D01*
X144437591Y-115473763D01*
X144344073Y-115328433D01*
X144201381Y-115230936D01*
X144032000Y-115196635D01*
X143959000Y-115196635D01*
X143959000Y-114884000D01*
X143911273Y-114644058D01*
X143775356Y-114440644D01*
X140552462Y-111217750D01*
X141189710Y-111217750D01*
X141189710Y-111458359D01*
X141286383Y-111691748D01*
X141465011Y-111870377D01*
X141698400Y-111967050D01*
X142439390Y-111967050D01*
X142598140Y-111808300D01*
X142598140Y-111059000D01*
X142852140Y-111059000D01*
X142852140Y-111808300D01*
X143010890Y-111967050D01*
X143751880Y-111967050D01*
X143985269Y-111870377D01*
X144163897Y-111691748D01*
X144260570Y-111458359D01*
X144260570Y-111217750D01*
X144101820Y-111059000D01*
X142852140Y-111059000D01*
X142598140Y-111059000D01*
X141348460Y-111059000D01*
X141189710Y-111217750D01*
X140552462Y-111217750D01*
X140349860Y-111015148D01*
X140349860Y-110817415D01*
X140623290Y-110817415D01*
X140781527Y-110787641D01*
X140926857Y-110694123D01*
X141024354Y-110551431D01*
X141053877Y-110405641D01*
X141189710Y-110405641D01*
X141189710Y-110646250D01*
X141348460Y-110805000D01*
X142598140Y-110805000D01*
X142598140Y-110055700D01*
X142852140Y-110055700D01*
X142852140Y-110805000D01*
X144101820Y-110805000D01*
X144260570Y-110646250D01*
X144260570Y-110405641D01*
X144163897Y-110172252D01*
X143985269Y-109993623D01*
X143751880Y-109896950D01*
X143010890Y-109896950D01*
X142852140Y-110055700D01*
X142598140Y-110055700D01*
X142439390Y-109896950D01*
X141698400Y-109896950D01*
X141465011Y-109993623D01*
X141286383Y-110172252D01*
X141189710Y-110405641D01*
X141053877Y-110405641D01*
X141058655Y-110382050D01*
X141058655Y-109581950D01*
X141028881Y-109423713D01*
X140935363Y-109278383D01*
X140792671Y-109180886D01*
X140623290Y-109146585D01*
X138822430Y-109146585D01*
X138664193Y-109176359D01*
X138518863Y-109269877D01*
X138421366Y-109412569D01*
X138387065Y-109581950D01*
X137554550Y-109581950D01*
X137598634Y-109517431D01*
X137632935Y-109348050D01*
X137632935Y-108547950D01*
X137603161Y-108389713D01*
X137509643Y-108244383D01*
X137366951Y-108146886D01*
X137197570Y-108112585D01*
X136924140Y-108112585D01*
X136924140Y-106786572D01*
X137165712Y-106545000D01*
X144028288Y-106545000D01*
X142558644Y-108014644D01*
X142437075Y-108196585D01*
X141824710Y-108196585D01*
X141666473Y-108226359D01*
X141521143Y-108319877D01*
X141423646Y-108462569D01*
X141389345Y-108631950D01*
X141389345Y-109432050D01*
X141419119Y-109590287D01*
X141512637Y-109735617D01*
X141655329Y-109833114D01*
X141824710Y-109867415D01*
X143625570Y-109867415D01*
X143783807Y-109837641D01*
X143929137Y-109744123D01*
X144026634Y-109601431D01*
X144030579Y-109581950D01*
X144991065Y-109581950D01*
X144991065Y-110382050D01*
X145020839Y-110540287D01*
X145114357Y-110685617D01*
X145257049Y-110783114D01*
X145426430Y-110817415D01*
X145699860Y-110817415D01*
X145699860Y-111020860D01*
X145747588Y-111260803D01*
X145883504Y-111464216D01*
X149055000Y-114635712D01*
X149055000Y-115196635D01*
X148982000Y-115196635D01*
X148823763Y-115226409D01*
X148678433Y-115319927D01*
X148580936Y-115462619D01*
X148546635Y-115632000D01*
X148546635Y-117032000D01*
X148576409Y-117190237D01*
X148669927Y-117335567D01*
X148812619Y-117433064D01*
X148982000Y-117467365D01*
X150382000Y-117467365D01*
X150540237Y-117437591D01*
X150685567Y-117344073D01*
X150783064Y-117201381D01*
X150817365Y-117032000D01*
X150817365Y-115632000D01*
X150787591Y-115473763D01*
X150694073Y-115328433D01*
X150551381Y-115230936D01*
X150382000Y-115196635D01*
X150309000Y-115196635D01*
X150309000Y-114376000D01*
X150261272Y-114136057D01*
X150125356Y-113932644D01*
X147410462Y-111217750D01*
X147793710Y-111217750D01*
X147793710Y-111458359D01*
X147890383Y-111691748D01*
X148069011Y-111870377D01*
X148302400Y-111967050D01*
X149043390Y-111967050D01*
X149202140Y-111808300D01*
X149202140Y-111059000D01*
X149456140Y-111059000D01*
X149456140Y-111808300D01*
X149614890Y-111967050D01*
X150355880Y-111967050D01*
X150589269Y-111870377D01*
X150767897Y-111691748D01*
X150864570Y-111458359D01*
X150864570Y-111217750D01*
X150705820Y-111059000D01*
X149456140Y-111059000D01*
X149202140Y-111059000D01*
X147952460Y-111059000D01*
X147793710Y-111217750D01*
X147410462Y-111217750D01*
X147010127Y-110817415D01*
X147227290Y-110817415D01*
X147385527Y-110787641D01*
X147530857Y-110694123D01*
X147628354Y-110551431D01*
X147657877Y-110405641D01*
X147793710Y-110405641D01*
X147793710Y-110646250D01*
X147952460Y-110805000D01*
X149202140Y-110805000D01*
X149202140Y-110055700D01*
X149456140Y-110055700D01*
X149456140Y-110805000D01*
X150705820Y-110805000D01*
X150864570Y-110646250D01*
X150864570Y-110405641D01*
X150767897Y-110172252D01*
X150589269Y-109993623D01*
X150355880Y-109896950D01*
X149614890Y-109896950D01*
X149456140Y-110055700D01*
X149202140Y-110055700D01*
X149043390Y-109896950D01*
X148302400Y-109896950D01*
X148069011Y-109993623D01*
X147890383Y-110172252D01*
X147793710Y-110405641D01*
X147657877Y-110405641D01*
X147662655Y-110382050D01*
X147662655Y-109581950D01*
X147632881Y-109423713D01*
X147539363Y-109278383D01*
X147396671Y-109180886D01*
X147227290Y-109146585D01*
X145426430Y-109146585D01*
X145268193Y-109176359D01*
X145122863Y-109269877D01*
X145025366Y-109412569D01*
X144991065Y-109581950D01*
X144030579Y-109581950D01*
X144060935Y-109432050D01*
X144060935Y-108631950D01*
X144031161Y-108473713D01*
X143969235Y-108377477D01*
X144785712Y-107561000D01*
X150378288Y-107561000D01*
X149742703Y-108196585D01*
X148428710Y-108196585D01*
X148270473Y-108226359D01*
X148125143Y-108319877D01*
X148027646Y-108462569D01*
X147993345Y-108631950D01*
X147993345Y-109432050D01*
X148023119Y-109590287D01*
X148116637Y-109735617D01*
X148259329Y-109833114D01*
X148428710Y-109867415D01*
X150229570Y-109867415D01*
X150387807Y-109837641D01*
X150533137Y-109744123D01*
X150630634Y-109601431D01*
X150634579Y-109581950D01*
X151595065Y-109581950D01*
X151595065Y-110382050D01*
X151624839Y-110540287D01*
X151718357Y-110685617D01*
X151861049Y-110783114D01*
X152030430Y-110817415D01*
X152313916Y-110817415D01*
X152351588Y-111006803D01*
X152436411Y-111133750D01*
X152487504Y-111210216D01*
X155405000Y-114127712D01*
X155405000Y-115196635D01*
X155332000Y-115196635D01*
X155173763Y-115226409D01*
X155028433Y-115319927D01*
X154930936Y-115462619D01*
X154896635Y-115632000D01*
X154896635Y-117032000D01*
X154926409Y-117190237D01*
X155019927Y-117335567D01*
X155162619Y-117433064D01*
X155332000Y-117467365D01*
X156732000Y-117467365D01*
X156890237Y-117437591D01*
X157035567Y-117344073D01*
X157133064Y-117201381D01*
X157167365Y-117032000D01*
X157167365Y-115632000D01*
X157137591Y-115473763D01*
X157044073Y-115328433D01*
X156901381Y-115230936D01*
X156732000Y-115196635D01*
X156659000Y-115196635D01*
X156659000Y-113868000D01*
X156611272Y-113628057D01*
X156475356Y-113424644D01*
X155017762Y-111967050D01*
X155647390Y-111967050D01*
X155806140Y-111808300D01*
X155806140Y-111059000D01*
X156060140Y-111059000D01*
X156060140Y-111808300D01*
X156218890Y-111967050D01*
X156959880Y-111967050D01*
X157193269Y-111870377D01*
X157371897Y-111691748D01*
X157468570Y-111458359D01*
X157468570Y-111217750D01*
X157309820Y-111059000D01*
X156060140Y-111059000D01*
X155806140Y-111059000D01*
X154556460Y-111059000D01*
X154397710Y-111217750D01*
X154397710Y-111346998D01*
X153862293Y-110811581D01*
X153989527Y-110787641D01*
X154134857Y-110694123D01*
X154232354Y-110551431D01*
X154261877Y-110405641D01*
X154397710Y-110405641D01*
X154397710Y-110646250D01*
X154556460Y-110805000D01*
X155806140Y-110805000D01*
X155806140Y-110055700D01*
X156060140Y-110055700D01*
X156060140Y-110805000D01*
X157309820Y-110805000D01*
X157468570Y-110646250D01*
X157468570Y-110405641D01*
X157371897Y-110172252D01*
X157193269Y-109993623D01*
X156959880Y-109896950D01*
X156218890Y-109896950D01*
X156060140Y-110055700D01*
X155806140Y-110055700D01*
X155647390Y-109896950D01*
X154906400Y-109896950D01*
X154673011Y-109993623D01*
X154494383Y-110172252D01*
X154397710Y-110405641D01*
X154261877Y-110405641D01*
X154266655Y-110382050D01*
X154266655Y-109581950D01*
X154236881Y-109423713D01*
X154143363Y-109278383D01*
X154000671Y-109180886D01*
X153831290Y-109146585D01*
X152030430Y-109146585D01*
X151872193Y-109176359D01*
X151726863Y-109269877D01*
X151629366Y-109412569D01*
X151595065Y-109581950D01*
X150634579Y-109581950D01*
X150664935Y-109432050D01*
X150664935Y-109047777D01*
X151135712Y-108577000D01*
X154608473Y-108577000D01*
X154597345Y-108631950D01*
X154597345Y-109432050D01*
X154627119Y-109590287D01*
X154720637Y-109735617D01*
X154863329Y-109833114D01*
X155032710Y-109867415D01*
X156833570Y-109867415D01*
X156991807Y-109837641D01*
X157137137Y-109744123D01*
X157234634Y-109601431D01*
X157238579Y-109581950D01*
X157691065Y-109581950D01*
X157691065Y-110382050D01*
X157720839Y-110540287D01*
X157814357Y-110685617D01*
X157957049Y-110783114D01*
X158126430Y-110817415D01*
X158399860Y-110817415D01*
X158399860Y-111274860D01*
X158447588Y-111514803D01*
X158583504Y-111718216D01*
X161755000Y-114889712D01*
X161755000Y-114942635D01*
X161682000Y-114942635D01*
X161523763Y-114972409D01*
X161378433Y-115065927D01*
X161280936Y-115208619D01*
X161246635Y-115378000D01*
X161246635Y-116778000D01*
X161276409Y-116936237D01*
X161369927Y-117081567D01*
X161512619Y-117179064D01*
X161682000Y-117213365D01*
X163082000Y-117213365D01*
X163240237Y-117183591D01*
X163385567Y-117090073D01*
X163483064Y-116947381D01*
X163517365Y-116778000D01*
X163517365Y-115378000D01*
X163487591Y-115219763D01*
X163394073Y-115074433D01*
X163251381Y-114976936D01*
X163082000Y-114942635D01*
X163009000Y-114942635D01*
X163009000Y-114630000D01*
X162961272Y-114390057D01*
X162825356Y-114186644D01*
X159856462Y-111217750D01*
X160493710Y-111217750D01*
X160493710Y-111458359D01*
X160590383Y-111691748D01*
X160769011Y-111870377D01*
X161002400Y-111967050D01*
X161743390Y-111967050D01*
X161902140Y-111808300D01*
X161902140Y-111059000D01*
X162156140Y-111059000D01*
X162156140Y-111808300D01*
X162314890Y-111967050D01*
X163055880Y-111967050D01*
X163289269Y-111870377D01*
X163467897Y-111691748D01*
X163564570Y-111458359D01*
X163564570Y-111217750D01*
X163405820Y-111059000D01*
X162156140Y-111059000D01*
X161902140Y-111059000D01*
X160652460Y-111059000D01*
X160493710Y-111217750D01*
X159856462Y-111217750D01*
X159653860Y-111015148D01*
X159653860Y-110817415D01*
X159927290Y-110817415D01*
X160085527Y-110787641D01*
X160230857Y-110694123D01*
X160328354Y-110551431D01*
X160357877Y-110405641D01*
X160493710Y-110405641D01*
X160493710Y-110646250D01*
X160652460Y-110805000D01*
X161902140Y-110805000D01*
X161902140Y-110055700D01*
X162156140Y-110055700D01*
X162156140Y-110805000D01*
X163405820Y-110805000D01*
X163564570Y-110646250D01*
X163564570Y-110405641D01*
X163467897Y-110172252D01*
X163289269Y-109993623D01*
X163055880Y-109896950D01*
X162314890Y-109896950D01*
X162156140Y-110055700D01*
X161902140Y-110055700D01*
X161743390Y-109896950D01*
X161002400Y-109896950D01*
X160769011Y-109993623D01*
X160590383Y-110172252D01*
X160493710Y-110405641D01*
X160357877Y-110405641D01*
X160362655Y-110382050D01*
X160362655Y-109581950D01*
X160332881Y-109423713D01*
X160239363Y-109278383D01*
X160096671Y-109180886D01*
X159927290Y-109146585D01*
X158126430Y-109146585D01*
X157968193Y-109176359D01*
X157822863Y-109269877D01*
X157725366Y-109412569D01*
X157691065Y-109581950D01*
X157238579Y-109581950D01*
X157246208Y-109544277D01*
X157349356Y-109475356D01*
X159066356Y-107758356D01*
X159202273Y-107554942D01*
X159250000Y-107315000D01*
X159250000Y-104057778D01*
X159257381Y-104046975D01*
X159266000Y-104060370D01*
X159266000Y-104267000D01*
X159313728Y-104506943D01*
X159445215Y-104703727D01*
X159449644Y-104710356D01*
X161354644Y-106615356D01*
X161402140Y-106647092D01*
X161402140Y-108196585D01*
X161128710Y-108196585D01*
X160970473Y-108226359D01*
X160825143Y-108319877D01*
X160727646Y-108462569D01*
X160693345Y-108631950D01*
X160693345Y-109432050D01*
X160723119Y-109590287D01*
X160816637Y-109735617D01*
X160959329Y-109833114D01*
X161128710Y-109867415D01*
X162929570Y-109867415D01*
X163087807Y-109837641D01*
X163233137Y-109744123D01*
X163330634Y-109601431D01*
X163334579Y-109581950D01*
X163787065Y-109581950D01*
X163787065Y-110382050D01*
X163816839Y-110540287D01*
X163910357Y-110685617D01*
X164053049Y-110783114D01*
X164222430Y-110817415D01*
X164586760Y-110817415D01*
X164642109Y-110900250D01*
X164679504Y-110956216D01*
X167597000Y-113873712D01*
X167597000Y-114942635D01*
X167524000Y-114942635D01*
X167365763Y-114972409D01*
X167220433Y-115065927D01*
X167122936Y-115208619D01*
X167088635Y-115378000D01*
X167088635Y-116778000D01*
X167118409Y-116936237D01*
X167211927Y-117081567D01*
X167354619Y-117179064D01*
X167524000Y-117213365D01*
X168924000Y-117213365D01*
X169082237Y-117183591D01*
X169227567Y-117090073D01*
X169325064Y-116947381D01*
X169359365Y-116778000D01*
X169359365Y-115378000D01*
X169329591Y-115219763D01*
X169236073Y-115074433D01*
X169093381Y-114976936D01*
X168924000Y-114942635D01*
X168851000Y-114942635D01*
X168851000Y-113614000D01*
X168803272Y-113374057D01*
X168667356Y-113170644D01*
X167463762Y-111967050D01*
X167839390Y-111967050D01*
X167998140Y-111808300D01*
X167998140Y-111059000D01*
X168252140Y-111059000D01*
X168252140Y-111808300D01*
X168410890Y-111967050D01*
X169151880Y-111967050D01*
X169385269Y-111870377D01*
X169563897Y-111691748D01*
X169660570Y-111458359D01*
X169660570Y-111217750D01*
X169501820Y-111059000D01*
X168252140Y-111059000D01*
X167998140Y-111059000D01*
X166748460Y-111059000D01*
X166652086Y-111155374D01*
X166244093Y-110747381D01*
X166326857Y-110694123D01*
X166424354Y-110551431D01*
X166453877Y-110405641D01*
X166589710Y-110405641D01*
X166589710Y-110646250D01*
X166748460Y-110805000D01*
X167998140Y-110805000D01*
X167998140Y-110055700D01*
X168252140Y-110055700D01*
X168252140Y-110805000D01*
X169501820Y-110805000D01*
X169660570Y-110646250D01*
X169660570Y-110405641D01*
X169563897Y-110172252D01*
X169385269Y-109993623D01*
X169151880Y-109896950D01*
X168410890Y-109896950D01*
X168252140Y-110055700D01*
X167998140Y-110055700D01*
X167839390Y-109896950D01*
X167098400Y-109896950D01*
X166865011Y-109993623D01*
X166686383Y-110172252D01*
X166589710Y-110405641D01*
X166453877Y-110405641D01*
X166458655Y-110382050D01*
X166458655Y-109581950D01*
X166428881Y-109423713D01*
X166335363Y-109278383D01*
X166192671Y-109180886D01*
X166023290Y-109146585D01*
X164222430Y-109146585D01*
X164064193Y-109176359D01*
X163918863Y-109269877D01*
X163821366Y-109412569D01*
X163787065Y-109581950D01*
X163334579Y-109581950D01*
X163364935Y-109432050D01*
X163364935Y-108631950D01*
X163335161Y-108473713D01*
X163241643Y-108328383D01*
X163098951Y-108230886D01*
X162929570Y-108196585D01*
X162656140Y-108196585D01*
X162656140Y-106172000D01*
X162608412Y-105932057D01*
X162472496Y-105728644D01*
X162269083Y-105592728D01*
X162064807Y-105552095D01*
X162039157Y-105526445D01*
X162052000Y-105529000D01*
X163132284Y-105529000D01*
X163548642Y-105945358D01*
X163752056Y-106081275D01*
X163991998Y-106129002D01*
X167172570Y-106129002D01*
X167498140Y-106454572D01*
X167498140Y-108196585D01*
X167224710Y-108196585D01*
X167066473Y-108226359D01*
X166921143Y-108319877D01*
X166823646Y-108462569D01*
X166789345Y-108631950D01*
X166789345Y-109432050D01*
X166819119Y-109590287D01*
X166912637Y-109735617D01*
X167055329Y-109833114D01*
X167224710Y-109867415D01*
X169025570Y-109867415D01*
X169183807Y-109837641D01*
X169186434Y-109835950D01*
X170137065Y-109835950D01*
X170137065Y-110636050D01*
X170166839Y-110794287D01*
X170260357Y-110939617D01*
X170403049Y-111037114D01*
X170572430Y-111071415D01*
X170845860Y-111071415D01*
X170845860Y-111274860D01*
X170893588Y-111514803D01*
X171029504Y-111718216D01*
X173947000Y-114635712D01*
X173947000Y-114942635D01*
X173874000Y-114942635D01*
X173715763Y-114972409D01*
X173570433Y-115065927D01*
X173472936Y-115208619D01*
X173438635Y-115378000D01*
X173438635Y-116778000D01*
X173468409Y-116936237D01*
X173561927Y-117081567D01*
X173704619Y-117179064D01*
X173874000Y-117213365D01*
X175274000Y-117213365D01*
X175432237Y-117183591D01*
X175577567Y-117090073D01*
X175675064Y-116947381D01*
X175709365Y-116778000D01*
X175709365Y-115378000D01*
X175679591Y-115219763D01*
X175586073Y-115074433D01*
X175443381Y-114976936D01*
X175274000Y-114942635D01*
X175201000Y-114942635D01*
X175201000Y-114376000D01*
X175153272Y-114136057D01*
X175017356Y-113932644D01*
X172556462Y-111471750D01*
X172939710Y-111471750D01*
X172939710Y-111712359D01*
X173036383Y-111945748D01*
X173215011Y-112124377D01*
X173448400Y-112221050D01*
X174189390Y-112221050D01*
X174348140Y-112062300D01*
X174348140Y-111313000D01*
X174602140Y-111313000D01*
X174602140Y-112062300D01*
X174760890Y-112221050D01*
X175501880Y-112221050D01*
X175735269Y-112124377D01*
X175913897Y-111945748D01*
X176010570Y-111712359D01*
X176010570Y-111471750D01*
X175851820Y-111313000D01*
X174602140Y-111313000D01*
X174348140Y-111313000D01*
X173098460Y-111313000D01*
X172939710Y-111471750D01*
X172556462Y-111471750D01*
X172156127Y-111071415D01*
X172373290Y-111071415D01*
X172531527Y-111041641D01*
X172676857Y-110948123D01*
X172774354Y-110805431D01*
X172803877Y-110659641D01*
X172939710Y-110659641D01*
X172939710Y-110900250D01*
X173098460Y-111059000D01*
X174348140Y-111059000D01*
X174348140Y-110309700D01*
X174602140Y-110309700D01*
X174602140Y-111059000D01*
X175851820Y-111059000D01*
X176010570Y-110900250D01*
X176010570Y-110659641D01*
X175913897Y-110426252D01*
X175735269Y-110247623D01*
X175501880Y-110150950D01*
X174760890Y-110150950D01*
X174602140Y-110309700D01*
X174348140Y-110309700D01*
X174189390Y-110150950D01*
X173448400Y-110150950D01*
X173215011Y-110247623D01*
X173036383Y-110426252D01*
X172939710Y-110659641D01*
X172803877Y-110659641D01*
X172808655Y-110636050D01*
X172808655Y-109835950D01*
X172778881Y-109677713D01*
X172685363Y-109532383D01*
X172542671Y-109434886D01*
X172373290Y-109400585D01*
X170572430Y-109400585D01*
X170414193Y-109430359D01*
X170268863Y-109523877D01*
X170171366Y-109666569D01*
X170137065Y-109835950D01*
X169186434Y-109835950D01*
X169329137Y-109744123D01*
X169426634Y-109601431D01*
X169460935Y-109432050D01*
X169460935Y-108631950D01*
X169431161Y-108473713D01*
X169337643Y-108328383D01*
X169194951Y-108230886D01*
X169025570Y-108196585D01*
X168752140Y-108196585D01*
X168752140Y-106194860D01*
X168704412Y-105954917D01*
X168568496Y-105751504D01*
X168345992Y-105529000D01*
X172714288Y-105529000D01*
X173848140Y-106662852D01*
X173848140Y-108450585D01*
X173574710Y-108450585D01*
X173416473Y-108480359D01*
X173271143Y-108573877D01*
X173173646Y-108716569D01*
X173139345Y-108885950D01*
X173139345Y-109686050D01*
X173169119Y-109844287D01*
X173262637Y-109989617D01*
X173405329Y-110087114D01*
X173574710Y-110121415D01*
X175375570Y-110121415D01*
X175533807Y-110091641D01*
X175679137Y-109998123D01*
X175776634Y-109855431D01*
X175810935Y-109686050D01*
X175810935Y-108885950D01*
X175781161Y-108727713D01*
X175687643Y-108582383D01*
X175544951Y-108484886D01*
X175375570Y-108450585D01*
X175102140Y-108450585D01*
X175102140Y-106403140D01*
X175092510Y-106354728D01*
X175054413Y-106163198D01*
X174918496Y-105959784D01*
X173417356Y-104458644D01*
X173352038Y-104415000D01*
X173213943Y-104322728D01*
X172974000Y-104275000D01*
X168053998Y-104275000D01*
X168171414Y-104157789D01*
X168312839Y-103817201D01*
X168313161Y-103448417D01*
X168172331Y-103107583D01*
X168013000Y-102947974D01*
X168013000Y-98981927D01*
X168171414Y-98823789D01*
X168312839Y-98483201D01*
X168313161Y-98114417D01*
X168172331Y-97773583D01*
X167911789Y-97512586D01*
X167571201Y-97371161D01*
X167202417Y-97370839D01*
X166861583Y-97511669D01*
X166623814Y-97749023D01*
X166387789Y-97512586D01*
X166047201Y-97371161D01*
X165678417Y-97370839D01*
X165519087Y-97436673D01*
X165519161Y-97352417D01*
X165378331Y-97011583D01*
X165117789Y-96750586D01*
X164777201Y-96609161D01*
X164408417Y-96608839D01*
X164067583Y-96749669D01*
X163813810Y-97003000D01*
X163168365Y-97003000D01*
X163168365Y-96880000D01*
X163138591Y-96721763D01*
X163045073Y-96576433D01*
X162902381Y-96478936D01*
X162733000Y-96444635D01*
X162133000Y-96444635D01*
X161974763Y-96474409D01*
X161829433Y-96567927D01*
X161798619Y-96613025D01*
X161775073Y-96576433D01*
X161632381Y-96478936D01*
X161463000Y-96444635D01*
X160863000Y-96444635D01*
X160704763Y-96474409D01*
X160559433Y-96567927D01*
X160528619Y-96613025D01*
X160520000Y-96599630D01*
X160520000Y-95687583D01*
X160616839Y-95687583D01*
X160757669Y-96028417D01*
X161018211Y-96289414D01*
X161358799Y-96430839D01*
X161727583Y-96431161D01*
X162068417Y-96290331D01*
X162177939Y-96181000D01*
X165835578Y-96181000D01*
X165950973Y-96296395D01*
X165950839Y-96449583D01*
X166091669Y-96790417D01*
X166352211Y-97051414D01*
X166692799Y-97192839D01*
X167061583Y-97193161D01*
X167402417Y-97052331D01*
X167663414Y-96791789D01*
X167804839Y-96451201D01*
X167805161Y-96082417D01*
X167664331Y-95741583D01*
X167403789Y-95480586D01*
X167063201Y-95339161D01*
X166908448Y-95339026D01*
X166594711Y-95025289D01*
X166524254Y-94978211D01*
X166375077Y-94878534D01*
X166116000Y-94827000D01*
X162178014Y-94827000D01*
X162069789Y-94718586D01*
X161729201Y-94577161D01*
X161360417Y-94576839D01*
X161019583Y-94717669D01*
X160758586Y-94978211D01*
X160617161Y-95318799D01*
X160616839Y-95687583D01*
X160520000Y-95687583D01*
X160520000Y-94522420D01*
X160544417Y-94512331D01*
X160805414Y-94251789D01*
X160946839Y-93911201D01*
X160947161Y-93542417D01*
X160806331Y-93201583D01*
X160545789Y-92940586D01*
X160205201Y-92799161D01*
X159836417Y-92798839D01*
X159495583Y-92939669D01*
X159234586Y-93200211D01*
X159093161Y-93540799D01*
X159092839Y-93909583D01*
X159233669Y-94250417D01*
X159266000Y-94282804D01*
X159266000Y-96602222D01*
X159258619Y-96613025D01*
X159235073Y-96576433D01*
X159092381Y-96478936D01*
X158923000Y-96444635D01*
X158323000Y-96444635D01*
X158164763Y-96474409D01*
X158019433Y-96567927D01*
X157988619Y-96613025D01*
X157980000Y-96599630D01*
X157980000Y-95890712D01*
X158431356Y-95439356D01*
X158567273Y-95235942D01*
X158615000Y-94996000D01*
X158615000Y-83495583D01*
X161886839Y-83495583D01*
X162027669Y-83836417D01*
X162288211Y-84097414D01*
X162628799Y-84238839D01*
X162997583Y-84239161D01*
X163338417Y-84098331D01*
X163599414Y-83837789D01*
X163740839Y-83497201D01*
X163740974Y-83342448D01*
X167102712Y-79980711D01*
X167249467Y-79761076D01*
X167301000Y-79502000D01*
X167301000Y-75818014D01*
X167409414Y-75709789D01*
X167550839Y-75369201D01*
X167551161Y-75000417D01*
X167410331Y-74659583D01*
X167149789Y-74398586D01*
X166809201Y-74257161D01*
X166440417Y-74256839D01*
X166099583Y-74397669D01*
X165838586Y-74658211D01*
X165697161Y-74998799D01*
X165696839Y-75367583D01*
X165837669Y-75708417D01*
X165947000Y-75817939D01*
X165947000Y-79221577D01*
X162783605Y-82384973D01*
X162630417Y-82384839D01*
X162289583Y-82525669D01*
X162028586Y-82786211D01*
X161887161Y-83126799D01*
X161886839Y-83495583D01*
X158615000Y-83495583D01*
X158615000Y-76200000D01*
X158597265Y-76110839D01*
X158567273Y-75960058D01*
X158431356Y-75756644D01*
X157669356Y-74994644D01*
X157465943Y-74858728D01*
X157226000Y-74811000D01*
X152321927Y-74811000D01*
X152163789Y-74652586D01*
X151823201Y-74511161D01*
X151454417Y-74510839D01*
X151113583Y-74651669D01*
X150852586Y-74912211D01*
X150711161Y-75252799D01*
X150710839Y-75621583D01*
X150851669Y-75962417D01*
X151112211Y-76223414D01*
X151452799Y-76364839D01*
X151821583Y-76365161D01*
X152162417Y-76224331D01*
X152322026Y-76065000D01*
X156966288Y-76065000D01*
X157361000Y-76459712D01*
X157361000Y-92042002D01*
X157243789Y-91924586D01*
X156903201Y-91783161D01*
X156534417Y-91782839D01*
X156193583Y-91923669D01*
X155932586Y-92184211D01*
X155811521Y-92475767D01*
X155639644Y-92647644D01*
X155503728Y-92851057D01*
X155456000Y-93091000D01*
X155456000Y-94460521D01*
X155125201Y-94323161D01*
X154756417Y-94322839D01*
X154415583Y-94463669D01*
X154255974Y-94623000D01*
X134033927Y-94623000D01*
X133875789Y-94464586D01*
X133535201Y-94323161D01*
X133166417Y-94322839D01*
X132825583Y-94463669D01*
X132564586Y-94724211D01*
X132423161Y-95064799D01*
X132422839Y-95433583D01*
X117397000Y-95433583D01*
X117397000Y-86966000D01*
X128074635Y-86966000D01*
X128074635Y-89966000D01*
X128104409Y-90124237D01*
X128197927Y-90269567D01*
X128340619Y-90367064D01*
X128510000Y-90401365D01*
X131510000Y-90401365D01*
X131668237Y-90371591D01*
X131813567Y-90278073D01*
X131911064Y-90135381D01*
X131945365Y-89966000D01*
X131945365Y-86966000D01*
X132474635Y-86966000D01*
X132474635Y-89966000D01*
X132504409Y-90124237D01*
X132597927Y-90269567D01*
X132740619Y-90367064D01*
X132910000Y-90401365D01*
X135910000Y-90401365D01*
X136068237Y-90371591D01*
X136213567Y-90278073D01*
X136311064Y-90135381D01*
X136345365Y-89966000D01*
X136345365Y-88751750D01*
X136775000Y-88751750D01*
X136775000Y-90092310D01*
X136871673Y-90325699D01*
X137050302Y-90504327D01*
X137283691Y-90601000D01*
X138624250Y-90601000D01*
X138783000Y-90442250D01*
X138783000Y-88593000D01*
X139037000Y-88593000D01*
X139037000Y-90442250D01*
X139195750Y-90601000D01*
X140536309Y-90601000D01*
X140769698Y-90504327D01*
X140948327Y-90325699D01*
X141045000Y-90092310D01*
X141045000Y-88928603D01*
X144114752Y-88928603D01*
X144331543Y-89453275D01*
X144732614Y-89855047D01*
X145256907Y-90072752D01*
X145824603Y-90073248D01*
X146349275Y-89856457D01*
X146447000Y-89758903D01*
X146447000Y-89772309D01*
X146543673Y-90005698D01*
X146722301Y-90184327D01*
X146955690Y-90281000D01*
X147796250Y-90281000D01*
X147955000Y-90122250D01*
X147955000Y-88773000D01*
X148209000Y-88773000D01*
X148209000Y-90122250D01*
X148367750Y-90281000D01*
X149208310Y-90281000D01*
X149441699Y-90184327D01*
X149620327Y-90005698D01*
X149717000Y-89772309D01*
X149717000Y-88931750D01*
X149558250Y-88773000D01*
X148209000Y-88773000D01*
X147955000Y-88773000D01*
X147935000Y-88773000D01*
X147935000Y-88519000D01*
X147955000Y-88519000D01*
X147955000Y-87169750D01*
X148209000Y-87169750D01*
X148209000Y-88519000D01*
X149558250Y-88519000D01*
X149717000Y-88360250D01*
X149717000Y-87519691D01*
X149620327Y-87286302D01*
X149441699Y-87107673D01*
X149208310Y-87011000D01*
X148367750Y-87011000D01*
X148209000Y-87169750D01*
X147955000Y-87169750D01*
X147796250Y-87011000D01*
X146955690Y-87011000D01*
X146722301Y-87107673D01*
X146543673Y-87286302D01*
X146447000Y-87519691D01*
X146447000Y-87532734D01*
X146351386Y-87436953D01*
X145827093Y-87219248D01*
X145259397Y-87218752D01*
X144734725Y-87435543D01*
X144332953Y-87836614D01*
X144115248Y-88360907D01*
X144114752Y-88928603D01*
X141045000Y-88928603D01*
X141045000Y-88751750D01*
X140886250Y-88593000D01*
X139037000Y-88593000D01*
X138783000Y-88593000D01*
X136933750Y-88593000D01*
X136775000Y-88751750D01*
X136345365Y-88751750D01*
X136345365Y-86966000D01*
X136321599Y-86839690D01*
X136775000Y-86839690D01*
X136775000Y-88180250D01*
X136933750Y-88339000D01*
X138783000Y-88339000D01*
X138783000Y-86489750D01*
X139037000Y-86489750D01*
X139037000Y-88339000D01*
X140886250Y-88339000D01*
X141045000Y-88180250D01*
X141045000Y-86839690D01*
X140948327Y-86606301D01*
X140769698Y-86427673D01*
X140536309Y-86331000D01*
X139195750Y-86331000D01*
X139037000Y-86489750D01*
X138783000Y-86489750D01*
X138624250Y-86331000D01*
X137283691Y-86331000D01*
X137050302Y-86427673D01*
X136871673Y-86606301D01*
X136775000Y-86839690D01*
X136321599Y-86839690D01*
X136315591Y-86807763D01*
X136222073Y-86662433D01*
X136079381Y-86564936D01*
X135910000Y-86530635D01*
X132910000Y-86530635D01*
X132751763Y-86560409D01*
X132606433Y-86653927D01*
X132508936Y-86796619D01*
X132474635Y-86966000D01*
X131945365Y-86966000D01*
X131915591Y-86807763D01*
X131822073Y-86662433D01*
X131679381Y-86564936D01*
X131510000Y-86530635D01*
X128510000Y-86530635D01*
X128351763Y-86560409D01*
X128206433Y-86653927D01*
X128108936Y-86796619D01*
X128074635Y-86966000D01*
X117397000Y-86966000D01*
X117397000Y-85796603D01*
X119652752Y-85796603D01*
X119869543Y-86321275D01*
X120270614Y-86723047D01*
X120794907Y-86940752D01*
X121362603Y-86941248D01*
X121887275Y-86724457D01*
X122289047Y-86323386D01*
X122506752Y-85799093D01*
X122507248Y-85231397D01*
X122290457Y-84706725D01*
X121960589Y-84376280D01*
X122052927Y-84126532D01*
X121080000Y-83153605D01*
X120107073Y-84126532D01*
X120199532Y-84376608D01*
X119870953Y-84704614D01*
X119653248Y-85228907D01*
X119652752Y-85796603D01*
X117397000Y-85796603D01*
X117397000Y-79184000D01*
X119394635Y-79184000D01*
X119394635Y-81684000D01*
X119424409Y-81842237D01*
X119517927Y-81987567D01*
X119660619Y-82085064D01*
X119686255Y-82090255D01*
X119660613Y-82099736D01*
X119434092Y-82709461D01*
X119458144Y-83359460D01*
X119660613Y-83848264D01*
X119927468Y-83946927D01*
X120900395Y-82974000D01*
X120886253Y-82959858D01*
X121065858Y-82780253D01*
X121080000Y-82794395D01*
X121094143Y-82780253D01*
X121273748Y-82959858D01*
X121259605Y-82974000D01*
X122232532Y-83946927D01*
X122499387Y-83848264D01*
X122725908Y-83238539D01*
X122701856Y-82588540D01*
X122499387Y-82099736D01*
X122477442Y-82091622D01*
X122488237Y-82089591D01*
X122633567Y-81996073D01*
X122731064Y-81853381D01*
X122765365Y-81684000D01*
X122765365Y-79184000D01*
X122735591Y-79025763D01*
X122642073Y-78880433D01*
X122499381Y-78782936D01*
X122330000Y-78748635D01*
X119830000Y-78748635D01*
X119671763Y-78778409D01*
X119526433Y-78871927D01*
X119428936Y-79014619D01*
X119394635Y-79184000D01*
X117397000Y-79184000D01*
X117397000Y-67667469D01*
X119668794Y-67667469D01*
X119849427Y-68104635D01*
X120183606Y-68439397D01*
X120620456Y-68620793D01*
X120735918Y-68620894D01*
X121350512Y-69235488D01*
X121651252Y-69436436D01*
X122006000Y-69507000D01*
X134236024Y-69507000D01*
X146410226Y-81681202D01*
X146540211Y-81811414D01*
X146880799Y-81952839D01*
X147249583Y-81953161D01*
X147590417Y-81812331D01*
X147851414Y-81551789D01*
X147992839Y-81211201D01*
X147993161Y-80842417D01*
X147852331Y-80501583D01*
X147591789Y-80240586D01*
X147591401Y-80240425D01*
X138908559Y-71557583D01*
X170268839Y-71557583D01*
X170409669Y-71898417D01*
X170670211Y-72159414D01*
X171010799Y-72300839D01*
X171379583Y-72301161D01*
X171720417Y-72160331D01*
X171880026Y-72001000D01*
X179064288Y-72001000D01*
X179205000Y-72141712D01*
X179205000Y-91694000D01*
X179252728Y-91933943D01*
X179352325Y-92083000D01*
X179388644Y-92137356D01*
X181999000Y-94747712D01*
X181999000Y-100542407D01*
X181953161Y-100652799D01*
X181952839Y-101021583D01*
X182093669Y-101362417D01*
X182354211Y-101623414D01*
X182694799Y-101764839D01*
X183063583Y-101765161D01*
X183404417Y-101624331D01*
X183665414Y-101363789D01*
X183726277Y-101217215D01*
X183878211Y-101369414D01*
X184218799Y-101510839D01*
X184587583Y-101511161D01*
X184928417Y-101370331D01*
X185189414Y-101109789D01*
X185330839Y-100769201D01*
X185331161Y-100400417D01*
X185190331Y-100059583D01*
X184929789Y-99798586D01*
X184777000Y-99735142D01*
X184777000Y-94234000D01*
X184729273Y-93994058D01*
X184593356Y-93790644D01*
X181729000Y-90926288D01*
X181729000Y-84233461D01*
X184966092Y-84233461D01*
X184990144Y-84883460D01*
X185192613Y-85372264D01*
X185459468Y-85470927D01*
X186432395Y-84498000D01*
X185459468Y-83525073D01*
X185192613Y-83623736D01*
X184966092Y-84233461D01*
X181729000Y-84233461D01*
X181729000Y-70399593D01*
X181774839Y-70289201D01*
X181775161Y-69920417D01*
X181634331Y-69579583D01*
X181373789Y-69318586D01*
X181033201Y-69177161D01*
X180664417Y-69176839D01*
X180323583Y-69317669D01*
X180062586Y-69578211D01*
X179921161Y-69918799D01*
X179920839Y-70287583D01*
X180061669Y-70628417D01*
X180322211Y-70889414D01*
X180475000Y-70952858D01*
X180475000Y-91186000D01*
X180522728Y-91425943D01*
X180541514Y-91454058D01*
X180658644Y-91629356D01*
X183523000Y-94493712D01*
X183523000Y-100170002D01*
X183405789Y-100052586D01*
X183253000Y-99989142D01*
X183253000Y-94488000D01*
X183238823Y-94416727D01*
X183205273Y-94248058D01*
X183069356Y-94044644D01*
X180459000Y-91434288D01*
X180459000Y-71882000D01*
X180411272Y-71642057D01*
X180275356Y-71438644D01*
X179767356Y-70930644D01*
X179646039Y-70849583D01*
X179563943Y-70794728D01*
X179324000Y-70747000D01*
X171879927Y-70747000D01*
X171721789Y-70588586D01*
X171381201Y-70447161D01*
X171012417Y-70446839D01*
X170671583Y-70587669D01*
X170410586Y-70848211D01*
X170269161Y-71188799D01*
X170268839Y-71557583D01*
X138908559Y-71557583D01*
X135275488Y-67924512D01*
X134974748Y-67723564D01*
X134620000Y-67653000D01*
X122389976Y-67653000D01*
X122047107Y-67310131D01*
X122047206Y-67196531D01*
X121866573Y-66759365D01*
X121532394Y-66424603D01*
X121095544Y-66243207D01*
X120622531Y-66242794D01*
X120185365Y-66423427D01*
X119850603Y-66757606D01*
X119669207Y-67194456D01*
X119668794Y-67667469D01*
X117397000Y-67667469D01*
X117397000Y-64667469D01*
X119668794Y-64667469D01*
X119849427Y-65104635D01*
X120183606Y-65439397D01*
X120620456Y-65620793D01*
X121093469Y-65621206D01*
X121530635Y-65440573D01*
X121865397Y-65106394D01*
X122046793Y-64669544D01*
X122047206Y-64196531D01*
X121866573Y-63759365D01*
X121532394Y-63424603D01*
X121095544Y-63243207D01*
X120622531Y-63242794D01*
X120185365Y-63423427D01*
X119850603Y-63757606D01*
X119669207Y-64194456D01*
X119668794Y-64667469D01*
X117397000Y-64667469D01*
X117397000Y-61667469D01*
X119668794Y-61667469D01*
X119849427Y-62104635D01*
X120183606Y-62439397D01*
X120620456Y-62620793D01*
X121093469Y-62621206D01*
X121530635Y-62440573D01*
X121865397Y-62106394D01*
X122046793Y-61669544D01*
X122047206Y-61196531D01*
X121866573Y-60759365D01*
X121532394Y-60424603D01*
X121095544Y-60243207D01*
X120622531Y-60242794D01*
X120185365Y-60423427D01*
X119850603Y-60757606D01*
X119669207Y-61194456D01*
X119668794Y-61667469D01*
X117397000Y-61667469D01*
X117397000Y-58926897D01*
X183158779Y-58926897D01*
X183352781Y-59396417D01*
X183711693Y-59755957D01*
X184180875Y-59950778D01*
X184688897Y-59951221D01*
X185019124Y-59814774D01*
X185047673Y-59883698D01*
X185226301Y-60062327D01*
X185459690Y-60159000D01*
X186150250Y-60159000D01*
X186309000Y-60000250D01*
X186309000Y-58801000D01*
X186563000Y-58801000D01*
X186563000Y-60000250D01*
X186721750Y-60159000D01*
X187412310Y-60159000D01*
X187645699Y-60062327D01*
X187824327Y-59883698D01*
X187921000Y-59650309D01*
X187921000Y-58959750D01*
X187762250Y-58801000D01*
X186563000Y-58801000D01*
X186309000Y-58801000D01*
X186289000Y-58801000D01*
X186289000Y-58547000D01*
X186309000Y-58547000D01*
X186309000Y-57347750D01*
X186563000Y-57347750D01*
X186563000Y-58547000D01*
X187762250Y-58547000D01*
X187921000Y-58388250D01*
X187921000Y-57697691D01*
X187824327Y-57464302D01*
X187645699Y-57285673D01*
X187412310Y-57189000D01*
X186721750Y-57189000D01*
X186563000Y-57347750D01*
X186309000Y-57347750D01*
X186150250Y-57189000D01*
X185459690Y-57189000D01*
X185226301Y-57285673D01*
X185047673Y-57464302D01*
X185019056Y-57533390D01*
X184691125Y-57397222D01*
X184183103Y-57396779D01*
X183713583Y-57590781D01*
X183354043Y-57949693D01*
X183159222Y-58418875D01*
X183158779Y-58926897D01*
X117397000Y-58926897D01*
X117397000Y-53383000D01*
X188009000Y-53383000D01*
X188009000Y-73166412D01*
X188009000Y-73166412D01*
G37*
X188009000Y-73166412D02*
X187924073Y-73034433D01*
X187781381Y-72936936D01*
X187612000Y-72902635D01*
X185612000Y-72902635D01*
X185453763Y-72932409D01*
X185308433Y-73025927D01*
X185210936Y-73168619D01*
X185176635Y-73338000D01*
X185176635Y-75338000D01*
X185206409Y-75496237D01*
X185299927Y-75641567D01*
X185442619Y-75739064D01*
X185612000Y-75773365D01*
X185698718Y-75773365D01*
X185402953Y-76068614D01*
X185185248Y-76592907D01*
X185184752Y-77160603D01*
X185401543Y-77685275D01*
X185802614Y-78087047D01*
X185949118Y-78147881D01*
X185804725Y-78207543D01*
X185402953Y-78608614D01*
X185185248Y-79132907D01*
X185184752Y-79700603D01*
X185401543Y-80225275D01*
X185802614Y-80627047D01*
X185949118Y-80687881D01*
X185804725Y-80747543D01*
X185402953Y-81148614D01*
X185185248Y-81672907D01*
X185184752Y-82240603D01*
X185401543Y-82765275D01*
X185731411Y-83095720D01*
X185639073Y-83345468D01*
X186612000Y-84318395D01*
X187584927Y-83345468D01*
X187492468Y-83095392D01*
X187821047Y-82767386D01*
X188009000Y-82314744D01*
X188009000Y-83615459D01*
X187764532Y-83525073D01*
X186791605Y-84498000D01*
X187764532Y-85470927D01*
X188009000Y-85380541D01*
X188009000Y-86682192D01*
X187822457Y-86230725D01*
X187492589Y-85900280D01*
X187584927Y-85650532D01*
X186612000Y-84677605D01*
X185639073Y-85650532D01*
X185731532Y-85900608D01*
X185402953Y-86228614D01*
X185185248Y-86752907D01*
X185184752Y-87320603D01*
X185401543Y-87845275D01*
X185802614Y-88247047D01*
X186326907Y-88464752D01*
X186894603Y-88465248D01*
X187419275Y-88248457D01*
X187821047Y-87847386D01*
X188009000Y-87394744D01*
X188009000Y-141267000D01*
X117397000Y-141267000D01*
X117397000Y-121328000D01*
X117913000Y-121328000D01*
X117913000Y-133012000D01*
X117960728Y-133251943D01*
X117970121Y-133266000D01*
X118096644Y-133455356D01*
X120956397Y-136315109D01*
X120785603Y-136485606D01*
X120604207Y-136922456D01*
X120603794Y-137395469D01*
X120784427Y-137832635D01*
X121118606Y-138167397D01*
X121555456Y-138348793D01*
X122028469Y-138349206D01*
X122349745Y-138216457D01*
X123430644Y-139297356D01*
X123634058Y-139433273D01*
X123874000Y-139481000D01*
X159471772Y-139481000D01*
X159526057Y-139517272D01*
X159766000Y-139565000D01*
X159809000Y-139565000D01*
X160048943Y-139517272D01*
X160103228Y-139481000D01*
X170899000Y-139481000D01*
X171138943Y-139433272D01*
X171342356Y-139297356D01*
X172309854Y-138329858D01*
X172355456Y-138348793D01*
X172828469Y-138349206D01*
X173265635Y-138168573D01*
X173600397Y-137834394D01*
X173781793Y-137397544D01*
X173781794Y-137395469D01*
X179023794Y-137395469D01*
X179204427Y-137832635D01*
X179538606Y-138167397D01*
X179975456Y-138348793D01*
X180448469Y-138349206D01*
X180885635Y-138168573D01*
X181220397Y-137834394D01*
X181401793Y-137397544D01*
X181402206Y-136924531D01*
X181221573Y-136487365D01*
X180887394Y-136152603D01*
X180450544Y-135971207D01*
X179977531Y-135970794D01*
X179540365Y-136151427D01*
X179205603Y-136485606D01*
X179024207Y-136922456D01*
X179023794Y-137395469D01*
X173781794Y-137395469D01*
X173782206Y-136924531D01*
X173601573Y-136487365D01*
X173267394Y-136152603D01*
X172830544Y-135971207D01*
X172357531Y-135970794D01*
X171967944Y-136131768D01*
X172309854Y-135789858D01*
X172355456Y-135808793D01*
X172828469Y-135809206D01*
X173265635Y-135628573D01*
X173600397Y-135294394D01*
X173781793Y-134857544D01*
X173781794Y-134855469D01*
X179023794Y-134855469D01*
X179204427Y-135292635D01*
X179538606Y-135627397D01*
X179975456Y-135808793D01*
X180448469Y-135809206D01*
X180885635Y-135628573D01*
X181220397Y-135294394D01*
X181401793Y-134857544D01*
X181402206Y-134384531D01*
X181221573Y-133947365D01*
X180887394Y-133612603D01*
X180450544Y-133431207D01*
X179977531Y-133430794D01*
X179540365Y-133611427D01*
X179205603Y-133945606D01*
X179024207Y-134382456D01*
X179023794Y-134855469D01*
X173781794Y-134855469D01*
X173782206Y-134384531D01*
X173601573Y-133947365D01*
X173267394Y-133612603D01*
X172830544Y-133431207D01*
X172357531Y-133430794D01*
X171967944Y-133591768D01*
X172309854Y-133249858D01*
X172355456Y-133268793D01*
X172828469Y-133269206D01*
X173265635Y-133088573D01*
X173600397Y-132754394D01*
X173781793Y-132317544D01*
X173782206Y-131844531D01*
X173601573Y-131407365D01*
X173547303Y-131353000D01*
X178599288Y-131353000D01*
X179043142Y-131796854D01*
X179024207Y-131842456D01*
X179023794Y-132315469D01*
X179204427Y-132752635D01*
X179538606Y-133087397D01*
X179975456Y-133268793D01*
X180448469Y-133269206D01*
X180885635Y-133088573D01*
X181220397Y-132754394D01*
X181353609Y-132433583D01*
X182128839Y-132433583D01*
X182269669Y-132774417D01*
X182429000Y-132934026D01*
X182429000Y-136138073D01*
X182270586Y-136296211D01*
X182129161Y-136636799D01*
X182128839Y-137005583D01*
X182269669Y-137346417D01*
X182530211Y-137607414D01*
X182870799Y-137748839D01*
X183239583Y-137749161D01*
X183580417Y-137608331D01*
X183841414Y-137347789D01*
X183982839Y-137007201D01*
X183983161Y-136638417D01*
X183842331Y-136297583D01*
X183683000Y-136137974D01*
X183683000Y-132933927D01*
X183841414Y-132775789D01*
X183982839Y-132435201D01*
X183983161Y-132066417D01*
X183842331Y-131725583D01*
X183581789Y-131464586D01*
X183241201Y-131323161D01*
X182872417Y-131322839D01*
X182531583Y-131463669D01*
X182270586Y-131724211D01*
X182129161Y-132064799D01*
X182128839Y-132433583D01*
X181353609Y-132433583D01*
X181401793Y-132317544D01*
X181402206Y-131844531D01*
X181221573Y-131407365D01*
X180887394Y-131072603D01*
X180450544Y-130891207D01*
X179977531Y-130890794D01*
X179930103Y-130910391D01*
X179587349Y-130567637D01*
X179975456Y-130728793D01*
X180448469Y-130729206D01*
X180885635Y-130548573D01*
X181220397Y-130214394D01*
X181401793Y-129777544D01*
X181402206Y-129304531D01*
X181221573Y-128867365D01*
X180887394Y-128532603D01*
X180450544Y-128351207D01*
X179977531Y-128350794D01*
X179540365Y-128531427D01*
X179205603Y-128865606D01*
X179024207Y-129302456D01*
X179023794Y-129775469D01*
X179204427Y-130212635D01*
X179218143Y-130226375D01*
X179200212Y-130214394D01*
X179098943Y-130146728D01*
X178859000Y-130099000D01*
X173648313Y-130099000D01*
X173781793Y-129777544D01*
X173782206Y-129304531D01*
X173601573Y-128867365D01*
X173267394Y-128532603D01*
X172830544Y-128351207D01*
X172357531Y-128350794D01*
X171967944Y-128511768D01*
X172309854Y-128169858D01*
X172355456Y-128188793D01*
X172828469Y-128189206D01*
X173265635Y-128008573D01*
X173600397Y-127674394D01*
X173781793Y-127237544D01*
X173782206Y-126764531D01*
X173601573Y-126327365D01*
X173547303Y-126273000D01*
X178599288Y-126273000D01*
X179043142Y-126716854D01*
X179024207Y-126762456D01*
X179023794Y-127235469D01*
X179204427Y-127672635D01*
X179538606Y-128007397D01*
X179975456Y-128188793D01*
X180448469Y-128189206D01*
X180885635Y-128008573D01*
X181220397Y-127674394D01*
X181401793Y-127237544D01*
X181402206Y-126764531D01*
X181221573Y-126327365D01*
X180887394Y-125992603D01*
X180450544Y-125811207D01*
X179977531Y-125810794D01*
X179930103Y-125830391D01*
X179587349Y-125487637D01*
X179975456Y-125648793D01*
X180448469Y-125649206D01*
X180885635Y-125468573D01*
X181220397Y-125134394D01*
X181401793Y-124697544D01*
X181402206Y-124224531D01*
X181221573Y-123787365D01*
X180887394Y-123452603D01*
X180450544Y-123271207D01*
X179977531Y-123270794D01*
X179930103Y-123290391D01*
X179048356Y-122408644D01*
X178951609Y-122344000D01*
X178844943Y-122272728D01*
X178605000Y-122225000D01*
X174285000Y-122225000D01*
X174285000Y-120312000D01*
X174237272Y-120072057D01*
X174101356Y-119868644D01*
X172336514Y-118103802D01*
X172375064Y-118047381D01*
X172409365Y-117878000D01*
X172409365Y-116478000D01*
X172379591Y-116319763D01*
X172286073Y-116174433D01*
X172143381Y-116076936D01*
X172142771Y-116076812D01*
X172277567Y-115990073D01*
X172375064Y-115847381D01*
X172409365Y-115678000D01*
X172409365Y-114278000D01*
X172379591Y-114119763D01*
X172286073Y-113974433D01*
X172143381Y-113876936D01*
X171974000Y-113842635D01*
X170574000Y-113842635D01*
X170415763Y-113872409D01*
X170270433Y-113965927D01*
X170172936Y-114108619D01*
X170138635Y-114278000D01*
X170138635Y-115678000D01*
X170168409Y-115836237D01*
X170261927Y-115981567D01*
X170404619Y-116079064D01*
X170405229Y-116079188D01*
X170270433Y-116165927D01*
X170172936Y-116308619D01*
X170138635Y-116478000D01*
X170138635Y-117878000D01*
X170168409Y-118036237D01*
X170261927Y-118181567D01*
X170404619Y-118279064D01*
X170574000Y-118313365D01*
X170791896Y-118313365D01*
X170830644Y-118371356D01*
X173031000Y-120571712D01*
X173031000Y-122225000D01*
X171186145Y-122225000D01*
X171219414Y-122191789D01*
X171360839Y-121851201D01*
X171361161Y-121482417D01*
X171220331Y-121141583D01*
X170959789Y-120880586D01*
X170619201Y-120739161D01*
X170250417Y-120738839D01*
X169909583Y-120879669D01*
X169749974Y-121039000D01*
X167391712Y-121039000D01*
X165551000Y-119198288D01*
X165551000Y-118313365D01*
X165624000Y-118313365D01*
X165782237Y-118283591D01*
X165927567Y-118190073D01*
X166025064Y-118047381D01*
X166059365Y-117878000D01*
X166059365Y-116478000D01*
X166029591Y-116319763D01*
X165936073Y-116174433D01*
X165793381Y-116076936D01*
X165792771Y-116076812D01*
X165927567Y-115990073D01*
X166025064Y-115847381D01*
X166059365Y-115678000D01*
X166059365Y-114278000D01*
X166029591Y-114119763D01*
X165936073Y-113974433D01*
X165793381Y-113876936D01*
X165624000Y-113842635D01*
X164224000Y-113842635D01*
X164065763Y-113872409D01*
X163920433Y-113965927D01*
X163822936Y-114108619D01*
X163788635Y-114278000D01*
X163788635Y-115678000D01*
X163818409Y-115836237D01*
X163911927Y-115981567D01*
X164054619Y-116079064D01*
X164055229Y-116079188D01*
X163920433Y-116165927D01*
X163822936Y-116308619D01*
X163788635Y-116478000D01*
X163788635Y-117878000D01*
X163818409Y-118036237D01*
X163911927Y-118181567D01*
X164054619Y-118279064D01*
X164224000Y-118313365D01*
X164297000Y-118313365D01*
X164297000Y-119458000D01*
X164344728Y-119697943D01*
X164437881Y-119837356D01*
X164480644Y-119901356D01*
X166688644Y-122109356D01*
X166861717Y-122225000D01*
X158831998Y-122225000D01*
X158949414Y-122107789D01*
X159090839Y-121767201D01*
X159091161Y-121398417D01*
X159023228Y-121234007D01*
X159648429Y-119916863D01*
X159652352Y-119901293D01*
X159661272Y-119887943D01*
X159682108Y-119783196D01*
X159708201Y-119679634D01*
X159705867Y-119663749D01*
X159709000Y-119648000D01*
X159709000Y-118313365D01*
X159782000Y-118313365D01*
X159940237Y-118283591D01*
X160085567Y-118190073D01*
X160183064Y-118047381D01*
X160217365Y-117878000D01*
X160217365Y-116478000D01*
X160187591Y-116319763D01*
X160094073Y-116174433D01*
X159951381Y-116076936D01*
X159950771Y-116076812D01*
X160085567Y-115990073D01*
X160183064Y-115847381D01*
X160217365Y-115678000D01*
X160217365Y-114278000D01*
X160187591Y-114119763D01*
X160094073Y-113974433D01*
X159951381Y-113876936D01*
X159782000Y-113842635D01*
X158382000Y-113842635D01*
X158223763Y-113872409D01*
X158078433Y-113965927D01*
X157980936Y-114108619D01*
X157946635Y-114278000D01*
X157946635Y-115678000D01*
X157976409Y-115836237D01*
X158069927Y-115981567D01*
X158212619Y-116079064D01*
X158213229Y-116079188D01*
X158078433Y-116165927D01*
X157980936Y-116308619D01*
X157946635Y-116478000D01*
X157946635Y-117878000D01*
X157976409Y-118036237D01*
X158069927Y-118181567D01*
X158212619Y-118279064D01*
X158382000Y-118313365D01*
X158455000Y-118313365D01*
X158455000Y-119506745D01*
X157892871Y-120691012D01*
X157639583Y-120795669D01*
X157378586Y-121056211D01*
X157237161Y-121396799D01*
X157236839Y-121765583D01*
X157377669Y-122106417D01*
X157496045Y-122225000D01*
X155044582Y-122225000D01*
X154925943Y-122145728D01*
X154686000Y-122098000D01*
X154446057Y-122145728D01*
X154327418Y-122225000D01*
X150787712Y-122225000D01*
X153175356Y-119837356D01*
X153254257Y-119719272D01*
X153311272Y-119633943D01*
X153311272Y-119633942D01*
X153311273Y-119633941D01*
X153359000Y-119394000D01*
X153359000Y-118567365D01*
X153432000Y-118567365D01*
X153590237Y-118537591D01*
X153735567Y-118444073D01*
X153833064Y-118301381D01*
X153867365Y-118132000D01*
X153867365Y-116732000D01*
X153837591Y-116573763D01*
X153744073Y-116428433D01*
X153601381Y-116330936D01*
X153600771Y-116330812D01*
X153735567Y-116244073D01*
X153833064Y-116101381D01*
X153867365Y-115932000D01*
X153867365Y-114532000D01*
X153837591Y-114373763D01*
X153744073Y-114228433D01*
X153601381Y-114130936D01*
X153432000Y-114096635D01*
X152032000Y-114096635D01*
X151873763Y-114126409D01*
X151728433Y-114219927D01*
X151630936Y-114362619D01*
X151596635Y-114532000D01*
X151596635Y-115932000D01*
X151626409Y-116090237D01*
X151719927Y-116235567D01*
X151862619Y-116333064D01*
X151863229Y-116333188D01*
X151728433Y-116419927D01*
X151630936Y-116562619D01*
X151596635Y-116732000D01*
X151596635Y-118132000D01*
X151626409Y-118290237D01*
X151719927Y-118435567D01*
X151862619Y-118533064D01*
X152032000Y-118567365D01*
X152105000Y-118567365D01*
X152105000Y-119134288D01*
X150030288Y-121209000D01*
X145199712Y-121209000D01*
X146825356Y-119583356D01*
X146951879Y-119394000D01*
X146961272Y-119379943D01*
X147009000Y-119140000D01*
X147009000Y-118567365D01*
X147082000Y-118567365D01*
X147240237Y-118537591D01*
X147385567Y-118444073D01*
X147483064Y-118301381D01*
X147517365Y-118132000D01*
X147517365Y-116732000D01*
X147487591Y-116573763D01*
X147394073Y-116428433D01*
X147251381Y-116330936D01*
X147250771Y-116330812D01*
X147385567Y-116244073D01*
X147483064Y-116101381D01*
X147517365Y-115932000D01*
X147517365Y-114532000D01*
X147487591Y-114373763D01*
X147394073Y-114228433D01*
X147251381Y-114130936D01*
X147082000Y-114096635D01*
X145682000Y-114096635D01*
X145523763Y-114126409D01*
X145378433Y-114219927D01*
X145280936Y-114362619D01*
X145246635Y-114532000D01*
X145246635Y-115932000D01*
X145276409Y-116090237D01*
X145369927Y-116235567D01*
X145512619Y-116333064D01*
X145513229Y-116333188D01*
X145378433Y-116419927D01*
X145280936Y-116562619D01*
X145246635Y-116732000D01*
X145246635Y-118132000D01*
X145276409Y-118290237D01*
X145369927Y-118435567D01*
X145512619Y-118533064D01*
X145682000Y-118567365D01*
X145755000Y-118567365D01*
X145755000Y-118880288D01*
X144188288Y-120447000D01*
X139611712Y-120447000D01*
X140475356Y-119583356D01*
X140601879Y-119394000D01*
X140611272Y-119379943D01*
X140659000Y-119140000D01*
X140659000Y-118567365D01*
X140732000Y-118567365D01*
X140890237Y-118537591D01*
X141035567Y-118444073D01*
X141133064Y-118301381D01*
X141167365Y-118132000D01*
X141167365Y-116732000D01*
X141137591Y-116573763D01*
X141044073Y-116428433D01*
X140901381Y-116330936D01*
X140900771Y-116330812D01*
X141035567Y-116244073D01*
X141133064Y-116101381D01*
X141167365Y-115932000D01*
X141167365Y-114532000D01*
X141137591Y-114373763D01*
X141044073Y-114228433D01*
X140901381Y-114130936D01*
X140732000Y-114096635D01*
X139332000Y-114096635D01*
X139173763Y-114126409D01*
X139028433Y-114219927D01*
X138930936Y-114362619D01*
X138896635Y-114532000D01*
X138896635Y-115932000D01*
X138926409Y-116090237D01*
X139019927Y-116235567D01*
X139162619Y-116333064D01*
X139163229Y-116333188D01*
X139028433Y-116419927D01*
X138930936Y-116562619D01*
X138896635Y-116732000D01*
X138896635Y-118132000D01*
X138926409Y-118290237D01*
X139019927Y-118435567D01*
X139162619Y-118533064D01*
X139332000Y-118567365D01*
X139405000Y-118567365D01*
X139405000Y-118880288D01*
X138600288Y-119685000D01*
X132499712Y-119685000D01*
X133998356Y-118186356D01*
X134083209Y-118059365D01*
X134255000Y-118059365D01*
X134413237Y-118029591D01*
X134558567Y-117936073D01*
X134656064Y-117793381D01*
X134690365Y-117624000D01*
X134690365Y-116224000D01*
X134660591Y-116065763D01*
X134567073Y-115920433D01*
X134424381Y-115822936D01*
X134423771Y-115822812D01*
X134558567Y-115736073D01*
X134656064Y-115593381D01*
X134690365Y-115424000D01*
X134690365Y-114024000D01*
X134681807Y-113978519D01*
X135737764Y-115034476D01*
X135719635Y-115124000D01*
X135719635Y-116524000D01*
X135749409Y-116682237D01*
X135842927Y-116827567D01*
X135985619Y-116925064D01*
X136155000Y-116959365D01*
X137555000Y-116959365D01*
X137713237Y-116929591D01*
X137858567Y-116836073D01*
X137956064Y-116693381D01*
X137990365Y-116524000D01*
X137990365Y-115124000D01*
X137960591Y-114965763D01*
X137867073Y-114820433D01*
X137724381Y-114722936D01*
X137555000Y-114688635D01*
X137165347Y-114688635D01*
X133921860Y-111445148D01*
X133921860Y-111133750D01*
X134761710Y-111133750D01*
X134761710Y-111374359D01*
X134858383Y-111607748D01*
X135037011Y-111786377D01*
X135270400Y-111883050D01*
X136011390Y-111883050D01*
X136170140Y-111724300D01*
X136170140Y-110975000D01*
X136424140Y-110975000D01*
X136424140Y-111724300D01*
X136582890Y-111883050D01*
X137323880Y-111883050D01*
X137557269Y-111786377D01*
X137735897Y-111607748D01*
X137832570Y-111374359D01*
X137832570Y-111133750D01*
X137673820Y-110975000D01*
X136424140Y-110975000D01*
X136170140Y-110975000D01*
X134920460Y-110975000D01*
X134761710Y-111133750D01*
X133921860Y-111133750D01*
X133921860Y-110733415D01*
X134195290Y-110733415D01*
X134353527Y-110703641D01*
X134498857Y-110610123D01*
X134596354Y-110467431D01*
X134625877Y-110321641D01*
X134761710Y-110321641D01*
X134761710Y-110562250D01*
X134920460Y-110721000D01*
X136170140Y-110721000D01*
X136170140Y-109971700D01*
X136424140Y-109971700D01*
X136424140Y-110721000D01*
X137673820Y-110721000D01*
X137832570Y-110562250D01*
X137832570Y-110321641D01*
X137735897Y-110088252D01*
X137557269Y-109909623D01*
X137323880Y-109812950D01*
X136582890Y-109812950D01*
X136424140Y-109971700D01*
X136170140Y-109971700D01*
X136011390Y-109812950D01*
X135270400Y-109812950D01*
X135037011Y-109909623D01*
X134858383Y-110088252D01*
X134761710Y-110321641D01*
X134625877Y-110321641D01*
X134630655Y-110298050D01*
X134630655Y-109497950D01*
X134600881Y-109339713D01*
X134507363Y-109194383D01*
X134364671Y-109096886D01*
X134195290Y-109062585D01*
X132394430Y-109062585D01*
X132236193Y-109092359D01*
X132090863Y-109185877D01*
X131993366Y-109328569D01*
X131959065Y-109497950D01*
X131959065Y-110298050D01*
X131988839Y-110456287D01*
X132082357Y-110601617D01*
X132225049Y-110699114D01*
X132394430Y-110733415D01*
X132667860Y-110733415D01*
X132667860Y-111704860D01*
X132715588Y-111944803D01*
X132794097Y-112062300D01*
X132851504Y-112148216D01*
X134301299Y-113598011D01*
X134255000Y-113588635D01*
X132855000Y-113588635D01*
X132696763Y-113618409D01*
X132551433Y-113711927D01*
X132453936Y-113854619D01*
X132419635Y-114024000D01*
X132419635Y-115424000D01*
X132449409Y-115582237D01*
X132542927Y-115727567D01*
X132685619Y-115825064D01*
X132686229Y-115825188D01*
X132551433Y-115911927D01*
X132453936Y-116054619D01*
X132419635Y-116224000D01*
X132419635Y-117624000D01*
X132449409Y-117782237D01*
X132519746Y-117891542D01*
X131488288Y-118923000D01*
X120318000Y-118923000D01*
X120078058Y-118970727D01*
X119874644Y-119106644D01*
X118096644Y-120884644D01*
X117960728Y-121088057D01*
X117913000Y-121328000D01*
X117397000Y-121328000D01*
X117397000Y-95433583D01*
X132422839Y-95433583D01*
X132563669Y-95774417D01*
X132824211Y-96035414D01*
X133164799Y-96176839D01*
X133533583Y-96177161D01*
X133874417Y-96036331D01*
X134034026Y-95877000D01*
X154186000Y-95877000D01*
X154186000Y-96602222D01*
X154178619Y-96613025D01*
X154155073Y-96576433D01*
X154012381Y-96478936D01*
X153843000Y-96444635D01*
X153243000Y-96444635D01*
X153084763Y-96474409D01*
X152939433Y-96567927D01*
X152841936Y-96710619D01*
X152807635Y-96880000D01*
X152807635Y-98380000D01*
X152837409Y-98538237D01*
X152930927Y-98683567D01*
X153073619Y-98781064D01*
X153243000Y-98815365D01*
X153843000Y-98815365D01*
X154001237Y-98785591D01*
X154146567Y-98692073D01*
X154177381Y-98646975D01*
X154186000Y-98660370D01*
X154186000Y-99949000D01*
X154233728Y-100188943D01*
X154267079Y-100238856D01*
X154266839Y-100513583D01*
X154407669Y-100854417D01*
X154668211Y-101115414D01*
X155008799Y-101256839D01*
X155377583Y-101257161D01*
X155718417Y-101116331D01*
X155979414Y-100855789D01*
X156120839Y-100515201D01*
X156121161Y-100146417D01*
X155980331Y-99805583D01*
X155719789Y-99544586D01*
X155440000Y-99428407D01*
X155440000Y-98657778D01*
X155447381Y-98646975D01*
X155470927Y-98683567D01*
X155613619Y-98781064D01*
X155783000Y-98815365D01*
X156383000Y-98815365D01*
X156541237Y-98785591D01*
X156686567Y-98692073D01*
X156717381Y-98646975D01*
X156740927Y-98683567D01*
X156883619Y-98781064D01*
X157053000Y-98815365D01*
X157653000Y-98815365D01*
X157811237Y-98785591D01*
X157956567Y-98692073D01*
X157987381Y-98646975D01*
X157996000Y-98660370D01*
X157996000Y-98933000D01*
X158043728Y-99172943D01*
X158078404Y-99224839D01*
X158179644Y-99376356D01*
X158560644Y-99757356D01*
X158764057Y-99893272D01*
X159004000Y-99941000D01*
X164846000Y-99941000D01*
X165085943Y-99893272D01*
X165235000Y-99793675D01*
X165235000Y-101932073D01*
X165076586Y-102090211D01*
X164935161Y-102430799D01*
X164934839Y-102799583D01*
X165075669Y-103140417D01*
X165336211Y-103401414D01*
X165676799Y-103542839D01*
X166045583Y-103543161D01*
X166386417Y-103402331D01*
X166542200Y-103246820D01*
X166459161Y-103446799D01*
X166458839Y-103815583D01*
X166599669Y-104156417D01*
X166718045Y-104275000D01*
X164564712Y-104275000D01*
X163168365Y-102878653D01*
X163168365Y-102280000D01*
X163138591Y-102121763D01*
X163045073Y-101976433D01*
X162902381Y-101878936D01*
X162733000Y-101844635D01*
X162133000Y-101844635D01*
X161974763Y-101874409D01*
X161829433Y-101967927D01*
X161798619Y-102013025D01*
X161775073Y-101976433D01*
X161632381Y-101878936D01*
X161463000Y-101844635D01*
X160863000Y-101844635D01*
X160704763Y-101874409D01*
X160559433Y-101967927D01*
X160528619Y-102013025D01*
X160505073Y-101976433D01*
X160362381Y-101878936D01*
X160193000Y-101844635D01*
X159593000Y-101844635D01*
X159434763Y-101874409D01*
X159289433Y-101967927D01*
X159258619Y-102013025D01*
X159235073Y-101976433D01*
X159092381Y-101878936D01*
X158923000Y-101844635D01*
X158323000Y-101844635D01*
X158164763Y-101874409D01*
X158019433Y-101967927D01*
X157988619Y-102013025D01*
X157965073Y-101976433D01*
X157822381Y-101878936D01*
X157653000Y-101844635D01*
X157053000Y-101844635D01*
X156894763Y-101874409D01*
X156749433Y-101967927D01*
X156718619Y-102013025D01*
X156695073Y-101976433D01*
X156552381Y-101878936D01*
X156383000Y-101844635D01*
X155783000Y-101844635D01*
X155624763Y-101874409D01*
X155479433Y-101967927D01*
X155448619Y-102013025D01*
X155425073Y-101976433D01*
X155282381Y-101878936D01*
X155113000Y-101844635D01*
X154513000Y-101844635D01*
X154354763Y-101874409D01*
X154343002Y-101881977D01*
X154202699Y-101741673D01*
X153969310Y-101645000D01*
X153828750Y-101645000D01*
X153670000Y-101803750D01*
X153670000Y-102903000D01*
X153690000Y-102903000D01*
X153690000Y-103157000D01*
X153670000Y-103157000D01*
X153670000Y-104256250D01*
X153828750Y-104415000D01*
X153969310Y-104415000D01*
X154186000Y-104325244D01*
X154186000Y-104515288D01*
X153410288Y-105291000D01*
X143415998Y-105291000D01*
X143533414Y-105173789D01*
X143674839Y-104833201D01*
X143675161Y-104464417D01*
X143534331Y-104123583D01*
X143375000Y-103963974D01*
X143375000Y-103315750D01*
X152608000Y-103315750D01*
X152608000Y-103906309D01*
X152704673Y-104139698D01*
X152883301Y-104318327D01*
X153116690Y-104415000D01*
X153257250Y-104415000D01*
X153416000Y-104256250D01*
X153416000Y-103157000D01*
X152766750Y-103157000D01*
X152608000Y-103315750D01*
X143375000Y-103315750D01*
X143375000Y-102153691D01*
X152608000Y-102153691D01*
X152608000Y-102744250D01*
X152766750Y-102903000D01*
X153416000Y-102903000D01*
X153416000Y-101803750D01*
X153257250Y-101645000D01*
X153116690Y-101645000D01*
X152883301Y-101741673D01*
X152704673Y-101920302D01*
X152608000Y-102153691D01*
X143375000Y-102153691D01*
X143375000Y-100513583D01*
X148678839Y-100513583D01*
X148819669Y-100854417D01*
X149080211Y-101115414D01*
X149420799Y-101256839D01*
X149789583Y-101257161D01*
X150130417Y-101116331D01*
X150290026Y-100957000D01*
X151462073Y-100957000D01*
X151620211Y-101115414D01*
X151960799Y-101256839D01*
X152329583Y-101257161D01*
X152670417Y-101116331D01*
X152931414Y-100855789D01*
X153072839Y-100515201D01*
X153073161Y-100146417D01*
X152932331Y-99805583D01*
X152671789Y-99544586D01*
X152331201Y-99403161D01*
X151962417Y-99402839D01*
X151621583Y-99543669D01*
X151461974Y-99703000D01*
X150289927Y-99703000D01*
X150131789Y-99544586D01*
X149791201Y-99403161D01*
X149422417Y-99402839D01*
X149081583Y-99543669D01*
X148820586Y-99804211D01*
X148679161Y-100144799D01*
X148678839Y-100513583D01*
X143375000Y-100513583D01*
X143375000Y-99462015D01*
X143507448Y-99197120D01*
X143780417Y-99084331D01*
X144041414Y-98823789D01*
X144182839Y-98483201D01*
X144183161Y-98114417D01*
X144042331Y-97773583D01*
X143781789Y-97512586D01*
X143441201Y-97371161D01*
X143072417Y-97370839D01*
X142731583Y-97511669D01*
X142470586Y-97772211D01*
X142329161Y-98112799D01*
X142328839Y-98481583D01*
X142389634Y-98628717D01*
X142187194Y-99033597D01*
X142181244Y-99055326D01*
X142168728Y-99074057D01*
X142149121Y-99172626D01*
X142122578Y-99269553D01*
X142125395Y-99291903D01*
X142121000Y-99314000D01*
X142121000Y-103964073D01*
X141962586Y-104122211D01*
X141821161Y-104462799D01*
X141820839Y-104831583D01*
X141961669Y-105172417D01*
X142080045Y-105291000D01*
X136906000Y-105291000D01*
X136666057Y-105338728D01*
X136571364Y-105402000D01*
X136462644Y-105474644D01*
X135853784Y-106083504D01*
X135717868Y-106286917D01*
X135670140Y-106526860D01*
X135670140Y-108112585D01*
X135396710Y-108112585D01*
X135238473Y-108142359D01*
X135093143Y-108235877D01*
X134995646Y-108378569D01*
X134961345Y-108547950D01*
X134961345Y-109348050D01*
X134991119Y-109506287D01*
X135084637Y-109651617D01*
X135227329Y-109749114D01*
X135396710Y-109783415D01*
X137197570Y-109783415D01*
X137355807Y-109753641D01*
X137501137Y-109660123D01*
X137554550Y-109581950D01*
X138387065Y-109581950D01*
X138387065Y-110382050D01*
X138416839Y-110540287D01*
X138510357Y-110685617D01*
X138653049Y-110783114D01*
X138822430Y-110817415D01*
X139095860Y-110817415D01*
X139095860Y-111274860D01*
X139143588Y-111514803D01*
X139279504Y-111718216D01*
X142705000Y-115143712D01*
X142705000Y-115196635D01*
X142632000Y-115196635D01*
X142473763Y-115226409D01*
X142328433Y-115319927D01*
X142230936Y-115462619D01*
X142196635Y-115632000D01*
X142196635Y-117032000D01*
X142226409Y-117190237D01*
X142319927Y-117335567D01*
X142462619Y-117433064D01*
X142632000Y-117467365D01*
X144032000Y-117467365D01*
X144190237Y-117437591D01*
X144335567Y-117344073D01*
X144433064Y-117201381D01*
X144467365Y-117032000D01*
X144467365Y-115632000D01*
X144437591Y-115473763D01*
X144344073Y-115328433D01*
X144201381Y-115230936D01*
X144032000Y-115196635D01*
X143959000Y-115196635D01*
X143959000Y-114884000D01*
X143911273Y-114644058D01*
X143775356Y-114440644D01*
X140552462Y-111217750D01*
X141189710Y-111217750D01*
X141189710Y-111458359D01*
X141286383Y-111691748D01*
X141465011Y-111870377D01*
X141698400Y-111967050D01*
X142439390Y-111967050D01*
X142598140Y-111808300D01*
X142598140Y-111059000D01*
X142852140Y-111059000D01*
X142852140Y-111808300D01*
X143010890Y-111967050D01*
X143751880Y-111967050D01*
X143985269Y-111870377D01*
X144163897Y-111691748D01*
X144260570Y-111458359D01*
X144260570Y-111217750D01*
X144101820Y-111059000D01*
X142852140Y-111059000D01*
X142598140Y-111059000D01*
X141348460Y-111059000D01*
X141189710Y-111217750D01*
X140552462Y-111217750D01*
X140349860Y-111015148D01*
X140349860Y-110817415D01*
X140623290Y-110817415D01*
X140781527Y-110787641D01*
X140926857Y-110694123D01*
X141024354Y-110551431D01*
X141053877Y-110405641D01*
X141189710Y-110405641D01*
X141189710Y-110646250D01*
X141348460Y-110805000D01*
X142598140Y-110805000D01*
X142598140Y-110055700D01*
X142852140Y-110055700D01*
X142852140Y-110805000D01*
X144101820Y-110805000D01*
X144260570Y-110646250D01*
X144260570Y-110405641D01*
X144163897Y-110172252D01*
X143985269Y-109993623D01*
X143751880Y-109896950D01*
X143010890Y-109896950D01*
X142852140Y-110055700D01*
X142598140Y-110055700D01*
X142439390Y-109896950D01*
X141698400Y-109896950D01*
X141465011Y-109993623D01*
X141286383Y-110172252D01*
X141189710Y-110405641D01*
X141053877Y-110405641D01*
X141058655Y-110382050D01*
X141058655Y-109581950D01*
X141028881Y-109423713D01*
X140935363Y-109278383D01*
X140792671Y-109180886D01*
X140623290Y-109146585D01*
X138822430Y-109146585D01*
X138664193Y-109176359D01*
X138518863Y-109269877D01*
X138421366Y-109412569D01*
X138387065Y-109581950D01*
X137554550Y-109581950D01*
X137598634Y-109517431D01*
X137632935Y-109348050D01*
X137632935Y-108547950D01*
X137603161Y-108389713D01*
X137509643Y-108244383D01*
X137366951Y-108146886D01*
X137197570Y-108112585D01*
X136924140Y-108112585D01*
X136924140Y-106786572D01*
X137165712Y-106545000D01*
X144028288Y-106545000D01*
X142558644Y-108014644D01*
X142437075Y-108196585D01*
X141824710Y-108196585D01*
X141666473Y-108226359D01*
X141521143Y-108319877D01*
X141423646Y-108462569D01*
X141389345Y-108631950D01*
X141389345Y-109432050D01*
X141419119Y-109590287D01*
X141512637Y-109735617D01*
X141655329Y-109833114D01*
X141824710Y-109867415D01*
X143625570Y-109867415D01*
X143783807Y-109837641D01*
X143929137Y-109744123D01*
X144026634Y-109601431D01*
X144030579Y-109581950D01*
X144991065Y-109581950D01*
X144991065Y-110382050D01*
X145020839Y-110540287D01*
X145114357Y-110685617D01*
X145257049Y-110783114D01*
X145426430Y-110817415D01*
X145699860Y-110817415D01*
X145699860Y-111020860D01*
X145747588Y-111260803D01*
X145883504Y-111464216D01*
X149055000Y-114635712D01*
X149055000Y-115196635D01*
X148982000Y-115196635D01*
X148823763Y-115226409D01*
X148678433Y-115319927D01*
X148580936Y-115462619D01*
X148546635Y-115632000D01*
X148546635Y-117032000D01*
X148576409Y-117190237D01*
X148669927Y-117335567D01*
X148812619Y-117433064D01*
X148982000Y-117467365D01*
X150382000Y-117467365D01*
X150540237Y-117437591D01*
X150685567Y-117344073D01*
X150783064Y-117201381D01*
X150817365Y-117032000D01*
X150817365Y-115632000D01*
X150787591Y-115473763D01*
X150694073Y-115328433D01*
X150551381Y-115230936D01*
X150382000Y-115196635D01*
X150309000Y-115196635D01*
X150309000Y-114376000D01*
X150261272Y-114136057D01*
X150125356Y-113932644D01*
X147410462Y-111217750D01*
X147793710Y-111217750D01*
X147793710Y-111458359D01*
X147890383Y-111691748D01*
X148069011Y-111870377D01*
X148302400Y-111967050D01*
X149043390Y-111967050D01*
X149202140Y-111808300D01*
X149202140Y-111059000D01*
X149456140Y-111059000D01*
X149456140Y-111808300D01*
X149614890Y-111967050D01*
X150355880Y-111967050D01*
X150589269Y-111870377D01*
X150767897Y-111691748D01*
X150864570Y-111458359D01*
X150864570Y-111217750D01*
X150705820Y-111059000D01*
X149456140Y-111059000D01*
X149202140Y-111059000D01*
X147952460Y-111059000D01*
X147793710Y-111217750D01*
X147410462Y-111217750D01*
X147010127Y-110817415D01*
X147227290Y-110817415D01*
X147385527Y-110787641D01*
X147530857Y-110694123D01*
X147628354Y-110551431D01*
X147657877Y-110405641D01*
X147793710Y-110405641D01*
X147793710Y-110646250D01*
X147952460Y-110805000D01*
X149202140Y-110805000D01*
X149202140Y-110055700D01*
X149456140Y-110055700D01*
X149456140Y-110805000D01*
X150705820Y-110805000D01*
X150864570Y-110646250D01*
X150864570Y-110405641D01*
X150767897Y-110172252D01*
X150589269Y-109993623D01*
X150355880Y-109896950D01*
X149614890Y-109896950D01*
X149456140Y-110055700D01*
X149202140Y-110055700D01*
X149043390Y-109896950D01*
X148302400Y-109896950D01*
X148069011Y-109993623D01*
X147890383Y-110172252D01*
X147793710Y-110405641D01*
X147657877Y-110405641D01*
X147662655Y-110382050D01*
X147662655Y-109581950D01*
X147632881Y-109423713D01*
X147539363Y-109278383D01*
X147396671Y-109180886D01*
X147227290Y-109146585D01*
X145426430Y-109146585D01*
X145268193Y-109176359D01*
X145122863Y-109269877D01*
X145025366Y-109412569D01*
X144991065Y-109581950D01*
X144030579Y-109581950D01*
X144060935Y-109432050D01*
X144060935Y-108631950D01*
X144031161Y-108473713D01*
X143969235Y-108377477D01*
X144785712Y-107561000D01*
X150378288Y-107561000D01*
X149742703Y-108196585D01*
X148428710Y-108196585D01*
X148270473Y-108226359D01*
X148125143Y-108319877D01*
X148027646Y-108462569D01*
X147993345Y-108631950D01*
X147993345Y-109432050D01*
X148023119Y-109590287D01*
X148116637Y-109735617D01*
X148259329Y-109833114D01*
X148428710Y-109867415D01*
X150229570Y-109867415D01*
X150387807Y-109837641D01*
X150533137Y-109744123D01*
X150630634Y-109601431D01*
X150634579Y-109581950D01*
X151595065Y-109581950D01*
X151595065Y-110382050D01*
X151624839Y-110540287D01*
X151718357Y-110685617D01*
X151861049Y-110783114D01*
X152030430Y-110817415D01*
X152313916Y-110817415D01*
X152351588Y-111006803D01*
X152436411Y-111133750D01*
X152487504Y-111210216D01*
X155405000Y-114127712D01*
X155405000Y-115196635D01*
X155332000Y-115196635D01*
X155173763Y-115226409D01*
X155028433Y-115319927D01*
X154930936Y-115462619D01*
X154896635Y-115632000D01*
X154896635Y-117032000D01*
X154926409Y-117190237D01*
X155019927Y-117335567D01*
X155162619Y-117433064D01*
X155332000Y-117467365D01*
X156732000Y-117467365D01*
X156890237Y-117437591D01*
X157035567Y-117344073D01*
X157133064Y-117201381D01*
X157167365Y-117032000D01*
X157167365Y-115632000D01*
X157137591Y-115473763D01*
X157044073Y-115328433D01*
X156901381Y-115230936D01*
X156732000Y-115196635D01*
X156659000Y-115196635D01*
X156659000Y-113868000D01*
X156611272Y-113628057D01*
X156475356Y-113424644D01*
X155017762Y-111967050D01*
X155647390Y-111967050D01*
X155806140Y-111808300D01*
X155806140Y-111059000D01*
X156060140Y-111059000D01*
X156060140Y-111808300D01*
X156218890Y-111967050D01*
X156959880Y-111967050D01*
X157193269Y-111870377D01*
X157371897Y-111691748D01*
X157468570Y-111458359D01*
X157468570Y-111217750D01*
X157309820Y-111059000D01*
X156060140Y-111059000D01*
X155806140Y-111059000D01*
X154556460Y-111059000D01*
X154397710Y-111217750D01*
X154397710Y-111346998D01*
X153862293Y-110811581D01*
X153989527Y-110787641D01*
X154134857Y-110694123D01*
X154232354Y-110551431D01*
X154261877Y-110405641D01*
X154397710Y-110405641D01*
X154397710Y-110646250D01*
X154556460Y-110805000D01*
X155806140Y-110805000D01*
X155806140Y-110055700D01*
X156060140Y-110055700D01*
X156060140Y-110805000D01*
X157309820Y-110805000D01*
X157468570Y-110646250D01*
X157468570Y-110405641D01*
X157371897Y-110172252D01*
X157193269Y-109993623D01*
X156959880Y-109896950D01*
X156218890Y-109896950D01*
X156060140Y-110055700D01*
X155806140Y-110055700D01*
X155647390Y-109896950D01*
X154906400Y-109896950D01*
X154673011Y-109993623D01*
X154494383Y-110172252D01*
X154397710Y-110405641D01*
X154261877Y-110405641D01*
X154266655Y-110382050D01*
X154266655Y-109581950D01*
X154236881Y-109423713D01*
X154143363Y-109278383D01*
X154000671Y-109180886D01*
X153831290Y-109146585D01*
X152030430Y-109146585D01*
X151872193Y-109176359D01*
X151726863Y-109269877D01*
X151629366Y-109412569D01*
X151595065Y-109581950D01*
X150634579Y-109581950D01*
X150664935Y-109432050D01*
X150664935Y-109047777D01*
X151135712Y-108577000D01*
X154608473Y-108577000D01*
X154597345Y-108631950D01*
X154597345Y-109432050D01*
X154627119Y-109590287D01*
X154720637Y-109735617D01*
X154863329Y-109833114D01*
X155032710Y-109867415D01*
X156833570Y-109867415D01*
X156991807Y-109837641D01*
X157137137Y-109744123D01*
X157234634Y-109601431D01*
X157238579Y-109581950D01*
X157691065Y-109581950D01*
X157691065Y-110382050D01*
X157720839Y-110540287D01*
X157814357Y-110685617D01*
X157957049Y-110783114D01*
X158126430Y-110817415D01*
X158399860Y-110817415D01*
X158399860Y-111274860D01*
X158447588Y-111514803D01*
X158583504Y-111718216D01*
X161755000Y-114889712D01*
X161755000Y-114942635D01*
X161682000Y-114942635D01*
X161523763Y-114972409D01*
X161378433Y-115065927D01*
X161280936Y-115208619D01*
X161246635Y-115378000D01*
X161246635Y-116778000D01*
X161276409Y-116936237D01*
X161369927Y-117081567D01*
X161512619Y-117179064D01*
X161682000Y-117213365D01*
X163082000Y-117213365D01*
X163240237Y-117183591D01*
X163385567Y-117090073D01*
X163483064Y-116947381D01*
X163517365Y-116778000D01*
X163517365Y-115378000D01*
X163487591Y-115219763D01*
X163394073Y-115074433D01*
X163251381Y-114976936D01*
X163082000Y-114942635D01*
X163009000Y-114942635D01*
X163009000Y-114630000D01*
X162961272Y-114390057D01*
X162825356Y-114186644D01*
X159856462Y-111217750D01*
X160493710Y-111217750D01*
X160493710Y-111458359D01*
X160590383Y-111691748D01*
X160769011Y-111870377D01*
X161002400Y-111967050D01*
X161743390Y-111967050D01*
X161902140Y-111808300D01*
X161902140Y-111059000D01*
X162156140Y-111059000D01*
X162156140Y-111808300D01*
X162314890Y-111967050D01*
X163055880Y-111967050D01*
X163289269Y-111870377D01*
X163467897Y-111691748D01*
X163564570Y-111458359D01*
X163564570Y-111217750D01*
X163405820Y-111059000D01*
X162156140Y-111059000D01*
X161902140Y-111059000D01*
X160652460Y-111059000D01*
X160493710Y-111217750D01*
X159856462Y-111217750D01*
X159653860Y-111015148D01*
X159653860Y-110817415D01*
X159927290Y-110817415D01*
X160085527Y-110787641D01*
X160230857Y-110694123D01*
X160328354Y-110551431D01*
X160357877Y-110405641D01*
X160493710Y-110405641D01*
X160493710Y-110646250D01*
X160652460Y-110805000D01*
X161902140Y-110805000D01*
X161902140Y-110055700D01*
X162156140Y-110055700D01*
X162156140Y-110805000D01*
X163405820Y-110805000D01*
X163564570Y-110646250D01*
X163564570Y-110405641D01*
X163467897Y-110172252D01*
X163289269Y-109993623D01*
X163055880Y-109896950D01*
X162314890Y-109896950D01*
X162156140Y-110055700D01*
X161902140Y-110055700D01*
X161743390Y-109896950D01*
X161002400Y-109896950D01*
X160769011Y-109993623D01*
X160590383Y-110172252D01*
X160493710Y-110405641D01*
X160357877Y-110405641D01*
X160362655Y-110382050D01*
X160362655Y-109581950D01*
X160332881Y-109423713D01*
X160239363Y-109278383D01*
X160096671Y-109180886D01*
X159927290Y-109146585D01*
X158126430Y-109146585D01*
X157968193Y-109176359D01*
X157822863Y-109269877D01*
X157725366Y-109412569D01*
X157691065Y-109581950D01*
X157238579Y-109581950D01*
X157246208Y-109544277D01*
X157349356Y-109475356D01*
X159066356Y-107758356D01*
X159202273Y-107554942D01*
X159250000Y-107315000D01*
X159250000Y-104057778D01*
X159257381Y-104046975D01*
X159266000Y-104060370D01*
X159266000Y-104267000D01*
X159313728Y-104506943D01*
X159445215Y-104703727D01*
X159449644Y-104710356D01*
X161354644Y-106615356D01*
X161402140Y-106647092D01*
X161402140Y-108196585D01*
X161128710Y-108196585D01*
X160970473Y-108226359D01*
X160825143Y-108319877D01*
X160727646Y-108462569D01*
X160693345Y-108631950D01*
X160693345Y-109432050D01*
X160723119Y-109590287D01*
X160816637Y-109735617D01*
X160959329Y-109833114D01*
X161128710Y-109867415D01*
X162929570Y-109867415D01*
X163087807Y-109837641D01*
X163233137Y-109744123D01*
X163330634Y-109601431D01*
X163334579Y-109581950D01*
X163787065Y-109581950D01*
X163787065Y-110382050D01*
X163816839Y-110540287D01*
X163910357Y-110685617D01*
X164053049Y-110783114D01*
X164222430Y-110817415D01*
X164586760Y-110817415D01*
X164642109Y-110900250D01*
X164679504Y-110956216D01*
X167597000Y-113873712D01*
X167597000Y-114942635D01*
X167524000Y-114942635D01*
X167365763Y-114972409D01*
X167220433Y-115065927D01*
X167122936Y-115208619D01*
X167088635Y-115378000D01*
X167088635Y-116778000D01*
X167118409Y-116936237D01*
X167211927Y-117081567D01*
X167354619Y-117179064D01*
X167524000Y-117213365D01*
X168924000Y-117213365D01*
X169082237Y-117183591D01*
X169227567Y-117090073D01*
X169325064Y-116947381D01*
X169359365Y-116778000D01*
X169359365Y-115378000D01*
X169329591Y-115219763D01*
X169236073Y-115074433D01*
X169093381Y-114976936D01*
X168924000Y-114942635D01*
X168851000Y-114942635D01*
X168851000Y-113614000D01*
X168803272Y-113374057D01*
X168667356Y-113170644D01*
X167463762Y-111967050D01*
X167839390Y-111967050D01*
X167998140Y-111808300D01*
X167998140Y-111059000D01*
X168252140Y-111059000D01*
X168252140Y-111808300D01*
X168410890Y-111967050D01*
X169151880Y-111967050D01*
X169385269Y-111870377D01*
X169563897Y-111691748D01*
X169660570Y-111458359D01*
X169660570Y-111217750D01*
X169501820Y-111059000D01*
X168252140Y-111059000D01*
X167998140Y-111059000D01*
X166748460Y-111059000D01*
X166652086Y-111155374D01*
X166244093Y-110747381D01*
X166326857Y-110694123D01*
X166424354Y-110551431D01*
X166453877Y-110405641D01*
X166589710Y-110405641D01*
X166589710Y-110646250D01*
X166748460Y-110805000D01*
X167998140Y-110805000D01*
X167998140Y-110055700D01*
X168252140Y-110055700D01*
X168252140Y-110805000D01*
X169501820Y-110805000D01*
X169660570Y-110646250D01*
X169660570Y-110405641D01*
X169563897Y-110172252D01*
X169385269Y-109993623D01*
X169151880Y-109896950D01*
X168410890Y-109896950D01*
X168252140Y-110055700D01*
X167998140Y-110055700D01*
X167839390Y-109896950D01*
X167098400Y-109896950D01*
X166865011Y-109993623D01*
X166686383Y-110172252D01*
X166589710Y-110405641D01*
X166453877Y-110405641D01*
X166458655Y-110382050D01*
X166458655Y-109581950D01*
X166428881Y-109423713D01*
X166335363Y-109278383D01*
X166192671Y-109180886D01*
X166023290Y-109146585D01*
X164222430Y-109146585D01*
X164064193Y-109176359D01*
X163918863Y-109269877D01*
X163821366Y-109412569D01*
X163787065Y-109581950D01*
X163334579Y-109581950D01*
X163364935Y-109432050D01*
X163364935Y-108631950D01*
X163335161Y-108473713D01*
X163241643Y-108328383D01*
X163098951Y-108230886D01*
X162929570Y-108196585D01*
X162656140Y-108196585D01*
X162656140Y-106172000D01*
X162608412Y-105932057D01*
X162472496Y-105728644D01*
X162269083Y-105592728D01*
X162064807Y-105552095D01*
X162039157Y-105526445D01*
X162052000Y-105529000D01*
X163132284Y-105529000D01*
X163548642Y-105945358D01*
X163752056Y-106081275D01*
X163991998Y-106129002D01*
X167172570Y-106129002D01*
X167498140Y-106454572D01*
X167498140Y-108196585D01*
X167224710Y-108196585D01*
X167066473Y-108226359D01*
X166921143Y-108319877D01*
X166823646Y-108462569D01*
X166789345Y-108631950D01*
X166789345Y-109432050D01*
X166819119Y-109590287D01*
X166912637Y-109735617D01*
X167055329Y-109833114D01*
X167224710Y-109867415D01*
X169025570Y-109867415D01*
X169183807Y-109837641D01*
X169186434Y-109835950D01*
X170137065Y-109835950D01*
X170137065Y-110636050D01*
X170166839Y-110794287D01*
X170260357Y-110939617D01*
X170403049Y-111037114D01*
X170572430Y-111071415D01*
X170845860Y-111071415D01*
X170845860Y-111274860D01*
X170893588Y-111514803D01*
X171029504Y-111718216D01*
X173947000Y-114635712D01*
X173947000Y-114942635D01*
X173874000Y-114942635D01*
X173715763Y-114972409D01*
X173570433Y-115065927D01*
X173472936Y-115208619D01*
X173438635Y-115378000D01*
X173438635Y-116778000D01*
X173468409Y-116936237D01*
X173561927Y-117081567D01*
X173704619Y-117179064D01*
X173874000Y-117213365D01*
X175274000Y-117213365D01*
X175432237Y-117183591D01*
X175577567Y-117090073D01*
X175675064Y-116947381D01*
X175709365Y-116778000D01*
X175709365Y-115378000D01*
X175679591Y-115219763D01*
X175586073Y-115074433D01*
X175443381Y-114976936D01*
X175274000Y-114942635D01*
X175201000Y-114942635D01*
X175201000Y-114376000D01*
X175153272Y-114136057D01*
X175017356Y-113932644D01*
X172556462Y-111471750D01*
X172939710Y-111471750D01*
X172939710Y-111712359D01*
X173036383Y-111945748D01*
X173215011Y-112124377D01*
X173448400Y-112221050D01*
X174189390Y-112221050D01*
X174348140Y-112062300D01*
X174348140Y-111313000D01*
X174602140Y-111313000D01*
X174602140Y-112062300D01*
X174760890Y-112221050D01*
X175501880Y-112221050D01*
X175735269Y-112124377D01*
X175913897Y-111945748D01*
X176010570Y-111712359D01*
X176010570Y-111471750D01*
X175851820Y-111313000D01*
X174602140Y-111313000D01*
X174348140Y-111313000D01*
X173098460Y-111313000D01*
X172939710Y-111471750D01*
X172556462Y-111471750D01*
X172156127Y-111071415D01*
X172373290Y-111071415D01*
X172531527Y-111041641D01*
X172676857Y-110948123D01*
X172774354Y-110805431D01*
X172803877Y-110659641D01*
X172939710Y-110659641D01*
X172939710Y-110900250D01*
X173098460Y-111059000D01*
X174348140Y-111059000D01*
X174348140Y-110309700D01*
X174602140Y-110309700D01*
X174602140Y-111059000D01*
X175851820Y-111059000D01*
X176010570Y-110900250D01*
X176010570Y-110659641D01*
X175913897Y-110426252D01*
X175735269Y-110247623D01*
X175501880Y-110150950D01*
X174760890Y-110150950D01*
X174602140Y-110309700D01*
X174348140Y-110309700D01*
X174189390Y-110150950D01*
X173448400Y-110150950D01*
X173215011Y-110247623D01*
X173036383Y-110426252D01*
X172939710Y-110659641D01*
X172803877Y-110659641D01*
X172808655Y-110636050D01*
X172808655Y-109835950D01*
X172778881Y-109677713D01*
X172685363Y-109532383D01*
X172542671Y-109434886D01*
X172373290Y-109400585D01*
X170572430Y-109400585D01*
X170414193Y-109430359D01*
X170268863Y-109523877D01*
X170171366Y-109666569D01*
X170137065Y-109835950D01*
X169186434Y-109835950D01*
X169329137Y-109744123D01*
X169426634Y-109601431D01*
X169460935Y-109432050D01*
X169460935Y-108631950D01*
X169431161Y-108473713D01*
X169337643Y-108328383D01*
X169194951Y-108230886D01*
X169025570Y-108196585D01*
X168752140Y-108196585D01*
X168752140Y-106194860D01*
X168704412Y-105954917D01*
X168568496Y-105751504D01*
X168345992Y-105529000D01*
X172714288Y-105529000D01*
X173848140Y-106662852D01*
X173848140Y-108450585D01*
X173574710Y-108450585D01*
X173416473Y-108480359D01*
X173271143Y-108573877D01*
X173173646Y-108716569D01*
X173139345Y-108885950D01*
X173139345Y-109686050D01*
X173169119Y-109844287D01*
X173262637Y-109989617D01*
X173405329Y-110087114D01*
X173574710Y-110121415D01*
X175375570Y-110121415D01*
X175533807Y-110091641D01*
X175679137Y-109998123D01*
X175776634Y-109855431D01*
X175810935Y-109686050D01*
X175810935Y-108885950D01*
X175781161Y-108727713D01*
X175687643Y-108582383D01*
X175544951Y-108484886D01*
X175375570Y-108450585D01*
X175102140Y-108450585D01*
X175102140Y-106403140D01*
X175092510Y-106354728D01*
X175054413Y-106163198D01*
X174918496Y-105959784D01*
X173417356Y-104458644D01*
X173352038Y-104415000D01*
X173213943Y-104322728D01*
X172974000Y-104275000D01*
X168053998Y-104275000D01*
X168171414Y-104157789D01*
X168312839Y-103817201D01*
X168313161Y-103448417D01*
X168172331Y-103107583D01*
X168013000Y-102947974D01*
X168013000Y-98981927D01*
X168171414Y-98823789D01*
X168312839Y-98483201D01*
X168313161Y-98114417D01*
X168172331Y-97773583D01*
X167911789Y-97512586D01*
X167571201Y-97371161D01*
X167202417Y-97370839D01*
X166861583Y-97511669D01*
X166623814Y-97749023D01*
X166387789Y-97512586D01*
X166047201Y-97371161D01*
X165678417Y-97370839D01*
X165519087Y-97436673D01*
X165519161Y-97352417D01*
X165378331Y-97011583D01*
X165117789Y-96750586D01*
X164777201Y-96609161D01*
X164408417Y-96608839D01*
X164067583Y-96749669D01*
X163813810Y-97003000D01*
X163168365Y-97003000D01*
X163168365Y-96880000D01*
X163138591Y-96721763D01*
X163045073Y-96576433D01*
X162902381Y-96478936D01*
X162733000Y-96444635D01*
X162133000Y-96444635D01*
X161974763Y-96474409D01*
X161829433Y-96567927D01*
X161798619Y-96613025D01*
X161775073Y-96576433D01*
X161632381Y-96478936D01*
X161463000Y-96444635D01*
X160863000Y-96444635D01*
X160704763Y-96474409D01*
X160559433Y-96567927D01*
X160528619Y-96613025D01*
X160520000Y-96599630D01*
X160520000Y-95687583D01*
X160616839Y-95687583D01*
X160757669Y-96028417D01*
X161018211Y-96289414D01*
X161358799Y-96430839D01*
X161727583Y-96431161D01*
X162068417Y-96290331D01*
X162177939Y-96181000D01*
X165835578Y-96181000D01*
X165950973Y-96296395D01*
X165950839Y-96449583D01*
X166091669Y-96790417D01*
X166352211Y-97051414D01*
X166692799Y-97192839D01*
X167061583Y-97193161D01*
X167402417Y-97052331D01*
X167663414Y-96791789D01*
X167804839Y-96451201D01*
X167805161Y-96082417D01*
X167664331Y-95741583D01*
X167403789Y-95480586D01*
X167063201Y-95339161D01*
X166908448Y-95339026D01*
X166594711Y-95025289D01*
X166524254Y-94978211D01*
X166375077Y-94878534D01*
X166116000Y-94827000D01*
X162178014Y-94827000D01*
X162069789Y-94718586D01*
X161729201Y-94577161D01*
X161360417Y-94576839D01*
X161019583Y-94717669D01*
X160758586Y-94978211D01*
X160617161Y-95318799D01*
X160616839Y-95687583D01*
X160520000Y-95687583D01*
X160520000Y-94522420D01*
X160544417Y-94512331D01*
X160805414Y-94251789D01*
X160946839Y-93911201D01*
X160947161Y-93542417D01*
X160806331Y-93201583D01*
X160545789Y-92940586D01*
X160205201Y-92799161D01*
X159836417Y-92798839D01*
X159495583Y-92939669D01*
X159234586Y-93200211D01*
X159093161Y-93540799D01*
X159092839Y-93909583D01*
X159233669Y-94250417D01*
X159266000Y-94282804D01*
X159266000Y-96602222D01*
X159258619Y-96613025D01*
X159235073Y-96576433D01*
X159092381Y-96478936D01*
X158923000Y-96444635D01*
X158323000Y-96444635D01*
X158164763Y-96474409D01*
X158019433Y-96567927D01*
X157988619Y-96613025D01*
X157980000Y-96599630D01*
X157980000Y-95890712D01*
X158431356Y-95439356D01*
X158567273Y-95235942D01*
X158615000Y-94996000D01*
X158615000Y-83495583D01*
X161886839Y-83495583D01*
X162027669Y-83836417D01*
X162288211Y-84097414D01*
X162628799Y-84238839D01*
X162997583Y-84239161D01*
X163338417Y-84098331D01*
X163599414Y-83837789D01*
X163740839Y-83497201D01*
X163740974Y-83342448D01*
X167102712Y-79980711D01*
X167249467Y-79761076D01*
X167301000Y-79502000D01*
X167301000Y-75818014D01*
X167409414Y-75709789D01*
X167550839Y-75369201D01*
X167551161Y-75000417D01*
X167410331Y-74659583D01*
X167149789Y-74398586D01*
X166809201Y-74257161D01*
X166440417Y-74256839D01*
X166099583Y-74397669D01*
X165838586Y-74658211D01*
X165697161Y-74998799D01*
X165696839Y-75367583D01*
X165837669Y-75708417D01*
X165947000Y-75817939D01*
X165947000Y-79221577D01*
X162783605Y-82384973D01*
X162630417Y-82384839D01*
X162289583Y-82525669D01*
X162028586Y-82786211D01*
X161887161Y-83126799D01*
X161886839Y-83495583D01*
X158615000Y-83495583D01*
X158615000Y-76200000D01*
X158597265Y-76110839D01*
X158567273Y-75960058D01*
X158431356Y-75756644D01*
X157669356Y-74994644D01*
X157465943Y-74858728D01*
X157226000Y-74811000D01*
X152321927Y-74811000D01*
X152163789Y-74652586D01*
X151823201Y-74511161D01*
X151454417Y-74510839D01*
X151113583Y-74651669D01*
X150852586Y-74912211D01*
X150711161Y-75252799D01*
X150710839Y-75621583D01*
X150851669Y-75962417D01*
X151112211Y-76223414D01*
X151452799Y-76364839D01*
X151821583Y-76365161D01*
X152162417Y-76224331D01*
X152322026Y-76065000D01*
X156966288Y-76065000D01*
X157361000Y-76459712D01*
X157361000Y-92042002D01*
X157243789Y-91924586D01*
X156903201Y-91783161D01*
X156534417Y-91782839D01*
X156193583Y-91923669D01*
X155932586Y-92184211D01*
X155811521Y-92475767D01*
X155639644Y-92647644D01*
X155503728Y-92851057D01*
X155456000Y-93091000D01*
X155456000Y-94460521D01*
X155125201Y-94323161D01*
X154756417Y-94322839D01*
X154415583Y-94463669D01*
X154255974Y-94623000D01*
X134033927Y-94623000D01*
X133875789Y-94464586D01*
X133535201Y-94323161D01*
X133166417Y-94322839D01*
X132825583Y-94463669D01*
X132564586Y-94724211D01*
X132423161Y-95064799D01*
X132422839Y-95433583D01*
X117397000Y-95433583D01*
X117397000Y-86966000D01*
X128074635Y-86966000D01*
X128074635Y-89966000D01*
X128104409Y-90124237D01*
X128197927Y-90269567D01*
X128340619Y-90367064D01*
X128510000Y-90401365D01*
X131510000Y-90401365D01*
X131668237Y-90371591D01*
X131813567Y-90278073D01*
X131911064Y-90135381D01*
X131945365Y-89966000D01*
X131945365Y-86966000D01*
X132474635Y-86966000D01*
X132474635Y-89966000D01*
X132504409Y-90124237D01*
X132597927Y-90269567D01*
X132740619Y-90367064D01*
X132910000Y-90401365D01*
X135910000Y-90401365D01*
X136068237Y-90371591D01*
X136213567Y-90278073D01*
X136311064Y-90135381D01*
X136345365Y-89966000D01*
X136345365Y-88751750D01*
X136775000Y-88751750D01*
X136775000Y-90092310D01*
X136871673Y-90325699D01*
X137050302Y-90504327D01*
X137283691Y-90601000D01*
X138624250Y-90601000D01*
X138783000Y-90442250D01*
X138783000Y-88593000D01*
X139037000Y-88593000D01*
X139037000Y-90442250D01*
X139195750Y-90601000D01*
X140536309Y-90601000D01*
X140769698Y-90504327D01*
X140948327Y-90325699D01*
X141045000Y-90092310D01*
X141045000Y-88928603D01*
X144114752Y-88928603D01*
X144331543Y-89453275D01*
X144732614Y-89855047D01*
X145256907Y-90072752D01*
X145824603Y-90073248D01*
X146349275Y-89856457D01*
X146447000Y-89758903D01*
X146447000Y-89772309D01*
X146543673Y-90005698D01*
X146722301Y-90184327D01*
X146955690Y-90281000D01*
X147796250Y-90281000D01*
X147955000Y-90122250D01*
X147955000Y-88773000D01*
X148209000Y-88773000D01*
X148209000Y-90122250D01*
X148367750Y-90281000D01*
X149208310Y-90281000D01*
X149441699Y-90184327D01*
X149620327Y-90005698D01*
X149717000Y-89772309D01*
X149717000Y-88931750D01*
X149558250Y-88773000D01*
X148209000Y-88773000D01*
X147955000Y-88773000D01*
X147935000Y-88773000D01*
X147935000Y-88519000D01*
X147955000Y-88519000D01*
X147955000Y-87169750D01*
X148209000Y-87169750D01*
X148209000Y-88519000D01*
X149558250Y-88519000D01*
X149717000Y-88360250D01*
X149717000Y-87519691D01*
X149620327Y-87286302D01*
X149441699Y-87107673D01*
X149208310Y-87011000D01*
X148367750Y-87011000D01*
X148209000Y-87169750D01*
X147955000Y-87169750D01*
X147796250Y-87011000D01*
X146955690Y-87011000D01*
X146722301Y-87107673D01*
X146543673Y-87286302D01*
X146447000Y-87519691D01*
X146447000Y-87532734D01*
X146351386Y-87436953D01*
X145827093Y-87219248D01*
X145259397Y-87218752D01*
X144734725Y-87435543D01*
X144332953Y-87836614D01*
X144115248Y-88360907D01*
X144114752Y-88928603D01*
X141045000Y-88928603D01*
X141045000Y-88751750D01*
X140886250Y-88593000D01*
X139037000Y-88593000D01*
X138783000Y-88593000D01*
X136933750Y-88593000D01*
X136775000Y-88751750D01*
X136345365Y-88751750D01*
X136345365Y-86966000D01*
X136321599Y-86839690D01*
X136775000Y-86839690D01*
X136775000Y-88180250D01*
X136933750Y-88339000D01*
X138783000Y-88339000D01*
X138783000Y-86489750D01*
X139037000Y-86489750D01*
X139037000Y-88339000D01*
X140886250Y-88339000D01*
X141045000Y-88180250D01*
X141045000Y-86839690D01*
X140948327Y-86606301D01*
X140769698Y-86427673D01*
X140536309Y-86331000D01*
X139195750Y-86331000D01*
X139037000Y-86489750D01*
X138783000Y-86489750D01*
X138624250Y-86331000D01*
X137283691Y-86331000D01*
X137050302Y-86427673D01*
X136871673Y-86606301D01*
X136775000Y-86839690D01*
X136321599Y-86839690D01*
X136315591Y-86807763D01*
X136222073Y-86662433D01*
X136079381Y-86564936D01*
X135910000Y-86530635D01*
X132910000Y-86530635D01*
X132751763Y-86560409D01*
X132606433Y-86653927D01*
X132508936Y-86796619D01*
X132474635Y-86966000D01*
X131945365Y-86966000D01*
X131915591Y-86807763D01*
X131822073Y-86662433D01*
X131679381Y-86564936D01*
X131510000Y-86530635D01*
X128510000Y-86530635D01*
X128351763Y-86560409D01*
X128206433Y-86653927D01*
X128108936Y-86796619D01*
X128074635Y-86966000D01*
X117397000Y-86966000D01*
X117397000Y-85796603D01*
X119652752Y-85796603D01*
X119869543Y-86321275D01*
X120270614Y-86723047D01*
X120794907Y-86940752D01*
X121362603Y-86941248D01*
X121887275Y-86724457D01*
X122289047Y-86323386D01*
X122506752Y-85799093D01*
X122507248Y-85231397D01*
X122290457Y-84706725D01*
X121960589Y-84376280D01*
X122052927Y-84126532D01*
X121080000Y-83153605D01*
X120107073Y-84126532D01*
X120199532Y-84376608D01*
X119870953Y-84704614D01*
X119653248Y-85228907D01*
X119652752Y-85796603D01*
X117397000Y-85796603D01*
X117397000Y-79184000D01*
X119394635Y-79184000D01*
X119394635Y-81684000D01*
X119424409Y-81842237D01*
X119517927Y-81987567D01*
X119660619Y-82085064D01*
X119686255Y-82090255D01*
X119660613Y-82099736D01*
X119434092Y-82709461D01*
X119458144Y-83359460D01*
X119660613Y-83848264D01*
X119927468Y-83946927D01*
X120900395Y-82974000D01*
X120886253Y-82959858D01*
X121065858Y-82780253D01*
X121080000Y-82794395D01*
X121094143Y-82780253D01*
X121273748Y-82959858D01*
X121259605Y-82974000D01*
X122232532Y-83946927D01*
X122499387Y-83848264D01*
X122725908Y-83238539D01*
X122701856Y-82588540D01*
X122499387Y-82099736D01*
X122477442Y-82091622D01*
X122488237Y-82089591D01*
X122633567Y-81996073D01*
X122731064Y-81853381D01*
X122765365Y-81684000D01*
X122765365Y-79184000D01*
X122735591Y-79025763D01*
X122642073Y-78880433D01*
X122499381Y-78782936D01*
X122330000Y-78748635D01*
X119830000Y-78748635D01*
X119671763Y-78778409D01*
X119526433Y-78871927D01*
X119428936Y-79014619D01*
X119394635Y-79184000D01*
X117397000Y-79184000D01*
X117397000Y-67667469D01*
X119668794Y-67667469D01*
X119849427Y-68104635D01*
X120183606Y-68439397D01*
X120620456Y-68620793D01*
X120735918Y-68620894D01*
X121350512Y-69235488D01*
X121651252Y-69436436D01*
X122006000Y-69507000D01*
X134236024Y-69507000D01*
X146410226Y-81681202D01*
X146540211Y-81811414D01*
X146880799Y-81952839D01*
X147249583Y-81953161D01*
X147590417Y-81812331D01*
X147851414Y-81551789D01*
X147992839Y-81211201D01*
X147993161Y-80842417D01*
X147852331Y-80501583D01*
X147591789Y-80240586D01*
X147591401Y-80240425D01*
X138908559Y-71557583D01*
X170268839Y-71557583D01*
X170409669Y-71898417D01*
X170670211Y-72159414D01*
X171010799Y-72300839D01*
X171379583Y-72301161D01*
X171720417Y-72160331D01*
X171880026Y-72001000D01*
X179064288Y-72001000D01*
X179205000Y-72141712D01*
X179205000Y-91694000D01*
X179252728Y-91933943D01*
X179352325Y-92083000D01*
X179388644Y-92137356D01*
X181999000Y-94747712D01*
X181999000Y-100542407D01*
X181953161Y-100652799D01*
X181952839Y-101021583D01*
X182093669Y-101362417D01*
X182354211Y-101623414D01*
X182694799Y-101764839D01*
X183063583Y-101765161D01*
X183404417Y-101624331D01*
X183665414Y-101363789D01*
X183726277Y-101217215D01*
X183878211Y-101369414D01*
X184218799Y-101510839D01*
X184587583Y-101511161D01*
X184928417Y-101370331D01*
X185189414Y-101109789D01*
X185330839Y-100769201D01*
X185331161Y-100400417D01*
X185190331Y-100059583D01*
X184929789Y-99798586D01*
X184777000Y-99735142D01*
X184777000Y-94234000D01*
X184729273Y-93994058D01*
X184593356Y-93790644D01*
X181729000Y-90926288D01*
X181729000Y-84233461D01*
X184966092Y-84233461D01*
X184990144Y-84883460D01*
X185192613Y-85372264D01*
X185459468Y-85470927D01*
X186432395Y-84498000D01*
X185459468Y-83525073D01*
X185192613Y-83623736D01*
X184966092Y-84233461D01*
X181729000Y-84233461D01*
X181729000Y-70399593D01*
X181774839Y-70289201D01*
X181775161Y-69920417D01*
X181634331Y-69579583D01*
X181373789Y-69318586D01*
X181033201Y-69177161D01*
X180664417Y-69176839D01*
X180323583Y-69317669D01*
X180062586Y-69578211D01*
X179921161Y-69918799D01*
X179920839Y-70287583D01*
X180061669Y-70628417D01*
X180322211Y-70889414D01*
X180475000Y-70952858D01*
X180475000Y-91186000D01*
X180522728Y-91425943D01*
X180541514Y-91454058D01*
X180658644Y-91629356D01*
X183523000Y-94493712D01*
X183523000Y-100170002D01*
X183405789Y-100052586D01*
X183253000Y-99989142D01*
X183253000Y-94488000D01*
X183238823Y-94416727D01*
X183205273Y-94248058D01*
X183069356Y-94044644D01*
X180459000Y-91434288D01*
X180459000Y-71882000D01*
X180411272Y-71642057D01*
X180275356Y-71438644D01*
X179767356Y-70930644D01*
X179646039Y-70849583D01*
X179563943Y-70794728D01*
X179324000Y-70747000D01*
X171879927Y-70747000D01*
X171721789Y-70588586D01*
X171381201Y-70447161D01*
X171012417Y-70446839D01*
X170671583Y-70587669D01*
X170410586Y-70848211D01*
X170269161Y-71188799D01*
X170268839Y-71557583D01*
X138908559Y-71557583D01*
X135275488Y-67924512D01*
X134974748Y-67723564D01*
X134620000Y-67653000D01*
X122389976Y-67653000D01*
X122047107Y-67310131D01*
X122047206Y-67196531D01*
X121866573Y-66759365D01*
X121532394Y-66424603D01*
X121095544Y-66243207D01*
X120622531Y-66242794D01*
X120185365Y-66423427D01*
X119850603Y-66757606D01*
X119669207Y-67194456D01*
X119668794Y-67667469D01*
X117397000Y-67667469D01*
X117397000Y-64667469D01*
X119668794Y-64667469D01*
X119849427Y-65104635D01*
X120183606Y-65439397D01*
X120620456Y-65620793D01*
X121093469Y-65621206D01*
X121530635Y-65440573D01*
X121865397Y-65106394D01*
X122046793Y-64669544D01*
X122047206Y-64196531D01*
X121866573Y-63759365D01*
X121532394Y-63424603D01*
X121095544Y-63243207D01*
X120622531Y-63242794D01*
X120185365Y-63423427D01*
X119850603Y-63757606D01*
X119669207Y-64194456D01*
X119668794Y-64667469D01*
X117397000Y-64667469D01*
X117397000Y-61667469D01*
X119668794Y-61667469D01*
X119849427Y-62104635D01*
X120183606Y-62439397D01*
X120620456Y-62620793D01*
X121093469Y-62621206D01*
X121530635Y-62440573D01*
X121865397Y-62106394D01*
X122046793Y-61669544D01*
X122047206Y-61196531D01*
X121866573Y-60759365D01*
X121532394Y-60424603D01*
X121095544Y-60243207D01*
X120622531Y-60242794D01*
X120185365Y-60423427D01*
X119850603Y-60757606D01*
X119669207Y-61194456D01*
X119668794Y-61667469D01*
X117397000Y-61667469D01*
X117397000Y-58926897D01*
X183158779Y-58926897D01*
X183352781Y-59396417D01*
X183711693Y-59755957D01*
X184180875Y-59950778D01*
X184688897Y-59951221D01*
X185019124Y-59814774D01*
X185047673Y-59883698D01*
X185226301Y-60062327D01*
X185459690Y-60159000D01*
X186150250Y-60159000D01*
X186309000Y-60000250D01*
X186309000Y-58801000D01*
X186563000Y-58801000D01*
X186563000Y-60000250D01*
X186721750Y-60159000D01*
X187412310Y-60159000D01*
X187645699Y-60062327D01*
X187824327Y-59883698D01*
X187921000Y-59650309D01*
X187921000Y-58959750D01*
X187762250Y-58801000D01*
X186563000Y-58801000D01*
X186309000Y-58801000D01*
X186289000Y-58801000D01*
X186289000Y-58547000D01*
X186309000Y-58547000D01*
X186309000Y-57347750D01*
X186563000Y-57347750D01*
X186563000Y-58547000D01*
X187762250Y-58547000D01*
X187921000Y-58388250D01*
X187921000Y-57697691D01*
X187824327Y-57464302D01*
X187645699Y-57285673D01*
X187412310Y-57189000D01*
X186721750Y-57189000D01*
X186563000Y-57347750D01*
X186309000Y-57347750D01*
X186150250Y-57189000D01*
X185459690Y-57189000D01*
X185226301Y-57285673D01*
X185047673Y-57464302D01*
X185019056Y-57533390D01*
X184691125Y-57397222D01*
X184183103Y-57396779D01*
X183713583Y-57590781D01*
X183354043Y-57949693D01*
X183159222Y-58418875D01*
X183158779Y-58926897D01*
X117397000Y-58926897D01*
X117397000Y-53383000D01*
X188009000Y-53383000D01*
X188009000Y-73166412D01*
M02*
