G04 #@! TF.FileFunction,Soldermask,Top*
%FSLAX46Y46*%
G04 Gerber Fmt 4.6, Leading zero omitted, Abs format (unit mm)*
G04 Created by KiCad (PCBNEW 4.0.2+dfsg1-stable) date Po  3. jún 2019, 21:27:26 CEST*
%MOMM*%
G01*
G04 APERTURE LIST*
%ADD10C,0.100000*%
%ADD11O,2.200000X4.400000*%
%ADD12O,4.400000X2.200000*%
%ADD13C,1.924000*%
%ADD14R,2.900000X2.900000*%
%ADD15C,2.400000*%
%ADD16R,1.200100X2.200860*%
%ADD17R,1.700000X1.900000*%
%ADD18R,2.100000X2.100000*%
%ADD19C,2.100000*%
%ADD20R,2.400000X2.400000*%
%ADD21R,4.400000X2.100000*%
%ADD22O,4.400000X2.100000*%
%ADD23R,2.400000X2.100000*%
%ADD24R,1.000000X1.900000*%
%ADD25R,3.400000X3.400000*%
%ADD26R,1.900000X1.700000*%
%ADD27R,2.400000X4.400000*%
G04 APERTURE END LIST*
D10*
D11*
X169340000Y-72068000D03*
X166800000Y-72068000D03*
X164260000Y-72068000D03*
X161720000Y-72068000D03*
X159180000Y-72068000D03*
X156640000Y-72068000D03*
X154100000Y-72068000D03*
X151560000Y-72068000D03*
X151560000Y-89308000D03*
X154100000Y-89308000D03*
X156640000Y-89308000D03*
X159180000Y-89308000D03*
X161720000Y-89308000D03*
X164260000Y-89308000D03*
X166800000Y-89308000D03*
X169340000Y-89308000D03*
X171880000Y-89308000D03*
X174420000Y-89308000D03*
X176960000Y-89308000D03*
X179500000Y-89308000D03*
D12*
X183040000Y-87038000D03*
X183040000Y-84498000D03*
X183040000Y-81958000D03*
X183040000Y-79418000D03*
X183040000Y-76878000D03*
X183040000Y-74338000D03*
D13*
X120858000Y-61432000D03*
X120858000Y-64432000D03*
X120858000Y-67432000D03*
D14*
X121080000Y-80434000D03*
D15*
X121080000Y-82974000D03*
X121080000Y-85514000D03*
D13*
X134493000Y-124460000D03*
X134493000Y-127000000D03*
X134493000Y-129540000D03*
X134493000Y-132080000D03*
X134493000Y-134620000D03*
X134493000Y-137160000D03*
X142113000Y-137160000D03*
X142113000Y-134620000D03*
X142113000Y-132080000D03*
X142113000Y-129540000D03*
X142113000Y-127000000D03*
X142113000Y-124460000D03*
X121793000Y-124460000D03*
X121793000Y-127000000D03*
X121793000Y-129540000D03*
X121793000Y-132080000D03*
X121793000Y-134620000D03*
X121793000Y-137160000D03*
X129413000Y-137160000D03*
X129413000Y-134620000D03*
X129413000Y-132080000D03*
X129413000Y-129540000D03*
X129413000Y-127000000D03*
X129413000Y-124460000D03*
D16*
X178750000Y-107972860D03*
X176850000Y-107972860D03*
X177800000Y-110975140D03*
X167574000Y-107845860D03*
X165674000Y-107845860D03*
X166624000Y-110848140D03*
X159700000Y-111782860D03*
X157800000Y-111782860D03*
X158750000Y-114785140D03*
D17*
X183134000Y-68660000D03*
X183134000Y-65960000D03*
D18*
X186436000Y-58674000D03*
D19*
X184436000Y-58674000D03*
D20*
X186612000Y-74338000D03*
D15*
X186612000Y-76878000D03*
X186612000Y-79418000D03*
X186612000Y-81958000D03*
X186612000Y-84498000D03*
X186612000Y-87038000D03*
D16*
X186751000Y-112036860D03*
X184851000Y-112036860D03*
X185801000Y-115039140D03*
X120252000Y-111952860D03*
X118352000Y-111952860D03*
X119302000Y-114955140D03*
X183957000Y-107972860D03*
X182057000Y-107972860D03*
X183007000Y-110975140D03*
X181290000Y-111528860D03*
X179390000Y-111528860D03*
X180340000Y-114531140D03*
X165034000Y-111655860D03*
X163134000Y-111655860D03*
X164084000Y-114658140D03*
X156906000Y-108226860D03*
X155006000Y-108226860D03*
X155956000Y-111229140D03*
X153985000Y-112036860D03*
X152085000Y-112036860D03*
X153035000Y-115039140D03*
X151318000Y-108226860D03*
X149418000Y-108226860D03*
X150368000Y-111229140D03*
X148524000Y-112036860D03*
X146624000Y-112036860D03*
X147574000Y-115039140D03*
X145730000Y-108226860D03*
X143830000Y-108226860D03*
X144780000Y-111229140D03*
X142936000Y-112036860D03*
X141036000Y-112036860D03*
X141986000Y-115039140D03*
X140142000Y-108226860D03*
X138242000Y-108226860D03*
X139192000Y-111229140D03*
X137348000Y-112036860D03*
X135448000Y-112036860D03*
X136398000Y-115039140D03*
X131760000Y-112036860D03*
X129860000Y-112036860D03*
X130810000Y-115039140D03*
X128966000Y-108226860D03*
X127066000Y-108226860D03*
X128016000Y-111229140D03*
X126172000Y-112036860D03*
X124272000Y-112036860D03*
X125222000Y-115039140D03*
X123378000Y-108226860D03*
X121478000Y-108226860D03*
X122428000Y-111229140D03*
X134554000Y-108226860D03*
X132654000Y-108226860D03*
X133604000Y-111229140D03*
X175956000Y-111655860D03*
X174056000Y-111655860D03*
X175006000Y-114658140D03*
X173162000Y-107972860D03*
X171262000Y-107972860D03*
X172212000Y-110975140D03*
D13*
X172593000Y-124460000D03*
X172593000Y-127000000D03*
X172593000Y-129540000D03*
X172593000Y-132080000D03*
X172593000Y-134620000D03*
X172593000Y-137160000D03*
X180213000Y-137160000D03*
X180213000Y-134620000D03*
X180213000Y-132080000D03*
X180213000Y-129540000D03*
X180213000Y-127000000D03*
X180213000Y-124460000D03*
X147193000Y-124460000D03*
X147193000Y-127000000D03*
X147193000Y-129540000D03*
X147193000Y-132080000D03*
X147193000Y-134620000D03*
X147193000Y-137160000D03*
X154813000Y-137160000D03*
X154813000Y-134620000D03*
X154813000Y-132080000D03*
X154813000Y-129540000D03*
X154813000Y-127000000D03*
X154813000Y-124460000D03*
X159893000Y-124460000D03*
X159893000Y-127000000D03*
X159893000Y-129540000D03*
X159893000Y-132080000D03*
X159893000Y-134620000D03*
X159893000Y-137160000D03*
X167513000Y-137160000D03*
X167513000Y-134620000D03*
X167513000Y-132080000D03*
X167513000Y-129540000D03*
X167513000Y-127000000D03*
X167513000Y-124460000D03*
D16*
X162367000Y-107845860D03*
X160467000Y-107845860D03*
X161417000Y-110848140D03*
X170368000Y-111782860D03*
X168468000Y-111782860D03*
X169418000Y-114785140D03*
D21*
X178500000Y-67734000D03*
D22*
X178500000Y-65194000D03*
X178500000Y-62654000D03*
X178500000Y-60114000D03*
X178500000Y-57574000D03*
X178500000Y-55034000D03*
D23*
X129430000Y-118788000D03*
X125430000Y-118788000D03*
X144924000Y-118788000D03*
X140924000Y-118788000D03*
X157624000Y-118788000D03*
X153624000Y-118788000D03*
X171848000Y-118788000D03*
X167848000Y-118788000D03*
D24*
X124587000Y-103030000D03*
X125857000Y-103030000D03*
X127127000Y-103030000D03*
X128397000Y-103030000D03*
X129667000Y-103030000D03*
X130937000Y-103030000D03*
X132207000Y-103030000D03*
X133477000Y-103030000D03*
X133477000Y-97630000D03*
X132207000Y-97630000D03*
X130937000Y-97630000D03*
X129667000Y-97630000D03*
X128397000Y-97630000D03*
X127127000Y-97630000D03*
X125857000Y-97630000D03*
X124587000Y-97630000D03*
X147193000Y-102776000D03*
X148463000Y-102776000D03*
X149733000Y-102776000D03*
X151003000Y-102776000D03*
X152273000Y-102776000D03*
X153543000Y-102776000D03*
X154813000Y-102776000D03*
X156083000Y-102776000D03*
X156083000Y-97376000D03*
X154813000Y-97376000D03*
X153543000Y-97376000D03*
X152273000Y-97376000D03*
X151003000Y-97376000D03*
X149733000Y-97376000D03*
X148463000Y-97376000D03*
X147193000Y-97376000D03*
X170307000Y-102522000D03*
X171577000Y-102522000D03*
X172847000Y-102522000D03*
X174117000Y-102522000D03*
X175387000Y-102522000D03*
X176657000Y-102522000D03*
X177927000Y-102522000D03*
X179197000Y-102522000D03*
X179197000Y-97122000D03*
X177927000Y-97122000D03*
X176657000Y-97122000D03*
X175387000Y-97122000D03*
X174117000Y-97122000D03*
X172847000Y-97122000D03*
X171577000Y-97122000D03*
X170307000Y-97122000D03*
D25*
X138910000Y-88466000D03*
X134410000Y-88466000D03*
X130010000Y-88466000D03*
D26*
X148416000Y-83566000D03*
X145716000Y-83566000D03*
D20*
X148082000Y-88646000D03*
D15*
X145542000Y-88646000D03*
D27*
X138874000Y-55272000D03*
X125874000Y-55272000D03*
X135874000Y-80272000D03*
X128874000Y-80272000D03*
M02*
