M48
;DRILL file {KiCad 4.0.2+dfsg1-stable} date Po  3. jún 2019, 21:27:30 CEST
;FORMAT={-:-/ absolute / inch / decimal}
FMAT,2
INCH,TZ
T1C0.020
T2C0.030
T3C0.039
T4C0.039
%
G90
G05
M72
T1
X4.8869Y-5.1267
X4.8969Y-4.9867
X5.25Y-3.75
X5.33Y-4.07
X5.62Y-4.12
X5.64Y-3.87
X5.79Y-3.19
X5.89Y-3.95
X5.97Y-2.97
X5.99Y-3.95
X6.1Y-3.75
X6.11Y-3.95
X6.17Y-3.65
X6.2269Y-4.7867
X6.3Y-3.69
X6.36Y-3.76
X6.41Y-3.28
X6.48Y-3.84
X6.49Y-4.08
X6.53Y-3.87
X6.53Y-4.04
X6.56Y-2.96
X6.57Y-3.79
X6.59Y-3.87
X6.59Y-4.08
X6.71Y-4.79
X6.74Y-2.81
X6.84Y-2.37
X7.12Y-2.76
X7.14Y-4.03
X7.2Y-3.97
X7.2069Y-5.2067
X7.2069Y-5.3867
X7.26Y-3.96
T2
X4.7582Y-2.4186
X4.7582Y-2.5367
X4.7582Y-2.6548
X4.795Y-4.9
X4.795Y-5.
X4.795Y-5.1
X4.795Y-5.2
X4.795Y-5.3
X4.795Y-5.4
X5.095Y-4.9
X5.095Y-5.
X5.095Y-5.1
X5.095Y-5.2
X5.095Y-5.3
X5.095Y-5.4
X5.295Y-4.9
X5.295Y-5.
X5.295Y-5.1
X5.295Y-5.2
X5.295Y-5.3
X5.295Y-5.4
X5.595Y-4.9
X5.595Y-5.
X5.595Y-5.1
X5.595Y-5.2
X5.595Y-5.3
X5.595Y-5.4
X5.795Y-4.9
X5.795Y-5.
X5.795Y-5.1
X5.795Y-5.2
X5.795Y-5.3
X5.795Y-5.4
X6.095Y-4.9
X6.095Y-5.
X6.095Y-5.1
X6.095Y-5.2
X6.095Y-5.3
X6.095Y-5.4
X6.295Y-4.9
X6.295Y-5.
X6.295Y-5.1
X6.295Y-5.2
X6.295Y-5.3
X6.295Y-5.4
X6.595Y-4.9
X6.595Y-5.
X6.595Y-5.1
X6.595Y-5.2
X6.595Y-5.3
X6.595Y-5.4
X6.795Y-4.9
X6.795Y-5.
X6.795Y-5.1
X6.795Y-5.2
X6.795Y-5.3
X6.795Y-5.4
X7.095Y-4.9
X7.095Y-5.
X7.095Y-5.1
X7.095Y-5.2
X7.095Y-5.3
X7.095Y-5.4
T3
X4.7669Y-3.1667
X4.7669Y-3.2667
X4.7669Y-3.3667
X5.1185Y-3.4829
X5.2917Y-3.4829
X5.4689Y-3.4829
X7.2613Y-2.31
X7.34Y-2.31
X7.3469Y-2.9267
X7.3469Y-3.0267
X7.3469Y-3.1267
X7.3469Y-3.2267
X7.3469Y-3.3267
X7.3469Y-3.4267
T4
X5.73Y-3.49
X5.83Y-3.49
T0
M30
