G04 #@! TF.FileFunction,Copper,L2,Bot,Signal*
%FSLAX46Y46*%
G04 Gerber Fmt 4.6, Leading zero omitted, Abs format (unit mm)*
G04 Created by KiCad (PCBNEW 4.0.2+dfsg1-stable) date Pi  1. marec 2019, 16:05:38 CET*
%MOMM*%
G01*
G04 APERTURE LIST*
%ADD10C,0.100000*%
%ADD11R,2.000000X2.000000*%
%ADD12C,2.000000*%
%ADD13C,1.524000*%
%ADD14C,0.500000*%
G04 APERTURE END LIST*
D10*
D11*
X142240000Y-73660000D03*
D12*
X144780000Y-73660000D03*
X147320000Y-73660000D03*
X149860000Y-73660000D03*
X152400000Y-73660000D03*
D11*
X162560000Y-73660000D03*
D12*
X165100000Y-73660000D03*
X167640000Y-73660000D03*
X170180000Y-73660000D03*
X172720000Y-73660000D03*
D11*
X182880000Y-73660000D03*
D12*
X185420000Y-73660000D03*
X187960000Y-73660000D03*
X190500000Y-73660000D03*
X193040000Y-73660000D03*
D11*
X193040000Y-48260000D03*
D12*
X195580000Y-48260000D03*
X198120000Y-48260000D03*
X200660000Y-48260000D03*
X203200000Y-48260000D03*
X205740000Y-48260000D03*
X208280000Y-48260000D03*
D13*
X141520000Y-54290000D03*
X141520000Y-56830000D03*
X141520000Y-59370000D03*
X141520000Y-61910000D03*
X141520000Y-64450000D03*
X141520000Y-66990000D03*
X149140000Y-66990000D03*
X149140000Y-64450000D03*
X149140000Y-61910000D03*
X149140000Y-59370000D03*
X149140000Y-56830000D03*
X149140000Y-54290000D03*
X141520000Y-69530000D03*
X149140000Y-69530000D03*
X152020000Y-54290000D03*
X152020000Y-56830000D03*
X152020000Y-59370000D03*
X152020000Y-61910000D03*
X152020000Y-64450000D03*
X152020000Y-66990000D03*
X159640000Y-66990000D03*
X159640000Y-64450000D03*
X159640000Y-61910000D03*
X159640000Y-59370000D03*
X159640000Y-56830000D03*
X159640000Y-54290000D03*
X152020000Y-69530000D03*
X159640000Y-69530000D03*
X162520000Y-54290000D03*
X162520000Y-56830000D03*
X162520000Y-59370000D03*
X162520000Y-61910000D03*
X162520000Y-64450000D03*
X162520000Y-66990000D03*
X170140000Y-66990000D03*
X170140000Y-64450000D03*
X170140000Y-61910000D03*
X170140000Y-59370000D03*
X170140000Y-56830000D03*
X170140000Y-54290000D03*
X162520000Y-69530000D03*
X170140000Y-69530000D03*
X173020000Y-54290000D03*
X173020000Y-56830000D03*
X173020000Y-59370000D03*
X173020000Y-61910000D03*
X173020000Y-64450000D03*
X173020000Y-66990000D03*
X180640000Y-66990000D03*
X180640000Y-64450000D03*
X180640000Y-61910000D03*
X180640000Y-59370000D03*
X180640000Y-56830000D03*
X180640000Y-54290000D03*
X173020000Y-69530000D03*
X180640000Y-69530000D03*
X183520000Y-54290000D03*
X183520000Y-56830000D03*
X183520000Y-59370000D03*
X183520000Y-61910000D03*
X183520000Y-64450000D03*
X183520000Y-66990000D03*
X191140000Y-66990000D03*
X191140000Y-64450000D03*
X191140000Y-61910000D03*
X191140000Y-59370000D03*
X191140000Y-56830000D03*
X191140000Y-54290000D03*
X183520000Y-69530000D03*
X191140000Y-69530000D03*
D11*
X149860000Y-48260000D03*
D12*
X152400000Y-48260000D03*
X154940000Y-48260000D03*
X157480000Y-48260000D03*
X160020000Y-48260000D03*
D11*
X170180000Y-48260000D03*
D12*
X172720000Y-48260000D03*
X175260000Y-48260000D03*
X177800000Y-48260000D03*
X180340000Y-48260000D03*
D14*
X141520000Y-54290000D02*
X141310000Y-54290000D01*
X141310000Y-54290000D02*
X139600000Y-56000000D01*
X139600000Y-56000000D02*
X139600000Y-71020000D01*
X139600000Y-71020000D02*
X142240000Y-73660000D01*
X141520000Y-59370000D02*
X141520000Y-59520000D01*
X141520000Y-59520000D02*
X144780000Y-62780000D01*
X144780000Y-62780000D02*
X144780000Y-73660000D01*
X149140000Y-66990000D02*
X148810000Y-66990000D01*
X148810000Y-66990000D02*
X147500000Y-68300000D01*
X147500000Y-68300000D02*
X147500000Y-71300000D01*
X147500000Y-71300000D02*
X149860000Y-73660000D01*
X147320000Y-73660000D02*
X147320000Y-72720000D01*
X147320000Y-72720000D02*
X146100000Y-71500000D01*
X146100000Y-71500000D02*
X146100000Y-62410000D01*
X146100000Y-62410000D02*
X149140000Y-59370000D01*
X149140000Y-59370000D02*
X149140000Y-59460000D01*
X152020000Y-54290000D02*
X152020000Y-53420000D01*
X149860000Y-51260000D02*
X149860000Y-48260000D01*
X152020000Y-53420000D02*
X149860000Y-51260000D01*
X152020000Y-54290000D02*
X151690000Y-54290000D01*
X152020000Y-59370000D02*
X152020000Y-59180000D01*
X152020000Y-59180000D02*
X153600000Y-57600000D01*
X152400000Y-50400000D02*
X152400000Y-48260000D01*
X153600000Y-51600000D02*
X152400000Y-50400000D01*
X153600000Y-57600000D02*
X153600000Y-51600000D01*
X152020000Y-59370000D02*
X152430000Y-59370000D01*
X157480000Y-48260000D02*
X157480000Y-49720000D01*
X156400000Y-61210000D02*
X159640000Y-64450000D01*
X156400000Y-50800000D02*
X156400000Y-61210000D01*
X157480000Y-49720000D02*
X156400000Y-50800000D01*
X159640000Y-64450000D02*
X159150000Y-64450000D01*
X159640000Y-64450000D02*
X159250000Y-64450000D01*
X159640000Y-59370000D02*
X159640000Y-59240000D01*
X159640000Y-59240000D02*
X157600000Y-57200000D01*
X160020000Y-50180000D02*
X160020000Y-48260000D01*
X157600000Y-52600000D02*
X160020000Y-50180000D01*
X157600000Y-57200000D02*
X157600000Y-52600000D01*
X159640000Y-59370000D02*
X159370000Y-59370000D01*
X159640000Y-59370000D02*
X159640000Y-58840000D01*
X161200000Y-72300000D02*
X162560000Y-73660000D01*
X161200000Y-56200000D02*
X161200000Y-72300000D01*
X162520000Y-54290000D02*
X162520000Y-54880000D01*
X162520000Y-54880000D02*
X161200000Y-56200000D01*
X165100000Y-62100000D02*
X165100000Y-73660000D01*
X162520000Y-59370000D02*
X162520000Y-59520000D01*
X162520000Y-59520000D02*
X165100000Y-62100000D01*
X170180000Y-73660000D02*
X170180000Y-72780000D01*
X170180000Y-72780000D02*
X168200000Y-70800000D01*
X168200000Y-68930000D02*
X170140000Y-66990000D01*
X168200000Y-70800000D02*
X168200000Y-68930000D01*
X170140000Y-73620000D02*
X170180000Y-73660000D01*
X167640000Y-73660000D02*
X167640000Y-72740000D01*
X167640000Y-72740000D02*
X166600000Y-71700000D01*
X166600000Y-71700000D02*
X166600000Y-62910000D01*
X166600000Y-62910000D02*
X170140000Y-59370000D01*
X173020000Y-54290000D02*
X173020000Y-53820000D01*
X173020000Y-53820000D02*
X170180000Y-50980000D01*
X170180000Y-50980000D02*
X170180000Y-48260000D01*
X172720000Y-48260000D02*
X172720000Y-50420000D01*
X174900000Y-57490000D02*
X173020000Y-59370000D01*
X174900000Y-52600000D02*
X174900000Y-57490000D01*
X172720000Y-50420000D02*
X174900000Y-52600000D01*
X173020000Y-48560000D02*
X172720000Y-48260000D01*
X173020000Y-59370000D02*
X173020000Y-58780000D01*
X180640000Y-66990000D02*
X179290000Y-66990000D01*
X175260000Y-50260000D02*
X175260000Y-48260000D01*
X176200000Y-51200000D02*
X175260000Y-50260000D01*
X176200000Y-63900000D02*
X176200000Y-51200000D01*
X179290000Y-66990000D02*
X176200000Y-63900000D01*
X180640000Y-66990000D02*
X180390000Y-66990000D01*
X180640000Y-59370000D02*
X180640000Y-59340000D01*
X180640000Y-59340000D02*
X178900000Y-57600000D01*
X180340000Y-49660000D02*
X180340000Y-48260000D01*
X178900000Y-51100000D02*
X180340000Y-49660000D01*
X178900000Y-57600000D02*
X178900000Y-51100000D01*
X180640000Y-59370000D02*
X180640000Y-59240000D01*
X180340000Y-49260000D02*
X180340000Y-48260000D01*
X183520000Y-54290000D02*
X183510000Y-54290000D01*
X183510000Y-54290000D02*
X182000000Y-55800000D01*
X182000000Y-55800000D02*
X182000000Y-72780000D01*
X182000000Y-72780000D02*
X182880000Y-73660000D01*
X183520000Y-59370000D02*
X183770000Y-59370000D01*
X183770000Y-59370000D02*
X185420000Y-61020000D01*
X185420000Y-61020000D02*
X185420000Y-73660000D01*
X190500000Y-73660000D02*
X190500000Y-72500000D01*
X189300000Y-68830000D02*
X191140000Y-66990000D01*
X189300000Y-71300000D02*
X189300000Y-68830000D01*
X190500000Y-72500000D02*
X189300000Y-71300000D01*
X191140000Y-64450000D02*
X191140000Y-64540000D01*
X191140000Y-64540000D02*
X193040000Y-66440000D01*
X193040000Y-66440000D02*
X193040000Y-73660000D01*
X187960000Y-62550000D02*
X191140000Y-59370000D01*
X187960000Y-73660000D02*
X187960000Y-62550000D01*
X150600000Y-71860000D02*
X152400000Y-73660000D01*
X150600000Y-65600000D02*
X150600000Y-71860000D01*
X149140000Y-64450000D02*
X149450000Y-64450000D01*
X149450000Y-64450000D02*
X150600000Y-65600000D01*
X154940000Y-48260000D02*
X154940000Y-62290000D01*
X154940000Y-62290000D02*
X159640000Y-66990000D01*
X171800000Y-72740000D02*
X172720000Y-73660000D01*
X171800000Y-66400000D02*
X171800000Y-72740000D01*
X170140000Y-64450000D02*
X170140000Y-64740000D01*
X170140000Y-64740000D02*
X171800000Y-66400000D01*
X177800000Y-48260000D02*
X177800000Y-61610000D01*
X177800000Y-61610000D02*
X180640000Y-64450000D01*
X180640000Y-64450000D02*
X180050000Y-64450000D01*
M02*
