G04 #@! TF.FileFunction,Legend,Top*
%FSLAX46Y46*%
G04 Gerber Fmt 4.6, Leading zero omitted, Abs format (unit mm)*
G04 Created by KiCad (PCBNEW 4.0.2+dfsg1-stable) date Po  3. jún 2019, 21:27:26 CEST*
%MOMM*%
G01*
G04 APERTURE LIST*
%ADD10C,0.100000*%
%ADD11C,0.300000*%
%ADD12C,0.150000*%
G04 APERTURE END LIST*
D10*
D11*
X147736571Y-94501429D02*
X148450857Y-94501429D01*
X148450857Y-96001429D01*
X146950857Y-96001429D02*
X146665143Y-96001429D01*
X146522285Y-95930000D01*
X146379428Y-95787143D01*
X146308000Y-95501429D01*
X146308000Y-95001429D01*
X146379428Y-94715714D01*
X146522285Y-94572857D01*
X146665143Y-94501429D01*
X146950857Y-94501429D01*
X147093714Y-94572857D01*
X147236571Y-94715714D01*
X147308000Y-95001429D01*
X147308000Y-95501429D01*
X147236571Y-95787143D01*
X147093714Y-95930000D01*
X146950857Y-96001429D01*
X145807999Y-96001429D02*
X145450856Y-94501429D01*
X145165142Y-95572857D01*
X144879428Y-94501429D01*
X144522285Y-96001429D01*
X147665142Y-92887143D02*
X147450856Y-92815714D01*
X147379428Y-92744286D01*
X147307999Y-92601429D01*
X147307999Y-92387143D01*
X147379428Y-92244286D01*
X147450856Y-92172857D01*
X147593714Y-92101429D01*
X148165142Y-92101429D01*
X148165142Y-93601429D01*
X147665142Y-93601429D01*
X147522285Y-93530000D01*
X147450856Y-93458571D01*
X147379428Y-93315714D01*
X147379428Y-93172857D01*
X147450856Y-93030000D01*
X147522285Y-92958571D01*
X147665142Y-92887143D01*
X148165142Y-92887143D01*
X146736571Y-92530000D02*
X146022285Y-92530000D01*
X146879428Y-92101429D02*
X146379428Y-93601429D01*
X145879428Y-92101429D01*
X145593714Y-93601429D02*
X144736571Y-93601429D01*
X145165142Y-92101429D02*
X145165142Y-93601429D01*
X186550857Y-61948286D02*
X186622286Y-61876857D01*
X186836572Y-61805429D01*
X186979429Y-61805429D01*
X187193714Y-61876857D01*
X187336572Y-62019714D01*
X187408000Y-62162571D01*
X187479429Y-62448286D01*
X187479429Y-62662571D01*
X187408000Y-62948286D01*
X187336572Y-63091143D01*
X187193714Y-63234000D01*
X186979429Y-63305429D01*
X186836572Y-63305429D01*
X186622286Y-63234000D01*
X186550857Y-63162571D01*
X185622286Y-63305429D02*
X185336572Y-63305429D01*
X185193714Y-63234000D01*
X185050857Y-63091143D01*
X184979429Y-62805429D01*
X184979429Y-62305429D01*
X185050857Y-62019714D01*
X185193714Y-61876857D01*
X185336572Y-61805429D01*
X185622286Y-61805429D01*
X185765143Y-61876857D01*
X185908000Y-62019714D01*
X185979429Y-62305429D01*
X185979429Y-62805429D01*
X185908000Y-63091143D01*
X185765143Y-63234000D01*
X185622286Y-63305429D01*
X184336571Y-61805429D02*
X184336571Y-63305429D01*
X183479428Y-61805429D01*
X183479428Y-63305429D01*
X182765142Y-61805429D02*
X182765142Y-63305429D01*
X181907999Y-61805429D01*
X181907999Y-63305429D01*
D12*
X168070000Y-81958000D02*
X169340000Y-80688000D01*
X169340000Y-80688000D02*
X164260000Y-75608000D01*
X164260000Y-75608000D02*
X159180000Y-80688000D01*
X159180000Y-80688000D02*
X164260000Y-85768000D01*
X164260000Y-85768000D02*
X168070000Y-81958000D01*
X154100000Y-76878000D02*
X157910000Y-76878000D01*
X157910000Y-76878000D02*
X157910000Y-84498000D01*
X157910000Y-84498000D02*
X156640000Y-84498000D01*
X154100000Y-76878000D02*
X154100000Y-84498000D01*
X154100000Y-84498000D02*
X156640000Y-84498000D01*
X183310000Y-89578000D02*
X183310000Y-71798000D01*
X183310000Y-71798000D02*
X150290000Y-71798000D01*
X150290000Y-71798000D02*
X150290000Y-89578000D01*
X150290000Y-89578000D02*
X183310000Y-89578000D01*
X118858000Y-74432000D02*
X118858000Y-54432000D01*
X122858000Y-64432000D02*
X122858000Y-74432000D01*
X122858000Y-74432000D02*
X118858000Y-74432000D01*
X118858000Y-54432000D02*
X122858000Y-54432000D01*
X122858000Y-54432000D02*
X122858000Y-64432000D01*
X131953000Y-139700000D02*
X144653000Y-139700000D01*
X131953000Y-121920000D02*
X144653000Y-121920000D01*
X144653000Y-121920000D02*
X144653000Y-139700000D01*
X131953000Y-139700000D02*
X131953000Y-121920000D01*
X119253000Y-139700000D02*
X131953000Y-139700000D01*
X119253000Y-121920000D02*
X131953000Y-121920000D01*
X131953000Y-121920000D02*
X131953000Y-139700000D01*
X119253000Y-139700000D02*
X119253000Y-121920000D01*
X179299820Y-109423200D02*
X179299820Y-110124240D01*
X179299820Y-110124240D02*
X179050900Y-110124240D01*
X176500840Y-110124240D02*
X176300180Y-110124240D01*
X176300180Y-110124240D02*
X176300180Y-109423200D01*
X168123820Y-109296200D02*
X168123820Y-109997240D01*
X168123820Y-109997240D02*
X167874900Y-109997240D01*
X165324840Y-109997240D02*
X165124180Y-109997240D01*
X165124180Y-109997240D02*
X165124180Y-109296200D01*
X160249820Y-113233200D02*
X160249820Y-113934240D01*
X160249820Y-113934240D02*
X160000900Y-113934240D01*
X157450840Y-113934240D02*
X157250180Y-113934240D01*
X157250180Y-113934240D02*
X157250180Y-113233200D01*
X184009000Y-66710000D02*
X184009000Y-67910000D01*
X182259000Y-67910000D02*
X182259000Y-66710000D01*
D10*
X186436000Y-57674000D02*
X186436000Y-57674000D01*
X186436000Y-59674000D02*
X186436000Y-59674000D01*
X184175926Y-59316040D02*
G75*
G03X186436000Y-59674000I1260074J642040D01*
G01*
X184526961Y-59757351D02*
G75*
G03X186436000Y-59674000I909039J1083351D01*
G01*
X186120040Y-56794615D02*
G75*
G03X183436000Y-58674000I-684040J-1879385D01*
G01*
X186382294Y-57623034D02*
G75*
G03X184436000Y-57674000I-946294J-1050966D01*
G01*
D12*
X187300820Y-113487200D02*
X187300820Y-114188240D01*
X187300820Y-114188240D02*
X187051900Y-114188240D01*
X184501840Y-114188240D02*
X184301180Y-114188240D01*
X184301180Y-114188240D02*
X184301180Y-113487200D01*
X120801820Y-113403200D02*
X120801820Y-114104240D01*
X120801820Y-114104240D02*
X120552900Y-114104240D01*
X118002840Y-114104240D02*
X117802180Y-114104240D01*
X117802180Y-114104240D02*
X117802180Y-113403200D01*
X184506820Y-109423200D02*
X184506820Y-110124240D01*
X184506820Y-110124240D02*
X184257900Y-110124240D01*
X181707840Y-110124240D02*
X181507180Y-110124240D01*
X181507180Y-110124240D02*
X181507180Y-109423200D01*
X181839820Y-112979200D02*
X181839820Y-113680240D01*
X181839820Y-113680240D02*
X181590900Y-113680240D01*
X179040840Y-113680240D02*
X178840180Y-113680240D01*
X178840180Y-113680240D02*
X178840180Y-112979200D01*
X165583820Y-113106200D02*
X165583820Y-113807240D01*
X165583820Y-113807240D02*
X165334900Y-113807240D01*
X162784840Y-113807240D02*
X162584180Y-113807240D01*
X162584180Y-113807240D02*
X162584180Y-113106200D01*
X157455820Y-109677200D02*
X157455820Y-110378240D01*
X157455820Y-110378240D02*
X157206900Y-110378240D01*
X154656840Y-110378240D02*
X154456180Y-110378240D01*
X154456180Y-110378240D02*
X154456180Y-109677200D01*
X154534820Y-113487200D02*
X154534820Y-114188240D01*
X154534820Y-114188240D02*
X154285900Y-114188240D01*
X151735840Y-114188240D02*
X151535180Y-114188240D01*
X151535180Y-114188240D02*
X151535180Y-113487200D01*
X151867820Y-109677200D02*
X151867820Y-110378240D01*
X151867820Y-110378240D02*
X151618900Y-110378240D01*
X149068840Y-110378240D02*
X148868180Y-110378240D01*
X148868180Y-110378240D02*
X148868180Y-109677200D01*
X149073820Y-113487200D02*
X149073820Y-114188240D01*
X149073820Y-114188240D02*
X148824900Y-114188240D01*
X146274840Y-114188240D02*
X146074180Y-114188240D01*
X146074180Y-114188240D02*
X146074180Y-113487200D01*
X146279820Y-109677200D02*
X146279820Y-110378240D01*
X146279820Y-110378240D02*
X146030900Y-110378240D01*
X143480840Y-110378240D02*
X143280180Y-110378240D01*
X143280180Y-110378240D02*
X143280180Y-109677200D01*
X143485820Y-113487200D02*
X143485820Y-114188240D01*
X143485820Y-114188240D02*
X143236900Y-114188240D01*
X140686840Y-114188240D02*
X140486180Y-114188240D01*
X140486180Y-114188240D02*
X140486180Y-113487200D01*
X140691820Y-109677200D02*
X140691820Y-110378240D01*
X140691820Y-110378240D02*
X140442900Y-110378240D01*
X137892840Y-110378240D02*
X137692180Y-110378240D01*
X137692180Y-110378240D02*
X137692180Y-109677200D01*
X137897820Y-113487200D02*
X137897820Y-114188240D01*
X137897820Y-114188240D02*
X137648900Y-114188240D01*
X135098840Y-114188240D02*
X134898180Y-114188240D01*
X134898180Y-114188240D02*
X134898180Y-113487200D01*
X132309820Y-113487200D02*
X132309820Y-114188240D01*
X132309820Y-114188240D02*
X132060900Y-114188240D01*
X129510840Y-114188240D02*
X129310180Y-114188240D01*
X129310180Y-114188240D02*
X129310180Y-113487200D01*
X129515820Y-109677200D02*
X129515820Y-110378240D01*
X129515820Y-110378240D02*
X129266900Y-110378240D01*
X126716840Y-110378240D02*
X126516180Y-110378240D01*
X126516180Y-110378240D02*
X126516180Y-109677200D01*
X126721820Y-113487200D02*
X126721820Y-114188240D01*
X126721820Y-114188240D02*
X126472900Y-114188240D01*
X123922840Y-114188240D02*
X123722180Y-114188240D01*
X123722180Y-114188240D02*
X123722180Y-113487200D01*
X123927820Y-109677200D02*
X123927820Y-110378240D01*
X123927820Y-110378240D02*
X123678900Y-110378240D01*
X121128840Y-110378240D02*
X120928180Y-110378240D01*
X120928180Y-110378240D02*
X120928180Y-109677200D01*
X135103820Y-109677200D02*
X135103820Y-110378240D01*
X135103820Y-110378240D02*
X134854900Y-110378240D01*
X132304840Y-110378240D02*
X132104180Y-110378240D01*
X132104180Y-110378240D02*
X132104180Y-109677200D01*
X176505820Y-113106200D02*
X176505820Y-113807240D01*
X176505820Y-113807240D02*
X176256900Y-113807240D01*
X173706840Y-113807240D02*
X173506180Y-113807240D01*
X173506180Y-113807240D02*
X173506180Y-113106200D01*
X173711820Y-109423200D02*
X173711820Y-110124240D01*
X173711820Y-110124240D02*
X173462900Y-110124240D01*
X170912840Y-110124240D02*
X170712180Y-110124240D01*
X170712180Y-110124240D02*
X170712180Y-109423200D01*
X170053000Y-139700000D02*
X182753000Y-139700000D01*
X170053000Y-121920000D02*
X182753000Y-121920000D01*
X182753000Y-121920000D02*
X182753000Y-139700000D01*
X170053000Y-139700000D02*
X170053000Y-121920000D01*
X144653000Y-139700000D02*
X157353000Y-139700000D01*
X144653000Y-121920000D02*
X157353000Y-121920000D01*
X157353000Y-121920000D02*
X157353000Y-139700000D01*
X144653000Y-139700000D02*
X144653000Y-121920000D01*
X157353000Y-139700000D02*
X170053000Y-139700000D01*
X157353000Y-121920000D02*
X170053000Y-121920000D01*
X170053000Y-121920000D02*
X170053000Y-139700000D01*
X157353000Y-139700000D02*
X157353000Y-121920000D01*
X162916820Y-109296200D02*
X162916820Y-109997240D01*
X162916820Y-109997240D02*
X162667900Y-109997240D01*
X160117840Y-109997240D02*
X159917180Y-109997240D01*
X159917180Y-109997240D02*
X159917180Y-109296200D01*
X170917820Y-113233200D02*
X170917820Y-113934240D01*
X170917820Y-113934240D02*
X170668900Y-113934240D01*
X168118840Y-113934240D02*
X167918180Y-113934240D01*
X167918180Y-113934240D02*
X167918180Y-113233200D01*
X178738000Y-69258000D02*
X178738000Y-53256000D01*
X141908000Y-54018000D02*
X141908000Y-53256000D01*
X141908000Y-53256000D02*
X178738000Y-53256000D01*
X178738000Y-69258000D02*
X141908000Y-69258000D01*
X141908000Y-69258000D02*
X141908000Y-54018000D01*
X126430000Y-117713000D02*
X128430000Y-117713000D01*
X128430000Y-119863000D02*
X126430000Y-119863000D01*
X141924000Y-117713000D02*
X143924000Y-117713000D01*
X143924000Y-119863000D02*
X141924000Y-119863000D01*
X154624000Y-117713000D02*
X156624000Y-117713000D01*
X156624000Y-119863000D02*
X154624000Y-119863000D01*
X168848000Y-117713000D02*
X170848000Y-117713000D01*
X170848000Y-119863000D02*
X168848000Y-119863000D01*
X123957000Y-102405000D02*
X124062000Y-102405000D01*
X123957000Y-98255000D02*
X124062000Y-98255000D01*
X134107000Y-98255000D02*
X134002000Y-98255000D01*
X134107000Y-102405000D02*
X134002000Y-102405000D01*
X123957000Y-102405000D02*
X123957000Y-98255000D01*
X134107000Y-102405000D02*
X134107000Y-98255000D01*
X124062000Y-102405000D02*
X124062000Y-103780000D01*
X146563000Y-102151000D02*
X146668000Y-102151000D01*
X146563000Y-98001000D02*
X146668000Y-98001000D01*
X156713000Y-98001000D02*
X156608000Y-98001000D01*
X156713000Y-102151000D02*
X156608000Y-102151000D01*
X146563000Y-102151000D02*
X146563000Y-98001000D01*
X156713000Y-102151000D02*
X156713000Y-98001000D01*
X146668000Y-102151000D02*
X146668000Y-103526000D01*
X169677000Y-101897000D02*
X169782000Y-101897000D01*
X169677000Y-97747000D02*
X169782000Y-97747000D01*
X179827000Y-97747000D02*
X179722000Y-97747000D01*
X179827000Y-101897000D02*
X179722000Y-101897000D01*
X169677000Y-101897000D02*
X169677000Y-97747000D01*
X179827000Y-101897000D02*
X179827000Y-97747000D01*
X169782000Y-101897000D02*
X169782000Y-103272000D01*
X146466000Y-82691000D02*
X147666000Y-82691000D01*
X147666000Y-84441000D02*
X146466000Y-84441000D01*
X148281000Y-87332000D02*
X148281000Y-87532000D01*
X148281000Y-89926000D02*
X148281000Y-89746000D01*
X145053256Y-89615643D02*
G75*
G03X148281000Y-89932000I1727744J1003643D01*
G01*
X145728994Y-89745068D02*
G75*
G03X147832000Y-89746000I1052006J1133068D01*
G01*
X148268220Y-87305274D02*
G75*
G03X145031000Y-87652000I-1497220J-1306726D01*
G01*
X147794889Y-87532747D02*
G75*
G03X145747000Y-87552000I-1013889J-1079253D01*
G01*
D10*
X123874000Y-54272000D02*
X123874000Y-81272000D01*
X123874000Y-81272000D02*
X136874000Y-81272000D01*
X136874000Y-81272000D02*
X140874000Y-81272000D01*
X140874000Y-81272000D02*
X140874000Y-54272000D01*
X140874000Y-54272000D02*
X123874000Y-54272000D01*
D12*
X177468095Y-75060381D02*
X177468095Y-75869905D01*
X177515714Y-75965143D01*
X177563333Y-76012762D01*
X177658571Y-76060381D01*
X177849048Y-76060381D01*
X177944286Y-76012762D01*
X177991905Y-75965143D01*
X178039524Y-75869905D01*
X178039524Y-75060381D01*
X178944286Y-75393714D02*
X178944286Y-76060381D01*
X178706190Y-75012762D02*
X178468095Y-75727048D01*
X179087143Y-75727048D01*
X121810381Y-65193905D02*
X122619905Y-65193905D01*
X122715143Y-65146286D01*
X122762762Y-65098667D01*
X122810381Y-65003429D01*
X122810381Y-64812952D01*
X122762762Y-64717714D01*
X122715143Y-64670095D01*
X122619905Y-64622476D01*
X121810381Y-64622476D01*
X121810381Y-64241524D02*
X121810381Y-63574857D01*
X122810381Y-64003429D01*
X117492381Y-83735905D02*
X118301905Y-83735905D01*
X118397143Y-83688286D01*
X118444762Y-83640667D01*
X118492381Y-83545429D01*
X118492381Y-83354952D01*
X118444762Y-83259714D01*
X118397143Y-83212095D01*
X118301905Y-83164476D01*
X117492381Y-83164476D01*
X117587619Y-82735905D02*
X117540000Y-82688286D01*
X117492381Y-82593048D01*
X117492381Y-82354952D01*
X117540000Y-82259714D01*
X117587619Y-82212095D01*
X117682857Y-82164476D01*
X117778095Y-82164476D01*
X117920952Y-82212095D01*
X118492381Y-82783524D01*
X118492381Y-82164476D01*
X138763476Y-122372381D02*
X138763476Y-121372381D01*
X139096810Y-122086667D01*
X139430143Y-121372381D01*
X139430143Y-122372381D01*
X139858714Y-121467619D02*
X139906333Y-121420000D01*
X140001571Y-121372381D01*
X140239667Y-121372381D01*
X140334905Y-121420000D01*
X140382524Y-121467619D01*
X140430143Y-121562857D01*
X140430143Y-121658095D01*
X140382524Y-121800952D01*
X139811095Y-122372381D01*
X140430143Y-122372381D01*
X126063476Y-122372381D02*
X126063476Y-121372381D01*
X126396810Y-122086667D01*
X126730143Y-121372381D01*
X126730143Y-122372381D01*
X127730143Y-122372381D02*
X127158714Y-122372381D01*
X127444428Y-122372381D02*
X127444428Y-121372381D01*
X127349190Y-121515238D01*
X127253952Y-121610476D01*
X127158714Y-121658095D01*
X177157143Y-113641143D02*
X177109524Y-113688762D01*
X176966667Y-113736381D01*
X176871429Y-113736381D01*
X176728571Y-113688762D01*
X176633333Y-113593524D01*
X176585714Y-113498286D01*
X176538095Y-113307810D01*
X176538095Y-113164952D01*
X176585714Y-112974476D01*
X176633333Y-112879238D01*
X176728571Y-112784000D01*
X176871429Y-112736381D01*
X176966667Y-112736381D01*
X177109524Y-112784000D01*
X177157143Y-112831619D01*
X177538095Y-112831619D02*
X177585714Y-112784000D01*
X177680952Y-112736381D01*
X177919048Y-112736381D01*
X178014286Y-112784000D01*
X178061905Y-112831619D01*
X178109524Y-112926857D01*
X178109524Y-113022095D01*
X178061905Y-113164952D01*
X177490476Y-113736381D01*
X178109524Y-113736381D01*
X178490476Y-112831619D02*
X178538095Y-112784000D01*
X178633333Y-112736381D01*
X178871429Y-112736381D01*
X178966667Y-112784000D01*
X179014286Y-112831619D01*
X179061905Y-112926857D01*
X179061905Y-113022095D01*
X179014286Y-113164952D01*
X178442857Y-113736381D01*
X179061905Y-113736381D01*
X165981143Y-113514143D02*
X165933524Y-113561762D01*
X165790667Y-113609381D01*
X165695429Y-113609381D01*
X165552571Y-113561762D01*
X165457333Y-113466524D01*
X165409714Y-113371286D01*
X165362095Y-113180810D01*
X165362095Y-113037952D01*
X165409714Y-112847476D01*
X165457333Y-112752238D01*
X165552571Y-112657000D01*
X165695429Y-112609381D01*
X165790667Y-112609381D01*
X165933524Y-112657000D01*
X165981143Y-112704619D01*
X166933524Y-113609381D02*
X166362095Y-113609381D01*
X166647809Y-113609381D02*
X166647809Y-112609381D01*
X166552571Y-112752238D01*
X166457333Y-112847476D01*
X166362095Y-112895095D01*
X167504952Y-113037952D02*
X167409714Y-112990333D01*
X167362095Y-112942714D01*
X167314476Y-112847476D01*
X167314476Y-112799857D01*
X167362095Y-112704619D01*
X167409714Y-112657000D01*
X167504952Y-112609381D01*
X167695429Y-112609381D01*
X167790667Y-112657000D01*
X167838286Y-112704619D01*
X167885905Y-112799857D01*
X167885905Y-112847476D01*
X167838286Y-112942714D01*
X167790667Y-112990333D01*
X167695429Y-113037952D01*
X167504952Y-113037952D01*
X167409714Y-113085571D01*
X167362095Y-113133190D01*
X167314476Y-113228429D01*
X167314476Y-113418905D01*
X167362095Y-113514143D01*
X167409714Y-113561762D01*
X167504952Y-113609381D01*
X167695429Y-113609381D01*
X167790667Y-113561762D01*
X167838286Y-113514143D01*
X167885905Y-113418905D01*
X167885905Y-113228429D01*
X167838286Y-113133190D01*
X167790667Y-113085571D01*
X167695429Y-113037952D01*
X158107143Y-117451143D02*
X158059524Y-117498762D01*
X157916667Y-117546381D01*
X157821429Y-117546381D01*
X157678571Y-117498762D01*
X157583333Y-117403524D01*
X157535714Y-117308286D01*
X157488095Y-117117810D01*
X157488095Y-116974952D01*
X157535714Y-116784476D01*
X157583333Y-116689238D01*
X157678571Y-116594000D01*
X157821429Y-116546381D01*
X157916667Y-116546381D01*
X158059524Y-116594000D01*
X158107143Y-116641619D01*
X159059524Y-117546381D02*
X158488095Y-117546381D01*
X158773809Y-117546381D02*
X158773809Y-116546381D01*
X158678571Y-116689238D01*
X158583333Y-116784476D01*
X158488095Y-116832095D01*
X159964286Y-116546381D02*
X159488095Y-116546381D01*
X159440476Y-117022571D01*
X159488095Y-116974952D01*
X159583333Y-116927333D01*
X159821429Y-116927333D01*
X159916667Y-116974952D01*
X159964286Y-117022571D01*
X160011905Y-117117810D01*
X160011905Y-117355905D01*
X159964286Y-117451143D01*
X159916667Y-117498762D01*
X159821429Y-117546381D01*
X159583333Y-117546381D01*
X159488095Y-117498762D01*
X159440476Y-117451143D01*
X181486381Y-69214762D02*
X181010190Y-69548096D01*
X181486381Y-69786191D02*
X180486381Y-69786191D01*
X180486381Y-69405238D01*
X180534000Y-69310000D01*
X180581619Y-69262381D01*
X180676857Y-69214762D01*
X180819714Y-69214762D01*
X180914952Y-69262381D01*
X180962571Y-69310000D01*
X181010190Y-69405238D01*
X181010190Y-69786191D01*
X181581619Y-69024286D02*
X181581619Y-68262381D01*
X181486381Y-67548095D02*
X181486381Y-68024286D01*
X180486381Y-68024286D01*
X180962571Y-67214762D02*
X180962571Y-66881428D01*
X181486381Y-66738571D02*
X181486381Y-67214762D01*
X180486381Y-67214762D01*
X180486381Y-66738571D01*
X181486381Y-66310000D02*
X180486381Y-66310000D01*
X180486381Y-66071905D01*
X180534000Y-65929047D01*
X180629238Y-65833809D01*
X180724476Y-65786190D01*
X180914952Y-65738571D01*
X181057810Y-65738571D01*
X181248286Y-65786190D01*
X181343524Y-65833809D01*
X181438762Y-65929047D01*
X181486381Y-66071905D01*
X181486381Y-66310000D01*
X180581619Y-65357619D02*
X180534000Y-65310000D01*
X180486381Y-65214762D01*
X180486381Y-64976666D01*
X180534000Y-64881428D01*
X180581619Y-64833809D01*
X180676857Y-64786190D01*
X180772095Y-64786190D01*
X180914952Y-64833809D01*
X181486381Y-65405238D01*
X181486381Y-64786190D01*
X184697905Y-56126381D02*
X184697905Y-55126381D01*
X184936000Y-55126381D01*
X185078858Y-55174000D01*
X185174096Y-55269238D01*
X185221715Y-55364476D01*
X185269334Y-55554952D01*
X185269334Y-55697810D01*
X185221715Y-55888286D01*
X185174096Y-55983524D01*
X185078858Y-56078762D01*
X184936000Y-56126381D01*
X184697905Y-56126381D01*
X186221715Y-56126381D02*
X185650286Y-56126381D01*
X185936000Y-56126381D02*
X185936000Y-55126381D01*
X185840762Y-55269238D01*
X185745524Y-55364476D01*
X185650286Y-55412095D01*
X187174095Y-58126381D02*
X187174095Y-57126381D01*
X187745524Y-58126381D02*
X187316952Y-57554952D01*
X187745524Y-57126381D02*
X187174095Y-57697810D01*
X185158143Y-117705143D02*
X185110524Y-117752762D01*
X184967667Y-117800381D01*
X184872429Y-117800381D01*
X184729571Y-117752762D01*
X184634333Y-117657524D01*
X184586714Y-117562286D01*
X184539095Y-117371810D01*
X184539095Y-117228952D01*
X184586714Y-117038476D01*
X184634333Y-116943238D01*
X184729571Y-116848000D01*
X184872429Y-116800381D01*
X184967667Y-116800381D01*
X185110524Y-116848000D01*
X185158143Y-116895619D01*
X185539095Y-116895619D02*
X185586714Y-116848000D01*
X185681952Y-116800381D01*
X185920048Y-116800381D01*
X186015286Y-116848000D01*
X186062905Y-116895619D01*
X186110524Y-116990857D01*
X186110524Y-117086095D01*
X186062905Y-117228952D01*
X185491476Y-117800381D01*
X186110524Y-117800381D01*
X187015286Y-116800381D02*
X186539095Y-116800381D01*
X186491476Y-117276571D01*
X186539095Y-117228952D01*
X186634333Y-117181333D01*
X186872429Y-117181333D01*
X186967667Y-117228952D01*
X187015286Y-117276571D01*
X187062905Y-117371810D01*
X187062905Y-117609905D01*
X187015286Y-117705143D01*
X186967667Y-117752762D01*
X186872429Y-117800381D01*
X186634333Y-117800381D01*
X186539095Y-117752762D01*
X186491476Y-117705143D01*
X119135334Y-117621143D02*
X119087715Y-117668762D01*
X118944858Y-117716381D01*
X118849620Y-117716381D01*
X118706762Y-117668762D01*
X118611524Y-117573524D01*
X118563905Y-117478286D01*
X118516286Y-117287810D01*
X118516286Y-117144952D01*
X118563905Y-116954476D01*
X118611524Y-116859238D01*
X118706762Y-116764000D01*
X118849620Y-116716381D01*
X118944858Y-116716381D01*
X119087715Y-116764000D01*
X119135334Y-116811619D01*
X120087715Y-117716381D02*
X119516286Y-117716381D01*
X119802000Y-117716381D02*
X119802000Y-116716381D01*
X119706762Y-116859238D01*
X119611524Y-116954476D01*
X119516286Y-117002095D01*
X182364143Y-113641143D02*
X182316524Y-113688762D01*
X182173667Y-113736381D01*
X182078429Y-113736381D01*
X181935571Y-113688762D01*
X181840333Y-113593524D01*
X181792714Y-113498286D01*
X181745095Y-113307810D01*
X181745095Y-113164952D01*
X181792714Y-112974476D01*
X181840333Y-112879238D01*
X181935571Y-112784000D01*
X182078429Y-112736381D01*
X182173667Y-112736381D01*
X182316524Y-112784000D01*
X182364143Y-112831619D01*
X182745095Y-112831619D02*
X182792714Y-112784000D01*
X182887952Y-112736381D01*
X183126048Y-112736381D01*
X183221286Y-112784000D01*
X183268905Y-112831619D01*
X183316524Y-112926857D01*
X183316524Y-113022095D01*
X183268905Y-113164952D01*
X182697476Y-113736381D01*
X183316524Y-113736381D01*
X184173667Y-113069714D02*
X184173667Y-113736381D01*
X183935571Y-112688762D02*
X183697476Y-113403048D01*
X184316524Y-113403048D01*
X179697143Y-117197143D02*
X179649524Y-117244762D01*
X179506667Y-117292381D01*
X179411429Y-117292381D01*
X179268571Y-117244762D01*
X179173333Y-117149524D01*
X179125714Y-117054286D01*
X179078095Y-116863810D01*
X179078095Y-116720952D01*
X179125714Y-116530476D01*
X179173333Y-116435238D01*
X179268571Y-116340000D01*
X179411429Y-116292381D01*
X179506667Y-116292381D01*
X179649524Y-116340000D01*
X179697143Y-116387619D01*
X180078095Y-116387619D02*
X180125714Y-116340000D01*
X180220952Y-116292381D01*
X180459048Y-116292381D01*
X180554286Y-116340000D01*
X180601905Y-116387619D01*
X180649524Y-116482857D01*
X180649524Y-116578095D01*
X180601905Y-116720952D01*
X180030476Y-117292381D01*
X180649524Y-117292381D01*
X180982857Y-116292381D02*
X181601905Y-116292381D01*
X181268571Y-116673333D01*
X181411429Y-116673333D01*
X181506667Y-116720952D01*
X181554286Y-116768571D01*
X181601905Y-116863810D01*
X181601905Y-117101905D01*
X181554286Y-117197143D01*
X181506667Y-117244762D01*
X181411429Y-117292381D01*
X181125714Y-117292381D01*
X181030476Y-117244762D01*
X180982857Y-117197143D01*
X163441143Y-117324143D02*
X163393524Y-117371762D01*
X163250667Y-117419381D01*
X163155429Y-117419381D01*
X163012571Y-117371762D01*
X162917333Y-117276524D01*
X162869714Y-117181286D01*
X162822095Y-116990810D01*
X162822095Y-116847952D01*
X162869714Y-116657476D01*
X162917333Y-116562238D01*
X163012571Y-116467000D01*
X163155429Y-116419381D01*
X163250667Y-116419381D01*
X163393524Y-116467000D01*
X163441143Y-116514619D01*
X164393524Y-117419381D02*
X163822095Y-117419381D01*
X164107809Y-117419381D02*
X164107809Y-116419381D01*
X164012571Y-116562238D01*
X163917333Y-116657476D01*
X163822095Y-116705095D01*
X164726857Y-116419381D02*
X165393524Y-116419381D01*
X164964952Y-117419381D01*
X155313143Y-113895143D02*
X155265524Y-113942762D01*
X155122667Y-113990381D01*
X155027429Y-113990381D01*
X154884571Y-113942762D01*
X154789333Y-113847524D01*
X154741714Y-113752286D01*
X154694095Y-113561810D01*
X154694095Y-113418952D01*
X154741714Y-113228476D01*
X154789333Y-113133238D01*
X154884571Y-113038000D01*
X155027429Y-112990381D01*
X155122667Y-112990381D01*
X155265524Y-113038000D01*
X155313143Y-113085619D01*
X156265524Y-113990381D02*
X155694095Y-113990381D01*
X155979809Y-113990381D02*
X155979809Y-112990381D01*
X155884571Y-113133238D01*
X155789333Y-113228476D01*
X155694095Y-113276095D01*
X157122667Y-113323714D02*
X157122667Y-113990381D01*
X156884571Y-112942762D02*
X156646476Y-113657048D01*
X157265524Y-113657048D01*
X152392143Y-117705143D02*
X152344524Y-117752762D01*
X152201667Y-117800381D01*
X152106429Y-117800381D01*
X151963571Y-117752762D01*
X151868333Y-117657524D01*
X151820714Y-117562286D01*
X151773095Y-117371810D01*
X151773095Y-117228952D01*
X151820714Y-117038476D01*
X151868333Y-116943238D01*
X151963571Y-116848000D01*
X152106429Y-116800381D01*
X152201667Y-116800381D01*
X152344524Y-116848000D01*
X152392143Y-116895619D01*
X153344524Y-117800381D02*
X152773095Y-117800381D01*
X153058809Y-117800381D02*
X153058809Y-116800381D01*
X152963571Y-116943238D01*
X152868333Y-117038476D01*
X152773095Y-117086095D01*
X153677857Y-116800381D02*
X154296905Y-116800381D01*
X153963571Y-117181333D01*
X154106429Y-117181333D01*
X154201667Y-117228952D01*
X154249286Y-117276571D01*
X154296905Y-117371810D01*
X154296905Y-117609905D01*
X154249286Y-117705143D01*
X154201667Y-117752762D01*
X154106429Y-117800381D01*
X153820714Y-117800381D01*
X153725476Y-117752762D01*
X153677857Y-117705143D01*
X149725143Y-113895143D02*
X149677524Y-113942762D01*
X149534667Y-113990381D01*
X149439429Y-113990381D01*
X149296571Y-113942762D01*
X149201333Y-113847524D01*
X149153714Y-113752286D01*
X149106095Y-113561810D01*
X149106095Y-113418952D01*
X149153714Y-113228476D01*
X149201333Y-113133238D01*
X149296571Y-113038000D01*
X149439429Y-112990381D01*
X149534667Y-112990381D01*
X149677524Y-113038000D01*
X149725143Y-113085619D01*
X150677524Y-113990381D02*
X150106095Y-113990381D01*
X150391809Y-113990381D02*
X150391809Y-112990381D01*
X150296571Y-113133238D01*
X150201333Y-113228476D01*
X150106095Y-113276095D01*
X151058476Y-113085619D02*
X151106095Y-113038000D01*
X151201333Y-112990381D01*
X151439429Y-112990381D01*
X151534667Y-113038000D01*
X151582286Y-113085619D01*
X151629905Y-113180857D01*
X151629905Y-113276095D01*
X151582286Y-113418952D01*
X151010857Y-113990381D01*
X151629905Y-113990381D01*
X146931143Y-117705143D02*
X146883524Y-117752762D01*
X146740667Y-117800381D01*
X146645429Y-117800381D01*
X146502571Y-117752762D01*
X146407333Y-117657524D01*
X146359714Y-117562286D01*
X146312095Y-117371810D01*
X146312095Y-117228952D01*
X146359714Y-117038476D01*
X146407333Y-116943238D01*
X146502571Y-116848000D01*
X146645429Y-116800381D01*
X146740667Y-116800381D01*
X146883524Y-116848000D01*
X146931143Y-116895619D01*
X147883524Y-117800381D02*
X147312095Y-117800381D01*
X147597809Y-117800381D02*
X147597809Y-116800381D01*
X147502571Y-116943238D01*
X147407333Y-117038476D01*
X147312095Y-117086095D01*
X148835905Y-117800381D02*
X148264476Y-117800381D01*
X148550190Y-117800381D02*
X148550190Y-116800381D01*
X148454952Y-116943238D01*
X148359714Y-117038476D01*
X148264476Y-117086095D01*
X144137143Y-113895143D02*
X144089524Y-113942762D01*
X143946667Y-113990381D01*
X143851429Y-113990381D01*
X143708571Y-113942762D01*
X143613333Y-113847524D01*
X143565714Y-113752286D01*
X143518095Y-113561810D01*
X143518095Y-113418952D01*
X143565714Y-113228476D01*
X143613333Y-113133238D01*
X143708571Y-113038000D01*
X143851429Y-112990381D01*
X143946667Y-112990381D01*
X144089524Y-113038000D01*
X144137143Y-113085619D01*
X145089524Y-113990381D02*
X144518095Y-113990381D01*
X144803809Y-113990381D02*
X144803809Y-112990381D01*
X144708571Y-113133238D01*
X144613333Y-113228476D01*
X144518095Y-113276095D01*
X145708571Y-112990381D02*
X145803810Y-112990381D01*
X145899048Y-113038000D01*
X145946667Y-113085619D01*
X145994286Y-113180857D01*
X146041905Y-113371333D01*
X146041905Y-113609429D01*
X145994286Y-113799905D01*
X145946667Y-113895143D01*
X145899048Y-113942762D01*
X145803810Y-113990381D01*
X145708571Y-113990381D01*
X145613333Y-113942762D01*
X145565714Y-113895143D01*
X145518095Y-113799905D01*
X145470476Y-113609429D01*
X145470476Y-113371333D01*
X145518095Y-113180857D01*
X145565714Y-113085619D01*
X145613333Y-113038000D01*
X145708571Y-112990381D01*
X141819334Y-117705143D02*
X141771715Y-117752762D01*
X141628858Y-117800381D01*
X141533620Y-117800381D01*
X141390762Y-117752762D01*
X141295524Y-117657524D01*
X141247905Y-117562286D01*
X141200286Y-117371810D01*
X141200286Y-117228952D01*
X141247905Y-117038476D01*
X141295524Y-116943238D01*
X141390762Y-116848000D01*
X141533620Y-116800381D01*
X141628858Y-116800381D01*
X141771715Y-116848000D01*
X141819334Y-116895619D01*
X142295524Y-117800381D02*
X142486000Y-117800381D01*
X142581239Y-117752762D01*
X142628858Y-117705143D01*
X142724096Y-117562286D01*
X142771715Y-117371810D01*
X142771715Y-116990857D01*
X142724096Y-116895619D01*
X142676477Y-116848000D01*
X142581239Y-116800381D01*
X142390762Y-116800381D01*
X142295524Y-116848000D01*
X142247905Y-116895619D01*
X142200286Y-116990857D01*
X142200286Y-117228952D01*
X142247905Y-117324190D01*
X142295524Y-117371810D01*
X142390762Y-117419429D01*
X142581239Y-117419429D01*
X142676477Y-117371810D01*
X142724096Y-117324190D01*
X142771715Y-117228952D01*
X139025334Y-113895143D02*
X138977715Y-113942762D01*
X138834858Y-113990381D01*
X138739620Y-113990381D01*
X138596762Y-113942762D01*
X138501524Y-113847524D01*
X138453905Y-113752286D01*
X138406286Y-113561810D01*
X138406286Y-113418952D01*
X138453905Y-113228476D01*
X138501524Y-113133238D01*
X138596762Y-113038000D01*
X138739620Y-112990381D01*
X138834858Y-112990381D01*
X138977715Y-113038000D01*
X139025334Y-113085619D01*
X139596762Y-113418952D02*
X139501524Y-113371333D01*
X139453905Y-113323714D01*
X139406286Y-113228476D01*
X139406286Y-113180857D01*
X139453905Y-113085619D01*
X139501524Y-113038000D01*
X139596762Y-112990381D01*
X139787239Y-112990381D01*
X139882477Y-113038000D01*
X139930096Y-113085619D01*
X139977715Y-113180857D01*
X139977715Y-113228476D01*
X139930096Y-113323714D01*
X139882477Y-113371333D01*
X139787239Y-113418952D01*
X139596762Y-113418952D01*
X139501524Y-113466571D01*
X139453905Y-113514190D01*
X139406286Y-113609429D01*
X139406286Y-113799905D01*
X139453905Y-113895143D01*
X139501524Y-113942762D01*
X139596762Y-113990381D01*
X139787239Y-113990381D01*
X139882477Y-113942762D01*
X139930096Y-113895143D01*
X139977715Y-113799905D01*
X139977715Y-113609429D01*
X139930096Y-113514190D01*
X139882477Y-113466571D01*
X139787239Y-113418952D01*
X136231334Y-117705143D02*
X136183715Y-117752762D01*
X136040858Y-117800381D01*
X135945620Y-117800381D01*
X135802762Y-117752762D01*
X135707524Y-117657524D01*
X135659905Y-117562286D01*
X135612286Y-117371810D01*
X135612286Y-117228952D01*
X135659905Y-117038476D01*
X135707524Y-116943238D01*
X135802762Y-116848000D01*
X135945620Y-116800381D01*
X136040858Y-116800381D01*
X136183715Y-116848000D01*
X136231334Y-116895619D01*
X136564667Y-116800381D02*
X137231334Y-116800381D01*
X136802762Y-117800381D01*
X130643334Y-117705143D02*
X130595715Y-117752762D01*
X130452858Y-117800381D01*
X130357620Y-117800381D01*
X130214762Y-117752762D01*
X130119524Y-117657524D01*
X130071905Y-117562286D01*
X130024286Y-117371810D01*
X130024286Y-117228952D01*
X130071905Y-117038476D01*
X130119524Y-116943238D01*
X130214762Y-116848000D01*
X130357620Y-116800381D01*
X130452858Y-116800381D01*
X130595715Y-116848000D01*
X130643334Y-116895619D01*
X131548096Y-116800381D02*
X131071905Y-116800381D01*
X131024286Y-117276571D01*
X131071905Y-117228952D01*
X131167143Y-117181333D01*
X131405239Y-117181333D01*
X131500477Y-117228952D01*
X131548096Y-117276571D01*
X131595715Y-117371810D01*
X131595715Y-117609905D01*
X131548096Y-117705143D01*
X131500477Y-117752762D01*
X131405239Y-117800381D01*
X131167143Y-117800381D01*
X131071905Y-117752762D01*
X131024286Y-117705143D01*
X127849334Y-113895143D02*
X127801715Y-113942762D01*
X127658858Y-113990381D01*
X127563620Y-113990381D01*
X127420762Y-113942762D01*
X127325524Y-113847524D01*
X127277905Y-113752286D01*
X127230286Y-113561810D01*
X127230286Y-113418952D01*
X127277905Y-113228476D01*
X127325524Y-113133238D01*
X127420762Y-113038000D01*
X127563620Y-112990381D01*
X127658858Y-112990381D01*
X127801715Y-113038000D01*
X127849334Y-113085619D01*
X128706477Y-113323714D02*
X128706477Y-113990381D01*
X128468381Y-112942762D02*
X128230286Y-113657048D01*
X128849334Y-113657048D01*
X125055334Y-117451143D02*
X125007715Y-117498762D01*
X124864858Y-117546381D01*
X124769620Y-117546381D01*
X124626762Y-117498762D01*
X124531524Y-117403524D01*
X124483905Y-117308286D01*
X124436286Y-117117810D01*
X124436286Y-116974952D01*
X124483905Y-116784476D01*
X124531524Y-116689238D01*
X124626762Y-116594000D01*
X124769620Y-116546381D01*
X124864858Y-116546381D01*
X125007715Y-116594000D01*
X125055334Y-116641619D01*
X125388667Y-116546381D02*
X126007715Y-116546381D01*
X125674381Y-116927333D01*
X125817239Y-116927333D01*
X125912477Y-116974952D01*
X125960096Y-117022571D01*
X126007715Y-117117810D01*
X126007715Y-117355905D01*
X125960096Y-117451143D01*
X125912477Y-117498762D01*
X125817239Y-117546381D01*
X125531524Y-117546381D01*
X125436286Y-117498762D01*
X125388667Y-117451143D01*
X122261334Y-113895143D02*
X122213715Y-113942762D01*
X122070858Y-113990381D01*
X121975620Y-113990381D01*
X121832762Y-113942762D01*
X121737524Y-113847524D01*
X121689905Y-113752286D01*
X121642286Y-113561810D01*
X121642286Y-113418952D01*
X121689905Y-113228476D01*
X121737524Y-113133238D01*
X121832762Y-113038000D01*
X121975620Y-112990381D01*
X122070858Y-112990381D01*
X122213715Y-113038000D01*
X122261334Y-113085619D01*
X122642286Y-113085619D02*
X122689905Y-113038000D01*
X122785143Y-112990381D01*
X123023239Y-112990381D01*
X123118477Y-113038000D01*
X123166096Y-113085619D01*
X123213715Y-113180857D01*
X123213715Y-113276095D01*
X123166096Y-113418952D01*
X122594667Y-113990381D01*
X123213715Y-113990381D01*
X133437334Y-113895143D02*
X133389715Y-113942762D01*
X133246858Y-113990381D01*
X133151620Y-113990381D01*
X133008762Y-113942762D01*
X132913524Y-113847524D01*
X132865905Y-113752286D01*
X132818286Y-113561810D01*
X132818286Y-113418952D01*
X132865905Y-113228476D01*
X132913524Y-113133238D01*
X133008762Y-113038000D01*
X133151620Y-112990381D01*
X133246858Y-112990381D01*
X133389715Y-113038000D01*
X133437334Y-113085619D01*
X134294477Y-112990381D02*
X134104000Y-112990381D01*
X134008762Y-113038000D01*
X133961143Y-113085619D01*
X133865905Y-113228476D01*
X133818286Y-113418952D01*
X133818286Y-113799905D01*
X133865905Y-113895143D01*
X133913524Y-113942762D01*
X134008762Y-113990381D01*
X134199239Y-113990381D01*
X134294477Y-113942762D01*
X134342096Y-113895143D01*
X134389715Y-113799905D01*
X134389715Y-113561810D01*
X134342096Y-113466571D01*
X134294477Y-113418952D01*
X134199239Y-113371333D01*
X134008762Y-113371333D01*
X133913524Y-113418952D01*
X133865905Y-113466571D01*
X133818286Y-113561810D01*
X174363143Y-117324143D02*
X174315524Y-117371762D01*
X174172667Y-117419381D01*
X174077429Y-117419381D01*
X173934571Y-117371762D01*
X173839333Y-117276524D01*
X173791714Y-117181286D01*
X173744095Y-116990810D01*
X173744095Y-116847952D01*
X173791714Y-116657476D01*
X173839333Y-116562238D01*
X173934571Y-116467000D01*
X174077429Y-116419381D01*
X174172667Y-116419381D01*
X174315524Y-116467000D01*
X174363143Y-116514619D01*
X174744095Y-116514619D02*
X174791714Y-116467000D01*
X174886952Y-116419381D01*
X175125048Y-116419381D01*
X175220286Y-116467000D01*
X175267905Y-116514619D01*
X175315524Y-116609857D01*
X175315524Y-116705095D01*
X175267905Y-116847952D01*
X174696476Y-117419381D01*
X175315524Y-117419381D01*
X176267905Y-117419381D02*
X175696476Y-117419381D01*
X175982190Y-117419381D02*
X175982190Y-116419381D01*
X175886952Y-116562238D01*
X175791714Y-116657476D01*
X175696476Y-116705095D01*
X171569143Y-113641143D02*
X171521524Y-113688762D01*
X171378667Y-113736381D01*
X171283429Y-113736381D01*
X171140571Y-113688762D01*
X171045333Y-113593524D01*
X170997714Y-113498286D01*
X170950095Y-113307810D01*
X170950095Y-113164952D01*
X170997714Y-112974476D01*
X171045333Y-112879238D01*
X171140571Y-112784000D01*
X171283429Y-112736381D01*
X171378667Y-112736381D01*
X171521524Y-112784000D01*
X171569143Y-112831619D01*
X171950095Y-112831619D02*
X171997714Y-112784000D01*
X172092952Y-112736381D01*
X172331048Y-112736381D01*
X172426286Y-112784000D01*
X172473905Y-112831619D01*
X172521524Y-112926857D01*
X172521524Y-113022095D01*
X172473905Y-113164952D01*
X171902476Y-113736381D01*
X172521524Y-113736381D01*
X173140571Y-112736381D02*
X173235810Y-112736381D01*
X173331048Y-112784000D01*
X173378667Y-112831619D01*
X173426286Y-112926857D01*
X173473905Y-113117333D01*
X173473905Y-113355429D01*
X173426286Y-113545905D01*
X173378667Y-113641143D01*
X173331048Y-113688762D01*
X173235810Y-113736381D01*
X173140571Y-113736381D01*
X173045333Y-113688762D01*
X172997714Y-113641143D01*
X172950095Y-113545905D01*
X172902476Y-113355429D01*
X172902476Y-113117333D01*
X172950095Y-112926857D01*
X172997714Y-112831619D01*
X173045333Y-112784000D01*
X173140571Y-112736381D01*
X176863476Y-122372381D02*
X176863476Y-121372381D01*
X177196810Y-122086667D01*
X177530143Y-121372381D01*
X177530143Y-122372381D01*
X178482524Y-121372381D02*
X178006333Y-121372381D01*
X177958714Y-121848571D01*
X178006333Y-121800952D01*
X178101571Y-121753333D01*
X178339667Y-121753333D01*
X178434905Y-121800952D01*
X178482524Y-121848571D01*
X178530143Y-121943810D01*
X178530143Y-122181905D01*
X178482524Y-122277143D01*
X178434905Y-122324762D01*
X178339667Y-122372381D01*
X178101571Y-122372381D01*
X178006333Y-122324762D01*
X177958714Y-122277143D01*
X151463476Y-122372381D02*
X151463476Y-121372381D01*
X151796810Y-122086667D01*
X152130143Y-121372381D01*
X152130143Y-122372381D01*
X152511095Y-121372381D02*
X153130143Y-121372381D01*
X152796809Y-121753333D01*
X152939667Y-121753333D01*
X153034905Y-121800952D01*
X153082524Y-121848571D01*
X153130143Y-121943810D01*
X153130143Y-122181905D01*
X153082524Y-122277143D01*
X153034905Y-122324762D01*
X152939667Y-122372381D01*
X152653952Y-122372381D01*
X152558714Y-122324762D01*
X152511095Y-122277143D01*
X164163476Y-122372381D02*
X164163476Y-121372381D01*
X164496810Y-122086667D01*
X164830143Y-121372381D01*
X164830143Y-122372381D01*
X165734905Y-121705714D02*
X165734905Y-122372381D01*
X165496809Y-121324762D02*
X165258714Y-122039048D01*
X165877762Y-122039048D01*
X160774143Y-113514143D02*
X160726524Y-113561762D01*
X160583667Y-113609381D01*
X160488429Y-113609381D01*
X160345571Y-113561762D01*
X160250333Y-113466524D01*
X160202714Y-113371286D01*
X160155095Y-113180810D01*
X160155095Y-113037952D01*
X160202714Y-112847476D01*
X160250333Y-112752238D01*
X160345571Y-112657000D01*
X160488429Y-112609381D01*
X160583667Y-112609381D01*
X160726524Y-112657000D01*
X160774143Y-112704619D01*
X161726524Y-113609381D02*
X161155095Y-113609381D01*
X161440809Y-113609381D02*
X161440809Y-112609381D01*
X161345571Y-112752238D01*
X161250333Y-112847476D01*
X161155095Y-112895095D01*
X162583667Y-112609381D02*
X162393190Y-112609381D01*
X162297952Y-112657000D01*
X162250333Y-112704619D01*
X162155095Y-112847476D01*
X162107476Y-113037952D01*
X162107476Y-113418905D01*
X162155095Y-113514143D01*
X162202714Y-113561762D01*
X162297952Y-113609381D01*
X162488429Y-113609381D01*
X162583667Y-113561762D01*
X162631286Y-113514143D01*
X162678905Y-113418905D01*
X162678905Y-113180810D01*
X162631286Y-113085571D01*
X162583667Y-113037952D01*
X162488429Y-112990333D01*
X162297952Y-112990333D01*
X162202714Y-113037952D01*
X162155095Y-113085571D01*
X162107476Y-113180810D01*
X168775143Y-117451143D02*
X168727524Y-117498762D01*
X168584667Y-117546381D01*
X168489429Y-117546381D01*
X168346571Y-117498762D01*
X168251333Y-117403524D01*
X168203714Y-117308286D01*
X168156095Y-117117810D01*
X168156095Y-116974952D01*
X168203714Y-116784476D01*
X168251333Y-116689238D01*
X168346571Y-116594000D01*
X168489429Y-116546381D01*
X168584667Y-116546381D01*
X168727524Y-116594000D01*
X168775143Y-116641619D01*
X169727524Y-117546381D02*
X169156095Y-117546381D01*
X169441809Y-117546381D02*
X169441809Y-116546381D01*
X169346571Y-116689238D01*
X169251333Y-116784476D01*
X169156095Y-116832095D01*
X170203714Y-117546381D02*
X170394190Y-117546381D01*
X170489429Y-117498762D01*
X170537048Y-117451143D01*
X170632286Y-117308286D01*
X170679905Y-117117810D01*
X170679905Y-116736857D01*
X170632286Y-116641619D01*
X170584667Y-116594000D01*
X170489429Y-116546381D01*
X170298952Y-116546381D01*
X170203714Y-116594000D01*
X170156095Y-116641619D01*
X170108476Y-116736857D01*
X170108476Y-116974952D01*
X170156095Y-117070190D01*
X170203714Y-117117810D01*
X170298952Y-117165429D01*
X170489429Y-117165429D01*
X170584667Y-117117810D01*
X170632286Y-117070190D01*
X170679905Y-116974952D01*
X133049905Y-71250381D02*
X133049905Y-72059905D01*
X133097524Y-72155143D01*
X133145143Y-72202762D01*
X133240381Y-72250381D01*
X133430858Y-72250381D01*
X133526096Y-72202762D01*
X133573715Y-72155143D01*
X133621334Y-72059905D01*
X133621334Y-71250381D01*
X134621334Y-72250381D02*
X134049905Y-72250381D01*
X134335619Y-72250381D02*
X134335619Y-71250381D01*
X134240381Y-71393238D01*
X134145143Y-71488476D01*
X134049905Y-71536095D01*
X135573715Y-72250381D02*
X135002286Y-72250381D01*
X135288000Y-72250381D02*
X135288000Y-71250381D01*
X135192762Y-71393238D01*
X135097524Y-71488476D01*
X135002286Y-71536095D01*
X126382381Y-121540381D02*
X126049047Y-121064190D01*
X125810952Y-121540381D02*
X125810952Y-120540381D01*
X126191905Y-120540381D01*
X126287143Y-120588000D01*
X126334762Y-120635619D01*
X126382381Y-120730857D01*
X126382381Y-120873714D01*
X126334762Y-120968952D01*
X126287143Y-121016571D01*
X126191905Y-121064190D01*
X125810952Y-121064190D01*
X126572857Y-121635619D02*
X127334762Y-121635619D01*
X128144286Y-121445143D02*
X128096667Y-121492762D01*
X127953810Y-121540381D01*
X127858572Y-121540381D01*
X127715714Y-121492762D01*
X127620476Y-121397524D01*
X127572857Y-121302286D01*
X127525238Y-121111810D01*
X127525238Y-120968952D01*
X127572857Y-120778476D01*
X127620476Y-120683238D01*
X127715714Y-120588000D01*
X127858572Y-120540381D01*
X127953810Y-120540381D01*
X128096667Y-120588000D01*
X128144286Y-120635619D01*
X128477619Y-120540381D02*
X129096667Y-120540381D01*
X128763333Y-120921333D01*
X128906191Y-120921333D01*
X129001429Y-120968952D01*
X129049048Y-121016571D01*
X129096667Y-121111810D01*
X129096667Y-121349905D01*
X129049048Y-121445143D01*
X129001429Y-121492762D01*
X128906191Y-121540381D01*
X128620476Y-121540381D01*
X128525238Y-121492762D01*
X128477619Y-121445143D01*
X141876381Y-121540381D02*
X141543047Y-121064190D01*
X141304952Y-121540381D02*
X141304952Y-120540381D01*
X141685905Y-120540381D01*
X141781143Y-120588000D01*
X141828762Y-120635619D01*
X141876381Y-120730857D01*
X141876381Y-120873714D01*
X141828762Y-120968952D01*
X141781143Y-121016571D01*
X141685905Y-121064190D01*
X141304952Y-121064190D01*
X142066857Y-121635619D02*
X142828762Y-121635619D01*
X143638286Y-121445143D02*
X143590667Y-121492762D01*
X143447810Y-121540381D01*
X143352572Y-121540381D01*
X143209714Y-121492762D01*
X143114476Y-121397524D01*
X143066857Y-121302286D01*
X143019238Y-121111810D01*
X143019238Y-120968952D01*
X143066857Y-120778476D01*
X143114476Y-120683238D01*
X143209714Y-120588000D01*
X143352572Y-120540381D01*
X143447810Y-120540381D01*
X143590667Y-120588000D01*
X143638286Y-120635619D01*
X144209714Y-120968952D02*
X144114476Y-120921333D01*
X144066857Y-120873714D01*
X144019238Y-120778476D01*
X144019238Y-120730857D01*
X144066857Y-120635619D01*
X144114476Y-120588000D01*
X144209714Y-120540381D01*
X144400191Y-120540381D01*
X144495429Y-120588000D01*
X144543048Y-120635619D01*
X144590667Y-120730857D01*
X144590667Y-120778476D01*
X144543048Y-120873714D01*
X144495429Y-120921333D01*
X144400191Y-120968952D01*
X144209714Y-120968952D01*
X144114476Y-121016571D01*
X144066857Y-121064190D01*
X144019238Y-121159429D01*
X144019238Y-121349905D01*
X144066857Y-121445143D01*
X144114476Y-121492762D01*
X144209714Y-121540381D01*
X144400191Y-121540381D01*
X144495429Y-121492762D01*
X144543048Y-121445143D01*
X144590667Y-121349905D01*
X144590667Y-121159429D01*
X144543048Y-121064190D01*
X144495429Y-121016571D01*
X144400191Y-120968952D01*
X154100191Y-121540381D02*
X153766857Y-121064190D01*
X153528762Y-121540381D02*
X153528762Y-120540381D01*
X153909715Y-120540381D01*
X154004953Y-120588000D01*
X154052572Y-120635619D01*
X154100191Y-120730857D01*
X154100191Y-120873714D01*
X154052572Y-120968952D01*
X154004953Y-121016571D01*
X153909715Y-121064190D01*
X153528762Y-121064190D01*
X154290667Y-121635619D02*
X155052572Y-121635619D01*
X155862096Y-121445143D02*
X155814477Y-121492762D01*
X155671620Y-121540381D01*
X155576382Y-121540381D01*
X155433524Y-121492762D01*
X155338286Y-121397524D01*
X155290667Y-121302286D01*
X155243048Y-121111810D01*
X155243048Y-120968952D01*
X155290667Y-120778476D01*
X155338286Y-120683238D01*
X155433524Y-120588000D01*
X155576382Y-120540381D01*
X155671620Y-120540381D01*
X155814477Y-120588000D01*
X155862096Y-120635619D01*
X156814477Y-121540381D02*
X156243048Y-121540381D01*
X156528762Y-121540381D02*
X156528762Y-120540381D01*
X156433524Y-120683238D01*
X156338286Y-120778476D01*
X156243048Y-120826095D01*
X157147810Y-120540381D02*
X157766858Y-120540381D01*
X157433524Y-120921333D01*
X157576382Y-120921333D01*
X157671620Y-120968952D01*
X157719239Y-121016571D01*
X157766858Y-121111810D01*
X157766858Y-121349905D01*
X157719239Y-121445143D01*
X157671620Y-121492762D01*
X157576382Y-121540381D01*
X157290667Y-121540381D01*
X157195429Y-121492762D01*
X157147810Y-121445143D01*
X168324191Y-121540381D02*
X167990857Y-121064190D01*
X167752762Y-121540381D02*
X167752762Y-120540381D01*
X168133715Y-120540381D01*
X168228953Y-120588000D01*
X168276572Y-120635619D01*
X168324191Y-120730857D01*
X168324191Y-120873714D01*
X168276572Y-120968952D01*
X168228953Y-121016571D01*
X168133715Y-121064190D01*
X167752762Y-121064190D01*
X168514667Y-121635619D02*
X169276572Y-121635619D01*
X170086096Y-121445143D02*
X170038477Y-121492762D01*
X169895620Y-121540381D01*
X169800382Y-121540381D01*
X169657524Y-121492762D01*
X169562286Y-121397524D01*
X169514667Y-121302286D01*
X169467048Y-121111810D01*
X169467048Y-120968952D01*
X169514667Y-120778476D01*
X169562286Y-120683238D01*
X169657524Y-120588000D01*
X169800382Y-120540381D01*
X169895620Y-120540381D01*
X170038477Y-120588000D01*
X170086096Y-120635619D01*
X171038477Y-121540381D02*
X170467048Y-121540381D01*
X170752762Y-121540381D02*
X170752762Y-120540381D01*
X170657524Y-120683238D01*
X170562286Y-120778476D01*
X170467048Y-120826095D01*
X171609905Y-120968952D02*
X171514667Y-120921333D01*
X171467048Y-120873714D01*
X171419429Y-120778476D01*
X171419429Y-120730857D01*
X171467048Y-120635619D01*
X171514667Y-120588000D01*
X171609905Y-120540381D01*
X171800382Y-120540381D01*
X171895620Y-120588000D01*
X171943239Y-120635619D01*
X171990858Y-120730857D01*
X171990858Y-120778476D01*
X171943239Y-120873714D01*
X171895620Y-120921333D01*
X171800382Y-120968952D01*
X171609905Y-120968952D01*
X171514667Y-121016571D01*
X171467048Y-121064190D01*
X171419429Y-121159429D01*
X171419429Y-121349905D01*
X171467048Y-121445143D01*
X171514667Y-121492762D01*
X171609905Y-121540381D01*
X171800382Y-121540381D01*
X171895620Y-121492762D01*
X171943239Y-121445143D01*
X171990858Y-121349905D01*
X171990858Y-121159429D01*
X171943239Y-121064190D01*
X171895620Y-121016571D01*
X171800382Y-120968952D01*
X123103429Y-102806191D02*
X123103429Y-102044286D01*
X123484381Y-102425238D02*
X122722476Y-102425238D01*
X123389143Y-100996667D02*
X123436762Y-101044286D01*
X123484381Y-101187143D01*
X123484381Y-101282381D01*
X123436762Y-101425239D01*
X123341524Y-101520477D01*
X123246286Y-101568096D01*
X123055810Y-101615715D01*
X122912952Y-101615715D01*
X122722476Y-101568096D01*
X122627238Y-101520477D01*
X122532000Y-101425239D01*
X122484381Y-101282381D01*
X122484381Y-101187143D01*
X122532000Y-101044286D01*
X122579619Y-100996667D01*
X123484381Y-100425239D02*
X123436762Y-100520477D01*
X123389143Y-100568096D01*
X123293905Y-100615715D01*
X123008190Y-100615715D01*
X122912952Y-100568096D01*
X122865333Y-100520477D01*
X122817714Y-100425239D01*
X122817714Y-100282381D01*
X122865333Y-100187143D01*
X122912952Y-100139524D01*
X123008190Y-100091905D01*
X123293905Y-100091905D01*
X123389143Y-100139524D01*
X123436762Y-100187143D01*
X123484381Y-100282381D01*
X123484381Y-100425239D01*
X123484381Y-99520477D02*
X123436762Y-99615715D01*
X123341524Y-99663334D01*
X122484381Y-99663334D01*
X123436762Y-99187143D02*
X123484381Y-99091905D01*
X123484381Y-98901429D01*
X123436762Y-98806190D01*
X123341524Y-98758571D01*
X123293905Y-98758571D01*
X123198667Y-98806190D01*
X123151048Y-98901429D01*
X123151048Y-99044286D01*
X123103429Y-99139524D01*
X123008190Y-99187143D01*
X122960571Y-99187143D01*
X122865333Y-99139524D01*
X122817714Y-99044286D01*
X122817714Y-98901429D01*
X122865333Y-98806190D01*
X123484381Y-97806190D02*
X123484381Y-98377619D01*
X123484381Y-98091905D02*
X122484381Y-98091905D01*
X122627238Y-98187143D01*
X122722476Y-98282381D01*
X122770095Y-98377619D01*
X145709429Y-102552191D02*
X145709429Y-101790286D01*
X146090381Y-102171238D02*
X145328476Y-102171238D01*
X145995143Y-100742667D02*
X146042762Y-100790286D01*
X146090381Y-100933143D01*
X146090381Y-101028381D01*
X146042762Y-101171239D01*
X145947524Y-101266477D01*
X145852286Y-101314096D01*
X145661810Y-101361715D01*
X145518952Y-101361715D01*
X145328476Y-101314096D01*
X145233238Y-101266477D01*
X145138000Y-101171239D01*
X145090381Y-101028381D01*
X145090381Y-100933143D01*
X145138000Y-100790286D01*
X145185619Y-100742667D01*
X146090381Y-100171239D02*
X146042762Y-100266477D01*
X145995143Y-100314096D01*
X145899905Y-100361715D01*
X145614190Y-100361715D01*
X145518952Y-100314096D01*
X145471333Y-100266477D01*
X145423714Y-100171239D01*
X145423714Y-100028381D01*
X145471333Y-99933143D01*
X145518952Y-99885524D01*
X145614190Y-99837905D01*
X145899905Y-99837905D01*
X145995143Y-99885524D01*
X146042762Y-99933143D01*
X146090381Y-100028381D01*
X146090381Y-100171239D01*
X146090381Y-99266477D02*
X146042762Y-99361715D01*
X145947524Y-99409334D01*
X145090381Y-99409334D01*
X146042762Y-98933143D02*
X146090381Y-98837905D01*
X146090381Y-98647429D01*
X146042762Y-98552190D01*
X145947524Y-98504571D01*
X145899905Y-98504571D01*
X145804667Y-98552190D01*
X145757048Y-98647429D01*
X145757048Y-98790286D01*
X145709429Y-98885524D01*
X145614190Y-98933143D01*
X145566571Y-98933143D01*
X145471333Y-98885524D01*
X145423714Y-98790286D01*
X145423714Y-98647429D01*
X145471333Y-98552190D01*
X145185619Y-98123619D02*
X145138000Y-98076000D01*
X145090381Y-97980762D01*
X145090381Y-97742666D01*
X145138000Y-97647428D01*
X145185619Y-97599809D01*
X145280857Y-97552190D01*
X145376095Y-97552190D01*
X145518952Y-97599809D01*
X146090381Y-98171238D01*
X146090381Y-97552190D01*
X168823429Y-102298191D02*
X168823429Y-101536286D01*
X169204381Y-101917238D02*
X168442476Y-101917238D01*
X169109143Y-100488667D02*
X169156762Y-100536286D01*
X169204381Y-100679143D01*
X169204381Y-100774381D01*
X169156762Y-100917239D01*
X169061524Y-101012477D01*
X168966286Y-101060096D01*
X168775810Y-101107715D01*
X168632952Y-101107715D01*
X168442476Y-101060096D01*
X168347238Y-101012477D01*
X168252000Y-100917239D01*
X168204381Y-100774381D01*
X168204381Y-100679143D01*
X168252000Y-100536286D01*
X168299619Y-100488667D01*
X169204381Y-99917239D02*
X169156762Y-100012477D01*
X169109143Y-100060096D01*
X169013905Y-100107715D01*
X168728190Y-100107715D01*
X168632952Y-100060096D01*
X168585333Y-100012477D01*
X168537714Y-99917239D01*
X168537714Y-99774381D01*
X168585333Y-99679143D01*
X168632952Y-99631524D01*
X168728190Y-99583905D01*
X169013905Y-99583905D01*
X169109143Y-99631524D01*
X169156762Y-99679143D01*
X169204381Y-99774381D01*
X169204381Y-99917239D01*
X169204381Y-99012477D02*
X169156762Y-99107715D01*
X169061524Y-99155334D01*
X168204381Y-99155334D01*
X169156762Y-98679143D02*
X169204381Y-98583905D01*
X169204381Y-98393429D01*
X169156762Y-98298190D01*
X169061524Y-98250571D01*
X169013905Y-98250571D01*
X168918667Y-98298190D01*
X168871048Y-98393429D01*
X168871048Y-98536286D01*
X168823429Y-98631524D01*
X168728190Y-98679143D01*
X168680571Y-98679143D01*
X168585333Y-98631524D01*
X168537714Y-98536286D01*
X168537714Y-98393429D01*
X168585333Y-98298190D01*
X168204381Y-97917238D02*
X168204381Y-97298190D01*
X168585333Y-97631524D01*
X168585333Y-97488666D01*
X168632952Y-97393428D01*
X168680571Y-97345809D01*
X168775810Y-97298190D01*
X169013905Y-97298190D01*
X169109143Y-97345809D01*
X169156762Y-97393428D01*
X169204381Y-97488666D01*
X169204381Y-97774381D01*
X169156762Y-97869619D01*
X169109143Y-97917238D01*
X144907238Y-81732381D02*
X144573904Y-81256190D01*
X144335809Y-81732381D02*
X144335809Y-80732381D01*
X144716762Y-80732381D01*
X144812000Y-80780000D01*
X144859619Y-80827619D01*
X144907238Y-80922857D01*
X144907238Y-81065714D01*
X144859619Y-81160952D01*
X144812000Y-81208571D01*
X144716762Y-81256190D01*
X144335809Y-81256190D01*
X145097714Y-81827619D02*
X145859619Y-81827619D01*
X146573905Y-81732381D02*
X146097714Y-81732381D01*
X146097714Y-80732381D01*
X146907238Y-81208571D02*
X147240572Y-81208571D01*
X147383429Y-81732381D02*
X146907238Y-81732381D01*
X146907238Y-80732381D01*
X147383429Y-80732381D01*
X147812000Y-81732381D02*
X147812000Y-80732381D01*
X148050095Y-80732381D01*
X148192953Y-80780000D01*
X148288191Y-80875238D01*
X148335810Y-80970476D01*
X148383429Y-81160952D01*
X148383429Y-81303810D01*
X148335810Y-81494286D01*
X148288191Y-81589524D01*
X148192953Y-81684762D01*
X148050095Y-81732381D01*
X147812000Y-81732381D01*
X149335810Y-81732381D02*
X148764381Y-81732381D01*
X149050095Y-81732381D02*
X149050095Y-80732381D01*
X148954857Y-80875238D01*
X148859619Y-80970476D01*
X148764381Y-81018095D01*
X145433905Y-86038381D02*
X145433905Y-85038381D01*
X145672000Y-85038381D01*
X145814858Y-85086000D01*
X145910096Y-85181238D01*
X145957715Y-85276476D01*
X146005334Y-85466952D01*
X146005334Y-85609810D01*
X145957715Y-85800286D01*
X145910096Y-85895524D01*
X145814858Y-85990762D01*
X145672000Y-86038381D01*
X145433905Y-86038381D01*
X146386286Y-85133619D02*
X146433905Y-85086000D01*
X146529143Y-85038381D01*
X146767239Y-85038381D01*
X146862477Y-85086000D01*
X146910096Y-85133619D01*
X146957715Y-85228857D01*
X146957715Y-85324095D01*
X146910096Y-85466952D01*
X146338667Y-86038381D01*
X146957715Y-86038381D01*
X149510095Y-87358381D02*
X149510095Y-86358381D01*
X150081524Y-87358381D02*
X149652952Y-86786952D01*
X150081524Y-86358381D02*
X149510095Y-86929810D01*
X118326381Y-57033905D02*
X119135905Y-57033905D01*
X119231143Y-56986286D01*
X119278762Y-56938667D01*
X119326381Y-56843429D01*
X119326381Y-56652952D01*
X119278762Y-56557714D01*
X119231143Y-56510095D01*
X119135905Y-56462476D01*
X118326381Y-56462476D01*
X118326381Y-55510095D02*
X118326381Y-55986286D01*
X118802571Y-56033905D01*
X118754952Y-55986286D01*
X118707333Y-55891048D01*
X118707333Y-55652952D01*
X118754952Y-55557714D01*
X118802571Y-55510095D01*
X118897810Y-55462476D01*
X119135905Y-55462476D01*
X119231143Y-55510095D01*
X119278762Y-55557714D01*
X119326381Y-55652952D01*
X119326381Y-55891048D01*
X119278762Y-55986286D01*
X119231143Y-56033905D01*
M02*
