G04 #@! TF.FileFunction,Soldermask,Bot*
%FSLAX46Y46*%
G04 Gerber Fmt 4.6, Leading zero omitted, Abs format (unit mm)*
G04 Created by KiCad (PCBNEW 4.0.2+dfsg1-stable) date Po  3. jún 2019, 21:27:26 CEST*
%MOMM*%
G01*
G04 APERTURE LIST*
%ADD10C,0.100000*%
%ADD11C,1.924000*%
%ADD12R,2.900000X2.900000*%
%ADD13C,2.400000*%
%ADD14R,2.100000X2.100000*%
%ADD15C,2.100000*%
%ADD16R,2.400000X2.400000*%
%ADD17R,1.800000X1.800000*%
%ADD18R,2.200860X1.200100*%
%ADD19R,1.000000X1.900000*%
%ADD20R,3.400000X3.400000*%
G04 APERTURE END LIST*
D10*
D11*
X120858000Y-61432000D03*
X120858000Y-64432000D03*
X120858000Y-67432000D03*
D12*
X121080000Y-80434000D03*
D13*
X121080000Y-82974000D03*
X121080000Y-85514000D03*
D11*
X134493000Y-124460000D03*
X134493000Y-127000000D03*
X134493000Y-129540000D03*
X134493000Y-132080000D03*
X134493000Y-134620000D03*
X134493000Y-137160000D03*
X142113000Y-137160000D03*
X142113000Y-134620000D03*
X142113000Y-132080000D03*
X142113000Y-129540000D03*
X142113000Y-127000000D03*
X142113000Y-124460000D03*
X121793000Y-124460000D03*
X121793000Y-127000000D03*
X121793000Y-129540000D03*
X121793000Y-132080000D03*
X121793000Y-134620000D03*
X121793000Y-137160000D03*
X129413000Y-137160000D03*
X129413000Y-134620000D03*
X129413000Y-132080000D03*
X129413000Y-129540000D03*
X129413000Y-127000000D03*
X129413000Y-124460000D03*
D14*
X186436000Y-58674000D03*
D15*
X184436000Y-58674000D03*
D16*
X186612000Y-74338000D03*
D13*
X186612000Y-76878000D03*
X186612000Y-79418000D03*
X186612000Y-81958000D03*
X186612000Y-84498000D03*
X186612000Y-87038000D03*
D11*
X172593000Y-124460000D03*
X172593000Y-127000000D03*
X172593000Y-129540000D03*
X172593000Y-132080000D03*
X172593000Y-134620000D03*
X172593000Y-137160000D03*
X180213000Y-137160000D03*
X180213000Y-134620000D03*
X180213000Y-132080000D03*
X180213000Y-129540000D03*
X180213000Y-127000000D03*
X180213000Y-124460000D03*
X147193000Y-124460000D03*
X147193000Y-127000000D03*
X147193000Y-129540000D03*
X147193000Y-132080000D03*
X147193000Y-134620000D03*
X147193000Y-137160000D03*
X154813000Y-137160000D03*
X154813000Y-134620000D03*
X154813000Y-132080000D03*
X154813000Y-129540000D03*
X154813000Y-127000000D03*
X154813000Y-124460000D03*
X159893000Y-124460000D03*
X159893000Y-127000000D03*
X159893000Y-129540000D03*
X159893000Y-132080000D03*
X159893000Y-134620000D03*
X159893000Y-137160000D03*
X167513000Y-137160000D03*
X167513000Y-134620000D03*
X167513000Y-132080000D03*
X167513000Y-129540000D03*
X167513000Y-127000000D03*
X167513000Y-124460000D03*
D17*
X171274000Y-117178000D03*
X171274000Y-114978000D03*
X174574000Y-116078000D03*
X164924000Y-117178000D03*
X164924000Y-114978000D03*
X168224000Y-116078000D03*
X159082000Y-117178000D03*
X159082000Y-114978000D03*
X162382000Y-116078000D03*
X152732000Y-117432000D03*
X152732000Y-115232000D03*
X156032000Y-116332000D03*
X146382000Y-117432000D03*
X146382000Y-115232000D03*
X149682000Y-116332000D03*
X140032000Y-117432000D03*
X140032000Y-115232000D03*
X143332000Y-116332000D03*
X133555000Y-116924000D03*
X133555000Y-114724000D03*
X136855000Y-115824000D03*
D18*
X174475140Y-109286000D03*
X174475140Y-111186000D03*
X171472860Y-110236000D03*
X168125140Y-109032000D03*
X168125140Y-110932000D03*
X165122860Y-109982000D03*
X162029140Y-109032000D03*
X162029140Y-110932000D03*
X159026860Y-109982000D03*
X155933140Y-109032000D03*
X155933140Y-110932000D03*
X152930860Y-109982000D03*
X149329140Y-109032000D03*
X149329140Y-110932000D03*
X146326860Y-109982000D03*
X142725140Y-109032000D03*
X142725140Y-110932000D03*
X139722860Y-109982000D03*
X136297140Y-108948000D03*
X136297140Y-110848000D03*
X133294860Y-109898000D03*
D19*
X162433000Y-103030000D03*
X161163000Y-103030000D03*
X159893000Y-103030000D03*
X158623000Y-103030000D03*
X157353000Y-103030000D03*
X156083000Y-103030000D03*
X154813000Y-103030000D03*
X153543000Y-103030000D03*
X153543000Y-97630000D03*
X154813000Y-97630000D03*
X156083000Y-97630000D03*
X157353000Y-97630000D03*
X158623000Y-97630000D03*
X159893000Y-97630000D03*
X161163000Y-97630000D03*
X162433000Y-97630000D03*
D20*
X138910000Y-88466000D03*
X134410000Y-88466000D03*
X130010000Y-88466000D03*
D16*
X148082000Y-88646000D03*
D13*
X145542000Y-88646000D03*
M02*
