G04 #@! TF.FileFunction,Copper,L2,Bot,Signal*
%FSLAX46Y46*%
G04 Gerber Fmt 4.6, Leading zero omitted, Abs format (unit mm)*
G04 Created by KiCad (PCBNEW 4.0.2+dfsg1-stable) date St  4. júl 2018, 20:56:09 CEST*
%MOMM*%
G01*
G04 APERTURE LIST*
%ADD10C,0.100000*%
%ADD11C,1.524000*%
%ADD12R,1.500000X1.300000*%
%ADD13R,1.300000X1.500000*%
%ADD14R,0.800100X1.800860*%
%ADD15R,0.600000X1.500000*%
%ADD16C,1.800000*%
%ADD17R,1.700000X0.900000*%
%ADD18R,0.900000X1.700000*%
%ADD19R,1.700000X1.700000*%
%ADD20C,1.700000*%
%ADD21C,1.200000*%
%ADD22C,0.500000*%
%ADD23C,0.400000*%
%ADD24C,0.254000*%
G04 APERTURE END LIST*
D10*
D11*
X173990000Y-57912000D03*
X173990000Y-60452000D03*
X173990000Y-62992000D03*
X173990000Y-65532000D03*
X173990000Y-68072000D03*
X173990000Y-70612000D03*
X184150000Y-70612000D03*
X184150000Y-68072000D03*
X184150000Y-65532000D03*
X184150000Y-62992000D03*
X184150000Y-60452000D03*
X184150000Y-57912000D03*
D12*
X182706000Y-75565000D03*
X180006000Y-75565000D03*
D13*
X181737000Y-65452000D03*
X181737000Y-68152000D03*
X179578000Y-65452000D03*
X179578000Y-68152000D03*
D10*
G36*
X177936305Y-70318457D02*
X178855543Y-71237695D01*
X177794883Y-72298355D01*
X176875645Y-71379117D01*
X177936305Y-70318457D01*
X177936305Y-70318457D01*
G37*
G36*
X176027117Y-72227645D02*
X176946355Y-73146883D01*
X175885695Y-74207543D01*
X174966457Y-73288305D01*
X176027117Y-72227645D01*
X176027117Y-72227645D01*
G37*
D13*
X176276000Y-65452000D03*
X176276000Y-68152000D03*
X163449000Y-71294000D03*
X163449000Y-73994000D03*
D12*
X154479000Y-74803000D03*
X157179000Y-74803000D03*
D14*
X179390000Y-78508860D03*
X181290000Y-78508860D03*
X180340000Y-81511140D03*
X175961000Y-78508860D03*
X177861000Y-78508860D03*
X176911000Y-81511140D03*
X172151000Y-78508860D03*
X174051000Y-78508860D03*
X173101000Y-81511140D03*
X168468000Y-78508860D03*
X170368000Y-78508860D03*
X169418000Y-81511140D03*
X164785000Y-78635860D03*
X166685000Y-78635860D03*
X165735000Y-81638140D03*
X161102000Y-78508860D03*
X163002000Y-78508860D03*
X162052000Y-81511140D03*
X157165000Y-78508860D03*
X159065000Y-78508860D03*
X158115000Y-81511140D03*
D11*
X121158000Y-57912000D03*
X121158000Y-60452000D03*
X121158000Y-62992000D03*
X121158000Y-65532000D03*
X121158000Y-68072000D03*
X121158000Y-70612000D03*
X131318000Y-70612000D03*
X131318000Y-68072000D03*
X131318000Y-65532000D03*
X131318000Y-62992000D03*
X131318000Y-60452000D03*
X131318000Y-57912000D03*
X147574000Y-57912000D03*
X147574000Y-60452000D03*
X147574000Y-62992000D03*
X147574000Y-65532000D03*
X147574000Y-68072000D03*
X147574000Y-70612000D03*
X157734000Y-70612000D03*
X157734000Y-68072000D03*
X157734000Y-65532000D03*
X157734000Y-62992000D03*
X157734000Y-60452000D03*
X157734000Y-57912000D03*
X160782000Y-57912000D03*
X160782000Y-60452000D03*
X160782000Y-62992000D03*
X160782000Y-65532000D03*
X160782000Y-68072000D03*
X160782000Y-70612000D03*
X170942000Y-70612000D03*
X170942000Y-68072000D03*
X170942000Y-65532000D03*
X170942000Y-62992000D03*
X170942000Y-60452000D03*
X170942000Y-57912000D03*
X134366000Y-57912000D03*
X134366000Y-60452000D03*
X134366000Y-62992000D03*
X134366000Y-65532000D03*
X134366000Y-68072000D03*
X134366000Y-70612000D03*
X144526000Y-70612000D03*
X144526000Y-68072000D03*
X144526000Y-65532000D03*
X144526000Y-62992000D03*
X144526000Y-60452000D03*
X144526000Y-57912000D03*
D15*
X175260000Y-91854000D03*
X173990000Y-91854000D03*
X172720000Y-91854000D03*
X171450000Y-91854000D03*
X170180000Y-91854000D03*
X168910000Y-91854000D03*
X167640000Y-91854000D03*
X166370000Y-91854000D03*
X166370000Y-86454000D03*
X167640000Y-86454000D03*
X168910000Y-86454000D03*
X170180000Y-86454000D03*
X171450000Y-86454000D03*
X172720000Y-86454000D03*
X173990000Y-86454000D03*
X175260000Y-86454000D03*
D16*
X161036000Y-101473000D03*
X163576000Y-101473000D03*
X166116000Y-101473000D03*
X168656000Y-101473000D03*
X171196000Y-101473000D03*
X173736000Y-101473000D03*
X176276000Y-101473000D03*
X178816000Y-101473000D03*
X178816000Y-116713000D03*
X176276000Y-116713000D03*
X173736000Y-116713000D03*
X171196000Y-116713000D03*
X168656000Y-116713000D03*
X166116000Y-116713000D03*
X163576000Y-116713000D03*
X161036000Y-116713000D03*
X158496000Y-116713000D03*
X155956000Y-116713000D03*
X153416000Y-116713000D03*
X150876000Y-116713000D03*
X148336000Y-115443000D03*
X148336000Y-112903000D03*
X148336000Y-110363000D03*
X148336000Y-107823000D03*
X148336000Y-105283000D03*
X148336000Y-102743000D03*
D17*
X180848000Y-92530000D03*
X180848000Y-95430000D03*
D18*
X169238000Y-94869000D03*
X172138000Y-94869000D03*
X185346000Y-109855000D03*
X182446000Y-109855000D03*
X185346000Y-107188000D03*
X182446000Y-107188000D03*
D19*
X153924000Y-91313000D03*
D20*
X153924000Y-88773000D03*
X153924000Y-86233000D03*
X153924000Y-83693000D03*
X153924000Y-81153000D03*
X153924000Y-78613000D03*
D21*
X121412000Y-94869000D03*
X183261000Y-118110000D03*
X153162000Y-121412000D03*
X181483000Y-87884000D03*
X161036000Y-87249000D03*
X136906000Y-87630000D03*
X186944000Y-93345000D03*
X171577000Y-98806000D03*
X181356000Y-89789000D03*
X161544000Y-95504000D03*
X175641000Y-98933000D03*
X177419000Y-99060000D03*
X185928000Y-87757000D03*
D22*
X153924000Y-81153000D02*
X135128000Y-81153000D01*
X135128000Y-81153000D02*
X121412000Y-94869000D01*
X183261000Y-118110000D02*
X182499000Y-118872000D01*
X182499000Y-118872000D02*
X160655000Y-118872000D01*
X160655000Y-118872000D02*
X158496000Y-116713000D01*
X153416000Y-121158000D02*
X153416000Y-116713000D01*
X153162000Y-121412000D02*
X153416000Y-121158000D01*
X161036000Y-87249000D02*
X161798000Y-86487000D01*
X161798000Y-86487000D02*
X166337000Y-86487000D01*
X166337000Y-86487000D02*
X166370000Y-86454000D01*
X181483000Y-87884000D02*
X181229000Y-87884000D01*
X161036000Y-87249000D02*
X161163000Y-87376000D01*
X136906000Y-87630000D02*
X137160000Y-87630000D01*
X179197000Y-93472000D02*
X182118000Y-93472000D01*
X173990000Y-92837000D02*
X174625000Y-93472000D01*
X174625000Y-93472000D02*
X179197000Y-93472000D01*
X173990000Y-91854000D02*
X173990000Y-92837000D01*
X180340000Y-84963000D02*
X180340000Y-81511140D01*
X183007000Y-87630000D02*
X180340000Y-84963000D01*
X183007000Y-92583000D02*
X183007000Y-87630000D01*
X182118000Y-93472000D02*
X183007000Y-92583000D01*
X175260000Y-86454000D02*
X175260000Y-85471000D01*
X176911000Y-83820000D02*
X176911000Y-81511140D01*
X175260000Y-85471000D02*
X176911000Y-83820000D01*
X173990000Y-86454000D02*
X173990000Y-82400140D01*
X173990000Y-82400140D02*
X173101000Y-81511140D01*
X185346000Y-109855000D02*
X186309000Y-109855000D01*
X186944000Y-109220000D02*
X186944000Y-93345000D01*
X186309000Y-109855000D02*
X186944000Y-109220000D01*
X172720000Y-86454000D02*
X172720000Y-84201000D01*
X170030140Y-81511140D02*
X169418000Y-81511140D01*
X172720000Y-84201000D02*
X170030140Y-81511140D01*
X171450000Y-86454000D02*
X171450000Y-85471000D01*
X167216858Y-83119998D02*
X165735000Y-81638140D01*
X169098998Y-83119998D02*
X167216858Y-83119998D01*
X171450000Y-85471000D02*
X169098998Y-83119998D01*
X170180000Y-86454000D02*
X170180000Y-85852000D01*
X170180000Y-85852000D02*
X168148000Y-83820000D01*
X168148000Y-83820000D02*
X164360860Y-83820000D01*
X164360860Y-83820000D02*
X162052000Y-81511140D01*
X168910000Y-86454000D02*
X168910000Y-85852000D01*
X168910000Y-85852000D02*
X167894000Y-84836000D01*
X167894000Y-84836000D02*
X161439860Y-84836000D01*
X161439860Y-84836000D02*
X158115000Y-81511140D01*
X184150000Y-57912000D02*
X184531000Y-57912000D01*
X184531000Y-57912000D02*
X185547000Y-58928000D01*
X185547000Y-72724000D02*
X182706000Y-75565000D01*
X185547000Y-58928000D02*
X185547000Y-72724000D01*
X131318000Y-57912000D02*
X131318000Y-56642000D01*
X144526000Y-56896000D02*
X143764000Y-56134000D01*
X143764000Y-56134000D02*
X131826000Y-56134000D01*
X131826000Y-56134000D02*
X131572000Y-56388000D01*
X144526000Y-56896000D02*
X144526000Y-57912000D01*
X131318000Y-56642000D02*
X131572000Y-56388000D01*
X157734000Y-57912000D02*
X157734000Y-56642000D01*
X157734000Y-56642000D02*
X157226000Y-56134000D01*
X144526000Y-56642000D02*
X144526000Y-57912000D01*
X145034000Y-56134000D02*
X144526000Y-56642000D01*
X157226000Y-56134000D02*
X145034000Y-56134000D01*
X170942000Y-57912000D02*
X170942000Y-56896000D01*
X170942000Y-56896000D02*
X171704000Y-56134000D01*
X184150000Y-56896000D02*
X184150000Y-57912000D01*
X183388000Y-56134000D02*
X184150000Y-56896000D01*
X171704000Y-56134000D02*
X183388000Y-56134000D01*
X158750000Y-56134000D02*
X158242000Y-56134000D01*
X170942000Y-56896000D02*
X170180000Y-56134000D01*
X170180000Y-56134000D02*
X158750000Y-56134000D01*
X158242000Y-56134000D02*
X157734000Y-56642000D01*
X144593235Y-58024059D02*
X144526000Y-57912000D01*
X184150000Y-60452000D02*
X183134000Y-60452000D01*
X181356000Y-62230000D02*
X181356000Y-65452000D01*
X183134000Y-60452000D02*
X181356000Y-62230000D01*
X170942000Y-60452000D02*
X170942000Y-59944000D01*
X170942000Y-59944000D02*
X171704000Y-59182000D01*
X183388000Y-59182000D02*
X184150000Y-59944000D01*
X171704000Y-59182000D02*
X183388000Y-59182000D01*
X184150000Y-59944000D02*
X184150000Y-60452000D01*
X157734000Y-60452000D02*
X157734000Y-59944000D01*
X157734000Y-59944000D02*
X158496000Y-59182000D01*
X170434000Y-59182000D02*
X170942000Y-59690000D01*
X158496000Y-59182000D02*
X170434000Y-59182000D01*
X170942000Y-59690000D02*
X170942000Y-60452000D01*
X144526000Y-60452000D02*
X144526000Y-59944000D01*
X144526000Y-59944000D02*
X145288000Y-59182000D01*
X157226000Y-59182000D02*
X157734000Y-59690000D01*
X145288000Y-59182000D02*
X157226000Y-59182000D01*
X157734000Y-59690000D02*
X157734000Y-60452000D01*
X131318000Y-60452000D02*
X131318000Y-59690000D01*
X131318000Y-59690000D02*
X131826000Y-59182000D01*
X144018000Y-59182000D02*
X144526000Y-59690000D01*
X131826000Y-59182000D02*
X144018000Y-59182000D01*
X144526000Y-59690000D02*
X144526000Y-60452000D01*
X131318000Y-60452000D02*
X131064000Y-60452000D01*
X173990000Y-60452000D02*
X177546000Y-60452000D01*
X179324000Y-62230000D02*
X179324000Y-65452000D01*
X177546000Y-60452000D02*
X179324000Y-62230000D01*
X160782000Y-60452000D02*
X160782000Y-61214000D01*
X160782000Y-61214000D02*
X161290000Y-61722000D01*
X173228000Y-61722000D02*
X173990000Y-60960000D01*
X161290000Y-61722000D02*
X173228000Y-61722000D01*
X173990000Y-60960000D02*
X173990000Y-60452000D01*
X147574000Y-60452000D02*
X147574000Y-61214000D01*
X147574000Y-61214000D02*
X148082000Y-61722000D01*
X148082000Y-61722000D02*
X160274000Y-61722000D01*
X160274000Y-61722000D02*
X160782000Y-61214000D01*
X134366000Y-60452000D02*
X134366000Y-61214000D01*
X134366000Y-61214000D02*
X134874000Y-61722000D01*
X134874000Y-61722000D02*
X147066000Y-61722000D01*
X147066000Y-61722000D02*
X147574000Y-61214000D01*
X121158000Y-60452000D02*
X121158000Y-61468000D01*
X121158000Y-61468000D02*
X121412000Y-61722000D01*
X121412000Y-61722000D02*
X133858000Y-61722000D01*
X133858000Y-61722000D02*
X134366000Y-61214000D01*
X121158000Y-60452000D02*
X121158000Y-61214000D01*
D23*
X184150000Y-65532000D02*
X184150000Y-66294000D01*
X170942000Y-65532000D02*
X170942000Y-66294000D01*
D22*
X170942000Y-66294000D02*
X171450000Y-66802000D01*
X183642000Y-66802000D02*
X184150000Y-66294000D01*
X158242000Y-66802000D02*
X170434000Y-66802000D01*
X157734000Y-66294000D02*
X158242000Y-66802000D01*
X170434000Y-66802000D02*
X170942000Y-66294000D01*
D23*
X157734000Y-65532000D02*
X157734000Y-66294000D01*
X131318000Y-65532000D02*
X131572000Y-65532000D01*
D22*
X131572000Y-65532000D02*
X132842000Y-66802000D01*
X143256000Y-66802000D02*
X144526000Y-65532000D01*
X132842000Y-66802000D02*
X143256000Y-66802000D01*
D23*
X144526000Y-65532000D02*
X144780000Y-65532000D01*
D22*
X144780000Y-65532000D02*
X146050000Y-66802000D01*
X146050000Y-66802000D02*
X157226000Y-66802000D01*
X157226000Y-66802000D02*
X157734000Y-66294000D01*
X178054000Y-66802000D02*
X178054000Y-70739000D01*
X178054000Y-70739000D02*
X177927000Y-70866000D01*
X171450000Y-66802000D02*
X178054000Y-66802000D01*
X178054000Y-66802000D02*
X183642000Y-66802000D01*
X173990000Y-65532000D02*
X176196000Y-65532000D01*
X176196000Y-65532000D02*
X176276000Y-65452000D01*
X160782000Y-65532000D02*
X160782000Y-65024000D01*
X160782000Y-65024000D02*
X161544000Y-64262000D01*
X173482000Y-64262000D02*
X173990000Y-64770000D01*
X161544000Y-64262000D02*
X173482000Y-64262000D01*
X173990000Y-64770000D02*
X173990000Y-65532000D01*
X147574000Y-65532000D02*
X147574000Y-65024000D01*
X147574000Y-65024000D02*
X148336000Y-64262000D01*
X160274000Y-64262000D02*
X160782000Y-64770000D01*
X148336000Y-64262000D02*
X160274000Y-64262000D01*
X160782000Y-64770000D02*
X160782000Y-65532000D01*
X134366000Y-65532000D02*
X134366000Y-64770000D01*
X134366000Y-64770000D02*
X134874000Y-64262000D01*
X147066000Y-64262000D02*
X147574000Y-64770000D01*
X134874000Y-64262000D02*
X147066000Y-64262000D01*
X147574000Y-64770000D02*
X147574000Y-65532000D01*
X121158000Y-65532000D02*
X121158000Y-64770000D01*
X121158000Y-64770000D02*
X121666000Y-64262000D01*
X121666000Y-64262000D02*
X133350000Y-64262000D01*
X133350000Y-64262000D02*
X134366000Y-65278000D01*
X134366000Y-65278000D02*
X134366000Y-65532000D01*
X160274000Y-65532000D02*
X160782000Y-65532000D01*
X171450000Y-71943998D02*
X171642002Y-71943998D01*
X172466000Y-71120000D02*
X172466000Y-69596000D01*
X173990000Y-68072000D02*
X172466000Y-69596000D01*
X168068000Y-71294000D02*
X168717998Y-71943998D01*
X168717998Y-71943998D02*
X171450000Y-71943998D01*
X168068000Y-71294000D02*
X163449000Y-71294000D01*
X171642002Y-71943998D02*
X172466000Y-71120000D01*
X162306000Y-70866000D02*
X163021000Y-70866000D01*
X163021000Y-70866000D02*
X163449000Y-71294000D01*
X160782000Y-68072000D02*
X161290000Y-68072000D01*
X161290000Y-68072000D02*
X162306000Y-69088000D01*
X162306000Y-69088000D02*
X162306000Y-70866000D01*
X162306000Y-70866000D02*
X162306000Y-70927998D01*
X147574000Y-68072000D02*
X147828000Y-68072000D01*
X147828000Y-68072000D02*
X149098000Y-69342000D01*
X159258000Y-69596000D02*
X160782000Y-68072000D01*
X159258000Y-71120000D02*
X159258000Y-69596000D01*
X158434002Y-71943998D02*
X159258000Y-71120000D01*
X150175998Y-71943998D02*
X158434002Y-71943998D01*
X149098000Y-70866000D02*
X150175998Y-71943998D01*
X149098000Y-69342000D02*
X149098000Y-70866000D01*
X134366000Y-68072000D02*
X134620000Y-68072000D01*
X134620000Y-68072000D02*
X135890000Y-69342000D01*
X146050000Y-69596000D02*
X147574000Y-68072000D01*
X146050000Y-70866000D02*
X146050000Y-69596000D01*
X145034000Y-71882000D02*
X146050000Y-70866000D01*
X136652000Y-71882000D02*
X145034000Y-71882000D01*
X135890000Y-71120000D02*
X136652000Y-71882000D01*
X135890000Y-69342000D02*
X135890000Y-71120000D01*
X121158000Y-68072000D02*
X121158000Y-68326000D01*
X121158000Y-68326000D02*
X122936000Y-70104000D01*
X132842000Y-69596000D02*
X134366000Y-68072000D01*
X132842000Y-71374000D02*
X132842000Y-69596000D01*
X132334000Y-71882000D02*
X132842000Y-71374000D01*
X131826000Y-71882000D02*
X132334000Y-71882000D01*
X123952000Y-71882000D02*
X131826000Y-71882000D01*
X122936000Y-70866000D02*
X123952000Y-71882000D01*
X122936000Y-70104000D02*
X122936000Y-70866000D01*
X154432000Y-72644000D02*
X154432000Y-74756000D01*
X154432000Y-74756000D02*
X154479000Y-74803000D01*
X173990000Y-70612000D02*
X173990000Y-72136000D01*
X161290000Y-72644000D02*
X160782000Y-72136000D01*
X173482000Y-72644000D02*
X161290000Y-72644000D01*
X173990000Y-72136000D02*
X173482000Y-72644000D01*
X160782000Y-70612000D02*
X160782000Y-72136000D01*
X148336000Y-72644000D02*
X147574000Y-71882000D01*
X160274000Y-72644000D02*
X154432000Y-72644000D01*
X154432000Y-72644000D02*
X148336000Y-72644000D01*
X160782000Y-72136000D02*
X160274000Y-72644000D01*
X147574000Y-70612000D02*
X147574000Y-71882000D01*
X135128000Y-72644000D02*
X134366000Y-71882000D01*
X147574000Y-71882000D02*
X146812000Y-72644000D01*
X146812000Y-72644000D02*
X135128000Y-72644000D01*
X160782000Y-70612000D02*
X160782000Y-71120000D01*
X134366000Y-70612000D02*
X134366000Y-71882000D01*
X121158000Y-70612000D02*
X121158000Y-70866000D01*
X121158000Y-70866000D02*
X122936000Y-72644000D01*
X133604000Y-72644000D02*
X134366000Y-71882000D01*
X122936000Y-72644000D02*
X133604000Y-72644000D01*
X158430998Y-99187000D02*
X158430998Y-87945998D01*
X166116000Y-112114952D02*
X158430998Y-104429950D01*
X158430998Y-104429950D02*
X158430998Y-99187000D01*
X166116000Y-116713000D02*
X166116000Y-112114952D01*
X156718000Y-86233000D02*
X153924000Y-86233000D01*
X158430998Y-87945998D02*
X156718000Y-86233000D01*
X157730996Y-100965000D02*
X157730996Y-90547996D01*
X163576000Y-110564904D02*
X157730996Y-104719900D01*
X157730996Y-104719900D02*
X157730996Y-100965000D01*
X163576000Y-116713000D02*
X163576000Y-110564904D01*
X155956000Y-88773000D02*
X153924000Y-88773000D01*
X157730996Y-90547996D02*
X155956000Y-88773000D01*
X171196000Y-99949000D02*
X171577000Y-98806000D01*
X171196000Y-99949000D02*
X171196000Y-101473000D01*
X170372002Y-96266000D02*
X170372002Y-94676998D01*
X171196000Y-100645998D02*
X170372002Y-99822000D01*
X170372002Y-99822000D02*
X170372002Y-96266000D01*
X171450000Y-93599000D02*
X171450000Y-91854000D01*
X170372002Y-94676998D02*
X171450000Y-93599000D01*
X171196000Y-101600000D02*
X171196000Y-100645998D01*
X167640000Y-91854000D02*
X167640000Y-92964000D01*
X167640000Y-90424000D02*
X169164000Y-88900000D01*
X169164000Y-88900000D02*
X180467000Y-88900000D01*
X180467000Y-88900000D02*
X181356000Y-89789000D01*
X167640000Y-91854000D02*
X167640000Y-90424000D01*
X168656000Y-101473000D02*
X168656000Y-100711000D01*
X168656000Y-100711000D02*
X168656000Y-99695000D01*
X167640000Y-94488000D02*
X167640000Y-92964000D01*
X168656000Y-101600000D02*
X168656000Y-100838000D01*
X161671000Y-95377000D02*
X167640000Y-95377000D01*
X161544000Y-95504000D02*
X161671000Y-95377000D01*
X167640000Y-95377000D02*
X167640000Y-95758000D01*
X167640000Y-95758000D02*
X168275000Y-96393000D01*
X168275000Y-96393000D02*
X168529000Y-96520000D01*
X168529000Y-96520000D02*
X168656000Y-97282000D01*
X168656000Y-99695000D02*
X168656000Y-97282000D01*
X167640000Y-95250000D02*
X167640000Y-95377000D01*
X167640000Y-95377000D02*
X167640000Y-94488000D01*
X173736000Y-101473000D02*
X173736000Y-101346000D01*
X173736000Y-101346000D02*
X175641000Y-99441000D01*
X175641000Y-99441000D02*
X175641000Y-98933000D01*
X176276000Y-101473000D02*
X176276000Y-100203000D01*
X176276000Y-100203000D02*
X177419000Y-99060000D01*
X172138000Y-94869000D02*
X173228000Y-94869000D01*
X178816000Y-97409000D02*
X178816000Y-101473000D01*
X177165000Y-95758000D02*
X178816000Y-97409000D01*
X174117000Y-95758000D02*
X177165000Y-95758000D01*
X173228000Y-94869000D02*
X174117000Y-95758000D01*
X184150000Y-105283000D02*
X184150000Y-96266000D01*
X174335050Y-94172002D02*
X179197000Y-94172002D01*
X174335050Y-94172002D02*
X172720000Y-92556952D01*
X182056002Y-94172002D02*
X179197000Y-94172002D01*
X182880000Y-94996000D02*
X182056002Y-94172002D01*
X184150000Y-96266000D02*
X182880000Y-94996000D01*
X176276000Y-116713000D02*
X176276000Y-116205000D01*
X176276000Y-116205000D02*
X177419000Y-115062000D01*
X184150000Y-114173000D02*
X184150000Y-105283000D01*
X184150000Y-105283000D02*
X184150000Y-105156000D01*
X183261000Y-115062000D02*
X184150000Y-114173000D01*
X177419000Y-115062000D02*
X183261000Y-115062000D01*
X176276000Y-116713000D02*
X176276000Y-115824000D01*
X172720000Y-91854000D02*
X172720000Y-92556952D01*
X183449998Y-105283000D02*
X183449998Y-98425000D01*
X182179998Y-97155000D02*
X180848000Y-95823002D01*
X183449998Y-98425000D02*
X182179998Y-97155000D01*
X171196000Y-116713000D02*
X171196000Y-116078000D01*
X171196000Y-116078000D02*
X172912002Y-114361998D01*
X172912002Y-114361998D02*
X182818002Y-114361998D01*
X182818002Y-114361998D02*
X183449998Y-113730002D01*
X183449998Y-113730002D02*
X183449998Y-105283000D01*
X183449998Y-105283000D02*
X183449998Y-105156000D01*
X180848000Y-95430000D02*
X180848000Y-95823002D01*
X157030994Y-101981000D02*
X157030994Y-92895994D01*
X161036000Y-109014856D02*
X157030994Y-105009850D01*
X157030994Y-105009850D02*
X157030994Y-101981000D01*
X161036000Y-116713000D02*
X161036000Y-109014856D01*
X155448000Y-91313000D02*
X153924000Y-91313000D01*
X157030994Y-92895994D02*
X155448000Y-91313000D01*
X159131000Y-98806000D02*
X159131000Y-85090000D01*
X168656000Y-113665000D02*
X159131000Y-104140000D01*
X159131000Y-104140000D02*
X159131000Y-98806000D01*
X168656000Y-116713000D02*
X168656000Y-113665000D01*
X155702000Y-80391000D02*
X153924000Y-78613000D01*
X155702000Y-81661000D02*
X155702000Y-80391000D01*
X159131000Y-85090000D02*
X155702000Y-81661000D01*
X180006000Y-75565000D02*
X180006000Y-77892860D01*
X180006000Y-77892860D02*
X179390000Y-78508860D01*
X181737000Y-68152000D02*
X181737000Y-72390000D01*
X175961000Y-76769000D02*
X175961000Y-78508860D01*
X176276000Y-76454000D02*
X175961000Y-76769000D01*
X176657000Y-76454000D02*
X176276000Y-76454000D01*
X177927000Y-75184000D02*
X176657000Y-76454000D01*
X177927000Y-74676000D02*
X177927000Y-75184000D01*
X178943000Y-73660000D02*
X177927000Y-74676000D01*
X180467000Y-73660000D02*
X178943000Y-73660000D01*
X181737000Y-72390000D02*
X180467000Y-73660000D01*
X179578000Y-68152000D02*
X179578000Y-72009000D01*
X172151000Y-76896000D02*
X172151000Y-78508860D01*
X172720000Y-76327000D02*
X172151000Y-76896000D01*
X174625000Y-76327000D02*
X172720000Y-76327000D01*
X175514000Y-75438000D02*
X174625000Y-76327000D01*
X176149000Y-75438000D02*
X175514000Y-75438000D01*
X179578000Y-72009000D02*
X176149000Y-75438000D01*
X175956406Y-73217594D02*
X174117000Y-75057000D01*
X168468000Y-77531000D02*
X168468000Y-78508860D01*
X170942000Y-75057000D02*
X168468000Y-77531000D01*
X174117000Y-75057000D02*
X170942000Y-75057000D01*
X173736000Y-73406000D02*
X176276000Y-70866000D01*
X168021000Y-73406000D02*
X173736000Y-73406000D01*
X164785000Y-78635860D02*
X164785000Y-76642000D01*
X176276000Y-70866000D02*
X176276000Y-68152000D01*
X164785000Y-76642000D02*
X168021000Y-73406000D01*
X163449000Y-73994000D02*
X162607000Y-73994000D01*
X161102000Y-75499000D02*
X161102000Y-78508860D01*
X162607000Y-73994000D02*
X161102000Y-75499000D01*
X157179000Y-74803000D02*
X157179000Y-78494860D01*
X157179000Y-78494860D02*
X157165000Y-78508860D01*
X185346000Y-107188000D02*
X185346000Y-88339000D01*
X185346000Y-88339000D02*
X185928000Y-87757000D01*
X180848000Y-92530000D02*
X180848000Y-92202000D01*
X180848000Y-92202000D02*
X178689000Y-90043000D01*
X178689000Y-90043000D02*
X169545000Y-90043000D01*
X169545000Y-90043000D02*
X168910000Y-90678000D01*
X168910000Y-90678000D02*
X168910000Y-91854000D01*
X169238000Y-94869000D02*
X169238000Y-94668000D01*
X169238000Y-94668000D02*
X170180000Y-93726000D01*
X170180000Y-93726000D02*
X170180000Y-91854000D01*
X161036000Y-101473000D02*
X161036000Y-101854000D01*
X161036000Y-101854000D02*
X163703000Y-104521000D01*
X163703000Y-104521000D02*
X176784000Y-104521000D01*
X176784000Y-104521000D02*
X179324000Y-107061000D01*
X179324000Y-107061000D02*
X179324000Y-108712000D01*
X179324000Y-108712000D02*
X180467000Y-109855000D01*
X180467000Y-109855000D02*
X182446000Y-109855000D01*
X166116000Y-101473000D02*
X166116000Y-101854000D01*
X166116000Y-101854000D02*
X168021000Y-103759000D01*
X168021000Y-103759000D02*
X179017000Y-103759000D01*
X179017000Y-103759000D02*
X182446000Y-107188000D01*
D24*
G36*
X187071000Y-53212541D02*
X187071000Y-87289247D01*
X186975592Y-87058343D01*
X186628485Y-86710629D01*
X186174734Y-86522215D01*
X185683421Y-86521786D01*
X185229343Y-86709408D01*
X184881629Y-87056515D01*
X184693215Y-87510266D01*
X184693002Y-87753930D01*
X184528367Y-88000325D01*
X184528367Y-88000326D01*
X184460999Y-88339000D01*
X184461000Y-88339005D01*
X184461000Y-95325421D01*
X183505790Y-94370210D01*
X183505787Y-94370208D01*
X182988580Y-93853000D01*
X183632787Y-93208792D01*
X183632790Y-93208790D01*
X183824633Y-92921675D01*
X183860970Y-92739000D01*
X183892001Y-92583000D01*
X183892000Y-92582995D01*
X183892000Y-87630005D01*
X183892001Y-87630000D01*
X183824634Y-87291326D01*
X183715747Y-87128365D01*
X183632790Y-87004210D01*
X183632787Y-87004208D01*
X181225000Y-84596420D01*
X181225000Y-82826618D01*
X181336481Y-82663460D01*
X181387490Y-82411570D01*
X181387490Y-80610710D01*
X181343212Y-80375393D01*
X181204140Y-80159269D01*
X181054069Y-80056730D01*
X181690050Y-80056730D01*
X181925367Y-80012452D01*
X182141491Y-79873380D01*
X182286481Y-79661180D01*
X182337490Y-79409290D01*
X182337490Y-77608430D01*
X182293212Y-77373113D01*
X182154140Y-77156989D01*
X181941940Y-77011999D01*
X181690050Y-76960990D01*
X180891000Y-76960990D01*
X180891000Y-76837038D01*
X180991317Y-76818162D01*
X181207441Y-76679090D01*
X181352431Y-76466890D01*
X181355081Y-76453803D01*
X181491910Y-76666441D01*
X181704110Y-76811431D01*
X181956000Y-76862440D01*
X183456000Y-76862440D01*
X183691317Y-76818162D01*
X183907441Y-76679090D01*
X184052431Y-76466890D01*
X184103440Y-76215000D01*
X184103440Y-75419140D01*
X186172787Y-73349792D01*
X186172790Y-73349790D01*
X186364633Y-73062675D01*
X186386323Y-72953633D01*
X186432001Y-72724000D01*
X186432000Y-72723995D01*
X186432000Y-58928005D01*
X186432001Y-58928000D01*
X186364633Y-58589326D01*
X186364633Y-58589325D01*
X186172790Y-58302210D01*
X186172787Y-58302208D01*
X185547206Y-57676626D01*
X185547242Y-57635339D01*
X185335010Y-57121697D01*
X185016410Y-56802541D01*
X184967633Y-56557326D01*
X184967633Y-56557325D01*
X184775790Y-56270210D01*
X184775787Y-56270208D01*
X184013790Y-55508210D01*
X184005991Y-55502999D01*
X183726675Y-55316367D01*
X183670484Y-55305190D01*
X183388000Y-55248999D01*
X183387995Y-55249000D01*
X171704005Y-55249000D01*
X171704000Y-55248999D01*
X171421516Y-55305190D01*
X171365325Y-55316367D01*
X171078210Y-55508210D01*
X171078208Y-55508213D01*
X170942000Y-55644420D01*
X170805790Y-55508210D01*
X170797991Y-55502999D01*
X170518675Y-55316367D01*
X170462484Y-55305190D01*
X170180000Y-55248999D01*
X170179995Y-55249000D01*
X158242000Y-55249000D01*
X157903325Y-55316367D01*
X157734000Y-55429506D01*
X157564675Y-55316367D01*
X157508484Y-55305190D01*
X157226000Y-55248999D01*
X157225995Y-55249000D01*
X145034000Y-55249000D01*
X144695325Y-55316367D01*
X144408210Y-55508210D01*
X144408208Y-55508213D01*
X144399000Y-55517420D01*
X144389790Y-55508210D01*
X144381991Y-55502999D01*
X144102675Y-55316367D01*
X144046484Y-55305190D01*
X143764000Y-55248999D01*
X143763995Y-55249000D01*
X131826005Y-55249000D01*
X131826000Y-55248999D01*
X131487325Y-55316367D01*
X131200210Y-55508210D01*
X131200208Y-55508213D01*
X130946210Y-55762210D01*
X130946208Y-55762213D01*
X130692210Y-56016210D01*
X130500367Y-56303325D01*
X130500367Y-56303326D01*
X130432999Y-56642000D01*
X130433000Y-56642005D01*
X130433000Y-56821522D01*
X130134371Y-57119630D01*
X129921243Y-57632900D01*
X129920758Y-58188661D01*
X130132990Y-58702303D01*
X130525630Y-59095629D01*
X130639597Y-59142952D01*
X130567785Y-59250426D01*
X130527697Y-59266990D01*
X130134371Y-59659630D01*
X129921243Y-60172900D01*
X129920758Y-60728661D01*
X129965523Y-60837000D01*
X122510784Y-60837000D01*
X122554757Y-60731100D01*
X122555242Y-60175339D01*
X122343010Y-59661697D01*
X121950370Y-59268371D01*
X121742488Y-59182051D01*
X121948303Y-59097010D01*
X122341629Y-58704370D01*
X122554757Y-58191100D01*
X122555242Y-57635339D01*
X122343010Y-57121697D01*
X121950370Y-56728371D01*
X121437100Y-56515243D01*
X120881339Y-56514758D01*
X120367697Y-56726990D01*
X119974371Y-57119630D01*
X119761243Y-57632900D01*
X119760758Y-58188661D01*
X119972990Y-58702303D01*
X120365630Y-59095629D01*
X120573512Y-59181949D01*
X120367697Y-59266990D01*
X119974371Y-59659630D01*
X119761243Y-60172900D01*
X119760758Y-60728661D01*
X119972990Y-61242303D01*
X120291590Y-61561459D01*
X120306618Y-61637010D01*
X120340367Y-61806675D01*
X120351429Y-61823230D01*
X119974371Y-62199630D01*
X119761243Y-62712900D01*
X119760758Y-63268661D01*
X119972990Y-63782303D01*
X120365630Y-64175629D01*
X120479597Y-64222952D01*
X120407785Y-64330426D01*
X120367697Y-64346990D01*
X119974371Y-64739630D01*
X119761243Y-65252900D01*
X119760758Y-65808661D01*
X119972990Y-66322303D01*
X120365630Y-66715629D01*
X120573512Y-66801949D01*
X120367697Y-66886990D01*
X119974371Y-67279630D01*
X119761243Y-67792900D01*
X119760758Y-68348661D01*
X119972990Y-68862303D01*
X120365630Y-69255629D01*
X120573512Y-69341949D01*
X120367697Y-69426990D01*
X119974371Y-69819630D01*
X119761243Y-70332900D01*
X119760758Y-70888661D01*
X119972990Y-71402303D01*
X120365630Y-71795629D01*
X120878900Y-72008757D01*
X121049326Y-72008906D01*
X122310208Y-73269787D01*
X122310210Y-73269790D01*
X122597325Y-73461633D01*
X122653516Y-73472810D01*
X122936000Y-73529001D01*
X122936005Y-73529000D01*
X133603995Y-73529000D01*
X133604000Y-73529001D01*
X133886484Y-73472810D01*
X133942675Y-73461633D01*
X134229790Y-73269790D01*
X134366000Y-73133580D01*
X134502208Y-73269787D01*
X134502210Y-73269790D01*
X134789325Y-73461633D01*
X134845516Y-73472810D01*
X135128000Y-73529001D01*
X135128005Y-73529000D01*
X146811995Y-73529000D01*
X146812000Y-73529001D01*
X147094484Y-73472810D01*
X147150675Y-73461633D01*
X147437790Y-73269790D01*
X147574000Y-73133580D01*
X147710208Y-73269787D01*
X147710210Y-73269790D01*
X147997325Y-73461633D01*
X148053516Y-73472810D01*
X148336000Y-73529001D01*
X148336005Y-73529000D01*
X153547000Y-73529000D01*
X153547000Y-73539806D01*
X153493683Y-73549838D01*
X153277559Y-73688910D01*
X153132569Y-73901110D01*
X153081560Y-74153000D01*
X153081560Y-75453000D01*
X153125838Y-75688317D01*
X153264910Y-75904441D01*
X153477110Y-76049431D01*
X153729000Y-76100440D01*
X155229000Y-76100440D01*
X155464317Y-76056162D01*
X155680441Y-75917090D01*
X155825431Y-75704890D01*
X155828081Y-75691803D01*
X155964910Y-75904441D01*
X156177110Y-76049431D01*
X156294000Y-76073102D01*
X156294000Y-77172892D01*
X156168519Y-77356540D01*
X156117510Y-77608430D01*
X156117510Y-79409290D01*
X156151266Y-79588687D01*
X155408797Y-78846218D01*
X155409257Y-78318911D01*
X155183656Y-77772914D01*
X154766283Y-77354812D01*
X154220681Y-77128258D01*
X153629911Y-77127743D01*
X153083914Y-77353344D01*
X152665812Y-77770717D01*
X152439258Y-78316319D01*
X152438743Y-78907089D01*
X152664344Y-79453086D01*
X153081717Y-79871188D01*
X153109557Y-79882748D01*
X153083914Y-79893344D01*
X152708604Y-80268000D01*
X135128005Y-80268000D01*
X135128000Y-80267999D01*
X134789325Y-80335367D01*
X134502210Y-80527210D01*
X134502208Y-80527213D01*
X121395435Y-93633985D01*
X121167421Y-93633786D01*
X120713343Y-93821408D01*
X120365629Y-94168515D01*
X120177215Y-94622266D01*
X120176786Y-95113579D01*
X120364408Y-95567657D01*
X120711515Y-95915371D01*
X121165266Y-96103785D01*
X121656579Y-96104214D01*
X122110657Y-95916592D01*
X122458371Y-95569485D01*
X122646785Y-95115734D01*
X122646986Y-94885594D01*
X134068300Y-83464279D01*
X152427282Y-83464279D01*
X152453685Y-84054458D01*
X152628741Y-84477080D01*
X152880042Y-84557353D01*
X153744395Y-83693000D01*
X154103605Y-83693000D01*
X154967958Y-84557353D01*
X155219259Y-84477080D01*
X155420718Y-83921721D01*
X155394315Y-83331542D01*
X155219259Y-82908920D01*
X154967958Y-82828647D01*
X154103605Y-83693000D01*
X153744395Y-83693000D01*
X152880042Y-82828647D01*
X152628741Y-82908920D01*
X152427282Y-83464279D01*
X134068300Y-83464279D01*
X135494579Y-82038000D01*
X152709180Y-82038000D01*
X153081717Y-82411188D01*
X153129312Y-82430951D01*
X153059647Y-82649042D01*
X153924000Y-83513395D01*
X154788353Y-82649042D01*
X154718819Y-82431360D01*
X154764086Y-82412656D01*
X155001772Y-82175385D01*
X155015735Y-82196282D01*
X155076210Y-82286790D01*
X158246000Y-85456579D01*
X158246000Y-86509421D01*
X157343790Y-85607210D01*
X157299611Y-85577691D01*
X157056675Y-85415367D01*
X157000484Y-85404190D01*
X156718000Y-85347999D01*
X156717995Y-85348000D01*
X155138820Y-85348000D01*
X154766283Y-84974812D01*
X154718688Y-84955049D01*
X154788353Y-84736958D01*
X153924000Y-83872605D01*
X153059647Y-84736958D01*
X153129181Y-84954640D01*
X153083914Y-84973344D01*
X152665812Y-85390717D01*
X152439258Y-85936319D01*
X152438743Y-86527089D01*
X152664344Y-87073086D01*
X153081717Y-87491188D01*
X153109557Y-87502748D01*
X153083914Y-87513344D01*
X152665812Y-87930717D01*
X152439258Y-88476319D01*
X152438743Y-89067089D01*
X152664344Y-89613086D01*
X152899283Y-89848435D01*
X152838683Y-89859838D01*
X152622559Y-89998910D01*
X152477569Y-90211110D01*
X152426560Y-90463000D01*
X152426560Y-92163000D01*
X152470838Y-92398317D01*
X152609910Y-92614441D01*
X152822110Y-92759431D01*
X153074000Y-92810440D01*
X154774000Y-92810440D01*
X155009317Y-92766162D01*
X155225441Y-92627090D01*
X155341156Y-92457736D01*
X156145994Y-93262573D01*
X156145994Y-105009845D01*
X156145993Y-105009850D01*
X156173233Y-105146790D01*
X156213361Y-105348525D01*
X156372698Y-105586991D01*
X156405204Y-105635640D01*
X160151000Y-109381435D01*
X160151000Y-115427532D01*
X159765677Y-115812182D01*
X159366643Y-115412449D01*
X158802670Y-115178267D01*
X158192009Y-115177735D01*
X157627629Y-115410932D01*
X157225677Y-115812182D01*
X156826643Y-115412449D01*
X156262670Y-115178267D01*
X155652009Y-115177735D01*
X155087629Y-115410932D01*
X154655449Y-115842357D01*
X154646797Y-115863194D01*
X154496159Y-115812446D01*
X153595605Y-116713000D01*
X154496159Y-117613554D01*
X154646327Y-117562965D01*
X154653932Y-117581371D01*
X155085357Y-118013551D01*
X155649330Y-118247733D01*
X156259991Y-118248265D01*
X156824371Y-118015068D01*
X157226323Y-117613818D01*
X157625357Y-118013551D01*
X158189330Y-118247733D01*
X158779668Y-118248247D01*
X160029208Y-119497787D01*
X160029210Y-119497790D01*
X160316325Y-119689633D01*
X160655000Y-119757001D01*
X160655005Y-119757000D01*
X182498995Y-119757000D01*
X182499000Y-119757001D01*
X182781484Y-119700810D01*
X182837675Y-119689633D01*
X183124790Y-119497790D01*
X183277565Y-119345015D01*
X183505579Y-119345214D01*
X183959657Y-119157592D01*
X184307371Y-118810485D01*
X184495785Y-118356734D01*
X184496214Y-117865421D01*
X184308592Y-117411343D01*
X183961485Y-117063629D01*
X183507734Y-116875215D01*
X183016421Y-116874786D01*
X182562343Y-117062408D01*
X182214629Y-117409515D01*
X182026215Y-117863266D01*
X182026107Y-117987000D01*
X179712488Y-117987000D01*
X180116551Y-117583643D01*
X180350733Y-117019670D01*
X180351265Y-116409009D01*
X180160367Y-115947000D01*
X183260995Y-115947000D01*
X183261000Y-115947001D01*
X183543484Y-115890810D01*
X183599675Y-115879633D01*
X183886790Y-115687790D01*
X184775787Y-114798792D01*
X184775790Y-114798790D01*
X184967633Y-114511675D01*
X184997406Y-114361998D01*
X185035001Y-114173000D01*
X185035000Y-114172995D01*
X185035000Y-111352440D01*
X185796000Y-111352440D01*
X186031317Y-111308162D01*
X186247441Y-111169090D01*
X186392431Y-110956890D01*
X186441697Y-110713605D01*
X186591484Y-110683810D01*
X186647675Y-110672633D01*
X186934790Y-110480790D01*
X187071000Y-110344580D01*
X187071000Y-120522539D01*
X117221000Y-120269459D01*
X117221000Y-116523159D01*
X147435446Y-116523159D01*
X147521852Y-116779643D01*
X148095336Y-116989458D01*
X148705460Y-116963839D01*
X149150148Y-116779643D01*
X149236553Y-116523161D01*
X149341074Y-116627682D01*
X149340735Y-117016991D01*
X149573932Y-117581371D01*
X150005357Y-118013551D01*
X150569330Y-118247733D01*
X151179991Y-118248265D01*
X151744371Y-118015068D01*
X151966668Y-117793159D01*
X152515446Y-117793159D01*
X152601852Y-118049643D01*
X153175336Y-118259458D01*
X153785460Y-118233839D01*
X154230148Y-118049643D01*
X154316554Y-117793159D01*
X153416000Y-116892605D01*
X152515446Y-117793159D01*
X151966668Y-117793159D01*
X152176551Y-117583643D01*
X152185203Y-117562806D01*
X152335841Y-117613554D01*
X153236395Y-116713000D01*
X152335841Y-115812446D01*
X152185673Y-115863035D01*
X152178068Y-115844629D01*
X151966650Y-115632841D01*
X152515446Y-115632841D01*
X153416000Y-116533395D01*
X154316554Y-115632841D01*
X154230148Y-115376357D01*
X153656664Y-115166542D01*
X153046540Y-115192161D01*
X152601852Y-115376357D01*
X152515446Y-115632841D01*
X151966650Y-115632841D01*
X151746643Y-115412449D01*
X151182670Y-115178267D01*
X150572009Y-115177735D01*
X150007629Y-115410932D01*
X149876502Y-115541830D01*
X149856839Y-115073540D01*
X149672643Y-114628852D01*
X149416159Y-114542446D01*
X148515605Y-115443000D01*
X148529748Y-115457143D01*
X148350143Y-115636748D01*
X148336000Y-115622605D01*
X147435446Y-116523159D01*
X117221000Y-116523159D01*
X117221000Y-115202336D01*
X146789542Y-115202336D01*
X146815161Y-115812460D01*
X146999357Y-116257148D01*
X147255841Y-116343554D01*
X148156395Y-115443000D01*
X147255841Y-114542446D01*
X146999357Y-114628852D01*
X146789542Y-115202336D01*
X117221000Y-115202336D01*
X117221000Y-103046991D01*
X146800735Y-103046991D01*
X147033932Y-103611371D01*
X147435182Y-104013323D01*
X147035449Y-104412357D01*
X146801267Y-104976330D01*
X146800735Y-105586991D01*
X147033932Y-106151371D01*
X147435182Y-106553323D01*
X147035449Y-106952357D01*
X146801267Y-107516330D01*
X146800735Y-108126991D01*
X147033932Y-108691371D01*
X147435182Y-109093323D01*
X147035449Y-109492357D01*
X146801267Y-110056330D01*
X146800735Y-110666991D01*
X147033932Y-111231371D01*
X147435182Y-111633323D01*
X147035449Y-112032357D01*
X146801267Y-112596330D01*
X146800735Y-113206991D01*
X147033932Y-113771371D01*
X147465357Y-114203551D01*
X147486194Y-114212203D01*
X147435446Y-114362841D01*
X148336000Y-115263395D01*
X149236554Y-114362841D01*
X149185965Y-114212673D01*
X149204371Y-114205068D01*
X149636551Y-113773643D01*
X149870733Y-113209670D01*
X149871265Y-112599009D01*
X149638068Y-112034629D01*
X149236818Y-111632677D01*
X149636551Y-111233643D01*
X149870733Y-110669670D01*
X149871265Y-110059009D01*
X149638068Y-109494629D01*
X149236818Y-109092677D01*
X149636551Y-108693643D01*
X149870733Y-108129670D01*
X149871265Y-107519009D01*
X149638068Y-106954629D01*
X149236818Y-106552677D01*
X149636551Y-106153643D01*
X149870733Y-105589670D01*
X149871265Y-104979009D01*
X149638068Y-104414629D01*
X149236818Y-104012677D01*
X149636551Y-103613643D01*
X149870733Y-103049670D01*
X149871265Y-102439009D01*
X149638068Y-101874629D01*
X149206643Y-101442449D01*
X148642670Y-101208267D01*
X148032009Y-101207735D01*
X147467629Y-101440932D01*
X147035449Y-101872357D01*
X146801267Y-102436330D01*
X146800735Y-103046991D01*
X117221000Y-103046991D01*
X117221000Y-52959461D01*
X187071000Y-53212541D01*
X187071000Y-53212541D01*
G37*
X187071000Y-53212541D02*
X187071000Y-87289247D01*
X186975592Y-87058343D01*
X186628485Y-86710629D01*
X186174734Y-86522215D01*
X185683421Y-86521786D01*
X185229343Y-86709408D01*
X184881629Y-87056515D01*
X184693215Y-87510266D01*
X184693002Y-87753930D01*
X184528367Y-88000325D01*
X184528367Y-88000326D01*
X184460999Y-88339000D01*
X184461000Y-88339005D01*
X184461000Y-95325421D01*
X183505790Y-94370210D01*
X183505787Y-94370208D01*
X182988580Y-93853000D01*
X183632787Y-93208792D01*
X183632790Y-93208790D01*
X183824633Y-92921675D01*
X183860970Y-92739000D01*
X183892001Y-92583000D01*
X183892000Y-92582995D01*
X183892000Y-87630005D01*
X183892001Y-87630000D01*
X183824634Y-87291326D01*
X183715747Y-87128365D01*
X183632790Y-87004210D01*
X183632787Y-87004208D01*
X181225000Y-84596420D01*
X181225000Y-82826618D01*
X181336481Y-82663460D01*
X181387490Y-82411570D01*
X181387490Y-80610710D01*
X181343212Y-80375393D01*
X181204140Y-80159269D01*
X181054069Y-80056730D01*
X181690050Y-80056730D01*
X181925367Y-80012452D01*
X182141491Y-79873380D01*
X182286481Y-79661180D01*
X182337490Y-79409290D01*
X182337490Y-77608430D01*
X182293212Y-77373113D01*
X182154140Y-77156989D01*
X181941940Y-77011999D01*
X181690050Y-76960990D01*
X180891000Y-76960990D01*
X180891000Y-76837038D01*
X180991317Y-76818162D01*
X181207441Y-76679090D01*
X181352431Y-76466890D01*
X181355081Y-76453803D01*
X181491910Y-76666441D01*
X181704110Y-76811431D01*
X181956000Y-76862440D01*
X183456000Y-76862440D01*
X183691317Y-76818162D01*
X183907441Y-76679090D01*
X184052431Y-76466890D01*
X184103440Y-76215000D01*
X184103440Y-75419140D01*
X186172787Y-73349792D01*
X186172790Y-73349790D01*
X186364633Y-73062675D01*
X186386323Y-72953633D01*
X186432001Y-72724000D01*
X186432000Y-72723995D01*
X186432000Y-58928005D01*
X186432001Y-58928000D01*
X186364633Y-58589326D01*
X186364633Y-58589325D01*
X186172790Y-58302210D01*
X186172787Y-58302208D01*
X185547206Y-57676626D01*
X185547242Y-57635339D01*
X185335010Y-57121697D01*
X185016410Y-56802541D01*
X184967633Y-56557326D01*
X184967633Y-56557325D01*
X184775790Y-56270210D01*
X184775787Y-56270208D01*
X184013790Y-55508210D01*
X184005991Y-55502999D01*
X183726675Y-55316367D01*
X183670484Y-55305190D01*
X183388000Y-55248999D01*
X183387995Y-55249000D01*
X171704005Y-55249000D01*
X171704000Y-55248999D01*
X171421516Y-55305190D01*
X171365325Y-55316367D01*
X171078210Y-55508210D01*
X171078208Y-55508213D01*
X170942000Y-55644420D01*
X170805790Y-55508210D01*
X170797991Y-55502999D01*
X170518675Y-55316367D01*
X170462484Y-55305190D01*
X170180000Y-55248999D01*
X170179995Y-55249000D01*
X158242000Y-55249000D01*
X157903325Y-55316367D01*
X157734000Y-55429506D01*
X157564675Y-55316367D01*
X157508484Y-55305190D01*
X157226000Y-55248999D01*
X157225995Y-55249000D01*
X145034000Y-55249000D01*
X144695325Y-55316367D01*
X144408210Y-55508210D01*
X144408208Y-55508213D01*
X144399000Y-55517420D01*
X144389790Y-55508210D01*
X144381991Y-55502999D01*
X144102675Y-55316367D01*
X144046484Y-55305190D01*
X143764000Y-55248999D01*
X143763995Y-55249000D01*
X131826005Y-55249000D01*
X131826000Y-55248999D01*
X131487325Y-55316367D01*
X131200210Y-55508210D01*
X131200208Y-55508213D01*
X130946210Y-55762210D01*
X130946208Y-55762213D01*
X130692210Y-56016210D01*
X130500367Y-56303325D01*
X130500367Y-56303326D01*
X130432999Y-56642000D01*
X130433000Y-56642005D01*
X130433000Y-56821522D01*
X130134371Y-57119630D01*
X129921243Y-57632900D01*
X129920758Y-58188661D01*
X130132990Y-58702303D01*
X130525630Y-59095629D01*
X130639597Y-59142952D01*
X130567785Y-59250426D01*
X130527697Y-59266990D01*
X130134371Y-59659630D01*
X129921243Y-60172900D01*
X129920758Y-60728661D01*
X129965523Y-60837000D01*
X122510784Y-60837000D01*
X122554757Y-60731100D01*
X122555242Y-60175339D01*
X122343010Y-59661697D01*
X121950370Y-59268371D01*
X121742488Y-59182051D01*
X121948303Y-59097010D01*
X122341629Y-58704370D01*
X122554757Y-58191100D01*
X122555242Y-57635339D01*
X122343010Y-57121697D01*
X121950370Y-56728371D01*
X121437100Y-56515243D01*
X120881339Y-56514758D01*
X120367697Y-56726990D01*
X119974371Y-57119630D01*
X119761243Y-57632900D01*
X119760758Y-58188661D01*
X119972990Y-58702303D01*
X120365630Y-59095629D01*
X120573512Y-59181949D01*
X120367697Y-59266990D01*
X119974371Y-59659630D01*
X119761243Y-60172900D01*
X119760758Y-60728661D01*
X119972990Y-61242303D01*
X120291590Y-61561459D01*
X120306618Y-61637010D01*
X120340367Y-61806675D01*
X120351429Y-61823230D01*
X119974371Y-62199630D01*
X119761243Y-62712900D01*
X119760758Y-63268661D01*
X119972990Y-63782303D01*
X120365630Y-64175629D01*
X120479597Y-64222952D01*
X120407785Y-64330426D01*
X120367697Y-64346990D01*
X119974371Y-64739630D01*
X119761243Y-65252900D01*
X119760758Y-65808661D01*
X119972990Y-66322303D01*
X120365630Y-66715629D01*
X120573512Y-66801949D01*
X120367697Y-66886990D01*
X119974371Y-67279630D01*
X119761243Y-67792900D01*
X119760758Y-68348661D01*
X119972990Y-68862303D01*
X120365630Y-69255629D01*
X120573512Y-69341949D01*
X120367697Y-69426990D01*
X119974371Y-69819630D01*
X119761243Y-70332900D01*
X119760758Y-70888661D01*
X119972990Y-71402303D01*
X120365630Y-71795629D01*
X120878900Y-72008757D01*
X121049326Y-72008906D01*
X122310208Y-73269787D01*
X122310210Y-73269790D01*
X122597325Y-73461633D01*
X122653516Y-73472810D01*
X122936000Y-73529001D01*
X122936005Y-73529000D01*
X133603995Y-73529000D01*
X133604000Y-73529001D01*
X133886484Y-73472810D01*
X133942675Y-73461633D01*
X134229790Y-73269790D01*
X134366000Y-73133580D01*
X134502208Y-73269787D01*
X134502210Y-73269790D01*
X134789325Y-73461633D01*
X134845516Y-73472810D01*
X135128000Y-73529001D01*
X135128005Y-73529000D01*
X146811995Y-73529000D01*
X146812000Y-73529001D01*
X147094484Y-73472810D01*
X147150675Y-73461633D01*
X147437790Y-73269790D01*
X147574000Y-73133580D01*
X147710208Y-73269787D01*
X147710210Y-73269790D01*
X147997325Y-73461633D01*
X148053516Y-73472810D01*
X148336000Y-73529001D01*
X148336005Y-73529000D01*
X153547000Y-73529000D01*
X153547000Y-73539806D01*
X153493683Y-73549838D01*
X153277559Y-73688910D01*
X153132569Y-73901110D01*
X153081560Y-74153000D01*
X153081560Y-75453000D01*
X153125838Y-75688317D01*
X153264910Y-75904441D01*
X153477110Y-76049431D01*
X153729000Y-76100440D01*
X155229000Y-76100440D01*
X155464317Y-76056162D01*
X155680441Y-75917090D01*
X155825431Y-75704890D01*
X155828081Y-75691803D01*
X155964910Y-75904441D01*
X156177110Y-76049431D01*
X156294000Y-76073102D01*
X156294000Y-77172892D01*
X156168519Y-77356540D01*
X156117510Y-77608430D01*
X156117510Y-79409290D01*
X156151266Y-79588687D01*
X155408797Y-78846218D01*
X155409257Y-78318911D01*
X155183656Y-77772914D01*
X154766283Y-77354812D01*
X154220681Y-77128258D01*
X153629911Y-77127743D01*
X153083914Y-77353344D01*
X152665812Y-77770717D01*
X152439258Y-78316319D01*
X152438743Y-78907089D01*
X152664344Y-79453086D01*
X153081717Y-79871188D01*
X153109557Y-79882748D01*
X153083914Y-79893344D01*
X152708604Y-80268000D01*
X135128005Y-80268000D01*
X135128000Y-80267999D01*
X134789325Y-80335367D01*
X134502210Y-80527210D01*
X134502208Y-80527213D01*
X121395435Y-93633985D01*
X121167421Y-93633786D01*
X120713343Y-93821408D01*
X120365629Y-94168515D01*
X120177215Y-94622266D01*
X120176786Y-95113579D01*
X120364408Y-95567657D01*
X120711515Y-95915371D01*
X121165266Y-96103785D01*
X121656579Y-96104214D01*
X122110657Y-95916592D01*
X122458371Y-95569485D01*
X122646785Y-95115734D01*
X122646986Y-94885594D01*
X134068300Y-83464279D01*
X152427282Y-83464279D01*
X152453685Y-84054458D01*
X152628741Y-84477080D01*
X152880042Y-84557353D01*
X153744395Y-83693000D01*
X154103605Y-83693000D01*
X154967958Y-84557353D01*
X155219259Y-84477080D01*
X155420718Y-83921721D01*
X155394315Y-83331542D01*
X155219259Y-82908920D01*
X154967958Y-82828647D01*
X154103605Y-83693000D01*
X153744395Y-83693000D01*
X152880042Y-82828647D01*
X152628741Y-82908920D01*
X152427282Y-83464279D01*
X134068300Y-83464279D01*
X135494579Y-82038000D01*
X152709180Y-82038000D01*
X153081717Y-82411188D01*
X153129312Y-82430951D01*
X153059647Y-82649042D01*
X153924000Y-83513395D01*
X154788353Y-82649042D01*
X154718819Y-82431360D01*
X154764086Y-82412656D01*
X155001772Y-82175385D01*
X155015735Y-82196282D01*
X155076210Y-82286790D01*
X158246000Y-85456579D01*
X158246000Y-86509421D01*
X157343790Y-85607210D01*
X157299611Y-85577691D01*
X157056675Y-85415367D01*
X157000484Y-85404190D01*
X156718000Y-85347999D01*
X156717995Y-85348000D01*
X155138820Y-85348000D01*
X154766283Y-84974812D01*
X154718688Y-84955049D01*
X154788353Y-84736958D01*
X153924000Y-83872605D01*
X153059647Y-84736958D01*
X153129181Y-84954640D01*
X153083914Y-84973344D01*
X152665812Y-85390717D01*
X152439258Y-85936319D01*
X152438743Y-86527089D01*
X152664344Y-87073086D01*
X153081717Y-87491188D01*
X153109557Y-87502748D01*
X153083914Y-87513344D01*
X152665812Y-87930717D01*
X152439258Y-88476319D01*
X152438743Y-89067089D01*
X152664344Y-89613086D01*
X152899283Y-89848435D01*
X152838683Y-89859838D01*
X152622559Y-89998910D01*
X152477569Y-90211110D01*
X152426560Y-90463000D01*
X152426560Y-92163000D01*
X152470838Y-92398317D01*
X152609910Y-92614441D01*
X152822110Y-92759431D01*
X153074000Y-92810440D01*
X154774000Y-92810440D01*
X155009317Y-92766162D01*
X155225441Y-92627090D01*
X155341156Y-92457736D01*
X156145994Y-93262573D01*
X156145994Y-105009845D01*
X156145993Y-105009850D01*
X156173233Y-105146790D01*
X156213361Y-105348525D01*
X156372698Y-105586991D01*
X156405204Y-105635640D01*
X160151000Y-109381435D01*
X160151000Y-115427532D01*
X159765677Y-115812182D01*
X159366643Y-115412449D01*
X158802670Y-115178267D01*
X158192009Y-115177735D01*
X157627629Y-115410932D01*
X157225677Y-115812182D01*
X156826643Y-115412449D01*
X156262670Y-115178267D01*
X155652009Y-115177735D01*
X155087629Y-115410932D01*
X154655449Y-115842357D01*
X154646797Y-115863194D01*
X154496159Y-115812446D01*
X153595605Y-116713000D01*
X154496159Y-117613554D01*
X154646327Y-117562965D01*
X154653932Y-117581371D01*
X155085357Y-118013551D01*
X155649330Y-118247733D01*
X156259991Y-118248265D01*
X156824371Y-118015068D01*
X157226323Y-117613818D01*
X157625357Y-118013551D01*
X158189330Y-118247733D01*
X158779668Y-118248247D01*
X160029208Y-119497787D01*
X160029210Y-119497790D01*
X160316325Y-119689633D01*
X160655000Y-119757001D01*
X160655005Y-119757000D01*
X182498995Y-119757000D01*
X182499000Y-119757001D01*
X182781484Y-119700810D01*
X182837675Y-119689633D01*
X183124790Y-119497790D01*
X183277565Y-119345015D01*
X183505579Y-119345214D01*
X183959657Y-119157592D01*
X184307371Y-118810485D01*
X184495785Y-118356734D01*
X184496214Y-117865421D01*
X184308592Y-117411343D01*
X183961485Y-117063629D01*
X183507734Y-116875215D01*
X183016421Y-116874786D01*
X182562343Y-117062408D01*
X182214629Y-117409515D01*
X182026215Y-117863266D01*
X182026107Y-117987000D01*
X179712488Y-117987000D01*
X180116551Y-117583643D01*
X180350733Y-117019670D01*
X180351265Y-116409009D01*
X180160367Y-115947000D01*
X183260995Y-115947000D01*
X183261000Y-115947001D01*
X183543484Y-115890810D01*
X183599675Y-115879633D01*
X183886790Y-115687790D01*
X184775787Y-114798792D01*
X184775790Y-114798790D01*
X184967633Y-114511675D01*
X184997406Y-114361998D01*
X185035001Y-114173000D01*
X185035000Y-114172995D01*
X185035000Y-111352440D01*
X185796000Y-111352440D01*
X186031317Y-111308162D01*
X186247441Y-111169090D01*
X186392431Y-110956890D01*
X186441697Y-110713605D01*
X186591484Y-110683810D01*
X186647675Y-110672633D01*
X186934790Y-110480790D01*
X187071000Y-110344580D01*
X187071000Y-120522539D01*
X117221000Y-120269459D01*
X117221000Y-116523159D01*
X147435446Y-116523159D01*
X147521852Y-116779643D01*
X148095336Y-116989458D01*
X148705460Y-116963839D01*
X149150148Y-116779643D01*
X149236553Y-116523161D01*
X149341074Y-116627682D01*
X149340735Y-117016991D01*
X149573932Y-117581371D01*
X150005357Y-118013551D01*
X150569330Y-118247733D01*
X151179991Y-118248265D01*
X151744371Y-118015068D01*
X151966668Y-117793159D01*
X152515446Y-117793159D01*
X152601852Y-118049643D01*
X153175336Y-118259458D01*
X153785460Y-118233839D01*
X154230148Y-118049643D01*
X154316554Y-117793159D01*
X153416000Y-116892605D01*
X152515446Y-117793159D01*
X151966668Y-117793159D01*
X152176551Y-117583643D01*
X152185203Y-117562806D01*
X152335841Y-117613554D01*
X153236395Y-116713000D01*
X152335841Y-115812446D01*
X152185673Y-115863035D01*
X152178068Y-115844629D01*
X151966650Y-115632841D01*
X152515446Y-115632841D01*
X153416000Y-116533395D01*
X154316554Y-115632841D01*
X154230148Y-115376357D01*
X153656664Y-115166542D01*
X153046540Y-115192161D01*
X152601852Y-115376357D01*
X152515446Y-115632841D01*
X151966650Y-115632841D01*
X151746643Y-115412449D01*
X151182670Y-115178267D01*
X150572009Y-115177735D01*
X150007629Y-115410932D01*
X149876502Y-115541830D01*
X149856839Y-115073540D01*
X149672643Y-114628852D01*
X149416159Y-114542446D01*
X148515605Y-115443000D01*
X148529748Y-115457143D01*
X148350143Y-115636748D01*
X148336000Y-115622605D01*
X147435446Y-116523159D01*
X117221000Y-116523159D01*
X117221000Y-115202336D01*
X146789542Y-115202336D01*
X146815161Y-115812460D01*
X146999357Y-116257148D01*
X147255841Y-116343554D01*
X148156395Y-115443000D01*
X147255841Y-114542446D01*
X146999357Y-114628852D01*
X146789542Y-115202336D01*
X117221000Y-115202336D01*
X117221000Y-103046991D01*
X146800735Y-103046991D01*
X147033932Y-103611371D01*
X147435182Y-104013323D01*
X147035449Y-104412357D01*
X146801267Y-104976330D01*
X146800735Y-105586991D01*
X147033932Y-106151371D01*
X147435182Y-106553323D01*
X147035449Y-106952357D01*
X146801267Y-107516330D01*
X146800735Y-108126991D01*
X147033932Y-108691371D01*
X147435182Y-109093323D01*
X147035449Y-109492357D01*
X146801267Y-110056330D01*
X146800735Y-110666991D01*
X147033932Y-111231371D01*
X147435182Y-111633323D01*
X147035449Y-112032357D01*
X146801267Y-112596330D01*
X146800735Y-113206991D01*
X147033932Y-113771371D01*
X147465357Y-114203551D01*
X147486194Y-114212203D01*
X147435446Y-114362841D01*
X148336000Y-115263395D01*
X149236554Y-114362841D01*
X149185965Y-114212673D01*
X149204371Y-114205068D01*
X149636551Y-113773643D01*
X149870733Y-113209670D01*
X149871265Y-112599009D01*
X149638068Y-112034629D01*
X149236818Y-111632677D01*
X149636551Y-111233643D01*
X149870733Y-110669670D01*
X149871265Y-110059009D01*
X149638068Y-109494629D01*
X149236818Y-109092677D01*
X149636551Y-108693643D01*
X149870733Y-108129670D01*
X149871265Y-107519009D01*
X149638068Y-106954629D01*
X149236818Y-106552677D01*
X149636551Y-106153643D01*
X149870733Y-105589670D01*
X149871265Y-104979009D01*
X149638068Y-104414629D01*
X149236818Y-104012677D01*
X149636551Y-103613643D01*
X149870733Y-103049670D01*
X149871265Y-102439009D01*
X149638068Y-101874629D01*
X149206643Y-101442449D01*
X148642670Y-101208267D01*
X148032009Y-101207735D01*
X147467629Y-101440932D01*
X147035449Y-101872357D01*
X146801267Y-102436330D01*
X146800735Y-103046991D01*
X117221000Y-103046991D01*
X117221000Y-52959461D01*
X187071000Y-53212541D01*
G36*
X178738060Y-80005721D02*
X178989950Y-80056730D01*
X179628202Y-80056730D01*
X179488509Y-80146620D01*
X179343519Y-80358820D01*
X179292510Y-80610710D01*
X179292510Y-82411570D01*
X179336788Y-82646887D01*
X179455000Y-82830594D01*
X179455000Y-84962995D01*
X179454999Y-84963000D01*
X179488681Y-85132325D01*
X179522367Y-85301675D01*
X179607225Y-85428674D01*
X179714210Y-85588790D01*
X182122000Y-87996579D01*
X182122000Y-88808259D01*
X182056485Y-88742629D01*
X181602734Y-88554215D01*
X181372594Y-88554014D01*
X181092790Y-88274210D01*
X181065222Y-88255790D01*
X180805675Y-88082367D01*
X180749484Y-88071190D01*
X180467000Y-88014999D01*
X180466995Y-88015000D01*
X169164000Y-88015000D01*
X168825325Y-88082367D01*
X168538210Y-88274210D01*
X168538208Y-88274213D01*
X167014210Y-89798210D01*
X166822367Y-90085325D01*
X166822367Y-90085326D01*
X166754999Y-90424000D01*
X166755000Y-90424005D01*
X166755000Y-90473773D01*
X166670000Y-90456560D01*
X166070000Y-90456560D01*
X165834683Y-90500838D01*
X165618559Y-90639910D01*
X165473569Y-90852110D01*
X165422560Y-91104000D01*
X165422560Y-92604000D01*
X165466838Y-92839317D01*
X165605910Y-93055441D01*
X165818110Y-93200431D01*
X166070000Y-93251440D01*
X166670000Y-93251440D01*
X166755000Y-93235446D01*
X166755000Y-94492000D01*
X161516796Y-94492000D01*
X161482485Y-94457629D01*
X161028734Y-94269215D01*
X160537421Y-94268786D01*
X160083343Y-94456408D01*
X160016000Y-94523633D01*
X160016000Y-86739750D01*
X165435000Y-86739750D01*
X165435000Y-87330309D01*
X165531673Y-87563698D01*
X165710301Y-87742327D01*
X165943690Y-87839000D01*
X166084250Y-87839000D01*
X166243000Y-87680250D01*
X166243000Y-86581000D01*
X165593750Y-86581000D01*
X165435000Y-86739750D01*
X160016000Y-86739750D01*
X160016000Y-85090000D01*
X159948633Y-84751325D01*
X159756790Y-84464210D01*
X159756787Y-84464208D01*
X158351589Y-83059010D01*
X158411290Y-83059010D01*
X160814068Y-85461787D01*
X160814070Y-85461790D01*
X161031708Y-85607210D01*
X161101185Y-85653633D01*
X161439860Y-85721001D01*
X161439865Y-85721000D01*
X165435000Y-85721000D01*
X165435000Y-86168250D01*
X165593750Y-86327000D01*
X166243000Y-86327000D01*
X166243000Y-86307000D01*
X166497000Y-86307000D01*
X166497000Y-86327000D01*
X166517000Y-86327000D01*
X166517000Y-86581000D01*
X166497000Y-86581000D01*
X166497000Y-87680250D01*
X166655750Y-87839000D01*
X166796310Y-87839000D01*
X167013122Y-87749194D01*
X167088110Y-87800431D01*
X167340000Y-87851440D01*
X167940000Y-87851440D01*
X168175317Y-87807162D01*
X168274528Y-87743322D01*
X168358110Y-87800431D01*
X168610000Y-87851440D01*
X169210000Y-87851440D01*
X169445317Y-87807162D01*
X169544528Y-87743322D01*
X169628110Y-87800431D01*
X169880000Y-87851440D01*
X170480000Y-87851440D01*
X170715317Y-87807162D01*
X170814528Y-87743322D01*
X170898110Y-87800431D01*
X171150000Y-87851440D01*
X171750000Y-87851440D01*
X171985317Y-87807162D01*
X172084528Y-87743322D01*
X172168110Y-87800431D01*
X172420000Y-87851440D01*
X173020000Y-87851440D01*
X173255317Y-87807162D01*
X173354528Y-87743322D01*
X173438110Y-87800431D01*
X173690000Y-87851440D01*
X174290000Y-87851440D01*
X174525317Y-87807162D01*
X174624528Y-87743322D01*
X174708110Y-87800431D01*
X174960000Y-87851440D01*
X175560000Y-87851440D01*
X175795317Y-87807162D01*
X176011441Y-87668090D01*
X176156431Y-87455890D01*
X176207440Y-87204000D01*
X176207440Y-85775140D01*
X177536787Y-84445792D01*
X177536790Y-84445790D01*
X177728633Y-84158675D01*
X177728634Y-84158674D01*
X177796001Y-83820000D01*
X177796000Y-83819995D01*
X177796000Y-82826618D01*
X177907481Y-82663460D01*
X177958490Y-82411570D01*
X177958490Y-80610710D01*
X177914212Y-80375393D01*
X177775140Y-80159269D01*
X177625069Y-80056730D01*
X178261050Y-80056730D01*
X178496367Y-80012452D01*
X178625911Y-79929093D01*
X178738060Y-80005721D01*
X178738060Y-80005721D01*
G37*
X178738060Y-80005721D02*
X178989950Y-80056730D01*
X179628202Y-80056730D01*
X179488509Y-80146620D01*
X179343519Y-80358820D01*
X179292510Y-80610710D01*
X179292510Y-82411570D01*
X179336788Y-82646887D01*
X179455000Y-82830594D01*
X179455000Y-84962995D01*
X179454999Y-84963000D01*
X179488681Y-85132325D01*
X179522367Y-85301675D01*
X179607225Y-85428674D01*
X179714210Y-85588790D01*
X182122000Y-87996579D01*
X182122000Y-88808259D01*
X182056485Y-88742629D01*
X181602734Y-88554215D01*
X181372594Y-88554014D01*
X181092790Y-88274210D01*
X181065222Y-88255790D01*
X180805675Y-88082367D01*
X180749484Y-88071190D01*
X180467000Y-88014999D01*
X180466995Y-88015000D01*
X169164000Y-88015000D01*
X168825325Y-88082367D01*
X168538210Y-88274210D01*
X168538208Y-88274213D01*
X167014210Y-89798210D01*
X166822367Y-90085325D01*
X166822367Y-90085326D01*
X166754999Y-90424000D01*
X166755000Y-90424005D01*
X166755000Y-90473773D01*
X166670000Y-90456560D01*
X166070000Y-90456560D01*
X165834683Y-90500838D01*
X165618559Y-90639910D01*
X165473569Y-90852110D01*
X165422560Y-91104000D01*
X165422560Y-92604000D01*
X165466838Y-92839317D01*
X165605910Y-93055441D01*
X165818110Y-93200431D01*
X166070000Y-93251440D01*
X166670000Y-93251440D01*
X166755000Y-93235446D01*
X166755000Y-94492000D01*
X161516796Y-94492000D01*
X161482485Y-94457629D01*
X161028734Y-94269215D01*
X160537421Y-94268786D01*
X160083343Y-94456408D01*
X160016000Y-94523633D01*
X160016000Y-86739750D01*
X165435000Y-86739750D01*
X165435000Y-87330309D01*
X165531673Y-87563698D01*
X165710301Y-87742327D01*
X165943690Y-87839000D01*
X166084250Y-87839000D01*
X166243000Y-87680250D01*
X166243000Y-86581000D01*
X165593750Y-86581000D01*
X165435000Y-86739750D01*
X160016000Y-86739750D01*
X160016000Y-85090000D01*
X159948633Y-84751325D01*
X159756790Y-84464210D01*
X159756787Y-84464208D01*
X158351589Y-83059010D01*
X158411290Y-83059010D01*
X160814068Y-85461787D01*
X160814070Y-85461790D01*
X161031708Y-85607210D01*
X161101185Y-85653633D01*
X161439860Y-85721001D01*
X161439865Y-85721000D01*
X165435000Y-85721000D01*
X165435000Y-86168250D01*
X165593750Y-86327000D01*
X166243000Y-86327000D01*
X166243000Y-86307000D01*
X166497000Y-86307000D01*
X166497000Y-86327000D01*
X166517000Y-86327000D01*
X166517000Y-86581000D01*
X166497000Y-86581000D01*
X166497000Y-87680250D01*
X166655750Y-87839000D01*
X166796310Y-87839000D01*
X167013122Y-87749194D01*
X167088110Y-87800431D01*
X167340000Y-87851440D01*
X167940000Y-87851440D01*
X168175317Y-87807162D01*
X168274528Y-87743322D01*
X168358110Y-87800431D01*
X168610000Y-87851440D01*
X169210000Y-87851440D01*
X169445317Y-87807162D01*
X169544528Y-87743322D01*
X169628110Y-87800431D01*
X169880000Y-87851440D01*
X170480000Y-87851440D01*
X170715317Y-87807162D01*
X170814528Y-87743322D01*
X170898110Y-87800431D01*
X171150000Y-87851440D01*
X171750000Y-87851440D01*
X171985317Y-87807162D01*
X172084528Y-87743322D01*
X172168110Y-87800431D01*
X172420000Y-87851440D01*
X173020000Y-87851440D01*
X173255317Y-87807162D01*
X173354528Y-87743322D01*
X173438110Y-87800431D01*
X173690000Y-87851440D01*
X174290000Y-87851440D01*
X174525317Y-87807162D01*
X174624528Y-87743322D01*
X174708110Y-87800431D01*
X174960000Y-87851440D01*
X175560000Y-87851440D01*
X175795317Y-87807162D01*
X176011441Y-87668090D01*
X176156431Y-87455890D01*
X176207440Y-87204000D01*
X176207440Y-85775140D01*
X177536787Y-84445792D01*
X177536790Y-84445790D01*
X177728633Y-84158675D01*
X177728634Y-84158674D01*
X177796001Y-83820000D01*
X177796000Y-83819995D01*
X177796000Y-82826618D01*
X177907481Y-82663460D01*
X177958490Y-82411570D01*
X177958490Y-80610710D01*
X177914212Y-80375393D01*
X177775140Y-80159269D01*
X177625069Y-80056730D01*
X178261050Y-80056730D01*
X178496367Y-80012452D01*
X178625911Y-79929093D01*
X178738060Y-80005721D01*
M02*
