G04 #@! TF.FileFunction,Soldermask,Bot*
%FSLAX46Y46*%
G04 Gerber Fmt 4.6, Leading zero omitted, Abs format (unit mm)*
G04 Created by KiCad (PCBNEW 4.0.2+dfsg1-stable) date Ne 28. apríl 2019, 22:46:11 CEST*
%MOMM*%
G01*
G04 APERTURE LIST*
%ADD10C,0.100000*%
%ADD11C,1.924000*%
%ADD12R,1.700000X1.900000*%
%ADD13R,1.900000X1.700000*%
%ADD14R,1.000000X1.900000*%
%ADD15R,6.400000X3.400000*%
%ADD16R,2.400000X2.400000*%
%ADD17C,2.400000*%
%ADD18R,2.100000X2.100000*%
%ADD19C,2.100000*%
%ADD20R,2.200860X1.200100*%
%ADD21R,2.900000X2.900000*%
G04 APERTURE END LIST*
D10*
D11*
X172720000Y-56515000D03*
X172720000Y-59055000D03*
X172720000Y-61595000D03*
X172720000Y-64135000D03*
X172720000Y-66675000D03*
X172720000Y-69215000D03*
X180340000Y-69215000D03*
X180340000Y-66675000D03*
X180340000Y-64135000D03*
X180340000Y-61595000D03*
X180340000Y-59055000D03*
X180340000Y-56515000D03*
X160020000Y-56515000D03*
X160020000Y-59055000D03*
X160020000Y-61595000D03*
X160020000Y-64135000D03*
X160020000Y-66675000D03*
X160020000Y-69215000D03*
X167640000Y-69215000D03*
X167640000Y-66675000D03*
X167640000Y-64135000D03*
X167640000Y-61595000D03*
X167640000Y-59055000D03*
X167640000Y-56515000D03*
X147320000Y-56515000D03*
X147320000Y-59055000D03*
X147320000Y-61595000D03*
X147320000Y-64135000D03*
X147320000Y-66675000D03*
X147320000Y-69215000D03*
X154940000Y-69215000D03*
X154940000Y-66675000D03*
X154940000Y-64135000D03*
X154940000Y-61595000D03*
X154940000Y-59055000D03*
X154940000Y-56515000D03*
D12*
X185420000Y-56435000D03*
X185420000Y-59135000D03*
X183515000Y-61515000D03*
X183515000Y-64215000D03*
X182880000Y-67865000D03*
X182880000Y-70565000D03*
X177800000Y-64690000D03*
X177800000Y-67390000D03*
X175260000Y-64690000D03*
X175260000Y-67390000D03*
X163195000Y-69770000D03*
X163195000Y-72470000D03*
D13*
X154860000Y-74295000D03*
X157560000Y-74295000D03*
D14*
X175260000Y-91854000D03*
X173990000Y-91854000D03*
X172720000Y-91854000D03*
X171450000Y-91854000D03*
X170180000Y-91854000D03*
X168910000Y-91854000D03*
X167640000Y-91854000D03*
X166370000Y-91854000D03*
X166370000Y-86454000D03*
X167640000Y-86454000D03*
X168910000Y-86454000D03*
X170180000Y-86454000D03*
X171450000Y-86454000D03*
X172720000Y-86454000D03*
X173990000Y-86454000D03*
X175260000Y-86454000D03*
D15*
X165936000Y-105438000D03*
X165936000Y-109938000D03*
X165936000Y-114338000D03*
D16*
X120904000Y-118872000D03*
D17*
X120904000Y-116332000D03*
X120904000Y-113792000D03*
X120904000Y-111252000D03*
X120904000Y-108712000D03*
X120904000Y-106172000D03*
D18*
X165100000Y-129540000D03*
D19*
X167100000Y-129540000D03*
D11*
X121920000Y-56515000D03*
X121920000Y-59055000D03*
X121920000Y-61595000D03*
X121920000Y-64135000D03*
X121920000Y-66675000D03*
X121920000Y-69215000D03*
X129540000Y-69215000D03*
X129540000Y-66675000D03*
X129540000Y-64135000D03*
X129540000Y-61595000D03*
X129540000Y-59055000D03*
X129540000Y-56515000D03*
X134620000Y-56515000D03*
X134620000Y-59055000D03*
X134620000Y-61595000D03*
X134620000Y-64135000D03*
X134620000Y-66675000D03*
X134620000Y-69215000D03*
X142240000Y-69215000D03*
X142240000Y-66675000D03*
X142240000Y-64135000D03*
X142240000Y-61595000D03*
X142240000Y-59055000D03*
X142240000Y-56515000D03*
D20*
X167408860Y-78420000D03*
X167408860Y-76520000D03*
X170411140Y-77470000D03*
X162963860Y-81595000D03*
X162963860Y-79695000D03*
X165966140Y-80645000D03*
X159788860Y-78420000D03*
X159788860Y-76520000D03*
X162791140Y-77470000D03*
X182013860Y-78420000D03*
X182013860Y-76520000D03*
X185016140Y-77470000D03*
X178838860Y-81595000D03*
X178838860Y-79695000D03*
X181841140Y-80645000D03*
X175663860Y-78420000D03*
X175663860Y-76520000D03*
X178666140Y-77470000D03*
X170583860Y-81595000D03*
X170583860Y-79695000D03*
X173586140Y-80645000D03*
D11*
X183594000Y-106712000D03*
X180594000Y-106712000D03*
X177594000Y-106712000D03*
D21*
X185180000Y-136684000D03*
X172180000Y-136684000D03*
X182180000Y-113684000D03*
X175180000Y-113684000D03*
X178054000Y-100076000D03*
D17*
X180594000Y-100076000D03*
X183134000Y-100076000D03*
M02*
