G04 #@! TF.FileFunction,Legend,Bot*
%FSLAX46Y46*%
G04 Gerber Fmt 4.6, Leading zero omitted, Abs format (unit mm)*
G04 Created by KiCad (PCBNEW 4.0.2+dfsg1-stable) date Pi  3. máj 2019, 19:30:47 CEST*
%MOMM*%
G01*
G04 APERTURE LIST*
%ADD10C,0.100000*%
%ADD11C,0.150000*%
G04 APERTURE END LIST*
D10*
D11*
X165811200Y-82017820D02*
X166512240Y-82017820D01*
X166512240Y-82017820D02*
X166512240Y-81768900D01*
X166512240Y-79218840D02*
X166512240Y-79018180D01*
X166512240Y-79018180D02*
X165811200Y-79018180D01*
X171907200Y-82017820D02*
X172608240Y-82017820D01*
X172608240Y-82017820D02*
X172608240Y-81768900D01*
X172608240Y-79218840D02*
X172608240Y-79018180D01*
X172608240Y-79018180D02*
X171907200Y-79018180D01*
X178003200Y-82017820D02*
X178704240Y-82017820D01*
X178704240Y-82017820D02*
X178704240Y-81768900D01*
X178704240Y-79218840D02*
X178704240Y-79018180D01*
X178704240Y-79018180D02*
X178003200Y-79018180D01*
X184353200Y-82271820D02*
X185054240Y-82271820D01*
X185054240Y-82271820D02*
X185054240Y-82022900D01*
X185054240Y-79472840D02*
X185054240Y-79272180D01*
X185054240Y-79272180D02*
X184353200Y-79272180D01*
X146253200Y-82017820D02*
X146954240Y-82017820D01*
X146954240Y-82017820D02*
X146954240Y-81768900D01*
X146954240Y-79218840D02*
X146954240Y-79018180D01*
X146954240Y-79018180D02*
X146253200Y-79018180D01*
X152603200Y-82017820D02*
X153304240Y-82017820D01*
X153304240Y-82017820D02*
X153304240Y-81768900D01*
X153304240Y-79218840D02*
X153304240Y-79018180D01*
X153304240Y-79018180D02*
X152603200Y-79018180D01*
X159207200Y-82017820D02*
X159908240Y-82017820D01*
X159908240Y-82017820D02*
X159908240Y-81768900D01*
X159908240Y-79218840D02*
X159908240Y-79018180D01*
X159908240Y-79018180D02*
X159207200Y-79018180D01*
X175890000Y-91229000D02*
X175785000Y-91229000D01*
X175890000Y-87079000D02*
X175785000Y-87079000D01*
X165740000Y-87079000D02*
X165845000Y-87079000D01*
X165740000Y-91229000D02*
X165845000Y-91229000D01*
X175890000Y-91229000D02*
X175890000Y-87079000D01*
X165740000Y-91229000D02*
X165740000Y-87079000D01*
X175785000Y-91229000D02*
X175785000Y-92604000D01*
X122936000Y-98938000D02*
X162936000Y-98938000D01*
X162936000Y-98938000D02*
X162936000Y-138838000D01*
X162936000Y-138838000D02*
X162936000Y-138938000D01*
X162936000Y-138938000D02*
X122936000Y-138938000D01*
X122936000Y-138938000D02*
X122936000Y-98938000D01*
D10*
X170180000Y-138684000D02*
X170180000Y-111684000D01*
X170180000Y-111684000D02*
X183180000Y-111684000D01*
X183180000Y-111684000D02*
X187180000Y-111684000D01*
X187180000Y-111684000D02*
X187180000Y-138684000D01*
X187180000Y-138684000D02*
X170180000Y-138684000D01*
D11*
X170219619Y-80422762D02*
X170172000Y-80327524D01*
X170076762Y-80232286D01*
X169933905Y-80089429D01*
X169886286Y-79994190D01*
X169886286Y-79898952D01*
X170124381Y-79946571D02*
X170076762Y-79851333D01*
X169981524Y-79756095D01*
X169791048Y-79708476D01*
X169457714Y-79708476D01*
X169267238Y-79756095D01*
X169172000Y-79851333D01*
X169124381Y-79946571D01*
X169124381Y-80137048D01*
X169172000Y-80232286D01*
X169267238Y-80327524D01*
X169457714Y-80375143D01*
X169791048Y-80375143D01*
X169981524Y-80327524D01*
X170076762Y-80232286D01*
X170124381Y-80137048D01*
X170124381Y-79946571D01*
X169457714Y-81232286D02*
X170124381Y-81232286D01*
X169076762Y-80994190D02*
X169791048Y-80756095D01*
X169791048Y-81375143D01*
X176315619Y-80422762D02*
X176268000Y-80327524D01*
X176172762Y-80232286D01*
X176029905Y-80089429D01*
X175982286Y-79994190D01*
X175982286Y-79898952D01*
X176220381Y-79946571D02*
X176172762Y-79851333D01*
X176077524Y-79756095D01*
X175887048Y-79708476D01*
X175553714Y-79708476D01*
X175363238Y-79756095D01*
X175268000Y-79851333D01*
X175220381Y-79946571D01*
X175220381Y-80137048D01*
X175268000Y-80232286D01*
X175363238Y-80327524D01*
X175553714Y-80375143D01*
X175887048Y-80375143D01*
X176077524Y-80327524D01*
X176172762Y-80232286D01*
X176220381Y-80137048D01*
X176220381Y-79946571D01*
X175220381Y-80708476D02*
X175220381Y-81327524D01*
X175601333Y-80994190D01*
X175601333Y-81137048D01*
X175648952Y-81232286D01*
X175696571Y-81279905D01*
X175791810Y-81327524D01*
X176029905Y-81327524D01*
X176125143Y-81279905D01*
X176172762Y-81232286D01*
X176220381Y-81137048D01*
X176220381Y-80851333D01*
X176172762Y-80756095D01*
X176125143Y-80708476D01*
X182411619Y-80422762D02*
X182364000Y-80327524D01*
X182268762Y-80232286D01*
X182125905Y-80089429D01*
X182078286Y-79994190D01*
X182078286Y-79898952D01*
X182316381Y-79946571D02*
X182268762Y-79851333D01*
X182173524Y-79756095D01*
X181983048Y-79708476D01*
X181649714Y-79708476D01*
X181459238Y-79756095D01*
X181364000Y-79851333D01*
X181316381Y-79946571D01*
X181316381Y-80137048D01*
X181364000Y-80232286D01*
X181459238Y-80327524D01*
X181649714Y-80375143D01*
X181983048Y-80375143D01*
X182173524Y-80327524D01*
X182268762Y-80232286D01*
X182316381Y-80137048D01*
X182316381Y-79946571D01*
X181411619Y-80756095D02*
X181364000Y-80803714D01*
X181316381Y-80898952D01*
X181316381Y-81137048D01*
X181364000Y-81232286D01*
X181411619Y-81279905D01*
X181506857Y-81327524D01*
X181602095Y-81327524D01*
X181744952Y-81279905D01*
X182316381Y-80708476D01*
X182316381Y-81327524D01*
X188761619Y-80676762D02*
X188714000Y-80581524D01*
X188618762Y-80486286D01*
X188475905Y-80343429D01*
X188428286Y-80248190D01*
X188428286Y-80152952D01*
X188666381Y-80200571D02*
X188618762Y-80105333D01*
X188523524Y-80010095D01*
X188333048Y-79962476D01*
X187999714Y-79962476D01*
X187809238Y-80010095D01*
X187714000Y-80105333D01*
X187666381Y-80200571D01*
X187666381Y-80391048D01*
X187714000Y-80486286D01*
X187809238Y-80581524D01*
X187999714Y-80629143D01*
X188333048Y-80629143D01*
X188523524Y-80581524D01*
X188618762Y-80486286D01*
X188666381Y-80391048D01*
X188666381Y-80200571D01*
X188666381Y-81581524D02*
X188666381Y-81010095D01*
X188666381Y-81295809D02*
X187666381Y-81295809D01*
X187809238Y-81200571D01*
X187904476Y-81105333D01*
X187952095Y-81010095D01*
X150661619Y-80422762D02*
X150614000Y-80327524D01*
X150518762Y-80232286D01*
X150375905Y-80089429D01*
X150328286Y-79994190D01*
X150328286Y-79898952D01*
X150566381Y-79946571D02*
X150518762Y-79851333D01*
X150423524Y-79756095D01*
X150233048Y-79708476D01*
X149899714Y-79708476D01*
X149709238Y-79756095D01*
X149614000Y-79851333D01*
X149566381Y-79946571D01*
X149566381Y-80137048D01*
X149614000Y-80232286D01*
X149709238Y-80327524D01*
X149899714Y-80375143D01*
X150233048Y-80375143D01*
X150423524Y-80327524D01*
X150518762Y-80232286D01*
X150566381Y-80137048D01*
X150566381Y-79946571D01*
X149566381Y-80708476D02*
X149566381Y-81375143D01*
X150566381Y-80946571D01*
X157011619Y-80422762D02*
X156964000Y-80327524D01*
X156868762Y-80232286D01*
X156725905Y-80089429D01*
X156678286Y-79994190D01*
X156678286Y-79898952D01*
X156916381Y-79946571D02*
X156868762Y-79851333D01*
X156773524Y-79756095D01*
X156583048Y-79708476D01*
X156249714Y-79708476D01*
X156059238Y-79756095D01*
X155964000Y-79851333D01*
X155916381Y-79946571D01*
X155916381Y-80137048D01*
X155964000Y-80232286D01*
X156059238Y-80327524D01*
X156249714Y-80375143D01*
X156583048Y-80375143D01*
X156773524Y-80327524D01*
X156868762Y-80232286D01*
X156916381Y-80137048D01*
X156916381Y-79946571D01*
X155916381Y-81232286D02*
X155916381Y-81041809D01*
X155964000Y-80946571D01*
X156011619Y-80898952D01*
X156154476Y-80803714D01*
X156344952Y-80756095D01*
X156725905Y-80756095D01*
X156821143Y-80803714D01*
X156868762Y-80851333D01*
X156916381Y-80946571D01*
X156916381Y-81137048D01*
X156868762Y-81232286D01*
X156821143Y-81279905D01*
X156725905Y-81327524D01*
X156487810Y-81327524D01*
X156392571Y-81279905D01*
X156344952Y-81232286D01*
X156297333Y-81137048D01*
X156297333Y-80946571D01*
X156344952Y-80851333D01*
X156392571Y-80803714D01*
X156487810Y-80756095D01*
X163615619Y-80422762D02*
X163568000Y-80327524D01*
X163472762Y-80232286D01*
X163329905Y-80089429D01*
X163282286Y-79994190D01*
X163282286Y-79898952D01*
X163520381Y-79946571D02*
X163472762Y-79851333D01*
X163377524Y-79756095D01*
X163187048Y-79708476D01*
X162853714Y-79708476D01*
X162663238Y-79756095D01*
X162568000Y-79851333D01*
X162520381Y-79946571D01*
X162520381Y-80137048D01*
X162568000Y-80232286D01*
X162663238Y-80327524D01*
X162853714Y-80375143D01*
X163187048Y-80375143D01*
X163377524Y-80327524D01*
X163472762Y-80232286D01*
X163520381Y-80137048D01*
X163520381Y-79946571D01*
X162520381Y-81279905D02*
X162520381Y-80803714D01*
X162996571Y-80756095D01*
X162948952Y-80803714D01*
X162901333Y-80898952D01*
X162901333Y-81137048D01*
X162948952Y-81232286D01*
X162996571Y-81279905D01*
X163091810Y-81327524D01*
X163329905Y-81327524D01*
X163425143Y-81279905D01*
X163472762Y-81232286D01*
X163520381Y-81137048D01*
X163520381Y-80898952D01*
X163472762Y-80803714D01*
X163425143Y-80756095D01*
X116730381Y-115486095D02*
X117539905Y-115486095D01*
X117635143Y-115533714D01*
X117682762Y-115581333D01*
X117730381Y-115676571D01*
X117730381Y-115867048D01*
X117682762Y-115962286D01*
X117635143Y-116009905D01*
X117539905Y-116057524D01*
X116730381Y-116057524D01*
X116730381Y-116962286D02*
X116730381Y-116771809D01*
X116778000Y-116676571D01*
X116825619Y-116628952D01*
X116968476Y-116533714D01*
X117158952Y-116486095D01*
X117539905Y-116486095D01*
X117635143Y-116533714D01*
X117682762Y-116581333D01*
X117730381Y-116676571D01*
X117730381Y-116867048D01*
X117682762Y-116962286D01*
X117635143Y-117009905D01*
X117539905Y-117057524D01*
X117301810Y-117057524D01*
X117206571Y-117009905D01*
X117158952Y-116962286D01*
X117111333Y-116867048D01*
X117111333Y-116676571D01*
X117158952Y-116581333D01*
X117206571Y-116533714D01*
X117301810Y-116486095D01*
X176886429Y-86225429D02*
X176886429Y-86987334D01*
X177267381Y-88034953D02*
X176791190Y-87701619D01*
X177267381Y-87463524D02*
X176267381Y-87463524D01*
X176267381Y-87844477D01*
X176315000Y-87939715D01*
X176362619Y-87987334D01*
X176457857Y-88034953D01*
X176600714Y-88034953D01*
X176695952Y-87987334D01*
X176743571Y-87939715D01*
X176791190Y-87844477D01*
X176791190Y-87463524D01*
X176267381Y-88654000D02*
X176267381Y-88844477D01*
X176315000Y-88939715D01*
X176410238Y-89034953D01*
X176600714Y-89082572D01*
X176934048Y-89082572D01*
X177124524Y-89034953D01*
X177219762Y-88939715D01*
X177267381Y-88844477D01*
X177267381Y-88654000D01*
X177219762Y-88558762D01*
X177124524Y-88463524D01*
X176934048Y-88415905D01*
X176600714Y-88415905D01*
X176410238Y-88463524D01*
X176315000Y-88558762D01*
X176267381Y-88654000D01*
X176267381Y-89415905D02*
X177267381Y-89654000D01*
X176553095Y-89844477D01*
X177267381Y-90034953D01*
X176267381Y-90273048D01*
X177219762Y-90606381D02*
X177267381Y-90749238D01*
X177267381Y-90987334D01*
X177219762Y-91082572D01*
X177172143Y-91130191D01*
X177076905Y-91177810D01*
X176981667Y-91177810D01*
X176886429Y-91130191D01*
X176838810Y-91082572D01*
X176791190Y-90987334D01*
X176743571Y-90796857D01*
X176695952Y-90701619D01*
X176648333Y-90654000D01*
X176553095Y-90606381D01*
X176457857Y-90606381D01*
X176362619Y-90654000D01*
X176315000Y-90701619D01*
X176267381Y-90796857D01*
X176267381Y-91034953D01*
X176315000Y-91177810D01*
X177267381Y-92130191D02*
X177267381Y-91558762D01*
X177267381Y-91844476D02*
X176267381Y-91844476D01*
X176410238Y-91749238D01*
X176505476Y-91654000D01*
X176553095Y-91558762D01*
X186902381Y-73904762D02*
X186426190Y-73571428D01*
X186902381Y-73333333D02*
X185902381Y-73333333D01*
X185902381Y-73714286D01*
X185950000Y-73809524D01*
X185997619Y-73857143D01*
X186092857Y-73904762D01*
X186235714Y-73904762D01*
X186330952Y-73857143D01*
X186378571Y-73809524D01*
X186426190Y-73714286D01*
X186426190Y-73333333D01*
X185902381Y-74190476D02*
X186902381Y-74523809D01*
X185902381Y-74857143D01*
X186902381Y-75714286D02*
X186902381Y-75142857D01*
X186902381Y-75428571D02*
X185902381Y-75428571D01*
X186045238Y-75333333D01*
X186140476Y-75238095D01*
X186188095Y-75142857D01*
X180552381Y-73904762D02*
X180076190Y-73571428D01*
X180552381Y-73333333D02*
X179552381Y-73333333D01*
X179552381Y-73714286D01*
X179600000Y-73809524D01*
X179647619Y-73857143D01*
X179742857Y-73904762D01*
X179885714Y-73904762D01*
X179980952Y-73857143D01*
X180028571Y-73809524D01*
X180076190Y-73714286D01*
X180076190Y-73333333D01*
X179552381Y-74190476D02*
X180552381Y-74523809D01*
X179552381Y-74857143D01*
X179647619Y-75142857D02*
X179600000Y-75190476D01*
X179552381Y-75285714D01*
X179552381Y-75523810D01*
X179600000Y-75619048D01*
X179647619Y-75666667D01*
X179742857Y-75714286D01*
X179838095Y-75714286D01*
X179980952Y-75666667D01*
X180552381Y-75095238D01*
X180552381Y-75714286D01*
X174710381Y-73904762D02*
X174234190Y-73571428D01*
X174710381Y-73333333D02*
X173710381Y-73333333D01*
X173710381Y-73714286D01*
X173758000Y-73809524D01*
X173805619Y-73857143D01*
X173900857Y-73904762D01*
X174043714Y-73904762D01*
X174138952Y-73857143D01*
X174186571Y-73809524D01*
X174234190Y-73714286D01*
X174234190Y-73333333D01*
X173710381Y-74190476D02*
X174710381Y-74523809D01*
X173710381Y-74857143D01*
X173710381Y-75095238D02*
X173710381Y-75714286D01*
X174091333Y-75380952D01*
X174091333Y-75523810D01*
X174138952Y-75619048D01*
X174186571Y-75666667D01*
X174281810Y-75714286D01*
X174519905Y-75714286D01*
X174615143Y-75666667D01*
X174662762Y-75619048D01*
X174710381Y-75523810D01*
X174710381Y-75238095D01*
X174662762Y-75142857D01*
X174615143Y-75095238D01*
X168360381Y-74158762D02*
X167884190Y-73825428D01*
X168360381Y-73587333D02*
X167360381Y-73587333D01*
X167360381Y-73968286D01*
X167408000Y-74063524D01*
X167455619Y-74111143D01*
X167550857Y-74158762D01*
X167693714Y-74158762D01*
X167788952Y-74111143D01*
X167836571Y-74063524D01*
X167884190Y-73968286D01*
X167884190Y-73587333D01*
X167360381Y-74444476D02*
X168360381Y-74777809D01*
X167360381Y-75111143D01*
X167693714Y-75873048D02*
X168360381Y-75873048D01*
X167312762Y-75634952D02*
X168027048Y-75396857D01*
X168027048Y-76015905D01*
X162010381Y-74158762D02*
X161534190Y-73825428D01*
X162010381Y-73587333D02*
X161010381Y-73587333D01*
X161010381Y-73968286D01*
X161058000Y-74063524D01*
X161105619Y-74111143D01*
X161200857Y-74158762D01*
X161343714Y-74158762D01*
X161438952Y-74111143D01*
X161486571Y-74063524D01*
X161534190Y-73968286D01*
X161534190Y-73587333D01*
X161010381Y-74444476D02*
X162010381Y-74777809D01*
X161010381Y-75111143D01*
X161010381Y-75920667D02*
X161010381Y-75444476D01*
X161486571Y-75396857D01*
X161438952Y-75444476D01*
X161391333Y-75539714D01*
X161391333Y-75777810D01*
X161438952Y-75873048D01*
X161486571Y-75920667D01*
X161581810Y-75968286D01*
X161819905Y-75968286D01*
X161915143Y-75920667D01*
X161962762Y-75873048D01*
X162010381Y-75777810D01*
X162010381Y-75539714D01*
X161962762Y-75444476D01*
X161915143Y-75396857D01*
X155660381Y-74158762D02*
X155184190Y-73825428D01*
X155660381Y-73587333D02*
X154660381Y-73587333D01*
X154660381Y-73968286D01*
X154708000Y-74063524D01*
X154755619Y-74111143D01*
X154850857Y-74158762D01*
X154993714Y-74158762D01*
X155088952Y-74111143D01*
X155136571Y-74063524D01*
X155184190Y-73968286D01*
X155184190Y-73587333D01*
X154660381Y-74444476D02*
X155660381Y-74777809D01*
X154660381Y-75111143D01*
X154660381Y-75873048D02*
X154660381Y-75682571D01*
X154708000Y-75587333D01*
X154755619Y-75539714D01*
X154898476Y-75444476D01*
X155088952Y-75396857D01*
X155469905Y-75396857D01*
X155565143Y-75444476D01*
X155612762Y-75492095D01*
X155660381Y-75587333D01*
X155660381Y-75777810D01*
X155612762Y-75873048D01*
X155565143Y-75920667D01*
X155469905Y-75968286D01*
X155231810Y-75968286D01*
X155136571Y-75920667D01*
X155088952Y-75873048D01*
X155041333Y-75777810D01*
X155041333Y-75587333D01*
X155088952Y-75492095D01*
X155136571Y-75444476D01*
X155231810Y-75396857D01*
X149183381Y-73650762D02*
X148707190Y-73317428D01*
X149183381Y-73079333D02*
X148183381Y-73079333D01*
X148183381Y-73460286D01*
X148231000Y-73555524D01*
X148278619Y-73603143D01*
X148373857Y-73650762D01*
X148516714Y-73650762D01*
X148611952Y-73603143D01*
X148659571Y-73555524D01*
X148707190Y-73460286D01*
X148707190Y-73079333D01*
X148183381Y-73936476D02*
X149183381Y-74269809D01*
X148183381Y-74603143D01*
X148183381Y-74841238D02*
X148183381Y-75507905D01*
X149183381Y-75079333D01*
X138688381Y-118876095D02*
X139497905Y-118876095D01*
X139593143Y-118923714D01*
X139640762Y-118971333D01*
X139688381Y-119066571D01*
X139688381Y-119257048D01*
X139640762Y-119352286D01*
X139593143Y-119399905D01*
X139497905Y-119447524D01*
X138688381Y-119447524D01*
X138688381Y-119828476D02*
X138688381Y-120447524D01*
X139069333Y-120114190D01*
X139069333Y-120257048D01*
X139116952Y-120352286D01*
X139164571Y-120399905D01*
X139259810Y-120447524D01*
X139497905Y-120447524D01*
X139593143Y-120399905D01*
X139640762Y-120352286D01*
X139688381Y-120257048D01*
X139688381Y-119971333D01*
X139640762Y-119876095D01*
X139593143Y-119828476D01*
D10*
X164632381Y-135922095D02*
X165441905Y-135922095D01*
X165537143Y-135969714D01*
X165584762Y-136017333D01*
X165632381Y-136112571D01*
X165632381Y-136303048D01*
X165584762Y-136398286D01*
X165537143Y-136445905D01*
X165441905Y-136493524D01*
X164632381Y-136493524D01*
X164632381Y-137445905D02*
X164632381Y-136969714D01*
X165108571Y-136922095D01*
X165060952Y-136969714D01*
X165013333Y-137064952D01*
X165013333Y-137303048D01*
X165060952Y-137398286D01*
X165108571Y-137445905D01*
X165203810Y-137493524D01*
X165441905Y-137493524D01*
X165537143Y-137445905D01*
X165584762Y-137398286D01*
X165632381Y-137303048D01*
X165632381Y-137064952D01*
X165584762Y-136969714D01*
X165537143Y-136922095D01*
M02*
