G04 #@! TF.FileFunction,Copper,L2,Bot,Signal*
%FSLAX46Y46*%
G04 Gerber Fmt 4.6, Leading zero omitted, Abs format (unit mm)*
G04 Created by KiCad (PCBNEW 4.0.2+dfsg1-stable) date Pi  3. máj 2019, 19:30:47 CEST*
%MOMM*%
G01*
G04 APERTURE LIST*
%ADD10C,0.100000*%
%ADD11C,1.524000*%
%ADD12R,2.500000X2.500000*%
%ADD13C,2.000000*%
%ADD14R,1.800860X0.800100*%
%ADD15R,1.700000X1.700000*%
%ADD16C,1.700000*%
%ADD17R,2.000000X2.000000*%
%ADD18R,0.600000X1.500000*%
%ADD19R,1.400000X1.400000*%
%ADD20R,6.000000X3.000000*%
%ADD21R,2.000000X4.000000*%
%ADD22C,1.000000*%
%ADD23C,1.000000*%
%ADD24C,0.400000*%
%ADD25C,0.500000*%
%ADD26C,0.254000*%
G04 APERTURE END LIST*
D10*
D11*
X183594000Y-106712000D03*
X180594000Y-106712000D03*
X177594000Y-106712000D03*
D12*
X178054000Y-100076000D03*
D13*
X180594000Y-100076000D03*
X183134000Y-100076000D03*
D14*
X164360860Y-81468000D03*
X164360860Y-79568000D03*
X167363140Y-80518000D03*
X170456860Y-81468000D03*
X170456860Y-79568000D03*
X173459140Y-80518000D03*
X176552860Y-81468000D03*
X176552860Y-79568000D03*
X179555140Y-80518000D03*
X182902860Y-81722000D03*
X182902860Y-79822000D03*
X185905140Y-80772000D03*
X144802860Y-81468000D03*
X144802860Y-79568000D03*
X147805140Y-80518000D03*
X151152860Y-81468000D03*
X151152860Y-79568000D03*
X154155140Y-80518000D03*
X157756860Y-81468000D03*
X157756860Y-79568000D03*
X160759140Y-80518000D03*
D11*
X134620000Y-56515000D03*
X134620000Y-59055000D03*
X134620000Y-61595000D03*
X134620000Y-64135000D03*
X134620000Y-66675000D03*
X134620000Y-69215000D03*
X142240000Y-69215000D03*
X142240000Y-66675000D03*
X142240000Y-64135000D03*
X142240000Y-61595000D03*
X142240000Y-59055000D03*
X142240000Y-56515000D03*
X121920000Y-56515000D03*
X121920000Y-59055000D03*
X121920000Y-61595000D03*
X121920000Y-64135000D03*
X121920000Y-66675000D03*
X121920000Y-69215000D03*
X129540000Y-69215000D03*
X129540000Y-66675000D03*
X129540000Y-64135000D03*
X129540000Y-61595000D03*
X129540000Y-59055000D03*
X129540000Y-56515000D03*
D15*
X165100000Y-129540000D03*
D16*
X167100000Y-129540000D03*
D17*
X120318000Y-118788000D03*
D13*
X120318000Y-116248000D03*
X120318000Y-113708000D03*
X120318000Y-111168000D03*
X120318000Y-108628000D03*
X120318000Y-106088000D03*
D18*
X175260000Y-91854000D03*
X173990000Y-91854000D03*
X172720000Y-91854000D03*
X171450000Y-91854000D03*
X170180000Y-91854000D03*
X168910000Y-91854000D03*
X167640000Y-91854000D03*
X166370000Y-91854000D03*
X166370000Y-86454000D03*
X167640000Y-86454000D03*
X168910000Y-86454000D03*
X170180000Y-86454000D03*
X171450000Y-86454000D03*
X172720000Y-86454000D03*
X173990000Y-86454000D03*
X175260000Y-86454000D03*
D11*
X172720000Y-56515000D03*
X172720000Y-59055000D03*
X172720000Y-61595000D03*
X172720000Y-64135000D03*
X172720000Y-66675000D03*
X172720000Y-69215000D03*
X180340000Y-69215000D03*
X180340000Y-66675000D03*
X180340000Y-64135000D03*
X180340000Y-61595000D03*
X180340000Y-59055000D03*
X180340000Y-56515000D03*
X147320000Y-56515000D03*
X147320000Y-59055000D03*
X147320000Y-61595000D03*
X147320000Y-64135000D03*
X147320000Y-66675000D03*
X147320000Y-69215000D03*
X154940000Y-69215000D03*
X154940000Y-66675000D03*
X154940000Y-64135000D03*
X154940000Y-61595000D03*
X154940000Y-59055000D03*
X154940000Y-56515000D03*
X160020000Y-56515000D03*
X160020000Y-59055000D03*
X160020000Y-61595000D03*
X160020000Y-64135000D03*
X160020000Y-66675000D03*
X160020000Y-69215000D03*
X167640000Y-69215000D03*
X167640000Y-66675000D03*
X167640000Y-64135000D03*
X167640000Y-61595000D03*
X167640000Y-59055000D03*
X167640000Y-56515000D03*
D19*
X185850000Y-75100000D03*
X185850000Y-77300000D03*
X182550000Y-76200000D03*
X179500000Y-75100000D03*
X179500000Y-77300000D03*
X176200000Y-76200000D03*
X173658000Y-75100000D03*
X173658000Y-77300000D03*
X170358000Y-76200000D03*
X167308000Y-75354000D03*
X167308000Y-77554000D03*
X164008000Y-76454000D03*
X160958000Y-75354000D03*
X160958000Y-77554000D03*
X157658000Y-76454000D03*
X154608000Y-75354000D03*
X154608000Y-77554000D03*
X151308000Y-76454000D03*
X148131000Y-74846000D03*
X148131000Y-77046000D03*
X144831000Y-75946000D03*
D20*
X165936000Y-105438000D03*
X165936000Y-109938000D03*
X165936000Y-114338000D03*
D21*
X185180000Y-137684000D03*
X172180000Y-137684000D03*
X182180000Y-112684000D03*
X175180000Y-112684000D03*
D22*
X181278000Y-91864000D03*
X176706000Y-90594000D03*
X143686000Y-87038000D03*
X144194000Y-93642000D03*
X164514000Y-93388000D03*
X123825000Y-95250000D03*
X137160000Y-87630000D03*
X181483000Y-87884000D03*
X161036000Y-87249000D03*
X185596000Y-97706000D03*
X180770000Y-97706000D03*
X160450000Y-108120000D03*
X157402000Y-108120000D03*
X141732000Y-93726000D03*
X140716000Y-86614000D03*
X138684000Y-90678000D03*
X130048000Y-90678000D03*
X172466000Y-90170000D03*
X164465000Y-88900000D03*
X160655000Y-89535000D03*
X153670000Y-98806000D03*
X137922000Y-96774000D03*
X145210000Y-99738000D03*
X161798000Y-95504000D03*
X182040000Y-89578000D03*
X153670000Y-96774000D03*
X158242000Y-97282000D03*
X151130000Y-89916000D03*
X155194000Y-91440000D03*
X169926000Y-98298000D03*
X157656000Y-102786000D03*
X150036000Y-99992000D03*
X161466000Y-109898000D03*
X157148000Y-109898000D03*
X161036000Y-90932000D03*
X164592000Y-90932000D03*
D23*
X181278000Y-91864000D02*
X181278000Y-93896000D01*
X180008000Y-90594000D02*
X181278000Y-91864000D01*
X175446000Y-91854000D02*
X176706000Y-90594000D01*
X176706000Y-90594000D02*
X180008000Y-90594000D01*
X183134000Y-95752000D02*
X183134000Y-100076000D01*
X181278000Y-93896000D02*
X183134000Y-95752000D01*
X143686000Y-87038000D02*
X144194000Y-87546000D01*
X144194000Y-87546000D02*
X144194000Y-93642000D01*
X175260000Y-91854000D02*
X175446000Y-91854000D01*
X161036000Y-87249000D02*
X161798000Y-86487000D01*
X161798000Y-86487000D02*
X166337000Y-86487000D01*
X166337000Y-86487000D02*
X166370000Y-86454000D01*
X181483000Y-87884000D02*
X181229000Y-87884000D01*
X161036000Y-87249000D02*
X161163000Y-87376000D01*
X180594000Y-100076000D02*
X180594000Y-102362000D01*
X171168000Y-105438000D02*
X165936000Y-105438000D01*
X173228000Y-103378000D02*
X171168000Y-105438000D01*
X179578000Y-103378000D02*
X173228000Y-103378000D01*
X180594000Y-102362000D02*
X179578000Y-103378000D01*
D24*
X173990000Y-91854000D02*
X173990000Y-94736000D01*
X183515000Y-89529000D02*
X183515000Y-86868000D01*
X185342000Y-91356000D02*
X183515000Y-89529000D01*
X185342000Y-97452000D02*
X185342000Y-91356000D01*
X185596000Y-97706000D02*
X185342000Y-97452000D01*
X176960000Y-97706000D02*
X180770000Y-97706000D01*
X173990000Y-94736000D02*
X176960000Y-97706000D01*
X183515000Y-86868000D02*
X183515000Y-85471000D01*
X182902860Y-84858860D02*
X182902860Y-81722000D01*
X183515000Y-85471000D02*
X182902860Y-84858860D01*
D25*
X183515000Y-86741000D02*
X183515000Y-86868000D01*
D24*
X176552860Y-81468000D02*
X176552860Y-81511140D01*
X176552860Y-81511140D02*
X175260000Y-82804000D01*
X175260000Y-82804000D02*
X175260000Y-86454000D01*
X170456860Y-81468000D02*
X170622000Y-81468000D01*
X170622000Y-81468000D02*
X173990000Y-84836000D01*
X173990000Y-84836000D02*
X173990000Y-86454000D01*
D25*
X157402000Y-108120000D02*
X160450000Y-108120000D01*
D24*
X164360860Y-81468000D02*
X164360860Y-81534854D01*
X164360860Y-81534854D02*
X165608000Y-82781994D01*
X165608000Y-82781994D02*
X169903994Y-82781994D01*
X169903994Y-82781994D02*
X172720000Y-85598000D01*
X172720000Y-85598000D02*
X172720000Y-86454000D01*
D25*
X141732000Y-87630000D02*
X140716000Y-86614000D01*
X141732000Y-93726000D02*
X141732000Y-87630000D01*
D24*
X157756860Y-81468000D02*
X157756860Y-82134856D01*
D25*
X171450000Y-85344000D02*
X171450000Y-86454000D01*
D24*
X169487996Y-83381996D02*
X171450000Y-85344000D01*
X159004000Y-83381996D02*
X169487996Y-83381996D01*
X157756860Y-82134856D02*
X159004000Y-83381996D01*
D25*
X171450000Y-86454000D02*
X171450000Y-85766936D01*
D24*
X151152860Y-81468000D02*
X151152860Y-82826860D01*
X168309998Y-83981998D02*
X170180000Y-85852000D01*
X152307998Y-83981998D02*
X168309998Y-83981998D01*
X151152860Y-82826860D02*
X152307998Y-83981998D01*
X170180000Y-85852000D02*
X170180000Y-86454000D01*
D25*
X170180000Y-86454000D02*
X170180000Y-85725000D01*
X170180000Y-86454000D02*
X170180000Y-85750400D01*
X170180000Y-86454000D02*
X170180000Y-85852000D01*
D24*
X168910000Y-86454000D02*
X168910000Y-85598000D01*
X144802860Y-82572860D02*
X144802860Y-81468000D01*
X146812000Y-84582000D02*
X144802860Y-82572860D01*
X167894000Y-84582000D02*
X146812000Y-84582000D01*
X168910000Y-85598000D02*
X167894000Y-84582000D01*
D25*
X168910000Y-86454000D02*
X168910000Y-85725000D01*
X168910000Y-86454000D02*
X168910000Y-85852000D01*
X185850000Y-75100000D02*
X185850000Y-73830000D01*
X184072000Y-60247000D02*
X180340000Y-56515000D01*
X184072000Y-72052000D02*
X184072000Y-60247000D01*
X185850000Y-73830000D02*
X184072000Y-72052000D01*
X142240000Y-56515000D02*
X142240000Y-53975000D01*
X154940000Y-55880000D02*
X154940000Y-53975000D01*
X167640000Y-56515000D02*
X167640000Y-53975000D01*
X131445000Y-53975000D02*
X142240000Y-53975000D01*
X142240000Y-53975000D02*
X154940000Y-53975000D01*
X154940000Y-53975000D02*
X167640000Y-53975000D01*
X167640000Y-53975000D02*
X177800000Y-53975000D01*
X154940000Y-56515000D02*
X154940000Y-55880000D01*
X129540000Y-56515000D02*
X129540000Y-55880000D01*
X129540000Y-55880000D02*
X131445000Y-53975000D01*
X177800000Y-53975000D02*
X180340000Y-56515000D01*
X180340000Y-59055000D02*
X181235000Y-59055000D01*
X179500000Y-73830000D02*
X179500000Y-75100000D01*
X183310000Y-70020000D02*
X179500000Y-73830000D01*
X183310000Y-61130000D02*
X183310000Y-70020000D01*
X181235000Y-59055000D02*
X183310000Y-61130000D01*
X179070000Y-57785000D02*
X180340000Y-59055000D01*
X129540000Y-59055000D02*
X130175000Y-59055000D01*
X130175000Y-59055000D02*
X131445000Y-57785000D01*
X142240000Y-59055000D02*
X142240000Y-57785000D01*
X167640000Y-59055000D02*
X167640000Y-57785000D01*
X131445000Y-57785000D02*
X142240000Y-57785000D01*
X167640000Y-57785000D02*
X179070000Y-57785000D01*
X154940000Y-59055000D02*
X154940000Y-57785000D01*
X142240000Y-57785000D02*
X154940000Y-57785000D01*
X154940000Y-57785000D02*
X167640000Y-57785000D01*
X173658000Y-75100000D02*
X173658000Y-74084000D01*
X176452000Y-71290000D02*
X181024000Y-71290000D01*
X173658000Y-74084000D02*
X176452000Y-71290000D01*
X172720000Y-59055000D02*
X173736000Y-59055000D01*
X182372000Y-69942000D02*
X181024000Y-71290000D01*
X182372000Y-61214000D02*
X182372000Y-69942000D01*
X181483000Y-60325000D02*
X182372000Y-61214000D01*
X175006000Y-60325000D02*
X181483000Y-60325000D01*
X173736000Y-59055000D02*
X175006000Y-60325000D01*
X171450000Y-60325000D02*
X172720000Y-59055000D01*
X147320000Y-59055000D02*
X147320000Y-60325000D01*
X147320000Y-60325000D02*
X160020000Y-60325000D01*
X121920000Y-59055000D02*
X123190000Y-60325000D01*
X160020000Y-59055000D02*
X160020000Y-60325000D01*
X160020000Y-60325000D02*
X171450000Y-60325000D01*
X134620000Y-59055000D02*
X134620000Y-60325000D01*
X123190000Y-60325000D02*
X134620000Y-60325000D01*
X134620000Y-60325000D02*
X147320000Y-60325000D01*
X167308000Y-75354000D02*
X167308000Y-74592000D01*
X177214000Y-67261000D02*
X180340000Y-64135000D01*
X177214000Y-69258000D02*
X177214000Y-67261000D01*
X172935996Y-73536004D02*
X177214000Y-69258000D01*
X168363996Y-73536004D02*
X172935996Y-73536004D01*
X167308000Y-74592000D02*
X168363996Y-73536004D01*
X142240000Y-64135000D02*
X142240000Y-62865000D01*
X154940000Y-64135000D02*
X154940000Y-62865000D01*
X167640000Y-64135000D02*
X167640000Y-62865000D01*
X131445000Y-62865000D02*
X142240000Y-62865000D01*
X142240000Y-62865000D02*
X154940000Y-62865000D01*
X154940000Y-62865000D02*
X167640000Y-62865000D01*
X167640000Y-62865000D02*
X177800000Y-62865000D01*
X177800000Y-62865000D02*
X179070000Y-62865000D01*
X129540000Y-64135000D02*
X130175000Y-64135000D01*
X130175000Y-64135000D02*
X131445000Y-62865000D01*
X179070000Y-62865000D02*
X180340000Y-64135000D01*
X160958000Y-75354000D02*
X160958000Y-73930002D01*
X172527998Y-72836002D02*
X175514000Y-69850000D01*
X162052000Y-72836002D02*
X172527998Y-72836002D01*
X160958000Y-73930002D02*
X162052000Y-72836002D01*
X172720000Y-64135000D02*
X172720000Y-64770000D01*
X172720000Y-64770000D02*
X175514000Y-67564000D01*
X175514000Y-67564000D02*
X175514000Y-69850000D01*
X134620000Y-64135000D02*
X134620000Y-65405000D01*
X147320000Y-64135000D02*
X147320000Y-65212998D01*
X147574000Y-65466998D02*
X147574000Y-65405000D01*
X147320000Y-65212998D02*
X147574000Y-65466998D01*
X160020000Y-64135000D02*
X160020000Y-65405000D01*
X121920000Y-64135000D02*
X123190000Y-65405000D01*
X171450000Y-65405000D02*
X172720000Y-64135000D01*
X123190000Y-65405000D02*
X134620000Y-65405000D01*
X134620000Y-65405000D02*
X147574000Y-65405000D01*
X147574000Y-65405000D02*
X160020000Y-65405000D01*
X160020000Y-65405000D02*
X171450000Y-65405000D01*
X154813000Y-75149000D02*
X154813000Y-73025000D01*
X174244000Y-67691000D02*
X174244000Y-69850000D01*
X174244000Y-69850000D02*
X171958000Y-72136000D01*
X171958000Y-72136000D02*
X155702000Y-72136000D01*
X155702000Y-72136000D02*
X154813000Y-73025000D01*
X174244000Y-67691000D02*
X173228000Y-66675000D01*
X154813000Y-75149000D02*
X154608000Y-75354000D01*
X172720000Y-66675000D02*
X173228000Y-66675000D01*
X163195000Y-67945000D02*
X171450000Y-67945000D01*
X134620000Y-66675000D02*
X134620000Y-67945000D01*
X147320000Y-66675000D02*
X147320000Y-67945000D01*
X160020000Y-66675000D02*
X160020000Y-67945000D01*
X121920000Y-66675000D02*
X123190000Y-67945000D01*
X171450000Y-67945000D02*
X172720000Y-66675000D01*
X123190000Y-67945000D02*
X134620000Y-67945000D01*
X134620000Y-67945000D02*
X147320000Y-67945000D01*
X147320000Y-67945000D02*
X160020000Y-67945000D01*
X160020000Y-67945000D02*
X163195000Y-67945000D01*
X147320000Y-71120000D02*
X147320000Y-74035000D01*
X147320000Y-74035000D02*
X148131000Y-74846000D01*
X147320000Y-71120000D02*
X154940000Y-71120000D01*
X154940000Y-71120000D02*
X158115000Y-71120000D01*
X158115000Y-71120000D02*
X160020000Y-71120000D01*
X134620000Y-71120000D02*
X147320000Y-71120000D01*
X160020000Y-69215000D02*
X160020000Y-71120000D01*
X160020000Y-71120000D02*
X170180000Y-71120000D01*
X170180000Y-71120000D02*
X172085000Y-69215000D01*
X172085000Y-69215000D02*
X172720000Y-69215000D01*
X147320000Y-69215000D02*
X147320000Y-71120000D01*
X134620000Y-69215000D02*
X134620000Y-71120000D01*
X121920000Y-69215000D02*
X121920000Y-69850000D01*
X121920000Y-69850000D02*
X123190000Y-71120000D01*
X123190000Y-71120000D02*
X134620000Y-71120000D01*
D24*
X130048000Y-90678000D02*
X138684000Y-90678000D01*
X171450000Y-91854000D02*
X171450000Y-91124002D01*
X171450000Y-91124002D02*
X172404002Y-90170000D01*
X172404002Y-90170000D02*
X172466000Y-90170000D01*
X161290000Y-88900000D02*
X164465000Y-88900000D01*
X160655000Y-89535000D02*
X161290000Y-88900000D01*
D25*
X145210000Y-99738000D02*
X145464000Y-99738000D01*
X149860000Y-98806000D02*
X153670000Y-98806000D01*
X149444000Y-98806000D02*
X149860000Y-98806000D01*
X148512000Y-99738000D02*
X149444000Y-98806000D01*
X147496000Y-99738000D02*
X148512000Y-99738000D01*
X145464000Y-99738000D02*
X147496000Y-99738000D01*
X143178000Y-99738000D02*
X139192000Y-96774000D01*
X139192000Y-96774000D02*
X137922000Y-96774000D01*
X145126000Y-99822000D02*
X143178000Y-99738000D01*
X145210000Y-99738000D02*
X145126000Y-99822000D01*
X161798000Y-95504000D02*
X162052000Y-95250000D01*
X162052000Y-95250000D02*
X166370000Y-95250000D01*
X166370000Y-95250000D02*
X167640000Y-93980000D01*
X167640000Y-93980000D02*
X167640000Y-91854000D01*
X167640000Y-91854000D02*
X167640000Y-90424000D01*
X180467000Y-88900000D02*
X182040000Y-89578000D01*
X169164000Y-88900000D02*
X180467000Y-88900000D01*
X167640000Y-90424000D02*
X169164000Y-88900000D01*
D24*
X157734000Y-96774000D02*
X153670000Y-96774000D01*
X158242000Y-97282000D02*
X157734000Y-96774000D01*
X153924000Y-90170000D02*
X151130000Y-89916000D01*
X155194000Y-91440000D02*
X153924000Y-90170000D01*
D25*
X170180000Y-98044000D02*
X170180000Y-91854000D01*
X169926000Y-98298000D02*
X170180000Y-98044000D01*
X165530000Y-101770000D02*
X166546000Y-100754000D01*
X158672000Y-101770000D02*
X165530000Y-101770000D01*
X157656000Y-102786000D02*
X158672000Y-101770000D01*
X172720000Y-98136000D02*
X172720000Y-91854000D01*
X170102000Y-100754000D02*
X172720000Y-98136000D01*
X166546000Y-100754000D02*
X170102000Y-100754000D01*
X172720000Y-91854000D02*
X172720000Y-92556952D01*
X168910000Y-96104000D02*
X168910000Y-91854000D01*
X165022000Y-99992000D02*
X168910000Y-96104000D01*
X150036000Y-99992000D02*
X165022000Y-99992000D01*
X157148000Y-109898000D02*
X161466000Y-109898000D01*
X164592000Y-90932000D02*
X161036000Y-90932000D01*
X182550000Y-76200000D02*
X182550000Y-79469140D01*
X182550000Y-79469140D02*
X182902860Y-79822000D01*
X176200000Y-76200000D02*
X176200000Y-79215140D01*
X176200000Y-79215140D02*
X176552860Y-79568000D01*
X170358000Y-76200000D02*
X170358000Y-79469140D01*
X170358000Y-79469140D02*
X170456860Y-79568000D01*
X164008000Y-76454000D02*
X164008000Y-79215140D01*
X164008000Y-79215140D02*
X164360860Y-79568000D01*
X157658000Y-76454000D02*
X157658000Y-79469140D01*
X157658000Y-79469140D02*
X157756860Y-79568000D01*
X151308000Y-76454000D02*
X151308000Y-79412860D01*
X151308000Y-79412860D02*
X151152860Y-79568000D01*
X144831000Y-75946000D02*
X144831000Y-79539860D01*
X144831000Y-79539860D02*
X144802860Y-79568000D01*
D23*
X180594000Y-106712000D02*
X180562000Y-106712000D01*
X175180000Y-113684000D02*
X176892000Y-113684000D01*
X180848000Y-109458000D02*
X183594000Y-106712000D01*
X180848000Y-109728000D02*
X180848000Y-109458000D01*
X176892000Y-113684000D02*
X180848000Y-109728000D01*
X175180000Y-113684000D02*
X176130000Y-113684000D01*
D26*
G36*
X187258500Y-52933599D02*
X187258960Y-52933600D01*
X188401960Y-52933600D01*
X188401960Y-140817147D01*
X117281960Y-140564051D01*
X117281960Y-135684000D01*
X170744635Y-135684000D01*
X170744635Y-139684000D01*
X170774409Y-139842237D01*
X170867927Y-139987567D01*
X171010619Y-140085064D01*
X171180000Y-140119365D01*
X173180000Y-140119365D01*
X173338237Y-140089591D01*
X173483567Y-139996073D01*
X173581064Y-139853381D01*
X173615365Y-139684000D01*
X173615365Y-135684000D01*
X183744635Y-135684000D01*
X183744635Y-139684000D01*
X183774409Y-139842237D01*
X183867927Y-139987567D01*
X184010619Y-140085064D01*
X184180000Y-140119365D01*
X186180000Y-140119365D01*
X186338237Y-140089591D01*
X186483567Y-139996073D01*
X186581064Y-139853381D01*
X186615365Y-139684000D01*
X186615365Y-135684000D01*
X186585591Y-135525763D01*
X186492073Y-135380433D01*
X186349381Y-135282936D01*
X186180000Y-135248635D01*
X184180000Y-135248635D01*
X184021763Y-135278409D01*
X183876433Y-135371927D01*
X183778936Y-135514619D01*
X183744635Y-135684000D01*
X173615365Y-135684000D01*
X173585591Y-135525763D01*
X173492073Y-135380433D01*
X173349381Y-135282936D01*
X173180000Y-135248635D01*
X171180000Y-135248635D01*
X171021763Y-135278409D01*
X170876433Y-135371927D01*
X170778936Y-135514619D01*
X170744635Y-135684000D01*
X117281960Y-135684000D01*
X117281960Y-129825750D01*
X163615000Y-129825750D01*
X163615000Y-130516309D01*
X163711673Y-130749698D01*
X163890301Y-130928327D01*
X164123690Y-131025000D01*
X164814250Y-131025000D01*
X164973000Y-130866250D01*
X164973000Y-129667000D01*
X163773750Y-129667000D01*
X163615000Y-129825750D01*
X117281960Y-129825750D01*
X117281960Y-128563691D01*
X163615000Y-128563691D01*
X163615000Y-129254250D01*
X163773750Y-129413000D01*
X164973000Y-129413000D01*
X164973000Y-128213750D01*
X165227000Y-128213750D01*
X165227000Y-129413000D01*
X165247000Y-129413000D01*
X165247000Y-129667000D01*
X165227000Y-129667000D01*
X165227000Y-130866250D01*
X165385750Y-131025000D01*
X166076310Y-131025000D01*
X166309699Y-130928327D01*
X166488327Y-130749698D01*
X166516944Y-130680610D01*
X166844875Y-130816778D01*
X167352897Y-130817221D01*
X167822417Y-130623219D01*
X168181957Y-130264307D01*
X168376778Y-129795125D01*
X168377221Y-129287103D01*
X168183219Y-128817583D01*
X167824307Y-128458043D01*
X167355125Y-128263222D01*
X166847103Y-128262779D01*
X166516876Y-128399226D01*
X166488327Y-128330302D01*
X166309699Y-128151673D01*
X166076310Y-128055000D01*
X165385750Y-128055000D01*
X165227000Y-128213750D01*
X164973000Y-128213750D01*
X164814250Y-128055000D01*
X164123690Y-128055000D01*
X163890301Y-128151673D01*
X163711673Y-128330302D01*
X163615000Y-128563691D01*
X117281960Y-128563691D01*
X117281960Y-117788000D01*
X118882635Y-117788000D01*
X118882635Y-119788000D01*
X118912409Y-119946237D01*
X119005927Y-120091567D01*
X119148619Y-120189064D01*
X119318000Y-120223365D01*
X121318000Y-120223365D01*
X121476237Y-120193591D01*
X121621567Y-120100073D01*
X121719064Y-119957381D01*
X121753365Y-119788000D01*
X121753365Y-117788000D01*
X121723591Y-117629763D01*
X121630073Y-117484433D01*
X121487381Y-117386936D01*
X121318000Y-117352635D01*
X121231282Y-117352635D01*
X121527047Y-117057386D01*
X121744752Y-116533093D01*
X121745248Y-115965397D01*
X121528457Y-115440725D01*
X121127386Y-115038953D01*
X120980882Y-114978119D01*
X121125275Y-114918457D01*
X121527047Y-114517386D01*
X121744752Y-113993093D01*
X121745248Y-113425397D01*
X121528457Y-112900725D01*
X121465842Y-112838000D01*
X162500635Y-112838000D01*
X162500635Y-115838000D01*
X162530409Y-115996237D01*
X162623927Y-116141567D01*
X162766619Y-116239064D01*
X162936000Y-116273365D01*
X168936000Y-116273365D01*
X169094237Y-116243591D01*
X169239567Y-116150073D01*
X169337064Y-116007381D01*
X169371365Y-115838000D01*
X169371365Y-112838000D01*
X169341591Y-112679763D01*
X169248073Y-112534433D01*
X169105381Y-112436936D01*
X168936000Y-112402635D01*
X162936000Y-112402635D01*
X162777763Y-112432409D01*
X162632433Y-112525927D01*
X162534936Y-112668619D01*
X162500635Y-112838000D01*
X121465842Y-112838000D01*
X121127386Y-112498953D01*
X120980882Y-112438119D01*
X121125275Y-112378457D01*
X121527047Y-111977386D01*
X121744752Y-111453093D01*
X121745248Y-110885397D01*
X121528457Y-110360725D01*
X121249803Y-110081583D01*
X156220839Y-110081583D01*
X156361669Y-110422417D01*
X156622211Y-110683414D01*
X156962799Y-110824839D01*
X157331583Y-110825161D01*
X157672417Y-110684331D01*
X157781939Y-110575000D01*
X160831986Y-110575000D01*
X160940211Y-110683414D01*
X161280799Y-110824839D01*
X161649583Y-110825161D01*
X161990417Y-110684331D01*
X162251414Y-110423789D01*
X162392839Y-110083201D01*
X162393161Y-109714417D01*
X162252331Y-109373583D01*
X161991789Y-109112586D01*
X161651201Y-108971161D01*
X161282417Y-108970839D01*
X160941583Y-109111669D01*
X160832061Y-109221000D01*
X157782014Y-109221000D01*
X157673789Y-109112586D01*
X157516083Y-109047100D01*
X157585583Y-109047161D01*
X157926417Y-108906331D01*
X158035939Y-108797000D01*
X159815986Y-108797000D01*
X159924211Y-108905414D01*
X160264799Y-109046839D01*
X160633583Y-109047161D01*
X160974417Y-108906331D01*
X161235414Y-108645789D01*
X161321695Y-108438000D01*
X162500635Y-108438000D01*
X162500635Y-111438000D01*
X162530409Y-111596237D01*
X162623927Y-111741567D01*
X162766619Y-111839064D01*
X162936000Y-111873365D01*
X168936000Y-111873365D01*
X169094237Y-111843591D01*
X169239567Y-111750073D01*
X169337064Y-111607381D01*
X169371365Y-111438000D01*
X169371365Y-110684000D01*
X173744635Y-110684000D01*
X173744635Y-114684000D01*
X173774409Y-114842237D01*
X173867927Y-114987567D01*
X174010619Y-115085064D01*
X174180000Y-115119365D01*
X176180000Y-115119365D01*
X176338237Y-115089591D01*
X176483567Y-114996073D01*
X176581064Y-114853381D01*
X176615365Y-114684000D01*
X176615365Y-114611000D01*
X176892000Y-114611000D01*
X177246748Y-114540436D01*
X177547488Y-114339488D01*
X178917226Y-112969750D01*
X180545000Y-112969750D01*
X180545000Y-114810309D01*
X180641673Y-115043698D01*
X180820301Y-115222327D01*
X181053690Y-115319000D01*
X181894250Y-115319000D01*
X182053000Y-115160250D01*
X182053000Y-112811000D01*
X182307000Y-112811000D01*
X182307000Y-115160250D01*
X182465750Y-115319000D01*
X183306310Y-115319000D01*
X183539699Y-115222327D01*
X183718327Y-115043698D01*
X183815000Y-114810309D01*
X183815000Y-112969750D01*
X183656250Y-112811000D01*
X182307000Y-112811000D01*
X182053000Y-112811000D01*
X180703750Y-112811000D01*
X180545000Y-112969750D01*
X178917226Y-112969750D01*
X180545000Y-111341976D01*
X180545000Y-112398250D01*
X180703750Y-112557000D01*
X182053000Y-112557000D01*
X182053000Y-110207750D01*
X182307000Y-110207750D01*
X182307000Y-112557000D01*
X183656250Y-112557000D01*
X183815000Y-112398250D01*
X183815000Y-110557691D01*
X183718327Y-110324302D01*
X183539699Y-110145673D01*
X183306310Y-110049000D01*
X182465750Y-110049000D01*
X182307000Y-110207750D01*
X182053000Y-110207750D01*
X181894250Y-110049000D01*
X181711150Y-110049000D01*
X181746700Y-109870276D01*
X183715869Y-107901107D01*
X183829469Y-107901206D01*
X184266635Y-107720573D01*
X184601397Y-107386394D01*
X184782793Y-106949544D01*
X184783206Y-106476531D01*
X184602573Y-106039365D01*
X184268394Y-105704603D01*
X183831544Y-105523207D01*
X183358531Y-105522794D01*
X182921365Y-105703427D01*
X182586603Y-106037606D01*
X182405207Y-106474456D01*
X182405106Y-106589918D01*
X180192512Y-108802512D01*
X179991564Y-109103252D01*
X179949301Y-109315723D01*
X176615365Y-112649659D01*
X176615365Y-110684000D01*
X176585591Y-110525763D01*
X176492073Y-110380433D01*
X176349381Y-110282936D01*
X176180000Y-110248635D01*
X174180000Y-110248635D01*
X174021763Y-110278409D01*
X173876433Y-110371927D01*
X173778936Y-110514619D01*
X173744635Y-110684000D01*
X169371365Y-110684000D01*
X169371365Y-108438000D01*
X169341591Y-108279763D01*
X169248073Y-108134433D01*
X169105381Y-108036936D01*
X168936000Y-108002635D01*
X162936000Y-108002635D01*
X162777763Y-108032409D01*
X162632433Y-108125927D01*
X162534936Y-108268619D01*
X162500635Y-108438000D01*
X161321695Y-108438000D01*
X161376839Y-108305201D01*
X161377161Y-107936417D01*
X161236331Y-107595583D01*
X160975789Y-107334586D01*
X160635201Y-107193161D01*
X160266417Y-107192839D01*
X159925583Y-107333669D01*
X159816061Y-107443000D01*
X158036014Y-107443000D01*
X157927789Y-107334586D01*
X157587201Y-107193161D01*
X157218417Y-107192839D01*
X156877583Y-107333669D01*
X156616586Y-107594211D01*
X156475161Y-107934799D01*
X156474839Y-108303583D01*
X156615669Y-108644417D01*
X156876211Y-108905414D01*
X157033917Y-108970900D01*
X156964417Y-108970839D01*
X156623583Y-109111669D01*
X156362586Y-109372211D01*
X156221161Y-109712799D01*
X156220839Y-110081583D01*
X121249803Y-110081583D01*
X121198589Y-110030280D01*
X121290927Y-109780532D01*
X120318000Y-108807605D01*
X119345073Y-109780532D01*
X119437532Y-110030608D01*
X119108953Y-110358614D01*
X118891248Y-110882907D01*
X118890752Y-111450603D01*
X119107543Y-111975275D01*
X119508614Y-112377047D01*
X119655118Y-112437881D01*
X119510725Y-112497543D01*
X119108953Y-112898614D01*
X118891248Y-113422907D01*
X118890752Y-113990603D01*
X119107543Y-114515275D01*
X119508614Y-114917047D01*
X119655118Y-114977881D01*
X119510725Y-115037543D01*
X119108953Y-115438614D01*
X118891248Y-115962907D01*
X118890752Y-116530603D01*
X119107543Y-117055275D01*
X119404384Y-117352635D01*
X119318000Y-117352635D01*
X119159763Y-117382409D01*
X119014433Y-117475927D01*
X118916936Y-117618619D01*
X118882635Y-117788000D01*
X117281960Y-117788000D01*
X117281960Y-108363461D01*
X118672092Y-108363461D01*
X118696144Y-109013460D01*
X118898613Y-109502264D01*
X119165468Y-109600927D01*
X120138395Y-108628000D01*
X120497605Y-108628000D01*
X121470532Y-109600927D01*
X121737387Y-109502264D01*
X121963908Y-108892539D01*
X121939856Y-108242540D01*
X121737387Y-107753736D01*
X121470532Y-107655073D01*
X120497605Y-108628000D01*
X120138395Y-108628000D01*
X119165468Y-107655073D01*
X118898613Y-107753736D01*
X118672092Y-108363461D01*
X117281960Y-108363461D01*
X117281960Y-106370603D01*
X118890752Y-106370603D01*
X119107543Y-106895275D01*
X119437411Y-107225720D01*
X119345073Y-107475468D01*
X120318000Y-108448395D01*
X121290927Y-107475468D01*
X121198468Y-107225392D01*
X121527047Y-106897386D01*
X121744752Y-106373093D01*
X121745248Y-105805397D01*
X121711512Y-105723750D01*
X162301000Y-105723750D01*
X162301000Y-107064309D01*
X162397673Y-107297698D01*
X162576301Y-107476327D01*
X162809690Y-107573000D01*
X165650250Y-107573000D01*
X165809000Y-107414250D01*
X165809000Y-105565000D01*
X166063000Y-105565000D01*
X166063000Y-107414250D01*
X166221750Y-107573000D01*
X169062310Y-107573000D01*
X169295699Y-107476327D01*
X169474327Y-107297698D01*
X169571000Y-107064309D01*
X169571000Y-106947469D01*
X176404794Y-106947469D01*
X176585427Y-107384635D01*
X176919606Y-107719397D01*
X177356456Y-107900793D01*
X177829469Y-107901206D01*
X178266635Y-107720573D01*
X178601397Y-107386394D01*
X178782793Y-106949544D01*
X178782794Y-106947469D01*
X179404794Y-106947469D01*
X179585427Y-107384635D01*
X179919606Y-107719397D01*
X180356456Y-107900793D01*
X180829469Y-107901206D01*
X181266635Y-107720573D01*
X181601397Y-107386394D01*
X181782793Y-106949544D01*
X181783206Y-106476531D01*
X181602573Y-106039365D01*
X181268394Y-105704603D01*
X180831544Y-105523207D01*
X180358531Y-105522794D01*
X179921365Y-105703427D01*
X179586603Y-106037606D01*
X179405207Y-106474456D01*
X179404794Y-106947469D01*
X178782794Y-106947469D01*
X178783206Y-106476531D01*
X178602573Y-106039365D01*
X178268394Y-105704603D01*
X177831544Y-105523207D01*
X177358531Y-105522794D01*
X176921365Y-105703427D01*
X176586603Y-106037606D01*
X176405207Y-106474456D01*
X176404794Y-106947469D01*
X169571000Y-106947469D01*
X169571000Y-105723750D01*
X169412250Y-105565000D01*
X166063000Y-105565000D01*
X165809000Y-105565000D01*
X162459750Y-105565000D01*
X162301000Y-105723750D01*
X121711512Y-105723750D01*
X121528457Y-105280725D01*
X121127386Y-104878953D01*
X120603093Y-104661248D01*
X120035397Y-104660752D01*
X119510725Y-104877543D01*
X119108953Y-105278614D01*
X118891248Y-105802907D01*
X118890752Y-106370603D01*
X117281960Y-106370603D01*
X117281960Y-103811691D01*
X162301000Y-103811691D01*
X162301000Y-105152250D01*
X162459750Y-105311000D01*
X165809000Y-105311000D01*
X165809000Y-103461750D01*
X166063000Y-103461750D01*
X166063000Y-105311000D01*
X169412250Y-105311000D01*
X169571000Y-105152250D01*
X169571000Y-103811691D01*
X169474327Y-103578302D01*
X169295699Y-103399673D01*
X169062310Y-103303000D01*
X166221750Y-103303000D01*
X166063000Y-103461750D01*
X165809000Y-103461750D01*
X165650250Y-103303000D01*
X162809690Y-103303000D01*
X162576301Y-103399673D01*
X162397673Y-103578302D01*
X162301000Y-103811691D01*
X117281960Y-103811691D01*
X117281960Y-96957583D01*
X136994839Y-96957583D01*
X137135669Y-97298417D01*
X137396211Y-97559414D01*
X137736799Y-97700839D01*
X138105583Y-97701161D01*
X138446417Y-97560331D01*
X138555939Y-97451000D01*
X138967877Y-97451000D01*
X142774028Y-100281264D01*
X142836466Y-100310891D01*
X142892218Y-100351724D01*
X142954630Y-100366961D01*
X143012677Y-100394504D01*
X143081701Y-100397982D01*
X143148834Y-100414371D01*
X144639526Y-100478651D01*
X144684211Y-100523414D01*
X145024799Y-100664839D01*
X145393583Y-100665161D01*
X145734417Y-100524331D01*
X145843939Y-100415000D01*
X148512000Y-100415000D01*
X148771077Y-100363466D01*
X148990711Y-100216711D01*
X149108906Y-100098516D01*
X149108839Y-100175583D01*
X149249669Y-100516417D01*
X149510211Y-100777414D01*
X149850799Y-100918839D01*
X150219583Y-100919161D01*
X150560417Y-100778331D01*
X150669939Y-100669000D01*
X165022000Y-100669000D01*
X165281077Y-100617466D01*
X165500711Y-100470711D01*
X169388711Y-96582712D01*
X169462089Y-96472894D01*
X169503000Y-96411666D01*
X169503000Y-97469764D01*
X169401583Y-97511669D01*
X169140586Y-97772211D01*
X168999161Y-98112799D01*
X168998839Y-98481583D01*
X169139669Y-98822417D01*
X169400211Y-99083414D01*
X169740799Y-99224839D01*
X170109583Y-99225161D01*
X170450417Y-99084331D01*
X170711414Y-98823789D01*
X170852839Y-98483201D01*
X170853161Y-98114417D01*
X170846297Y-98097806D01*
X170857000Y-98044000D01*
X170857000Y-92920599D01*
X170980619Y-93005064D01*
X171150000Y-93039365D01*
X171750000Y-93039365D01*
X171908237Y-93009591D01*
X172043000Y-92922873D01*
X172043000Y-97855578D01*
X169821578Y-100077000D01*
X166546000Y-100077000D01*
X166286923Y-100128534D01*
X166154957Y-100216711D01*
X166067289Y-100275289D01*
X165249578Y-101093000D01*
X158672000Y-101093000D01*
X158412923Y-101144534D01*
X158280957Y-101232711D01*
X158193289Y-101291289D01*
X157625605Y-101858973D01*
X157472417Y-101858839D01*
X157131583Y-101999669D01*
X156870586Y-102260211D01*
X156729161Y-102600799D01*
X156728839Y-102969583D01*
X156869669Y-103310417D01*
X157130211Y-103571414D01*
X157470799Y-103712839D01*
X157839583Y-103713161D01*
X158180417Y-103572331D01*
X158441414Y-103311789D01*
X158582839Y-102971201D01*
X158582974Y-102816448D01*
X158952422Y-102447000D01*
X165530000Y-102447000D01*
X165789077Y-102395466D01*
X166008711Y-102248711D01*
X166826422Y-101431000D01*
X170102000Y-101431000D01*
X170361077Y-101379466D01*
X170580711Y-101232711D01*
X173198711Y-98614711D01*
X173345466Y-98395077D01*
X173397000Y-98136000D01*
X173397000Y-94906928D01*
X173410728Y-94975943D01*
X173546644Y-95179356D01*
X176516644Y-98149356D01*
X176720057Y-98285272D01*
X176960000Y-98333000D01*
X180086073Y-98333000D01*
X180207455Y-98454594D01*
X179719736Y-98656613D01*
X179711622Y-98678558D01*
X179709591Y-98667763D01*
X179616073Y-98522433D01*
X179473381Y-98424936D01*
X179304000Y-98390635D01*
X176804000Y-98390635D01*
X176645763Y-98420409D01*
X176500433Y-98513927D01*
X176402936Y-98656619D01*
X176368635Y-98826000D01*
X176368635Y-101326000D01*
X176398409Y-101484237D01*
X176491927Y-101629567D01*
X176634619Y-101727064D01*
X176804000Y-101761365D01*
X179304000Y-101761365D01*
X179462237Y-101731591D01*
X179607567Y-101638073D01*
X179705064Y-101495381D01*
X179710255Y-101469745D01*
X179719736Y-101495387D01*
X180329461Y-101721908D01*
X180979460Y-101697856D01*
X181468264Y-101495387D01*
X181566927Y-101228532D01*
X180594000Y-100255605D01*
X180579858Y-100269748D01*
X180400253Y-100090143D01*
X180414395Y-100076000D01*
X180400253Y-100061858D01*
X180579858Y-99882253D01*
X180594000Y-99896395D01*
X181566927Y-98923468D01*
X181468264Y-98656613D01*
X181167369Y-98544826D01*
X181294417Y-98492331D01*
X181555414Y-98231789D01*
X181696839Y-97891201D01*
X181697161Y-97522417D01*
X181556331Y-97181583D01*
X181295789Y-96920586D01*
X180955201Y-96779161D01*
X180586417Y-96778839D01*
X180245583Y-96919669D01*
X180085974Y-97079000D01*
X177219712Y-97079000D01*
X174617000Y-94476288D01*
X174617000Y-92881778D01*
X174624381Y-92870975D01*
X174647927Y-92907567D01*
X174790619Y-93005064D01*
X174960000Y-93039365D01*
X175560000Y-93039365D01*
X175718237Y-93009591D01*
X175863567Y-92916073D01*
X175961064Y-92773381D01*
X175995365Y-92604000D01*
X175995365Y-92580397D01*
X176101488Y-92509488D01*
X177089976Y-91521000D01*
X179624024Y-91521000D01*
X180351000Y-92247976D01*
X180351000Y-93896000D01*
X180421564Y-94250748D01*
X180596348Y-94512331D01*
X180622512Y-94551488D01*
X182207000Y-96135976D01*
X182207000Y-98985059D01*
X181996280Y-99195411D01*
X181746532Y-99103073D01*
X180773605Y-100076000D01*
X181746532Y-101048927D01*
X181996608Y-100956468D01*
X182324614Y-101285047D01*
X182848907Y-101502752D01*
X183416603Y-101503248D01*
X183941275Y-101286457D01*
X184343047Y-100885386D01*
X184560752Y-100361093D01*
X184561248Y-99793397D01*
X184344457Y-99268725D01*
X184061000Y-98984773D01*
X184061000Y-95752000D01*
X183990436Y-95397252D01*
X183789488Y-95096512D01*
X182205000Y-93512024D01*
X182205000Y-91864809D01*
X182205161Y-91680417D01*
X182064331Y-91339583D01*
X181803789Y-91078586D01*
X181803401Y-91078425D01*
X180663488Y-89938512D01*
X180544840Y-89859234D01*
X180362748Y-89737564D01*
X180008000Y-89667000D01*
X176706809Y-89667000D01*
X176522417Y-89666839D01*
X176181583Y-89807669D01*
X175920586Y-90068211D01*
X175920425Y-90068599D01*
X175320389Y-90668635D01*
X174960000Y-90668635D01*
X174801763Y-90698409D01*
X174656433Y-90791927D01*
X174625619Y-90837025D01*
X174602073Y-90800433D01*
X174459381Y-90702936D01*
X174290000Y-90668635D01*
X173690000Y-90668635D01*
X173531763Y-90698409D01*
X173386433Y-90791927D01*
X173355619Y-90837025D01*
X173332073Y-90800433D01*
X173221957Y-90725194D01*
X173251414Y-90695789D01*
X173392839Y-90355201D01*
X173393161Y-89986417D01*
X173252331Y-89645583D01*
X173183868Y-89577000D01*
X180327310Y-89577000D01*
X181190258Y-89948951D01*
X181253669Y-90102417D01*
X181514211Y-90363414D01*
X181854799Y-90504839D01*
X182223583Y-90505161D01*
X182564417Y-90364331D01*
X182825414Y-90103789D01*
X182953445Y-89795458D01*
X183071644Y-89972356D01*
X184715000Y-91615712D01*
X184715000Y-97410407D01*
X184669161Y-97520799D01*
X184668839Y-97889583D01*
X184809669Y-98230417D01*
X185070211Y-98491414D01*
X185410799Y-98632839D01*
X185779583Y-98633161D01*
X186120417Y-98492331D01*
X186381414Y-98231789D01*
X186522839Y-97891201D01*
X186523161Y-97522417D01*
X186382331Y-97181583D01*
X186121789Y-96920586D01*
X185969000Y-96857142D01*
X185969000Y-91356000D01*
X185921272Y-91116057D01*
X185785356Y-90912644D01*
X184142000Y-89269288D01*
X184142000Y-87119365D01*
X184192000Y-86868000D01*
X184192000Y-86741000D01*
X184142000Y-86489635D01*
X184142000Y-85471000D01*
X184127963Y-85400433D01*
X184094273Y-85231058D01*
X183958356Y-85027644D01*
X183529860Y-84599148D01*
X183529860Y-82557415D01*
X183803290Y-82557415D01*
X183961527Y-82527641D01*
X184106857Y-82434123D01*
X184204354Y-82291431D01*
X184238655Y-82122050D01*
X184238655Y-81321950D01*
X184208881Y-81163713D01*
X184140696Y-81057750D01*
X184369710Y-81057750D01*
X184369710Y-81298359D01*
X184466383Y-81531748D01*
X184645011Y-81710377D01*
X184878400Y-81807050D01*
X185619390Y-81807050D01*
X185778140Y-81648300D01*
X185778140Y-80899000D01*
X186032140Y-80899000D01*
X186032140Y-81648300D01*
X186190890Y-81807050D01*
X186931880Y-81807050D01*
X187165269Y-81710377D01*
X187343897Y-81531748D01*
X187440570Y-81298359D01*
X187440570Y-81057750D01*
X187281820Y-80899000D01*
X186032140Y-80899000D01*
X185778140Y-80899000D01*
X184528460Y-80899000D01*
X184369710Y-81057750D01*
X184140696Y-81057750D01*
X184115363Y-81018383D01*
X183972671Y-80920886D01*
X183803290Y-80886585D01*
X182002430Y-80886585D01*
X181844193Y-80916359D01*
X181698863Y-81009877D01*
X181601366Y-81152569D01*
X181567065Y-81321950D01*
X181567065Y-82122050D01*
X181596839Y-82280287D01*
X181690357Y-82425617D01*
X181833049Y-82523114D01*
X182002430Y-82557415D01*
X182275860Y-82557415D01*
X182275860Y-84858860D01*
X182323588Y-85098803D01*
X182450156Y-85288225D01*
X182459504Y-85302216D01*
X182888000Y-85730712D01*
X182888000Y-86489635D01*
X182838000Y-86741000D01*
X182838000Y-86868000D01*
X182888000Y-87119365D01*
X182888000Y-89202833D01*
X182826331Y-89053583D01*
X182565789Y-88792586D01*
X182225201Y-88651161D01*
X181856417Y-88650839D01*
X181725144Y-88705080D01*
X180734971Y-88278292D01*
X180730163Y-88277264D01*
X180726077Y-88274534D01*
X180601194Y-88249693D01*
X180476655Y-88223069D01*
X180471821Y-88223959D01*
X180467000Y-88223000D01*
X169164000Y-88223000D01*
X168904923Y-88274534D01*
X168835789Y-88320728D01*
X168685288Y-88421289D01*
X167161289Y-89945289D01*
X167014534Y-90164923D01*
X166963000Y-90424000D01*
X166963000Y-90787401D01*
X166839381Y-90702936D01*
X166670000Y-90668635D01*
X166070000Y-90668635D01*
X165911763Y-90698409D01*
X165766433Y-90791927D01*
X165668936Y-90934619D01*
X165634635Y-91104000D01*
X165634635Y-92604000D01*
X165664409Y-92762237D01*
X165757927Y-92907567D01*
X165900619Y-93005064D01*
X166070000Y-93039365D01*
X166670000Y-93039365D01*
X166828237Y-93009591D01*
X166963000Y-92922873D01*
X166963000Y-93699578D01*
X166089578Y-94573000D01*
X162052000Y-94573000D01*
X161998709Y-94583600D01*
X161983201Y-94577161D01*
X161614417Y-94576839D01*
X161273583Y-94717669D01*
X161012586Y-94978211D01*
X160871161Y-95318799D01*
X160870839Y-95687583D01*
X161011669Y-96028417D01*
X161272211Y-96289414D01*
X161612799Y-96430839D01*
X161981583Y-96431161D01*
X162322417Y-96290331D01*
X162583414Y-96029789D01*
X162626096Y-95927000D01*
X166370000Y-95927000D01*
X166629077Y-95875466D01*
X166848711Y-95728711D01*
X168118711Y-94458711D01*
X168190370Y-94351466D01*
X168233000Y-94287666D01*
X168233000Y-95823577D01*
X164741578Y-99315000D01*
X154462385Y-99315000D01*
X154596839Y-98991201D01*
X154597161Y-98622417D01*
X154456331Y-98281583D01*
X154195789Y-98020586D01*
X153855201Y-97879161D01*
X153486417Y-97878839D01*
X153145583Y-98019669D01*
X153036061Y-98129000D01*
X149444000Y-98129000D01*
X149184923Y-98180534D01*
X149108215Y-98231789D01*
X148965289Y-98327289D01*
X148231578Y-99061000D01*
X145844014Y-99061000D01*
X145735789Y-98952586D01*
X145395201Y-98811161D01*
X145026417Y-98810839D01*
X144685583Y-98951669D01*
X144518774Y-99118187D01*
X143415023Y-99070592D01*
X140573440Y-96957583D01*
X152742839Y-96957583D01*
X152883669Y-97298417D01*
X153144211Y-97559414D01*
X153484799Y-97700839D01*
X153853583Y-97701161D01*
X154194417Y-97560331D01*
X154354026Y-97401000D01*
X157314895Y-97401000D01*
X157314839Y-97465583D01*
X157455669Y-97806417D01*
X157716211Y-98067414D01*
X158056799Y-98208839D01*
X158425583Y-98209161D01*
X158766417Y-98068331D01*
X159027414Y-97807789D01*
X159168839Y-97467201D01*
X159169161Y-97098417D01*
X159028331Y-96757583D01*
X158767789Y-96496586D01*
X158427201Y-96355161D01*
X158201676Y-96354964D01*
X158177356Y-96330644D01*
X158056039Y-96249583D01*
X157973943Y-96194728D01*
X157734000Y-96147000D01*
X154353927Y-96147000D01*
X154195789Y-95988586D01*
X153855201Y-95847161D01*
X153486417Y-95846839D01*
X153145583Y-95987669D01*
X152884586Y-96248211D01*
X152743161Y-96588799D01*
X152742839Y-96957583D01*
X140573440Y-96957583D01*
X139595972Y-96230736D01*
X139520516Y-96194932D01*
X139451077Y-96148534D01*
X139402277Y-96138827D01*
X139357323Y-96117496D01*
X139273910Y-96113293D01*
X139192000Y-96097000D01*
X138556014Y-96097000D01*
X138447789Y-95988586D01*
X138107201Y-95847161D01*
X137738417Y-95846839D01*
X137397583Y-95987669D01*
X137136586Y-96248211D01*
X136995161Y-96588799D01*
X136994839Y-96957583D01*
X117281960Y-96957583D01*
X117281960Y-95433583D01*
X122897839Y-95433583D01*
X123038669Y-95774417D01*
X123299211Y-96035414D01*
X123639799Y-96176839D01*
X124008583Y-96177161D01*
X124349417Y-96036331D01*
X124610414Y-95775789D01*
X124751839Y-95435201D01*
X124752161Y-95066417D01*
X124611331Y-94725583D01*
X124350789Y-94464586D01*
X124010201Y-94323161D01*
X123641417Y-94322839D01*
X123300583Y-94463669D01*
X123039586Y-94724211D01*
X122898161Y-95064799D01*
X122897839Y-95433583D01*
X117281960Y-95433583D01*
X117281960Y-90861583D01*
X129120839Y-90861583D01*
X129261669Y-91202417D01*
X129522211Y-91463414D01*
X129862799Y-91604839D01*
X130231583Y-91605161D01*
X130572417Y-91464331D01*
X130732026Y-91305000D01*
X138000073Y-91305000D01*
X138158211Y-91463414D01*
X138498799Y-91604839D01*
X138867583Y-91605161D01*
X139208417Y-91464331D01*
X139469414Y-91203789D01*
X139610839Y-90863201D01*
X139611161Y-90494417D01*
X139470331Y-90153583D01*
X139209789Y-89892586D01*
X138869201Y-89751161D01*
X138500417Y-89750839D01*
X138159583Y-89891669D01*
X137999974Y-90051000D01*
X130731927Y-90051000D01*
X130573789Y-89892586D01*
X130233201Y-89751161D01*
X129864417Y-89750839D01*
X129523583Y-89891669D01*
X129262586Y-90152211D01*
X129121161Y-90492799D01*
X129120839Y-90861583D01*
X117281960Y-90861583D01*
X117281960Y-86797583D01*
X139788839Y-86797583D01*
X139929669Y-87138417D01*
X140190211Y-87399414D01*
X140530799Y-87540839D01*
X140685552Y-87540974D01*
X141055000Y-87910422D01*
X141055000Y-93091986D01*
X140946586Y-93200211D01*
X140805161Y-93540799D01*
X140804839Y-93909583D01*
X140945669Y-94250417D01*
X141206211Y-94511414D01*
X141546799Y-94652839D01*
X141915583Y-94653161D01*
X142256417Y-94512331D01*
X142517414Y-94251789D01*
X142658839Y-93911201D01*
X142659161Y-93542417D01*
X142518331Y-93201583D01*
X142409000Y-93092061D01*
X142409000Y-87630000D01*
X142357466Y-87370923D01*
X142257681Y-87221583D01*
X142758839Y-87221583D01*
X142899669Y-87562417D01*
X143160211Y-87823414D01*
X143160599Y-87823575D01*
X143267000Y-87929976D01*
X143267000Y-93641191D01*
X143266839Y-93825583D01*
X143407669Y-94166417D01*
X143668211Y-94427414D01*
X144008799Y-94568839D01*
X144377583Y-94569161D01*
X144718417Y-94428331D01*
X144979414Y-94167789D01*
X145120839Y-93827201D01*
X145121062Y-93571583D01*
X163586839Y-93571583D01*
X163727669Y-93912417D01*
X163988211Y-94173414D01*
X164328799Y-94314839D01*
X164697583Y-94315161D01*
X165038417Y-94174331D01*
X165299414Y-93913789D01*
X165440839Y-93573201D01*
X165441161Y-93204417D01*
X165300331Y-92863583D01*
X165039789Y-92602586D01*
X164699201Y-92461161D01*
X164330417Y-92460839D01*
X163989583Y-92601669D01*
X163728586Y-92862211D01*
X163587161Y-93202799D01*
X163586839Y-93571583D01*
X145121062Y-93571583D01*
X145121161Y-93458417D01*
X145121000Y-93458027D01*
X145121000Y-90099583D01*
X150202839Y-90099583D01*
X150343669Y-90440417D01*
X150604211Y-90701414D01*
X150944799Y-90842839D01*
X151313583Y-90843161D01*
X151654417Y-90702331D01*
X151754559Y-90602364D01*
X153641161Y-90773873D01*
X154267034Y-91399746D01*
X154266839Y-91623583D01*
X154407669Y-91964417D01*
X154668211Y-92225414D01*
X155008799Y-92366839D01*
X155377583Y-92367161D01*
X155718417Y-92226331D01*
X155979414Y-91965789D01*
X156120839Y-91625201D01*
X156121161Y-91256417D01*
X155980331Y-90915583D01*
X155719789Y-90654586D01*
X155379201Y-90513161D01*
X155153676Y-90512964D01*
X154367356Y-89726644D01*
X154355292Y-89718583D01*
X159727839Y-89718583D01*
X159868669Y-90059417D01*
X160129211Y-90320414D01*
X160275629Y-90381212D01*
X160250586Y-90406211D01*
X160109161Y-90746799D01*
X160108839Y-91115583D01*
X160249669Y-91456417D01*
X160510211Y-91717414D01*
X160850799Y-91858839D01*
X161219583Y-91859161D01*
X161560417Y-91718331D01*
X161669939Y-91609000D01*
X163957986Y-91609000D01*
X164066211Y-91717414D01*
X164406799Y-91858839D01*
X164775583Y-91859161D01*
X165116417Y-91718331D01*
X165377414Y-91457789D01*
X165518839Y-91117201D01*
X165519161Y-90748417D01*
X165378331Y-90407583D01*
X165117789Y-90146586D01*
X164777201Y-90005161D01*
X164408417Y-90004839D01*
X164067583Y-90145669D01*
X163958061Y-90255000D01*
X161670014Y-90255000D01*
X161561789Y-90146586D01*
X161415371Y-90085788D01*
X161440414Y-90060789D01*
X161581839Y-89720201D01*
X161582008Y-89527000D01*
X163781073Y-89527000D01*
X163939211Y-89685414D01*
X164279799Y-89826839D01*
X164648583Y-89827161D01*
X164989417Y-89686331D01*
X165250414Y-89425789D01*
X165391839Y-89085201D01*
X165392161Y-88716417D01*
X165251331Y-88375583D01*
X164990789Y-88114586D01*
X164650201Y-87973161D01*
X164281417Y-87972839D01*
X163940583Y-88113669D01*
X163780974Y-88273000D01*
X161290000Y-88273000D01*
X161050058Y-88320727D01*
X160846644Y-88456644D01*
X160695254Y-88608034D01*
X160471417Y-88607839D01*
X160130583Y-88748669D01*
X159869586Y-89009211D01*
X159728161Y-89349799D01*
X159727839Y-89718583D01*
X154355292Y-89718583D01*
X154288849Y-89674188D01*
X154215403Y-89614830D01*
X154187836Y-89606693D01*
X154163942Y-89590728D01*
X154071334Y-89572307D01*
X153980766Y-89545575D01*
X151879350Y-89354537D01*
X151655789Y-89130586D01*
X151315201Y-88989161D01*
X150946417Y-88988839D01*
X150605583Y-89129669D01*
X150344586Y-89390211D01*
X150203161Y-89730799D01*
X150202839Y-90099583D01*
X145121000Y-90099583D01*
X145121000Y-87546000D01*
X145050436Y-87191252D01*
X144849488Y-86890512D01*
X144698726Y-86739750D01*
X165435000Y-86739750D01*
X165435000Y-87330309D01*
X165531673Y-87563698D01*
X165710301Y-87742327D01*
X165943690Y-87839000D01*
X166084250Y-87839000D01*
X166243000Y-87680250D01*
X166243000Y-86581000D01*
X165593750Y-86581000D01*
X165435000Y-86739750D01*
X144698726Y-86739750D01*
X144341488Y-86382512D01*
X144211789Y-86252586D01*
X143871201Y-86111161D01*
X143502417Y-86110839D01*
X143161583Y-86251669D01*
X142900586Y-86512211D01*
X142759161Y-86852799D01*
X142758839Y-87221583D01*
X142257681Y-87221583D01*
X142210711Y-87151289D01*
X141643027Y-86583605D01*
X141643161Y-86430417D01*
X141502331Y-86089583D01*
X141241789Y-85828586D01*
X140901201Y-85687161D01*
X140532417Y-85686839D01*
X140191583Y-85827669D01*
X139930586Y-86088211D01*
X139789161Y-86428799D01*
X139788839Y-86797583D01*
X117281960Y-86797583D01*
X117281960Y-81067950D01*
X143467065Y-81067950D01*
X143467065Y-81868050D01*
X143496839Y-82026287D01*
X143590357Y-82171617D01*
X143733049Y-82269114D01*
X143902430Y-82303415D01*
X144175860Y-82303415D01*
X144175860Y-82572860D01*
X144223588Y-82812803D01*
X144359504Y-83016216D01*
X146368644Y-85025356D01*
X146572057Y-85161272D01*
X146812000Y-85209000D01*
X165666974Y-85209000D01*
X165531673Y-85344302D01*
X165435000Y-85577691D01*
X165435000Y-86168250D01*
X165593750Y-86327000D01*
X166243000Y-86327000D01*
X166243000Y-86307000D01*
X166497000Y-86307000D01*
X166497000Y-86327000D01*
X166517000Y-86327000D01*
X166517000Y-86581000D01*
X166497000Y-86581000D01*
X166497000Y-87680250D01*
X166655750Y-87839000D01*
X166796310Y-87839000D01*
X167029699Y-87742327D01*
X167168446Y-87603579D01*
X167170619Y-87605064D01*
X167340000Y-87639365D01*
X167940000Y-87639365D01*
X168098237Y-87609591D01*
X168243567Y-87516073D01*
X168274381Y-87470975D01*
X168297927Y-87507567D01*
X168440619Y-87605064D01*
X168610000Y-87639365D01*
X169210000Y-87639365D01*
X169368237Y-87609591D01*
X169513567Y-87516073D01*
X169544381Y-87470975D01*
X169567927Y-87507567D01*
X169710619Y-87605064D01*
X169880000Y-87639365D01*
X170480000Y-87639365D01*
X170638237Y-87609591D01*
X170783567Y-87516073D01*
X170814381Y-87470975D01*
X170837927Y-87507567D01*
X170980619Y-87605064D01*
X171150000Y-87639365D01*
X171750000Y-87639365D01*
X171908237Y-87609591D01*
X172053567Y-87516073D01*
X172084381Y-87470975D01*
X172107927Y-87507567D01*
X172250619Y-87605064D01*
X172420000Y-87639365D01*
X173020000Y-87639365D01*
X173178237Y-87609591D01*
X173323567Y-87516073D01*
X173354381Y-87470975D01*
X173377927Y-87507567D01*
X173520619Y-87605064D01*
X173690000Y-87639365D01*
X174290000Y-87639365D01*
X174448237Y-87609591D01*
X174593567Y-87516073D01*
X174624381Y-87470975D01*
X174647927Y-87507567D01*
X174790619Y-87605064D01*
X174960000Y-87639365D01*
X175560000Y-87639365D01*
X175718237Y-87609591D01*
X175863567Y-87516073D01*
X175961064Y-87373381D01*
X175995365Y-87204000D01*
X175995365Y-85704000D01*
X175965591Y-85545763D01*
X175887000Y-85423630D01*
X175887000Y-83063712D01*
X176647297Y-82303415D01*
X177453290Y-82303415D01*
X177611527Y-82273641D01*
X177756857Y-82180123D01*
X177854354Y-82037431D01*
X177888655Y-81868050D01*
X177888655Y-81067950D01*
X177858881Y-80909713D01*
X177790696Y-80803750D01*
X178019710Y-80803750D01*
X178019710Y-81044359D01*
X178116383Y-81277748D01*
X178295011Y-81456377D01*
X178528400Y-81553050D01*
X179269390Y-81553050D01*
X179428140Y-81394300D01*
X179428140Y-80645000D01*
X179682140Y-80645000D01*
X179682140Y-81394300D01*
X179840890Y-81553050D01*
X180581880Y-81553050D01*
X180815269Y-81456377D01*
X180993897Y-81277748D01*
X181090570Y-81044359D01*
X181090570Y-80803750D01*
X180931820Y-80645000D01*
X179682140Y-80645000D01*
X179428140Y-80645000D01*
X178178460Y-80645000D01*
X178019710Y-80803750D01*
X177790696Y-80803750D01*
X177765363Y-80764383D01*
X177622671Y-80666886D01*
X177453290Y-80632585D01*
X175652430Y-80632585D01*
X175494193Y-80662359D01*
X175348863Y-80755877D01*
X175251366Y-80898569D01*
X175217065Y-81067950D01*
X175217065Y-81868050D01*
X175231662Y-81945626D01*
X174816644Y-82360644D01*
X174680728Y-82564057D01*
X174633000Y-82804000D01*
X174633000Y-85426222D01*
X174625619Y-85437025D01*
X174617000Y-85423630D01*
X174617000Y-84836000D01*
X174569272Y-84596057D01*
X174433356Y-84392644D01*
X171792655Y-81751943D01*
X171792655Y-81067950D01*
X171762881Y-80909713D01*
X171694696Y-80803750D01*
X171923710Y-80803750D01*
X171923710Y-81044359D01*
X172020383Y-81277748D01*
X172199011Y-81456377D01*
X172432400Y-81553050D01*
X173173390Y-81553050D01*
X173332140Y-81394300D01*
X173332140Y-80645000D01*
X173586140Y-80645000D01*
X173586140Y-81394300D01*
X173744890Y-81553050D01*
X174485880Y-81553050D01*
X174719269Y-81456377D01*
X174897897Y-81277748D01*
X174994570Y-81044359D01*
X174994570Y-80803750D01*
X174835820Y-80645000D01*
X173586140Y-80645000D01*
X173332140Y-80645000D01*
X172082460Y-80645000D01*
X171923710Y-80803750D01*
X171694696Y-80803750D01*
X171669363Y-80764383D01*
X171526671Y-80666886D01*
X171357290Y-80632585D01*
X169556430Y-80632585D01*
X169398193Y-80662359D01*
X169252863Y-80755877D01*
X169155366Y-80898569D01*
X169121065Y-81067950D01*
X169121065Y-81868050D01*
X169150839Y-82026287D01*
X169233660Y-82154994D01*
X165867712Y-82154994D01*
X165677139Y-81964421D01*
X165696655Y-81868050D01*
X165696655Y-81067950D01*
X165666881Y-80909713D01*
X165598696Y-80803750D01*
X165827710Y-80803750D01*
X165827710Y-81044359D01*
X165924383Y-81277748D01*
X166103011Y-81456377D01*
X166336400Y-81553050D01*
X167077390Y-81553050D01*
X167236140Y-81394300D01*
X167236140Y-80645000D01*
X167490140Y-80645000D01*
X167490140Y-81394300D01*
X167648890Y-81553050D01*
X168389880Y-81553050D01*
X168623269Y-81456377D01*
X168801897Y-81277748D01*
X168898570Y-81044359D01*
X168898570Y-80803750D01*
X168739820Y-80645000D01*
X167490140Y-80645000D01*
X167236140Y-80645000D01*
X165986460Y-80645000D01*
X165827710Y-80803750D01*
X165598696Y-80803750D01*
X165573363Y-80764383D01*
X165430671Y-80666886D01*
X165261290Y-80632585D01*
X163460430Y-80632585D01*
X163302193Y-80662359D01*
X163156863Y-80755877D01*
X163059366Y-80898569D01*
X163025065Y-81067950D01*
X163025065Y-81868050D01*
X163054839Y-82026287D01*
X163148357Y-82171617D01*
X163291049Y-82269114D01*
X163460430Y-82303415D01*
X164242709Y-82303415D01*
X164694290Y-82754996D01*
X159263712Y-82754996D01*
X158787610Y-82278894D01*
X158815527Y-82273641D01*
X158960857Y-82180123D01*
X159058354Y-82037431D01*
X159092655Y-81868050D01*
X159092655Y-81067950D01*
X159062881Y-80909713D01*
X158994696Y-80803750D01*
X159223710Y-80803750D01*
X159223710Y-81044359D01*
X159320383Y-81277748D01*
X159499011Y-81456377D01*
X159732400Y-81553050D01*
X160473390Y-81553050D01*
X160632140Y-81394300D01*
X160632140Y-80645000D01*
X160886140Y-80645000D01*
X160886140Y-81394300D01*
X161044890Y-81553050D01*
X161785880Y-81553050D01*
X162019269Y-81456377D01*
X162197897Y-81277748D01*
X162294570Y-81044359D01*
X162294570Y-80803750D01*
X162135820Y-80645000D01*
X160886140Y-80645000D01*
X160632140Y-80645000D01*
X159382460Y-80645000D01*
X159223710Y-80803750D01*
X158994696Y-80803750D01*
X158969363Y-80764383D01*
X158826671Y-80666886D01*
X158657290Y-80632585D01*
X156856430Y-80632585D01*
X156698193Y-80662359D01*
X156552863Y-80755877D01*
X156455366Y-80898569D01*
X156421065Y-81067950D01*
X156421065Y-81868050D01*
X156450839Y-82026287D01*
X156544357Y-82171617D01*
X156687049Y-82269114D01*
X156856430Y-82303415D01*
X157163389Y-82303415D01*
X157177588Y-82374799D01*
X157217227Y-82434123D01*
X157313504Y-82578212D01*
X158090290Y-83354998D01*
X152567710Y-83354998D01*
X151779860Y-82567148D01*
X151779860Y-82303415D01*
X152053290Y-82303415D01*
X152211527Y-82273641D01*
X152356857Y-82180123D01*
X152454354Y-82037431D01*
X152488655Y-81868050D01*
X152488655Y-81067950D01*
X152458881Y-80909713D01*
X152390696Y-80803750D01*
X152619710Y-80803750D01*
X152619710Y-81044359D01*
X152716383Y-81277748D01*
X152895011Y-81456377D01*
X153128400Y-81553050D01*
X153869390Y-81553050D01*
X154028140Y-81394300D01*
X154028140Y-80645000D01*
X154282140Y-80645000D01*
X154282140Y-81394300D01*
X154440890Y-81553050D01*
X155181880Y-81553050D01*
X155415269Y-81456377D01*
X155593897Y-81277748D01*
X155690570Y-81044359D01*
X155690570Y-80803750D01*
X155531820Y-80645000D01*
X154282140Y-80645000D01*
X154028140Y-80645000D01*
X152778460Y-80645000D01*
X152619710Y-80803750D01*
X152390696Y-80803750D01*
X152365363Y-80764383D01*
X152222671Y-80666886D01*
X152053290Y-80632585D01*
X150252430Y-80632585D01*
X150094193Y-80662359D01*
X149948863Y-80755877D01*
X149851366Y-80898569D01*
X149817065Y-81067950D01*
X149817065Y-81868050D01*
X149846839Y-82026287D01*
X149940357Y-82171617D01*
X150083049Y-82269114D01*
X150252430Y-82303415D01*
X150525860Y-82303415D01*
X150525860Y-82826860D01*
X150573588Y-83066803D01*
X150709504Y-83270216D01*
X151394288Y-83955000D01*
X147071712Y-83955000D01*
X145429860Y-82313148D01*
X145429860Y-82303415D01*
X145703290Y-82303415D01*
X145861527Y-82273641D01*
X146006857Y-82180123D01*
X146104354Y-82037431D01*
X146138655Y-81868050D01*
X146138655Y-81067950D01*
X146108881Y-80909713D01*
X146040696Y-80803750D01*
X146269710Y-80803750D01*
X146269710Y-81044359D01*
X146366383Y-81277748D01*
X146545011Y-81456377D01*
X146778400Y-81553050D01*
X147519390Y-81553050D01*
X147678140Y-81394300D01*
X147678140Y-80645000D01*
X147932140Y-80645000D01*
X147932140Y-81394300D01*
X148090890Y-81553050D01*
X148831880Y-81553050D01*
X149065269Y-81456377D01*
X149243897Y-81277748D01*
X149340570Y-81044359D01*
X149340570Y-80803750D01*
X149181820Y-80645000D01*
X147932140Y-80645000D01*
X147678140Y-80645000D01*
X146428460Y-80645000D01*
X146269710Y-80803750D01*
X146040696Y-80803750D01*
X146015363Y-80764383D01*
X145872671Y-80666886D01*
X145703290Y-80632585D01*
X143902430Y-80632585D01*
X143744193Y-80662359D01*
X143598863Y-80755877D01*
X143501366Y-80898569D01*
X143467065Y-81067950D01*
X117281960Y-81067950D01*
X117281960Y-79167950D01*
X143467065Y-79167950D01*
X143467065Y-79968050D01*
X143496839Y-80126287D01*
X143590357Y-80271617D01*
X143733049Y-80369114D01*
X143902430Y-80403415D01*
X145703290Y-80403415D01*
X145861527Y-80373641D01*
X146006857Y-80280123D01*
X146104354Y-80137431D01*
X146133877Y-79991641D01*
X146269710Y-79991641D01*
X146269710Y-80232250D01*
X146428460Y-80391000D01*
X147678140Y-80391000D01*
X147678140Y-79641700D01*
X147932140Y-79641700D01*
X147932140Y-80391000D01*
X149181820Y-80391000D01*
X149340570Y-80232250D01*
X149340570Y-79991641D01*
X149243897Y-79758252D01*
X149065269Y-79579623D01*
X148831880Y-79482950D01*
X148090890Y-79482950D01*
X147932140Y-79641700D01*
X147678140Y-79641700D01*
X147519390Y-79482950D01*
X146778400Y-79482950D01*
X146545011Y-79579623D01*
X146366383Y-79758252D01*
X146269710Y-79991641D01*
X146133877Y-79991641D01*
X146138655Y-79968050D01*
X146138655Y-79167950D01*
X149817065Y-79167950D01*
X149817065Y-79968050D01*
X149846839Y-80126287D01*
X149940357Y-80271617D01*
X150083049Y-80369114D01*
X150252430Y-80403415D01*
X152053290Y-80403415D01*
X152211527Y-80373641D01*
X152356857Y-80280123D01*
X152454354Y-80137431D01*
X152483877Y-79991641D01*
X152619710Y-79991641D01*
X152619710Y-80232250D01*
X152778460Y-80391000D01*
X154028140Y-80391000D01*
X154028140Y-79641700D01*
X154282140Y-79641700D01*
X154282140Y-80391000D01*
X155531820Y-80391000D01*
X155690570Y-80232250D01*
X155690570Y-79991641D01*
X155593897Y-79758252D01*
X155415269Y-79579623D01*
X155181880Y-79482950D01*
X154440890Y-79482950D01*
X154282140Y-79641700D01*
X154028140Y-79641700D01*
X153869390Y-79482950D01*
X153128400Y-79482950D01*
X152895011Y-79579623D01*
X152716383Y-79758252D01*
X152619710Y-79991641D01*
X152483877Y-79991641D01*
X152488655Y-79968050D01*
X152488655Y-79167950D01*
X156421065Y-79167950D01*
X156421065Y-79968050D01*
X156450839Y-80126287D01*
X156544357Y-80271617D01*
X156687049Y-80369114D01*
X156856430Y-80403415D01*
X158657290Y-80403415D01*
X158815527Y-80373641D01*
X158960857Y-80280123D01*
X159058354Y-80137431D01*
X159087877Y-79991641D01*
X159223710Y-79991641D01*
X159223710Y-80232250D01*
X159382460Y-80391000D01*
X160632140Y-80391000D01*
X160632140Y-79641700D01*
X160886140Y-79641700D01*
X160886140Y-80391000D01*
X162135820Y-80391000D01*
X162294570Y-80232250D01*
X162294570Y-79991641D01*
X162197897Y-79758252D01*
X162019269Y-79579623D01*
X161785880Y-79482950D01*
X161044890Y-79482950D01*
X160886140Y-79641700D01*
X160632140Y-79641700D01*
X160473390Y-79482950D01*
X159732400Y-79482950D01*
X159499011Y-79579623D01*
X159320383Y-79758252D01*
X159223710Y-79991641D01*
X159087877Y-79991641D01*
X159092655Y-79968050D01*
X159092655Y-79167950D01*
X159062881Y-79009713D01*
X158969363Y-78864383D01*
X158826671Y-78766886D01*
X158657290Y-78732585D01*
X158335000Y-78732585D01*
X158335000Y-77589365D01*
X158358000Y-77589365D01*
X158516237Y-77559591D01*
X158661567Y-77466073D01*
X158759064Y-77323381D01*
X158793365Y-77154000D01*
X158793365Y-75754000D01*
X158763591Y-75595763D01*
X158670073Y-75450433D01*
X158527381Y-75352936D01*
X158358000Y-75318635D01*
X156958000Y-75318635D01*
X156799763Y-75348409D01*
X156654433Y-75441927D01*
X156556936Y-75584619D01*
X156522635Y-75754000D01*
X156522635Y-77154000D01*
X156552409Y-77312237D01*
X156645927Y-77457567D01*
X156788619Y-77555064D01*
X156958000Y-77589365D01*
X156981000Y-77589365D01*
X156981000Y-78732585D01*
X156856430Y-78732585D01*
X156698193Y-78762359D01*
X156552863Y-78855877D01*
X156455366Y-78998569D01*
X156421065Y-79167950D01*
X152488655Y-79167950D01*
X152458881Y-79009713D01*
X152365363Y-78864383D01*
X152222671Y-78766886D01*
X152053290Y-78732585D01*
X151985000Y-78732585D01*
X151985000Y-77589365D01*
X152008000Y-77589365D01*
X152166237Y-77559591D01*
X152311567Y-77466073D01*
X152409064Y-77323381D01*
X152443365Y-77154000D01*
X152443365Y-75754000D01*
X152413591Y-75595763D01*
X152320073Y-75450433D01*
X152177381Y-75352936D01*
X152008000Y-75318635D01*
X150608000Y-75318635D01*
X150449763Y-75348409D01*
X150304433Y-75441927D01*
X150206936Y-75584619D01*
X150172635Y-75754000D01*
X150172635Y-77154000D01*
X150202409Y-77312237D01*
X150295927Y-77457567D01*
X150438619Y-77555064D01*
X150608000Y-77589365D01*
X150631000Y-77589365D01*
X150631000Y-78732585D01*
X150252430Y-78732585D01*
X150094193Y-78762359D01*
X149948863Y-78855877D01*
X149851366Y-78998569D01*
X149817065Y-79167950D01*
X146138655Y-79167950D01*
X146108881Y-79009713D01*
X146015363Y-78864383D01*
X145872671Y-78766886D01*
X145703290Y-78732585D01*
X145508000Y-78732585D01*
X145508000Y-77081365D01*
X145531000Y-77081365D01*
X145689237Y-77051591D01*
X145834567Y-76958073D01*
X145932064Y-76815381D01*
X145966365Y-76646000D01*
X145966365Y-75246000D01*
X145936591Y-75087763D01*
X145843073Y-74942433D01*
X145700381Y-74844936D01*
X145531000Y-74810635D01*
X144131000Y-74810635D01*
X143972763Y-74840409D01*
X143827433Y-74933927D01*
X143729936Y-75076619D01*
X143695635Y-75246000D01*
X143695635Y-76646000D01*
X143725409Y-76804237D01*
X143818927Y-76949567D01*
X143961619Y-77047064D01*
X144131000Y-77081365D01*
X144154000Y-77081365D01*
X144154000Y-78732585D01*
X143902430Y-78732585D01*
X143744193Y-78762359D01*
X143598863Y-78855877D01*
X143501366Y-78998569D01*
X143467065Y-79167950D01*
X117281960Y-79167950D01*
X117281960Y-59290469D01*
X120730794Y-59290469D01*
X120911427Y-59727635D01*
X121245606Y-60062397D01*
X121682456Y-60243793D01*
X122151781Y-60244203D01*
X122424731Y-60517153D01*
X122157544Y-60406207D01*
X121684531Y-60405794D01*
X121247365Y-60586427D01*
X120912603Y-60920606D01*
X120731207Y-61357456D01*
X120730794Y-61830469D01*
X120911427Y-62267635D01*
X121245606Y-62602397D01*
X121682456Y-62783793D01*
X122155469Y-62784206D01*
X122592635Y-62603573D01*
X122927397Y-62269394D01*
X123108793Y-61832544D01*
X123109206Y-61359531D01*
X122941013Y-60952473D01*
X123190000Y-61002000D01*
X128498805Y-61002000D01*
X128351207Y-61357456D01*
X128350794Y-61830469D01*
X128531427Y-62267635D01*
X128865606Y-62602397D01*
X129302456Y-62783793D01*
X129775469Y-62784206D01*
X130212635Y-62603573D01*
X130547397Y-62269394D01*
X130728793Y-61832544D01*
X130729206Y-61359531D01*
X130581477Y-61002000D01*
X133578805Y-61002000D01*
X133431207Y-61357456D01*
X133430794Y-61830469D01*
X133578523Y-62188000D01*
X131445000Y-62188000D01*
X131185923Y-62239534D01*
X130966289Y-62386289D01*
X130219680Y-63132898D01*
X130214394Y-63127603D01*
X129777544Y-62946207D01*
X129304531Y-62945794D01*
X128867365Y-63126427D01*
X128532603Y-63460606D01*
X128351207Y-63897456D01*
X128350794Y-64370469D01*
X128498523Y-64728000D01*
X123470422Y-64728000D01*
X123108798Y-64366376D01*
X123109206Y-63899531D01*
X122928573Y-63462365D01*
X122594394Y-63127603D01*
X122157544Y-62946207D01*
X121684531Y-62945794D01*
X121247365Y-63126427D01*
X120912603Y-63460606D01*
X120731207Y-63897456D01*
X120730794Y-64370469D01*
X120911427Y-64807635D01*
X121245606Y-65142397D01*
X121682456Y-65323793D01*
X122151781Y-65324203D01*
X122424731Y-65597153D01*
X122157544Y-65486207D01*
X121684531Y-65485794D01*
X121247365Y-65666427D01*
X120912603Y-66000606D01*
X120731207Y-66437456D01*
X120730794Y-66910469D01*
X120911427Y-67347635D01*
X121245606Y-67682397D01*
X121682456Y-67863793D01*
X122151781Y-67864203D01*
X122424731Y-68137153D01*
X122157544Y-68026207D01*
X121684531Y-68025794D01*
X121247365Y-68206427D01*
X120912603Y-68540606D01*
X120731207Y-68977456D01*
X120730794Y-69450469D01*
X120911427Y-69887635D01*
X121245606Y-70222397D01*
X121418115Y-70294029D01*
X121441289Y-70328711D01*
X122711289Y-71598711D01*
X122930923Y-71745466D01*
X123190000Y-71797000D01*
X146643000Y-71797000D01*
X146643000Y-74035000D01*
X146694534Y-74294077D01*
X146802371Y-74455466D01*
X146841289Y-74513711D01*
X146995635Y-74668057D01*
X146995635Y-75546000D01*
X147025409Y-75704237D01*
X147118927Y-75849567D01*
X147261619Y-75947064D01*
X147262229Y-75947188D01*
X147127433Y-76033927D01*
X147029936Y-76176619D01*
X146995635Y-76346000D01*
X146995635Y-77746000D01*
X147025409Y-77904237D01*
X147118927Y-78049567D01*
X147261619Y-78147064D01*
X147431000Y-78181365D01*
X148831000Y-78181365D01*
X148989237Y-78151591D01*
X149134567Y-78058073D01*
X149232064Y-77915381D01*
X149266365Y-77746000D01*
X149266365Y-76346000D01*
X149236591Y-76187763D01*
X149143073Y-76042433D01*
X149000381Y-75944936D01*
X148999771Y-75944812D01*
X149134567Y-75858073D01*
X149232064Y-75715381D01*
X149266365Y-75546000D01*
X149266365Y-74146000D01*
X149236591Y-73987763D01*
X149143073Y-73842433D01*
X149000381Y-73744936D01*
X148831000Y-73710635D01*
X147997000Y-73710635D01*
X147997000Y-71797000D01*
X155083578Y-71797000D01*
X154334289Y-72546289D01*
X154187534Y-72765923D01*
X154136000Y-73025000D01*
X154136000Y-74218635D01*
X153908000Y-74218635D01*
X153749763Y-74248409D01*
X153604433Y-74341927D01*
X153506936Y-74484619D01*
X153472635Y-74654000D01*
X153472635Y-76054000D01*
X153502409Y-76212237D01*
X153595927Y-76357567D01*
X153738619Y-76455064D01*
X153739229Y-76455188D01*
X153604433Y-76541927D01*
X153506936Y-76684619D01*
X153472635Y-76854000D01*
X153472635Y-78254000D01*
X153502409Y-78412237D01*
X153595927Y-78557567D01*
X153738619Y-78655064D01*
X153908000Y-78689365D01*
X155308000Y-78689365D01*
X155466237Y-78659591D01*
X155611567Y-78566073D01*
X155709064Y-78423381D01*
X155743365Y-78254000D01*
X155743365Y-76854000D01*
X155713591Y-76695763D01*
X155620073Y-76550433D01*
X155477381Y-76452936D01*
X155476771Y-76452812D01*
X155611567Y-76366073D01*
X155709064Y-76223381D01*
X155743365Y-76054000D01*
X155743365Y-74654000D01*
X155713591Y-74495763D01*
X155620073Y-74350433D01*
X155490000Y-74261558D01*
X155490000Y-73305422D01*
X155982422Y-72813000D01*
X161117579Y-72813000D01*
X160479289Y-73451291D01*
X160332534Y-73670925D01*
X160281000Y-73930002D01*
X160281000Y-74218635D01*
X160258000Y-74218635D01*
X160099763Y-74248409D01*
X159954433Y-74341927D01*
X159856936Y-74484619D01*
X159822635Y-74654000D01*
X159822635Y-76054000D01*
X159852409Y-76212237D01*
X159945927Y-76357567D01*
X160088619Y-76455064D01*
X160089229Y-76455188D01*
X159954433Y-76541927D01*
X159856936Y-76684619D01*
X159822635Y-76854000D01*
X159822635Y-78254000D01*
X159852409Y-78412237D01*
X159945927Y-78557567D01*
X160088619Y-78655064D01*
X160258000Y-78689365D01*
X161658000Y-78689365D01*
X161816237Y-78659591D01*
X161961567Y-78566073D01*
X162059064Y-78423381D01*
X162093365Y-78254000D01*
X162093365Y-76854000D01*
X162063591Y-76695763D01*
X161970073Y-76550433D01*
X161827381Y-76452936D01*
X161826771Y-76452812D01*
X161961567Y-76366073D01*
X162059064Y-76223381D01*
X162093365Y-76054000D01*
X162093365Y-75754000D01*
X162872635Y-75754000D01*
X162872635Y-77154000D01*
X162902409Y-77312237D01*
X162995927Y-77457567D01*
X163138619Y-77555064D01*
X163308000Y-77589365D01*
X163331000Y-77589365D01*
X163331000Y-78756939D01*
X163302193Y-78762359D01*
X163156863Y-78855877D01*
X163059366Y-78998569D01*
X163025065Y-79167950D01*
X163025065Y-79968050D01*
X163054839Y-80126287D01*
X163148357Y-80271617D01*
X163291049Y-80369114D01*
X163460430Y-80403415D01*
X165261290Y-80403415D01*
X165419527Y-80373641D01*
X165564857Y-80280123D01*
X165662354Y-80137431D01*
X165691877Y-79991641D01*
X165827710Y-79991641D01*
X165827710Y-80232250D01*
X165986460Y-80391000D01*
X167236140Y-80391000D01*
X167236140Y-79641700D01*
X167490140Y-79641700D01*
X167490140Y-80391000D01*
X168739820Y-80391000D01*
X168898570Y-80232250D01*
X168898570Y-79991641D01*
X168801897Y-79758252D01*
X168623269Y-79579623D01*
X168389880Y-79482950D01*
X167648890Y-79482950D01*
X167490140Y-79641700D01*
X167236140Y-79641700D01*
X167077390Y-79482950D01*
X166336400Y-79482950D01*
X166103011Y-79579623D01*
X165924383Y-79758252D01*
X165827710Y-79991641D01*
X165691877Y-79991641D01*
X165696655Y-79968050D01*
X165696655Y-79167950D01*
X169121065Y-79167950D01*
X169121065Y-79968050D01*
X169150839Y-80126287D01*
X169244357Y-80271617D01*
X169387049Y-80369114D01*
X169556430Y-80403415D01*
X171357290Y-80403415D01*
X171515527Y-80373641D01*
X171660857Y-80280123D01*
X171758354Y-80137431D01*
X171787877Y-79991641D01*
X171923710Y-79991641D01*
X171923710Y-80232250D01*
X172082460Y-80391000D01*
X173332140Y-80391000D01*
X173332140Y-79641700D01*
X173586140Y-79641700D01*
X173586140Y-80391000D01*
X174835820Y-80391000D01*
X174994570Y-80232250D01*
X174994570Y-79991641D01*
X174897897Y-79758252D01*
X174719269Y-79579623D01*
X174485880Y-79482950D01*
X173744890Y-79482950D01*
X173586140Y-79641700D01*
X173332140Y-79641700D01*
X173173390Y-79482950D01*
X172432400Y-79482950D01*
X172199011Y-79579623D01*
X172020383Y-79758252D01*
X171923710Y-79991641D01*
X171787877Y-79991641D01*
X171792655Y-79968050D01*
X171792655Y-79167950D01*
X171762881Y-79009713D01*
X171669363Y-78864383D01*
X171526671Y-78766886D01*
X171357290Y-78732585D01*
X171035000Y-78732585D01*
X171035000Y-77335365D01*
X171058000Y-77335365D01*
X171216237Y-77305591D01*
X171361567Y-77212073D01*
X171459064Y-77069381D01*
X171493365Y-76900000D01*
X171493365Y-75500000D01*
X171463591Y-75341763D01*
X171370073Y-75196433D01*
X171227381Y-75098936D01*
X171058000Y-75064635D01*
X169658000Y-75064635D01*
X169499763Y-75094409D01*
X169354433Y-75187927D01*
X169256936Y-75330619D01*
X169222635Y-75500000D01*
X169222635Y-76900000D01*
X169252409Y-77058237D01*
X169345927Y-77203567D01*
X169488619Y-77301064D01*
X169658000Y-77335365D01*
X169681000Y-77335365D01*
X169681000Y-78732585D01*
X169556430Y-78732585D01*
X169398193Y-78762359D01*
X169252863Y-78855877D01*
X169155366Y-78998569D01*
X169121065Y-79167950D01*
X165696655Y-79167950D01*
X165666881Y-79009713D01*
X165573363Y-78864383D01*
X165430671Y-78766886D01*
X165261290Y-78732585D01*
X164685000Y-78732585D01*
X164685000Y-77589365D01*
X164708000Y-77589365D01*
X164866237Y-77559591D01*
X165011567Y-77466073D01*
X165109064Y-77323381D01*
X165143365Y-77154000D01*
X165143365Y-75754000D01*
X165113591Y-75595763D01*
X165020073Y-75450433D01*
X164877381Y-75352936D01*
X164708000Y-75318635D01*
X163308000Y-75318635D01*
X163149763Y-75348409D01*
X163004433Y-75441927D01*
X162906936Y-75584619D01*
X162872635Y-75754000D01*
X162093365Y-75754000D01*
X162093365Y-74654000D01*
X162063591Y-74495763D01*
X161970073Y-74350433D01*
X161827381Y-74252936D01*
X161658000Y-74218635D01*
X161635000Y-74218635D01*
X161635000Y-74210424D01*
X162332423Y-73513002D01*
X167429576Y-73513002D01*
X166829289Y-74113289D01*
X166758899Y-74218635D01*
X166608000Y-74218635D01*
X166449763Y-74248409D01*
X166304433Y-74341927D01*
X166206936Y-74484619D01*
X166172635Y-74654000D01*
X166172635Y-76054000D01*
X166202409Y-76212237D01*
X166295927Y-76357567D01*
X166438619Y-76455064D01*
X166439229Y-76455188D01*
X166304433Y-76541927D01*
X166206936Y-76684619D01*
X166172635Y-76854000D01*
X166172635Y-78254000D01*
X166202409Y-78412237D01*
X166295927Y-78557567D01*
X166438619Y-78655064D01*
X166608000Y-78689365D01*
X168008000Y-78689365D01*
X168166237Y-78659591D01*
X168311567Y-78566073D01*
X168409064Y-78423381D01*
X168443365Y-78254000D01*
X168443365Y-76854000D01*
X168413591Y-76695763D01*
X168320073Y-76550433D01*
X168177381Y-76452936D01*
X168176771Y-76452812D01*
X168311567Y-76366073D01*
X168409064Y-76223381D01*
X168443365Y-76054000D01*
X168443365Y-74654000D01*
X168413591Y-74495763D01*
X168393258Y-74464164D01*
X168644418Y-74213004D01*
X172568972Y-74213004D01*
X172556936Y-74230619D01*
X172522635Y-74400000D01*
X172522635Y-75800000D01*
X172552409Y-75958237D01*
X172645927Y-76103567D01*
X172788619Y-76201064D01*
X172789229Y-76201188D01*
X172654433Y-76287927D01*
X172556936Y-76430619D01*
X172522635Y-76600000D01*
X172522635Y-78000000D01*
X172552409Y-78158237D01*
X172645927Y-78303567D01*
X172788619Y-78401064D01*
X172958000Y-78435365D01*
X174358000Y-78435365D01*
X174516237Y-78405591D01*
X174661567Y-78312073D01*
X174759064Y-78169381D01*
X174793365Y-78000000D01*
X174793365Y-76600000D01*
X174763591Y-76441763D01*
X174670073Y-76296433D01*
X174527381Y-76198936D01*
X174526771Y-76198812D01*
X174661567Y-76112073D01*
X174759064Y-75969381D01*
X174793365Y-75800000D01*
X174793365Y-75500000D01*
X175064635Y-75500000D01*
X175064635Y-76900000D01*
X175094409Y-77058237D01*
X175187927Y-77203567D01*
X175330619Y-77301064D01*
X175500000Y-77335365D01*
X175523000Y-77335365D01*
X175523000Y-78756939D01*
X175494193Y-78762359D01*
X175348863Y-78855877D01*
X175251366Y-78998569D01*
X175217065Y-79167950D01*
X175217065Y-79968050D01*
X175246839Y-80126287D01*
X175340357Y-80271617D01*
X175483049Y-80369114D01*
X175652430Y-80403415D01*
X177453290Y-80403415D01*
X177611527Y-80373641D01*
X177756857Y-80280123D01*
X177854354Y-80137431D01*
X177883877Y-79991641D01*
X178019710Y-79991641D01*
X178019710Y-80232250D01*
X178178460Y-80391000D01*
X179428140Y-80391000D01*
X179428140Y-79641700D01*
X179682140Y-79641700D01*
X179682140Y-80391000D01*
X180931820Y-80391000D01*
X181090570Y-80232250D01*
X181090570Y-79991641D01*
X180993897Y-79758252D01*
X180815269Y-79579623D01*
X180581880Y-79482950D01*
X179840890Y-79482950D01*
X179682140Y-79641700D01*
X179428140Y-79641700D01*
X179269390Y-79482950D01*
X178528400Y-79482950D01*
X178295011Y-79579623D01*
X178116383Y-79758252D01*
X178019710Y-79991641D01*
X177883877Y-79991641D01*
X177888655Y-79968050D01*
X177888655Y-79167950D01*
X177858881Y-79009713D01*
X177765363Y-78864383D01*
X177622671Y-78766886D01*
X177453290Y-78732585D01*
X176877000Y-78732585D01*
X176877000Y-77335365D01*
X176900000Y-77335365D01*
X177058237Y-77305591D01*
X177203567Y-77212073D01*
X177301064Y-77069381D01*
X177335365Y-76900000D01*
X177335365Y-75500000D01*
X177305591Y-75341763D01*
X177212073Y-75196433D01*
X177069381Y-75098936D01*
X176900000Y-75064635D01*
X175500000Y-75064635D01*
X175341763Y-75094409D01*
X175196433Y-75187927D01*
X175098936Y-75330619D01*
X175064635Y-75500000D01*
X174793365Y-75500000D01*
X174793365Y-74400000D01*
X174763591Y-74241763D01*
X174670073Y-74096433D01*
X174630220Y-74069202D01*
X176732423Y-71967000D01*
X180405578Y-71967000D01*
X179021289Y-73351289D01*
X178874534Y-73570923D01*
X178823000Y-73830000D01*
X178823000Y-73964635D01*
X178800000Y-73964635D01*
X178641763Y-73994409D01*
X178496433Y-74087927D01*
X178398936Y-74230619D01*
X178364635Y-74400000D01*
X178364635Y-75800000D01*
X178394409Y-75958237D01*
X178487927Y-76103567D01*
X178630619Y-76201064D01*
X178631229Y-76201188D01*
X178496433Y-76287927D01*
X178398936Y-76430619D01*
X178364635Y-76600000D01*
X178364635Y-78000000D01*
X178394409Y-78158237D01*
X178487927Y-78303567D01*
X178630619Y-78401064D01*
X178800000Y-78435365D01*
X180200000Y-78435365D01*
X180358237Y-78405591D01*
X180503567Y-78312073D01*
X180601064Y-78169381D01*
X180635365Y-78000000D01*
X180635365Y-76600000D01*
X180605591Y-76441763D01*
X180512073Y-76296433D01*
X180369381Y-76198936D01*
X180368771Y-76198812D01*
X180503567Y-76112073D01*
X180601064Y-75969381D01*
X180635365Y-75800000D01*
X180635365Y-75500000D01*
X181414635Y-75500000D01*
X181414635Y-76900000D01*
X181444409Y-77058237D01*
X181537927Y-77203567D01*
X181680619Y-77301064D01*
X181850000Y-77335365D01*
X181873000Y-77335365D01*
X181873000Y-79010939D01*
X181844193Y-79016359D01*
X181698863Y-79109877D01*
X181601366Y-79252569D01*
X181567065Y-79421950D01*
X181567065Y-80222050D01*
X181596839Y-80380287D01*
X181690357Y-80525617D01*
X181833049Y-80623114D01*
X182002430Y-80657415D01*
X183803290Y-80657415D01*
X183961527Y-80627641D01*
X184106857Y-80534123D01*
X184204354Y-80391431D01*
X184233877Y-80245641D01*
X184369710Y-80245641D01*
X184369710Y-80486250D01*
X184528460Y-80645000D01*
X185778140Y-80645000D01*
X185778140Y-79895700D01*
X186032140Y-79895700D01*
X186032140Y-80645000D01*
X187281820Y-80645000D01*
X187440570Y-80486250D01*
X187440570Y-80245641D01*
X187343897Y-80012252D01*
X187165269Y-79833623D01*
X186931880Y-79736950D01*
X186190890Y-79736950D01*
X186032140Y-79895700D01*
X185778140Y-79895700D01*
X185619390Y-79736950D01*
X184878400Y-79736950D01*
X184645011Y-79833623D01*
X184466383Y-80012252D01*
X184369710Y-80245641D01*
X184233877Y-80245641D01*
X184238655Y-80222050D01*
X184238655Y-79421950D01*
X184208881Y-79263713D01*
X184115363Y-79118383D01*
X183972671Y-79020886D01*
X183803290Y-78986585D01*
X183227000Y-78986585D01*
X183227000Y-77335365D01*
X183250000Y-77335365D01*
X183408237Y-77305591D01*
X183553567Y-77212073D01*
X183651064Y-77069381D01*
X183685365Y-76900000D01*
X183685365Y-75500000D01*
X183655591Y-75341763D01*
X183562073Y-75196433D01*
X183419381Y-75098936D01*
X183250000Y-75064635D01*
X181850000Y-75064635D01*
X181691763Y-75094409D01*
X181546433Y-75187927D01*
X181448936Y-75330619D01*
X181414635Y-75500000D01*
X180635365Y-75500000D01*
X180635365Y-74400000D01*
X180605591Y-74241763D01*
X180512073Y-74096433D01*
X180369381Y-73998936D01*
X180302109Y-73985313D01*
X183395000Y-70892423D01*
X183395000Y-72052000D01*
X183446534Y-72311077D01*
X183593289Y-72530711D01*
X185046658Y-73984080D01*
X184991763Y-73994409D01*
X184846433Y-74087927D01*
X184748936Y-74230619D01*
X184714635Y-74400000D01*
X184714635Y-75800000D01*
X184744409Y-75958237D01*
X184837927Y-76103567D01*
X184980619Y-76201064D01*
X184981229Y-76201188D01*
X184846433Y-76287927D01*
X184748936Y-76430619D01*
X184714635Y-76600000D01*
X184714635Y-78000000D01*
X184744409Y-78158237D01*
X184837927Y-78303567D01*
X184980619Y-78401064D01*
X185150000Y-78435365D01*
X186550000Y-78435365D01*
X186708237Y-78405591D01*
X186853567Y-78312073D01*
X186951064Y-78169381D01*
X186985365Y-78000000D01*
X186985365Y-76600000D01*
X186955591Y-76441763D01*
X186862073Y-76296433D01*
X186719381Y-76198936D01*
X186718771Y-76198812D01*
X186853567Y-76112073D01*
X186951064Y-75969381D01*
X186985365Y-75800000D01*
X186985365Y-74400000D01*
X186955591Y-74241763D01*
X186862073Y-74096433D01*
X186719381Y-73998936D01*
X186550000Y-73964635D01*
X186527000Y-73964635D01*
X186527000Y-73830000D01*
X186495358Y-73670925D01*
X186475467Y-73570924D01*
X186328711Y-73351289D01*
X184749000Y-71771578D01*
X184749000Y-60247000D01*
X184697466Y-59987923D01*
X184550711Y-59768289D01*
X181528798Y-56746376D01*
X181529206Y-56279531D01*
X181348573Y-55842365D01*
X181014394Y-55507603D01*
X180577544Y-55326207D01*
X180108220Y-55325797D01*
X178278711Y-53496289D01*
X178059077Y-53349534D01*
X177800000Y-53298000D01*
X131445000Y-53298000D01*
X131185923Y-53349534D01*
X130966289Y-53496289D01*
X129061289Y-55401289D01*
X129038204Y-55435838D01*
X128867365Y-55506427D01*
X128532603Y-55840606D01*
X128351207Y-56277456D01*
X128350794Y-56750469D01*
X128531427Y-57187635D01*
X128865606Y-57522397D01*
X129302456Y-57703793D01*
X129775469Y-57704206D01*
X130212635Y-57523573D01*
X130547397Y-57189394D01*
X130728793Y-56752544D01*
X130729206Y-56279531D01*
X130548573Y-55842365D01*
X130541821Y-55835601D01*
X131725422Y-54652000D01*
X141563000Y-54652000D01*
X141563000Y-55510784D01*
X141232603Y-55840606D01*
X141051207Y-56277456D01*
X141050794Y-56750469D01*
X141198523Y-57108000D01*
X135661195Y-57108000D01*
X135808793Y-56752544D01*
X135809206Y-56279531D01*
X135628573Y-55842365D01*
X135294394Y-55507603D01*
X134857544Y-55326207D01*
X134384531Y-55325794D01*
X133947365Y-55506427D01*
X133612603Y-55840606D01*
X133431207Y-56277456D01*
X133430794Y-56750469D01*
X133578523Y-57108000D01*
X131445000Y-57108000D01*
X131185923Y-57159534D01*
X130966289Y-57306289D01*
X130219680Y-58052898D01*
X130214394Y-58047603D01*
X129777544Y-57866207D01*
X129304531Y-57865794D01*
X128867365Y-58046427D01*
X128532603Y-58380606D01*
X128351207Y-58817456D01*
X128350794Y-59290469D01*
X128498523Y-59648000D01*
X123470422Y-59648000D01*
X123108798Y-59286376D01*
X123109206Y-58819531D01*
X122928573Y-58382365D01*
X122594394Y-58047603D01*
X122157544Y-57866207D01*
X121684531Y-57865794D01*
X121247365Y-58046427D01*
X120912603Y-58380606D01*
X120731207Y-58817456D01*
X120730794Y-59290469D01*
X117281960Y-59290469D01*
X117281960Y-56750469D01*
X120730794Y-56750469D01*
X120911427Y-57187635D01*
X121245606Y-57522397D01*
X121682456Y-57703793D01*
X122155469Y-57704206D01*
X122592635Y-57523573D01*
X122927397Y-57189394D01*
X123108793Y-56752544D01*
X123109206Y-56279531D01*
X122928573Y-55842365D01*
X122594394Y-55507603D01*
X122157544Y-55326207D01*
X121684531Y-55325794D01*
X121247365Y-55506427D01*
X120912603Y-55840606D01*
X120731207Y-56277456D01*
X120730794Y-56750469D01*
X117281960Y-56750469D01*
X117281960Y-52680061D01*
X187258500Y-52933599D01*
X187258500Y-52933599D01*
G37*
X187258500Y-52933599D02*
X187258960Y-52933600D01*
X188401960Y-52933600D01*
X188401960Y-140817147D01*
X117281960Y-140564051D01*
X117281960Y-135684000D01*
X170744635Y-135684000D01*
X170744635Y-139684000D01*
X170774409Y-139842237D01*
X170867927Y-139987567D01*
X171010619Y-140085064D01*
X171180000Y-140119365D01*
X173180000Y-140119365D01*
X173338237Y-140089591D01*
X173483567Y-139996073D01*
X173581064Y-139853381D01*
X173615365Y-139684000D01*
X173615365Y-135684000D01*
X183744635Y-135684000D01*
X183744635Y-139684000D01*
X183774409Y-139842237D01*
X183867927Y-139987567D01*
X184010619Y-140085064D01*
X184180000Y-140119365D01*
X186180000Y-140119365D01*
X186338237Y-140089591D01*
X186483567Y-139996073D01*
X186581064Y-139853381D01*
X186615365Y-139684000D01*
X186615365Y-135684000D01*
X186585591Y-135525763D01*
X186492073Y-135380433D01*
X186349381Y-135282936D01*
X186180000Y-135248635D01*
X184180000Y-135248635D01*
X184021763Y-135278409D01*
X183876433Y-135371927D01*
X183778936Y-135514619D01*
X183744635Y-135684000D01*
X173615365Y-135684000D01*
X173585591Y-135525763D01*
X173492073Y-135380433D01*
X173349381Y-135282936D01*
X173180000Y-135248635D01*
X171180000Y-135248635D01*
X171021763Y-135278409D01*
X170876433Y-135371927D01*
X170778936Y-135514619D01*
X170744635Y-135684000D01*
X117281960Y-135684000D01*
X117281960Y-129825750D01*
X163615000Y-129825750D01*
X163615000Y-130516309D01*
X163711673Y-130749698D01*
X163890301Y-130928327D01*
X164123690Y-131025000D01*
X164814250Y-131025000D01*
X164973000Y-130866250D01*
X164973000Y-129667000D01*
X163773750Y-129667000D01*
X163615000Y-129825750D01*
X117281960Y-129825750D01*
X117281960Y-128563691D01*
X163615000Y-128563691D01*
X163615000Y-129254250D01*
X163773750Y-129413000D01*
X164973000Y-129413000D01*
X164973000Y-128213750D01*
X165227000Y-128213750D01*
X165227000Y-129413000D01*
X165247000Y-129413000D01*
X165247000Y-129667000D01*
X165227000Y-129667000D01*
X165227000Y-130866250D01*
X165385750Y-131025000D01*
X166076310Y-131025000D01*
X166309699Y-130928327D01*
X166488327Y-130749698D01*
X166516944Y-130680610D01*
X166844875Y-130816778D01*
X167352897Y-130817221D01*
X167822417Y-130623219D01*
X168181957Y-130264307D01*
X168376778Y-129795125D01*
X168377221Y-129287103D01*
X168183219Y-128817583D01*
X167824307Y-128458043D01*
X167355125Y-128263222D01*
X166847103Y-128262779D01*
X166516876Y-128399226D01*
X166488327Y-128330302D01*
X166309699Y-128151673D01*
X166076310Y-128055000D01*
X165385750Y-128055000D01*
X165227000Y-128213750D01*
X164973000Y-128213750D01*
X164814250Y-128055000D01*
X164123690Y-128055000D01*
X163890301Y-128151673D01*
X163711673Y-128330302D01*
X163615000Y-128563691D01*
X117281960Y-128563691D01*
X117281960Y-117788000D01*
X118882635Y-117788000D01*
X118882635Y-119788000D01*
X118912409Y-119946237D01*
X119005927Y-120091567D01*
X119148619Y-120189064D01*
X119318000Y-120223365D01*
X121318000Y-120223365D01*
X121476237Y-120193591D01*
X121621567Y-120100073D01*
X121719064Y-119957381D01*
X121753365Y-119788000D01*
X121753365Y-117788000D01*
X121723591Y-117629763D01*
X121630073Y-117484433D01*
X121487381Y-117386936D01*
X121318000Y-117352635D01*
X121231282Y-117352635D01*
X121527047Y-117057386D01*
X121744752Y-116533093D01*
X121745248Y-115965397D01*
X121528457Y-115440725D01*
X121127386Y-115038953D01*
X120980882Y-114978119D01*
X121125275Y-114918457D01*
X121527047Y-114517386D01*
X121744752Y-113993093D01*
X121745248Y-113425397D01*
X121528457Y-112900725D01*
X121465842Y-112838000D01*
X162500635Y-112838000D01*
X162500635Y-115838000D01*
X162530409Y-115996237D01*
X162623927Y-116141567D01*
X162766619Y-116239064D01*
X162936000Y-116273365D01*
X168936000Y-116273365D01*
X169094237Y-116243591D01*
X169239567Y-116150073D01*
X169337064Y-116007381D01*
X169371365Y-115838000D01*
X169371365Y-112838000D01*
X169341591Y-112679763D01*
X169248073Y-112534433D01*
X169105381Y-112436936D01*
X168936000Y-112402635D01*
X162936000Y-112402635D01*
X162777763Y-112432409D01*
X162632433Y-112525927D01*
X162534936Y-112668619D01*
X162500635Y-112838000D01*
X121465842Y-112838000D01*
X121127386Y-112498953D01*
X120980882Y-112438119D01*
X121125275Y-112378457D01*
X121527047Y-111977386D01*
X121744752Y-111453093D01*
X121745248Y-110885397D01*
X121528457Y-110360725D01*
X121249803Y-110081583D01*
X156220839Y-110081583D01*
X156361669Y-110422417D01*
X156622211Y-110683414D01*
X156962799Y-110824839D01*
X157331583Y-110825161D01*
X157672417Y-110684331D01*
X157781939Y-110575000D01*
X160831986Y-110575000D01*
X160940211Y-110683414D01*
X161280799Y-110824839D01*
X161649583Y-110825161D01*
X161990417Y-110684331D01*
X162251414Y-110423789D01*
X162392839Y-110083201D01*
X162393161Y-109714417D01*
X162252331Y-109373583D01*
X161991789Y-109112586D01*
X161651201Y-108971161D01*
X161282417Y-108970839D01*
X160941583Y-109111669D01*
X160832061Y-109221000D01*
X157782014Y-109221000D01*
X157673789Y-109112586D01*
X157516083Y-109047100D01*
X157585583Y-109047161D01*
X157926417Y-108906331D01*
X158035939Y-108797000D01*
X159815986Y-108797000D01*
X159924211Y-108905414D01*
X160264799Y-109046839D01*
X160633583Y-109047161D01*
X160974417Y-108906331D01*
X161235414Y-108645789D01*
X161321695Y-108438000D01*
X162500635Y-108438000D01*
X162500635Y-111438000D01*
X162530409Y-111596237D01*
X162623927Y-111741567D01*
X162766619Y-111839064D01*
X162936000Y-111873365D01*
X168936000Y-111873365D01*
X169094237Y-111843591D01*
X169239567Y-111750073D01*
X169337064Y-111607381D01*
X169371365Y-111438000D01*
X169371365Y-110684000D01*
X173744635Y-110684000D01*
X173744635Y-114684000D01*
X173774409Y-114842237D01*
X173867927Y-114987567D01*
X174010619Y-115085064D01*
X174180000Y-115119365D01*
X176180000Y-115119365D01*
X176338237Y-115089591D01*
X176483567Y-114996073D01*
X176581064Y-114853381D01*
X176615365Y-114684000D01*
X176615365Y-114611000D01*
X176892000Y-114611000D01*
X177246748Y-114540436D01*
X177547488Y-114339488D01*
X178917226Y-112969750D01*
X180545000Y-112969750D01*
X180545000Y-114810309D01*
X180641673Y-115043698D01*
X180820301Y-115222327D01*
X181053690Y-115319000D01*
X181894250Y-115319000D01*
X182053000Y-115160250D01*
X182053000Y-112811000D01*
X182307000Y-112811000D01*
X182307000Y-115160250D01*
X182465750Y-115319000D01*
X183306310Y-115319000D01*
X183539699Y-115222327D01*
X183718327Y-115043698D01*
X183815000Y-114810309D01*
X183815000Y-112969750D01*
X183656250Y-112811000D01*
X182307000Y-112811000D01*
X182053000Y-112811000D01*
X180703750Y-112811000D01*
X180545000Y-112969750D01*
X178917226Y-112969750D01*
X180545000Y-111341976D01*
X180545000Y-112398250D01*
X180703750Y-112557000D01*
X182053000Y-112557000D01*
X182053000Y-110207750D01*
X182307000Y-110207750D01*
X182307000Y-112557000D01*
X183656250Y-112557000D01*
X183815000Y-112398250D01*
X183815000Y-110557691D01*
X183718327Y-110324302D01*
X183539699Y-110145673D01*
X183306310Y-110049000D01*
X182465750Y-110049000D01*
X182307000Y-110207750D01*
X182053000Y-110207750D01*
X181894250Y-110049000D01*
X181711150Y-110049000D01*
X181746700Y-109870276D01*
X183715869Y-107901107D01*
X183829469Y-107901206D01*
X184266635Y-107720573D01*
X184601397Y-107386394D01*
X184782793Y-106949544D01*
X184783206Y-106476531D01*
X184602573Y-106039365D01*
X184268394Y-105704603D01*
X183831544Y-105523207D01*
X183358531Y-105522794D01*
X182921365Y-105703427D01*
X182586603Y-106037606D01*
X182405207Y-106474456D01*
X182405106Y-106589918D01*
X180192512Y-108802512D01*
X179991564Y-109103252D01*
X179949301Y-109315723D01*
X176615365Y-112649659D01*
X176615365Y-110684000D01*
X176585591Y-110525763D01*
X176492073Y-110380433D01*
X176349381Y-110282936D01*
X176180000Y-110248635D01*
X174180000Y-110248635D01*
X174021763Y-110278409D01*
X173876433Y-110371927D01*
X173778936Y-110514619D01*
X173744635Y-110684000D01*
X169371365Y-110684000D01*
X169371365Y-108438000D01*
X169341591Y-108279763D01*
X169248073Y-108134433D01*
X169105381Y-108036936D01*
X168936000Y-108002635D01*
X162936000Y-108002635D01*
X162777763Y-108032409D01*
X162632433Y-108125927D01*
X162534936Y-108268619D01*
X162500635Y-108438000D01*
X161321695Y-108438000D01*
X161376839Y-108305201D01*
X161377161Y-107936417D01*
X161236331Y-107595583D01*
X160975789Y-107334586D01*
X160635201Y-107193161D01*
X160266417Y-107192839D01*
X159925583Y-107333669D01*
X159816061Y-107443000D01*
X158036014Y-107443000D01*
X157927789Y-107334586D01*
X157587201Y-107193161D01*
X157218417Y-107192839D01*
X156877583Y-107333669D01*
X156616586Y-107594211D01*
X156475161Y-107934799D01*
X156474839Y-108303583D01*
X156615669Y-108644417D01*
X156876211Y-108905414D01*
X157033917Y-108970900D01*
X156964417Y-108970839D01*
X156623583Y-109111669D01*
X156362586Y-109372211D01*
X156221161Y-109712799D01*
X156220839Y-110081583D01*
X121249803Y-110081583D01*
X121198589Y-110030280D01*
X121290927Y-109780532D01*
X120318000Y-108807605D01*
X119345073Y-109780532D01*
X119437532Y-110030608D01*
X119108953Y-110358614D01*
X118891248Y-110882907D01*
X118890752Y-111450603D01*
X119107543Y-111975275D01*
X119508614Y-112377047D01*
X119655118Y-112437881D01*
X119510725Y-112497543D01*
X119108953Y-112898614D01*
X118891248Y-113422907D01*
X118890752Y-113990603D01*
X119107543Y-114515275D01*
X119508614Y-114917047D01*
X119655118Y-114977881D01*
X119510725Y-115037543D01*
X119108953Y-115438614D01*
X118891248Y-115962907D01*
X118890752Y-116530603D01*
X119107543Y-117055275D01*
X119404384Y-117352635D01*
X119318000Y-117352635D01*
X119159763Y-117382409D01*
X119014433Y-117475927D01*
X118916936Y-117618619D01*
X118882635Y-117788000D01*
X117281960Y-117788000D01*
X117281960Y-108363461D01*
X118672092Y-108363461D01*
X118696144Y-109013460D01*
X118898613Y-109502264D01*
X119165468Y-109600927D01*
X120138395Y-108628000D01*
X120497605Y-108628000D01*
X121470532Y-109600927D01*
X121737387Y-109502264D01*
X121963908Y-108892539D01*
X121939856Y-108242540D01*
X121737387Y-107753736D01*
X121470532Y-107655073D01*
X120497605Y-108628000D01*
X120138395Y-108628000D01*
X119165468Y-107655073D01*
X118898613Y-107753736D01*
X118672092Y-108363461D01*
X117281960Y-108363461D01*
X117281960Y-106370603D01*
X118890752Y-106370603D01*
X119107543Y-106895275D01*
X119437411Y-107225720D01*
X119345073Y-107475468D01*
X120318000Y-108448395D01*
X121290927Y-107475468D01*
X121198468Y-107225392D01*
X121527047Y-106897386D01*
X121744752Y-106373093D01*
X121745248Y-105805397D01*
X121711512Y-105723750D01*
X162301000Y-105723750D01*
X162301000Y-107064309D01*
X162397673Y-107297698D01*
X162576301Y-107476327D01*
X162809690Y-107573000D01*
X165650250Y-107573000D01*
X165809000Y-107414250D01*
X165809000Y-105565000D01*
X166063000Y-105565000D01*
X166063000Y-107414250D01*
X166221750Y-107573000D01*
X169062310Y-107573000D01*
X169295699Y-107476327D01*
X169474327Y-107297698D01*
X169571000Y-107064309D01*
X169571000Y-106947469D01*
X176404794Y-106947469D01*
X176585427Y-107384635D01*
X176919606Y-107719397D01*
X177356456Y-107900793D01*
X177829469Y-107901206D01*
X178266635Y-107720573D01*
X178601397Y-107386394D01*
X178782793Y-106949544D01*
X178782794Y-106947469D01*
X179404794Y-106947469D01*
X179585427Y-107384635D01*
X179919606Y-107719397D01*
X180356456Y-107900793D01*
X180829469Y-107901206D01*
X181266635Y-107720573D01*
X181601397Y-107386394D01*
X181782793Y-106949544D01*
X181783206Y-106476531D01*
X181602573Y-106039365D01*
X181268394Y-105704603D01*
X180831544Y-105523207D01*
X180358531Y-105522794D01*
X179921365Y-105703427D01*
X179586603Y-106037606D01*
X179405207Y-106474456D01*
X179404794Y-106947469D01*
X178782794Y-106947469D01*
X178783206Y-106476531D01*
X178602573Y-106039365D01*
X178268394Y-105704603D01*
X177831544Y-105523207D01*
X177358531Y-105522794D01*
X176921365Y-105703427D01*
X176586603Y-106037606D01*
X176405207Y-106474456D01*
X176404794Y-106947469D01*
X169571000Y-106947469D01*
X169571000Y-105723750D01*
X169412250Y-105565000D01*
X166063000Y-105565000D01*
X165809000Y-105565000D01*
X162459750Y-105565000D01*
X162301000Y-105723750D01*
X121711512Y-105723750D01*
X121528457Y-105280725D01*
X121127386Y-104878953D01*
X120603093Y-104661248D01*
X120035397Y-104660752D01*
X119510725Y-104877543D01*
X119108953Y-105278614D01*
X118891248Y-105802907D01*
X118890752Y-106370603D01*
X117281960Y-106370603D01*
X117281960Y-103811691D01*
X162301000Y-103811691D01*
X162301000Y-105152250D01*
X162459750Y-105311000D01*
X165809000Y-105311000D01*
X165809000Y-103461750D01*
X166063000Y-103461750D01*
X166063000Y-105311000D01*
X169412250Y-105311000D01*
X169571000Y-105152250D01*
X169571000Y-103811691D01*
X169474327Y-103578302D01*
X169295699Y-103399673D01*
X169062310Y-103303000D01*
X166221750Y-103303000D01*
X166063000Y-103461750D01*
X165809000Y-103461750D01*
X165650250Y-103303000D01*
X162809690Y-103303000D01*
X162576301Y-103399673D01*
X162397673Y-103578302D01*
X162301000Y-103811691D01*
X117281960Y-103811691D01*
X117281960Y-96957583D01*
X136994839Y-96957583D01*
X137135669Y-97298417D01*
X137396211Y-97559414D01*
X137736799Y-97700839D01*
X138105583Y-97701161D01*
X138446417Y-97560331D01*
X138555939Y-97451000D01*
X138967877Y-97451000D01*
X142774028Y-100281264D01*
X142836466Y-100310891D01*
X142892218Y-100351724D01*
X142954630Y-100366961D01*
X143012677Y-100394504D01*
X143081701Y-100397982D01*
X143148834Y-100414371D01*
X144639526Y-100478651D01*
X144684211Y-100523414D01*
X145024799Y-100664839D01*
X145393583Y-100665161D01*
X145734417Y-100524331D01*
X145843939Y-100415000D01*
X148512000Y-100415000D01*
X148771077Y-100363466D01*
X148990711Y-100216711D01*
X149108906Y-100098516D01*
X149108839Y-100175583D01*
X149249669Y-100516417D01*
X149510211Y-100777414D01*
X149850799Y-100918839D01*
X150219583Y-100919161D01*
X150560417Y-100778331D01*
X150669939Y-100669000D01*
X165022000Y-100669000D01*
X165281077Y-100617466D01*
X165500711Y-100470711D01*
X169388711Y-96582712D01*
X169462089Y-96472894D01*
X169503000Y-96411666D01*
X169503000Y-97469764D01*
X169401583Y-97511669D01*
X169140586Y-97772211D01*
X168999161Y-98112799D01*
X168998839Y-98481583D01*
X169139669Y-98822417D01*
X169400211Y-99083414D01*
X169740799Y-99224839D01*
X170109583Y-99225161D01*
X170450417Y-99084331D01*
X170711414Y-98823789D01*
X170852839Y-98483201D01*
X170853161Y-98114417D01*
X170846297Y-98097806D01*
X170857000Y-98044000D01*
X170857000Y-92920599D01*
X170980619Y-93005064D01*
X171150000Y-93039365D01*
X171750000Y-93039365D01*
X171908237Y-93009591D01*
X172043000Y-92922873D01*
X172043000Y-97855578D01*
X169821578Y-100077000D01*
X166546000Y-100077000D01*
X166286923Y-100128534D01*
X166154957Y-100216711D01*
X166067289Y-100275289D01*
X165249578Y-101093000D01*
X158672000Y-101093000D01*
X158412923Y-101144534D01*
X158280957Y-101232711D01*
X158193289Y-101291289D01*
X157625605Y-101858973D01*
X157472417Y-101858839D01*
X157131583Y-101999669D01*
X156870586Y-102260211D01*
X156729161Y-102600799D01*
X156728839Y-102969583D01*
X156869669Y-103310417D01*
X157130211Y-103571414D01*
X157470799Y-103712839D01*
X157839583Y-103713161D01*
X158180417Y-103572331D01*
X158441414Y-103311789D01*
X158582839Y-102971201D01*
X158582974Y-102816448D01*
X158952422Y-102447000D01*
X165530000Y-102447000D01*
X165789077Y-102395466D01*
X166008711Y-102248711D01*
X166826422Y-101431000D01*
X170102000Y-101431000D01*
X170361077Y-101379466D01*
X170580711Y-101232711D01*
X173198711Y-98614711D01*
X173345466Y-98395077D01*
X173397000Y-98136000D01*
X173397000Y-94906928D01*
X173410728Y-94975943D01*
X173546644Y-95179356D01*
X176516644Y-98149356D01*
X176720057Y-98285272D01*
X176960000Y-98333000D01*
X180086073Y-98333000D01*
X180207455Y-98454594D01*
X179719736Y-98656613D01*
X179711622Y-98678558D01*
X179709591Y-98667763D01*
X179616073Y-98522433D01*
X179473381Y-98424936D01*
X179304000Y-98390635D01*
X176804000Y-98390635D01*
X176645763Y-98420409D01*
X176500433Y-98513927D01*
X176402936Y-98656619D01*
X176368635Y-98826000D01*
X176368635Y-101326000D01*
X176398409Y-101484237D01*
X176491927Y-101629567D01*
X176634619Y-101727064D01*
X176804000Y-101761365D01*
X179304000Y-101761365D01*
X179462237Y-101731591D01*
X179607567Y-101638073D01*
X179705064Y-101495381D01*
X179710255Y-101469745D01*
X179719736Y-101495387D01*
X180329461Y-101721908D01*
X180979460Y-101697856D01*
X181468264Y-101495387D01*
X181566927Y-101228532D01*
X180594000Y-100255605D01*
X180579858Y-100269748D01*
X180400253Y-100090143D01*
X180414395Y-100076000D01*
X180400253Y-100061858D01*
X180579858Y-99882253D01*
X180594000Y-99896395D01*
X181566927Y-98923468D01*
X181468264Y-98656613D01*
X181167369Y-98544826D01*
X181294417Y-98492331D01*
X181555414Y-98231789D01*
X181696839Y-97891201D01*
X181697161Y-97522417D01*
X181556331Y-97181583D01*
X181295789Y-96920586D01*
X180955201Y-96779161D01*
X180586417Y-96778839D01*
X180245583Y-96919669D01*
X180085974Y-97079000D01*
X177219712Y-97079000D01*
X174617000Y-94476288D01*
X174617000Y-92881778D01*
X174624381Y-92870975D01*
X174647927Y-92907567D01*
X174790619Y-93005064D01*
X174960000Y-93039365D01*
X175560000Y-93039365D01*
X175718237Y-93009591D01*
X175863567Y-92916073D01*
X175961064Y-92773381D01*
X175995365Y-92604000D01*
X175995365Y-92580397D01*
X176101488Y-92509488D01*
X177089976Y-91521000D01*
X179624024Y-91521000D01*
X180351000Y-92247976D01*
X180351000Y-93896000D01*
X180421564Y-94250748D01*
X180596348Y-94512331D01*
X180622512Y-94551488D01*
X182207000Y-96135976D01*
X182207000Y-98985059D01*
X181996280Y-99195411D01*
X181746532Y-99103073D01*
X180773605Y-100076000D01*
X181746532Y-101048927D01*
X181996608Y-100956468D01*
X182324614Y-101285047D01*
X182848907Y-101502752D01*
X183416603Y-101503248D01*
X183941275Y-101286457D01*
X184343047Y-100885386D01*
X184560752Y-100361093D01*
X184561248Y-99793397D01*
X184344457Y-99268725D01*
X184061000Y-98984773D01*
X184061000Y-95752000D01*
X183990436Y-95397252D01*
X183789488Y-95096512D01*
X182205000Y-93512024D01*
X182205000Y-91864809D01*
X182205161Y-91680417D01*
X182064331Y-91339583D01*
X181803789Y-91078586D01*
X181803401Y-91078425D01*
X180663488Y-89938512D01*
X180544840Y-89859234D01*
X180362748Y-89737564D01*
X180008000Y-89667000D01*
X176706809Y-89667000D01*
X176522417Y-89666839D01*
X176181583Y-89807669D01*
X175920586Y-90068211D01*
X175920425Y-90068599D01*
X175320389Y-90668635D01*
X174960000Y-90668635D01*
X174801763Y-90698409D01*
X174656433Y-90791927D01*
X174625619Y-90837025D01*
X174602073Y-90800433D01*
X174459381Y-90702936D01*
X174290000Y-90668635D01*
X173690000Y-90668635D01*
X173531763Y-90698409D01*
X173386433Y-90791927D01*
X173355619Y-90837025D01*
X173332073Y-90800433D01*
X173221957Y-90725194D01*
X173251414Y-90695789D01*
X173392839Y-90355201D01*
X173393161Y-89986417D01*
X173252331Y-89645583D01*
X173183868Y-89577000D01*
X180327310Y-89577000D01*
X181190258Y-89948951D01*
X181253669Y-90102417D01*
X181514211Y-90363414D01*
X181854799Y-90504839D01*
X182223583Y-90505161D01*
X182564417Y-90364331D01*
X182825414Y-90103789D01*
X182953445Y-89795458D01*
X183071644Y-89972356D01*
X184715000Y-91615712D01*
X184715000Y-97410407D01*
X184669161Y-97520799D01*
X184668839Y-97889583D01*
X184809669Y-98230417D01*
X185070211Y-98491414D01*
X185410799Y-98632839D01*
X185779583Y-98633161D01*
X186120417Y-98492331D01*
X186381414Y-98231789D01*
X186522839Y-97891201D01*
X186523161Y-97522417D01*
X186382331Y-97181583D01*
X186121789Y-96920586D01*
X185969000Y-96857142D01*
X185969000Y-91356000D01*
X185921272Y-91116057D01*
X185785356Y-90912644D01*
X184142000Y-89269288D01*
X184142000Y-87119365D01*
X184192000Y-86868000D01*
X184192000Y-86741000D01*
X184142000Y-86489635D01*
X184142000Y-85471000D01*
X184127963Y-85400433D01*
X184094273Y-85231058D01*
X183958356Y-85027644D01*
X183529860Y-84599148D01*
X183529860Y-82557415D01*
X183803290Y-82557415D01*
X183961527Y-82527641D01*
X184106857Y-82434123D01*
X184204354Y-82291431D01*
X184238655Y-82122050D01*
X184238655Y-81321950D01*
X184208881Y-81163713D01*
X184140696Y-81057750D01*
X184369710Y-81057750D01*
X184369710Y-81298359D01*
X184466383Y-81531748D01*
X184645011Y-81710377D01*
X184878400Y-81807050D01*
X185619390Y-81807050D01*
X185778140Y-81648300D01*
X185778140Y-80899000D01*
X186032140Y-80899000D01*
X186032140Y-81648300D01*
X186190890Y-81807050D01*
X186931880Y-81807050D01*
X187165269Y-81710377D01*
X187343897Y-81531748D01*
X187440570Y-81298359D01*
X187440570Y-81057750D01*
X187281820Y-80899000D01*
X186032140Y-80899000D01*
X185778140Y-80899000D01*
X184528460Y-80899000D01*
X184369710Y-81057750D01*
X184140696Y-81057750D01*
X184115363Y-81018383D01*
X183972671Y-80920886D01*
X183803290Y-80886585D01*
X182002430Y-80886585D01*
X181844193Y-80916359D01*
X181698863Y-81009877D01*
X181601366Y-81152569D01*
X181567065Y-81321950D01*
X181567065Y-82122050D01*
X181596839Y-82280287D01*
X181690357Y-82425617D01*
X181833049Y-82523114D01*
X182002430Y-82557415D01*
X182275860Y-82557415D01*
X182275860Y-84858860D01*
X182323588Y-85098803D01*
X182450156Y-85288225D01*
X182459504Y-85302216D01*
X182888000Y-85730712D01*
X182888000Y-86489635D01*
X182838000Y-86741000D01*
X182838000Y-86868000D01*
X182888000Y-87119365D01*
X182888000Y-89202833D01*
X182826331Y-89053583D01*
X182565789Y-88792586D01*
X182225201Y-88651161D01*
X181856417Y-88650839D01*
X181725144Y-88705080D01*
X180734971Y-88278292D01*
X180730163Y-88277264D01*
X180726077Y-88274534D01*
X180601194Y-88249693D01*
X180476655Y-88223069D01*
X180471821Y-88223959D01*
X180467000Y-88223000D01*
X169164000Y-88223000D01*
X168904923Y-88274534D01*
X168835789Y-88320728D01*
X168685288Y-88421289D01*
X167161289Y-89945289D01*
X167014534Y-90164923D01*
X166963000Y-90424000D01*
X166963000Y-90787401D01*
X166839381Y-90702936D01*
X166670000Y-90668635D01*
X166070000Y-90668635D01*
X165911763Y-90698409D01*
X165766433Y-90791927D01*
X165668936Y-90934619D01*
X165634635Y-91104000D01*
X165634635Y-92604000D01*
X165664409Y-92762237D01*
X165757927Y-92907567D01*
X165900619Y-93005064D01*
X166070000Y-93039365D01*
X166670000Y-93039365D01*
X166828237Y-93009591D01*
X166963000Y-92922873D01*
X166963000Y-93699578D01*
X166089578Y-94573000D01*
X162052000Y-94573000D01*
X161998709Y-94583600D01*
X161983201Y-94577161D01*
X161614417Y-94576839D01*
X161273583Y-94717669D01*
X161012586Y-94978211D01*
X160871161Y-95318799D01*
X160870839Y-95687583D01*
X161011669Y-96028417D01*
X161272211Y-96289414D01*
X161612799Y-96430839D01*
X161981583Y-96431161D01*
X162322417Y-96290331D01*
X162583414Y-96029789D01*
X162626096Y-95927000D01*
X166370000Y-95927000D01*
X166629077Y-95875466D01*
X166848711Y-95728711D01*
X168118711Y-94458711D01*
X168190370Y-94351466D01*
X168233000Y-94287666D01*
X168233000Y-95823577D01*
X164741578Y-99315000D01*
X154462385Y-99315000D01*
X154596839Y-98991201D01*
X154597161Y-98622417D01*
X154456331Y-98281583D01*
X154195789Y-98020586D01*
X153855201Y-97879161D01*
X153486417Y-97878839D01*
X153145583Y-98019669D01*
X153036061Y-98129000D01*
X149444000Y-98129000D01*
X149184923Y-98180534D01*
X149108215Y-98231789D01*
X148965289Y-98327289D01*
X148231578Y-99061000D01*
X145844014Y-99061000D01*
X145735789Y-98952586D01*
X145395201Y-98811161D01*
X145026417Y-98810839D01*
X144685583Y-98951669D01*
X144518774Y-99118187D01*
X143415023Y-99070592D01*
X140573440Y-96957583D01*
X152742839Y-96957583D01*
X152883669Y-97298417D01*
X153144211Y-97559414D01*
X153484799Y-97700839D01*
X153853583Y-97701161D01*
X154194417Y-97560331D01*
X154354026Y-97401000D01*
X157314895Y-97401000D01*
X157314839Y-97465583D01*
X157455669Y-97806417D01*
X157716211Y-98067414D01*
X158056799Y-98208839D01*
X158425583Y-98209161D01*
X158766417Y-98068331D01*
X159027414Y-97807789D01*
X159168839Y-97467201D01*
X159169161Y-97098417D01*
X159028331Y-96757583D01*
X158767789Y-96496586D01*
X158427201Y-96355161D01*
X158201676Y-96354964D01*
X158177356Y-96330644D01*
X158056039Y-96249583D01*
X157973943Y-96194728D01*
X157734000Y-96147000D01*
X154353927Y-96147000D01*
X154195789Y-95988586D01*
X153855201Y-95847161D01*
X153486417Y-95846839D01*
X153145583Y-95987669D01*
X152884586Y-96248211D01*
X152743161Y-96588799D01*
X152742839Y-96957583D01*
X140573440Y-96957583D01*
X139595972Y-96230736D01*
X139520516Y-96194932D01*
X139451077Y-96148534D01*
X139402277Y-96138827D01*
X139357323Y-96117496D01*
X139273910Y-96113293D01*
X139192000Y-96097000D01*
X138556014Y-96097000D01*
X138447789Y-95988586D01*
X138107201Y-95847161D01*
X137738417Y-95846839D01*
X137397583Y-95987669D01*
X137136586Y-96248211D01*
X136995161Y-96588799D01*
X136994839Y-96957583D01*
X117281960Y-96957583D01*
X117281960Y-95433583D01*
X122897839Y-95433583D01*
X123038669Y-95774417D01*
X123299211Y-96035414D01*
X123639799Y-96176839D01*
X124008583Y-96177161D01*
X124349417Y-96036331D01*
X124610414Y-95775789D01*
X124751839Y-95435201D01*
X124752161Y-95066417D01*
X124611331Y-94725583D01*
X124350789Y-94464586D01*
X124010201Y-94323161D01*
X123641417Y-94322839D01*
X123300583Y-94463669D01*
X123039586Y-94724211D01*
X122898161Y-95064799D01*
X122897839Y-95433583D01*
X117281960Y-95433583D01*
X117281960Y-90861583D01*
X129120839Y-90861583D01*
X129261669Y-91202417D01*
X129522211Y-91463414D01*
X129862799Y-91604839D01*
X130231583Y-91605161D01*
X130572417Y-91464331D01*
X130732026Y-91305000D01*
X138000073Y-91305000D01*
X138158211Y-91463414D01*
X138498799Y-91604839D01*
X138867583Y-91605161D01*
X139208417Y-91464331D01*
X139469414Y-91203789D01*
X139610839Y-90863201D01*
X139611161Y-90494417D01*
X139470331Y-90153583D01*
X139209789Y-89892586D01*
X138869201Y-89751161D01*
X138500417Y-89750839D01*
X138159583Y-89891669D01*
X137999974Y-90051000D01*
X130731927Y-90051000D01*
X130573789Y-89892586D01*
X130233201Y-89751161D01*
X129864417Y-89750839D01*
X129523583Y-89891669D01*
X129262586Y-90152211D01*
X129121161Y-90492799D01*
X129120839Y-90861583D01*
X117281960Y-90861583D01*
X117281960Y-86797583D01*
X139788839Y-86797583D01*
X139929669Y-87138417D01*
X140190211Y-87399414D01*
X140530799Y-87540839D01*
X140685552Y-87540974D01*
X141055000Y-87910422D01*
X141055000Y-93091986D01*
X140946586Y-93200211D01*
X140805161Y-93540799D01*
X140804839Y-93909583D01*
X140945669Y-94250417D01*
X141206211Y-94511414D01*
X141546799Y-94652839D01*
X141915583Y-94653161D01*
X142256417Y-94512331D01*
X142517414Y-94251789D01*
X142658839Y-93911201D01*
X142659161Y-93542417D01*
X142518331Y-93201583D01*
X142409000Y-93092061D01*
X142409000Y-87630000D01*
X142357466Y-87370923D01*
X142257681Y-87221583D01*
X142758839Y-87221583D01*
X142899669Y-87562417D01*
X143160211Y-87823414D01*
X143160599Y-87823575D01*
X143267000Y-87929976D01*
X143267000Y-93641191D01*
X143266839Y-93825583D01*
X143407669Y-94166417D01*
X143668211Y-94427414D01*
X144008799Y-94568839D01*
X144377583Y-94569161D01*
X144718417Y-94428331D01*
X144979414Y-94167789D01*
X145120839Y-93827201D01*
X145121062Y-93571583D01*
X163586839Y-93571583D01*
X163727669Y-93912417D01*
X163988211Y-94173414D01*
X164328799Y-94314839D01*
X164697583Y-94315161D01*
X165038417Y-94174331D01*
X165299414Y-93913789D01*
X165440839Y-93573201D01*
X165441161Y-93204417D01*
X165300331Y-92863583D01*
X165039789Y-92602586D01*
X164699201Y-92461161D01*
X164330417Y-92460839D01*
X163989583Y-92601669D01*
X163728586Y-92862211D01*
X163587161Y-93202799D01*
X163586839Y-93571583D01*
X145121062Y-93571583D01*
X145121161Y-93458417D01*
X145121000Y-93458027D01*
X145121000Y-90099583D01*
X150202839Y-90099583D01*
X150343669Y-90440417D01*
X150604211Y-90701414D01*
X150944799Y-90842839D01*
X151313583Y-90843161D01*
X151654417Y-90702331D01*
X151754559Y-90602364D01*
X153641161Y-90773873D01*
X154267034Y-91399746D01*
X154266839Y-91623583D01*
X154407669Y-91964417D01*
X154668211Y-92225414D01*
X155008799Y-92366839D01*
X155377583Y-92367161D01*
X155718417Y-92226331D01*
X155979414Y-91965789D01*
X156120839Y-91625201D01*
X156121161Y-91256417D01*
X155980331Y-90915583D01*
X155719789Y-90654586D01*
X155379201Y-90513161D01*
X155153676Y-90512964D01*
X154367356Y-89726644D01*
X154355292Y-89718583D01*
X159727839Y-89718583D01*
X159868669Y-90059417D01*
X160129211Y-90320414D01*
X160275629Y-90381212D01*
X160250586Y-90406211D01*
X160109161Y-90746799D01*
X160108839Y-91115583D01*
X160249669Y-91456417D01*
X160510211Y-91717414D01*
X160850799Y-91858839D01*
X161219583Y-91859161D01*
X161560417Y-91718331D01*
X161669939Y-91609000D01*
X163957986Y-91609000D01*
X164066211Y-91717414D01*
X164406799Y-91858839D01*
X164775583Y-91859161D01*
X165116417Y-91718331D01*
X165377414Y-91457789D01*
X165518839Y-91117201D01*
X165519161Y-90748417D01*
X165378331Y-90407583D01*
X165117789Y-90146586D01*
X164777201Y-90005161D01*
X164408417Y-90004839D01*
X164067583Y-90145669D01*
X163958061Y-90255000D01*
X161670014Y-90255000D01*
X161561789Y-90146586D01*
X161415371Y-90085788D01*
X161440414Y-90060789D01*
X161581839Y-89720201D01*
X161582008Y-89527000D01*
X163781073Y-89527000D01*
X163939211Y-89685414D01*
X164279799Y-89826839D01*
X164648583Y-89827161D01*
X164989417Y-89686331D01*
X165250414Y-89425789D01*
X165391839Y-89085201D01*
X165392161Y-88716417D01*
X165251331Y-88375583D01*
X164990789Y-88114586D01*
X164650201Y-87973161D01*
X164281417Y-87972839D01*
X163940583Y-88113669D01*
X163780974Y-88273000D01*
X161290000Y-88273000D01*
X161050058Y-88320727D01*
X160846644Y-88456644D01*
X160695254Y-88608034D01*
X160471417Y-88607839D01*
X160130583Y-88748669D01*
X159869586Y-89009211D01*
X159728161Y-89349799D01*
X159727839Y-89718583D01*
X154355292Y-89718583D01*
X154288849Y-89674188D01*
X154215403Y-89614830D01*
X154187836Y-89606693D01*
X154163942Y-89590728D01*
X154071334Y-89572307D01*
X153980766Y-89545575D01*
X151879350Y-89354537D01*
X151655789Y-89130586D01*
X151315201Y-88989161D01*
X150946417Y-88988839D01*
X150605583Y-89129669D01*
X150344586Y-89390211D01*
X150203161Y-89730799D01*
X150202839Y-90099583D01*
X145121000Y-90099583D01*
X145121000Y-87546000D01*
X145050436Y-87191252D01*
X144849488Y-86890512D01*
X144698726Y-86739750D01*
X165435000Y-86739750D01*
X165435000Y-87330309D01*
X165531673Y-87563698D01*
X165710301Y-87742327D01*
X165943690Y-87839000D01*
X166084250Y-87839000D01*
X166243000Y-87680250D01*
X166243000Y-86581000D01*
X165593750Y-86581000D01*
X165435000Y-86739750D01*
X144698726Y-86739750D01*
X144341488Y-86382512D01*
X144211789Y-86252586D01*
X143871201Y-86111161D01*
X143502417Y-86110839D01*
X143161583Y-86251669D01*
X142900586Y-86512211D01*
X142759161Y-86852799D01*
X142758839Y-87221583D01*
X142257681Y-87221583D01*
X142210711Y-87151289D01*
X141643027Y-86583605D01*
X141643161Y-86430417D01*
X141502331Y-86089583D01*
X141241789Y-85828586D01*
X140901201Y-85687161D01*
X140532417Y-85686839D01*
X140191583Y-85827669D01*
X139930586Y-86088211D01*
X139789161Y-86428799D01*
X139788839Y-86797583D01*
X117281960Y-86797583D01*
X117281960Y-81067950D01*
X143467065Y-81067950D01*
X143467065Y-81868050D01*
X143496839Y-82026287D01*
X143590357Y-82171617D01*
X143733049Y-82269114D01*
X143902430Y-82303415D01*
X144175860Y-82303415D01*
X144175860Y-82572860D01*
X144223588Y-82812803D01*
X144359504Y-83016216D01*
X146368644Y-85025356D01*
X146572057Y-85161272D01*
X146812000Y-85209000D01*
X165666974Y-85209000D01*
X165531673Y-85344302D01*
X165435000Y-85577691D01*
X165435000Y-86168250D01*
X165593750Y-86327000D01*
X166243000Y-86327000D01*
X166243000Y-86307000D01*
X166497000Y-86307000D01*
X166497000Y-86327000D01*
X166517000Y-86327000D01*
X166517000Y-86581000D01*
X166497000Y-86581000D01*
X166497000Y-87680250D01*
X166655750Y-87839000D01*
X166796310Y-87839000D01*
X167029699Y-87742327D01*
X167168446Y-87603579D01*
X167170619Y-87605064D01*
X167340000Y-87639365D01*
X167940000Y-87639365D01*
X168098237Y-87609591D01*
X168243567Y-87516073D01*
X168274381Y-87470975D01*
X168297927Y-87507567D01*
X168440619Y-87605064D01*
X168610000Y-87639365D01*
X169210000Y-87639365D01*
X169368237Y-87609591D01*
X169513567Y-87516073D01*
X169544381Y-87470975D01*
X169567927Y-87507567D01*
X169710619Y-87605064D01*
X169880000Y-87639365D01*
X170480000Y-87639365D01*
X170638237Y-87609591D01*
X170783567Y-87516073D01*
X170814381Y-87470975D01*
X170837927Y-87507567D01*
X170980619Y-87605064D01*
X171150000Y-87639365D01*
X171750000Y-87639365D01*
X171908237Y-87609591D01*
X172053567Y-87516073D01*
X172084381Y-87470975D01*
X172107927Y-87507567D01*
X172250619Y-87605064D01*
X172420000Y-87639365D01*
X173020000Y-87639365D01*
X173178237Y-87609591D01*
X173323567Y-87516073D01*
X173354381Y-87470975D01*
X173377927Y-87507567D01*
X173520619Y-87605064D01*
X173690000Y-87639365D01*
X174290000Y-87639365D01*
X174448237Y-87609591D01*
X174593567Y-87516073D01*
X174624381Y-87470975D01*
X174647927Y-87507567D01*
X174790619Y-87605064D01*
X174960000Y-87639365D01*
X175560000Y-87639365D01*
X175718237Y-87609591D01*
X175863567Y-87516073D01*
X175961064Y-87373381D01*
X175995365Y-87204000D01*
X175995365Y-85704000D01*
X175965591Y-85545763D01*
X175887000Y-85423630D01*
X175887000Y-83063712D01*
X176647297Y-82303415D01*
X177453290Y-82303415D01*
X177611527Y-82273641D01*
X177756857Y-82180123D01*
X177854354Y-82037431D01*
X177888655Y-81868050D01*
X177888655Y-81067950D01*
X177858881Y-80909713D01*
X177790696Y-80803750D01*
X178019710Y-80803750D01*
X178019710Y-81044359D01*
X178116383Y-81277748D01*
X178295011Y-81456377D01*
X178528400Y-81553050D01*
X179269390Y-81553050D01*
X179428140Y-81394300D01*
X179428140Y-80645000D01*
X179682140Y-80645000D01*
X179682140Y-81394300D01*
X179840890Y-81553050D01*
X180581880Y-81553050D01*
X180815269Y-81456377D01*
X180993897Y-81277748D01*
X181090570Y-81044359D01*
X181090570Y-80803750D01*
X180931820Y-80645000D01*
X179682140Y-80645000D01*
X179428140Y-80645000D01*
X178178460Y-80645000D01*
X178019710Y-80803750D01*
X177790696Y-80803750D01*
X177765363Y-80764383D01*
X177622671Y-80666886D01*
X177453290Y-80632585D01*
X175652430Y-80632585D01*
X175494193Y-80662359D01*
X175348863Y-80755877D01*
X175251366Y-80898569D01*
X175217065Y-81067950D01*
X175217065Y-81868050D01*
X175231662Y-81945626D01*
X174816644Y-82360644D01*
X174680728Y-82564057D01*
X174633000Y-82804000D01*
X174633000Y-85426222D01*
X174625619Y-85437025D01*
X174617000Y-85423630D01*
X174617000Y-84836000D01*
X174569272Y-84596057D01*
X174433356Y-84392644D01*
X171792655Y-81751943D01*
X171792655Y-81067950D01*
X171762881Y-80909713D01*
X171694696Y-80803750D01*
X171923710Y-80803750D01*
X171923710Y-81044359D01*
X172020383Y-81277748D01*
X172199011Y-81456377D01*
X172432400Y-81553050D01*
X173173390Y-81553050D01*
X173332140Y-81394300D01*
X173332140Y-80645000D01*
X173586140Y-80645000D01*
X173586140Y-81394300D01*
X173744890Y-81553050D01*
X174485880Y-81553050D01*
X174719269Y-81456377D01*
X174897897Y-81277748D01*
X174994570Y-81044359D01*
X174994570Y-80803750D01*
X174835820Y-80645000D01*
X173586140Y-80645000D01*
X173332140Y-80645000D01*
X172082460Y-80645000D01*
X171923710Y-80803750D01*
X171694696Y-80803750D01*
X171669363Y-80764383D01*
X171526671Y-80666886D01*
X171357290Y-80632585D01*
X169556430Y-80632585D01*
X169398193Y-80662359D01*
X169252863Y-80755877D01*
X169155366Y-80898569D01*
X169121065Y-81067950D01*
X169121065Y-81868050D01*
X169150839Y-82026287D01*
X169233660Y-82154994D01*
X165867712Y-82154994D01*
X165677139Y-81964421D01*
X165696655Y-81868050D01*
X165696655Y-81067950D01*
X165666881Y-80909713D01*
X165598696Y-80803750D01*
X165827710Y-80803750D01*
X165827710Y-81044359D01*
X165924383Y-81277748D01*
X166103011Y-81456377D01*
X166336400Y-81553050D01*
X167077390Y-81553050D01*
X167236140Y-81394300D01*
X167236140Y-80645000D01*
X167490140Y-80645000D01*
X167490140Y-81394300D01*
X167648890Y-81553050D01*
X168389880Y-81553050D01*
X168623269Y-81456377D01*
X168801897Y-81277748D01*
X168898570Y-81044359D01*
X168898570Y-80803750D01*
X168739820Y-80645000D01*
X167490140Y-80645000D01*
X167236140Y-80645000D01*
X165986460Y-80645000D01*
X165827710Y-80803750D01*
X165598696Y-80803750D01*
X165573363Y-80764383D01*
X165430671Y-80666886D01*
X165261290Y-80632585D01*
X163460430Y-80632585D01*
X163302193Y-80662359D01*
X163156863Y-80755877D01*
X163059366Y-80898569D01*
X163025065Y-81067950D01*
X163025065Y-81868050D01*
X163054839Y-82026287D01*
X163148357Y-82171617D01*
X163291049Y-82269114D01*
X163460430Y-82303415D01*
X164242709Y-82303415D01*
X164694290Y-82754996D01*
X159263712Y-82754996D01*
X158787610Y-82278894D01*
X158815527Y-82273641D01*
X158960857Y-82180123D01*
X159058354Y-82037431D01*
X159092655Y-81868050D01*
X159092655Y-81067950D01*
X159062881Y-80909713D01*
X158994696Y-80803750D01*
X159223710Y-80803750D01*
X159223710Y-81044359D01*
X159320383Y-81277748D01*
X159499011Y-81456377D01*
X159732400Y-81553050D01*
X160473390Y-81553050D01*
X160632140Y-81394300D01*
X160632140Y-80645000D01*
X160886140Y-80645000D01*
X160886140Y-81394300D01*
X161044890Y-81553050D01*
X161785880Y-81553050D01*
X162019269Y-81456377D01*
X162197897Y-81277748D01*
X162294570Y-81044359D01*
X162294570Y-80803750D01*
X162135820Y-80645000D01*
X160886140Y-80645000D01*
X160632140Y-80645000D01*
X159382460Y-80645000D01*
X159223710Y-80803750D01*
X158994696Y-80803750D01*
X158969363Y-80764383D01*
X158826671Y-80666886D01*
X158657290Y-80632585D01*
X156856430Y-80632585D01*
X156698193Y-80662359D01*
X156552863Y-80755877D01*
X156455366Y-80898569D01*
X156421065Y-81067950D01*
X156421065Y-81868050D01*
X156450839Y-82026287D01*
X156544357Y-82171617D01*
X156687049Y-82269114D01*
X156856430Y-82303415D01*
X157163389Y-82303415D01*
X157177588Y-82374799D01*
X157217227Y-82434123D01*
X157313504Y-82578212D01*
X158090290Y-83354998D01*
X152567710Y-83354998D01*
X151779860Y-82567148D01*
X151779860Y-82303415D01*
X152053290Y-82303415D01*
X152211527Y-82273641D01*
X152356857Y-82180123D01*
X152454354Y-82037431D01*
X152488655Y-81868050D01*
X152488655Y-81067950D01*
X152458881Y-80909713D01*
X152390696Y-80803750D01*
X152619710Y-80803750D01*
X152619710Y-81044359D01*
X152716383Y-81277748D01*
X152895011Y-81456377D01*
X153128400Y-81553050D01*
X153869390Y-81553050D01*
X154028140Y-81394300D01*
X154028140Y-80645000D01*
X154282140Y-80645000D01*
X154282140Y-81394300D01*
X154440890Y-81553050D01*
X155181880Y-81553050D01*
X155415269Y-81456377D01*
X155593897Y-81277748D01*
X155690570Y-81044359D01*
X155690570Y-80803750D01*
X155531820Y-80645000D01*
X154282140Y-80645000D01*
X154028140Y-80645000D01*
X152778460Y-80645000D01*
X152619710Y-80803750D01*
X152390696Y-80803750D01*
X152365363Y-80764383D01*
X152222671Y-80666886D01*
X152053290Y-80632585D01*
X150252430Y-80632585D01*
X150094193Y-80662359D01*
X149948863Y-80755877D01*
X149851366Y-80898569D01*
X149817065Y-81067950D01*
X149817065Y-81868050D01*
X149846839Y-82026287D01*
X149940357Y-82171617D01*
X150083049Y-82269114D01*
X150252430Y-82303415D01*
X150525860Y-82303415D01*
X150525860Y-82826860D01*
X150573588Y-83066803D01*
X150709504Y-83270216D01*
X151394288Y-83955000D01*
X147071712Y-83955000D01*
X145429860Y-82313148D01*
X145429860Y-82303415D01*
X145703290Y-82303415D01*
X145861527Y-82273641D01*
X146006857Y-82180123D01*
X146104354Y-82037431D01*
X146138655Y-81868050D01*
X146138655Y-81067950D01*
X146108881Y-80909713D01*
X146040696Y-80803750D01*
X146269710Y-80803750D01*
X146269710Y-81044359D01*
X146366383Y-81277748D01*
X146545011Y-81456377D01*
X146778400Y-81553050D01*
X147519390Y-81553050D01*
X147678140Y-81394300D01*
X147678140Y-80645000D01*
X147932140Y-80645000D01*
X147932140Y-81394300D01*
X148090890Y-81553050D01*
X148831880Y-81553050D01*
X149065269Y-81456377D01*
X149243897Y-81277748D01*
X149340570Y-81044359D01*
X149340570Y-80803750D01*
X149181820Y-80645000D01*
X147932140Y-80645000D01*
X147678140Y-80645000D01*
X146428460Y-80645000D01*
X146269710Y-80803750D01*
X146040696Y-80803750D01*
X146015363Y-80764383D01*
X145872671Y-80666886D01*
X145703290Y-80632585D01*
X143902430Y-80632585D01*
X143744193Y-80662359D01*
X143598863Y-80755877D01*
X143501366Y-80898569D01*
X143467065Y-81067950D01*
X117281960Y-81067950D01*
X117281960Y-79167950D01*
X143467065Y-79167950D01*
X143467065Y-79968050D01*
X143496839Y-80126287D01*
X143590357Y-80271617D01*
X143733049Y-80369114D01*
X143902430Y-80403415D01*
X145703290Y-80403415D01*
X145861527Y-80373641D01*
X146006857Y-80280123D01*
X146104354Y-80137431D01*
X146133877Y-79991641D01*
X146269710Y-79991641D01*
X146269710Y-80232250D01*
X146428460Y-80391000D01*
X147678140Y-80391000D01*
X147678140Y-79641700D01*
X147932140Y-79641700D01*
X147932140Y-80391000D01*
X149181820Y-80391000D01*
X149340570Y-80232250D01*
X149340570Y-79991641D01*
X149243897Y-79758252D01*
X149065269Y-79579623D01*
X148831880Y-79482950D01*
X148090890Y-79482950D01*
X147932140Y-79641700D01*
X147678140Y-79641700D01*
X147519390Y-79482950D01*
X146778400Y-79482950D01*
X146545011Y-79579623D01*
X146366383Y-79758252D01*
X146269710Y-79991641D01*
X146133877Y-79991641D01*
X146138655Y-79968050D01*
X146138655Y-79167950D01*
X149817065Y-79167950D01*
X149817065Y-79968050D01*
X149846839Y-80126287D01*
X149940357Y-80271617D01*
X150083049Y-80369114D01*
X150252430Y-80403415D01*
X152053290Y-80403415D01*
X152211527Y-80373641D01*
X152356857Y-80280123D01*
X152454354Y-80137431D01*
X152483877Y-79991641D01*
X152619710Y-79991641D01*
X152619710Y-80232250D01*
X152778460Y-80391000D01*
X154028140Y-80391000D01*
X154028140Y-79641700D01*
X154282140Y-79641700D01*
X154282140Y-80391000D01*
X155531820Y-80391000D01*
X155690570Y-80232250D01*
X155690570Y-79991641D01*
X155593897Y-79758252D01*
X155415269Y-79579623D01*
X155181880Y-79482950D01*
X154440890Y-79482950D01*
X154282140Y-79641700D01*
X154028140Y-79641700D01*
X153869390Y-79482950D01*
X153128400Y-79482950D01*
X152895011Y-79579623D01*
X152716383Y-79758252D01*
X152619710Y-79991641D01*
X152483877Y-79991641D01*
X152488655Y-79968050D01*
X152488655Y-79167950D01*
X156421065Y-79167950D01*
X156421065Y-79968050D01*
X156450839Y-80126287D01*
X156544357Y-80271617D01*
X156687049Y-80369114D01*
X156856430Y-80403415D01*
X158657290Y-80403415D01*
X158815527Y-80373641D01*
X158960857Y-80280123D01*
X159058354Y-80137431D01*
X159087877Y-79991641D01*
X159223710Y-79991641D01*
X159223710Y-80232250D01*
X159382460Y-80391000D01*
X160632140Y-80391000D01*
X160632140Y-79641700D01*
X160886140Y-79641700D01*
X160886140Y-80391000D01*
X162135820Y-80391000D01*
X162294570Y-80232250D01*
X162294570Y-79991641D01*
X162197897Y-79758252D01*
X162019269Y-79579623D01*
X161785880Y-79482950D01*
X161044890Y-79482950D01*
X160886140Y-79641700D01*
X160632140Y-79641700D01*
X160473390Y-79482950D01*
X159732400Y-79482950D01*
X159499011Y-79579623D01*
X159320383Y-79758252D01*
X159223710Y-79991641D01*
X159087877Y-79991641D01*
X159092655Y-79968050D01*
X159092655Y-79167950D01*
X159062881Y-79009713D01*
X158969363Y-78864383D01*
X158826671Y-78766886D01*
X158657290Y-78732585D01*
X158335000Y-78732585D01*
X158335000Y-77589365D01*
X158358000Y-77589365D01*
X158516237Y-77559591D01*
X158661567Y-77466073D01*
X158759064Y-77323381D01*
X158793365Y-77154000D01*
X158793365Y-75754000D01*
X158763591Y-75595763D01*
X158670073Y-75450433D01*
X158527381Y-75352936D01*
X158358000Y-75318635D01*
X156958000Y-75318635D01*
X156799763Y-75348409D01*
X156654433Y-75441927D01*
X156556936Y-75584619D01*
X156522635Y-75754000D01*
X156522635Y-77154000D01*
X156552409Y-77312237D01*
X156645927Y-77457567D01*
X156788619Y-77555064D01*
X156958000Y-77589365D01*
X156981000Y-77589365D01*
X156981000Y-78732585D01*
X156856430Y-78732585D01*
X156698193Y-78762359D01*
X156552863Y-78855877D01*
X156455366Y-78998569D01*
X156421065Y-79167950D01*
X152488655Y-79167950D01*
X152458881Y-79009713D01*
X152365363Y-78864383D01*
X152222671Y-78766886D01*
X152053290Y-78732585D01*
X151985000Y-78732585D01*
X151985000Y-77589365D01*
X152008000Y-77589365D01*
X152166237Y-77559591D01*
X152311567Y-77466073D01*
X152409064Y-77323381D01*
X152443365Y-77154000D01*
X152443365Y-75754000D01*
X152413591Y-75595763D01*
X152320073Y-75450433D01*
X152177381Y-75352936D01*
X152008000Y-75318635D01*
X150608000Y-75318635D01*
X150449763Y-75348409D01*
X150304433Y-75441927D01*
X150206936Y-75584619D01*
X150172635Y-75754000D01*
X150172635Y-77154000D01*
X150202409Y-77312237D01*
X150295927Y-77457567D01*
X150438619Y-77555064D01*
X150608000Y-77589365D01*
X150631000Y-77589365D01*
X150631000Y-78732585D01*
X150252430Y-78732585D01*
X150094193Y-78762359D01*
X149948863Y-78855877D01*
X149851366Y-78998569D01*
X149817065Y-79167950D01*
X146138655Y-79167950D01*
X146108881Y-79009713D01*
X146015363Y-78864383D01*
X145872671Y-78766886D01*
X145703290Y-78732585D01*
X145508000Y-78732585D01*
X145508000Y-77081365D01*
X145531000Y-77081365D01*
X145689237Y-77051591D01*
X145834567Y-76958073D01*
X145932064Y-76815381D01*
X145966365Y-76646000D01*
X145966365Y-75246000D01*
X145936591Y-75087763D01*
X145843073Y-74942433D01*
X145700381Y-74844936D01*
X145531000Y-74810635D01*
X144131000Y-74810635D01*
X143972763Y-74840409D01*
X143827433Y-74933927D01*
X143729936Y-75076619D01*
X143695635Y-75246000D01*
X143695635Y-76646000D01*
X143725409Y-76804237D01*
X143818927Y-76949567D01*
X143961619Y-77047064D01*
X144131000Y-77081365D01*
X144154000Y-77081365D01*
X144154000Y-78732585D01*
X143902430Y-78732585D01*
X143744193Y-78762359D01*
X143598863Y-78855877D01*
X143501366Y-78998569D01*
X143467065Y-79167950D01*
X117281960Y-79167950D01*
X117281960Y-59290469D01*
X120730794Y-59290469D01*
X120911427Y-59727635D01*
X121245606Y-60062397D01*
X121682456Y-60243793D01*
X122151781Y-60244203D01*
X122424731Y-60517153D01*
X122157544Y-60406207D01*
X121684531Y-60405794D01*
X121247365Y-60586427D01*
X120912603Y-60920606D01*
X120731207Y-61357456D01*
X120730794Y-61830469D01*
X120911427Y-62267635D01*
X121245606Y-62602397D01*
X121682456Y-62783793D01*
X122155469Y-62784206D01*
X122592635Y-62603573D01*
X122927397Y-62269394D01*
X123108793Y-61832544D01*
X123109206Y-61359531D01*
X122941013Y-60952473D01*
X123190000Y-61002000D01*
X128498805Y-61002000D01*
X128351207Y-61357456D01*
X128350794Y-61830469D01*
X128531427Y-62267635D01*
X128865606Y-62602397D01*
X129302456Y-62783793D01*
X129775469Y-62784206D01*
X130212635Y-62603573D01*
X130547397Y-62269394D01*
X130728793Y-61832544D01*
X130729206Y-61359531D01*
X130581477Y-61002000D01*
X133578805Y-61002000D01*
X133431207Y-61357456D01*
X133430794Y-61830469D01*
X133578523Y-62188000D01*
X131445000Y-62188000D01*
X131185923Y-62239534D01*
X130966289Y-62386289D01*
X130219680Y-63132898D01*
X130214394Y-63127603D01*
X129777544Y-62946207D01*
X129304531Y-62945794D01*
X128867365Y-63126427D01*
X128532603Y-63460606D01*
X128351207Y-63897456D01*
X128350794Y-64370469D01*
X128498523Y-64728000D01*
X123470422Y-64728000D01*
X123108798Y-64366376D01*
X123109206Y-63899531D01*
X122928573Y-63462365D01*
X122594394Y-63127603D01*
X122157544Y-62946207D01*
X121684531Y-62945794D01*
X121247365Y-63126427D01*
X120912603Y-63460606D01*
X120731207Y-63897456D01*
X120730794Y-64370469D01*
X120911427Y-64807635D01*
X121245606Y-65142397D01*
X121682456Y-65323793D01*
X122151781Y-65324203D01*
X122424731Y-65597153D01*
X122157544Y-65486207D01*
X121684531Y-65485794D01*
X121247365Y-65666427D01*
X120912603Y-66000606D01*
X120731207Y-66437456D01*
X120730794Y-66910469D01*
X120911427Y-67347635D01*
X121245606Y-67682397D01*
X121682456Y-67863793D01*
X122151781Y-67864203D01*
X122424731Y-68137153D01*
X122157544Y-68026207D01*
X121684531Y-68025794D01*
X121247365Y-68206427D01*
X120912603Y-68540606D01*
X120731207Y-68977456D01*
X120730794Y-69450469D01*
X120911427Y-69887635D01*
X121245606Y-70222397D01*
X121418115Y-70294029D01*
X121441289Y-70328711D01*
X122711289Y-71598711D01*
X122930923Y-71745466D01*
X123190000Y-71797000D01*
X146643000Y-71797000D01*
X146643000Y-74035000D01*
X146694534Y-74294077D01*
X146802371Y-74455466D01*
X146841289Y-74513711D01*
X146995635Y-74668057D01*
X146995635Y-75546000D01*
X147025409Y-75704237D01*
X147118927Y-75849567D01*
X147261619Y-75947064D01*
X147262229Y-75947188D01*
X147127433Y-76033927D01*
X147029936Y-76176619D01*
X146995635Y-76346000D01*
X146995635Y-77746000D01*
X147025409Y-77904237D01*
X147118927Y-78049567D01*
X147261619Y-78147064D01*
X147431000Y-78181365D01*
X148831000Y-78181365D01*
X148989237Y-78151591D01*
X149134567Y-78058073D01*
X149232064Y-77915381D01*
X149266365Y-77746000D01*
X149266365Y-76346000D01*
X149236591Y-76187763D01*
X149143073Y-76042433D01*
X149000381Y-75944936D01*
X148999771Y-75944812D01*
X149134567Y-75858073D01*
X149232064Y-75715381D01*
X149266365Y-75546000D01*
X149266365Y-74146000D01*
X149236591Y-73987763D01*
X149143073Y-73842433D01*
X149000381Y-73744936D01*
X148831000Y-73710635D01*
X147997000Y-73710635D01*
X147997000Y-71797000D01*
X155083578Y-71797000D01*
X154334289Y-72546289D01*
X154187534Y-72765923D01*
X154136000Y-73025000D01*
X154136000Y-74218635D01*
X153908000Y-74218635D01*
X153749763Y-74248409D01*
X153604433Y-74341927D01*
X153506936Y-74484619D01*
X153472635Y-74654000D01*
X153472635Y-76054000D01*
X153502409Y-76212237D01*
X153595927Y-76357567D01*
X153738619Y-76455064D01*
X153739229Y-76455188D01*
X153604433Y-76541927D01*
X153506936Y-76684619D01*
X153472635Y-76854000D01*
X153472635Y-78254000D01*
X153502409Y-78412237D01*
X153595927Y-78557567D01*
X153738619Y-78655064D01*
X153908000Y-78689365D01*
X155308000Y-78689365D01*
X155466237Y-78659591D01*
X155611567Y-78566073D01*
X155709064Y-78423381D01*
X155743365Y-78254000D01*
X155743365Y-76854000D01*
X155713591Y-76695763D01*
X155620073Y-76550433D01*
X155477381Y-76452936D01*
X155476771Y-76452812D01*
X155611567Y-76366073D01*
X155709064Y-76223381D01*
X155743365Y-76054000D01*
X155743365Y-74654000D01*
X155713591Y-74495763D01*
X155620073Y-74350433D01*
X155490000Y-74261558D01*
X155490000Y-73305422D01*
X155982422Y-72813000D01*
X161117579Y-72813000D01*
X160479289Y-73451291D01*
X160332534Y-73670925D01*
X160281000Y-73930002D01*
X160281000Y-74218635D01*
X160258000Y-74218635D01*
X160099763Y-74248409D01*
X159954433Y-74341927D01*
X159856936Y-74484619D01*
X159822635Y-74654000D01*
X159822635Y-76054000D01*
X159852409Y-76212237D01*
X159945927Y-76357567D01*
X160088619Y-76455064D01*
X160089229Y-76455188D01*
X159954433Y-76541927D01*
X159856936Y-76684619D01*
X159822635Y-76854000D01*
X159822635Y-78254000D01*
X159852409Y-78412237D01*
X159945927Y-78557567D01*
X160088619Y-78655064D01*
X160258000Y-78689365D01*
X161658000Y-78689365D01*
X161816237Y-78659591D01*
X161961567Y-78566073D01*
X162059064Y-78423381D01*
X162093365Y-78254000D01*
X162093365Y-76854000D01*
X162063591Y-76695763D01*
X161970073Y-76550433D01*
X161827381Y-76452936D01*
X161826771Y-76452812D01*
X161961567Y-76366073D01*
X162059064Y-76223381D01*
X162093365Y-76054000D01*
X162093365Y-75754000D01*
X162872635Y-75754000D01*
X162872635Y-77154000D01*
X162902409Y-77312237D01*
X162995927Y-77457567D01*
X163138619Y-77555064D01*
X163308000Y-77589365D01*
X163331000Y-77589365D01*
X163331000Y-78756939D01*
X163302193Y-78762359D01*
X163156863Y-78855877D01*
X163059366Y-78998569D01*
X163025065Y-79167950D01*
X163025065Y-79968050D01*
X163054839Y-80126287D01*
X163148357Y-80271617D01*
X163291049Y-80369114D01*
X163460430Y-80403415D01*
X165261290Y-80403415D01*
X165419527Y-80373641D01*
X165564857Y-80280123D01*
X165662354Y-80137431D01*
X165691877Y-79991641D01*
X165827710Y-79991641D01*
X165827710Y-80232250D01*
X165986460Y-80391000D01*
X167236140Y-80391000D01*
X167236140Y-79641700D01*
X167490140Y-79641700D01*
X167490140Y-80391000D01*
X168739820Y-80391000D01*
X168898570Y-80232250D01*
X168898570Y-79991641D01*
X168801897Y-79758252D01*
X168623269Y-79579623D01*
X168389880Y-79482950D01*
X167648890Y-79482950D01*
X167490140Y-79641700D01*
X167236140Y-79641700D01*
X167077390Y-79482950D01*
X166336400Y-79482950D01*
X166103011Y-79579623D01*
X165924383Y-79758252D01*
X165827710Y-79991641D01*
X165691877Y-79991641D01*
X165696655Y-79968050D01*
X165696655Y-79167950D01*
X169121065Y-79167950D01*
X169121065Y-79968050D01*
X169150839Y-80126287D01*
X169244357Y-80271617D01*
X169387049Y-80369114D01*
X169556430Y-80403415D01*
X171357290Y-80403415D01*
X171515527Y-80373641D01*
X171660857Y-80280123D01*
X171758354Y-80137431D01*
X171787877Y-79991641D01*
X171923710Y-79991641D01*
X171923710Y-80232250D01*
X172082460Y-80391000D01*
X173332140Y-80391000D01*
X173332140Y-79641700D01*
X173586140Y-79641700D01*
X173586140Y-80391000D01*
X174835820Y-80391000D01*
X174994570Y-80232250D01*
X174994570Y-79991641D01*
X174897897Y-79758252D01*
X174719269Y-79579623D01*
X174485880Y-79482950D01*
X173744890Y-79482950D01*
X173586140Y-79641700D01*
X173332140Y-79641700D01*
X173173390Y-79482950D01*
X172432400Y-79482950D01*
X172199011Y-79579623D01*
X172020383Y-79758252D01*
X171923710Y-79991641D01*
X171787877Y-79991641D01*
X171792655Y-79968050D01*
X171792655Y-79167950D01*
X171762881Y-79009713D01*
X171669363Y-78864383D01*
X171526671Y-78766886D01*
X171357290Y-78732585D01*
X171035000Y-78732585D01*
X171035000Y-77335365D01*
X171058000Y-77335365D01*
X171216237Y-77305591D01*
X171361567Y-77212073D01*
X171459064Y-77069381D01*
X171493365Y-76900000D01*
X171493365Y-75500000D01*
X171463591Y-75341763D01*
X171370073Y-75196433D01*
X171227381Y-75098936D01*
X171058000Y-75064635D01*
X169658000Y-75064635D01*
X169499763Y-75094409D01*
X169354433Y-75187927D01*
X169256936Y-75330619D01*
X169222635Y-75500000D01*
X169222635Y-76900000D01*
X169252409Y-77058237D01*
X169345927Y-77203567D01*
X169488619Y-77301064D01*
X169658000Y-77335365D01*
X169681000Y-77335365D01*
X169681000Y-78732585D01*
X169556430Y-78732585D01*
X169398193Y-78762359D01*
X169252863Y-78855877D01*
X169155366Y-78998569D01*
X169121065Y-79167950D01*
X165696655Y-79167950D01*
X165666881Y-79009713D01*
X165573363Y-78864383D01*
X165430671Y-78766886D01*
X165261290Y-78732585D01*
X164685000Y-78732585D01*
X164685000Y-77589365D01*
X164708000Y-77589365D01*
X164866237Y-77559591D01*
X165011567Y-77466073D01*
X165109064Y-77323381D01*
X165143365Y-77154000D01*
X165143365Y-75754000D01*
X165113591Y-75595763D01*
X165020073Y-75450433D01*
X164877381Y-75352936D01*
X164708000Y-75318635D01*
X163308000Y-75318635D01*
X163149763Y-75348409D01*
X163004433Y-75441927D01*
X162906936Y-75584619D01*
X162872635Y-75754000D01*
X162093365Y-75754000D01*
X162093365Y-74654000D01*
X162063591Y-74495763D01*
X161970073Y-74350433D01*
X161827381Y-74252936D01*
X161658000Y-74218635D01*
X161635000Y-74218635D01*
X161635000Y-74210424D01*
X162332423Y-73513002D01*
X167429576Y-73513002D01*
X166829289Y-74113289D01*
X166758899Y-74218635D01*
X166608000Y-74218635D01*
X166449763Y-74248409D01*
X166304433Y-74341927D01*
X166206936Y-74484619D01*
X166172635Y-74654000D01*
X166172635Y-76054000D01*
X166202409Y-76212237D01*
X166295927Y-76357567D01*
X166438619Y-76455064D01*
X166439229Y-76455188D01*
X166304433Y-76541927D01*
X166206936Y-76684619D01*
X166172635Y-76854000D01*
X166172635Y-78254000D01*
X166202409Y-78412237D01*
X166295927Y-78557567D01*
X166438619Y-78655064D01*
X166608000Y-78689365D01*
X168008000Y-78689365D01*
X168166237Y-78659591D01*
X168311567Y-78566073D01*
X168409064Y-78423381D01*
X168443365Y-78254000D01*
X168443365Y-76854000D01*
X168413591Y-76695763D01*
X168320073Y-76550433D01*
X168177381Y-76452936D01*
X168176771Y-76452812D01*
X168311567Y-76366073D01*
X168409064Y-76223381D01*
X168443365Y-76054000D01*
X168443365Y-74654000D01*
X168413591Y-74495763D01*
X168393258Y-74464164D01*
X168644418Y-74213004D01*
X172568972Y-74213004D01*
X172556936Y-74230619D01*
X172522635Y-74400000D01*
X172522635Y-75800000D01*
X172552409Y-75958237D01*
X172645927Y-76103567D01*
X172788619Y-76201064D01*
X172789229Y-76201188D01*
X172654433Y-76287927D01*
X172556936Y-76430619D01*
X172522635Y-76600000D01*
X172522635Y-78000000D01*
X172552409Y-78158237D01*
X172645927Y-78303567D01*
X172788619Y-78401064D01*
X172958000Y-78435365D01*
X174358000Y-78435365D01*
X174516237Y-78405591D01*
X174661567Y-78312073D01*
X174759064Y-78169381D01*
X174793365Y-78000000D01*
X174793365Y-76600000D01*
X174763591Y-76441763D01*
X174670073Y-76296433D01*
X174527381Y-76198936D01*
X174526771Y-76198812D01*
X174661567Y-76112073D01*
X174759064Y-75969381D01*
X174793365Y-75800000D01*
X174793365Y-75500000D01*
X175064635Y-75500000D01*
X175064635Y-76900000D01*
X175094409Y-77058237D01*
X175187927Y-77203567D01*
X175330619Y-77301064D01*
X175500000Y-77335365D01*
X175523000Y-77335365D01*
X175523000Y-78756939D01*
X175494193Y-78762359D01*
X175348863Y-78855877D01*
X175251366Y-78998569D01*
X175217065Y-79167950D01*
X175217065Y-79968050D01*
X175246839Y-80126287D01*
X175340357Y-80271617D01*
X175483049Y-80369114D01*
X175652430Y-80403415D01*
X177453290Y-80403415D01*
X177611527Y-80373641D01*
X177756857Y-80280123D01*
X177854354Y-80137431D01*
X177883877Y-79991641D01*
X178019710Y-79991641D01*
X178019710Y-80232250D01*
X178178460Y-80391000D01*
X179428140Y-80391000D01*
X179428140Y-79641700D01*
X179682140Y-79641700D01*
X179682140Y-80391000D01*
X180931820Y-80391000D01*
X181090570Y-80232250D01*
X181090570Y-79991641D01*
X180993897Y-79758252D01*
X180815269Y-79579623D01*
X180581880Y-79482950D01*
X179840890Y-79482950D01*
X179682140Y-79641700D01*
X179428140Y-79641700D01*
X179269390Y-79482950D01*
X178528400Y-79482950D01*
X178295011Y-79579623D01*
X178116383Y-79758252D01*
X178019710Y-79991641D01*
X177883877Y-79991641D01*
X177888655Y-79968050D01*
X177888655Y-79167950D01*
X177858881Y-79009713D01*
X177765363Y-78864383D01*
X177622671Y-78766886D01*
X177453290Y-78732585D01*
X176877000Y-78732585D01*
X176877000Y-77335365D01*
X176900000Y-77335365D01*
X177058237Y-77305591D01*
X177203567Y-77212073D01*
X177301064Y-77069381D01*
X177335365Y-76900000D01*
X177335365Y-75500000D01*
X177305591Y-75341763D01*
X177212073Y-75196433D01*
X177069381Y-75098936D01*
X176900000Y-75064635D01*
X175500000Y-75064635D01*
X175341763Y-75094409D01*
X175196433Y-75187927D01*
X175098936Y-75330619D01*
X175064635Y-75500000D01*
X174793365Y-75500000D01*
X174793365Y-74400000D01*
X174763591Y-74241763D01*
X174670073Y-74096433D01*
X174630220Y-74069202D01*
X176732423Y-71967000D01*
X180405578Y-71967000D01*
X179021289Y-73351289D01*
X178874534Y-73570923D01*
X178823000Y-73830000D01*
X178823000Y-73964635D01*
X178800000Y-73964635D01*
X178641763Y-73994409D01*
X178496433Y-74087927D01*
X178398936Y-74230619D01*
X178364635Y-74400000D01*
X178364635Y-75800000D01*
X178394409Y-75958237D01*
X178487927Y-76103567D01*
X178630619Y-76201064D01*
X178631229Y-76201188D01*
X178496433Y-76287927D01*
X178398936Y-76430619D01*
X178364635Y-76600000D01*
X178364635Y-78000000D01*
X178394409Y-78158237D01*
X178487927Y-78303567D01*
X178630619Y-78401064D01*
X178800000Y-78435365D01*
X180200000Y-78435365D01*
X180358237Y-78405591D01*
X180503567Y-78312073D01*
X180601064Y-78169381D01*
X180635365Y-78000000D01*
X180635365Y-76600000D01*
X180605591Y-76441763D01*
X180512073Y-76296433D01*
X180369381Y-76198936D01*
X180368771Y-76198812D01*
X180503567Y-76112073D01*
X180601064Y-75969381D01*
X180635365Y-75800000D01*
X180635365Y-75500000D01*
X181414635Y-75500000D01*
X181414635Y-76900000D01*
X181444409Y-77058237D01*
X181537927Y-77203567D01*
X181680619Y-77301064D01*
X181850000Y-77335365D01*
X181873000Y-77335365D01*
X181873000Y-79010939D01*
X181844193Y-79016359D01*
X181698863Y-79109877D01*
X181601366Y-79252569D01*
X181567065Y-79421950D01*
X181567065Y-80222050D01*
X181596839Y-80380287D01*
X181690357Y-80525617D01*
X181833049Y-80623114D01*
X182002430Y-80657415D01*
X183803290Y-80657415D01*
X183961527Y-80627641D01*
X184106857Y-80534123D01*
X184204354Y-80391431D01*
X184233877Y-80245641D01*
X184369710Y-80245641D01*
X184369710Y-80486250D01*
X184528460Y-80645000D01*
X185778140Y-80645000D01*
X185778140Y-79895700D01*
X186032140Y-79895700D01*
X186032140Y-80645000D01*
X187281820Y-80645000D01*
X187440570Y-80486250D01*
X187440570Y-80245641D01*
X187343897Y-80012252D01*
X187165269Y-79833623D01*
X186931880Y-79736950D01*
X186190890Y-79736950D01*
X186032140Y-79895700D01*
X185778140Y-79895700D01*
X185619390Y-79736950D01*
X184878400Y-79736950D01*
X184645011Y-79833623D01*
X184466383Y-80012252D01*
X184369710Y-80245641D01*
X184233877Y-80245641D01*
X184238655Y-80222050D01*
X184238655Y-79421950D01*
X184208881Y-79263713D01*
X184115363Y-79118383D01*
X183972671Y-79020886D01*
X183803290Y-78986585D01*
X183227000Y-78986585D01*
X183227000Y-77335365D01*
X183250000Y-77335365D01*
X183408237Y-77305591D01*
X183553567Y-77212073D01*
X183651064Y-77069381D01*
X183685365Y-76900000D01*
X183685365Y-75500000D01*
X183655591Y-75341763D01*
X183562073Y-75196433D01*
X183419381Y-75098936D01*
X183250000Y-75064635D01*
X181850000Y-75064635D01*
X181691763Y-75094409D01*
X181546433Y-75187927D01*
X181448936Y-75330619D01*
X181414635Y-75500000D01*
X180635365Y-75500000D01*
X180635365Y-74400000D01*
X180605591Y-74241763D01*
X180512073Y-74096433D01*
X180369381Y-73998936D01*
X180302109Y-73985313D01*
X183395000Y-70892423D01*
X183395000Y-72052000D01*
X183446534Y-72311077D01*
X183593289Y-72530711D01*
X185046658Y-73984080D01*
X184991763Y-73994409D01*
X184846433Y-74087927D01*
X184748936Y-74230619D01*
X184714635Y-74400000D01*
X184714635Y-75800000D01*
X184744409Y-75958237D01*
X184837927Y-76103567D01*
X184980619Y-76201064D01*
X184981229Y-76201188D01*
X184846433Y-76287927D01*
X184748936Y-76430619D01*
X184714635Y-76600000D01*
X184714635Y-78000000D01*
X184744409Y-78158237D01*
X184837927Y-78303567D01*
X184980619Y-78401064D01*
X185150000Y-78435365D01*
X186550000Y-78435365D01*
X186708237Y-78405591D01*
X186853567Y-78312073D01*
X186951064Y-78169381D01*
X186985365Y-78000000D01*
X186985365Y-76600000D01*
X186955591Y-76441763D01*
X186862073Y-76296433D01*
X186719381Y-76198936D01*
X186718771Y-76198812D01*
X186853567Y-76112073D01*
X186951064Y-75969381D01*
X186985365Y-75800000D01*
X186985365Y-74400000D01*
X186955591Y-74241763D01*
X186862073Y-74096433D01*
X186719381Y-73998936D01*
X186550000Y-73964635D01*
X186527000Y-73964635D01*
X186527000Y-73830000D01*
X186495358Y-73670925D01*
X186475467Y-73570924D01*
X186328711Y-73351289D01*
X184749000Y-71771578D01*
X184749000Y-60247000D01*
X184697466Y-59987923D01*
X184550711Y-59768289D01*
X181528798Y-56746376D01*
X181529206Y-56279531D01*
X181348573Y-55842365D01*
X181014394Y-55507603D01*
X180577544Y-55326207D01*
X180108220Y-55325797D01*
X178278711Y-53496289D01*
X178059077Y-53349534D01*
X177800000Y-53298000D01*
X131445000Y-53298000D01*
X131185923Y-53349534D01*
X130966289Y-53496289D01*
X129061289Y-55401289D01*
X129038204Y-55435838D01*
X128867365Y-55506427D01*
X128532603Y-55840606D01*
X128351207Y-56277456D01*
X128350794Y-56750469D01*
X128531427Y-57187635D01*
X128865606Y-57522397D01*
X129302456Y-57703793D01*
X129775469Y-57704206D01*
X130212635Y-57523573D01*
X130547397Y-57189394D01*
X130728793Y-56752544D01*
X130729206Y-56279531D01*
X130548573Y-55842365D01*
X130541821Y-55835601D01*
X131725422Y-54652000D01*
X141563000Y-54652000D01*
X141563000Y-55510784D01*
X141232603Y-55840606D01*
X141051207Y-56277456D01*
X141050794Y-56750469D01*
X141198523Y-57108000D01*
X135661195Y-57108000D01*
X135808793Y-56752544D01*
X135809206Y-56279531D01*
X135628573Y-55842365D01*
X135294394Y-55507603D01*
X134857544Y-55326207D01*
X134384531Y-55325794D01*
X133947365Y-55506427D01*
X133612603Y-55840606D01*
X133431207Y-56277456D01*
X133430794Y-56750469D01*
X133578523Y-57108000D01*
X131445000Y-57108000D01*
X131185923Y-57159534D01*
X130966289Y-57306289D01*
X130219680Y-58052898D01*
X130214394Y-58047603D01*
X129777544Y-57866207D01*
X129304531Y-57865794D01*
X128867365Y-58046427D01*
X128532603Y-58380606D01*
X128351207Y-58817456D01*
X128350794Y-59290469D01*
X128498523Y-59648000D01*
X123470422Y-59648000D01*
X123108798Y-59286376D01*
X123109206Y-58819531D01*
X122928573Y-58382365D01*
X122594394Y-58047603D01*
X122157544Y-57866207D01*
X121684531Y-57865794D01*
X121247365Y-58046427D01*
X120912603Y-58380606D01*
X120731207Y-58817456D01*
X120730794Y-59290469D01*
X117281960Y-59290469D01*
X117281960Y-56750469D01*
X120730794Y-56750469D01*
X120911427Y-57187635D01*
X121245606Y-57522397D01*
X121682456Y-57703793D01*
X122155469Y-57704206D01*
X122592635Y-57523573D01*
X122927397Y-57189394D01*
X123108793Y-56752544D01*
X123109206Y-56279531D01*
X122928573Y-55842365D01*
X122594394Y-55507603D01*
X122157544Y-55326207D01*
X121684531Y-55325794D01*
X121247365Y-55506427D01*
X120912603Y-55840606D01*
X120731207Y-56277456D01*
X120730794Y-56750469D01*
X117281960Y-56750469D01*
X117281960Y-52680061D01*
X187258500Y-52933599D01*
M02*
