G04 #@! TF.FileFunction,Soldermask,Top*
%FSLAX46Y46*%
G04 Gerber Fmt 4.6, Leading zero omitted, Abs format (unit mm)*
G04 Created by KiCad (PCBNEW 4.0.2+dfsg1-stable) date Pi  3. máj 2019, 19:30:47 CEST*
%MOMM*%
G01*
G04 APERTURE LIST*
%ADD10C,0.100000*%
%ADD11C,1.924000*%
%ADD12R,2.900000X2.900000*%
%ADD13C,2.400000*%
%ADD14R,1.200100X2.200860*%
%ADD15R,1.900000X1.700000*%
%ADD16R,2.100000X2.100000*%
%ADD17C,2.100000*%
%ADD18R,2.400000X2.400000*%
%ADD19R,1.000000X1.900000*%
%ADD20R,2.400000X2.100000*%
%ADD21O,2.200000X4.400000*%
%ADD22O,4.400000X2.200000*%
%ADD23R,4.400000X2.100000*%
%ADD24O,4.400000X2.100000*%
%ADD25R,6.400000X3.400000*%
G04 APERTURE END LIST*
D10*
D11*
X183594000Y-106712000D03*
X180594000Y-106712000D03*
X177594000Y-106712000D03*
D12*
X178054000Y-100076000D03*
D13*
X180594000Y-100076000D03*
X183134000Y-100076000D03*
D11*
X134620000Y-56515000D03*
X134620000Y-59055000D03*
X134620000Y-61595000D03*
X134620000Y-64135000D03*
X134620000Y-66675000D03*
X134620000Y-69215000D03*
X142240000Y-69215000D03*
X142240000Y-66675000D03*
X142240000Y-64135000D03*
X142240000Y-61595000D03*
X142240000Y-59055000D03*
X142240000Y-56515000D03*
X121920000Y-56515000D03*
X121920000Y-59055000D03*
X121920000Y-61595000D03*
X121920000Y-64135000D03*
X121920000Y-66675000D03*
X121920000Y-69215000D03*
X129540000Y-69215000D03*
X129540000Y-66675000D03*
X129540000Y-64135000D03*
X129540000Y-61595000D03*
X129540000Y-59055000D03*
X129540000Y-56515000D03*
D14*
X176342000Y-79987140D03*
X178242000Y-79987140D03*
X177292000Y-76984860D03*
X165166000Y-79860140D03*
X167066000Y-79860140D03*
X166116000Y-76857860D03*
X157292000Y-83797140D03*
X159192000Y-83797140D03*
X158242000Y-80794860D03*
D15*
X164512000Y-125730000D03*
X167212000Y-125730000D03*
D16*
X165100000Y-129540000D03*
D17*
X167100000Y-129540000D03*
D18*
X120318000Y-118788000D03*
D13*
X120318000Y-116248000D03*
X120318000Y-113708000D03*
X120318000Y-111168000D03*
X120318000Y-108628000D03*
X120318000Y-106088000D03*
D19*
X170434000Y-93505000D03*
X171704000Y-93505000D03*
X172974000Y-93505000D03*
X174244000Y-93505000D03*
X175514000Y-93505000D03*
X176784000Y-93505000D03*
X178054000Y-93505000D03*
X179324000Y-93505000D03*
X179324000Y-88105000D03*
X178054000Y-88105000D03*
X176784000Y-88105000D03*
X175514000Y-88105000D03*
X174244000Y-88105000D03*
X172974000Y-88105000D03*
X171704000Y-88105000D03*
X170434000Y-88105000D03*
X149225000Y-93632000D03*
X150495000Y-93632000D03*
X151765000Y-93632000D03*
X153035000Y-93632000D03*
X154305000Y-93632000D03*
X155575000Y-93632000D03*
X156845000Y-93632000D03*
X158115000Y-93632000D03*
X158115000Y-88232000D03*
X156845000Y-88232000D03*
X155575000Y-88232000D03*
X154305000Y-88232000D03*
X153035000Y-88232000D03*
X151765000Y-88232000D03*
X150495000Y-88232000D03*
X149225000Y-88232000D03*
X125349000Y-93378000D03*
X126619000Y-93378000D03*
X127889000Y-93378000D03*
X129159000Y-93378000D03*
X130429000Y-93378000D03*
X131699000Y-93378000D03*
X132969000Y-93378000D03*
X134239000Y-93378000D03*
X134239000Y-87978000D03*
X132969000Y-87978000D03*
X131699000Y-87978000D03*
X130429000Y-87978000D03*
X129159000Y-87978000D03*
X127889000Y-87978000D03*
X126619000Y-87978000D03*
X125349000Y-87978000D03*
D14*
X184343000Y-84051140D03*
X186243000Y-84051140D03*
X185293000Y-81048860D03*
X118176000Y-84051140D03*
X120076000Y-84051140D03*
X119126000Y-81048860D03*
X181549000Y-79987140D03*
X183449000Y-79987140D03*
X182499000Y-76984860D03*
X178882000Y-83543140D03*
X180782000Y-83543140D03*
X179832000Y-80540860D03*
X162626000Y-83670140D03*
X164526000Y-83670140D03*
X163576000Y-80667860D03*
X154498000Y-80241140D03*
X156398000Y-80241140D03*
X155448000Y-77238860D03*
X151577000Y-84051140D03*
X153477000Y-84051140D03*
X152527000Y-81048860D03*
X148910000Y-80241140D03*
X150810000Y-80241140D03*
X149860000Y-77238860D03*
X146116000Y-84051140D03*
X148016000Y-84051140D03*
X147066000Y-81048860D03*
X143322000Y-80241140D03*
X145222000Y-80241140D03*
X144272000Y-77238860D03*
X140528000Y-84051140D03*
X142428000Y-84051140D03*
X141478000Y-81048860D03*
X137734000Y-80241140D03*
X139634000Y-80241140D03*
X138684000Y-77238860D03*
X134940000Y-84051140D03*
X136840000Y-84051140D03*
X135890000Y-81048860D03*
X129352000Y-84051140D03*
X131252000Y-84051140D03*
X130302000Y-81048860D03*
X126558000Y-80241140D03*
X128458000Y-80241140D03*
X127508000Y-77238860D03*
X123764000Y-84051140D03*
X125664000Y-84051140D03*
X124714000Y-81048860D03*
X120970000Y-80241140D03*
X122870000Y-80241140D03*
X121920000Y-77238860D03*
X132146000Y-80241140D03*
X134046000Y-80241140D03*
X133096000Y-77238860D03*
X173548000Y-83670140D03*
X175448000Y-83670140D03*
X174498000Y-80667860D03*
X170754000Y-79987140D03*
X172654000Y-79987140D03*
X171704000Y-76984860D03*
D11*
X172720000Y-56515000D03*
X172720000Y-59055000D03*
X172720000Y-61595000D03*
X172720000Y-64135000D03*
X172720000Y-66675000D03*
X172720000Y-69215000D03*
X180340000Y-69215000D03*
X180340000Y-66675000D03*
X180340000Y-64135000D03*
X180340000Y-61595000D03*
X180340000Y-59055000D03*
X180340000Y-56515000D03*
X147320000Y-56515000D03*
X147320000Y-59055000D03*
X147320000Y-61595000D03*
X147320000Y-64135000D03*
X147320000Y-66675000D03*
X147320000Y-69215000D03*
X154940000Y-69215000D03*
X154940000Y-66675000D03*
X154940000Y-64135000D03*
X154940000Y-61595000D03*
X154940000Y-59055000D03*
X154940000Y-56515000D03*
X160020000Y-56515000D03*
X160020000Y-59055000D03*
X160020000Y-61595000D03*
X160020000Y-64135000D03*
X160020000Y-66675000D03*
X160020000Y-69215000D03*
X167640000Y-69215000D03*
X167640000Y-66675000D03*
X167640000Y-64135000D03*
X167640000Y-61595000D03*
X167640000Y-59055000D03*
X167640000Y-56515000D03*
D14*
X159959000Y-79860140D03*
X161859000Y-79860140D03*
X160909000Y-76857860D03*
X167960000Y-83797140D03*
X169860000Y-83797140D03*
X168910000Y-80794860D03*
D20*
X152940000Y-73660000D03*
X156940000Y-73660000D03*
X125635000Y-74295000D03*
X129635000Y-74295000D03*
D21*
X137668000Y-120888000D03*
X140208000Y-120888000D03*
X142748000Y-120888000D03*
X145288000Y-120888000D03*
X147828000Y-120888000D03*
X150368000Y-120888000D03*
X152908000Y-120888000D03*
X155448000Y-120888000D03*
X155448000Y-103648000D03*
X152908000Y-103648000D03*
X150368000Y-103648000D03*
X147828000Y-103648000D03*
X145288000Y-103648000D03*
X142748000Y-103648000D03*
X140208000Y-103648000D03*
X137668000Y-103648000D03*
X135128000Y-103648000D03*
X132588000Y-103648000D03*
X130048000Y-103648000D03*
X127508000Y-103648000D03*
D22*
X123968000Y-105918000D03*
X123968000Y-108458000D03*
X123968000Y-110998000D03*
X123968000Y-113538000D03*
X123968000Y-116078000D03*
X123968000Y-118618000D03*
D23*
X156702000Y-125222000D03*
D24*
X156702000Y-127762000D03*
X156702000Y-130302000D03*
X156702000Y-132842000D03*
X156702000Y-135382000D03*
X156702000Y-137922000D03*
D25*
X165936000Y-105438000D03*
X165936000Y-109938000D03*
X165936000Y-114338000D03*
M02*
