M48
;DRILL file {KiCad 4.0.2+dfsg1-stable} date Pi  3. máj 2019, 19:30:56 CEST
;FORMAT={-:-/ absolute / inch / decimal}
FMAT,2
INCH,TZ
T1C0.020
T2C0.030
T3C0.039
%
G90
G05
M72
T1
X4.875Y-3.75
X5.12Y-3.57
X5.4Y-3.45
X5.43Y-3.81
X5.46Y-3.57
X5.54Y-3.41
X5.58Y-3.69
X5.6569Y-3.4267
X5.6769Y-3.6867
X5.7169Y-3.9267
X5.9069Y-3.9367
X5.95Y-3.54
X6.05Y-3.81
X6.05Y-3.89
X6.11Y-3.6
X6.1869Y-4.3267
X6.1969Y-4.2567
X6.2069Y-4.0467
X6.23Y-3.83
X6.3169Y-4.2567
X6.325Y-3.525
X6.34Y-3.435
X6.34Y-3.58
X6.3569Y-4.3267
X6.37Y-3.76
X6.475Y-3.5
X6.4769Y-3.6767
X6.48Y-3.58
X6.69Y-3.87
X6.79Y-3.55
X6.9569Y-3.5667
X7.1169Y-3.8467
X7.1369Y-3.6167
X7.145Y-3.46
X7.1669Y-3.5267
X7.3069Y-3.8467
T2
X4.8Y-2.225
X4.8Y-2.325
X4.8Y-2.425
X4.8Y-2.525
X4.8Y-2.625
X4.8Y-2.725
X5.1Y-2.225
X5.1Y-2.325
X5.1Y-2.425
X5.1Y-2.525
X5.1Y-2.625
X5.1Y-2.725
X5.3Y-2.225
X5.3Y-2.325
X5.3Y-2.425
X5.3Y-2.525
X5.3Y-2.625
X5.3Y-2.725
X5.6Y-2.225
X5.6Y-2.325
X5.6Y-2.425
X5.6Y-2.525
X5.6Y-2.625
X5.6Y-2.725
X5.8Y-2.225
X5.8Y-2.325
X5.8Y-2.425
X5.8Y-2.525
X5.8Y-2.625
X5.8Y-2.725
X6.1Y-2.225
X6.1Y-2.325
X6.1Y-2.425
X6.1Y-2.525
X6.1Y-2.625
X6.1Y-2.725
X6.3Y-2.225
X6.3Y-2.325
X6.3Y-2.425
X6.3Y-2.525
X6.3Y-2.625
X6.3Y-2.725
X6.6Y-2.225
X6.6Y-2.325
X6.6Y-2.425
X6.6Y-2.525
X6.6Y-2.625
X6.6Y-2.725
X6.8Y-2.225
X6.8Y-2.325
X6.8Y-2.425
X6.8Y-2.525
X6.8Y-2.625
X6.8Y-2.725
X6.9919Y-4.2013
X7.1Y-2.225
X7.1Y-2.325
X7.1Y-2.425
X7.1Y-2.525
X7.1Y-2.625
X7.1Y-2.725
X7.11Y-4.2013
X7.2281Y-4.2013
T3
X4.7369Y-4.1767
X4.7369Y-4.2767
X4.7369Y-4.3767
X4.7369Y-4.4767
X4.7369Y-4.5767
X4.7369Y-4.6767
X6.5Y-5.1
X6.5329Y-4.1511
X6.5329Y-4.3283
X6.5329Y-4.5015
X6.5787Y-5.1
X7.01Y-3.94
X7.11Y-3.94
X7.21Y-3.94
T0
M30
