G04 #@! TF.FileFunction,Copper,L2,Bot,Signal*
%FSLAX46Y46*%
G04 Gerber Fmt 4.6, Leading zero omitted, Abs format (unit mm)*
G04 Created by KiCad (PCBNEW 4.0.2+dfsg1-stable) date Ne 28. apríl 2019, 22:46:11 CEST*
%MOMM*%
G01*
G04 APERTURE LIST*
%ADD10C,0.100000*%
%ADD11C,1.524000*%
%ADD12R,1.300000X1.500000*%
%ADD13R,1.500000X1.300000*%
%ADD14R,0.600000X1.500000*%
%ADD15R,6.000000X3.000000*%
%ADD16R,2.000000X2.000000*%
%ADD17C,2.000000*%
%ADD18R,1.700000X1.700000*%
%ADD19C,1.700000*%
%ADD20R,1.800860X0.800100*%
%ADD21R,2.500000X2.500000*%
%ADD22C,1.000000*%
%ADD23C,1.000000*%
%ADD24C,0.500000*%
%ADD25C,0.400000*%
%ADD26C,0.254000*%
G04 APERTURE END LIST*
D10*
D11*
X172720000Y-56515000D03*
X172720000Y-59055000D03*
X172720000Y-61595000D03*
X172720000Y-64135000D03*
X172720000Y-66675000D03*
X172720000Y-69215000D03*
X180340000Y-69215000D03*
X180340000Y-66675000D03*
X180340000Y-64135000D03*
X180340000Y-61595000D03*
X180340000Y-59055000D03*
X180340000Y-56515000D03*
X160020000Y-56515000D03*
X160020000Y-59055000D03*
X160020000Y-61595000D03*
X160020000Y-64135000D03*
X160020000Y-66675000D03*
X160020000Y-69215000D03*
X167640000Y-69215000D03*
X167640000Y-66675000D03*
X167640000Y-64135000D03*
X167640000Y-61595000D03*
X167640000Y-59055000D03*
X167640000Y-56515000D03*
X147320000Y-56515000D03*
X147320000Y-59055000D03*
X147320000Y-61595000D03*
X147320000Y-64135000D03*
X147320000Y-66675000D03*
X147320000Y-69215000D03*
X154940000Y-69215000D03*
X154940000Y-66675000D03*
X154940000Y-64135000D03*
X154940000Y-61595000D03*
X154940000Y-59055000D03*
X154940000Y-56515000D03*
D12*
X185420000Y-56435000D03*
X185420000Y-59135000D03*
X183515000Y-61515000D03*
X183515000Y-64215000D03*
X182880000Y-67865000D03*
X182880000Y-70565000D03*
X177800000Y-64690000D03*
X177800000Y-67390000D03*
X175260000Y-64690000D03*
X175260000Y-67390000D03*
X163195000Y-69770000D03*
X163195000Y-72470000D03*
D13*
X154860000Y-74295000D03*
X157560000Y-74295000D03*
D14*
X175260000Y-91854000D03*
X173990000Y-91854000D03*
X172720000Y-91854000D03*
X171450000Y-91854000D03*
X170180000Y-91854000D03*
X168910000Y-91854000D03*
X167640000Y-91854000D03*
X166370000Y-91854000D03*
X166370000Y-86454000D03*
X167640000Y-86454000D03*
X168910000Y-86454000D03*
X170180000Y-86454000D03*
X171450000Y-86454000D03*
X172720000Y-86454000D03*
X173990000Y-86454000D03*
X175260000Y-86454000D03*
D15*
X165936000Y-105438000D03*
X165936000Y-109938000D03*
X165936000Y-114338000D03*
D16*
X120904000Y-118872000D03*
D17*
X120904000Y-116332000D03*
X120904000Y-113792000D03*
X120904000Y-111252000D03*
X120904000Y-108712000D03*
X120904000Y-106172000D03*
D18*
X165100000Y-129540000D03*
D19*
X167100000Y-129540000D03*
D11*
X121920000Y-56515000D03*
X121920000Y-59055000D03*
X121920000Y-61595000D03*
X121920000Y-64135000D03*
X121920000Y-66675000D03*
X121920000Y-69215000D03*
X129540000Y-69215000D03*
X129540000Y-66675000D03*
X129540000Y-64135000D03*
X129540000Y-61595000D03*
X129540000Y-59055000D03*
X129540000Y-56515000D03*
X134620000Y-56515000D03*
X134620000Y-59055000D03*
X134620000Y-61595000D03*
X134620000Y-64135000D03*
X134620000Y-66675000D03*
X134620000Y-69215000D03*
X142240000Y-69215000D03*
X142240000Y-66675000D03*
X142240000Y-64135000D03*
X142240000Y-61595000D03*
X142240000Y-59055000D03*
X142240000Y-56515000D03*
D20*
X167408860Y-78420000D03*
X167408860Y-76520000D03*
X170411140Y-77470000D03*
X162963860Y-81595000D03*
X162963860Y-79695000D03*
X165966140Y-80645000D03*
X159788860Y-78420000D03*
X159788860Y-76520000D03*
X162791140Y-77470000D03*
X182013860Y-78420000D03*
X182013860Y-76520000D03*
X185016140Y-77470000D03*
X178838860Y-81595000D03*
X178838860Y-79695000D03*
X181841140Y-80645000D03*
X175663860Y-78420000D03*
X175663860Y-76520000D03*
X178666140Y-77470000D03*
X170583860Y-81595000D03*
X170583860Y-79695000D03*
X173586140Y-80645000D03*
D11*
X183594000Y-106712000D03*
X180594000Y-106712000D03*
X177594000Y-106712000D03*
D21*
X185180000Y-136684000D03*
X172180000Y-136684000D03*
X182180000Y-113684000D03*
X175180000Y-113684000D03*
X178054000Y-100076000D03*
D17*
X180594000Y-100076000D03*
X183134000Y-100076000D03*
D22*
X123825000Y-95250000D03*
X137160000Y-87630000D03*
X181483000Y-87884000D03*
X161036000Y-87249000D03*
X182372000Y-94742000D03*
X155702000Y-111760000D03*
X160782000Y-111252000D03*
X141732000Y-93726000D03*
X140716000Y-86614000D03*
X138684000Y-90678000D03*
X130048000Y-90678000D03*
X172466000Y-90170000D03*
X164465000Y-88900000D03*
X160655000Y-89535000D03*
X161798000Y-95504000D03*
X153670000Y-98806000D03*
X148082000Y-100584000D03*
X137922000Y-96774000D03*
X143256000Y-100838000D03*
X181356000Y-89789000D03*
X153670000Y-96774000D03*
X158242000Y-97282000D03*
X151130000Y-89916000D03*
X155194000Y-91440000D03*
X169926000Y-98298000D03*
X153924000Y-102362000D03*
X152146000Y-101092000D03*
X160782000Y-113284000D03*
X154686000Y-113538000D03*
X161036000Y-90932000D03*
X164592000Y-90932000D03*
D23*
X180594000Y-100076000D02*
X180594000Y-102362000D01*
X171168000Y-105438000D02*
X165936000Y-105438000D01*
X173228000Y-103378000D02*
X171168000Y-105438000D01*
X179578000Y-103378000D02*
X173228000Y-103378000D01*
X180594000Y-102362000D02*
X179578000Y-103378000D01*
X161036000Y-87249000D02*
X161798000Y-86487000D01*
X161798000Y-86487000D02*
X166337000Y-86487000D01*
X166337000Y-86487000D02*
X166370000Y-86454000D01*
X181483000Y-87884000D02*
X181229000Y-87884000D01*
X161036000Y-87249000D02*
X161163000Y-87376000D01*
D24*
X182013860Y-78420000D02*
X182560000Y-78420000D01*
X182560000Y-78420000D02*
X184785000Y-80645000D01*
X184785000Y-80645000D02*
X184785000Y-85725000D01*
X184785000Y-85725000D02*
X183515000Y-86995000D01*
X183515000Y-86995000D02*
X183515000Y-92075000D01*
X183515000Y-92075000D02*
X182118000Y-93472000D01*
X182118000Y-93472000D02*
X174752000Y-93472000D01*
X174752000Y-93472000D02*
X173990000Y-92710000D01*
X173990000Y-92710000D02*
X173990000Y-91854000D01*
X175260000Y-86454000D02*
X175260000Y-85173860D01*
X175260000Y-85173860D02*
X178838860Y-81595000D01*
X173990000Y-86454000D02*
X173990000Y-84455000D01*
X175895000Y-82550000D02*
X175895000Y-78740000D01*
X173990000Y-84455000D02*
X175895000Y-82550000D01*
X175895000Y-78740000D02*
X175663860Y-78420000D01*
X155702000Y-111760000D02*
X156210000Y-111252000D01*
X156210000Y-111252000D02*
X160782000Y-111252000D01*
X172720000Y-86454000D02*
X172720000Y-85090000D01*
X170583860Y-82953860D02*
X170583860Y-81595000D01*
X172720000Y-85090000D02*
X170583860Y-82953860D01*
X141732000Y-87630000D02*
X140716000Y-86614000D01*
X141732000Y-93726000D02*
X141732000Y-87630000D01*
X171450000Y-86454000D02*
X171450000Y-85370048D01*
X167640000Y-81560048D02*
X167640000Y-78740000D01*
X171450000Y-85370048D02*
X167640000Y-81560048D01*
X167640000Y-78740000D02*
X167408860Y-78420000D01*
X171450000Y-86454000D02*
X171450000Y-85766936D01*
X170180000Y-86454000D02*
X170180000Y-85090000D01*
X164553860Y-83185000D02*
X162963860Y-81595000D01*
X168275000Y-83185000D02*
X164553860Y-83185000D01*
X170180000Y-85090000D02*
X168275000Y-83185000D01*
X170180000Y-86454000D02*
X170180000Y-85725000D01*
X170180000Y-86454000D02*
X170180000Y-85750400D01*
X170180000Y-86454000D02*
X170180000Y-85852000D01*
X168910000Y-86454000D02*
X168910000Y-85090000D01*
X159788860Y-82318860D02*
X159788860Y-78420000D01*
X161925000Y-84455000D02*
X159788860Y-82318860D01*
X168275000Y-84455000D02*
X161925000Y-84455000D01*
X168910000Y-85090000D02*
X168275000Y-84455000D01*
X168910000Y-86454000D02*
X168910000Y-85725000D01*
X168910000Y-86454000D02*
X168910000Y-85852000D01*
X184150000Y-56515000D02*
X185340000Y-56515000D01*
X185340000Y-56515000D02*
X185420000Y-56435000D01*
X142240000Y-56515000D02*
X142240000Y-53975000D01*
X154940000Y-55880000D02*
X154940000Y-53975000D01*
X167640000Y-56515000D02*
X167640000Y-53975000D01*
X131445000Y-53975000D02*
X142240000Y-53975000D01*
X142240000Y-53975000D02*
X154940000Y-53975000D01*
X154940000Y-53975000D02*
X167640000Y-53975000D01*
X167640000Y-53975000D02*
X177800000Y-53975000D01*
X180340000Y-56515000D02*
X184150000Y-56515000D01*
X184150000Y-56515000D02*
X184070000Y-56515000D01*
X184070000Y-56515000D02*
X184150000Y-56435000D01*
X154940000Y-56515000D02*
X154940000Y-55880000D01*
X129540000Y-56515000D02*
X129540000Y-55880000D01*
X129540000Y-55880000D02*
X131445000Y-53975000D01*
X177800000Y-53975000D02*
X180340000Y-56515000D01*
X180340000Y-59055000D02*
X182880000Y-59055000D01*
X179070000Y-57785000D02*
X180340000Y-59055000D01*
X129540000Y-59055000D02*
X130175000Y-59055000D01*
X130175000Y-59055000D02*
X131445000Y-57785000D01*
X183515000Y-59690000D02*
X183515000Y-61595000D01*
X182880000Y-59055000D02*
X183515000Y-59690000D01*
X142240000Y-59055000D02*
X142240000Y-57785000D01*
X154940000Y-59055000D02*
X154940000Y-57785000D01*
X167640000Y-59055000D02*
X167640000Y-57785000D01*
X131445000Y-57785000D02*
X142240000Y-57785000D01*
X142240000Y-57785000D02*
X154940000Y-57785000D01*
X154940000Y-57785000D02*
X167640000Y-57785000D01*
X167640000Y-57785000D02*
X179070000Y-57785000D01*
X171450000Y-60325000D02*
X172720000Y-59055000D01*
X147320000Y-59055000D02*
X147320000Y-60325000D01*
X147320000Y-60325000D02*
X160020000Y-60325000D01*
X121920000Y-59055000D02*
X123190000Y-60325000D01*
X160020000Y-59055000D02*
X160020000Y-60325000D01*
X160020000Y-60325000D02*
X171450000Y-60325000D01*
X134620000Y-59055000D02*
X134620000Y-60325000D01*
X123190000Y-60325000D02*
X134620000Y-60325000D01*
X134620000Y-60325000D02*
X147320000Y-60325000D01*
X182245000Y-60325000D02*
X182245000Y-66040000D01*
X171450000Y-60325000D02*
X182245000Y-60325000D01*
X182880000Y-66675000D02*
X182880000Y-67865000D01*
X182245000Y-66040000D02*
X182880000Y-66675000D01*
X177800000Y-62865000D02*
X177800000Y-64690000D01*
X142240000Y-64135000D02*
X142240000Y-62865000D01*
X154940000Y-64135000D02*
X154940000Y-62865000D01*
X167640000Y-64135000D02*
X167640000Y-62865000D01*
X131445000Y-62865000D02*
X142240000Y-62865000D01*
X142240000Y-62865000D02*
X154940000Y-62865000D01*
X154940000Y-62865000D02*
X167640000Y-62865000D01*
X167640000Y-62865000D02*
X177800000Y-62865000D01*
X177800000Y-62865000D02*
X179070000Y-62865000D01*
X129540000Y-64135000D02*
X130175000Y-64135000D01*
X130175000Y-64135000D02*
X131445000Y-62865000D01*
X179070000Y-62865000D02*
X180340000Y-64135000D01*
X134620000Y-64135000D02*
X134620000Y-65405000D01*
X172720000Y-64135000D02*
X174705000Y-64135000D01*
X174705000Y-64135000D02*
X175260000Y-64690000D01*
X147320000Y-64135000D02*
X147320000Y-65212998D01*
X147574000Y-65466998D02*
X147574000Y-65405000D01*
X147320000Y-65212998D02*
X147574000Y-65466998D01*
X160020000Y-64135000D02*
X160020000Y-65405000D01*
X121920000Y-64135000D02*
X123190000Y-65405000D01*
X171450000Y-65405000D02*
X172720000Y-64135000D01*
X123190000Y-65405000D02*
X134620000Y-65405000D01*
X134620000Y-65405000D02*
X147574000Y-65405000D01*
X147574000Y-65405000D02*
X160020000Y-65405000D01*
X160020000Y-65405000D02*
X171450000Y-65405000D01*
X163195000Y-67945000D02*
X163195000Y-69770000D01*
X163195000Y-67945000D02*
X171450000Y-67945000D01*
X134620000Y-66675000D02*
X134620000Y-67945000D01*
X147320000Y-66675000D02*
X147320000Y-67945000D01*
X160020000Y-66675000D02*
X160020000Y-67945000D01*
X121920000Y-66675000D02*
X123190000Y-67945000D01*
X171450000Y-67945000D02*
X172720000Y-66675000D01*
X123190000Y-67945000D02*
X134620000Y-67945000D01*
X134620000Y-67945000D02*
X147320000Y-67945000D01*
X147320000Y-67945000D02*
X160020000Y-67945000D01*
X160020000Y-67945000D02*
X163195000Y-67945000D01*
X154860000Y-74295000D02*
X154860000Y-71120000D01*
X154860000Y-71120000D02*
X154940000Y-71120000D01*
X160020000Y-69215000D02*
X160020000Y-71120000D01*
X158115000Y-71120000D02*
X160020000Y-71120000D01*
X160020000Y-71120000D02*
X170180000Y-71120000D01*
X170180000Y-71120000D02*
X172085000Y-69215000D01*
X172085000Y-69215000D02*
X172720000Y-69215000D01*
X147320000Y-69215000D02*
X147320000Y-71120000D01*
X134620000Y-69215000D02*
X134620000Y-71120000D01*
X121920000Y-69215000D02*
X121920000Y-69850000D01*
X121920000Y-69850000D02*
X123190000Y-71120000D01*
X123190000Y-71120000D02*
X134620000Y-71120000D01*
X134620000Y-71120000D02*
X147320000Y-71120000D01*
X147320000Y-71120000D02*
X154940000Y-71120000D01*
X154940000Y-71120000D02*
X158115000Y-71120000D01*
D25*
X130048000Y-90678000D02*
X138684000Y-90678000D01*
X171450000Y-91854000D02*
X171450000Y-91124002D01*
X171450000Y-91124002D02*
X172404002Y-90170000D01*
X172404002Y-90170000D02*
X172466000Y-90170000D01*
X161290000Y-88900000D02*
X164465000Y-88900000D01*
X160655000Y-89535000D02*
X161290000Y-88900000D01*
D24*
X167640000Y-93980000D02*
X167640000Y-91854000D01*
X166370000Y-95250000D02*
X167640000Y-93980000D01*
X162052000Y-95250000D02*
X166370000Y-95250000D01*
X161798000Y-95504000D02*
X162052000Y-95250000D01*
X149860000Y-98806000D02*
X153670000Y-98806000D01*
X148082000Y-100584000D02*
X149860000Y-98806000D01*
X139192000Y-96774000D02*
X137922000Y-96774000D01*
X143256000Y-100838000D02*
X139192000Y-96774000D01*
X167640000Y-91854000D02*
X167640000Y-90424000D01*
X180467000Y-88900000D02*
X181356000Y-89789000D01*
X169164000Y-88900000D02*
X180467000Y-88900000D01*
X167640000Y-90424000D02*
X169164000Y-88900000D01*
D25*
X157734000Y-96774000D02*
X153670000Y-96774000D01*
X158242000Y-97282000D02*
X157734000Y-96774000D01*
X153924000Y-90170000D02*
X151130000Y-89916000D01*
X155194000Y-91440000D02*
X153924000Y-90170000D01*
D24*
X170180000Y-98044000D02*
X170180000Y-91854000D01*
X169926000Y-98298000D02*
X170180000Y-98044000D01*
X172720000Y-91854000D02*
X172720000Y-100330000D01*
X170688000Y-102362000D02*
X153924000Y-102362000D01*
X172720000Y-100330000D02*
X170688000Y-102362000D01*
X172720000Y-91854000D02*
X172720000Y-92556952D01*
X168910000Y-99822000D02*
X168910000Y-91854000D01*
X167386000Y-101346000D02*
X168910000Y-99822000D01*
X152400000Y-101346000D02*
X167386000Y-101346000D01*
X152146000Y-101092000D02*
X152400000Y-101346000D01*
X154940000Y-113284000D02*
X160782000Y-113284000D01*
X154686000Y-113538000D02*
X154940000Y-113284000D01*
X164592000Y-90932000D02*
X161036000Y-90932000D01*
X182013860Y-76520000D02*
X183195000Y-76520000D01*
X186055000Y-73660000D02*
X186055000Y-59770000D01*
X183195000Y-76520000D02*
X186055000Y-73660000D01*
X186055000Y-59770000D02*
X185420000Y-59135000D01*
X180340000Y-76200000D02*
X180340000Y-75565000D01*
X180340000Y-78740000D02*
X180340000Y-76200000D01*
X179385000Y-79695000D02*
X180340000Y-78740000D01*
X184785000Y-65485000D02*
X183515000Y-64215000D01*
X184785000Y-73025000D02*
X184785000Y-65485000D01*
X182880000Y-74930000D02*
X184785000Y-73025000D01*
X180975000Y-74930000D02*
X182880000Y-74930000D01*
X180340000Y-75565000D02*
X180975000Y-74930000D01*
X178838860Y-79695000D02*
X179385000Y-79695000D01*
X182880000Y-70565000D02*
X182165000Y-70565000D01*
X175663860Y-73256140D02*
X175663860Y-76520000D01*
X176530000Y-72390000D02*
X175663860Y-73256140D01*
X180340000Y-72390000D02*
X176530000Y-72390000D01*
X182165000Y-70565000D02*
X180340000Y-72390000D01*
X182880000Y-70565000D02*
X182800000Y-70565000D01*
X172720000Y-74295000D02*
X172720000Y-76200000D01*
X177800000Y-69215000D02*
X172720000Y-74295000D01*
X172720000Y-76200000D02*
X172720000Y-78740000D01*
X172720000Y-78740000D02*
X171765000Y-79695000D01*
X170583860Y-79695000D02*
X171765000Y-79695000D01*
X177800000Y-69215000D02*
X177800000Y-67390000D01*
X172085000Y-73025000D02*
X170815000Y-73025000D01*
X170815000Y-73025000D02*
X167483027Y-76356973D01*
X167483027Y-76356973D02*
X167408860Y-76520000D01*
X175260000Y-67390000D02*
X175260000Y-69850000D01*
X175260000Y-69850000D02*
X172085000Y-73025000D01*
X163195000Y-72470000D02*
X163195000Y-74375000D01*
X164145000Y-79695000D02*
X162963860Y-79695000D01*
X165100000Y-78740000D02*
X164145000Y-79695000D01*
X165100000Y-76200000D02*
X165100000Y-78740000D01*
X163275000Y-74375000D02*
X165100000Y-76200000D01*
X163195000Y-74375000D02*
X163275000Y-74375000D01*
X162991800Y-72546200D02*
X163449000Y-72089000D01*
X159788860Y-76520000D02*
X158896000Y-76520000D01*
X158896000Y-76520000D02*
X157179000Y-74803000D01*
D23*
X180594000Y-106712000D02*
X180562000Y-106712000D01*
X180562000Y-106712000D02*
X177800000Y-109474000D01*
X177800000Y-109474000D02*
X173990000Y-109474000D01*
X173990000Y-109474000D02*
X170434000Y-113030000D01*
X170434000Y-113030000D02*
X170434000Y-113284000D01*
X170434000Y-113284000D02*
X169380000Y-114338000D01*
X169380000Y-114338000D02*
X165936000Y-114338000D01*
X175180000Y-113684000D02*
X176892000Y-113684000D01*
X180848000Y-109458000D02*
X183594000Y-106712000D01*
X180848000Y-109728000D02*
X180848000Y-109458000D01*
X176892000Y-113684000D02*
X180848000Y-109728000D01*
X175180000Y-113684000D02*
X176130000Y-113684000D01*
D26*
G36*
X187258500Y-52933599D02*
X187258960Y-52933600D01*
X188401960Y-52933600D01*
X188401960Y-140817147D01*
X117281960Y-140564051D01*
X117281960Y-135434000D01*
X170494635Y-135434000D01*
X170494635Y-137934000D01*
X170524409Y-138092237D01*
X170617927Y-138237567D01*
X170760619Y-138335064D01*
X170930000Y-138369365D01*
X173430000Y-138369365D01*
X173588237Y-138339591D01*
X173733567Y-138246073D01*
X173831064Y-138103381D01*
X173865365Y-137934000D01*
X173865365Y-135434000D01*
X183494635Y-135434000D01*
X183494635Y-137934000D01*
X183524409Y-138092237D01*
X183617927Y-138237567D01*
X183760619Y-138335064D01*
X183930000Y-138369365D01*
X186430000Y-138369365D01*
X186588237Y-138339591D01*
X186733567Y-138246073D01*
X186831064Y-138103381D01*
X186865365Y-137934000D01*
X186865365Y-135434000D01*
X186835591Y-135275763D01*
X186742073Y-135130433D01*
X186599381Y-135032936D01*
X186430000Y-134998635D01*
X183930000Y-134998635D01*
X183771763Y-135028409D01*
X183626433Y-135121927D01*
X183528936Y-135264619D01*
X183494635Y-135434000D01*
X173865365Y-135434000D01*
X173835591Y-135275763D01*
X173742073Y-135130433D01*
X173599381Y-135032936D01*
X173430000Y-134998635D01*
X170930000Y-134998635D01*
X170771763Y-135028409D01*
X170626433Y-135121927D01*
X170528936Y-135264619D01*
X170494635Y-135434000D01*
X117281960Y-135434000D01*
X117281960Y-129825750D01*
X163615000Y-129825750D01*
X163615000Y-130516309D01*
X163711673Y-130749698D01*
X163890301Y-130928327D01*
X164123690Y-131025000D01*
X164814250Y-131025000D01*
X164973000Y-130866250D01*
X164973000Y-129667000D01*
X163773750Y-129667000D01*
X163615000Y-129825750D01*
X117281960Y-129825750D01*
X117281960Y-128563691D01*
X163615000Y-128563691D01*
X163615000Y-129254250D01*
X163773750Y-129413000D01*
X164973000Y-129413000D01*
X164973000Y-128213750D01*
X165227000Y-128213750D01*
X165227000Y-129413000D01*
X165247000Y-129413000D01*
X165247000Y-129667000D01*
X165227000Y-129667000D01*
X165227000Y-130866250D01*
X165385750Y-131025000D01*
X166076310Y-131025000D01*
X166309699Y-130928327D01*
X166488327Y-130749698D01*
X166516944Y-130680610D01*
X166844875Y-130816778D01*
X167352897Y-130817221D01*
X167822417Y-130623219D01*
X168181957Y-130264307D01*
X168376778Y-129795125D01*
X168377221Y-129287103D01*
X168183219Y-128817583D01*
X167824307Y-128458043D01*
X167355125Y-128263222D01*
X166847103Y-128262779D01*
X166516876Y-128399226D01*
X166488327Y-128330302D01*
X166309699Y-128151673D01*
X166076310Y-128055000D01*
X165385750Y-128055000D01*
X165227000Y-128213750D01*
X164973000Y-128213750D01*
X164814250Y-128055000D01*
X164123690Y-128055000D01*
X163890301Y-128151673D01*
X163711673Y-128330302D01*
X163615000Y-128563691D01*
X117281960Y-128563691D01*
X117281960Y-117872000D01*
X119468635Y-117872000D01*
X119468635Y-119872000D01*
X119498409Y-120030237D01*
X119591927Y-120175567D01*
X119734619Y-120273064D01*
X119904000Y-120307365D01*
X121904000Y-120307365D01*
X122062237Y-120277591D01*
X122207567Y-120184073D01*
X122305064Y-120041381D01*
X122339365Y-119872000D01*
X122339365Y-117872000D01*
X122309591Y-117713763D01*
X122216073Y-117568433D01*
X122073381Y-117470936D01*
X121904000Y-117436635D01*
X121817282Y-117436635D01*
X122113047Y-117141386D01*
X122330752Y-116617093D01*
X122331248Y-116049397D01*
X122114457Y-115524725D01*
X121713386Y-115122953D01*
X121566882Y-115062119D01*
X121711275Y-115002457D01*
X122113047Y-114601386D01*
X122330752Y-114077093D01*
X122331062Y-113721583D01*
X153758839Y-113721583D01*
X153899669Y-114062417D01*
X154160211Y-114323414D01*
X154500799Y-114464839D01*
X154869583Y-114465161D01*
X155210417Y-114324331D01*
X155471414Y-114063789D01*
X155514096Y-113961000D01*
X160147986Y-113961000D01*
X160256211Y-114069414D01*
X160596799Y-114210839D01*
X160965583Y-114211161D01*
X161306417Y-114070331D01*
X161567414Y-113809789D01*
X161708839Y-113469201D01*
X161709161Y-113100417D01*
X161600733Y-112838000D01*
X162500635Y-112838000D01*
X162500635Y-115838000D01*
X162530409Y-115996237D01*
X162623927Y-116141567D01*
X162766619Y-116239064D01*
X162936000Y-116273365D01*
X168936000Y-116273365D01*
X169094237Y-116243591D01*
X169239567Y-116150073D01*
X169337064Y-116007381D01*
X169371365Y-115838000D01*
X169371365Y-115265000D01*
X169380000Y-115265000D01*
X169734748Y-115194436D01*
X170035488Y-114993488D01*
X171089488Y-113939488D01*
X171177067Y-113808417D01*
X171290436Y-113638748D01*
X171328726Y-113446250D01*
X172340976Y-112434000D01*
X173494635Y-112434000D01*
X173494635Y-114934000D01*
X173524409Y-115092237D01*
X173617927Y-115237567D01*
X173760619Y-115335064D01*
X173930000Y-115369365D01*
X176430000Y-115369365D01*
X176588237Y-115339591D01*
X176733567Y-115246073D01*
X176831064Y-115103381D01*
X176865365Y-114934000D01*
X176865365Y-114611000D01*
X176892000Y-114611000D01*
X177246748Y-114540436D01*
X177547488Y-114339488D01*
X177917226Y-113969750D01*
X180295000Y-113969750D01*
X180295000Y-115060309D01*
X180391673Y-115293698D01*
X180570301Y-115472327D01*
X180803690Y-115569000D01*
X181894250Y-115569000D01*
X182053000Y-115410250D01*
X182053000Y-113811000D01*
X182307000Y-113811000D01*
X182307000Y-115410250D01*
X182465750Y-115569000D01*
X183556310Y-115569000D01*
X183789699Y-115472327D01*
X183968327Y-115293698D01*
X184065000Y-115060309D01*
X184065000Y-113969750D01*
X183906250Y-113811000D01*
X182307000Y-113811000D01*
X182053000Y-113811000D01*
X180453750Y-113811000D01*
X180295000Y-113969750D01*
X177917226Y-113969750D01*
X179579285Y-112307691D01*
X180295000Y-112307691D01*
X180295000Y-113398250D01*
X180453750Y-113557000D01*
X182053000Y-113557000D01*
X182053000Y-111957750D01*
X182307000Y-111957750D01*
X182307000Y-113557000D01*
X183906250Y-113557000D01*
X184065000Y-113398250D01*
X184065000Y-112307691D01*
X183968327Y-112074302D01*
X183789699Y-111895673D01*
X183556310Y-111799000D01*
X182465750Y-111799000D01*
X182307000Y-111957750D01*
X182053000Y-111957750D01*
X181894250Y-111799000D01*
X180803690Y-111799000D01*
X180570301Y-111895673D01*
X180391673Y-112074302D01*
X180295000Y-112307691D01*
X179579285Y-112307691D01*
X181503488Y-110383488D01*
X181704437Y-110082747D01*
X181746700Y-109870276D01*
X183715869Y-107901107D01*
X183829469Y-107901206D01*
X184266635Y-107720573D01*
X184601397Y-107386394D01*
X184782793Y-106949544D01*
X184783206Y-106476531D01*
X184602573Y-106039365D01*
X184268394Y-105704603D01*
X183831544Y-105523207D01*
X183358531Y-105522794D01*
X182921365Y-105703427D01*
X182586603Y-106037606D01*
X182405207Y-106474456D01*
X182405106Y-106589918D01*
X180192512Y-108802512D01*
X179991564Y-109103252D01*
X179949301Y-109315723D01*
X176859927Y-112405097D01*
X176835591Y-112275763D01*
X176742073Y-112130433D01*
X176599381Y-112032936D01*
X176430000Y-111998635D01*
X173930000Y-111998635D01*
X173771763Y-112028409D01*
X173626433Y-112121927D01*
X173528936Y-112264619D01*
X173494635Y-112434000D01*
X172340976Y-112434000D01*
X174373976Y-110401000D01*
X177800000Y-110401000D01*
X178154748Y-110330436D01*
X178455488Y-110129488D01*
X180683897Y-107901079D01*
X180829469Y-107901206D01*
X181266635Y-107720573D01*
X181601397Y-107386394D01*
X181782793Y-106949544D01*
X181783206Y-106476531D01*
X181602573Y-106039365D01*
X181268394Y-105704603D01*
X180831544Y-105523207D01*
X180358531Y-105522794D01*
X179921365Y-105703427D01*
X179586603Y-106037606D01*
X179405207Y-106474456D01*
X179405134Y-106557890D01*
X178618984Y-107344040D01*
X178782793Y-106949544D01*
X178783206Y-106476531D01*
X178602573Y-106039365D01*
X178268394Y-105704603D01*
X177831544Y-105523207D01*
X177358531Y-105522794D01*
X176921365Y-105703427D01*
X176586603Y-106037606D01*
X176405207Y-106474456D01*
X176404794Y-106947469D01*
X176585427Y-107384635D01*
X176919606Y-107719397D01*
X177356456Y-107900793D01*
X177829469Y-107901206D01*
X178225422Y-107737602D01*
X177416024Y-108547000D01*
X173990000Y-108547000D01*
X173635252Y-108617564D01*
X173493919Y-108712000D01*
X173334512Y-108818512D01*
X169778512Y-112374512D01*
X169577564Y-112675252D01*
X169539274Y-112867750D01*
X169371365Y-113035659D01*
X169371365Y-112838000D01*
X169341591Y-112679763D01*
X169248073Y-112534433D01*
X169105381Y-112436936D01*
X168936000Y-112402635D01*
X162936000Y-112402635D01*
X162777763Y-112432409D01*
X162632433Y-112525927D01*
X162534936Y-112668619D01*
X162500635Y-112838000D01*
X161600733Y-112838000D01*
X161568331Y-112759583D01*
X161307789Y-112498586D01*
X160967201Y-112357161D01*
X160598417Y-112356839D01*
X160257583Y-112497669D01*
X160148061Y-112607000D01*
X156079587Y-112607000D01*
X156226417Y-112546331D01*
X156487414Y-112285789D01*
X156628839Y-111945201D01*
X156628853Y-111929000D01*
X160147986Y-111929000D01*
X160256211Y-112037414D01*
X160596799Y-112178839D01*
X160965583Y-112179161D01*
X161306417Y-112038331D01*
X161567414Y-111777789D01*
X161708839Y-111437201D01*
X161709161Y-111068417D01*
X161568331Y-110727583D01*
X161307789Y-110466586D01*
X160967201Y-110325161D01*
X160598417Y-110324839D01*
X160257583Y-110465669D01*
X160148061Y-110575000D01*
X156210000Y-110575000D01*
X155950923Y-110626534D01*
X155908321Y-110655000D01*
X155731288Y-110773289D01*
X155671604Y-110832973D01*
X155518417Y-110832839D01*
X155177583Y-110973669D01*
X154916586Y-111234211D01*
X154775161Y-111574799D01*
X154774839Y-111943583D01*
X154915669Y-112284417D01*
X155176211Y-112545414D01*
X155324526Y-112607000D01*
X154940000Y-112607000D01*
X154886709Y-112617600D01*
X154871201Y-112611161D01*
X154502417Y-112610839D01*
X154161583Y-112751669D01*
X153900586Y-113012211D01*
X153759161Y-113352799D01*
X153758839Y-113721583D01*
X122331062Y-113721583D01*
X122331248Y-113509397D01*
X122114457Y-112984725D01*
X121713386Y-112582953D01*
X121566882Y-112522119D01*
X121711275Y-112462457D01*
X122113047Y-112061386D01*
X122330752Y-111537093D01*
X122331248Y-110969397D01*
X122114457Y-110444725D01*
X121784589Y-110114280D01*
X121876927Y-109864532D01*
X120904000Y-108891605D01*
X119931073Y-109864532D01*
X120023532Y-110114608D01*
X119694953Y-110442614D01*
X119477248Y-110966907D01*
X119476752Y-111534603D01*
X119693543Y-112059275D01*
X120094614Y-112461047D01*
X120241118Y-112521881D01*
X120096725Y-112581543D01*
X119694953Y-112982614D01*
X119477248Y-113506907D01*
X119476752Y-114074603D01*
X119693543Y-114599275D01*
X120094614Y-115001047D01*
X120241118Y-115061881D01*
X120096725Y-115121543D01*
X119694953Y-115522614D01*
X119477248Y-116046907D01*
X119476752Y-116614603D01*
X119693543Y-117139275D01*
X119990384Y-117436635D01*
X119904000Y-117436635D01*
X119745763Y-117466409D01*
X119600433Y-117559927D01*
X119502936Y-117702619D01*
X119468635Y-117872000D01*
X117281960Y-117872000D01*
X117281960Y-108447461D01*
X119258092Y-108447461D01*
X119282144Y-109097460D01*
X119484613Y-109586264D01*
X119751468Y-109684927D01*
X120724395Y-108712000D01*
X121083605Y-108712000D01*
X122056532Y-109684927D01*
X122323387Y-109586264D01*
X122549908Y-108976539D01*
X122529981Y-108438000D01*
X162500635Y-108438000D01*
X162500635Y-111438000D01*
X162530409Y-111596237D01*
X162623927Y-111741567D01*
X162766619Y-111839064D01*
X162936000Y-111873365D01*
X168936000Y-111873365D01*
X169094237Y-111843591D01*
X169239567Y-111750073D01*
X169337064Y-111607381D01*
X169371365Y-111438000D01*
X169371365Y-108438000D01*
X169341591Y-108279763D01*
X169248073Y-108134433D01*
X169105381Y-108036936D01*
X168936000Y-108002635D01*
X162936000Y-108002635D01*
X162777763Y-108032409D01*
X162632433Y-108125927D01*
X162534936Y-108268619D01*
X162500635Y-108438000D01*
X122529981Y-108438000D01*
X122525856Y-108326540D01*
X122323387Y-107837736D01*
X122056532Y-107739073D01*
X121083605Y-108712000D01*
X120724395Y-108712000D01*
X119751468Y-107739073D01*
X119484613Y-107837736D01*
X119258092Y-108447461D01*
X117281960Y-108447461D01*
X117281960Y-106454603D01*
X119476752Y-106454603D01*
X119693543Y-106979275D01*
X120023411Y-107309720D01*
X119931073Y-107559468D01*
X120904000Y-108532395D01*
X121876927Y-107559468D01*
X121784468Y-107309392D01*
X122113047Y-106981386D01*
X122330752Y-106457093D01*
X122331248Y-105889397D01*
X122262804Y-105723750D01*
X162301000Y-105723750D01*
X162301000Y-107064309D01*
X162397673Y-107297698D01*
X162576301Y-107476327D01*
X162809690Y-107573000D01*
X165650250Y-107573000D01*
X165809000Y-107414250D01*
X165809000Y-105565000D01*
X166063000Y-105565000D01*
X166063000Y-107414250D01*
X166221750Y-107573000D01*
X169062310Y-107573000D01*
X169295699Y-107476327D01*
X169474327Y-107297698D01*
X169571000Y-107064309D01*
X169571000Y-105723750D01*
X169412250Y-105565000D01*
X166063000Y-105565000D01*
X165809000Y-105565000D01*
X162459750Y-105565000D01*
X162301000Y-105723750D01*
X122262804Y-105723750D01*
X122114457Y-105364725D01*
X121713386Y-104962953D01*
X121189093Y-104745248D01*
X120621397Y-104744752D01*
X120096725Y-104961543D01*
X119694953Y-105362614D01*
X119477248Y-105886907D01*
X119476752Y-106454603D01*
X117281960Y-106454603D01*
X117281960Y-103811691D01*
X162301000Y-103811691D01*
X162301000Y-105152250D01*
X162459750Y-105311000D01*
X165809000Y-105311000D01*
X165809000Y-103461750D01*
X166063000Y-103461750D01*
X166063000Y-105311000D01*
X169412250Y-105311000D01*
X169571000Y-105152250D01*
X169571000Y-103811691D01*
X169474327Y-103578302D01*
X169295699Y-103399673D01*
X169062310Y-103303000D01*
X166221750Y-103303000D01*
X166063000Y-103461750D01*
X165809000Y-103461750D01*
X165650250Y-103303000D01*
X162809690Y-103303000D01*
X162576301Y-103399673D01*
X162397673Y-103578302D01*
X162301000Y-103811691D01*
X117281960Y-103811691D01*
X117281960Y-96957583D01*
X136994839Y-96957583D01*
X137135669Y-97298417D01*
X137396211Y-97559414D01*
X137736799Y-97700839D01*
X138105583Y-97701161D01*
X138446417Y-97560331D01*
X138555939Y-97451000D01*
X138911578Y-97451000D01*
X142328973Y-100868395D01*
X142328839Y-101021583D01*
X142469669Y-101362417D01*
X142730211Y-101623414D01*
X143070799Y-101764839D01*
X143439583Y-101765161D01*
X143780417Y-101624331D01*
X144041414Y-101363789D01*
X144182839Y-101023201D01*
X144183062Y-100767583D01*
X147154839Y-100767583D01*
X147295669Y-101108417D01*
X147556211Y-101369414D01*
X147896799Y-101510839D01*
X148265583Y-101511161D01*
X148606417Y-101370331D01*
X148867414Y-101109789D01*
X149008839Y-100769201D01*
X149008974Y-100614448D01*
X150140422Y-99483000D01*
X153035986Y-99483000D01*
X153144211Y-99591414D01*
X153484799Y-99732839D01*
X153853583Y-99733161D01*
X154194417Y-99592331D01*
X154455414Y-99331789D01*
X154596839Y-98991201D01*
X154597161Y-98622417D01*
X154456331Y-98281583D01*
X154195789Y-98020586D01*
X153855201Y-97879161D01*
X153486417Y-97878839D01*
X153145583Y-98019669D01*
X153036061Y-98129000D01*
X149860000Y-98129000D01*
X149600924Y-98180533D01*
X149381289Y-98327289D01*
X148051605Y-99656973D01*
X147898417Y-99656839D01*
X147557583Y-99797669D01*
X147296586Y-100058211D01*
X147155161Y-100398799D01*
X147154839Y-100767583D01*
X144183062Y-100767583D01*
X144183161Y-100654417D01*
X144042331Y-100313583D01*
X143781789Y-100052586D01*
X143441201Y-99911161D01*
X143286448Y-99911026D01*
X139670711Y-96295289D01*
X139600254Y-96248211D01*
X139451077Y-96148534D01*
X139192000Y-96097000D01*
X138556014Y-96097000D01*
X138447789Y-95988586D01*
X138107201Y-95847161D01*
X137738417Y-95846839D01*
X137397583Y-95987669D01*
X137136586Y-96248211D01*
X136995161Y-96588799D01*
X136994839Y-96957583D01*
X117281960Y-96957583D01*
X117281960Y-95433583D01*
X122897839Y-95433583D01*
X123038669Y-95774417D01*
X123299211Y-96035414D01*
X123639799Y-96176839D01*
X124008583Y-96177161D01*
X124349417Y-96036331D01*
X124610414Y-95775789D01*
X124751839Y-95435201D01*
X124752161Y-95066417D01*
X124611331Y-94725583D01*
X124350789Y-94464586D01*
X124010201Y-94323161D01*
X123641417Y-94322839D01*
X123300583Y-94463669D01*
X123039586Y-94724211D01*
X122898161Y-95064799D01*
X122897839Y-95433583D01*
X117281960Y-95433583D01*
X117281960Y-90861583D01*
X129120839Y-90861583D01*
X129261669Y-91202417D01*
X129522211Y-91463414D01*
X129862799Y-91604839D01*
X130231583Y-91605161D01*
X130572417Y-91464331D01*
X130732026Y-91305000D01*
X138000073Y-91305000D01*
X138158211Y-91463414D01*
X138498799Y-91604839D01*
X138867583Y-91605161D01*
X139208417Y-91464331D01*
X139469414Y-91203789D01*
X139610839Y-90863201D01*
X139611161Y-90494417D01*
X139470331Y-90153583D01*
X139209789Y-89892586D01*
X138869201Y-89751161D01*
X138500417Y-89750839D01*
X138159583Y-89891669D01*
X137999974Y-90051000D01*
X130731927Y-90051000D01*
X130573789Y-89892586D01*
X130233201Y-89751161D01*
X129864417Y-89750839D01*
X129523583Y-89891669D01*
X129262586Y-90152211D01*
X129121161Y-90492799D01*
X129120839Y-90861583D01*
X117281960Y-90861583D01*
X117281960Y-86797583D01*
X139788839Y-86797583D01*
X139929669Y-87138417D01*
X140190211Y-87399414D01*
X140530799Y-87540839D01*
X140685552Y-87540974D01*
X141055000Y-87910422D01*
X141055000Y-93091986D01*
X140946586Y-93200211D01*
X140805161Y-93540799D01*
X140804839Y-93909583D01*
X140945669Y-94250417D01*
X141206211Y-94511414D01*
X141546799Y-94652839D01*
X141915583Y-94653161D01*
X142256417Y-94512331D01*
X142517414Y-94251789D01*
X142658839Y-93911201D01*
X142659161Y-93542417D01*
X142518331Y-93201583D01*
X142409000Y-93092061D01*
X142409000Y-90099583D01*
X150202839Y-90099583D01*
X150343669Y-90440417D01*
X150604211Y-90701414D01*
X150944799Y-90842839D01*
X151313583Y-90843161D01*
X151654417Y-90702331D01*
X151754559Y-90602364D01*
X153641161Y-90773873D01*
X154267034Y-91399746D01*
X154266839Y-91623583D01*
X154407669Y-91964417D01*
X154668211Y-92225414D01*
X155008799Y-92366839D01*
X155377583Y-92367161D01*
X155718417Y-92226331D01*
X155979414Y-91965789D01*
X156120839Y-91625201D01*
X156121161Y-91256417D01*
X155980331Y-90915583D01*
X155719789Y-90654586D01*
X155379201Y-90513161D01*
X155153676Y-90512964D01*
X154367356Y-89726644D01*
X154355292Y-89718583D01*
X159727839Y-89718583D01*
X159868669Y-90059417D01*
X160129211Y-90320414D01*
X160275629Y-90381212D01*
X160250586Y-90406211D01*
X160109161Y-90746799D01*
X160108839Y-91115583D01*
X160249669Y-91456417D01*
X160510211Y-91717414D01*
X160850799Y-91858839D01*
X161219583Y-91859161D01*
X161560417Y-91718331D01*
X161669939Y-91609000D01*
X163957986Y-91609000D01*
X164066211Y-91717414D01*
X164406799Y-91858839D01*
X164775583Y-91859161D01*
X165116417Y-91718331D01*
X165377414Y-91457789D01*
X165518839Y-91117201D01*
X165519161Y-90748417D01*
X165378331Y-90407583D01*
X165117789Y-90146586D01*
X164777201Y-90005161D01*
X164408417Y-90004839D01*
X164067583Y-90145669D01*
X163958061Y-90255000D01*
X161670014Y-90255000D01*
X161561789Y-90146586D01*
X161415371Y-90085788D01*
X161440414Y-90060789D01*
X161581839Y-89720201D01*
X161582008Y-89527000D01*
X163781073Y-89527000D01*
X163939211Y-89685414D01*
X164279799Y-89826839D01*
X164648583Y-89827161D01*
X164989417Y-89686331D01*
X165250414Y-89425789D01*
X165391839Y-89085201D01*
X165392161Y-88716417D01*
X165251331Y-88375583D01*
X164990789Y-88114586D01*
X164650201Y-87973161D01*
X164281417Y-87972839D01*
X163940583Y-88113669D01*
X163780974Y-88273000D01*
X161290000Y-88273000D01*
X161050058Y-88320727D01*
X160846644Y-88456644D01*
X160695254Y-88608034D01*
X160471417Y-88607839D01*
X160130583Y-88748669D01*
X159869586Y-89009211D01*
X159728161Y-89349799D01*
X159727839Y-89718583D01*
X154355292Y-89718583D01*
X154288849Y-89674188D01*
X154215403Y-89614830D01*
X154187836Y-89606693D01*
X154163942Y-89590728D01*
X154071334Y-89572307D01*
X153980766Y-89545575D01*
X151879350Y-89354537D01*
X151655789Y-89130586D01*
X151315201Y-88989161D01*
X150946417Y-88988839D01*
X150605583Y-89129669D01*
X150344586Y-89390211D01*
X150203161Y-89730799D01*
X150202839Y-90099583D01*
X142409000Y-90099583D01*
X142409000Y-87630000D01*
X142357466Y-87370923D01*
X142210711Y-87151289D01*
X141799172Y-86739750D01*
X165435000Y-86739750D01*
X165435000Y-87330309D01*
X165531673Y-87563698D01*
X165710301Y-87742327D01*
X165943690Y-87839000D01*
X166084250Y-87839000D01*
X166243000Y-87680250D01*
X166243000Y-86581000D01*
X165593750Y-86581000D01*
X165435000Y-86739750D01*
X141799172Y-86739750D01*
X141643027Y-86583605D01*
X141643161Y-86430417D01*
X141502331Y-86089583D01*
X141241789Y-85828586D01*
X140901201Y-85687161D01*
X140532417Y-85686839D01*
X140191583Y-85827669D01*
X139930586Y-86088211D01*
X139789161Y-86428799D01*
X139788839Y-86797583D01*
X117281960Y-86797583D01*
X117281960Y-78019950D01*
X158453065Y-78019950D01*
X158453065Y-78820050D01*
X158482839Y-78978287D01*
X158576357Y-79123617D01*
X158719049Y-79221114D01*
X158888430Y-79255415D01*
X159111860Y-79255415D01*
X159111860Y-82318860D01*
X159163394Y-82577937D01*
X159241469Y-82694784D01*
X159310149Y-82797571D01*
X161446289Y-84933711D01*
X161665923Y-85080466D01*
X161925000Y-85132000D01*
X165791595Y-85132000D01*
X165710301Y-85165673D01*
X165531673Y-85344302D01*
X165435000Y-85577691D01*
X165435000Y-86168250D01*
X165593750Y-86327000D01*
X166243000Y-86327000D01*
X166243000Y-86307000D01*
X166497000Y-86307000D01*
X166497000Y-86327000D01*
X166517000Y-86327000D01*
X166517000Y-86581000D01*
X166497000Y-86581000D01*
X166497000Y-87680250D01*
X166655750Y-87839000D01*
X166796310Y-87839000D01*
X167029699Y-87742327D01*
X167168446Y-87603579D01*
X167170619Y-87605064D01*
X167340000Y-87639365D01*
X167940000Y-87639365D01*
X168098237Y-87609591D01*
X168243567Y-87516073D01*
X168274381Y-87470975D01*
X168297927Y-87507567D01*
X168440619Y-87605064D01*
X168610000Y-87639365D01*
X169210000Y-87639365D01*
X169368237Y-87609591D01*
X169513567Y-87516073D01*
X169544381Y-87470975D01*
X169567927Y-87507567D01*
X169710619Y-87605064D01*
X169880000Y-87639365D01*
X170480000Y-87639365D01*
X170638237Y-87609591D01*
X170783567Y-87516073D01*
X170814381Y-87470975D01*
X170837927Y-87507567D01*
X170980619Y-87605064D01*
X171150000Y-87639365D01*
X171750000Y-87639365D01*
X171908237Y-87609591D01*
X172053567Y-87516073D01*
X172084381Y-87470975D01*
X172107927Y-87507567D01*
X172250619Y-87605064D01*
X172420000Y-87639365D01*
X173020000Y-87639365D01*
X173178237Y-87609591D01*
X173323567Y-87516073D01*
X173354381Y-87470975D01*
X173377927Y-87507567D01*
X173520619Y-87605064D01*
X173690000Y-87639365D01*
X174290000Y-87639365D01*
X174448237Y-87609591D01*
X174593567Y-87516073D01*
X174624381Y-87470975D01*
X174647927Y-87507567D01*
X174790619Y-87605064D01*
X174960000Y-87639365D01*
X175560000Y-87639365D01*
X175718237Y-87609591D01*
X175863567Y-87516073D01*
X175961064Y-87373381D01*
X175995365Y-87204000D01*
X175995365Y-85704000D01*
X175965591Y-85545763D01*
X175937000Y-85501332D01*
X175937000Y-85454282D01*
X178960868Y-82430415D01*
X179739290Y-82430415D01*
X179897527Y-82400641D01*
X180042857Y-82307123D01*
X180140354Y-82164431D01*
X180174655Y-81995050D01*
X180174655Y-81194950D01*
X180144881Y-81036713D01*
X180076696Y-80930750D01*
X180305710Y-80930750D01*
X180305710Y-81171359D01*
X180402383Y-81404748D01*
X180581011Y-81583377D01*
X180814400Y-81680050D01*
X181555390Y-81680050D01*
X181714140Y-81521300D01*
X181714140Y-80772000D01*
X181968140Y-80772000D01*
X181968140Y-81521300D01*
X182126890Y-81680050D01*
X182867880Y-81680050D01*
X183101269Y-81583377D01*
X183279897Y-81404748D01*
X183376570Y-81171359D01*
X183376570Y-80930750D01*
X183217820Y-80772000D01*
X181968140Y-80772000D01*
X181714140Y-80772000D01*
X180464460Y-80772000D01*
X180305710Y-80930750D01*
X180076696Y-80930750D01*
X180051363Y-80891383D01*
X179908671Y-80793886D01*
X179739290Y-80759585D01*
X177938430Y-80759585D01*
X177780193Y-80789359D01*
X177634863Y-80882877D01*
X177537366Y-81025569D01*
X177503065Y-81194950D01*
X177503065Y-81973372D01*
X174781289Y-84695149D01*
X174667000Y-84866194D01*
X174667000Y-84735422D01*
X176373711Y-83028711D01*
X176442392Y-82925923D01*
X176520466Y-82809077D01*
X176572000Y-82550000D01*
X176572000Y-79253964D01*
X176722527Y-79225641D01*
X176867857Y-79132123D01*
X176965354Y-78989431D01*
X176999655Y-78820050D01*
X176999655Y-78019950D01*
X176969881Y-77861713D01*
X176901696Y-77755750D01*
X177130710Y-77755750D01*
X177130710Y-77996359D01*
X177227383Y-78229748D01*
X177406011Y-78408377D01*
X177639400Y-78505050D01*
X178380390Y-78505050D01*
X178539140Y-78346300D01*
X178539140Y-77597000D01*
X177289460Y-77597000D01*
X177130710Y-77755750D01*
X176901696Y-77755750D01*
X176876363Y-77716383D01*
X176733671Y-77618886D01*
X176564290Y-77584585D01*
X174763430Y-77584585D01*
X174605193Y-77614359D01*
X174459863Y-77707877D01*
X174362366Y-77850569D01*
X174328065Y-78019950D01*
X174328065Y-78820050D01*
X174357839Y-78978287D01*
X174451357Y-79123617D01*
X174594049Y-79221114D01*
X174763430Y-79255415D01*
X175218000Y-79255415D01*
X175218000Y-82269578D01*
X173511289Y-83976289D01*
X173364534Y-84195923D01*
X173313000Y-84455000D01*
X173313000Y-84782334D01*
X173198711Y-84611289D01*
X171260860Y-82673438D01*
X171260860Y-82430415D01*
X171484290Y-82430415D01*
X171642527Y-82400641D01*
X171787857Y-82307123D01*
X171885354Y-82164431D01*
X171919655Y-81995050D01*
X171919655Y-81194950D01*
X171889881Y-81036713D01*
X171821696Y-80930750D01*
X172050710Y-80930750D01*
X172050710Y-81171359D01*
X172147383Y-81404748D01*
X172326011Y-81583377D01*
X172559400Y-81680050D01*
X173300390Y-81680050D01*
X173459140Y-81521300D01*
X173459140Y-80772000D01*
X173713140Y-80772000D01*
X173713140Y-81521300D01*
X173871890Y-81680050D01*
X174612880Y-81680050D01*
X174846269Y-81583377D01*
X175024897Y-81404748D01*
X175121570Y-81171359D01*
X175121570Y-80930750D01*
X174962820Y-80772000D01*
X173713140Y-80772000D01*
X173459140Y-80772000D01*
X172209460Y-80772000D01*
X172050710Y-80930750D01*
X171821696Y-80930750D01*
X171796363Y-80891383D01*
X171653671Y-80793886D01*
X171484290Y-80759585D01*
X169683430Y-80759585D01*
X169525193Y-80789359D01*
X169379863Y-80882877D01*
X169282366Y-81025569D01*
X169248065Y-81194950D01*
X169248065Y-81995050D01*
X169277839Y-82153287D01*
X169371357Y-82298617D01*
X169514049Y-82396114D01*
X169683430Y-82430415D01*
X169906860Y-82430415D01*
X169906860Y-82869486D01*
X168317000Y-81279626D01*
X168317000Y-79253964D01*
X168467527Y-79225641D01*
X168612857Y-79132123D01*
X168710354Y-78989431D01*
X168744655Y-78820050D01*
X168744655Y-78019950D01*
X168714881Y-77861713D01*
X168646696Y-77755750D01*
X168875710Y-77755750D01*
X168875710Y-77996359D01*
X168972383Y-78229748D01*
X169151011Y-78408377D01*
X169384400Y-78505050D01*
X170125390Y-78505050D01*
X170284140Y-78346300D01*
X170284140Y-77597000D01*
X170538140Y-77597000D01*
X170538140Y-78346300D01*
X170696890Y-78505050D01*
X171437880Y-78505050D01*
X171671269Y-78408377D01*
X171849897Y-78229748D01*
X171946570Y-77996359D01*
X171946570Y-77755750D01*
X171787820Y-77597000D01*
X170538140Y-77597000D01*
X170284140Y-77597000D01*
X169034460Y-77597000D01*
X168875710Y-77755750D01*
X168646696Y-77755750D01*
X168621363Y-77716383D01*
X168478671Y-77618886D01*
X168309290Y-77584585D01*
X166508430Y-77584585D01*
X166350193Y-77614359D01*
X166204863Y-77707877D01*
X166107366Y-77850569D01*
X166073065Y-78019950D01*
X166073065Y-78820050D01*
X166102839Y-78978287D01*
X166196357Y-79123617D01*
X166339049Y-79221114D01*
X166508430Y-79255415D01*
X166963000Y-79255415D01*
X166963000Y-79609950D01*
X166251890Y-79609950D01*
X166093140Y-79768700D01*
X166093140Y-80518000D01*
X166113140Y-80518000D01*
X166113140Y-80772000D01*
X166093140Y-80772000D01*
X166093140Y-81521300D01*
X166251890Y-81680050D01*
X166986870Y-81680050D01*
X167014534Y-81819125D01*
X167132084Y-81995050D01*
X167161289Y-82038759D01*
X167630530Y-82508000D01*
X164834283Y-82508000D01*
X164299655Y-81973372D01*
X164299655Y-81194950D01*
X164269881Y-81036713D01*
X164201696Y-80930750D01*
X164430710Y-80930750D01*
X164430710Y-81171359D01*
X164527383Y-81404748D01*
X164706011Y-81583377D01*
X164939400Y-81680050D01*
X165680390Y-81680050D01*
X165839140Y-81521300D01*
X165839140Y-80772000D01*
X164589460Y-80772000D01*
X164430710Y-80930750D01*
X164201696Y-80930750D01*
X164176363Y-80891383D01*
X164033671Y-80793886D01*
X163864290Y-80759585D01*
X162063430Y-80759585D01*
X161905193Y-80789359D01*
X161759863Y-80882877D01*
X161662366Y-81025569D01*
X161628065Y-81194950D01*
X161628065Y-81995050D01*
X161657839Y-82153287D01*
X161751357Y-82298617D01*
X161894049Y-82396114D01*
X162063430Y-82430415D01*
X162841853Y-82430415D01*
X164075149Y-83663712D01*
X164246194Y-83778000D01*
X162205422Y-83778000D01*
X160465860Y-82038438D01*
X160465860Y-79255415D01*
X160689290Y-79255415D01*
X160847527Y-79225641D01*
X160992857Y-79132123D01*
X161090354Y-78989431D01*
X161124655Y-78820050D01*
X161124655Y-78019950D01*
X161094881Y-77861713D01*
X161026696Y-77755750D01*
X161255710Y-77755750D01*
X161255710Y-77996359D01*
X161352383Y-78229748D01*
X161531011Y-78408377D01*
X161764400Y-78505050D01*
X162505390Y-78505050D01*
X162664140Y-78346300D01*
X162664140Y-77597000D01*
X162918140Y-77597000D01*
X162918140Y-78346300D01*
X163076890Y-78505050D01*
X163817880Y-78505050D01*
X164051269Y-78408377D01*
X164229897Y-78229748D01*
X164326570Y-77996359D01*
X164326570Y-77755750D01*
X164167820Y-77597000D01*
X162918140Y-77597000D01*
X162664140Y-77597000D01*
X161414460Y-77597000D01*
X161255710Y-77755750D01*
X161026696Y-77755750D01*
X161001363Y-77716383D01*
X160858671Y-77618886D01*
X160689290Y-77584585D01*
X158888430Y-77584585D01*
X158730193Y-77614359D01*
X158584863Y-77707877D01*
X158487366Y-77850569D01*
X158453065Y-78019950D01*
X117281960Y-78019950D01*
X117281960Y-59290469D01*
X120730794Y-59290469D01*
X120911427Y-59727635D01*
X121245606Y-60062397D01*
X121682456Y-60243793D01*
X122151781Y-60244203D01*
X122424731Y-60517153D01*
X122157544Y-60406207D01*
X121684531Y-60405794D01*
X121247365Y-60586427D01*
X120912603Y-60920606D01*
X120731207Y-61357456D01*
X120730794Y-61830469D01*
X120911427Y-62267635D01*
X121245606Y-62602397D01*
X121682456Y-62783793D01*
X122155469Y-62784206D01*
X122592635Y-62603573D01*
X122927397Y-62269394D01*
X123108793Y-61832544D01*
X123109206Y-61359531D01*
X122941013Y-60952473D01*
X123190000Y-61002000D01*
X128498805Y-61002000D01*
X128351207Y-61357456D01*
X128350794Y-61830469D01*
X128531427Y-62267635D01*
X128865606Y-62602397D01*
X129302456Y-62783793D01*
X129775469Y-62784206D01*
X130212635Y-62603573D01*
X130547397Y-62269394D01*
X130728793Y-61832544D01*
X130729206Y-61359531D01*
X130581477Y-61002000D01*
X133578805Y-61002000D01*
X133431207Y-61357456D01*
X133430794Y-61830469D01*
X133578523Y-62188000D01*
X131445000Y-62188000D01*
X131185923Y-62239534D01*
X130966289Y-62386289D01*
X130219680Y-63132898D01*
X130214394Y-63127603D01*
X129777544Y-62946207D01*
X129304531Y-62945794D01*
X128867365Y-63126427D01*
X128532603Y-63460606D01*
X128351207Y-63897456D01*
X128350794Y-64370469D01*
X128498523Y-64728000D01*
X123470422Y-64728000D01*
X123108798Y-64366376D01*
X123109206Y-63899531D01*
X122928573Y-63462365D01*
X122594394Y-63127603D01*
X122157544Y-62946207D01*
X121684531Y-62945794D01*
X121247365Y-63126427D01*
X120912603Y-63460606D01*
X120731207Y-63897456D01*
X120730794Y-64370469D01*
X120911427Y-64807635D01*
X121245606Y-65142397D01*
X121682456Y-65323793D01*
X122151781Y-65324203D01*
X122424731Y-65597153D01*
X122157544Y-65486207D01*
X121684531Y-65485794D01*
X121247365Y-65666427D01*
X120912603Y-66000606D01*
X120731207Y-66437456D01*
X120730794Y-66910469D01*
X120911427Y-67347635D01*
X121245606Y-67682397D01*
X121682456Y-67863793D01*
X122151781Y-67864203D01*
X122424731Y-68137153D01*
X122157544Y-68026207D01*
X121684531Y-68025794D01*
X121247365Y-68206427D01*
X120912603Y-68540606D01*
X120731207Y-68977456D01*
X120730794Y-69450469D01*
X120911427Y-69887635D01*
X121245606Y-70222397D01*
X121418115Y-70294029D01*
X121441289Y-70328711D01*
X122711289Y-71598711D01*
X122930923Y-71745466D01*
X123190000Y-71797000D01*
X154183000Y-71797000D01*
X154183000Y-73209635D01*
X154110000Y-73209635D01*
X153951763Y-73239409D01*
X153806433Y-73332927D01*
X153708936Y-73475619D01*
X153674635Y-73645000D01*
X153674635Y-74945000D01*
X153704409Y-75103237D01*
X153797927Y-75248567D01*
X153940619Y-75346064D01*
X154110000Y-75380365D01*
X155610000Y-75380365D01*
X155768237Y-75350591D01*
X155913567Y-75257073D01*
X156011064Y-75114381D01*
X156045365Y-74945000D01*
X156045365Y-73645000D01*
X156374635Y-73645000D01*
X156374635Y-74945000D01*
X156404409Y-75103237D01*
X156497927Y-75248567D01*
X156640619Y-75346064D01*
X156796135Y-75377557D01*
X158417289Y-76998712D01*
X158475139Y-77037366D01*
X158482839Y-77078287D01*
X158576357Y-77223617D01*
X158719049Y-77321114D01*
X158888430Y-77355415D01*
X160689290Y-77355415D01*
X160847527Y-77325641D01*
X160992857Y-77232123D01*
X161090354Y-77089431D01*
X161119877Y-76943641D01*
X161255710Y-76943641D01*
X161255710Y-77184250D01*
X161414460Y-77343000D01*
X162664140Y-77343000D01*
X162664140Y-76593700D01*
X162918140Y-76593700D01*
X162918140Y-77343000D01*
X164167820Y-77343000D01*
X164326570Y-77184250D01*
X164326570Y-76943641D01*
X164229897Y-76710252D01*
X164051269Y-76531623D01*
X163817880Y-76434950D01*
X163076890Y-76434950D01*
X162918140Y-76593700D01*
X162664140Y-76593700D01*
X162505390Y-76434950D01*
X161764400Y-76434950D01*
X161531011Y-76531623D01*
X161352383Y-76710252D01*
X161255710Y-76943641D01*
X161119877Y-76943641D01*
X161124655Y-76920050D01*
X161124655Y-76119950D01*
X161094881Y-75961713D01*
X161001363Y-75816383D01*
X160858671Y-75718886D01*
X160689290Y-75684585D01*
X159018008Y-75684585D01*
X158599529Y-75266106D01*
X158613567Y-75257073D01*
X158711064Y-75114381D01*
X158745365Y-74945000D01*
X158745365Y-73645000D01*
X158715591Y-73486763D01*
X158622073Y-73341433D01*
X158479381Y-73243936D01*
X158310000Y-73209635D01*
X156810000Y-73209635D01*
X156651763Y-73239409D01*
X156506433Y-73332927D01*
X156408936Y-73475619D01*
X156374635Y-73645000D01*
X156045365Y-73645000D01*
X156015591Y-73486763D01*
X155922073Y-73341433D01*
X155779381Y-73243936D01*
X155610000Y-73209635D01*
X155537000Y-73209635D01*
X155537000Y-71797000D01*
X162109635Y-71797000D01*
X162109635Y-73220000D01*
X162139409Y-73378237D01*
X162232927Y-73523567D01*
X162375619Y-73621064D01*
X162518000Y-73649897D01*
X162518000Y-74375000D01*
X162569534Y-74634077D01*
X162716289Y-74853711D01*
X162935923Y-75000466D01*
X162944812Y-75002234D01*
X164423000Y-76480422D01*
X164423000Y-78459578D01*
X163996267Y-78886311D01*
X163864290Y-78859585D01*
X162063430Y-78859585D01*
X161905193Y-78889359D01*
X161759863Y-78982877D01*
X161662366Y-79125569D01*
X161628065Y-79294950D01*
X161628065Y-80095050D01*
X161657839Y-80253287D01*
X161751357Y-80398617D01*
X161894049Y-80496114D01*
X162063430Y-80530415D01*
X163864290Y-80530415D01*
X164022527Y-80500641D01*
X164167857Y-80407123D01*
X164199225Y-80361214D01*
X164404077Y-80320466D01*
X164430710Y-80302670D01*
X164430710Y-80359250D01*
X164589460Y-80518000D01*
X165839140Y-80518000D01*
X165839140Y-79768700D01*
X165680390Y-79609950D01*
X165187472Y-79609950D01*
X165578711Y-79218711D01*
X165636567Y-79132123D01*
X165725466Y-78999077D01*
X165777000Y-78740000D01*
X165777000Y-76200000D01*
X165761077Y-76119950D01*
X166073065Y-76119950D01*
X166073065Y-76920050D01*
X166102839Y-77078287D01*
X166196357Y-77223617D01*
X166339049Y-77321114D01*
X166508430Y-77355415D01*
X168309290Y-77355415D01*
X168467527Y-77325641D01*
X168612857Y-77232123D01*
X168710354Y-77089431D01*
X168739877Y-76943641D01*
X168875710Y-76943641D01*
X168875710Y-77184250D01*
X169034460Y-77343000D01*
X170284140Y-77343000D01*
X170284140Y-76593700D01*
X170538140Y-76593700D01*
X170538140Y-77343000D01*
X171787820Y-77343000D01*
X171946570Y-77184250D01*
X171946570Y-76943641D01*
X171849897Y-76710252D01*
X171671269Y-76531623D01*
X171437880Y-76434950D01*
X170696890Y-76434950D01*
X170538140Y-76593700D01*
X170284140Y-76593700D01*
X170125390Y-76434950D01*
X169384400Y-76434950D01*
X169151011Y-76531623D01*
X168972383Y-76710252D01*
X168875710Y-76943641D01*
X168739877Y-76943641D01*
X168744655Y-76920050D01*
X168744655Y-76119950D01*
X168734016Y-76063407D01*
X171095423Y-73702000D01*
X172085000Y-73702000D01*
X172344077Y-73650466D01*
X172534044Y-73523534D01*
X172241289Y-73816289D01*
X172094534Y-74035923D01*
X172043000Y-74295000D01*
X172043000Y-78459578D01*
X171616267Y-78886311D01*
X171484290Y-78859585D01*
X169683430Y-78859585D01*
X169525193Y-78889359D01*
X169379863Y-78982877D01*
X169282366Y-79125569D01*
X169248065Y-79294950D01*
X169248065Y-80095050D01*
X169277839Y-80253287D01*
X169371357Y-80398617D01*
X169514049Y-80496114D01*
X169683430Y-80530415D01*
X171484290Y-80530415D01*
X171642527Y-80500641D01*
X171787857Y-80407123D01*
X171819225Y-80361214D01*
X172024077Y-80320466D01*
X172050710Y-80302670D01*
X172050710Y-80359250D01*
X172209460Y-80518000D01*
X173459140Y-80518000D01*
X173459140Y-79768700D01*
X173713140Y-79768700D01*
X173713140Y-80518000D01*
X174962820Y-80518000D01*
X175121570Y-80359250D01*
X175121570Y-80118641D01*
X175024897Y-79885252D01*
X174846269Y-79706623D01*
X174612880Y-79609950D01*
X173871890Y-79609950D01*
X173713140Y-79768700D01*
X173459140Y-79768700D01*
X173300390Y-79609950D01*
X172807472Y-79609950D01*
X173198711Y-79218711D01*
X173256567Y-79132123D01*
X173345466Y-78999077D01*
X173397000Y-78740000D01*
X173397000Y-74575422D01*
X175165326Y-72807096D01*
X175038394Y-72997063D01*
X174986860Y-73256140D01*
X174986860Y-75684585D01*
X174763430Y-75684585D01*
X174605193Y-75714359D01*
X174459863Y-75807877D01*
X174362366Y-75950569D01*
X174328065Y-76119950D01*
X174328065Y-76920050D01*
X174357839Y-77078287D01*
X174451357Y-77223617D01*
X174594049Y-77321114D01*
X174763430Y-77355415D01*
X176564290Y-77355415D01*
X176722527Y-77325641D01*
X176867857Y-77232123D01*
X176965354Y-77089431D01*
X176994877Y-76943641D01*
X177130710Y-76943641D01*
X177130710Y-77184250D01*
X177289460Y-77343000D01*
X178539140Y-77343000D01*
X178539140Y-76593700D01*
X178380390Y-76434950D01*
X177639400Y-76434950D01*
X177406011Y-76531623D01*
X177227383Y-76710252D01*
X177130710Y-76943641D01*
X176994877Y-76943641D01*
X176999655Y-76920050D01*
X176999655Y-76119950D01*
X176969881Y-75961713D01*
X176876363Y-75816383D01*
X176733671Y-75718886D01*
X176564290Y-75684585D01*
X176340860Y-75684585D01*
X176340860Y-73536562D01*
X176810422Y-73067000D01*
X180340000Y-73067000D01*
X180599077Y-73015466D01*
X180818711Y-72868711D01*
X182007591Y-71679831D01*
X182060619Y-71716064D01*
X182230000Y-71750365D01*
X183530000Y-71750365D01*
X183688237Y-71720591D01*
X183833567Y-71627073D01*
X183931064Y-71484381D01*
X183965365Y-71315000D01*
X183965365Y-69815000D01*
X183935591Y-69656763D01*
X183842073Y-69511433D01*
X183699381Y-69413936D01*
X183530000Y-69379635D01*
X182230000Y-69379635D01*
X182071763Y-69409409D01*
X181926433Y-69502927D01*
X181828936Y-69645619D01*
X181794635Y-69815000D01*
X181794635Y-70013894D01*
X181686289Y-70086289D01*
X180059578Y-71713000D01*
X176530000Y-71713000D01*
X176270923Y-71764534D01*
X176151195Y-71844534D01*
X176080955Y-71891467D01*
X178278711Y-69693711D01*
X178400505Y-69511433D01*
X178425466Y-69474077D01*
X178430161Y-69450469D01*
X179150794Y-69450469D01*
X179331427Y-69887635D01*
X179665606Y-70222397D01*
X180102456Y-70403793D01*
X180575469Y-70404206D01*
X181012635Y-70223573D01*
X181347397Y-69889394D01*
X181528793Y-69452544D01*
X181529206Y-68979531D01*
X181348573Y-68542365D01*
X181014394Y-68207603D01*
X180577544Y-68026207D01*
X180104531Y-68025794D01*
X179667365Y-68206427D01*
X179332603Y-68540606D01*
X179151207Y-68977456D01*
X179150794Y-69450469D01*
X178430161Y-69450469D01*
X178477000Y-69215000D01*
X178477000Y-68570285D01*
X178608237Y-68545591D01*
X178753567Y-68452073D01*
X178851064Y-68309381D01*
X178885365Y-68140000D01*
X178885365Y-66910469D01*
X179150794Y-66910469D01*
X179331427Y-67347635D01*
X179665606Y-67682397D01*
X180102456Y-67863793D01*
X180575469Y-67864206D01*
X181012635Y-67683573D01*
X181347397Y-67349394D01*
X181528793Y-66912544D01*
X181529206Y-66439531D01*
X181348573Y-66002365D01*
X181014394Y-65667603D01*
X180577544Y-65486207D01*
X180104531Y-65485794D01*
X179667365Y-65666427D01*
X179332603Y-66000606D01*
X179151207Y-66437456D01*
X179150794Y-66910469D01*
X178885365Y-66910469D01*
X178885365Y-66640000D01*
X178855591Y-66481763D01*
X178762073Y-66336433D01*
X178619381Y-66238936D01*
X178450000Y-66204635D01*
X177150000Y-66204635D01*
X176991763Y-66234409D01*
X176846433Y-66327927D01*
X176748936Y-66470619D01*
X176714635Y-66640000D01*
X176714635Y-68140000D01*
X176744409Y-68298237D01*
X176837927Y-68443567D01*
X176980619Y-68541064D01*
X177123000Y-68569897D01*
X177123000Y-68934578D01*
X175758533Y-70299045D01*
X175809748Y-70222397D01*
X175885466Y-70109077D01*
X175937000Y-69850000D01*
X175937000Y-68570285D01*
X176068237Y-68545591D01*
X176213567Y-68452073D01*
X176311064Y-68309381D01*
X176345365Y-68140000D01*
X176345365Y-66640000D01*
X176315591Y-66481763D01*
X176222073Y-66336433D01*
X176079381Y-66238936D01*
X175910000Y-66204635D01*
X174610000Y-66204635D01*
X174451763Y-66234409D01*
X174306433Y-66327927D01*
X174208936Y-66470619D01*
X174174635Y-66640000D01*
X174174635Y-68140000D01*
X174204409Y-68298237D01*
X174297927Y-68443567D01*
X174440619Y-68541064D01*
X174583000Y-68569897D01*
X174583000Y-69569578D01*
X171804578Y-72348000D01*
X170815000Y-72348000D01*
X170555923Y-72399534D01*
X170450463Y-72470000D01*
X170336288Y-72546289D01*
X167197993Y-75684585D01*
X166508430Y-75684585D01*
X166350193Y-75714359D01*
X166204863Y-75807877D01*
X166107366Y-75950569D01*
X166073065Y-76119950D01*
X165761077Y-76119950D01*
X165760981Y-76119468D01*
X165725467Y-75940924D01*
X165578711Y-75721289D01*
X163872000Y-74014578D01*
X163872000Y-73650285D01*
X164003237Y-73625591D01*
X164148567Y-73532073D01*
X164246064Y-73389381D01*
X164280365Y-73220000D01*
X164280365Y-71797000D01*
X170180000Y-71797000D01*
X170439077Y-71745466D01*
X170658711Y-71598711D01*
X172040320Y-70217102D01*
X172045606Y-70222397D01*
X172482456Y-70403793D01*
X172955469Y-70404206D01*
X173392635Y-70223573D01*
X173727397Y-69889394D01*
X173908793Y-69452544D01*
X173909206Y-68979531D01*
X173728573Y-68542365D01*
X173394394Y-68207603D01*
X172957544Y-68026207D01*
X172484531Y-68025794D01*
X172215444Y-68136978D01*
X172488624Y-67863798D01*
X172955469Y-67864206D01*
X173392635Y-67683573D01*
X173727397Y-67349394D01*
X173908793Y-66912544D01*
X173909206Y-66439531D01*
X173728573Y-66002365D01*
X173394394Y-65667603D01*
X172957544Y-65486207D01*
X172484531Y-65485794D01*
X172215444Y-65596978D01*
X172488624Y-65323798D01*
X172955469Y-65324206D01*
X173392635Y-65143573D01*
X173724786Y-64812000D01*
X174174635Y-64812000D01*
X174174635Y-65440000D01*
X174204409Y-65598237D01*
X174297927Y-65743567D01*
X174440619Y-65841064D01*
X174610000Y-65875365D01*
X175910000Y-65875365D01*
X176068237Y-65845591D01*
X176213567Y-65752073D01*
X176311064Y-65609381D01*
X176345365Y-65440000D01*
X176345365Y-63940000D01*
X176315591Y-63781763D01*
X176222073Y-63636433D01*
X176083865Y-63542000D01*
X176979966Y-63542000D01*
X176846433Y-63627927D01*
X176748936Y-63770619D01*
X176714635Y-63940000D01*
X176714635Y-65440000D01*
X176744409Y-65598237D01*
X176837927Y-65743567D01*
X176980619Y-65841064D01*
X177150000Y-65875365D01*
X178450000Y-65875365D01*
X178608237Y-65845591D01*
X178753567Y-65752073D01*
X178851064Y-65609381D01*
X178885365Y-65440000D01*
X178885365Y-63940000D01*
X178855591Y-63781763D01*
X178762073Y-63636433D01*
X178623865Y-63542000D01*
X178789578Y-63542000D01*
X179151202Y-63903624D01*
X179150794Y-64370469D01*
X179331427Y-64807635D01*
X179665606Y-65142397D01*
X180102456Y-65323793D01*
X180575469Y-65324206D01*
X181012635Y-65143573D01*
X181347397Y-64809394D01*
X181528793Y-64372544D01*
X181529206Y-63899531D01*
X181348573Y-63462365D01*
X181014394Y-63127603D01*
X180577544Y-62946207D01*
X180108219Y-62945797D01*
X179835269Y-62672847D01*
X180102456Y-62783793D01*
X180575469Y-62784206D01*
X181012635Y-62603573D01*
X181347397Y-62269394D01*
X181528793Y-61832544D01*
X181529206Y-61359531D01*
X181381477Y-61002000D01*
X181568000Y-61002000D01*
X181568000Y-66040000D01*
X181619534Y-66299077D01*
X181644495Y-66336433D01*
X181766289Y-66518711D01*
X182001926Y-66754348D01*
X181926433Y-66802927D01*
X181828936Y-66945619D01*
X181794635Y-67115000D01*
X181794635Y-68615000D01*
X181824409Y-68773237D01*
X181917927Y-68918567D01*
X182060619Y-69016064D01*
X182230000Y-69050365D01*
X183530000Y-69050365D01*
X183688237Y-69020591D01*
X183833567Y-68927073D01*
X183931064Y-68784381D01*
X183965365Y-68615000D01*
X183965365Y-67115000D01*
X183935591Y-66956763D01*
X183842073Y-66811433D01*
X183699381Y-66713936D01*
X183557000Y-66685103D01*
X183557000Y-66675000D01*
X183525912Y-66518711D01*
X183505467Y-66415924D01*
X183358712Y-66196289D01*
X182922000Y-65759578D01*
X182922000Y-65400365D01*
X183742943Y-65400365D01*
X184108000Y-65765422D01*
X184108000Y-72744578D01*
X182599578Y-74253000D01*
X180975000Y-74253000D01*
X180715924Y-74304533D01*
X180496289Y-74451288D01*
X179861289Y-75086289D01*
X179714534Y-75305923D01*
X179663000Y-75565000D01*
X179663000Y-76434950D01*
X178951890Y-76434950D01*
X178793140Y-76593700D01*
X178793140Y-77343000D01*
X178813140Y-77343000D01*
X178813140Y-77597000D01*
X178793140Y-77597000D01*
X178793140Y-78346300D01*
X178951890Y-78505050D01*
X179617528Y-78505050D01*
X179262993Y-78859585D01*
X177938430Y-78859585D01*
X177780193Y-78889359D01*
X177634863Y-78982877D01*
X177537366Y-79125569D01*
X177503065Y-79294950D01*
X177503065Y-80095050D01*
X177532839Y-80253287D01*
X177626357Y-80398617D01*
X177769049Y-80496114D01*
X177938430Y-80530415D01*
X179739290Y-80530415D01*
X179897527Y-80500641D01*
X180042857Y-80407123D01*
X180140354Y-80264431D01*
X180169877Y-80118641D01*
X180305710Y-80118641D01*
X180305710Y-80359250D01*
X180464460Y-80518000D01*
X181714140Y-80518000D01*
X181714140Y-79768700D01*
X181555390Y-79609950D01*
X180814400Y-79609950D01*
X180581011Y-79706623D01*
X180402383Y-79885252D01*
X180305710Y-80118641D01*
X180169877Y-80118641D01*
X180174655Y-80095050D01*
X180174655Y-79862767D01*
X180818711Y-79218711D01*
X180856895Y-79161564D01*
X180944049Y-79221114D01*
X181113430Y-79255415D01*
X182437993Y-79255415D01*
X182792528Y-79609950D01*
X182126890Y-79609950D01*
X181968140Y-79768700D01*
X181968140Y-80518000D01*
X183217820Y-80518000D01*
X183376570Y-80359250D01*
X183376570Y-80193992D01*
X184108000Y-80925422D01*
X184108000Y-85444578D01*
X183036289Y-86516289D01*
X182889534Y-86735923D01*
X182838000Y-86995000D01*
X182838000Y-91794577D01*
X181837578Y-92795000D01*
X175946292Y-92795000D01*
X175961064Y-92773381D01*
X175995365Y-92604000D01*
X175995365Y-91104000D01*
X175965591Y-90945763D01*
X175872073Y-90800433D01*
X175729381Y-90702936D01*
X175560000Y-90668635D01*
X174960000Y-90668635D01*
X174801763Y-90698409D01*
X174656433Y-90791927D01*
X174625619Y-90837025D01*
X174602073Y-90800433D01*
X174459381Y-90702936D01*
X174290000Y-90668635D01*
X173690000Y-90668635D01*
X173531763Y-90698409D01*
X173386433Y-90791927D01*
X173355619Y-90837025D01*
X173332073Y-90800433D01*
X173221957Y-90725194D01*
X173251414Y-90695789D01*
X173392839Y-90355201D01*
X173393161Y-89986417D01*
X173252331Y-89645583D01*
X173183868Y-89577000D01*
X180186578Y-89577000D01*
X180428973Y-89819395D01*
X180428839Y-89972583D01*
X180569669Y-90313417D01*
X180830211Y-90574414D01*
X181170799Y-90715839D01*
X181539583Y-90716161D01*
X181880417Y-90575331D01*
X182141414Y-90314789D01*
X182282839Y-89974201D01*
X182283161Y-89605417D01*
X182142331Y-89264583D01*
X181881789Y-89003586D01*
X181541201Y-88862161D01*
X181386448Y-88862026D01*
X180945711Y-88421289D01*
X180875254Y-88374211D01*
X180726077Y-88274534D01*
X180467000Y-88223000D01*
X169164000Y-88223000D01*
X168904923Y-88274534D01*
X168835789Y-88320728D01*
X168685288Y-88421289D01*
X167161289Y-89945289D01*
X167014534Y-90164923D01*
X166963000Y-90424000D01*
X166963000Y-90787401D01*
X166839381Y-90702936D01*
X166670000Y-90668635D01*
X166070000Y-90668635D01*
X165911763Y-90698409D01*
X165766433Y-90791927D01*
X165668936Y-90934619D01*
X165634635Y-91104000D01*
X165634635Y-92604000D01*
X165664409Y-92762237D01*
X165757927Y-92907567D01*
X165900619Y-93005064D01*
X166070000Y-93039365D01*
X166670000Y-93039365D01*
X166828237Y-93009591D01*
X166963000Y-92922873D01*
X166963000Y-94700000D01*
X162025029Y-94700000D01*
X161729201Y-94577161D01*
X161360417Y-94576839D01*
X161019583Y-94717669D01*
X160758586Y-94978211D01*
X160617161Y-95318799D01*
X160616839Y-95687583D01*
X160757669Y-96028417D01*
X161018211Y-96289414D01*
X161358799Y-96430839D01*
X161727583Y-96431161D01*
X162068417Y-96290331D01*
X162305161Y-96054000D01*
X167640000Y-96054000D01*
X167899077Y-96002466D01*
X168118711Y-95855711D01*
X168233000Y-95684666D01*
X168233000Y-99541577D01*
X167105578Y-100669000D01*
X152974236Y-100669000D01*
X152932331Y-100567583D01*
X152671789Y-100306586D01*
X152331201Y-100165161D01*
X151962417Y-100164839D01*
X151621583Y-100305669D01*
X151360586Y-100566211D01*
X151219161Y-100906799D01*
X151218839Y-101275583D01*
X151359669Y-101616417D01*
X151620211Y-101877414D01*
X151960799Y-102018839D01*
X152329583Y-102019161D01*
X152346194Y-102012297D01*
X152400000Y-102023000D01*
X153061024Y-102023000D01*
X152997161Y-102176799D01*
X152996839Y-102545583D01*
X153137669Y-102886417D01*
X153398211Y-103147414D01*
X153738799Y-103288839D01*
X154107583Y-103289161D01*
X154448417Y-103148331D01*
X154557939Y-103039000D01*
X170688000Y-103039000D01*
X170947077Y-102987466D01*
X171166711Y-102840711D01*
X173198711Y-100808711D01*
X173302888Y-100652799D01*
X173345466Y-100589077D01*
X173397000Y-100330000D01*
X173397000Y-98826000D01*
X176368635Y-98826000D01*
X176368635Y-101326000D01*
X176398409Y-101484237D01*
X176491927Y-101629567D01*
X176634619Y-101727064D01*
X176804000Y-101761365D01*
X179304000Y-101761365D01*
X179462237Y-101731591D01*
X179607567Y-101638073D01*
X179705064Y-101495381D01*
X179710255Y-101469745D01*
X179719736Y-101495387D01*
X180329461Y-101721908D01*
X180979460Y-101697856D01*
X181468264Y-101495387D01*
X181566927Y-101228532D01*
X180594000Y-100255605D01*
X180579858Y-100269748D01*
X180400253Y-100090143D01*
X180414395Y-100076000D01*
X180773605Y-100076000D01*
X181746532Y-101048927D01*
X181996608Y-100956468D01*
X182324614Y-101285047D01*
X182848907Y-101502752D01*
X183416603Y-101503248D01*
X183941275Y-101286457D01*
X184343047Y-100885386D01*
X184560752Y-100361093D01*
X184561248Y-99793397D01*
X184344457Y-99268725D01*
X183943386Y-98866953D01*
X183419093Y-98649248D01*
X182851397Y-98648752D01*
X182326725Y-98865543D01*
X181996280Y-99195411D01*
X181746532Y-99103073D01*
X180773605Y-100076000D01*
X180414395Y-100076000D01*
X180400253Y-100061858D01*
X180579858Y-99882253D01*
X180594000Y-99896395D01*
X181566927Y-98923468D01*
X181468264Y-98656613D01*
X180858539Y-98430092D01*
X180208540Y-98454144D01*
X179719736Y-98656613D01*
X179711622Y-98678558D01*
X179709591Y-98667763D01*
X179616073Y-98522433D01*
X179473381Y-98424936D01*
X179304000Y-98390635D01*
X176804000Y-98390635D01*
X176645763Y-98420409D01*
X176500433Y-98513927D01*
X176402936Y-98656619D01*
X176368635Y-98826000D01*
X173397000Y-98826000D01*
X173397000Y-93017666D01*
X173411499Y-93039365D01*
X173511289Y-93188711D01*
X174273289Y-93950711D01*
X174492924Y-94097467D01*
X174752000Y-94149000D01*
X181653914Y-94149000D01*
X181586586Y-94216211D01*
X181445161Y-94556799D01*
X181444839Y-94925583D01*
X181585669Y-95266417D01*
X181846211Y-95527414D01*
X182186799Y-95668839D01*
X182555583Y-95669161D01*
X182896417Y-95528331D01*
X183157414Y-95267789D01*
X183298839Y-94927201D01*
X183299161Y-94558417D01*
X183158331Y-94217583D01*
X182897789Y-93956586D01*
X182680898Y-93866524D01*
X183993711Y-92553712D01*
X184074186Y-92433272D01*
X184140466Y-92334077D01*
X184192000Y-92075000D01*
X184192000Y-87275422D01*
X185263711Y-86203711D01*
X185339969Y-86089583D01*
X185410466Y-85984077D01*
X185462000Y-85725000D01*
X185462000Y-80645000D01*
X185410466Y-80385923D01*
X185263711Y-80166289D01*
X183349655Y-78252233D01*
X183349655Y-78019950D01*
X183319881Y-77861713D01*
X183251696Y-77755750D01*
X183480710Y-77755750D01*
X183480710Y-77996359D01*
X183577383Y-78229748D01*
X183756011Y-78408377D01*
X183989400Y-78505050D01*
X184730390Y-78505050D01*
X184889140Y-78346300D01*
X184889140Y-77597000D01*
X185143140Y-77597000D01*
X185143140Y-78346300D01*
X185301890Y-78505050D01*
X186042880Y-78505050D01*
X186276269Y-78408377D01*
X186454897Y-78229748D01*
X186551570Y-77996359D01*
X186551570Y-77755750D01*
X186392820Y-77597000D01*
X185143140Y-77597000D01*
X184889140Y-77597000D01*
X183639460Y-77597000D01*
X183480710Y-77755750D01*
X183251696Y-77755750D01*
X183226363Y-77716383D01*
X183083671Y-77618886D01*
X182914290Y-77584585D01*
X181113430Y-77584585D01*
X181017000Y-77602729D01*
X181017000Y-77335887D01*
X181113430Y-77355415D01*
X182914290Y-77355415D01*
X183072527Y-77325641D01*
X183217857Y-77232123D01*
X183249225Y-77186214D01*
X183454077Y-77145466D01*
X183480710Y-77127670D01*
X183480710Y-77184250D01*
X183639460Y-77343000D01*
X184889140Y-77343000D01*
X184889140Y-76593700D01*
X185143140Y-76593700D01*
X185143140Y-77343000D01*
X186392820Y-77343000D01*
X186551570Y-77184250D01*
X186551570Y-76943641D01*
X186454897Y-76710252D01*
X186276269Y-76531623D01*
X186042880Y-76434950D01*
X185301890Y-76434950D01*
X185143140Y-76593700D01*
X184889140Y-76593700D01*
X184730390Y-76434950D01*
X184237472Y-76434950D01*
X186533711Y-74138711D01*
X186680467Y-73919076D01*
X186732000Y-73660000D01*
X186732000Y-59770000D01*
X186723573Y-59727635D01*
X186680467Y-59510924D01*
X186533712Y-59291289D01*
X186505365Y-59262942D01*
X186505365Y-58385000D01*
X186475591Y-58226763D01*
X186382073Y-58081433D01*
X186239381Y-57983936D01*
X186070000Y-57949635D01*
X184770000Y-57949635D01*
X184611763Y-57979409D01*
X184466433Y-58072927D01*
X184368936Y-58215619D01*
X184334635Y-58385000D01*
X184334635Y-59885000D01*
X184364409Y-60043237D01*
X184457927Y-60188567D01*
X184600619Y-60286064D01*
X184770000Y-60320365D01*
X185378000Y-60320365D01*
X185378000Y-65177334D01*
X185263711Y-65006289D01*
X184600365Y-64342943D01*
X184600365Y-63465000D01*
X184570591Y-63306763D01*
X184477073Y-63161433D01*
X184334381Y-63063936D01*
X184165000Y-63029635D01*
X182922000Y-63029635D01*
X182922000Y-62700365D01*
X184165000Y-62700365D01*
X184323237Y-62670591D01*
X184468567Y-62577073D01*
X184566064Y-62434381D01*
X184600365Y-62265000D01*
X184600365Y-60765000D01*
X184570591Y-60606763D01*
X184477073Y-60461433D01*
X184334381Y-60363936D01*
X184192000Y-60335103D01*
X184192000Y-59690000D01*
X184160912Y-59533711D01*
X184140467Y-59430924D01*
X183993712Y-59211289D01*
X183358711Y-58576289D01*
X183258805Y-58509534D01*
X183139077Y-58429534D01*
X182880000Y-58378000D01*
X181344216Y-58378000D01*
X181014394Y-58047603D01*
X180577544Y-57866207D01*
X180108219Y-57865797D01*
X179835269Y-57592847D01*
X180102456Y-57703793D01*
X180575469Y-57704206D01*
X181012635Y-57523573D01*
X181344786Y-57192000D01*
X184335952Y-57192000D01*
X184364409Y-57343237D01*
X184457927Y-57488567D01*
X184600619Y-57586064D01*
X184770000Y-57620365D01*
X186070000Y-57620365D01*
X186228237Y-57590591D01*
X186373567Y-57497073D01*
X186471064Y-57354381D01*
X186505365Y-57185000D01*
X186505365Y-55685000D01*
X186475591Y-55526763D01*
X186382073Y-55381433D01*
X186239381Y-55283936D01*
X186070000Y-55249635D01*
X184770000Y-55249635D01*
X184611763Y-55279409D01*
X184466433Y-55372927D01*
X184368936Y-55515619D01*
X184334635Y-55685000D01*
X184334635Y-55794727D01*
X184150000Y-55758000D01*
X183890924Y-55809534D01*
X183848321Y-55838000D01*
X181344216Y-55838000D01*
X181014394Y-55507603D01*
X180577544Y-55326207D01*
X180108220Y-55325797D01*
X178278711Y-53496289D01*
X178059077Y-53349534D01*
X177800000Y-53298000D01*
X131445000Y-53298000D01*
X131185923Y-53349534D01*
X130966289Y-53496289D01*
X129061289Y-55401289D01*
X129038204Y-55435838D01*
X128867365Y-55506427D01*
X128532603Y-55840606D01*
X128351207Y-56277456D01*
X128350794Y-56750469D01*
X128531427Y-57187635D01*
X128865606Y-57522397D01*
X129302456Y-57703793D01*
X129775469Y-57704206D01*
X130212635Y-57523573D01*
X130547397Y-57189394D01*
X130728793Y-56752544D01*
X130729206Y-56279531D01*
X130548573Y-55842365D01*
X130541821Y-55835601D01*
X131725422Y-54652000D01*
X141563000Y-54652000D01*
X141563000Y-55510784D01*
X141232603Y-55840606D01*
X141051207Y-56277456D01*
X141050794Y-56750469D01*
X141198523Y-57108000D01*
X135661195Y-57108000D01*
X135808793Y-56752544D01*
X135809206Y-56279531D01*
X135628573Y-55842365D01*
X135294394Y-55507603D01*
X134857544Y-55326207D01*
X134384531Y-55325794D01*
X133947365Y-55506427D01*
X133612603Y-55840606D01*
X133431207Y-56277456D01*
X133430794Y-56750469D01*
X133578523Y-57108000D01*
X131445000Y-57108000D01*
X131185923Y-57159534D01*
X130966289Y-57306289D01*
X130219680Y-58052898D01*
X130214394Y-58047603D01*
X129777544Y-57866207D01*
X129304531Y-57865794D01*
X128867365Y-58046427D01*
X128532603Y-58380606D01*
X128351207Y-58817456D01*
X128350794Y-59290469D01*
X128498523Y-59648000D01*
X123470422Y-59648000D01*
X123108798Y-59286376D01*
X123109206Y-58819531D01*
X122928573Y-58382365D01*
X122594394Y-58047603D01*
X122157544Y-57866207D01*
X121684531Y-57865794D01*
X121247365Y-58046427D01*
X120912603Y-58380606D01*
X120731207Y-58817456D01*
X120730794Y-59290469D01*
X117281960Y-59290469D01*
X117281960Y-56750469D01*
X120730794Y-56750469D01*
X120911427Y-57187635D01*
X121245606Y-57522397D01*
X121682456Y-57703793D01*
X122155469Y-57704206D01*
X122592635Y-57523573D01*
X122927397Y-57189394D01*
X123108793Y-56752544D01*
X123109206Y-56279531D01*
X122928573Y-55842365D01*
X122594394Y-55507603D01*
X122157544Y-55326207D01*
X121684531Y-55325794D01*
X121247365Y-55506427D01*
X120912603Y-55840606D01*
X120731207Y-56277456D01*
X120730794Y-56750469D01*
X117281960Y-56750469D01*
X117281960Y-52680061D01*
X187258500Y-52933599D01*
X187258500Y-52933599D01*
G37*
X187258500Y-52933599D02*
X187258960Y-52933600D01*
X188401960Y-52933600D01*
X188401960Y-140817147D01*
X117281960Y-140564051D01*
X117281960Y-135434000D01*
X170494635Y-135434000D01*
X170494635Y-137934000D01*
X170524409Y-138092237D01*
X170617927Y-138237567D01*
X170760619Y-138335064D01*
X170930000Y-138369365D01*
X173430000Y-138369365D01*
X173588237Y-138339591D01*
X173733567Y-138246073D01*
X173831064Y-138103381D01*
X173865365Y-137934000D01*
X173865365Y-135434000D01*
X183494635Y-135434000D01*
X183494635Y-137934000D01*
X183524409Y-138092237D01*
X183617927Y-138237567D01*
X183760619Y-138335064D01*
X183930000Y-138369365D01*
X186430000Y-138369365D01*
X186588237Y-138339591D01*
X186733567Y-138246073D01*
X186831064Y-138103381D01*
X186865365Y-137934000D01*
X186865365Y-135434000D01*
X186835591Y-135275763D01*
X186742073Y-135130433D01*
X186599381Y-135032936D01*
X186430000Y-134998635D01*
X183930000Y-134998635D01*
X183771763Y-135028409D01*
X183626433Y-135121927D01*
X183528936Y-135264619D01*
X183494635Y-135434000D01*
X173865365Y-135434000D01*
X173835591Y-135275763D01*
X173742073Y-135130433D01*
X173599381Y-135032936D01*
X173430000Y-134998635D01*
X170930000Y-134998635D01*
X170771763Y-135028409D01*
X170626433Y-135121927D01*
X170528936Y-135264619D01*
X170494635Y-135434000D01*
X117281960Y-135434000D01*
X117281960Y-129825750D01*
X163615000Y-129825750D01*
X163615000Y-130516309D01*
X163711673Y-130749698D01*
X163890301Y-130928327D01*
X164123690Y-131025000D01*
X164814250Y-131025000D01*
X164973000Y-130866250D01*
X164973000Y-129667000D01*
X163773750Y-129667000D01*
X163615000Y-129825750D01*
X117281960Y-129825750D01*
X117281960Y-128563691D01*
X163615000Y-128563691D01*
X163615000Y-129254250D01*
X163773750Y-129413000D01*
X164973000Y-129413000D01*
X164973000Y-128213750D01*
X165227000Y-128213750D01*
X165227000Y-129413000D01*
X165247000Y-129413000D01*
X165247000Y-129667000D01*
X165227000Y-129667000D01*
X165227000Y-130866250D01*
X165385750Y-131025000D01*
X166076310Y-131025000D01*
X166309699Y-130928327D01*
X166488327Y-130749698D01*
X166516944Y-130680610D01*
X166844875Y-130816778D01*
X167352897Y-130817221D01*
X167822417Y-130623219D01*
X168181957Y-130264307D01*
X168376778Y-129795125D01*
X168377221Y-129287103D01*
X168183219Y-128817583D01*
X167824307Y-128458043D01*
X167355125Y-128263222D01*
X166847103Y-128262779D01*
X166516876Y-128399226D01*
X166488327Y-128330302D01*
X166309699Y-128151673D01*
X166076310Y-128055000D01*
X165385750Y-128055000D01*
X165227000Y-128213750D01*
X164973000Y-128213750D01*
X164814250Y-128055000D01*
X164123690Y-128055000D01*
X163890301Y-128151673D01*
X163711673Y-128330302D01*
X163615000Y-128563691D01*
X117281960Y-128563691D01*
X117281960Y-117872000D01*
X119468635Y-117872000D01*
X119468635Y-119872000D01*
X119498409Y-120030237D01*
X119591927Y-120175567D01*
X119734619Y-120273064D01*
X119904000Y-120307365D01*
X121904000Y-120307365D01*
X122062237Y-120277591D01*
X122207567Y-120184073D01*
X122305064Y-120041381D01*
X122339365Y-119872000D01*
X122339365Y-117872000D01*
X122309591Y-117713763D01*
X122216073Y-117568433D01*
X122073381Y-117470936D01*
X121904000Y-117436635D01*
X121817282Y-117436635D01*
X122113047Y-117141386D01*
X122330752Y-116617093D01*
X122331248Y-116049397D01*
X122114457Y-115524725D01*
X121713386Y-115122953D01*
X121566882Y-115062119D01*
X121711275Y-115002457D01*
X122113047Y-114601386D01*
X122330752Y-114077093D01*
X122331062Y-113721583D01*
X153758839Y-113721583D01*
X153899669Y-114062417D01*
X154160211Y-114323414D01*
X154500799Y-114464839D01*
X154869583Y-114465161D01*
X155210417Y-114324331D01*
X155471414Y-114063789D01*
X155514096Y-113961000D01*
X160147986Y-113961000D01*
X160256211Y-114069414D01*
X160596799Y-114210839D01*
X160965583Y-114211161D01*
X161306417Y-114070331D01*
X161567414Y-113809789D01*
X161708839Y-113469201D01*
X161709161Y-113100417D01*
X161600733Y-112838000D01*
X162500635Y-112838000D01*
X162500635Y-115838000D01*
X162530409Y-115996237D01*
X162623927Y-116141567D01*
X162766619Y-116239064D01*
X162936000Y-116273365D01*
X168936000Y-116273365D01*
X169094237Y-116243591D01*
X169239567Y-116150073D01*
X169337064Y-116007381D01*
X169371365Y-115838000D01*
X169371365Y-115265000D01*
X169380000Y-115265000D01*
X169734748Y-115194436D01*
X170035488Y-114993488D01*
X171089488Y-113939488D01*
X171177067Y-113808417D01*
X171290436Y-113638748D01*
X171328726Y-113446250D01*
X172340976Y-112434000D01*
X173494635Y-112434000D01*
X173494635Y-114934000D01*
X173524409Y-115092237D01*
X173617927Y-115237567D01*
X173760619Y-115335064D01*
X173930000Y-115369365D01*
X176430000Y-115369365D01*
X176588237Y-115339591D01*
X176733567Y-115246073D01*
X176831064Y-115103381D01*
X176865365Y-114934000D01*
X176865365Y-114611000D01*
X176892000Y-114611000D01*
X177246748Y-114540436D01*
X177547488Y-114339488D01*
X177917226Y-113969750D01*
X180295000Y-113969750D01*
X180295000Y-115060309D01*
X180391673Y-115293698D01*
X180570301Y-115472327D01*
X180803690Y-115569000D01*
X181894250Y-115569000D01*
X182053000Y-115410250D01*
X182053000Y-113811000D01*
X182307000Y-113811000D01*
X182307000Y-115410250D01*
X182465750Y-115569000D01*
X183556310Y-115569000D01*
X183789699Y-115472327D01*
X183968327Y-115293698D01*
X184065000Y-115060309D01*
X184065000Y-113969750D01*
X183906250Y-113811000D01*
X182307000Y-113811000D01*
X182053000Y-113811000D01*
X180453750Y-113811000D01*
X180295000Y-113969750D01*
X177917226Y-113969750D01*
X179579285Y-112307691D01*
X180295000Y-112307691D01*
X180295000Y-113398250D01*
X180453750Y-113557000D01*
X182053000Y-113557000D01*
X182053000Y-111957750D01*
X182307000Y-111957750D01*
X182307000Y-113557000D01*
X183906250Y-113557000D01*
X184065000Y-113398250D01*
X184065000Y-112307691D01*
X183968327Y-112074302D01*
X183789699Y-111895673D01*
X183556310Y-111799000D01*
X182465750Y-111799000D01*
X182307000Y-111957750D01*
X182053000Y-111957750D01*
X181894250Y-111799000D01*
X180803690Y-111799000D01*
X180570301Y-111895673D01*
X180391673Y-112074302D01*
X180295000Y-112307691D01*
X179579285Y-112307691D01*
X181503488Y-110383488D01*
X181704437Y-110082747D01*
X181746700Y-109870276D01*
X183715869Y-107901107D01*
X183829469Y-107901206D01*
X184266635Y-107720573D01*
X184601397Y-107386394D01*
X184782793Y-106949544D01*
X184783206Y-106476531D01*
X184602573Y-106039365D01*
X184268394Y-105704603D01*
X183831544Y-105523207D01*
X183358531Y-105522794D01*
X182921365Y-105703427D01*
X182586603Y-106037606D01*
X182405207Y-106474456D01*
X182405106Y-106589918D01*
X180192512Y-108802512D01*
X179991564Y-109103252D01*
X179949301Y-109315723D01*
X176859927Y-112405097D01*
X176835591Y-112275763D01*
X176742073Y-112130433D01*
X176599381Y-112032936D01*
X176430000Y-111998635D01*
X173930000Y-111998635D01*
X173771763Y-112028409D01*
X173626433Y-112121927D01*
X173528936Y-112264619D01*
X173494635Y-112434000D01*
X172340976Y-112434000D01*
X174373976Y-110401000D01*
X177800000Y-110401000D01*
X178154748Y-110330436D01*
X178455488Y-110129488D01*
X180683897Y-107901079D01*
X180829469Y-107901206D01*
X181266635Y-107720573D01*
X181601397Y-107386394D01*
X181782793Y-106949544D01*
X181783206Y-106476531D01*
X181602573Y-106039365D01*
X181268394Y-105704603D01*
X180831544Y-105523207D01*
X180358531Y-105522794D01*
X179921365Y-105703427D01*
X179586603Y-106037606D01*
X179405207Y-106474456D01*
X179405134Y-106557890D01*
X178618984Y-107344040D01*
X178782793Y-106949544D01*
X178783206Y-106476531D01*
X178602573Y-106039365D01*
X178268394Y-105704603D01*
X177831544Y-105523207D01*
X177358531Y-105522794D01*
X176921365Y-105703427D01*
X176586603Y-106037606D01*
X176405207Y-106474456D01*
X176404794Y-106947469D01*
X176585427Y-107384635D01*
X176919606Y-107719397D01*
X177356456Y-107900793D01*
X177829469Y-107901206D01*
X178225422Y-107737602D01*
X177416024Y-108547000D01*
X173990000Y-108547000D01*
X173635252Y-108617564D01*
X173493919Y-108712000D01*
X173334512Y-108818512D01*
X169778512Y-112374512D01*
X169577564Y-112675252D01*
X169539274Y-112867750D01*
X169371365Y-113035659D01*
X169371365Y-112838000D01*
X169341591Y-112679763D01*
X169248073Y-112534433D01*
X169105381Y-112436936D01*
X168936000Y-112402635D01*
X162936000Y-112402635D01*
X162777763Y-112432409D01*
X162632433Y-112525927D01*
X162534936Y-112668619D01*
X162500635Y-112838000D01*
X161600733Y-112838000D01*
X161568331Y-112759583D01*
X161307789Y-112498586D01*
X160967201Y-112357161D01*
X160598417Y-112356839D01*
X160257583Y-112497669D01*
X160148061Y-112607000D01*
X156079587Y-112607000D01*
X156226417Y-112546331D01*
X156487414Y-112285789D01*
X156628839Y-111945201D01*
X156628853Y-111929000D01*
X160147986Y-111929000D01*
X160256211Y-112037414D01*
X160596799Y-112178839D01*
X160965583Y-112179161D01*
X161306417Y-112038331D01*
X161567414Y-111777789D01*
X161708839Y-111437201D01*
X161709161Y-111068417D01*
X161568331Y-110727583D01*
X161307789Y-110466586D01*
X160967201Y-110325161D01*
X160598417Y-110324839D01*
X160257583Y-110465669D01*
X160148061Y-110575000D01*
X156210000Y-110575000D01*
X155950923Y-110626534D01*
X155908321Y-110655000D01*
X155731288Y-110773289D01*
X155671604Y-110832973D01*
X155518417Y-110832839D01*
X155177583Y-110973669D01*
X154916586Y-111234211D01*
X154775161Y-111574799D01*
X154774839Y-111943583D01*
X154915669Y-112284417D01*
X155176211Y-112545414D01*
X155324526Y-112607000D01*
X154940000Y-112607000D01*
X154886709Y-112617600D01*
X154871201Y-112611161D01*
X154502417Y-112610839D01*
X154161583Y-112751669D01*
X153900586Y-113012211D01*
X153759161Y-113352799D01*
X153758839Y-113721583D01*
X122331062Y-113721583D01*
X122331248Y-113509397D01*
X122114457Y-112984725D01*
X121713386Y-112582953D01*
X121566882Y-112522119D01*
X121711275Y-112462457D01*
X122113047Y-112061386D01*
X122330752Y-111537093D01*
X122331248Y-110969397D01*
X122114457Y-110444725D01*
X121784589Y-110114280D01*
X121876927Y-109864532D01*
X120904000Y-108891605D01*
X119931073Y-109864532D01*
X120023532Y-110114608D01*
X119694953Y-110442614D01*
X119477248Y-110966907D01*
X119476752Y-111534603D01*
X119693543Y-112059275D01*
X120094614Y-112461047D01*
X120241118Y-112521881D01*
X120096725Y-112581543D01*
X119694953Y-112982614D01*
X119477248Y-113506907D01*
X119476752Y-114074603D01*
X119693543Y-114599275D01*
X120094614Y-115001047D01*
X120241118Y-115061881D01*
X120096725Y-115121543D01*
X119694953Y-115522614D01*
X119477248Y-116046907D01*
X119476752Y-116614603D01*
X119693543Y-117139275D01*
X119990384Y-117436635D01*
X119904000Y-117436635D01*
X119745763Y-117466409D01*
X119600433Y-117559927D01*
X119502936Y-117702619D01*
X119468635Y-117872000D01*
X117281960Y-117872000D01*
X117281960Y-108447461D01*
X119258092Y-108447461D01*
X119282144Y-109097460D01*
X119484613Y-109586264D01*
X119751468Y-109684927D01*
X120724395Y-108712000D01*
X121083605Y-108712000D01*
X122056532Y-109684927D01*
X122323387Y-109586264D01*
X122549908Y-108976539D01*
X122529981Y-108438000D01*
X162500635Y-108438000D01*
X162500635Y-111438000D01*
X162530409Y-111596237D01*
X162623927Y-111741567D01*
X162766619Y-111839064D01*
X162936000Y-111873365D01*
X168936000Y-111873365D01*
X169094237Y-111843591D01*
X169239567Y-111750073D01*
X169337064Y-111607381D01*
X169371365Y-111438000D01*
X169371365Y-108438000D01*
X169341591Y-108279763D01*
X169248073Y-108134433D01*
X169105381Y-108036936D01*
X168936000Y-108002635D01*
X162936000Y-108002635D01*
X162777763Y-108032409D01*
X162632433Y-108125927D01*
X162534936Y-108268619D01*
X162500635Y-108438000D01*
X122529981Y-108438000D01*
X122525856Y-108326540D01*
X122323387Y-107837736D01*
X122056532Y-107739073D01*
X121083605Y-108712000D01*
X120724395Y-108712000D01*
X119751468Y-107739073D01*
X119484613Y-107837736D01*
X119258092Y-108447461D01*
X117281960Y-108447461D01*
X117281960Y-106454603D01*
X119476752Y-106454603D01*
X119693543Y-106979275D01*
X120023411Y-107309720D01*
X119931073Y-107559468D01*
X120904000Y-108532395D01*
X121876927Y-107559468D01*
X121784468Y-107309392D01*
X122113047Y-106981386D01*
X122330752Y-106457093D01*
X122331248Y-105889397D01*
X122262804Y-105723750D01*
X162301000Y-105723750D01*
X162301000Y-107064309D01*
X162397673Y-107297698D01*
X162576301Y-107476327D01*
X162809690Y-107573000D01*
X165650250Y-107573000D01*
X165809000Y-107414250D01*
X165809000Y-105565000D01*
X166063000Y-105565000D01*
X166063000Y-107414250D01*
X166221750Y-107573000D01*
X169062310Y-107573000D01*
X169295699Y-107476327D01*
X169474327Y-107297698D01*
X169571000Y-107064309D01*
X169571000Y-105723750D01*
X169412250Y-105565000D01*
X166063000Y-105565000D01*
X165809000Y-105565000D01*
X162459750Y-105565000D01*
X162301000Y-105723750D01*
X122262804Y-105723750D01*
X122114457Y-105364725D01*
X121713386Y-104962953D01*
X121189093Y-104745248D01*
X120621397Y-104744752D01*
X120096725Y-104961543D01*
X119694953Y-105362614D01*
X119477248Y-105886907D01*
X119476752Y-106454603D01*
X117281960Y-106454603D01*
X117281960Y-103811691D01*
X162301000Y-103811691D01*
X162301000Y-105152250D01*
X162459750Y-105311000D01*
X165809000Y-105311000D01*
X165809000Y-103461750D01*
X166063000Y-103461750D01*
X166063000Y-105311000D01*
X169412250Y-105311000D01*
X169571000Y-105152250D01*
X169571000Y-103811691D01*
X169474327Y-103578302D01*
X169295699Y-103399673D01*
X169062310Y-103303000D01*
X166221750Y-103303000D01*
X166063000Y-103461750D01*
X165809000Y-103461750D01*
X165650250Y-103303000D01*
X162809690Y-103303000D01*
X162576301Y-103399673D01*
X162397673Y-103578302D01*
X162301000Y-103811691D01*
X117281960Y-103811691D01*
X117281960Y-96957583D01*
X136994839Y-96957583D01*
X137135669Y-97298417D01*
X137396211Y-97559414D01*
X137736799Y-97700839D01*
X138105583Y-97701161D01*
X138446417Y-97560331D01*
X138555939Y-97451000D01*
X138911578Y-97451000D01*
X142328973Y-100868395D01*
X142328839Y-101021583D01*
X142469669Y-101362417D01*
X142730211Y-101623414D01*
X143070799Y-101764839D01*
X143439583Y-101765161D01*
X143780417Y-101624331D01*
X144041414Y-101363789D01*
X144182839Y-101023201D01*
X144183062Y-100767583D01*
X147154839Y-100767583D01*
X147295669Y-101108417D01*
X147556211Y-101369414D01*
X147896799Y-101510839D01*
X148265583Y-101511161D01*
X148606417Y-101370331D01*
X148867414Y-101109789D01*
X149008839Y-100769201D01*
X149008974Y-100614448D01*
X150140422Y-99483000D01*
X153035986Y-99483000D01*
X153144211Y-99591414D01*
X153484799Y-99732839D01*
X153853583Y-99733161D01*
X154194417Y-99592331D01*
X154455414Y-99331789D01*
X154596839Y-98991201D01*
X154597161Y-98622417D01*
X154456331Y-98281583D01*
X154195789Y-98020586D01*
X153855201Y-97879161D01*
X153486417Y-97878839D01*
X153145583Y-98019669D01*
X153036061Y-98129000D01*
X149860000Y-98129000D01*
X149600924Y-98180533D01*
X149381289Y-98327289D01*
X148051605Y-99656973D01*
X147898417Y-99656839D01*
X147557583Y-99797669D01*
X147296586Y-100058211D01*
X147155161Y-100398799D01*
X147154839Y-100767583D01*
X144183062Y-100767583D01*
X144183161Y-100654417D01*
X144042331Y-100313583D01*
X143781789Y-100052586D01*
X143441201Y-99911161D01*
X143286448Y-99911026D01*
X139670711Y-96295289D01*
X139600254Y-96248211D01*
X139451077Y-96148534D01*
X139192000Y-96097000D01*
X138556014Y-96097000D01*
X138447789Y-95988586D01*
X138107201Y-95847161D01*
X137738417Y-95846839D01*
X137397583Y-95987669D01*
X137136586Y-96248211D01*
X136995161Y-96588799D01*
X136994839Y-96957583D01*
X117281960Y-96957583D01*
X117281960Y-95433583D01*
X122897839Y-95433583D01*
X123038669Y-95774417D01*
X123299211Y-96035414D01*
X123639799Y-96176839D01*
X124008583Y-96177161D01*
X124349417Y-96036331D01*
X124610414Y-95775789D01*
X124751839Y-95435201D01*
X124752161Y-95066417D01*
X124611331Y-94725583D01*
X124350789Y-94464586D01*
X124010201Y-94323161D01*
X123641417Y-94322839D01*
X123300583Y-94463669D01*
X123039586Y-94724211D01*
X122898161Y-95064799D01*
X122897839Y-95433583D01*
X117281960Y-95433583D01*
X117281960Y-90861583D01*
X129120839Y-90861583D01*
X129261669Y-91202417D01*
X129522211Y-91463414D01*
X129862799Y-91604839D01*
X130231583Y-91605161D01*
X130572417Y-91464331D01*
X130732026Y-91305000D01*
X138000073Y-91305000D01*
X138158211Y-91463414D01*
X138498799Y-91604839D01*
X138867583Y-91605161D01*
X139208417Y-91464331D01*
X139469414Y-91203789D01*
X139610839Y-90863201D01*
X139611161Y-90494417D01*
X139470331Y-90153583D01*
X139209789Y-89892586D01*
X138869201Y-89751161D01*
X138500417Y-89750839D01*
X138159583Y-89891669D01*
X137999974Y-90051000D01*
X130731927Y-90051000D01*
X130573789Y-89892586D01*
X130233201Y-89751161D01*
X129864417Y-89750839D01*
X129523583Y-89891669D01*
X129262586Y-90152211D01*
X129121161Y-90492799D01*
X129120839Y-90861583D01*
X117281960Y-90861583D01*
X117281960Y-86797583D01*
X139788839Y-86797583D01*
X139929669Y-87138417D01*
X140190211Y-87399414D01*
X140530799Y-87540839D01*
X140685552Y-87540974D01*
X141055000Y-87910422D01*
X141055000Y-93091986D01*
X140946586Y-93200211D01*
X140805161Y-93540799D01*
X140804839Y-93909583D01*
X140945669Y-94250417D01*
X141206211Y-94511414D01*
X141546799Y-94652839D01*
X141915583Y-94653161D01*
X142256417Y-94512331D01*
X142517414Y-94251789D01*
X142658839Y-93911201D01*
X142659161Y-93542417D01*
X142518331Y-93201583D01*
X142409000Y-93092061D01*
X142409000Y-90099583D01*
X150202839Y-90099583D01*
X150343669Y-90440417D01*
X150604211Y-90701414D01*
X150944799Y-90842839D01*
X151313583Y-90843161D01*
X151654417Y-90702331D01*
X151754559Y-90602364D01*
X153641161Y-90773873D01*
X154267034Y-91399746D01*
X154266839Y-91623583D01*
X154407669Y-91964417D01*
X154668211Y-92225414D01*
X155008799Y-92366839D01*
X155377583Y-92367161D01*
X155718417Y-92226331D01*
X155979414Y-91965789D01*
X156120839Y-91625201D01*
X156121161Y-91256417D01*
X155980331Y-90915583D01*
X155719789Y-90654586D01*
X155379201Y-90513161D01*
X155153676Y-90512964D01*
X154367356Y-89726644D01*
X154355292Y-89718583D01*
X159727839Y-89718583D01*
X159868669Y-90059417D01*
X160129211Y-90320414D01*
X160275629Y-90381212D01*
X160250586Y-90406211D01*
X160109161Y-90746799D01*
X160108839Y-91115583D01*
X160249669Y-91456417D01*
X160510211Y-91717414D01*
X160850799Y-91858839D01*
X161219583Y-91859161D01*
X161560417Y-91718331D01*
X161669939Y-91609000D01*
X163957986Y-91609000D01*
X164066211Y-91717414D01*
X164406799Y-91858839D01*
X164775583Y-91859161D01*
X165116417Y-91718331D01*
X165377414Y-91457789D01*
X165518839Y-91117201D01*
X165519161Y-90748417D01*
X165378331Y-90407583D01*
X165117789Y-90146586D01*
X164777201Y-90005161D01*
X164408417Y-90004839D01*
X164067583Y-90145669D01*
X163958061Y-90255000D01*
X161670014Y-90255000D01*
X161561789Y-90146586D01*
X161415371Y-90085788D01*
X161440414Y-90060789D01*
X161581839Y-89720201D01*
X161582008Y-89527000D01*
X163781073Y-89527000D01*
X163939211Y-89685414D01*
X164279799Y-89826839D01*
X164648583Y-89827161D01*
X164989417Y-89686331D01*
X165250414Y-89425789D01*
X165391839Y-89085201D01*
X165392161Y-88716417D01*
X165251331Y-88375583D01*
X164990789Y-88114586D01*
X164650201Y-87973161D01*
X164281417Y-87972839D01*
X163940583Y-88113669D01*
X163780974Y-88273000D01*
X161290000Y-88273000D01*
X161050058Y-88320727D01*
X160846644Y-88456644D01*
X160695254Y-88608034D01*
X160471417Y-88607839D01*
X160130583Y-88748669D01*
X159869586Y-89009211D01*
X159728161Y-89349799D01*
X159727839Y-89718583D01*
X154355292Y-89718583D01*
X154288849Y-89674188D01*
X154215403Y-89614830D01*
X154187836Y-89606693D01*
X154163942Y-89590728D01*
X154071334Y-89572307D01*
X153980766Y-89545575D01*
X151879350Y-89354537D01*
X151655789Y-89130586D01*
X151315201Y-88989161D01*
X150946417Y-88988839D01*
X150605583Y-89129669D01*
X150344586Y-89390211D01*
X150203161Y-89730799D01*
X150202839Y-90099583D01*
X142409000Y-90099583D01*
X142409000Y-87630000D01*
X142357466Y-87370923D01*
X142210711Y-87151289D01*
X141799172Y-86739750D01*
X165435000Y-86739750D01*
X165435000Y-87330309D01*
X165531673Y-87563698D01*
X165710301Y-87742327D01*
X165943690Y-87839000D01*
X166084250Y-87839000D01*
X166243000Y-87680250D01*
X166243000Y-86581000D01*
X165593750Y-86581000D01*
X165435000Y-86739750D01*
X141799172Y-86739750D01*
X141643027Y-86583605D01*
X141643161Y-86430417D01*
X141502331Y-86089583D01*
X141241789Y-85828586D01*
X140901201Y-85687161D01*
X140532417Y-85686839D01*
X140191583Y-85827669D01*
X139930586Y-86088211D01*
X139789161Y-86428799D01*
X139788839Y-86797583D01*
X117281960Y-86797583D01*
X117281960Y-78019950D01*
X158453065Y-78019950D01*
X158453065Y-78820050D01*
X158482839Y-78978287D01*
X158576357Y-79123617D01*
X158719049Y-79221114D01*
X158888430Y-79255415D01*
X159111860Y-79255415D01*
X159111860Y-82318860D01*
X159163394Y-82577937D01*
X159241469Y-82694784D01*
X159310149Y-82797571D01*
X161446289Y-84933711D01*
X161665923Y-85080466D01*
X161925000Y-85132000D01*
X165791595Y-85132000D01*
X165710301Y-85165673D01*
X165531673Y-85344302D01*
X165435000Y-85577691D01*
X165435000Y-86168250D01*
X165593750Y-86327000D01*
X166243000Y-86327000D01*
X166243000Y-86307000D01*
X166497000Y-86307000D01*
X166497000Y-86327000D01*
X166517000Y-86327000D01*
X166517000Y-86581000D01*
X166497000Y-86581000D01*
X166497000Y-87680250D01*
X166655750Y-87839000D01*
X166796310Y-87839000D01*
X167029699Y-87742327D01*
X167168446Y-87603579D01*
X167170619Y-87605064D01*
X167340000Y-87639365D01*
X167940000Y-87639365D01*
X168098237Y-87609591D01*
X168243567Y-87516073D01*
X168274381Y-87470975D01*
X168297927Y-87507567D01*
X168440619Y-87605064D01*
X168610000Y-87639365D01*
X169210000Y-87639365D01*
X169368237Y-87609591D01*
X169513567Y-87516073D01*
X169544381Y-87470975D01*
X169567927Y-87507567D01*
X169710619Y-87605064D01*
X169880000Y-87639365D01*
X170480000Y-87639365D01*
X170638237Y-87609591D01*
X170783567Y-87516073D01*
X170814381Y-87470975D01*
X170837927Y-87507567D01*
X170980619Y-87605064D01*
X171150000Y-87639365D01*
X171750000Y-87639365D01*
X171908237Y-87609591D01*
X172053567Y-87516073D01*
X172084381Y-87470975D01*
X172107927Y-87507567D01*
X172250619Y-87605064D01*
X172420000Y-87639365D01*
X173020000Y-87639365D01*
X173178237Y-87609591D01*
X173323567Y-87516073D01*
X173354381Y-87470975D01*
X173377927Y-87507567D01*
X173520619Y-87605064D01*
X173690000Y-87639365D01*
X174290000Y-87639365D01*
X174448237Y-87609591D01*
X174593567Y-87516073D01*
X174624381Y-87470975D01*
X174647927Y-87507567D01*
X174790619Y-87605064D01*
X174960000Y-87639365D01*
X175560000Y-87639365D01*
X175718237Y-87609591D01*
X175863567Y-87516073D01*
X175961064Y-87373381D01*
X175995365Y-87204000D01*
X175995365Y-85704000D01*
X175965591Y-85545763D01*
X175937000Y-85501332D01*
X175937000Y-85454282D01*
X178960868Y-82430415D01*
X179739290Y-82430415D01*
X179897527Y-82400641D01*
X180042857Y-82307123D01*
X180140354Y-82164431D01*
X180174655Y-81995050D01*
X180174655Y-81194950D01*
X180144881Y-81036713D01*
X180076696Y-80930750D01*
X180305710Y-80930750D01*
X180305710Y-81171359D01*
X180402383Y-81404748D01*
X180581011Y-81583377D01*
X180814400Y-81680050D01*
X181555390Y-81680050D01*
X181714140Y-81521300D01*
X181714140Y-80772000D01*
X181968140Y-80772000D01*
X181968140Y-81521300D01*
X182126890Y-81680050D01*
X182867880Y-81680050D01*
X183101269Y-81583377D01*
X183279897Y-81404748D01*
X183376570Y-81171359D01*
X183376570Y-80930750D01*
X183217820Y-80772000D01*
X181968140Y-80772000D01*
X181714140Y-80772000D01*
X180464460Y-80772000D01*
X180305710Y-80930750D01*
X180076696Y-80930750D01*
X180051363Y-80891383D01*
X179908671Y-80793886D01*
X179739290Y-80759585D01*
X177938430Y-80759585D01*
X177780193Y-80789359D01*
X177634863Y-80882877D01*
X177537366Y-81025569D01*
X177503065Y-81194950D01*
X177503065Y-81973372D01*
X174781289Y-84695149D01*
X174667000Y-84866194D01*
X174667000Y-84735422D01*
X176373711Y-83028711D01*
X176442392Y-82925923D01*
X176520466Y-82809077D01*
X176572000Y-82550000D01*
X176572000Y-79253964D01*
X176722527Y-79225641D01*
X176867857Y-79132123D01*
X176965354Y-78989431D01*
X176999655Y-78820050D01*
X176999655Y-78019950D01*
X176969881Y-77861713D01*
X176901696Y-77755750D01*
X177130710Y-77755750D01*
X177130710Y-77996359D01*
X177227383Y-78229748D01*
X177406011Y-78408377D01*
X177639400Y-78505050D01*
X178380390Y-78505050D01*
X178539140Y-78346300D01*
X178539140Y-77597000D01*
X177289460Y-77597000D01*
X177130710Y-77755750D01*
X176901696Y-77755750D01*
X176876363Y-77716383D01*
X176733671Y-77618886D01*
X176564290Y-77584585D01*
X174763430Y-77584585D01*
X174605193Y-77614359D01*
X174459863Y-77707877D01*
X174362366Y-77850569D01*
X174328065Y-78019950D01*
X174328065Y-78820050D01*
X174357839Y-78978287D01*
X174451357Y-79123617D01*
X174594049Y-79221114D01*
X174763430Y-79255415D01*
X175218000Y-79255415D01*
X175218000Y-82269578D01*
X173511289Y-83976289D01*
X173364534Y-84195923D01*
X173313000Y-84455000D01*
X173313000Y-84782334D01*
X173198711Y-84611289D01*
X171260860Y-82673438D01*
X171260860Y-82430415D01*
X171484290Y-82430415D01*
X171642527Y-82400641D01*
X171787857Y-82307123D01*
X171885354Y-82164431D01*
X171919655Y-81995050D01*
X171919655Y-81194950D01*
X171889881Y-81036713D01*
X171821696Y-80930750D01*
X172050710Y-80930750D01*
X172050710Y-81171359D01*
X172147383Y-81404748D01*
X172326011Y-81583377D01*
X172559400Y-81680050D01*
X173300390Y-81680050D01*
X173459140Y-81521300D01*
X173459140Y-80772000D01*
X173713140Y-80772000D01*
X173713140Y-81521300D01*
X173871890Y-81680050D01*
X174612880Y-81680050D01*
X174846269Y-81583377D01*
X175024897Y-81404748D01*
X175121570Y-81171359D01*
X175121570Y-80930750D01*
X174962820Y-80772000D01*
X173713140Y-80772000D01*
X173459140Y-80772000D01*
X172209460Y-80772000D01*
X172050710Y-80930750D01*
X171821696Y-80930750D01*
X171796363Y-80891383D01*
X171653671Y-80793886D01*
X171484290Y-80759585D01*
X169683430Y-80759585D01*
X169525193Y-80789359D01*
X169379863Y-80882877D01*
X169282366Y-81025569D01*
X169248065Y-81194950D01*
X169248065Y-81995050D01*
X169277839Y-82153287D01*
X169371357Y-82298617D01*
X169514049Y-82396114D01*
X169683430Y-82430415D01*
X169906860Y-82430415D01*
X169906860Y-82869486D01*
X168317000Y-81279626D01*
X168317000Y-79253964D01*
X168467527Y-79225641D01*
X168612857Y-79132123D01*
X168710354Y-78989431D01*
X168744655Y-78820050D01*
X168744655Y-78019950D01*
X168714881Y-77861713D01*
X168646696Y-77755750D01*
X168875710Y-77755750D01*
X168875710Y-77996359D01*
X168972383Y-78229748D01*
X169151011Y-78408377D01*
X169384400Y-78505050D01*
X170125390Y-78505050D01*
X170284140Y-78346300D01*
X170284140Y-77597000D01*
X170538140Y-77597000D01*
X170538140Y-78346300D01*
X170696890Y-78505050D01*
X171437880Y-78505050D01*
X171671269Y-78408377D01*
X171849897Y-78229748D01*
X171946570Y-77996359D01*
X171946570Y-77755750D01*
X171787820Y-77597000D01*
X170538140Y-77597000D01*
X170284140Y-77597000D01*
X169034460Y-77597000D01*
X168875710Y-77755750D01*
X168646696Y-77755750D01*
X168621363Y-77716383D01*
X168478671Y-77618886D01*
X168309290Y-77584585D01*
X166508430Y-77584585D01*
X166350193Y-77614359D01*
X166204863Y-77707877D01*
X166107366Y-77850569D01*
X166073065Y-78019950D01*
X166073065Y-78820050D01*
X166102839Y-78978287D01*
X166196357Y-79123617D01*
X166339049Y-79221114D01*
X166508430Y-79255415D01*
X166963000Y-79255415D01*
X166963000Y-79609950D01*
X166251890Y-79609950D01*
X166093140Y-79768700D01*
X166093140Y-80518000D01*
X166113140Y-80518000D01*
X166113140Y-80772000D01*
X166093140Y-80772000D01*
X166093140Y-81521300D01*
X166251890Y-81680050D01*
X166986870Y-81680050D01*
X167014534Y-81819125D01*
X167132084Y-81995050D01*
X167161289Y-82038759D01*
X167630530Y-82508000D01*
X164834283Y-82508000D01*
X164299655Y-81973372D01*
X164299655Y-81194950D01*
X164269881Y-81036713D01*
X164201696Y-80930750D01*
X164430710Y-80930750D01*
X164430710Y-81171359D01*
X164527383Y-81404748D01*
X164706011Y-81583377D01*
X164939400Y-81680050D01*
X165680390Y-81680050D01*
X165839140Y-81521300D01*
X165839140Y-80772000D01*
X164589460Y-80772000D01*
X164430710Y-80930750D01*
X164201696Y-80930750D01*
X164176363Y-80891383D01*
X164033671Y-80793886D01*
X163864290Y-80759585D01*
X162063430Y-80759585D01*
X161905193Y-80789359D01*
X161759863Y-80882877D01*
X161662366Y-81025569D01*
X161628065Y-81194950D01*
X161628065Y-81995050D01*
X161657839Y-82153287D01*
X161751357Y-82298617D01*
X161894049Y-82396114D01*
X162063430Y-82430415D01*
X162841853Y-82430415D01*
X164075149Y-83663712D01*
X164246194Y-83778000D01*
X162205422Y-83778000D01*
X160465860Y-82038438D01*
X160465860Y-79255415D01*
X160689290Y-79255415D01*
X160847527Y-79225641D01*
X160992857Y-79132123D01*
X161090354Y-78989431D01*
X161124655Y-78820050D01*
X161124655Y-78019950D01*
X161094881Y-77861713D01*
X161026696Y-77755750D01*
X161255710Y-77755750D01*
X161255710Y-77996359D01*
X161352383Y-78229748D01*
X161531011Y-78408377D01*
X161764400Y-78505050D01*
X162505390Y-78505050D01*
X162664140Y-78346300D01*
X162664140Y-77597000D01*
X162918140Y-77597000D01*
X162918140Y-78346300D01*
X163076890Y-78505050D01*
X163817880Y-78505050D01*
X164051269Y-78408377D01*
X164229897Y-78229748D01*
X164326570Y-77996359D01*
X164326570Y-77755750D01*
X164167820Y-77597000D01*
X162918140Y-77597000D01*
X162664140Y-77597000D01*
X161414460Y-77597000D01*
X161255710Y-77755750D01*
X161026696Y-77755750D01*
X161001363Y-77716383D01*
X160858671Y-77618886D01*
X160689290Y-77584585D01*
X158888430Y-77584585D01*
X158730193Y-77614359D01*
X158584863Y-77707877D01*
X158487366Y-77850569D01*
X158453065Y-78019950D01*
X117281960Y-78019950D01*
X117281960Y-59290469D01*
X120730794Y-59290469D01*
X120911427Y-59727635D01*
X121245606Y-60062397D01*
X121682456Y-60243793D01*
X122151781Y-60244203D01*
X122424731Y-60517153D01*
X122157544Y-60406207D01*
X121684531Y-60405794D01*
X121247365Y-60586427D01*
X120912603Y-60920606D01*
X120731207Y-61357456D01*
X120730794Y-61830469D01*
X120911427Y-62267635D01*
X121245606Y-62602397D01*
X121682456Y-62783793D01*
X122155469Y-62784206D01*
X122592635Y-62603573D01*
X122927397Y-62269394D01*
X123108793Y-61832544D01*
X123109206Y-61359531D01*
X122941013Y-60952473D01*
X123190000Y-61002000D01*
X128498805Y-61002000D01*
X128351207Y-61357456D01*
X128350794Y-61830469D01*
X128531427Y-62267635D01*
X128865606Y-62602397D01*
X129302456Y-62783793D01*
X129775469Y-62784206D01*
X130212635Y-62603573D01*
X130547397Y-62269394D01*
X130728793Y-61832544D01*
X130729206Y-61359531D01*
X130581477Y-61002000D01*
X133578805Y-61002000D01*
X133431207Y-61357456D01*
X133430794Y-61830469D01*
X133578523Y-62188000D01*
X131445000Y-62188000D01*
X131185923Y-62239534D01*
X130966289Y-62386289D01*
X130219680Y-63132898D01*
X130214394Y-63127603D01*
X129777544Y-62946207D01*
X129304531Y-62945794D01*
X128867365Y-63126427D01*
X128532603Y-63460606D01*
X128351207Y-63897456D01*
X128350794Y-64370469D01*
X128498523Y-64728000D01*
X123470422Y-64728000D01*
X123108798Y-64366376D01*
X123109206Y-63899531D01*
X122928573Y-63462365D01*
X122594394Y-63127603D01*
X122157544Y-62946207D01*
X121684531Y-62945794D01*
X121247365Y-63126427D01*
X120912603Y-63460606D01*
X120731207Y-63897456D01*
X120730794Y-64370469D01*
X120911427Y-64807635D01*
X121245606Y-65142397D01*
X121682456Y-65323793D01*
X122151781Y-65324203D01*
X122424731Y-65597153D01*
X122157544Y-65486207D01*
X121684531Y-65485794D01*
X121247365Y-65666427D01*
X120912603Y-66000606D01*
X120731207Y-66437456D01*
X120730794Y-66910469D01*
X120911427Y-67347635D01*
X121245606Y-67682397D01*
X121682456Y-67863793D01*
X122151781Y-67864203D01*
X122424731Y-68137153D01*
X122157544Y-68026207D01*
X121684531Y-68025794D01*
X121247365Y-68206427D01*
X120912603Y-68540606D01*
X120731207Y-68977456D01*
X120730794Y-69450469D01*
X120911427Y-69887635D01*
X121245606Y-70222397D01*
X121418115Y-70294029D01*
X121441289Y-70328711D01*
X122711289Y-71598711D01*
X122930923Y-71745466D01*
X123190000Y-71797000D01*
X154183000Y-71797000D01*
X154183000Y-73209635D01*
X154110000Y-73209635D01*
X153951763Y-73239409D01*
X153806433Y-73332927D01*
X153708936Y-73475619D01*
X153674635Y-73645000D01*
X153674635Y-74945000D01*
X153704409Y-75103237D01*
X153797927Y-75248567D01*
X153940619Y-75346064D01*
X154110000Y-75380365D01*
X155610000Y-75380365D01*
X155768237Y-75350591D01*
X155913567Y-75257073D01*
X156011064Y-75114381D01*
X156045365Y-74945000D01*
X156045365Y-73645000D01*
X156374635Y-73645000D01*
X156374635Y-74945000D01*
X156404409Y-75103237D01*
X156497927Y-75248567D01*
X156640619Y-75346064D01*
X156796135Y-75377557D01*
X158417289Y-76998712D01*
X158475139Y-77037366D01*
X158482839Y-77078287D01*
X158576357Y-77223617D01*
X158719049Y-77321114D01*
X158888430Y-77355415D01*
X160689290Y-77355415D01*
X160847527Y-77325641D01*
X160992857Y-77232123D01*
X161090354Y-77089431D01*
X161119877Y-76943641D01*
X161255710Y-76943641D01*
X161255710Y-77184250D01*
X161414460Y-77343000D01*
X162664140Y-77343000D01*
X162664140Y-76593700D01*
X162918140Y-76593700D01*
X162918140Y-77343000D01*
X164167820Y-77343000D01*
X164326570Y-77184250D01*
X164326570Y-76943641D01*
X164229897Y-76710252D01*
X164051269Y-76531623D01*
X163817880Y-76434950D01*
X163076890Y-76434950D01*
X162918140Y-76593700D01*
X162664140Y-76593700D01*
X162505390Y-76434950D01*
X161764400Y-76434950D01*
X161531011Y-76531623D01*
X161352383Y-76710252D01*
X161255710Y-76943641D01*
X161119877Y-76943641D01*
X161124655Y-76920050D01*
X161124655Y-76119950D01*
X161094881Y-75961713D01*
X161001363Y-75816383D01*
X160858671Y-75718886D01*
X160689290Y-75684585D01*
X159018008Y-75684585D01*
X158599529Y-75266106D01*
X158613567Y-75257073D01*
X158711064Y-75114381D01*
X158745365Y-74945000D01*
X158745365Y-73645000D01*
X158715591Y-73486763D01*
X158622073Y-73341433D01*
X158479381Y-73243936D01*
X158310000Y-73209635D01*
X156810000Y-73209635D01*
X156651763Y-73239409D01*
X156506433Y-73332927D01*
X156408936Y-73475619D01*
X156374635Y-73645000D01*
X156045365Y-73645000D01*
X156015591Y-73486763D01*
X155922073Y-73341433D01*
X155779381Y-73243936D01*
X155610000Y-73209635D01*
X155537000Y-73209635D01*
X155537000Y-71797000D01*
X162109635Y-71797000D01*
X162109635Y-73220000D01*
X162139409Y-73378237D01*
X162232927Y-73523567D01*
X162375619Y-73621064D01*
X162518000Y-73649897D01*
X162518000Y-74375000D01*
X162569534Y-74634077D01*
X162716289Y-74853711D01*
X162935923Y-75000466D01*
X162944812Y-75002234D01*
X164423000Y-76480422D01*
X164423000Y-78459578D01*
X163996267Y-78886311D01*
X163864290Y-78859585D01*
X162063430Y-78859585D01*
X161905193Y-78889359D01*
X161759863Y-78982877D01*
X161662366Y-79125569D01*
X161628065Y-79294950D01*
X161628065Y-80095050D01*
X161657839Y-80253287D01*
X161751357Y-80398617D01*
X161894049Y-80496114D01*
X162063430Y-80530415D01*
X163864290Y-80530415D01*
X164022527Y-80500641D01*
X164167857Y-80407123D01*
X164199225Y-80361214D01*
X164404077Y-80320466D01*
X164430710Y-80302670D01*
X164430710Y-80359250D01*
X164589460Y-80518000D01*
X165839140Y-80518000D01*
X165839140Y-79768700D01*
X165680390Y-79609950D01*
X165187472Y-79609950D01*
X165578711Y-79218711D01*
X165636567Y-79132123D01*
X165725466Y-78999077D01*
X165777000Y-78740000D01*
X165777000Y-76200000D01*
X165761077Y-76119950D01*
X166073065Y-76119950D01*
X166073065Y-76920050D01*
X166102839Y-77078287D01*
X166196357Y-77223617D01*
X166339049Y-77321114D01*
X166508430Y-77355415D01*
X168309290Y-77355415D01*
X168467527Y-77325641D01*
X168612857Y-77232123D01*
X168710354Y-77089431D01*
X168739877Y-76943641D01*
X168875710Y-76943641D01*
X168875710Y-77184250D01*
X169034460Y-77343000D01*
X170284140Y-77343000D01*
X170284140Y-76593700D01*
X170538140Y-76593700D01*
X170538140Y-77343000D01*
X171787820Y-77343000D01*
X171946570Y-77184250D01*
X171946570Y-76943641D01*
X171849897Y-76710252D01*
X171671269Y-76531623D01*
X171437880Y-76434950D01*
X170696890Y-76434950D01*
X170538140Y-76593700D01*
X170284140Y-76593700D01*
X170125390Y-76434950D01*
X169384400Y-76434950D01*
X169151011Y-76531623D01*
X168972383Y-76710252D01*
X168875710Y-76943641D01*
X168739877Y-76943641D01*
X168744655Y-76920050D01*
X168744655Y-76119950D01*
X168734016Y-76063407D01*
X171095423Y-73702000D01*
X172085000Y-73702000D01*
X172344077Y-73650466D01*
X172534044Y-73523534D01*
X172241289Y-73816289D01*
X172094534Y-74035923D01*
X172043000Y-74295000D01*
X172043000Y-78459578D01*
X171616267Y-78886311D01*
X171484290Y-78859585D01*
X169683430Y-78859585D01*
X169525193Y-78889359D01*
X169379863Y-78982877D01*
X169282366Y-79125569D01*
X169248065Y-79294950D01*
X169248065Y-80095050D01*
X169277839Y-80253287D01*
X169371357Y-80398617D01*
X169514049Y-80496114D01*
X169683430Y-80530415D01*
X171484290Y-80530415D01*
X171642527Y-80500641D01*
X171787857Y-80407123D01*
X171819225Y-80361214D01*
X172024077Y-80320466D01*
X172050710Y-80302670D01*
X172050710Y-80359250D01*
X172209460Y-80518000D01*
X173459140Y-80518000D01*
X173459140Y-79768700D01*
X173713140Y-79768700D01*
X173713140Y-80518000D01*
X174962820Y-80518000D01*
X175121570Y-80359250D01*
X175121570Y-80118641D01*
X175024897Y-79885252D01*
X174846269Y-79706623D01*
X174612880Y-79609950D01*
X173871890Y-79609950D01*
X173713140Y-79768700D01*
X173459140Y-79768700D01*
X173300390Y-79609950D01*
X172807472Y-79609950D01*
X173198711Y-79218711D01*
X173256567Y-79132123D01*
X173345466Y-78999077D01*
X173397000Y-78740000D01*
X173397000Y-74575422D01*
X175165326Y-72807096D01*
X175038394Y-72997063D01*
X174986860Y-73256140D01*
X174986860Y-75684585D01*
X174763430Y-75684585D01*
X174605193Y-75714359D01*
X174459863Y-75807877D01*
X174362366Y-75950569D01*
X174328065Y-76119950D01*
X174328065Y-76920050D01*
X174357839Y-77078287D01*
X174451357Y-77223617D01*
X174594049Y-77321114D01*
X174763430Y-77355415D01*
X176564290Y-77355415D01*
X176722527Y-77325641D01*
X176867857Y-77232123D01*
X176965354Y-77089431D01*
X176994877Y-76943641D01*
X177130710Y-76943641D01*
X177130710Y-77184250D01*
X177289460Y-77343000D01*
X178539140Y-77343000D01*
X178539140Y-76593700D01*
X178380390Y-76434950D01*
X177639400Y-76434950D01*
X177406011Y-76531623D01*
X177227383Y-76710252D01*
X177130710Y-76943641D01*
X176994877Y-76943641D01*
X176999655Y-76920050D01*
X176999655Y-76119950D01*
X176969881Y-75961713D01*
X176876363Y-75816383D01*
X176733671Y-75718886D01*
X176564290Y-75684585D01*
X176340860Y-75684585D01*
X176340860Y-73536562D01*
X176810422Y-73067000D01*
X180340000Y-73067000D01*
X180599077Y-73015466D01*
X180818711Y-72868711D01*
X182007591Y-71679831D01*
X182060619Y-71716064D01*
X182230000Y-71750365D01*
X183530000Y-71750365D01*
X183688237Y-71720591D01*
X183833567Y-71627073D01*
X183931064Y-71484381D01*
X183965365Y-71315000D01*
X183965365Y-69815000D01*
X183935591Y-69656763D01*
X183842073Y-69511433D01*
X183699381Y-69413936D01*
X183530000Y-69379635D01*
X182230000Y-69379635D01*
X182071763Y-69409409D01*
X181926433Y-69502927D01*
X181828936Y-69645619D01*
X181794635Y-69815000D01*
X181794635Y-70013894D01*
X181686289Y-70086289D01*
X180059578Y-71713000D01*
X176530000Y-71713000D01*
X176270923Y-71764534D01*
X176151195Y-71844534D01*
X176080955Y-71891467D01*
X178278711Y-69693711D01*
X178400505Y-69511433D01*
X178425466Y-69474077D01*
X178430161Y-69450469D01*
X179150794Y-69450469D01*
X179331427Y-69887635D01*
X179665606Y-70222397D01*
X180102456Y-70403793D01*
X180575469Y-70404206D01*
X181012635Y-70223573D01*
X181347397Y-69889394D01*
X181528793Y-69452544D01*
X181529206Y-68979531D01*
X181348573Y-68542365D01*
X181014394Y-68207603D01*
X180577544Y-68026207D01*
X180104531Y-68025794D01*
X179667365Y-68206427D01*
X179332603Y-68540606D01*
X179151207Y-68977456D01*
X179150794Y-69450469D01*
X178430161Y-69450469D01*
X178477000Y-69215000D01*
X178477000Y-68570285D01*
X178608237Y-68545591D01*
X178753567Y-68452073D01*
X178851064Y-68309381D01*
X178885365Y-68140000D01*
X178885365Y-66910469D01*
X179150794Y-66910469D01*
X179331427Y-67347635D01*
X179665606Y-67682397D01*
X180102456Y-67863793D01*
X180575469Y-67864206D01*
X181012635Y-67683573D01*
X181347397Y-67349394D01*
X181528793Y-66912544D01*
X181529206Y-66439531D01*
X181348573Y-66002365D01*
X181014394Y-65667603D01*
X180577544Y-65486207D01*
X180104531Y-65485794D01*
X179667365Y-65666427D01*
X179332603Y-66000606D01*
X179151207Y-66437456D01*
X179150794Y-66910469D01*
X178885365Y-66910469D01*
X178885365Y-66640000D01*
X178855591Y-66481763D01*
X178762073Y-66336433D01*
X178619381Y-66238936D01*
X178450000Y-66204635D01*
X177150000Y-66204635D01*
X176991763Y-66234409D01*
X176846433Y-66327927D01*
X176748936Y-66470619D01*
X176714635Y-66640000D01*
X176714635Y-68140000D01*
X176744409Y-68298237D01*
X176837927Y-68443567D01*
X176980619Y-68541064D01*
X177123000Y-68569897D01*
X177123000Y-68934578D01*
X175758533Y-70299045D01*
X175809748Y-70222397D01*
X175885466Y-70109077D01*
X175937000Y-69850000D01*
X175937000Y-68570285D01*
X176068237Y-68545591D01*
X176213567Y-68452073D01*
X176311064Y-68309381D01*
X176345365Y-68140000D01*
X176345365Y-66640000D01*
X176315591Y-66481763D01*
X176222073Y-66336433D01*
X176079381Y-66238936D01*
X175910000Y-66204635D01*
X174610000Y-66204635D01*
X174451763Y-66234409D01*
X174306433Y-66327927D01*
X174208936Y-66470619D01*
X174174635Y-66640000D01*
X174174635Y-68140000D01*
X174204409Y-68298237D01*
X174297927Y-68443567D01*
X174440619Y-68541064D01*
X174583000Y-68569897D01*
X174583000Y-69569578D01*
X171804578Y-72348000D01*
X170815000Y-72348000D01*
X170555923Y-72399534D01*
X170450463Y-72470000D01*
X170336288Y-72546289D01*
X167197993Y-75684585D01*
X166508430Y-75684585D01*
X166350193Y-75714359D01*
X166204863Y-75807877D01*
X166107366Y-75950569D01*
X166073065Y-76119950D01*
X165761077Y-76119950D01*
X165760981Y-76119468D01*
X165725467Y-75940924D01*
X165578711Y-75721289D01*
X163872000Y-74014578D01*
X163872000Y-73650285D01*
X164003237Y-73625591D01*
X164148567Y-73532073D01*
X164246064Y-73389381D01*
X164280365Y-73220000D01*
X164280365Y-71797000D01*
X170180000Y-71797000D01*
X170439077Y-71745466D01*
X170658711Y-71598711D01*
X172040320Y-70217102D01*
X172045606Y-70222397D01*
X172482456Y-70403793D01*
X172955469Y-70404206D01*
X173392635Y-70223573D01*
X173727397Y-69889394D01*
X173908793Y-69452544D01*
X173909206Y-68979531D01*
X173728573Y-68542365D01*
X173394394Y-68207603D01*
X172957544Y-68026207D01*
X172484531Y-68025794D01*
X172215444Y-68136978D01*
X172488624Y-67863798D01*
X172955469Y-67864206D01*
X173392635Y-67683573D01*
X173727397Y-67349394D01*
X173908793Y-66912544D01*
X173909206Y-66439531D01*
X173728573Y-66002365D01*
X173394394Y-65667603D01*
X172957544Y-65486207D01*
X172484531Y-65485794D01*
X172215444Y-65596978D01*
X172488624Y-65323798D01*
X172955469Y-65324206D01*
X173392635Y-65143573D01*
X173724786Y-64812000D01*
X174174635Y-64812000D01*
X174174635Y-65440000D01*
X174204409Y-65598237D01*
X174297927Y-65743567D01*
X174440619Y-65841064D01*
X174610000Y-65875365D01*
X175910000Y-65875365D01*
X176068237Y-65845591D01*
X176213567Y-65752073D01*
X176311064Y-65609381D01*
X176345365Y-65440000D01*
X176345365Y-63940000D01*
X176315591Y-63781763D01*
X176222073Y-63636433D01*
X176083865Y-63542000D01*
X176979966Y-63542000D01*
X176846433Y-63627927D01*
X176748936Y-63770619D01*
X176714635Y-63940000D01*
X176714635Y-65440000D01*
X176744409Y-65598237D01*
X176837927Y-65743567D01*
X176980619Y-65841064D01*
X177150000Y-65875365D01*
X178450000Y-65875365D01*
X178608237Y-65845591D01*
X178753567Y-65752073D01*
X178851064Y-65609381D01*
X178885365Y-65440000D01*
X178885365Y-63940000D01*
X178855591Y-63781763D01*
X178762073Y-63636433D01*
X178623865Y-63542000D01*
X178789578Y-63542000D01*
X179151202Y-63903624D01*
X179150794Y-64370469D01*
X179331427Y-64807635D01*
X179665606Y-65142397D01*
X180102456Y-65323793D01*
X180575469Y-65324206D01*
X181012635Y-65143573D01*
X181347397Y-64809394D01*
X181528793Y-64372544D01*
X181529206Y-63899531D01*
X181348573Y-63462365D01*
X181014394Y-63127603D01*
X180577544Y-62946207D01*
X180108219Y-62945797D01*
X179835269Y-62672847D01*
X180102456Y-62783793D01*
X180575469Y-62784206D01*
X181012635Y-62603573D01*
X181347397Y-62269394D01*
X181528793Y-61832544D01*
X181529206Y-61359531D01*
X181381477Y-61002000D01*
X181568000Y-61002000D01*
X181568000Y-66040000D01*
X181619534Y-66299077D01*
X181644495Y-66336433D01*
X181766289Y-66518711D01*
X182001926Y-66754348D01*
X181926433Y-66802927D01*
X181828936Y-66945619D01*
X181794635Y-67115000D01*
X181794635Y-68615000D01*
X181824409Y-68773237D01*
X181917927Y-68918567D01*
X182060619Y-69016064D01*
X182230000Y-69050365D01*
X183530000Y-69050365D01*
X183688237Y-69020591D01*
X183833567Y-68927073D01*
X183931064Y-68784381D01*
X183965365Y-68615000D01*
X183965365Y-67115000D01*
X183935591Y-66956763D01*
X183842073Y-66811433D01*
X183699381Y-66713936D01*
X183557000Y-66685103D01*
X183557000Y-66675000D01*
X183525912Y-66518711D01*
X183505467Y-66415924D01*
X183358712Y-66196289D01*
X182922000Y-65759578D01*
X182922000Y-65400365D01*
X183742943Y-65400365D01*
X184108000Y-65765422D01*
X184108000Y-72744578D01*
X182599578Y-74253000D01*
X180975000Y-74253000D01*
X180715924Y-74304533D01*
X180496289Y-74451288D01*
X179861289Y-75086289D01*
X179714534Y-75305923D01*
X179663000Y-75565000D01*
X179663000Y-76434950D01*
X178951890Y-76434950D01*
X178793140Y-76593700D01*
X178793140Y-77343000D01*
X178813140Y-77343000D01*
X178813140Y-77597000D01*
X178793140Y-77597000D01*
X178793140Y-78346300D01*
X178951890Y-78505050D01*
X179617528Y-78505050D01*
X179262993Y-78859585D01*
X177938430Y-78859585D01*
X177780193Y-78889359D01*
X177634863Y-78982877D01*
X177537366Y-79125569D01*
X177503065Y-79294950D01*
X177503065Y-80095050D01*
X177532839Y-80253287D01*
X177626357Y-80398617D01*
X177769049Y-80496114D01*
X177938430Y-80530415D01*
X179739290Y-80530415D01*
X179897527Y-80500641D01*
X180042857Y-80407123D01*
X180140354Y-80264431D01*
X180169877Y-80118641D01*
X180305710Y-80118641D01*
X180305710Y-80359250D01*
X180464460Y-80518000D01*
X181714140Y-80518000D01*
X181714140Y-79768700D01*
X181555390Y-79609950D01*
X180814400Y-79609950D01*
X180581011Y-79706623D01*
X180402383Y-79885252D01*
X180305710Y-80118641D01*
X180169877Y-80118641D01*
X180174655Y-80095050D01*
X180174655Y-79862767D01*
X180818711Y-79218711D01*
X180856895Y-79161564D01*
X180944049Y-79221114D01*
X181113430Y-79255415D01*
X182437993Y-79255415D01*
X182792528Y-79609950D01*
X182126890Y-79609950D01*
X181968140Y-79768700D01*
X181968140Y-80518000D01*
X183217820Y-80518000D01*
X183376570Y-80359250D01*
X183376570Y-80193992D01*
X184108000Y-80925422D01*
X184108000Y-85444578D01*
X183036289Y-86516289D01*
X182889534Y-86735923D01*
X182838000Y-86995000D01*
X182838000Y-91794577D01*
X181837578Y-92795000D01*
X175946292Y-92795000D01*
X175961064Y-92773381D01*
X175995365Y-92604000D01*
X175995365Y-91104000D01*
X175965591Y-90945763D01*
X175872073Y-90800433D01*
X175729381Y-90702936D01*
X175560000Y-90668635D01*
X174960000Y-90668635D01*
X174801763Y-90698409D01*
X174656433Y-90791927D01*
X174625619Y-90837025D01*
X174602073Y-90800433D01*
X174459381Y-90702936D01*
X174290000Y-90668635D01*
X173690000Y-90668635D01*
X173531763Y-90698409D01*
X173386433Y-90791927D01*
X173355619Y-90837025D01*
X173332073Y-90800433D01*
X173221957Y-90725194D01*
X173251414Y-90695789D01*
X173392839Y-90355201D01*
X173393161Y-89986417D01*
X173252331Y-89645583D01*
X173183868Y-89577000D01*
X180186578Y-89577000D01*
X180428973Y-89819395D01*
X180428839Y-89972583D01*
X180569669Y-90313417D01*
X180830211Y-90574414D01*
X181170799Y-90715839D01*
X181539583Y-90716161D01*
X181880417Y-90575331D01*
X182141414Y-90314789D01*
X182282839Y-89974201D01*
X182283161Y-89605417D01*
X182142331Y-89264583D01*
X181881789Y-89003586D01*
X181541201Y-88862161D01*
X181386448Y-88862026D01*
X180945711Y-88421289D01*
X180875254Y-88374211D01*
X180726077Y-88274534D01*
X180467000Y-88223000D01*
X169164000Y-88223000D01*
X168904923Y-88274534D01*
X168835789Y-88320728D01*
X168685288Y-88421289D01*
X167161289Y-89945289D01*
X167014534Y-90164923D01*
X166963000Y-90424000D01*
X166963000Y-90787401D01*
X166839381Y-90702936D01*
X166670000Y-90668635D01*
X166070000Y-90668635D01*
X165911763Y-90698409D01*
X165766433Y-90791927D01*
X165668936Y-90934619D01*
X165634635Y-91104000D01*
X165634635Y-92604000D01*
X165664409Y-92762237D01*
X165757927Y-92907567D01*
X165900619Y-93005064D01*
X166070000Y-93039365D01*
X166670000Y-93039365D01*
X166828237Y-93009591D01*
X166963000Y-92922873D01*
X166963000Y-94700000D01*
X162025029Y-94700000D01*
X161729201Y-94577161D01*
X161360417Y-94576839D01*
X161019583Y-94717669D01*
X160758586Y-94978211D01*
X160617161Y-95318799D01*
X160616839Y-95687583D01*
X160757669Y-96028417D01*
X161018211Y-96289414D01*
X161358799Y-96430839D01*
X161727583Y-96431161D01*
X162068417Y-96290331D01*
X162305161Y-96054000D01*
X167640000Y-96054000D01*
X167899077Y-96002466D01*
X168118711Y-95855711D01*
X168233000Y-95684666D01*
X168233000Y-99541577D01*
X167105578Y-100669000D01*
X152974236Y-100669000D01*
X152932331Y-100567583D01*
X152671789Y-100306586D01*
X152331201Y-100165161D01*
X151962417Y-100164839D01*
X151621583Y-100305669D01*
X151360586Y-100566211D01*
X151219161Y-100906799D01*
X151218839Y-101275583D01*
X151359669Y-101616417D01*
X151620211Y-101877414D01*
X151960799Y-102018839D01*
X152329583Y-102019161D01*
X152346194Y-102012297D01*
X152400000Y-102023000D01*
X153061024Y-102023000D01*
X152997161Y-102176799D01*
X152996839Y-102545583D01*
X153137669Y-102886417D01*
X153398211Y-103147414D01*
X153738799Y-103288839D01*
X154107583Y-103289161D01*
X154448417Y-103148331D01*
X154557939Y-103039000D01*
X170688000Y-103039000D01*
X170947077Y-102987466D01*
X171166711Y-102840711D01*
X173198711Y-100808711D01*
X173302888Y-100652799D01*
X173345466Y-100589077D01*
X173397000Y-100330000D01*
X173397000Y-98826000D01*
X176368635Y-98826000D01*
X176368635Y-101326000D01*
X176398409Y-101484237D01*
X176491927Y-101629567D01*
X176634619Y-101727064D01*
X176804000Y-101761365D01*
X179304000Y-101761365D01*
X179462237Y-101731591D01*
X179607567Y-101638073D01*
X179705064Y-101495381D01*
X179710255Y-101469745D01*
X179719736Y-101495387D01*
X180329461Y-101721908D01*
X180979460Y-101697856D01*
X181468264Y-101495387D01*
X181566927Y-101228532D01*
X180594000Y-100255605D01*
X180579858Y-100269748D01*
X180400253Y-100090143D01*
X180414395Y-100076000D01*
X180773605Y-100076000D01*
X181746532Y-101048927D01*
X181996608Y-100956468D01*
X182324614Y-101285047D01*
X182848907Y-101502752D01*
X183416603Y-101503248D01*
X183941275Y-101286457D01*
X184343047Y-100885386D01*
X184560752Y-100361093D01*
X184561248Y-99793397D01*
X184344457Y-99268725D01*
X183943386Y-98866953D01*
X183419093Y-98649248D01*
X182851397Y-98648752D01*
X182326725Y-98865543D01*
X181996280Y-99195411D01*
X181746532Y-99103073D01*
X180773605Y-100076000D01*
X180414395Y-100076000D01*
X180400253Y-100061858D01*
X180579858Y-99882253D01*
X180594000Y-99896395D01*
X181566927Y-98923468D01*
X181468264Y-98656613D01*
X180858539Y-98430092D01*
X180208540Y-98454144D01*
X179719736Y-98656613D01*
X179711622Y-98678558D01*
X179709591Y-98667763D01*
X179616073Y-98522433D01*
X179473381Y-98424936D01*
X179304000Y-98390635D01*
X176804000Y-98390635D01*
X176645763Y-98420409D01*
X176500433Y-98513927D01*
X176402936Y-98656619D01*
X176368635Y-98826000D01*
X173397000Y-98826000D01*
X173397000Y-93017666D01*
X173411499Y-93039365D01*
X173511289Y-93188711D01*
X174273289Y-93950711D01*
X174492924Y-94097467D01*
X174752000Y-94149000D01*
X181653914Y-94149000D01*
X181586586Y-94216211D01*
X181445161Y-94556799D01*
X181444839Y-94925583D01*
X181585669Y-95266417D01*
X181846211Y-95527414D01*
X182186799Y-95668839D01*
X182555583Y-95669161D01*
X182896417Y-95528331D01*
X183157414Y-95267789D01*
X183298839Y-94927201D01*
X183299161Y-94558417D01*
X183158331Y-94217583D01*
X182897789Y-93956586D01*
X182680898Y-93866524D01*
X183993711Y-92553712D01*
X184074186Y-92433272D01*
X184140466Y-92334077D01*
X184192000Y-92075000D01*
X184192000Y-87275422D01*
X185263711Y-86203711D01*
X185339969Y-86089583D01*
X185410466Y-85984077D01*
X185462000Y-85725000D01*
X185462000Y-80645000D01*
X185410466Y-80385923D01*
X185263711Y-80166289D01*
X183349655Y-78252233D01*
X183349655Y-78019950D01*
X183319881Y-77861713D01*
X183251696Y-77755750D01*
X183480710Y-77755750D01*
X183480710Y-77996359D01*
X183577383Y-78229748D01*
X183756011Y-78408377D01*
X183989400Y-78505050D01*
X184730390Y-78505050D01*
X184889140Y-78346300D01*
X184889140Y-77597000D01*
X185143140Y-77597000D01*
X185143140Y-78346300D01*
X185301890Y-78505050D01*
X186042880Y-78505050D01*
X186276269Y-78408377D01*
X186454897Y-78229748D01*
X186551570Y-77996359D01*
X186551570Y-77755750D01*
X186392820Y-77597000D01*
X185143140Y-77597000D01*
X184889140Y-77597000D01*
X183639460Y-77597000D01*
X183480710Y-77755750D01*
X183251696Y-77755750D01*
X183226363Y-77716383D01*
X183083671Y-77618886D01*
X182914290Y-77584585D01*
X181113430Y-77584585D01*
X181017000Y-77602729D01*
X181017000Y-77335887D01*
X181113430Y-77355415D01*
X182914290Y-77355415D01*
X183072527Y-77325641D01*
X183217857Y-77232123D01*
X183249225Y-77186214D01*
X183454077Y-77145466D01*
X183480710Y-77127670D01*
X183480710Y-77184250D01*
X183639460Y-77343000D01*
X184889140Y-77343000D01*
X184889140Y-76593700D01*
X185143140Y-76593700D01*
X185143140Y-77343000D01*
X186392820Y-77343000D01*
X186551570Y-77184250D01*
X186551570Y-76943641D01*
X186454897Y-76710252D01*
X186276269Y-76531623D01*
X186042880Y-76434950D01*
X185301890Y-76434950D01*
X185143140Y-76593700D01*
X184889140Y-76593700D01*
X184730390Y-76434950D01*
X184237472Y-76434950D01*
X186533711Y-74138711D01*
X186680467Y-73919076D01*
X186732000Y-73660000D01*
X186732000Y-59770000D01*
X186723573Y-59727635D01*
X186680467Y-59510924D01*
X186533712Y-59291289D01*
X186505365Y-59262942D01*
X186505365Y-58385000D01*
X186475591Y-58226763D01*
X186382073Y-58081433D01*
X186239381Y-57983936D01*
X186070000Y-57949635D01*
X184770000Y-57949635D01*
X184611763Y-57979409D01*
X184466433Y-58072927D01*
X184368936Y-58215619D01*
X184334635Y-58385000D01*
X184334635Y-59885000D01*
X184364409Y-60043237D01*
X184457927Y-60188567D01*
X184600619Y-60286064D01*
X184770000Y-60320365D01*
X185378000Y-60320365D01*
X185378000Y-65177334D01*
X185263711Y-65006289D01*
X184600365Y-64342943D01*
X184600365Y-63465000D01*
X184570591Y-63306763D01*
X184477073Y-63161433D01*
X184334381Y-63063936D01*
X184165000Y-63029635D01*
X182922000Y-63029635D01*
X182922000Y-62700365D01*
X184165000Y-62700365D01*
X184323237Y-62670591D01*
X184468567Y-62577073D01*
X184566064Y-62434381D01*
X184600365Y-62265000D01*
X184600365Y-60765000D01*
X184570591Y-60606763D01*
X184477073Y-60461433D01*
X184334381Y-60363936D01*
X184192000Y-60335103D01*
X184192000Y-59690000D01*
X184160912Y-59533711D01*
X184140467Y-59430924D01*
X183993712Y-59211289D01*
X183358711Y-58576289D01*
X183258805Y-58509534D01*
X183139077Y-58429534D01*
X182880000Y-58378000D01*
X181344216Y-58378000D01*
X181014394Y-58047603D01*
X180577544Y-57866207D01*
X180108219Y-57865797D01*
X179835269Y-57592847D01*
X180102456Y-57703793D01*
X180575469Y-57704206D01*
X181012635Y-57523573D01*
X181344786Y-57192000D01*
X184335952Y-57192000D01*
X184364409Y-57343237D01*
X184457927Y-57488567D01*
X184600619Y-57586064D01*
X184770000Y-57620365D01*
X186070000Y-57620365D01*
X186228237Y-57590591D01*
X186373567Y-57497073D01*
X186471064Y-57354381D01*
X186505365Y-57185000D01*
X186505365Y-55685000D01*
X186475591Y-55526763D01*
X186382073Y-55381433D01*
X186239381Y-55283936D01*
X186070000Y-55249635D01*
X184770000Y-55249635D01*
X184611763Y-55279409D01*
X184466433Y-55372927D01*
X184368936Y-55515619D01*
X184334635Y-55685000D01*
X184334635Y-55794727D01*
X184150000Y-55758000D01*
X183890924Y-55809534D01*
X183848321Y-55838000D01*
X181344216Y-55838000D01*
X181014394Y-55507603D01*
X180577544Y-55326207D01*
X180108220Y-55325797D01*
X178278711Y-53496289D01*
X178059077Y-53349534D01*
X177800000Y-53298000D01*
X131445000Y-53298000D01*
X131185923Y-53349534D01*
X130966289Y-53496289D01*
X129061289Y-55401289D01*
X129038204Y-55435838D01*
X128867365Y-55506427D01*
X128532603Y-55840606D01*
X128351207Y-56277456D01*
X128350794Y-56750469D01*
X128531427Y-57187635D01*
X128865606Y-57522397D01*
X129302456Y-57703793D01*
X129775469Y-57704206D01*
X130212635Y-57523573D01*
X130547397Y-57189394D01*
X130728793Y-56752544D01*
X130729206Y-56279531D01*
X130548573Y-55842365D01*
X130541821Y-55835601D01*
X131725422Y-54652000D01*
X141563000Y-54652000D01*
X141563000Y-55510784D01*
X141232603Y-55840606D01*
X141051207Y-56277456D01*
X141050794Y-56750469D01*
X141198523Y-57108000D01*
X135661195Y-57108000D01*
X135808793Y-56752544D01*
X135809206Y-56279531D01*
X135628573Y-55842365D01*
X135294394Y-55507603D01*
X134857544Y-55326207D01*
X134384531Y-55325794D01*
X133947365Y-55506427D01*
X133612603Y-55840606D01*
X133431207Y-56277456D01*
X133430794Y-56750469D01*
X133578523Y-57108000D01*
X131445000Y-57108000D01*
X131185923Y-57159534D01*
X130966289Y-57306289D01*
X130219680Y-58052898D01*
X130214394Y-58047603D01*
X129777544Y-57866207D01*
X129304531Y-57865794D01*
X128867365Y-58046427D01*
X128532603Y-58380606D01*
X128351207Y-58817456D01*
X128350794Y-59290469D01*
X128498523Y-59648000D01*
X123470422Y-59648000D01*
X123108798Y-59286376D01*
X123109206Y-58819531D01*
X122928573Y-58382365D01*
X122594394Y-58047603D01*
X122157544Y-57866207D01*
X121684531Y-57865794D01*
X121247365Y-58046427D01*
X120912603Y-58380606D01*
X120731207Y-58817456D01*
X120730794Y-59290469D01*
X117281960Y-59290469D01*
X117281960Y-56750469D01*
X120730794Y-56750469D01*
X120911427Y-57187635D01*
X121245606Y-57522397D01*
X121682456Y-57703793D01*
X122155469Y-57704206D01*
X122592635Y-57523573D01*
X122927397Y-57189394D01*
X123108793Y-56752544D01*
X123109206Y-56279531D01*
X122928573Y-55842365D01*
X122594394Y-55507603D01*
X122157544Y-55326207D01*
X121684531Y-55325794D01*
X121247365Y-55506427D01*
X120912603Y-55840606D01*
X120731207Y-56277456D01*
X120730794Y-56750469D01*
X117281960Y-56750469D01*
X117281960Y-52680061D01*
X187258500Y-52933599D01*
M02*
