M48
METRIC,TZ
T1C0.762
T2C1.000
%
G90
G05
T1
X141.52Y-54.29
X141.52Y-56.83
X141.52Y-59.37
X141.52Y-61.91
X141.52Y-64.45
X141.52Y-66.99
X141.52Y-69.53
X149.14Y-54.29
X149.14Y-56.83
X149.14Y-59.37
X149.14Y-61.91
X149.14Y-64.45
X149.14Y-66.99
X149.14Y-69.53
X152.02Y-54.29
X152.02Y-56.83
X152.02Y-59.37
X152.02Y-61.91
X152.02Y-64.45
X152.02Y-66.99
X152.02Y-69.53
X159.64Y-54.29
X159.64Y-56.83
X159.64Y-59.37
X159.64Y-61.91
X159.64Y-64.45
X159.64Y-66.99
X159.64Y-69.53
X162.52Y-54.29
X162.52Y-56.83
X162.52Y-59.37
X162.52Y-61.91
X162.52Y-64.45
X162.52Y-66.99
X162.52Y-69.53
X170.14Y-54.29
X170.14Y-56.83
X170.14Y-59.37
X170.14Y-61.91
X170.14Y-64.45
X170.14Y-66.99
X170.14Y-69.53
X173.02Y-54.29
X173.02Y-56.83
X173.02Y-59.37
X173.02Y-61.91
X173.02Y-64.45
X173.02Y-66.99
X173.02Y-69.53
X180.64Y-54.29
X180.64Y-56.83
X180.64Y-59.37
X180.64Y-61.91
X180.64Y-64.45
X180.64Y-66.99
X180.64Y-69.53
X183.52Y-54.29
X183.52Y-56.83
X183.52Y-59.37
X183.52Y-61.91
X183.52Y-64.45
X183.52Y-66.99
X183.52Y-69.53
X191.14Y-54.29
X191.14Y-56.83
X191.14Y-59.37
X191.14Y-61.91
X191.14Y-64.45
X191.14Y-66.99
X191.14Y-69.53
T2
X142.24Y-73.66
X144.78Y-73.66
X147.32Y-73.66
X149.86Y-48.26
X149.86Y-73.66
X152.4Y-48.26
X152.4Y-73.66
X154.94Y-48.26
X157.48Y-48.26
X160.02Y-48.26
X162.56Y-73.66
X165.1Y-73.66
X167.64Y-73.66
X170.18Y-48.26
X170.18Y-73.66
X172.72Y-48.26
X172.72Y-73.66
X175.26Y-48.26
X177.8Y-48.26
X180.34Y-48.26
X182.88Y-73.66
X185.42Y-73.66
X187.96Y-73.66
X190.5Y-73.66
X193.04Y-48.26
X193.04Y-73.66
X195.58Y-48.26
X198.12Y-48.26
X200.66Y-48.26
X203.2Y-48.26
X205.74Y-48.26
X208.28Y-48.26
T0
M30
