G04 #@! TF.FileFunction,Copper,L2,Bot,Signal*
%FSLAX46Y46*%
G04 Gerber Fmt 4.6, Leading zero omitted, Abs format (unit mm)*
G04 Created by KiCad (PCBNEW 4.0.2+dfsg1-stable) date So  7. júl 2018, 04:35:51 CEST*
%MOMM*%
G01*
G04 APERTURE LIST*
%ADD10C,0.100000*%
%ADD11C,1.524000*%
%ADD12R,1.500000X1.300000*%
%ADD13R,1.300000X1.500000*%
%ADD14R,0.600000X1.500000*%
%ADD15R,5.000000X5.000000*%
%ADD16C,1.800000*%
%ADD17R,1.700000X0.900000*%
%ADD18R,0.900000X1.700000*%
%ADD19R,1.700000X1.700000*%
%ADD20C,1.700000*%
%ADD21R,3.000000X3.000000*%
%ADD22C,3.000000*%
%ADD23R,2.000000X2.000000*%
%ADD24C,2.000000*%
%ADD25R,0.800100X1.800860*%
%ADD26C,1.200000*%
%ADD27C,1.000000*%
%ADD28C,0.500000*%
%ADD29C,0.400000*%
%ADD30C,0.254000*%
G04 APERTURE END LIST*
D10*
D11*
X173990000Y-57912000D03*
X173990000Y-60452000D03*
X173990000Y-62992000D03*
X173990000Y-65532000D03*
X173990000Y-68072000D03*
X173990000Y-70612000D03*
X184150000Y-70612000D03*
X184150000Y-68072000D03*
X184150000Y-65532000D03*
X184150000Y-62992000D03*
X184150000Y-60452000D03*
X184150000Y-57912000D03*
D12*
X183849000Y-75575160D03*
X181149000Y-75575160D03*
D13*
X181737000Y-65452000D03*
X181737000Y-68152000D03*
X179578000Y-65452000D03*
X179578000Y-68152000D03*
D10*
G36*
X177936305Y-70318457D02*
X178855543Y-71237695D01*
X177794883Y-72298355D01*
X176875645Y-71379117D01*
X177936305Y-70318457D01*
X177936305Y-70318457D01*
G37*
G36*
X176027117Y-72227645D02*
X176946355Y-73146883D01*
X175885695Y-74207543D01*
X174966457Y-73288305D01*
X176027117Y-72227645D01*
X176027117Y-72227645D01*
G37*
D13*
X176276000Y-65452000D03*
X176276000Y-68152000D03*
X163449000Y-71294000D03*
X163449000Y-73994000D03*
D12*
X154479000Y-74803000D03*
X157179000Y-74803000D03*
D11*
X121158000Y-57912000D03*
X121158000Y-60452000D03*
X121158000Y-62992000D03*
X121158000Y-65532000D03*
X121158000Y-68072000D03*
X121158000Y-70612000D03*
X131318000Y-70612000D03*
X131318000Y-68072000D03*
X131318000Y-65532000D03*
X131318000Y-62992000D03*
X131318000Y-60452000D03*
X131318000Y-57912000D03*
X147574000Y-57912000D03*
X147574000Y-60452000D03*
X147574000Y-62992000D03*
X147574000Y-65532000D03*
X147574000Y-68072000D03*
X147574000Y-70612000D03*
X157734000Y-70612000D03*
X157734000Y-68072000D03*
X157734000Y-65532000D03*
X157734000Y-62992000D03*
X157734000Y-60452000D03*
X157734000Y-57912000D03*
X160782000Y-57912000D03*
X160782000Y-60452000D03*
X160782000Y-62992000D03*
X160782000Y-65532000D03*
X160782000Y-68072000D03*
X160782000Y-70612000D03*
X170942000Y-70612000D03*
X170942000Y-68072000D03*
X170942000Y-65532000D03*
X170942000Y-62992000D03*
X170942000Y-60452000D03*
X170942000Y-57912000D03*
X134366000Y-57912000D03*
X134366000Y-60452000D03*
X134366000Y-62992000D03*
X134366000Y-65532000D03*
X134366000Y-68072000D03*
X134366000Y-70612000D03*
X144526000Y-70612000D03*
X144526000Y-68072000D03*
X144526000Y-65532000D03*
X144526000Y-62992000D03*
X144526000Y-60452000D03*
X144526000Y-57912000D03*
D14*
X175260000Y-91854000D03*
X173990000Y-91854000D03*
X172720000Y-91854000D03*
X171450000Y-91854000D03*
X170180000Y-91854000D03*
X168910000Y-91854000D03*
X167640000Y-91854000D03*
X166370000Y-91854000D03*
X166370000Y-86454000D03*
X167640000Y-86454000D03*
X168910000Y-86454000D03*
X170180000Y-86454000D03*
X171450000Y-86454000D03*
X172720000Y-86454000D03*
X173990000Y-86454000D03*
X175260000Y-86454000D03*
D15*
X129775000Y-98785000D03*
X140075000Y-98785000D03*
X140075000Y-116985000D03*
X129675000Y-116885000D03*
D16*
X161036000Y-101473000D03*
X163576000Y-101473000D03*
X166116000Y-101473000D03*
X168656000Y-101473000D03*
X171196000Y-101473000D03*
X173736000Y-101473000D03*
X176276000Y-101473000D03*
X178816000Y-101473000D03*
X178816000Y-116713000D03*
X176276000Y-116713000D03*
X173736000Y-116713000D03*
X171196000Y-116713000D03*
X168656000Y-116713000D03*
X166116000Y-116713000D03*
X163576000Y-116713000D03*
X161036000Y-116713000D03*
X158496000Y-116713000D03*
X155956000Y-116713000D03*
X153416000Y-116713000D03*
X150876000Y-116713000D03*
X148336000Y-115443000D03*
X148336000Y-112903000D03*
X148336000Y-110363000D03*
X148336000Y-107823000D03*
X148336000Y-105283000D03*
X148336000Y-102743000D03*
D17*
X180848000Y-92530000D03*
X180848000Y-95430000D03*
D18*
X169238000Y-94869000D03*
X172138000Y-94869000D03*
X185346000Y-109855000D03*
X182446000Y-109855000D03*
X185346000Y-107188000D03*
X182446000Y-107188000D03*
D19*
X153924000Y-91313000D03*
D20*
X153924000Y-88773000D03*
X153924000Y-86233000D03*
X153924000Y-83693000D03*
X153924000Y-81153000D03*
X153924000Y-78613000D03*
D21*
X124301000Y-137777000D03*
D22*
X124301000Y-122777000D03*
X145301000Y-122777000D03*
X145301000Y-137777000D03*
D23*
X121920000Y-102743000D03*
D24*
X121920000Y-105283000D03*
X121920000Y-107823000D03*
X121920000Y-110363000D03*
X121920000Y-112903000D03*
X121920000Y-115443000D03*
D23*
X176276000Y-122301000D03*
D24*
X176276000Y-124841000D03*
D19*
X182753000Y-125857000D03*
D20*
X184753000Y-125857000D03*
D19*
X184658000Y-134620000D03*
D20*
X182658000Y-134620000D03*
D12*
X182165000Y-130683000D03*
X184865000Y-130683000D03*
X182673000Y-121412000D03*
X185373000Y-121412000D03*
D25*
X182057080Y-81328260D03*
X180157080Y-81328260D03*
X181107080Y-78325980D03*
X177988000Y-81384140D03*
X176088000Y-81384140D03*
X177038000Y-78381860D03*
X174406600Y-81353660D03*
X172506600Y-81353660D03*
X173456600Y-78351380D03*
X171094440Y-81241900D03*
X169194440Y-81241900D03*
X170144440Y-78239620D03*
X167441920Y-81292700D03*
X165541920Y-81292700D03*
X166491920Y-78290420D03*
X163941800Y-81241900D03*
X162041800Y-81241900D03*
X162991800Y-78239620D03*
X160340080Y-81003140D03*
X158440080Y-81003140D03*
X159390080Y-78000860D03*
D26*
X151384000Y-75057000D03*
X122301000Y-93853000D03*
X169291000Y-133858000D03*
X181483000Y-87884000D03*
X161036000Y-87249000D03*
X186944000Y-93345000D03*
X171577000Y-98806000D03*
X181356000Y-89789000D03*
X161544000Y-95504000D03*
X175641000Y-98933000D03*
X177419000Y-99060000D03*
X185928000Y-87757000D03*
X167894000Y-125095000D03*
X124587000Y-98679000D03*
D27*
X176276000Y-124841000D02*
X176276000Y-130302000D01*
X180594000Y-134620000D02*
X182658000Y-134620000D01*
X176276000Y-130302000D02*
X180594000Y-134620000D01*
X178816000Y-120396000D02*
X179070000Y-120396000D01*
X158496000Y-117983000D02*
X159258000Y-120396000D01*
X159258000Y-120396000D02*
X178816000Y-120396000D01*
X158496000Y-116713000D02*
X158496000Y-117983000D01*
X178562000Y-124841000D02*
X176276000Y-124841000D01*
X179832000Y-123571000D02*
X178562000Y-124841000D01*
X179832000Y-121158000D02*
X179832000Y-123571000D01*
X179070000Y-120396000D02*
X179832000Y-121158000D01*
X153924000Y-81153000D02*
X152400000Y-81153000D01*
X151384000Y-80137000D02*
X151384000Y-75057000D01*
X152400000Y-81153000D02*
X151384000Y-80137000D01*
X169926000Y-133350000D02*
X170053000Y-133350000D01*
X169545000Y-133731000D02*
X169926000Y-133350000D01*
X169418000Y-133731000D02*
X169545000Y-133731000D01*
X169291000Y-133858000D02*
X169418000Y-133731000D01*
D28*
X161036000Y-87249000D02*
X161798000Y-86487000D01*
X161798000Y-86487000D02*
X166337000Y-86487000D01*
X166337000Y-86487000D02*
X166370000Y-86454000D01*
X181483000Y-87884000D02*
X181229000Y-87884000D01*
X161036000Y-87249000D02*
X161163000Y-87376000D01*
X173990000Y-91854000D02*
X173990000Y-92710000D01*
X183515000Y-82786180D02*
X182057080Y-81328260D01*
X183515000Y-92202000D02*
X183515000Y-82786180D01*
X182245000Y-93472000D02*
X183515000Y-92202000D01*
X174752000Y-93472000D02*
X182245000Y-93472000D01*
X173990000Y-92710000D02*
X174752000Y-93472000D01*
X175260000Y-86454000D02*
X175260000Y-85344000D01*
X177718760Y-82885240D02*
X177718760Y-81343500D01*
X175260000Y-85344000D02*
X177718760Y-82885240D01*
X173990000Y-86454000D02*
X173990000Y-83566000D01*
X174406600Y-83149400D02*
X174406600Y-81353660D01*
X173990000Y-83566000D02*
X174406600Y-83149400D01*
X185346000Y-109855000D02*
X186309000Y-109855000D01*
X186944000Y-109220000D02*
X186944000Y-93345000D01*
X186309000Y-109855000D02*
X186944000Y-109220000D01*
X172720000Y-86454000D02*
X172720000Y-85598000D01*
X171094440Y-83972440D02*
X171094440Y-81241900D01*
X172720000Y-85598000D02*
X171094440Y-83972440D01*
X171450000Y-86454000D02*
X171450000Y-85766936D01*
X171450000Y-85766936D02*
X169122064Y-83439000D01*
X169122064Y-83439000D02*
X167767000Y-83439000D01*
X167767000Y-83439000D02*
X167441920Y-83113920D01*
X167441920Y-83113920D02*
X167441920Y-81292700D01*
X170180000Y-86454000D02*
X170180000Y-85486888D01*
X163941800Y-83042800D02*
X163941800Y-81241900D01*
X165055318Y-84156318D02*
X163941800Y-83042800D01*
X168849430Y-84156318D02*
X165055318Y-84156318D01*
X170180000Y-85486888D02*
X168849430Y-84156318D01*
X170180000Y-86454000D02*
X170180000Y-85750400D01*
X170180000Y-86454000D02*
X170180000Y-85852000D01*
X168910000Y-86454000D02*
X168910000Y-85206840D01*
X160340080Y-84216280D02*
X160340080Y-81003140D01*
X160980120Y-84856320D02*
X160340080Y-84216280D01*
X168559480Y-84856320D02*
X160980120Y-84856320D01*
X168910000Y-85206840D02*
X168559480Y-84856320D01*
X168910000Y-86454000D02*
X168910000Y-85852000D01*
X184150000Y-57912000D02*
X184531000Y-57912000D01*
X184531000Y-57912000D02*
X185547000Y-58928000D01*
X185547000Y-72724000D02*
X183443880Y-75636120D01*
X185547000Y-58928000D02*
X185547000Y-72724000D01*
X131318000Y-57912000D02*
X131318000Y-56642000D01*
X144526000Y-56896000D02*
X143764000Y-56134000D01*
X143764000Y-56134000D02*
X131826000Y-56134000D01*
X131826000Y-56134000D02*
X131318000Y-56642000D01*
X144526000Y-56896000D02*
X144526000Y-57912000D01*
X157734000Y-57912000D02*
X157734000Y-56642000D01*
X157734000Y-56642000D02*
X157226000Y-56134000D01*
X144526000Y-56642000D02*
X144526000Y-57912000D01*
X145034000Y-56134000D02*
X144526000Y-56642000D01*
X157226000Y-56134000D02*
X145034000Y-56134000D01*
X170942000Y-57912000D02*
X170942000Y-56896000D01*
X170942000Y-56896000D02*
X171704000Y-56134000D01*
X184150000Y-56896000D02*
X184150000Y-57912000D01*
X183388000Y-56134000D02*
X184150000Y-56896000D01*
X171704000Y-56134000D02*
X183388000Y-56134000D01*
X170180000Y-56134000D02*
X158242000Y-56134000D01*
X170942000Y-56896000D02*
X170180000Y-56134000D01*
X158242000Y-56134000D02*
X157734000Y-56642000D01*
X144593235Y-58024059D02*
X144526000Y-57912000D01*
X184150000Y-60452000D02*
X183134000Y-60452000D01*
X181356000Y-62230000D02*
X181356000Y-65452000D01*
X183134000Y-60452000D02*
X181356000Y-62230000D01*
X170942000Y-60452000D02*
X170942000Y-59944000D01*
X170942000Y-59944000D02*
X171704000Y-59182000D01*
X183388000Y-59182000D02*
X184150000Y-59944000D01*
X171704000Y-59182000D02*
X183388000Y-59182000D01*
X184150000Y-59944000D02*
X184150000Y-60452000D01*
X157734000Y-60452000D02*
X157734000Y-59944000D01*
X157734000Y-59944000D02*
X158496000Y-59182000D01*
X170434000Y-59182000D02*
X170942000Y-59690000D01*
X158496000Y-59182000D02*
X170434000Y-59182000D01*
X170942000Y-59690000D02*
X170942000Y-60452000D01*
X144526000Y-60452000D02*
X144526000Y-59944000D01*
X144526000Y-59944000D02*
X145288000Y-59182000D01*
X157226000Y-59182000D02*
X157734000Y-59690000D01*
X145288000Y-59182000D02*
X157226000Y-59182000D01*
X157734000Y-59690000D02*
X157734000Y-60452000D01*
X131318000Y-60452000D02*
X131318000Y-59690000D01*
X131318000Y-59690000D02*
X131826000Y-59182000D01*
X144018000Y-59182000D02*
X144526000Y-59690000D01*
X131826000Y-59182000D02*
X144018000Y-59182000D01*
X144526000Y-59690000D02*
X144526000Y-60452000D01*
X131318000Y-60452000D02*
X131064000Y-60452000D01*
X173990000Y-60452000D02*
X177546000Y-60452000D01*
X179324000Y-62230000D02*
X179324000Y-65452000D01*
X177546000Y-60452000D02*
X179324000Y-62230000D01*
X160782000Y-60452000D02*
X160782000Y-61214000D01*
X160782000Y-61214000D02*
X161290000Y-61722000D01*
X173228000Y-61722000D02*
X173990000Y-60960000D01*
X161290000Y-61722000D02*
X173228000Y-61722000D01*
X173990000Y-60960000D02*
X173990000Y-60452000D01*
X147574000Y-60452000D02*
X147574000Y-61214000D01*
X147574000Y-61214000D02*
X148082000Y-61722000D01*
X148082000Y-61722000D02*
X160274000Y-61722000D01*
X160274000Y-61722000D02*
X160782000Y-61214000D01*
X134366000Y-60452000D02*
X134366000Y-61214000D01*
X134366000Y-61214000D02*
X134874000Y-61722000D01*
X134874000Y-61722000D02*
X147066000Y-61722000D01*
X147066000Y-61722000D02*
X147574000Y-61214000D01*
X121158000Y-60452000D02*
X121158000Y-61468000D01*
X121158000Y-61468000D02*
X121412000Y-61722000D01*
X121412000Y-61722000D02*
X133858000Y-61722000D01*
X133858000Y-61722000D02*
X134366000Y-61214000D01*
X121158000Y-60452000D02*
X121158000Y-61214000D01*
D29*
X184150000Y-65532000D02*
X184150000Y-66294000D01*
X170942000Y-65532000D02*
X170942000Y-66294000D01*
D28*
X170942000Y-66294000D02*
X171450000Y-66802000D01*
X183642000Y-66802000D02*
X184150000Y-66294000D01*
X158242000Y-66802000D02*
X170434000Y-66802000D01*
X157734000Y-66294000D02*
X158242000Y-66802000D01*
X170434000Y-66802000D02*
X170942000Y-66294000D01*
D29*
X157734000Y-65532000D02*
X157734000Y-66294000D01*
X131318000Y-65532000D02*
X131572000Y-65532000D01*
D28*
X131572000Y-65532000D02*
X132842000Y-66802000D01*
X143256000Y-66802000D02*
X144526000Y-65532000D01*
X132842000Y-66802000D02*
X143256000Y-66802000D01*
D29*
X144526000Y-65532000D02*
X144780000Y-65532000D01*
D28*
X144780000Y-65532000D02*
X146050000Y-66802000D01*
X146050000Y-66802000D02*
X157226000Y-66802000D01*
X157226000Y-66802000D02*
X157734000Y-66294000D01*
X178054000Y-66802000D02*
X178054000Y-70739000D01*
X178054000Y-70739000D02*
X177927000Y-70866000D01*
X171450000Y-66802000D02*
X178054000Y-66802000D01*
X178054000Y-66802000D02*
X183642000Y-66802000D01*
X173990000Y-65532000D02*
X176196000Y-65532000D01*
X176196000Y-65532000D02*
X176276000Y-65452000D01*
X160782000Y-65532000D02*
X160782000Y-65024000D01*
X160782000Y-65024000D02*
X161544000Y-64262000D01*
X173482000Y-64262000D02*
X173990000Y-64770000D01*
X161544000Y-64262000D02*
X173482000Y-64262000D01*
X173990000Y-64770000D02*
X173990000Y-65532000D01*
X147574000Y-65532000D02*
X147574000Y-65024000D01*
X147574000Y-65024000D02*
X148336000Y-64262000D01*
X160274000Y-64262000D02*
X160782000Y-64770000D01*
X148336000Y-64262000D02*
X160274000Y-64262000D01*
X160782000Y-64770000D02*
X160782000Y-65532000D01*
X134366000Y-65532000D02*
X134366000Y-64770000D01*
X134366000Y-64770000D02*
X134874000Y-64262000D01*
X147066000Y-64262000D02*
X147574000Y-64770000D01*
X134874000Y-64262000D02*
X147066000Y-64262000D01*
X147574000Y-64770000D02*
X147574000Y-65532000D01*
X121158000Y-65532000D02*
X121158000Y-64770000D01*
X121158000Y-64770000D02*
X121666000Y-64262000D01*
X121666000Y-64262000D02*
X133350000Y-64262000D01*
X133350000Y-64262000D02*
X134366000Y-65278000D01*
X134366000Y-65278000D02*
X134366000Y-65532000D01*
X160274000Y-65532000D02*
X160782000Y-65532000D01*
X168717998Y-71943998D02*
X171642002Y-71943998D01*
X172466000Y-71120000D02*
X172466000Y-69596000D01*
X173990000Y-68072000D02*
X172466000Y-69596000D01*
X168068000Y-71294000D02*
X168717998Y-71943998D01*
X168068000Y-71294000D02*
X163449000Y-71294000D01*
X171642002Y-71943998D02*
X172466000Y-71120000D01*
X162306000Y-70866000D02*
X163021000Y-70866000D01*
X163021000Y-70866000D02*
X163449000Y-71294000D01*
X160782000Y-68072000D02*
X161290000Y-68072000D01*
X161290000Y-68072000D02*
X162306000Y-69088000D01*
X162306000Y-69088000D02*
X162306000Y-70866000D01*
X147574000Y-68072000D02*
X147828000Y-68072000D01*
X147828000Y-68072000D02*
X149098000Y-69342000D01*
X159258000Y-69596000D02*
X160782000Y-68072000D01*
X159258000Y-71120000D02*
X159258000Y-69596000D01*
X158434002Y-71943998D02*
X159258000Y-71120000D01*
X150175998Y-71943998D02*
X158434002Y-71943998D01*
X149098000Y-70866000D02*
X150175998Y-71943998D01*
X149098000Y-69342000D02*
X149098000Y-70866000D01*
X134366000Y-68072000D02*
X134620000Y-68072000D01*
X134620000Y-68072000D02*
X135890000Y-69342000D01*
X146050000Y-69596000D02*
X147574000Y-68072000D01*
X146050000Y-70866000D02*
X146050000Y-69596000D01*
X145034000Y-71882000D02*
X146050000Y-70866000D01*
X136652000Y-71882000D02*
X145034000Y-71882000D01*
X135890000Y-71120000D02*
X136652000Y-71882000D01*
X135890000Y-69342000D02*
X135890000Y-71120000D01*
X121158000Y-68072000D02*
X121158000Y-68326000D01*
X121158000Y-68326000D02*
X122936000Y-70104000D01*
X132842000Y-69596000D02*
X134366000Y-68072000D01*
X132842000Y-71374000D02*
X132842000Y-69596000D01*
X132334000Y-71882000D02*
X132842000Y-71374000D01*
X123952000Y-71882000D02*
X132334000Y-71882000D01*
X122936000Y-70866000D02*
X123952000Y-71882000D01*
X122936000Y-70104000D02*
X122936000Y-70866000D01*
X154432000Y-72644000D02*
X154432000Y-74756000D01*
X154432000Y-74756000D02*
X154479000Y-74803000D01*
X173990000Y-70612000D02*
X173990000Y-72136000D01*
X161290000Y-72644000D02*
X160782000Y-72136000D01*
X173482000Y-72644000D02*
X161290000Y-72644000D01*
X173990000Y-72136000D02*
X173482000Y-72644000D01*
X160782000Y-70612000D02*
X160782000Y-72136000D01*
X148336000Y-72644000D02*
X147574000Y-71882000D01*
X160274000Y-72644000D02*
X154432000Y-72644000D01*
X154432000Y-72644000D02*
X148336000Y-72644000D01*
X160782000Y-72136000D02*
X160274000Y-72644000D01*
X147574000Y-70612000D02*
X147574000Y-71882000D01*
X135128000Y-72644000D02*
X134366000Y-71882000D01*
X147574000Y-71882000D02*
X146812000Y-72644000D01*
X146812000Y-72644000D02*
X135128000Y-72644000D01*
X160782000Y-70612000D02*
X160782000Y-71120000D01*
X134366000Y-70612000D02*
X134366000Y-71882000D01*
X121158000Y-70612000D02*
X121158000Y-70866000D01*
X121158000Y-70866000D02*
X122936000Y-72644000D01*
X133604000Y-72644000D02*
X134366000Y-71882000D01*
X122936000Y-72644000D02*
X133604000Y-72644000D01*
X158430998Y-104429950D02*
X158430998Y-87945998D01*
X166116000Y-112114952D02*
X158430998Y-104429950D01*
X166116000Y-116713000D02*
X166116000Y-112114952D01*
X156718000Y-86233000D02*
X153924000Y-86233000D01*
X158430998Y-87945998D02*
X156718000Y-86233000D01*
X157730996Y-104719900D02*
X157730996Y-90547996D01*
X163576000Y-110564904D02*
X157730996Y-104719900D01*
X163576000Y-116713000D02*
X163576000Y-110564904D01*
X155956000Y-88773000D02*
X153924000Y-88773000D01*
X157730996Y-90547996D02*
X155956000Y-88773000D01*
X171196000Y-99949000D02*
X171577000Y-98806000D01*
X171196000Y-99949000D02*
X171196000Y-101473000D01*
X170372002Y-99822000D02*
X170372002Y-94676998D01*
X171196000Y-100645998D02*
X170372002Y-99822000D01*
X171450000Y-93599000D02*
X171450000Y-91854000D01*
X170372002Y-94676998D02*
X171450000Y-93599000D01*
X171196000Y-101600000D02*
X171196000Y-100645998D01*
X167640000Y-90424000D02*
X169164000Y-88900000D01*
X169164000Y-88900000D02*
X180467000Y-88900000D01*
X180467000Y-88900000D02*
X181356000Y-89789000D01*
X167640000Y-91854000D02*
X167640000Y-90424000D01*
X168656000Y-101473000D02*
X168656000Y-100711000D01*
X168656000Y-100711000D02*
X168656000Y-97282000D01*
X168656000Y-101600000D02*
X168656000Y-100838000D01*
X161671000Y-95377000D02*
X167640000Y-95377000D01*
X161544000Y-95504000D02*
X161671000Y-95377000D01*
X167640000Y-95377000D02*
X167640000Y-95758000D01*
X167640000Y-95758000D02*
X168275000Y-96393000D01*
X168275000Y-96393000D02*
X168529000Y-96520000D01*
X168529000Y-96520000D02*
X168656000Y-97282000D01*
X167640000Y-95377000D02*
X167640000Y-91854000D01*
X173736000Y-101473000D02*
X173736000Y-101346000D01*
X173736000Y-101346000D02*
X175641000Y-99441000D01*
X175641000Y-99441000D02*
X175641000Y-98933000D01*
X176276000Y-101473000D02*
X176276000Y-100203000D01*
X176276000Y-100203000D02*
X177419000Y-99060000D01*
X172138000Y-94869000D02*
X173228000Y-94869000D01*
X178816000Y-97409000D02*
X178816000Y-101473000D01*
X177165000Y-95758000D02*
X178816000Y-97409000D01*
X174117000Y-95758000D02*
X177165000Y-95758000D01*
X173228000Y-94869000D02*
X174117000Y-95758000D01*
X184150000Y-114173000D02*
X184150000Y-96266000D01*
X174335050Y-94172002D02*
X182056002Y-94172002D01*
X174335050Y-94172002D02*
X172720000Y-92556952D01*
X184150000Y-96266000D02*
X182056002Y-94172002D01*
X176276000Y-116713000D02*
X176276000Y-116205000D01*
X176276000Y-116205000D02*
X177419000Y-115062000D01*
X183261000Y-115062000D02*
X184150000Y-114173000D01*
X177419000Y-115062000D02*
X183261000Y-115062000D01*
X176276000Y-116713000D02*
X176276000Y-115824000D01*
X172720000Y-91854000D02*
X172720000Y-92556952D01*
X183449998Y-113730002D02*
X183449998Y-98425000D01*
X183449998Y-98425000D02*
X180848000Y-95823002D01*
X171196000Y-116713000D02*
X171196000Y-116078000D01*
X171196000Y-116078000D02*
X172912002Y-114361998D01*
X172912002Y-114361998D02*
X182818002Y-114361998D01*
X182818002Y-114361998D02*
X183449998Y-113730002D01*
X180848000Y-95430000D02*
X180848000Y-95823002D01*
X161036000Y-116713000D02*
X161036000Y-117348000D01*
X161036000Y-117348000D02*
X162687000Y-118999000D01*
X182626000Y-120396000D02*
X182626000Y-121539000D01*
X181229000Y-118999000D02*
X182626000Y-120396000D01*
X162687000Y-118999000D02*
X181229000Y-118999000D01*
X157030994Y-105009850D02*
X157030994Y-92895994D01*
X161036000Y-109014856D02*
X157030994Y-105009850D01*
X161036000Y-116713000D02*
X161036000Y-109014856D01*
X155448000Y-91313000D02*
X153924000Y-91313000D01*
X157030994Y-92895994D02*
X155448000Y-91313000D01*
X159131000Y-104140000D02*
X159131000Y-85090000D01*
X168656000Y-113665000D02*
X159131000Y-104140000D01*
X168656000Y-116713000D02*
X168656000Y-113665000D01*
X155702000Y-80391000D02*
X153924000Y-78613000D01*
X155702000Y-81661000D02*
X155702000Y-80391000D01*
X159131000Y-85090000D02*
X155702000Y-81661000D01*
X185346000Y-107188000D02*
X185346000Y-88339000D01*
X185346000Y-88339000D02*
X185928000Y-87757000D01*
X180848000Y-92530000D02*
X180848000Y-92202000D01*
X180848000Y-92202000D02*
X178689000Y-90043000D01*
X178689000Y-90043000D02*
X169545000Y-90043000D01*
X169545000Y-90043000D02*
X168910000Y-90678000D01*
X168910000Y-90678000D02*
X168910000Y-91854000D01*
X169238000Y-94869000D02*
X169238000Y-94668000D01*
X169238000Y-94668000D02*
X170180000Y-93726000D01*
X170180000Y-93726000D02*
X170180000Y-91854000D01*
X161036000Y-101473000D02*
X161036000Y-101854000D01*
X161036000Y-101854000D02*
X163703000Y-104521000D01*
X163703000Y-104521000D02*
X176784000Y-104521000D01*
X176784000Y-104521000D02*
X179324000Y-107061000D01*
X179324000Y-107061000D02*
X179324000Y-108712000D01*
X179324000Y-108712000D02*
X180467000Y-109855000D01*
X180467000Y-109855000D02*
X182446000Y-109855000D01*
X166116000Y-101473000D02*
X166116000Y-101854000D01*
X166116000Y-101854000D02*
X168021000Y-103759000D01*
X168021000Y-103759000D02*
X179017000Y-103759000D01*
X179017000Y-103759000D02*
X182446000Y-107188000D01*
D27*
X161163000Y-122301000D02*
X176276000Y-122301000D01*
X129675000Y-116885000D02*
X129675000Y-120277000D01*
X156210000Y-127254000D02*
X161163000Y-122301000D01*
X161163000Y-122301000D02*
X161163000Y-122301000D01*
X136652000Y-127254000D02*
X156210000Y-127254000D01*
X129675000Y-120277000D02*
X136652000Y-127254000D01*
X173119000Y-137777000D02*
X145301000Y-137777000D01*
X174117000Y-136779000D02*
X173119000Y-137777000D01*
X174117000Y-131318000D02*
X174117000Y-136779000D01*
X167894000Y-125095000D02*
X174117000Y-131318000D01*
X129775000Y-98785000D02*
X126217000Y-98785000D01*
X126217000Y-98785000D02*
X124587000Y-98679000D01*
D28*
X121920000Y-107823000D02*
X148336000Y-107823000D01*
X121666000Y-105283000D02*
X148336000Y-105283000D01*
X121666000Y-102743000D02*
X148336000Y-102743000D01*
D27*
X121285000Y-110363000D02*
X120269000Y-110363000D01*
X124301000Y-129000000D02*
X124301000Y-137777000D01*
X119380000Y-122555000D02*
X124301000Y-129000000D01*
X119380000Y-111506000D02*
X119380000Y-122555000D01*
X120269000Y-110363000D02*
X119380000Y-111506000D01*
X121285000Y-110363000D02*
X148336000Y-110363000D01*
D28*
X185246000Y-121539000D02*
X185246000Y-125364000D01*
X185246000Y-125364000D02*
X184753000Y-125857000D01*
X184658000Y-134620000D02*
X184658000Y-133604000D01*
X184992000Y-133270000D02*
X184992000Y-130683000D01*
X184658000Y-133604000D02*
X184992000Y-133270000D01*
X181149000Y-75575160D02*
X181149000Y-78284060D01*
X181149000Y-78284060D02*
X181107080Y-78325980D01*
X181737000Y-68152000D02*
X181737000Y-72374760D01*
X178048920Y-77061060D02*
X176768760Y-78341220D01*
X178048920Y-75636120D02*
X178048920Y-77061060D01*
X179786280Y-73898760D02*
X178048920Y-75636120D01*
X180213000Y-73898760D02*
X179786280Y-73898760D01*
X181737000Y-72374760D02*
X180213000Y-73898760D01*
X179689760Y-71526400D02*
X179689760Y-72547480D01*
X179578000Y-68152000D02*
X179578000Y-70358000D01*
X179689760Y-70469760D02*
X179578000Y-70358000D01*
X179689760Y-71526400D02*
X179689760Y-70469760D01*
X176141380Y-75666600D02*
X173456600Y-78351380D01*
X176570640Y-75666600D02*
X176141380Y-75666600D01*
X179689760Y-72547480D02*
X176570640Y-75666600D01*
X173456600Y-78351380D02*
X173456600Y-78176120D01*
X175956406Y-73217594D02*
X175166466Y-73217594D01*
X175166466Y-73217594D02*
X170144440Y-78239620D01*
X176276000Y-68152000D02*
X176276000Y-70839952D01*
X168414700Y-76367640D02*
X166491920Y-78290420D01*
X170748312Y-76367640D02*
X168414700Y-76367640D01*
X176276000Y-70839952D02*
X170748312Y-76367640D01*
X162991800Y-78239620D02*
X162991800Y-74451200D01*
X162991800Y-74451200D02*
X163449000Y-73994000D01*
X159390080Y-78000860D02*
X159390080Y-77014080D01*
X159390080Y-77014080D02*
X157179000Y-74803000D01*
D30*
G36*
X187258500Y-52933599D02*
X187258960Y-52933600D01*
X188401960Y-52933600D01*
X188401960Y-140817147D01*
X117281960Y-140564051D01*
X117281960Y-111506000D01*
X118453000Y-111506000D01*
X118453000Y-122555000D01*
X118476443Y-122672856D01*
X118484016Y-122792784D01*
X118511418Y-122848686D01*
X118523564Y-122909748D01*
X118590325Y-123009663D01*
X118643215Y-123117563D01*
X123374000Y-129313440D01*
X123374000Y-135841635D01*
X122801000Y-135841635D01*
X122642763Y-135871409D01*
X122497433Y-135964927D01*
X122399936Y-136107619D01*
X122365635Y-136277000D01*
X122365635Y-139277000D01*
X122395409Y-139435237D01*
X122488927Y-139580567D01*
X122631619Y-139678064D01*
X122801000Y-139712365D01*
X125801000Y-139712365D01*
X125959237Y-139682591D01*
X126104567Y-139589073D01*
X126202064Y-139446381D01*
X126236365Y-139277000D01*
X126236365Y-138158622D01*
X143373666Y-138158622D01*
X143666416Y-138867132D01*
X144208017Y-139409678D01*
X144916014Y-139703665D01*
X145682622Y-139704334D01*
X146391132Y-139411584D01*
X146933678Y-138869983D01*
X147002600Y-138704000D01*
X173119000Y-138704000D01*
X173473748Y-138633436D01*
X173774488Y-138432488D01*
X174772488Y-137434488D01*
X174800868Y-137392014D01*
X174973436Y-137133748D01*
X175044000Y-136779000D01*
X175044000Y-131318000D01*
X174973436Y-130963252D01*
X174772488Y-130662512D01*
X168864558Y-124754582D01*
X168765156Y-124514011D01*
X168476508Y-124224860D01*
X168099179Y-124068179D01*
X167690613Y-124067822D01*
X167313011Y-124223844D01*
X167023860Y-124512492D01*
X166867179Y-124889821D01*
X166866822Y-125298387D01*
X167022844Y-125675989D01*
X167311492Y-125965140D01*
X167553765Y-126065741D01*
X173190000Y-131701976D01*
X173190000Y-136395024D01*
X172735024Y-136850000D01*
X147002989Y-136850000D01*
X146935584Y-136686868D01*
X146393983Y-136144322D01*
X145685986Y-135850335D01*
X144919378Y-135849666D01*
X144210868Y-136142416D01*
X143668322Y-136684017D01*
X143374335Y-137392014D01*
X143373666Y-138158622D01*
X126236365Y-138158622D01*
X126236365Y-136277000D01*
X126206591Y-136118763D01*
X126113073Y-135973433D01*
X125970381Y-135875936D01*
X125801000Y-135841635D01*
X125228000Y-135841635D01*
X125228000Y-129000000D01*
X125204556Y-128882142D01*
X125196984Y-128762215D01*
X125169582Y-128706312D01*
X125157436Y-128645252D01*
X125090676Y-128545338D01*
X125037785Y-128437437D01*
X121871802Y-124290970D01*
X122966635Y-124290970D01*
X123126418Y-124609739D01*
X123917187Y-124919723D01*
X124766387Y-124903497D01*
X125475582Y-124609739D01*
X125635365Y-124290970D01*
X124301000Y-122956605D01*
X122966635Y-124290970D01*
X121871802Y-124290970D01*
X120422773Y-122393187D01*
X122158277Y-122393187D01*
X122174503Y-123242387D01*
X122468261Y-123951582D01*
X122787030Y-124111365D01*
X124121395Y-122777000D01*
X124480605Y-122777000D01*
X125814970Y-124111365D01*
X126133739Y-123951582D01*
X126443723Y-123160813D01*
X126427497Y-122311613D01*
X126133739Y-121602418D01*
X125814970Y-121442635D01*
X124480605Y-122777000D01*
X124121395Y-122777000D01*
X122787030Y-121442635D01*
X122468261Y-121602418D01*
X122158277Y-122393187D01*
X120422773Y-122393187D01*
X120307000Y-122241560D01*
X120307000Y-121263030D01*
X122966635Y-121263030D01*
X124301000Y-122597395D01*
X125635365Y-121263030D01*
X125475582Y-120944261D01*
X124684813Y-120634277D01*
X123835613Y-120650503D01*
X123126418Y-120944261D01*
X122966635Y-121263030D01*
X120307000Y-121263030D01*
X120307000Y-115725603D01*
X120492752Y-115725603D01*
X120709543Y-116250275D01*
X121110614Y-116652047D01*
X121634907Y-116869752D01*
X122202603Y-116870248D01*
X122727275Y-116653457D01*
X123129047Y-116252386D01*
X123346752Y-115728093D01*
X123347248Y-115160397D01*
X123130457Y-114635725D01*
X122880170Y-114385000D01*
X126739635Y-114385000D01*
X126739635Y-119385000D01*
X126769409Y-119543237D01*
X126862927Y-119688567D01*
X127005619Y-119786064D01*
X127175000Y-119820365D01*
X128748000Y-119820365D01*
X128748000Y-120277000D01*
X128818564Y-120631748D01*
X129006847Y-120913534D01*
X129019512Y-120932488D01*
X135996512Y-127909488D01*
X136297252Y-128110436D01*
X136652000Y-128181000D01*
X156210000Y-128181000D01*
X156564748Y-128110436D01*
X156865488Y-127909488D01*
X161546976Y-123228000D01*
X174840635Y-123228000D01*
X174840635Y-123301000D01*
X174870409Y-123459237D01*
X174963927Y-123604567D01*
X175106619Y-123702064D01*
X175276000Y-123736365D01*
X175362718Y-123736365D01*
X175066953Y-124031614D01*
X174849248Y-124555907D01*
X174848752Y-125123603D01*
X175065543Y-125648275D01*
X175349000Y-125932227D01*
X175349000Y-130302000D01*
X175419564Y-130656748D01*
X175521964Y-130810000D01*
X175620512Y-130957488D01*
X179938512Y-135275488D01*
X180239252Y-135476436D01*
X180594000Y-135547000D01*
X181779007Y-135547000D01*
X181933693Y-135701957D01*
X182402875Y-135896778D01*
X182910897Y-135897221D01*
X183380417Y-135703219D01*
X183423186Y-135660525D01*
X183495927Y-135773567D01*
X183638619Y-135871064D01*
X183808000Y-135905365D01*
X185508000Y-135905365D01*
X185666237Y-135875591D01*
X185811567Y-135782073D01*
X185909064Y-135639381D01*
X185943365Y-135470000D01*
X185943365Y-133770000D01*
X185913591Y-133611763D01*
X185820073Y-133466433D01*
X185677381Y-133368936D01*
X185650407Y-133363474D01*
X185669000Y-133270000D01*
X185669000Y-131758204D01*
X185773237Y-131738591D01*
X185918567Y-131645073D01*
X186016064Y-131502381D01*
X186050365Y-131333000D01*
X186050365Y-130033000D01*
X186020591Y-129874763D01*
X185927073Y-129729433D01*
X185784381Y-129631936D01*
X185615000Y-129597635D01*
X184115000Y-129597635D01*
X183956763Y-129627409D01*
X183811433Y-129720927D01*
X183713936Y-129863619D01*
X183679635Y-130033000D01*
X183679635Y-131333000D01*
X183709409Y-131491237D01*
X183802927Y-131636567D01*
X183945619Y-131734064D01*
X184115000Y-131768365D01*
X184315000Y-131768365D01*
X184315000Y-132989578D01*
X184179289Y-133125289D01*
X184039408Y-133334635D01*
X183808000Y-133334635D01*
X183649763Y-133364409D01*
X183504433Y-133457927D01*
X183422311Y-133578117D01*
X183382307Y-133538043D01*
X182913125Y-133343222D01*
X182405103Y-133342779D01*
X181935583Y-133536781D01*
X181779091Y-133693000D01*
X180977976Y-133693000D01*
X178253726Y-130968750D01*
X180780000Y-130968750D01*
X180780000Y-131459310D01*
X180876673Y-131692699D01*
X181055302Y-131871327D01*
X181288691Y-131968000D01*
X181879250Y-131968000D01*
X182038000Y-131809250D01*
X182038000Y-130810000D01*
X182292000Y-130810000D01*
X182292000Y-131809250D01*
X182450750Y-131968000D01*
X183041309Y-131968000D01*
X183274698Y-131871327D01*
X183453327Y-131692699D01*
X183550000Y-131459310D01*
X183550000Y-130968750D01*
X183391250Y-130810000D01*
X182292000Y-130810000D01*
X182038000Y-130810000D01*
X180938750Y-130810000D01*
X180780000Y-130968750D01*
X178253726Y-130968750D01*
X177203000Y-129918024D01*
X177203000Y-129906690D01*
X180780000Y-129906690D01*
X180780000Y-130397250D01*
X180938750Y-130556000D01*
X182038000Y-130556000D01*
X182038000Y-129556750D01*
X182292000Y-129556750D01*
X182292000Y-130556000D01*
X183391250Y-130556000D01*
X183550000Y-130397250D01*
X183550000Y-129906690D01*
X183453327Y-129673301D01*
X183274698Y-129494673D01*
X183041309Y-129398000D01*
X182450750Y-129398000D01*
X182292000Y-129556750D01*
X182038000Y-129556750D01*
X181879250Y-129398000D01*
X181288691Y-129398000D01*
X181055302Y-129494673D01*
X180876673Y-129673301D01*
X180780000Y-129906690D01*
X177203000Y-129906690D01*
X177203000Y-126142750D01*
X181268000Y-126142750D01*
X181268000Y-126833309D01*
X181364673Y-127066698D01*
X181543301Y-127245327D01*
X181776690Y-127342000D01*
X182467250Y-127342000D01*
X182626000Y-127183250D01*
X182626000Y-125984000D01*
X181426750Y-125984000D01*
X181268000Y-126142750D01*
X177203000Y-126142750D01*
X177203000Y-125931941D01*
X177367227Y-125768000D01*
X178562000Y-125768000D01*
X178916748Y-125697436D01*
X179217488Y-125496488D01*
X179833285Y-124880691D01*
X181268000Y-124880691D01*
X181268000Y-125571250D01*
X181426750Y-125730000D01*
X182626000Y-125730000D01*
X182626000Y-124530750D01*
X182880000Y-124530750D01*
X182880000Y-125730000D01*
X182900000Y-125730000D01*
X182900000Y-125984000D01*
X182880000Y-125984000D01*
X182880000Y-127183250D01*
X183038750Y-127342000D01*
X183729310Y-127342000D01*
X183962699Y-127245327D01*
X184141327Y-127066698D01*
X184169944Y-126997610D01*
X184497875Y-127133778D01*
X185005897Y-127134221D01*
X185475417Y-126940219D01*
X185834957Y-126581307D01*
X186029778Y-126112125D01*
X186030221Y-125604103D01*
X185923000Y-125344609D01*
X185923000Y-122497365D01*
X186123000Y-122497365D01*
X186281237Y-122467591D01*
X186426567Y-122374073D01*
X186524064Y-122231381D01*
X186558365Y-122062000D01*
X186558365Y-120762000D01*
X186528591Y-120603763D01*
X186435073Y-120458433D01*
X186292381Y-120360936D01*
X186123000Y-120326635D01*
X184623000Y-120326635D01*
X184464763Y-120356409D01*
X184319433Y-120449927D01*
X184221936Y-120592619D01*
X184187635Y-120762000D01*
X184187635Y-122062000D01*
X184217409Y-122220237D01*
X184310927Y-122365567D01*
X184453619Y-122463064D01*
X184569000Y-122486430D01*
X184569000Y-124579839D01*
X184500103Y-124579779D01*
X184169876Y-124716226D01*
X184141327Y-124647302D01*
X183962699Y-124468673D01*
X183729310Y-124372000D01*
X183038750Y-124372000D01*
X182880000Y-124530750D01*
X182626000Y-124530750D01*
X182467250Y-124372000D01*
X181776690Y-124372000D01*
X181543301Y-124468673D01*
X181364673Y-124647302D01*
X181268000Y-124880691D01*
X179833285Y-124880691D01*
X180487488Y-124226488D01*
X180526568Y-124168000D01*
X180688436Y-123925748D01*
X180759000Y-123571000D01*
X180759000Y-121158000D01*
X180754114Y-121133436D01*
X180688437Y-120803253D01*
X180487488Y-120502512D01*
X179725488Y-119740512D01*
X179628939Y-119676000D01*
X180948578Y-119676000D01*
X181682148Y-120409571D01*
X181619433Y-120449927D01*
X181521936Y-120592619D01*
X181487635Y-120762000D01*
X181487635Y-122062000D01*
X181517409Y-122220237D01*
X181610927Y-122365567D01*
X181753619Y-122463064D01*
X181923000Y-122497365D01*
X183423000Y-122497365D01*
X183581237Y-122467591D01*
X183726567Y-122374073D01*
X183824064Y-122231381D01*
X183858365Y-122062000D01*
X183858365Y-120762000D01*
X183828591Y-120603763D01*
X183735073Y-120458433D01*
X183592381Y-120360936D01*
X183423000Y-120326635D01*
X183289202Y-120326635D01*
X183251466Y-120136923D01*
X183108028Y-119922253D01*
X183104711Y-119917288D01*
X181707711Y-118520289D01*
X181488077Y-118373534D01*
X181229000Y-118322000D01*
X162967423Y-118322000D01*
X162135682Y-117490260D01*
X162160319Y-117465666D01*
X162306109Y-117114567D01*
X162450369Y-117463703D01*
X162823334Y-117837319D01*
X163310885Y-118039769D01*
X163838798Y-118040229D01*
X164326703Y-117838631D01*
X164700319Y-117465666D01*
X164846109Y-117114567D01*
X164990369Y-117463703D01*
X165363334Y-117837319D01*
X165850885Y-118039769D01*
X166378798Y-118040229D01*
X166866703Y-117838631D01*
X167240319Y-117465666D01*
X167386109Y-117114567D01*
X167530369Y-117463703D01*
X167903334Y-117837319D01*
X168390885Y-118039769D01*
X168918798Y-118040229D01*
X169406703Y-117838631D01*
X169780319Y-117465666D01*
X169926109Y-117114567D01*
X170070369Y-117463703D01*
X170443334Y-117837319D01*
X170930885Y-118039769D01*
X171458798Y-118040229D01*
X171946703Y-117838631D01*
X172320319Y-117465666D01*
X172466109Y-117114567D01*
X172610369Y-117463703D01*
X172983334Y-117837319D01*
X173470885Y-118039769D01*
X173998798Y-118040229D01*
X174486703Y-117838631D01*
X174860319Y-117465666D01*
X175006109Y-117114567D01*
X175150369Y-117463703D01*
X175523334Y-117837319D01*
X176010885Y-118039769D01*
X176538798Y-118040229D01*
X177026703Y-117838631D01*
X177400319Y-117465666D01*
X177546109Y-117114567D01*
X177690369Y-117463703D01*
X178063334Y-117837319D01*
X178550885Y-118039769D01*
X179078798Y-118040229D01*
X179566703Y-117838631D01*
X179940319Y-117465666D01*
X180142769Y-116978115D01*
X180143229Y-116450202D01*
X179941631Y-115962297D01*
X179718723Y-115739000D01*
X183261000Y-115739000D01*
X183520077Y-115687466D01*
X183739711Y-115540711D01*
X184628711Y-114651711D01*
X184775466Y-114432077D01*
X184827000Y-114173000D01*
X184827000Y-111126392D01*
X184896000Y-111140365D01*
X185796000Y-111140365D01*
X185954237Y-111110591D01*
X186099567Y-111017073D01*
X186197064Y-110874381D01*
X186231365Y-110705000D01*
X186231365Y-110532000D01*
X186309000Y-110532000D01*
X186568077Y-110480466D01*
X186787711Y-110333711D01*
X187422712Y-109698711D01*
X187569467Y-109479076D01*
X187621000Y-109220000D01*
X187621000Y-94120312D01*
X187814140Y-93927508D01*
X187970821Y-93550179D01*
X187971178Y-93141613D01*
X187815156Y-92764011D01*
X187526508Y-92474860D01*
X187149179Y-92318179D01*
X186740613Y-92317822D01*
X186363011Y-92473844D01*
X186073860Y-92762492D01*
X186023000Y-92884976D01*
X186023000Y-88784083D01*
X186131387Y-88784178D01*
X186508989Y-88628156D01*
X186798140Y-88339508D01*
X186954821Y-87962179D01*
X186955178Y-87553613D01*
X186799156Y-87176011D01*
X186510508Y-86886860D01*
X186133179Y-86730179D01*
X185724613Y-86729822D01*
X185347011Y-86885844D01*
X185057860Y-87174492D01*
X184901179Y-87551821D01*
X184900939Y-87826639D01*
X184867289Y-87860289D01*
X184720534Y-88079923D01*
X184669000Y-88339000D01*
X184669000Y-95847585D01*
X184628711Y-95787288D01*
X182757922Y-93916500D01*
X183993711Y-92680711D01*
X184002204Y-92668000D01*
X184140466Y-92461077D01*
X184192000Y-92202000D01*
X184192000Y-82786180D01*
X184140466Y-82527103D01*
X183993711Y-82307469D01*
X182892495Y-81206253D01*
X182892495Y-80427830D01*
X182862721Y-80269593D01*
X182769203Y-80124263D01*
X182626511Y-80026766D01*
X182457130Y-79992465D01*
X181657030Y-79992465D01*
X181498793Y-80022239D01*
X181353463Y-80115757D01*
X181255966Y-80258449D01*
X181221665Y-80427830D01*
X181221665Y-82228690D01*
X181251439Y-82386927D01*
X181344957Y-82532257D01*
X181487649Y-82629754D01*
X181657030Y-82664055D01*
X182435453Y-82664055D01*
X182838000Y-83066602D01*
X182838000Y-91921578D01*
X182133365Y-92626213D01*
X182133365Y-92080000D01*
X182103591Y-91921763D01*
X182010073Y-91776433D01*
X181867381Y-91678936D01*
X181698000Y-91644635D01*
X181248057Y-91644635D01*
X179180422Y-89577000D01*
X180186578Y-89577000D01*
X180329060Y-89719482D01*
X180328822Y-89992387D01*
X180484844Y-90369989D01*
X180773492Y-90659140D01*
X181150821Y-90815821D01*
X181559387Y-90816178D01*
X181936989Y-90660156D01*
X182226140Y-90371508D01*
X182382821Y-89994179D01*
X182383178Y-89585613D01*
X182227156Y-89208011D01*
X181938508Y-88918860D01*
X181561179Y-88762179D01*
X181286361Y-88761939D01*
X180945711Y-88421289D01*
X180823317Y-88339508D01*
X180726077Y-88274534D01*
X180467000Y-88223000D01*
X169164000Y-88223000D01*
X168904923Y-88274534D01*
X168875358Y-88294289D01*
X168685288Y-88421289D01*
X167161289Y-89945289D01*
X167014534Y-90164923D01*
X166963000Y-90424000D01*
X166963000Y-90787401D01*
X166839381Y-90702936D01*
X166670000Y-90668635D01*
X166070000Y-90668635D01*
X165911763Y-90698409D01*
X165766433Y-90791927D01*
X165668936Y-90934619D01*
X165634635Y-91104000D01*
X165634635Y-92604000D01*
X165664409Y-92762237D01*
X165757927Y-92907567D01*
X165900619Y-93005064D01*
X166070000Y-93039365D01*
X166670000Y-93039365D01*
X166828237Y-93009591D01*
X166963000Y-92922873D01*
X166963000Y-94700000D01*
X162192533Y-94700000D01*
X162126508Y-94633860D01*
X161749179Y-94477179D01*
X161340613Y-94476822D01*
X160963011Y-94632844D01*
X160673860Y-94921492D01*
X160517179Y-95298821D01*
X160516822Y-95707387D01*
X160672844Y-96084989D01*
X160961492Y-96374140D01*
X161338821Y-96530821D01*
X161747387Y-96531178D01*
X162124989Y-96375156D01*
X162414140Y-96086508D01*
X162427639Y-96054000D01*
X167039205Y-96054000D01*
X167080378Y-96115619D01*
X167161289Y-96236711D01*
X167796289Y-96871712D01*
X167886519Y-96932001D01*
X167915014Y-96954117D01*
X167979000Y-97338032D01*
X167979000Y-100316916D01*
X167905297Y-100347369D01*
X167531681Y-100720334D01*
X167385891Y-101071433D01*
X167241631Y-100722297D01*
X166868666Y-100348681D01*
X166381115Y-100146231D01*
X165853202Y-100145771D01*
X165365297Y-100347369D01*
X164991681Y-100720334D01*
X164845891Y-101071433D01*
X164701631Y-100722297D01*
X164328666Y-100348681D01*
X163841115Y-100146231D01*
X163313202Y-100145771D01*
X162825297Y-100347369D01*
X162451681Y-100720334D01*
X162305891Y-101071433D01*
X162161631Y-100722297D01*
X161788666Y-100348681D01*
X161301115Y-100146231D01*
X160773202Y-100145771D01*
X160285297Y-100347369D01*
X159911681Y-100720334D01*
X159808000Y-100970024D01*
X159808000Y-86739750D01*
X165435000Y-86739750D01*
X165435000Y-87330309D01*
X165531673Y-87563698D01*
X165710301Y-87742327D01*
X165943690Y-87839000D01*
X166084250Y-87839000D01*
X166243000Y-87680250D01*
X166243000Y-86581000D01*
X165593750Y-86581000D01*
X165435000Y-86739750D01*
X159808000Y-86739750D01*
X159808000Y-85090000D01*
X159756466Y-84830923D01*
X159625574Y-84635029D01*
X159609711Y-84611288D01*
X156379000Y-81380578D01*
X156379000Y-81288890D01*
X157405030Y-81288890D01*
X157405030Y-82029880D01*
X157501703Y-82263269D01*
X157680332Y-82441897D01*
X157913721Y-82538570D01*
X158154330Y-82538570D01*
X158313080Y-82379820D01*
X158313080Y-81130140D01*
X158567080Y-81130140D01*
X158567080Y-82379820D01*
X158725830Y-82538570D01*
X158966439Y-82538570D01*
X159199828Y-82441897D01*
X159378457Y-82263269D01*
X159475130Y-82029880D01*
X159475130Y-81288890D01*
X159316380Y-81130140D01*
X158567080Y-81130140D01*
X158313080Y-81130140D01*
X157563780Y-81130140D01*
X157405030Y-81288890D01*
X156379000Y-81288890D01*
X156379000Y-80391000D01*
X156376349Y-80377674D01*
X156327467Y-80131924D01*
X156223549Y-79976400D01*
X157405030Y-79976400D01*
X157405030Y-80717390D01*
X157563780Y-80876140D01*
X158313080Y-80876140D01*
X158313080Y-79626460D01*
X158567080Y-79626460D01*
X158567080Y-80876140D01*
X159316380Y-80876140D01*
X159475130Y-80717390D01*
X159475130Y-80102710D01*
X159504665Y-80102710D01*
X159504665Y-81903570D01*
X159534439Y-82061807D01*
X159627957Y-82207137D01*
X159663080Y-82231135D01*
X159663080Y-84216280D01*
X159714614Y-84475357D01*
X159805441Y-84611289D01*
X159861369Y-84694991D01*
X160501409Y-85335031D01*
X160721043Y-85481786D01*
X160980120Y-85533320D01*
X165453379Y-85533320D01*
X165435000Y-85577691D01*
X165435000Y-86168250D01*
X165593750Y-86327000D01*
X166243000Y-86327000D01*
X166243000Y-86307000D01*
X166497000Y-86307000D01*
X166497000Y-86327000D01*
X166517000Y-86327000D01*
X166517000Y-86581000D01*
X166497000Y-86581000D01*
X166497000Y-87680250D01*
X166655750Y-87839000D01*
X166796310Y-87839000D01*
X167029699Y-87742327D01*
X167168446Y-87603579D01*
X167170619Y-87605064D01*
X167340000Y-87639365D01*
X167940000Y-87639365D01*
X168098237Y-87609591D01*
X168243567Y-87516073D01*
X168274381Y-87470975D01*
X168297927Y-87507567D01*
X168440619Y-87605064D01*
X168610000Y-87639365D01*
X169210000Y-87639365D01*
X169368237Y-87609591D01*
X169513567Y-87516073D01*
X169544381Y-87470975D01*
X169567927Y-87507567D01*
X169710619Y-87605064D01*
X169880000Y-87639365D01*
X170480000Y-87639365D01*
X170638237Y-87609591D01*
X170783567Y-87516073D01*
X170814381Y-87470975D01*
X170837927Y-87507567D01*
X170980619Y-87605064D01*
X171150000Y-87639365D01*
X171750000Y-87639365D01*
X171908237Y-87609591D01*
X172053567Y-87516073D01*
X172084381Y-87470975D01*
X172107927Y-87507567D01*
X172250619Y-87605064D01*
X172420000Y-87639365D01*
X173020000Y-87639365D01*
X173178237Y-87609591D01*
X173323567Y-87516073D01*
X173354381Y-87470975D01*
X173377927Y-87507567D01*
X173520619Y-87605064D01*
X173690000Y-87639365D01*
X174290000Y-87639365D01*
X174448237Y-87609591D01*
X174593567Y-87516073D01*
X174624381Y-87470975D01*
X174647927Y-87507567D01*
X174790619Y-87605064D01*
X174960000Y-87639365D01*
X175560000Y-87639365D01*
X175718237Y-87609591D01*
X175863567Y-87516073D01*
X175961064Y-87373381D01*
X175995365Y-87204000D01*
X175995365Y-85704000D01*
X175973520Y-85587902D01*
X178197471Y-83363951D01*
X178344227Y-83144316D01*
X178395760Y-82885240D01*
X178395760Y-82718484D01*
X178546287Y-82690161D01*
X178691617Y-82596643D01*
X178789114Y-82453951D01*
X178823415Y-82284570D01*
X178823415Y-81614010D01*
X179122030Y-81614010D01*
X179122030Y-82355000D01*
X179218703Y-82588389D01*
X179397332Y-82767017D01*
X179630721Y-82863690D01*
X179871330Y-82863690D01*
X180030080Y-82704940D01*
X180030080Y-81455260D01*
X180284080Y-81455260D01*
X180284080Y-82704940D01*
X180442830Y-82863690D01*
X180683439Y-82863690D01*
X180916828Y-82767017D01*
X181095457Y-82588389D01*
X181192130Y-82355000D01*
X181192130Y-81614010D01*
X181033380Y-81455260D01*
X180284080Y-81455260D01*
X180030080Y-81455260D01*
X179280780Y-81455260D01*
X179122030Y-81614010D01*
X178823415Y-81614010D01*
X178823415Y-80483710D01*
X178793641Y-80325473D01*
X178778228Y-80301520D01*
X179122030Y-80301520D01*
X179122030Y-81042510D01*
X179280780Y-81201260D01*
X180030080Y-81201260D01*
X180030080Y-79951580D01*
X180284080Y-79951580D01*
X180284080Y-81201260D01*
X181033380Y-81201260D01*
X181192130Y-81042510D01*
X181192130Y-80301520D01*
X181095457Y-80068131D01*
X180916828Y-79889503D01*
X180683439Y-79792830D01*
X180442830Y-79792830D01*
X180284080Y-79951580D01*
X180030080Y-79951580D01*
X179871330Y-79792830D01*
X179630721Y-79792830D01*
X179397332Y-79889503D01*
X179218703Y-80068131D01*
X179122030Y-80301520D01*
X178778228Y-80301520D01*
X178700123Y-80180143D01*
X178557431Y-80082646D01*
X178388050Y-80048345D01*
X177587950Y-80048345D01*
X177429713Y-80078119D01*
X177284383Y-80171637D01*
X177186886Y-80314329D01*
X177152585Y-80483710D01*
X177152585Y-80995688D01*
X177123050Y-81039890D01*
X177123050Y-80357400D01*
X177026377Y-80124011D01*
X176847748Y-79945383D01*
X176614359Y-79848710D01*
X176373750Y-79848710D01*
X176215000Y-80007460D01*
X176215000Y-81257140D01*
X176235000Y-81257140D01*
X176235000Y-81511140D01*
X176215000Y-81511140D01*
X176215000Y-82760820D01*
X176373750Y-82919570D01*
X176614359Y-82919570D01*
X176806663Y-82839915D01*
X174781289Y-84865289D01*
X174667000Y-85036334D01*
X174667000Y-83846422D01*
X174885311Y-83628112D01*
X175011671Y-83439000D01*
X175032066Y-83408477D01*
X175083600Y-83149400D01*
X175083600Y-82583291D01*
X175110217Y-82566163D01*
X175114608Y-82559736D01*
X175149623Y-82644269D01*
X175328252Y-82822897D01*
X175561641Y-82919570D01*
X175802250Y-82919570D01*
X175961000Y-82760820D01*
X175961000Y-81511140D01*
X175941000Y-81511140D01*
X175941000Y-81257140D01*
X175961000Y-81257140D01*
X175961000Y-80007460D01*
X175802250Y-79848710D01*
X175561641Y-79848710D01*
X175328252Y-79945383D01*
X175149623Y-80124011D01*
X175131058Y-80168832D01*
X175118723Y-80149663D01*
X174976031Y-80052166D01*
X174806650Y-80017865D01*
X174006550Y-80017865D01*
X173848313Y-80047639D01*
X173702983Y-80141157D01*
X173605486Y-80283849D01*
X173571185Y-80453230D01*
X173571185Y-82254090D01*
X173600959Y-82412327D01*
X173694477Y-82557657D01*
X173729600Y-82581655D01*
X173729600Y-82868977D01*
X173511289Y-83087289D01*
X173364534Y-83306923D01*
X173313000Y-83566000D01*
X173313000Y-85290334D01*
X173198711Y-85119289D01*
X171771440Y-83692018D01*
X171771440Y-82802602D01*
X171980241Y-82889090D01*
X172220850Y-82889090D01*
X172379600Y-82730340D01*
X172379600Y-81480660D01*
X172633600Y-81480660D01*
X172633600Y-82730340D01*
X172792350Y-82889090D01*
X173032959Y-82889090D01*
X173266348Y-82792417D01*
X173444977Y-82613789D01*
X173541650Y-82380400D01*
X173541650Y-81639410D01*
X173382900Y-81480660D01*
X172633600Y-81480660D01*
X172379600Y-81480660D01*
X172359600Y-81480660D01*
X172359600Y-81226660D01*
X172379600Y-81226660D01*
X172379600Y-79976980D01*
X172633600Y-79976980D01*
X172633600Y-81226660D01*
X173382900Y-81226660D01*
X173541650Y-81067910D01*
X173541650Y-80326920D01*
X173444977Y-80093531D01*
X173266348Y-79914903D01*
X173032959Y-79818230D01*
X172792350Y-79818230D01*
X172633600Y-79976980D01*
X172379600Y-79976980D01*
X172220850Y-79818230D01*
X171980241Y-79818230D01*
X171746852Y-79914903D01*
X171698017Y-79963737D01*
X171663871Y-79940406D01*
X171494490Y-79906105D01*
X170694390Y-79906105D01*
X170536153Y-79935879D01*
X170390823Y-80029397D01*
X170293326Y-80172089D01*
X170259025Y-80341470D01*
X170259025Y-82142330D01*
X170288799Y-82300567D01*
X170382317Y-82445897D01*
X170417440Y-82469895D01*
X170417440Y-83776954D01*
X169600775Y-82960289D01*
X169381141Y-82813534D01*
X169199133Y-82777330D01*
X169321442Y-82777330D01*
X169321442Y-82618582D01*
X169480190Y-82777330D01*
X169720799Y-82777330D01*
X169954188Y-82680657D01*
X170132817Y-82502029D01*
X170229490Y-82268640D01*
X170229490Y-81527650D01*
X170070740Y-81368900D01*
X169321440Y-81368900D01*
X169321440Y-81388900D01*
X169067440Y-81388900D01*
X169067440Y-81368900D01*
X169047440Y-81368900D01*
X169047440Y-81114900D01*
X169067440Y-81114900D01*
X169067440Y-79865220D01*
X169321440Y-79865220D01*
X169321440Y-81114900D01*
X170070740Y-81114900D01*
X170229490Y-80956150D01*
X170229490Y-80215160D01*
X170132817Y-79981771D01*
X169954188Y-79803143D01*
X169720799Y-79706470D01*
X169480190Y-79706470D01*
X169321440Y-79865220D01*
X169067440Y-79865220D01*
X168908690Y-79706470D01*
X168668081Y-79706470D01*
X168434692Y-79803143D01*
X168256063Y-79981771D01*
X168189163Y-80143281D01*
X168154043Y-80088703D01*
X168011351Y-79991206D01*
X167841970Y-79956905D01*
X167041870Y-79956905D01*
X166883633Y-79986679D01*
X166738303Y-80080197D01*
X166640806Y-80222889D01*
X166606505Y-80392270D01*
X166606505Y-82193130D01*
X166636279Y-82351367D01*
X166729797Y-82496697D01*
X166764920Y-82520695D01*
X166764920Y-83113920D01*
X166816454Y-83372997D01*
X166887496Y-83479318D01*
X165335740Y-83479318D01*
X164618800Y-82762378D01*
X164618800Y-82568086D01*
X164782172Y-82731457D01*
X165015561Y-82828130D01*
X165256170Y-82828130D01*
X165414920Y-82669380D01*
X165414920Y-81419700D01*
X165668920Y-81419700D01*
X165668920Y-82669380D01*
X165827670Y-82828130D01*
X166068279Y-82828130D01*
X166301668Y-82731457D01*
X166480297Y-82552829D01*
X166576970Y-82319440D01*
X166576970Y-81578450D01*
X166418220Y-81419700D01*
X165668920Y-81419700D01*
X165414920Y-81419700D01*
X165394920Y-81419700D01*
X165394920Y-81165700D01*
X165414920Y-81165700D01*
X165414920Y-79916020D01*
X165668920Y-79916020D01*
X165668920Y-81165700D01*
X166418220Y-81165700D01*
X166576970Y-81006950D01*
X166576970Y-80265960D01*
X166480297Y-80032571D01*
X166301668Y-79853943D01*
X166068279Y-79757270D01*
X165827670Y-79757270D01*
X165668920Y-79916020D01*
X165414920Y-79916020D01*
X165256170Y-79757270D01*
X165015561Y-79757270D01*
X164782172Y-79853943D01*
X164620826Y-80015289D01*
X164511231Y-79940406D01*
X164341850Y-79906105D01*
X163541750Y-79906105D01*
X163383513Y-79935879D01*
X163238183Y-80029397D01*
X163140686Y-80172089D01*
X163106385Y-80341470D01*
X163106385Y-82142330D01*
X163136159Y-82300567D01*
X163229677Y-82445897D01*
X163264800Y-82469895D01*
X163264800Y-83042800D01*
X163316334Y-83301877D01*
X163444526Y-83493729D01*
X163463089Y-83521511D01*
X164120898Y-84179320D01*
X161260542Y-84179320D01*
X161017080Y-83935858D01*
X161017080Y-82293579D01*
X161103423Y-82502029D01*
X161282052Y-82680657D01*
X161515441Y-82777330D01*
X161756050Y-82777330D01*
X161914800Y-82618580D01*
X161914800Y-81368900D01*
X162168800Y-81368900D01*
X162168800Y-82618580D01*
X162327550Y-82777330D01*
X162568159Y-82777330D01*
X162801548Y-82680657D01*
X162980177Y-82502029D01*
X163076850Y-82268640D01*
X163076850Y-81527650D01*
X162918100Y-81368900D01*
X162168800Y-81368900D01*
X161914800Y-81368900D01*
X161894800Y-81368900D01*
X161894800Y-81114900D01*
X161914800Y-81114900D01*
X161914800Y-79865220D01*
X162168800Y-79865220D01*
X162168800Y-81114900D01*
X162918100Y-81114900D01*
X163076850Y-80956150D01*
X163076850Y-80215160D01*
X162980177Y-79981771D01*
X162801548Y-79803143D01*
X162568159Y-79706470D01*
X162327550Y-79706470D01*
X162168800Y-79865220D01*
X161914800Y-79865220D01*
X161756050Y-79706470D01*
X161515441Y-79706470D01*
X161282052Y-79803143D01*
X161143763Y-79941431D01*
X161052203Y-79799143D01*
X160909511Y-79701646D01*
X160740130Y-79667345D01*
X159940030Y-79667345D01*
X159781793Y-79697119D01*
X159636463Y-79790637D01*
X159538966Y-79933329D01*
X159504665Y-80102710D01*
X159475130Y-80102710D01*
X159475130Y-79976400D01*
X159378457Y-79743011D01*
X159199828Y-79564383D01*
X158966439Y-79467710D01*
X158725830Y-79467710D01*
X158567080Y-79626460D01*
X158313080Y-79626460D01*
X158154330Y-79467710D01*
X157913721Y-79467710D01*
X157680332Y-79564383D01*
X157501703Y-79743011D01*
X157405030Y-79976400D01*
X156223549Y-79976400D01*
X156180711Y-79912289D01*
X155181932Y-78913510D01*
X155200778Y-78868125D01*
X155201221Y-78360103D01*
X155007219Y-77890583D01*
X154648307Y-77531043D01*
X154179125Y-77336222D01*
X153671103Y-77335779D01*
X153201583Y-77529781D01*
X152842043Y-77888693D01*
X152647222Y-78357875D01*
X152646779Y-78865897D01*
X152840781Y-79335417D01*
X153199693Y-79694957D01*
X153653088Y-79883223D01*
X153201583Y-80069781D01*
X153045091Y-80226000D01*
X152783976Y-80226000D01*
X152311000Y-79753024D01*
X152311000Y-75502574D01*
X152410821Y-75262179D01*
X152411178Y-74853613D01*
X152255156Y-74476011D01*
X151966508Y-74186860D01*
X151589179Y-74030179D01*
X151180613Y-74029822D01*
X150803011Y-74185844D01*
X150513860Y-74474492D01*
X150357179Y-74851821D01*
X150356822Y-75260387D01*
X150457000Y-75502836D01*
X150457000Y-80137000D01*
X150527564Y-80491748D01*
X150708935Y-80763189D01*
X150728512Y-80792488D01*
X151744512Y-81808488D01*
X152045252Y-82009436D01*
X152400000Y-82080000D01*
X153045007Y-82080000D01*
X153199693Y-82234957D01*
X153366099Y-82304055D01*
X153139920Y-82397741D01*
X153059647Y-82649042D01*
X153924000Y-83513395D01*
X154788353Y-82649042D01*
X154708080Y-82397741D01*
X154467083Y-82310318D01*
X154646417Y-82236219D01*
X155005957Y-81877307D01*
X155047923Y-81776241D01*
X155076534Y-81920077D01*
X155183391Y-82080000D01*
X155223289Y-82139711D01*
X158454000Y-85370423D01*
X158454000Y-87011578D01*
X157196711Y-85754289D01*
X157093837Y-85685551D01*
X156977077Y-85607534D01*
X156718000Y-85556000D01*
X155025985Y-85556000D01*
X155007219Y-85510583D01*
X154648307Y-85151043D01*
X154481901Y-85081945D01*
X154708080Y-84988259D01*
X154788353Y-84736958D01*
X153924000Y-83872605D01*
X153059647Y-84736958D01*
X153139920Y-84988259D01*
X153380917Y-85075682D01*
X153201583Y-85149781D01*
X152842043Y-85508693D01*
X152647222Y-85977875D01*
X152646779Y-86485897D01*
X152840781Y-86955417D01*
X153199693Y-87314957D01*
X153653088Y-87503223D01*
X153201583Y-87689781D01*
X152842043Y-88048693D01*
X152647222Y-88517875D01*
X152646779Y-89025897D01*
X152840781Y-89495417D01*
X153199693Y-89854957D01*
X153615549Y-90027635D01*
X153074000Y-90027635D01*
X152915763Y-90057409D01*
X152770433Y-90150927D01*
X152672936Y-90293619D01*
X152638635Y-90463000D01*
X152638635Y-92163000D01*
X152668409Y-92321237D01*
X152761927Y-92466567D01*
X152904619Y-92564064D01*
X153074000Y-92598365D01*
X154774000Y-92598365D01*
X154932237Y-92568591D01*
X155077567Y-92475073D01*
X155175064Y-92332381D01*
X155209365Y-92163000D01*
X155209365Y-92031787D01*
X156353994Y-93176417D01*
X156353994Y-105009850D01*
X156405528Y-105268927D01*
X156456603Y-105345366D01*
X156552283Y-105488561D01*
X160359000Y-109295278D01*
X160359000Y-115556916D01*
X160285297Y-115587369D01*
X159911681Y-115960334D01*
X159765891Y-116311433D01*
X159621631Y-115962297D01*
X159248666Y-115588681D01*
X158761115Y-115386231D01*
X158233202Y-115385771D01*
X157745297Y-115587369D01*
X157371681Y-115960334D01*
X157225891Y-116311433D01*
X157081631Y-115962297D01*
X156708666Y-115588681D01*
X156221115Y-115386231D01*
X155693202Y-115385771D01*
X155205297Y-115587369D01*
X154831681Y-115960334D01*
X154804862Y-116024920D01*
X154752643Y-115898852D01*
X154496159Y-115812446D01*
X153595605Y-116713000D01*
X154496159Y-117613554D01*
X154752643Y-117527148D01*
X154801456Y-117393728D01*
X154830369Y-117463703D01*
X155203334Y-117837319D01*
X155690885Y-118039769D01*
X156218798Y-118040229D01*
X156706703Y-117838631D01*
X157080319Y-117465666D01*
X157226109Y-117114567D01*
X157370369Y-117463703D01*
X157569000Y-117662681D01*
X157569000Y-117983000D01*
X157596578Y-118121642D01*
X157612029Y-118262149D01*
X158374029Y-120675149D01*
X158393623Y-120710827D01*
X158401564Y-120750748D01*
X158480098Y-120868282D01*
X158548143Y-120992181D01*
X158579898Y-121017644D01*
X158602512Y-121051488D01*
X158720045Y-121130021D01*
X158830326Y-121218450D01*
X158869409Y-121229823D01*
X158903252Y-121252436D01*
X159041892Y-121280013D01*
X159177618Y-121319508D01*
X159218077Y-121315059D01*
X159258000Y-121323000D01*
X174840635Y-121323000D01*
X174840635Y-121374000D01*
X161163000Y-121374000D01*
X160808253Y-121444563D01*
X160507512Y-121645512D01*
X155826024Y-126327000D01*
X137035976Y-126327000D01*
X134999946Y-124290970D01*
X143966635Y-124290970D01*
X144126418Y-124609739D01*
X144917187Y-124919723D01*
X145766387Y-124903497D01*
X146475582Y-124609739D01*
X146635365Y-124290970D01*
X145301000Y-122956605D01*
X143966635Y-124290970D01*
X134999946Y-124290970D01*
X133102163Y-122393187D01*
X143158277Y-122393187D01*
X143174503Y-123242387D01*
X143468261Y-123951582D01*
X143787030Y-124111365D01*
X145121395Y-122777000D01*
X145480605Y-122777000D01*
X146814970Y-124111365D01*
X147133739Y-123951582D01*
X147443723Y-123160813D01*
X147427497Y-122311613D01*
X147133739Y-121602418D01*
X146814970Y-121442635D01*
X145480605Y-122777000D01*
X145121395Y-122777000D01*
X143787030Y-121442635D01*
X143468261Y-121602418D01*
X143158277Y-122393187D01*
X133102163Y-122393187D01*
X131972006Y-121263030D01*
X143966635Y-121263030D01*
X145301000Y-122597395D01*
X146635365Y-121263030D01*
X146475582Y-120944261D01*
X145684813Y-120634277D01*
X144835613Y-120650503D01*
X144126418Y-120944261D01*
X143966635Y-121263030D01*
X131972006Y-121263030D01*
X130602000Y-119893024D01*
X130602000Y-119820365D01*
X132175000Y-119820365D01*
X132333237Y-119790591D01*
X132478567Y-119697073D01*
X132576064Y-119554381D01*
X132610365Y-119385000D01*
X132610365Y-117270750D01*
X136940000Y-117270750D01*
X136940000Y-119611309D01*
X137036673Y-119844698D01*
X137215301Y-120023327D01*
X137448690Y-120120000D01*
X139789250Y-120120000D01*
X139948000Y-119961250D01*
X139948000Y-117112000D01*
X140202000Y-117112000D01*
X140202000Y-119961250D01*
X140360750Y-120120000D01*
X142701310Y-120120000D01*
X142934699Y-120023327D01*
X143113327Y-119844698D01*
X143210000Y-119611309D01*
X143210000Y-117270750D01*
X143051250Y-117112000D01*
X140202000Y-117112000D01*
X139948000Y-117112000D01*
X137098750Y-117112000D01*
X136940000Y-117270750D01*
X132610365Y-117270750D01*
X132610365Y-114385000D01*
X132605415Y-114358691D01*
X136940000Y-114358691D01*
X136940000Y-116699250D01*
X137098750Y-116858000D01*
X139948000Y-116858000D01*
X139948000Y-114008750D01*
X140202000Y-114008750D01*
X140202000Y-116858000D01*
X143051250Y-116858000D01*
X143210000Y-116699250D01*
X143210000Y-116523159D01*
X147435446Y-116523159D01*
X147521852Y-116779643D01*
X148095336Y-116989458D01*
X148705460Y-116963839D01*
X149150148Y-116779643D01*
X149236554Y-116523159D01*
X148336000Y-115622605D01*
X147435446Y-116523159D01*
X143210000Y-116523159D01*
X143210000Y-115202336D01*
X146789542Y-115202336D01*
X146815161Y-115812460D01*
X146999357Y-116257148D01*
X147255841Y-116343554D01*
X148156395Y-115443000D01*
X148515605Y-115443000D01*
X149416159Y-116343554D01*
X149621242Y-116274464D01*
X149549231Y-116447885D01*
X149548771Y-116975798D01*
X149750369Y-117463703D01*
X150123334Y-117837319D01*
X150610885Y-118039769D01*
X151138798Y-118040229D01*
X151626703Y-117838631D01*
X151672254Y-117793159D01*
X152515446Y-117793159D01*
X152601852Y-118049643D01*
X153175336Y-118259458D01*
X153785460Y-118233839D01*
X154230148Y-118049643D01*
X154316554Y-117793159D01*
X153416000Y-116892605D01*
X152515446Y-117793159D01*
X151672254Y-117793159D01*
X152000319Y-117465666D01*
X152027138Y-117401080D01*
X152079357Y-117527148D01*
X152335841Y-117613554D01*
X153236395Y-116713000D01*
X152335841Y-115812446D01*
X152079357Y-115898852D01*
X152030544Y-116032272D01*
X152001631Y-115962297D01*
X151672750Y-115632841D01*
X152515446Y-115632841D01*
X153416000Y-116533395D01*
X154316554Y-115632841D01*
X154230148Y-115376357D01*
X153656664Y-115166542D01*
X153046540Y-115192161D01*
X152601852Y-115376357D01*
X152515446Y-115632841D01*
X151672750Y-115632841D01*
X151628666Y-115588681D01*
X151141115Y-115386231D01*
X150613202Y-115385771D01*
X150125297Y-115587369D01*
X149798240Y-115913856D01*
X149882458Y-115683664D01*
X149856839Y-115073540D01*
X149672643Y-114628852D01*
X149416159Y-114542446D01*
X148515605Y-115443000D01*
X148156395Y-115443000D01*
X147255841Y-114542446D01*
X146999357Y-114628852D01*
X146789542Y-115202336D01*
X143210000Y-115202336D01*
X143210000Y-114358691D01*
X143113327Y-114125302D01*
X142971185Y-113983159D01*
X147435446Y-113983159D01*
X147499401Y-114173000D01*
X147435446Y-114362841D01*
X148336000Y-115263395D01*
X149236554Y-114362841D01*
X149172599Y-114173000D01*
X149236554Y-113983159D01*
X148336000Y-113082605D01*
X147435446Y-113983159D01*
X142971185Y-113983159D01*
X142934699Y-113946673D01*
X142701310Y-113850000D01*
X140360750Y-113850000D01*
X140202000Y-114008750D01*
X139948000Y-114008750D01*
X139789250Y-113850000D01*
X137448690Y-113850000D01*
X137215301Y-113946673D01*
X137036673Y-114125302D01*
X136940000Y-114358691D01*
X132605415Y-114358691D01*
X132580591Y-114226763D01*
X132487073Y-114081433D01*
X132344381Y-113983936D01*
X132175000Y-113949635D01*
X127175000Y-113949635D01*
X127016763Y-113979409D01*
X126871433Y-114072927D01*
X126773936Y-114215619D01*
X126739635Y-114385000D01*
X122880170Y-114385000D01*
X122800589Y-114305280D01*
X122892927Y-114055532D01*
X121920000Y-113082605D01*
X120947073Y-114055532D01*
X121039532Y-114305608D01*
X120710953Y-114633614D01*
X120493248Y-115157907D01*
X120492752Y-115725603D01*
X120307000Y-115725603D01*
X120307000Y-113309840D01*
X120500613Y-113777264D01*
X120767468Y-113875927D01*
X121740395Y-112903000D01*
X122099605Y-112903000D01*
X123072532Y-113875927D01*
X123339387Y-113777264D01*
X123565908Y-113167539D01*
X123547214Y-112662336D01*
X146789542Y-112662336D01*
X146815161Y-113272460D01*
X146999357Y-113717148D01*
X147255841Y-113803554D01*
X148156395Y-112903000D01*
X148515605Y-112903000D01*
X149416159Y-113803554D01*
X149672643Y-113717148D01*
X149882458Y-113143664D01*
X149856839Y-112533540D01*
X149672643Y-112088852D01*
X149416159Y-112002446D01*
X148515605Y-112903000D01*
X148156395Y-112903000D01*
X147255841Y-112002446D01*
X146999357Y-112088852D01*
X146789542Y-112662336D01*
X123547214Y-112662336D01*
X123541856Y-112517540D01*
X123339387Y-112028736D01*
X123072532Y-111930073D01*
X122099605Y-112903000D01*
X121740395Y-112903000D01*
X120767468Y-111930073D01*
X120500613Y-112028736D01*
X120307000Y-112549883D01*
X120307000Y-111824062D01*
X120722381Y-111290000D01*
X120829059Y-111290000D01*
X121039411Y-111500720D01*
X120947073Y-111750468D01*
X121920000Y-112723395D01*
X122892927Y-111750468D01*
X122800468Y-111500392D01*
X123011227Y-111290000D01*
X147386359Y-111290000D01*
X147583334Y-111487319D01*
X147647920Y-111514138D01*
X147521852Y-111566357D01*
X147435446Y-111822841D01*
X148336000Y-112723395D01*
X149236554Y-111822841D01*
X149150148Y-111566357D01*
X149016728Y-111517544D01*
X149086703Y-111488631D01*
X149460319Y-111115666D01*
X149662769Y-110628115D01*
X149663229Y-110100202D01*
X149461631Y-109612297D01*
X149088666Y-109238681D01*
X148737567Y-109092891D01*
X149086703Y-108948631D01*
X149460319Y-108575666D01*
X149662769Y-108088115D01*
X149663229Y-107560202D01*
X149461631Y-107072297D01*
X149088666Y-106698681D01*
X148737567Y-106552891D01*
X149086703Y-106408631D01*
X149460319Y-106035666D01*
X149662769Y-105548115D01*
X149663229Y-105020202D01*
X149461631Y-104532297D01*
X149088666Y-104158681D01*
X148737567Y-104012891D01*
X149086703Y-103868631D01*
X149460319Y-103495666D01*
X149662769Y-103008115D01*
X149663229Y-102480202D01*
X149461631Y-101992297D01*
X149088666Y-101618681D01*
X148601115Y-101416231D01*
X148073202Y-101415771D01*
X147585297Y-101617369D01*
X147211681Y-101990334D01*
X147180262Y-102066000D01*
X123355365Y-102066000D01*
X123355365Y-101743000D01*
X123325591Y-101584763D01*
X123232073Y-101439433D01*
X123089381Y-101341936D01*
X122920000Y-101307635D01*
X120920000Y-101307635D01*
X120761763Y-101337409D01*
X120616433Y-101430927D01*
X120518936Y-101573619D01*
X120484635Y-101743000D01*
X120484635Y-103743000D01*
X120514409Y-103901237D01*
X120607927Y-104046567D01*
X120750619Y-104144064D01*
X120920000Y-104178365D01*
X121006718Y-104178365D01*
X120710953Y-104473614D01*
X120493248Y-104997907D01*
X120492752Y-105565603D01*
X120709543Y-106090275D01*
X121110614Y-106492047D01*
X121257118Y-106552881D01*
X121112725Y-106612543D01*
X120710953Y-107013614D01*
X120493248Y-107537907D01*
X120492752Y-108105603D01*
X120709543Y-108630275D01*
X121110614Y-109032047D01*
X121257118Y-109092881D01*
X121112725Y-109152543D01*
X120828773Y-109436000D01*
X120269000Y-109436000D01*
X120211995Y-109447339D01*
X120154020Y-109443158D01*
X120036107Y-109482325D01*
X119914252Y-109506564D01*
X119865924Y-109538856D01*
X119810765Y-109557178D01*
X119716821Y-109638483D01*
X119613512Y-109707512D01*
X119581219Y-109755841D01*
X119537271Y-109793877D01*
X118648270Y-110936877D01*
X118592589Y-111047949D01*
X118523564Y-111151252D01*
X118512225Y-111208258D01*
X118486176Y-111260220D01*
X118477239Y-111384145D01*
X118453000Y-111506000D01*
X117281960Y-111506000D01*
X117281960Y-98882387D01*
X123559822Y-98882387D01*
X123715844Y-99259989D01*
X124004492Y-99549140D01*
X124381821Y-99705821D01*
X124790387Y-99706178D01*
X124968115Y-99632742D01*
X126156844Y-99710046D01*
X126187083Y-99706049D01*
X126217000Y-99712000D01*
X126839635Y-99712000D01*
X126839635Y-101285000D01*
X126869409Y-101443237D01*
X126962927Y-101588567D01*
X127105619Y-101686064D01*
X127275000Y-101720365D01*
X132275000Y-101720365D01*
X132433237Y-101690591D01*
X132578567Y-101597073D01*
X132676064Y-101454381D01*
X132710365Y-101285000D01*
X132710365Y-99070750D01*
X136940000Y-99070750D01*
X136940000Y-101411309D01*
X137036673Y-101644698D01*
X137215301Y-101823327D01*
X137448690Y-101920000D01*
X139789250Y-101920000D01*
X139948000Y-101761250D01*
X139948000Y-98912000D01*
X140202000Y-98912000D01*
X140202000Y-101761250D01*
X140360750Y-101920000D01*
X142701310Y-101920000D01*
X142934699Y-101823327D01*
X143113327Y-101644698D01*
X143210000Y-101411309D01*
X143210000Y-99070750D01*
X143051250Y-98912000D01*
X140202000Y-98912000D01*
X139948000Y-98912000D01*
X137098750Y-98912000D01*
X136940000Y-99070750D01*
X132710365Y-99070750D01*
X132710365Y-96285000D01*
X132686599Y-96158691D01*
X136940000Y-96158691D01*
X136940000Y-98499250D01*
X137098750Y-98658000D01*
X139948000Y-98658000D01*
X139948000Y-95808750D01*
X140202000Y-95808750D01*
X140202000Y-98658000D01*
X143051250Y-98658000D01*
X143210000Y-98499250D01*
X143210000Y-96158691D01*
X143113327Y-95925302D01*
X142934699Y-95746673D01*
X142701310Y-95650000D01*
X140360750Y-95650000D01*
X140202000Y-95808750D01*
X139948000Y-95808750D01*
X139789250Y-95650000D01*
X137448690Y-95650000D01*
X137215301Y-95746673D01*
X137036673Y-95925302D01*
X136940000Y-96158691D01*
X132686599Y-96158691D01*
X132680591Y-96126763D01*
X132587073Y-95981433D01*
X132444381Y-95883936D01*
X132275000Y-95849635D01*
X127275000Y-95849635D01*
X127116763Y-95879409D01*
X126971433Y-95972927D01*
X126873936Y-96115619D01*
X126839635Y-96285000D01*
X126839635Y-97858000D01*
X126247109Y-97858000D01*
X125109723Y-97784035D01*
X124792179Y-97652179D01*
X124383613Y-97651822D01*
X124006011Y-97807844D01*
X123716860Y-98096492D01*
X123560179Y-98473821D01*
X123559822Y-98882387D01*
X117281960Y-98882387D01*
X117281960Y-83464279D01*
X152427282Y-83464279D01*
X152453685Y-84054458D01*
X152628741Y-84477080D01*
X152880042Y-84557353D01*
X153744395Y-83693000D01*
X154103605Y-83693000D01*
X154967958Y-84557353D01*
X155219259Y-84477080D01*
X155420718Y-83921721D01*
X155394315Y-83331542D01*
X155219259Y-82908920D01*
X154967958Y-82828647D01*
X154103605Y-83693000D01*
X153744395Y-83693000D01*
X152880042Y-82828647D01*
X152628741Y-82908920D01*
X152427282Y-83464279D01*
X117281960Y-83464279D01*
X117281960Y-60687469D01*
X119968794Y-60687469D01*
X120149427Y-61124635D01*
X120481000Y-61456786D01*
X120481000Y-61468000D01*
X120532534Y-61727077D01*
X120583127Y-61802794D01*
X120656558Y-61912692D01*
X120485365Y-61983427D01*
X120150603Y-62317606D01*
X119969207Y-62754456D01*
X119968794Y-63227469D01*
X120149427Y-63664635D01*
X120483606Y-63999397D01*
X120828124Y-64142453D01*
X120679290Y-64291288D01*
X120679289Y-64291289D01*
X120538982Y-64501273D01*
X120485365Y-64523427D01*
X120150603Y-64857606D01*
X119969207Y-65294456D01*
X119968794Y-65767469D01*
X120149427Y-66204635D01*
X120483606Y-66539397D01*
X120920456Y-66720793D01*
X121393469Y-66721206D01*
X121830635Y-66540573D01*
X122165397Y-66206394D01*
X122346793Y-65769544D01*
X122347206Y-65296531D01*
X122199477Y-64939000D01*
X130276805Y-64939000D01*
X130129207Y-65294456D01*
X130128794Y-65767469D01*
X130309427Y-66204635D01*
X130643606Y-66539397D01*
X131080456Y-66720793D01*
X131553469Y-66721206D01*
X131730597Y-66648019D01*
X132363289Y-67280711D01*
X132582923Y-67427466D01*
X132842000Y-67479000D01*
X133324805Y-67479000D01*
X133177207Y-67834456D01*
X133176797Y-68303780D01*
X132363289Y-69117289D01*
X132216534Y-69336923D01*
X132165000Y-69596000D01*
X132165000Y-69777510D01*
X131992394Y-69604603D01*
X131555544Y-69423207D01*
X131082531Y-69422794D01*
X130645365Y-69603427D01*
X130310603Y-69937606D01*
X130129207Y-70374456D01*
X130128794Y-70847469D01*
X130276523Y-71205000D01*
X124232422Y-71205000D01*
X123613000Y-70585578D01*
X123613000Y-70104000D01*
X123594423Y-70010607D01*
X123561467Y-69844924D01*
X123414711Y-69625289D01*
X122274080Y-68484658D01*
X122346793Y-68309544D01*
X122346794Y-68307469D01*
X130128794Y-68307469D01*
X130309427Y-68744635D01*
X130643606Y-69079397D01*
X131080456Y-69260793D01*
X131553469Y-69261206D01*
X131990635Y-69080573D01*
X132325397Y-68746394D01*
X132506793Y-68309544D01*
X132507206Y-67836531D01*
X132326573Y-67399365D01*
X131992394Y-67064603D01*
X131555544Y-66883207D01*
X131082531Y-66882794D01*
X130645365Y-67063427D01*
X130310603Y-67397606D01*
X130129207Y-67834456D01*
X130128794Y-68307469D01*
X122346794Y-68307469D01*
X122347206Y-67836531D01*
X122166573Y-67399365D01*
X121832394Y-67064603D01*
X121395544Y-66883207D01*
X120922531Y-66882794D01*
X120485365Y-67063427D01*
X120150603Y-67397606D01*
X119969207Y-67834456D01*
X119968794Y-68307469D01*
X120149427Y-68744635D01*
X120483606Y-69079397D01*
X120920456Y-69260793D01*
X121135559Y-69260981D01*
X121297700Y-69423122D01*
X120922531Y-69422794D01*
X120485365Y-69603427D01*
X120150603Y-69937606D01*
X119969207Y-70374456D01*
X119968794Y-70847469D01*
X120149427Y-71284635D01*
X120483606Y-71619397D01*
X120920456Y-71800793D01*
X121135559Y-71800981D01*
X122457289Y-73122711D01*
X122676924Y-73269467D01*
X122936000Y-73321000D01*
X133604000Y-73321000D01*
X133863077Y-73269466D01*
X134082711Y-73122711D01*
X134366000Y-72839422D01*
X134649289Y-73122711D01*
X134868924Y-73269467D01*
X135128000Y-73321000D01*
X146812000Y-73321000D01*
X147071077Y-73269466D01*
X147290711Y-73122711D01*
X147574000Y-72839422D01*
X147857289Y-73122711D01*
X148076924Y-73269467D01*
X148336000Y-73321000D01*
X153755000Y-73321000D01*
X153755000Y-73717635D01*
X153729000Y-73717635D01*
X153570763Y-73747409D01*
X153425433Y-73840927D01*
X153327936Y-73983619D01*
X153293635Y-74153000D01*
X153293635Y-75453000D01*
X153323409Y-75611237D01*
X153416927Y-75756567D01*
X153559619Y-75854064D01*
X153729000Y-75888365D01*
X155229000Y-75888365D01*
X155387237Y-75858591D01*
X155532567Y-75765073D01*
X155630064Y-75622381D01*
X155664365Y-75453000D01*
X155664365Y-74153000D01*
X155993635Y-74153000D01*
X155993635Y-75453000D01*
X156023409Y-75611237D01*
X156116927Y-75756567D01*
X156259619Y-75854064D01*
X156429000Y-75888365D01*
X157306943Y-75888365D01*
X158554665Y-77136088D01*
X158554665Y-78901290D01*
X158584439Y-79059527D01*
X158677957Y-79204857D01*
X158820649Y-79302354D01*
X158990030Y-79336655D01*
X159790130Y-79336655D01*
X159948367Y-79306881D01*
X160093697Y-79213363D01*
X160191194Y-79070671D01*
X160225495Y-78901290D01*
X160225495Y-77100430D01*
X160195721Y-76942193D01*
X160102203Y-76796863D01*
X159994214Y-76723077D01*
X159929827Y-76626716D01*
X159868791Y-76535368D01*
X158364365Y-75030943D01*
X158364365Y-74153000D01*
X158334591Y-73994763D01*
X158241073Y-73849433D01*
X158098381Y-73751936D01*
X157929000Y-73717635D01*
X156429000Y-73717635D01*
X156270763Y-73747409D01*
X156125433Y-73840927D01*
X156027936Y-73983619D01*
X155993635Y-74153000D01*
X155664365Y-74153000D01*
X155634591Y-73994763D01*
X155541073Y-73849433D01*
X155398381Y-73751936D01*
X155229000Y-73717635D01*
X155109000Y-73717635D01*
X155109000Y-73321000D01*
X160274000Y-73321000D01*
X160533077Y-73269466D01*
X160752711Y-73122711D01*
X160782000Y-73093423D01*
X160811288Y-73122711D01*
X160856465Y-73152897D01*
X161030923Y-73269466D01*
X161290000Y-73321000D01*
X162363635Y-73321000D01*
X162363635Y-74205692D01*
X162314800Y-74451200D01*
X162314800Y-77009989D01*
X162288183Y-77027117D01*
X162190686Y-77169809D01*
X162156385Y-77339190D01*
X162156385Y-79140050D01*
X162186159Y-79298287D01*
X162279677Y-79443617D01*
X162422369Y-79541114D01*
X162591750Y-79575415D01*
X163391850Y-79575415D01*
X163550087Y-79545641D01*
X163695417Y-79452123D01*
X163792914Y-79309431D01*
X163827215Y-79140050D01*
X163827215Y-77339190D01*
X163797441Y-77180953D01*
X163703923Y-77035623D01*
X163668800Y-77011625D01*
X163668800Y-75179365D01*
X164099000Y-75179365D01*
X164257237Y-75149591D01*
X164402567Y-75056073D01*
X164500064Y-74913381D01*
X164534365Y-74744000D01*
X164534365Y-73321000D01*
X172837530Y-73321000D01*
X170467890Y-75690640D01*
X168414700Y-75690640D01*
X168155624Y-75742173D01*
X167935989Y-75888928D01*
X166870293Y-76954625D01*
X166091870Y-76954625D01*
X165933633Y-76984399D01*
X165788303Y-77077917D01*
X165690806Y-77220609D01*
X165656505Y-77389990D01*
X165656505Y-79190850D01*
X165686279Y-79349087D01*
X165779797Y-79494417D01*
X165922489Y-79591914D01*
X166091870Y-79626215D01*
X166891970Y-79626215D01*
X167050207Y-79596441D01*
X167195537Y-79502923D01*
X167293034Y-79360231D01*
X167327335Y-79190850D01*
X167327335Y-78412427D01*
X168695123Y-77044640D01*
X169428850Y-77044640D01*
X169343326Y-77169809D01*
X169309025Y-77339190D01*
X169309025Y-79140050D01*
X169338799Y-79298287D01*
X169432317Y-79443617D01*
X169575009Y-79541114D01*
X169744390Y-79575415D01*
X170544490Y-79575415D01*
X170702727Y-79545641D01*
X170848057Y-79452123D01*
X170945554Y-79309431D01*
X170979855Y-79140050D01*
X170979855Y-78361627D01*
X175201967Y-74139515D01*
X175577845Y-74515393D01*
X175710789Y-74606229D01*
X175879681Y-74642866D01*
X176049520Y-74610909D01*
X176193545Y-74515393D01*
X177254205Y-73454733D01*
X177345041Y-73321789D01*
X177381678Y-73152897D01*
X177349721Y-72983058D01*
X177254205Y-72839033D01*
X176334967Y-71919795D01*
X176227208Y-71846167D01*
X176495468Y-71577907D01*
X176567795Y-71686967D01*
X177487033Y-72606205D01*
X177619977Y-72697041D01*
X177788869Y-72733678D01*
X177958708Y-72701721D01*
X178102733Y-72606205D01*
X179012760Y-71696178D01*
X179012760Y-72267058D01*
X176290218Y-74989600D01*
X176141380Y-74989600D01*
X175882303Y-75041134D01*
X175675426Y-75179365D01*
X175662669Y-75187889D01*
X173834973Y-77015585D01*
X173056550Y-77015585D01*
X172898313Y-77045359D01*
X172752983Y-77138877D01*
X172655486Y-77281569D01*
X172621185Y-77450950D01*
X172621185Y-79251810D01*
X172650959Y-79410047D01*
X172744477Y-79555377D01*
X172887169Y-79652874D01*
X173056550Y-79687175D01*
X173856650Y-79687175D01*
X174014887Y-79657401D01*
X174160217Y-79563883D01*
X174257714Y-79421191D01*
X174292015Y-79251810D01*
X174292015Y-78473387D01*
X176421802Y-76343600D01*
X176570640Y-76343600D01*
X176829717Y-76292066D01*
X177049351Y-76145311D01*
X177371920Y-75822742D01*
X177371920Y-76780637D01*
X177106492Y-77046065D01*
X176637950Y-77046065D01*
X176479713Y-77075839D01*
X176334383Y-77169357D01*
X176236886Y-77312049D01*
X176202585Y-77481430D01*
X176202585Y-77993408D01*
X176143294Y-78082144D01*
X176091760Y-78341220D01*
X176143294Y-78600296D01*
X176202585Y-78689032D01*
X176202585Y-79282290D01*
X176232359Y-79440527D01*
X176325877Y-79585857D01*
X176468569Y-79683354D01*
X176637950Y-79717655D01*
X177438050Y-79717655D01*
X177596287Y-79687881D01*
X177741617Y-79594363D01*
X177839114Y-79451671D01*
X177873415Y-79282290D01*
X177873415Y-78193987D01*
X178527632Y-77539771D01*
X178674387Y-77320136D01*
X178725920Y-77061060D01*
X178725920Y-75916542D01*
X180066702Y-74575760D01*
X180153440Y-74575760D01*
X180095433Y-74613087D01*
X179997936Y-74755779D01*
X179963635Y-74925160D01*
X179963635Y-76225160D01*
X179993409Y-76383397D01*
X180086927Y-76528727D01*
X180229619Y-76626224D01*
X180399000Y-76660525D01*
X180472000Y-76660525D01*
X180472000Y-77069374D01*
X180403463Y-77113477D01*
X180305966Y-77256169D01*
X180271665Y-77425550D01*
X180271665Y-79226410D01*
X180301439Y-79384647D01*
X180394957Y-79529977D01*
X180537649Y-79627474D01*
X180707030Y-79661775D01*
X181507130Y-79661775D01*
X181665367Y-79632001D01*
X181810697Y-79538483D01*
X181908194Y-79395791D01*
X181942495Y-79226410D01*
X181942495Y-77425550D01*
X181912721Y-77267313D01*
X181826000Y-77132546D01*
X181826000Y-76660525D01*
X181899000Y-76660525D01*
X182057237Y-76630751D01*
X182202567Y-76537233D01*
X182300064Y-76394541D01*
X182334365Y-76225160D01*
X182334365Y-74925160D01*
X182304591Y-74766923D01*
X182211073Y-74621593D01*
X182068381Y-74524096D01*
X181899000Y-74489795D01*
X180523607Y-74489795D01*
X180691711Y-74377471D01*
X182215711Y-72853472D01*
X182355675Y-72644000D01*
X182362466Y-72633837D01*
X182414000Y-72374760D01*
X182414000Y-69332285D01*
X182545237Y-69307591D01*
X182690567Y-69214073D01*
X182788064Y-69071381D01*
X182822365Y-68902000D01*
X182822365Y-67479000D01*
X183108805Y-67479000D01*
X182961207Y-67834456D01*
X182960794Y-68307469D01*
X183141427Y-68744635D01*
X183475606Y-69079397D01*
X183912456Y-69260793D01*
X184385469Y-69261206D01*
X184822635Y-69080573D01*
X184870000Y-69033290D01*
X184870000Y-69650289D01*
X184824394Y-69604603D01*
X184387544Y-69423207D01*
X183914531Y-69422794D01*
X183477365Y-69603427D01*
X183142603Y-69937606D01*
X182961207Y-70374456D01*
X182960794Y-70847469D01*
X183141427Y-71284635D01*
X183475606Y-71619397D01*
X183912456Y-71800793D01*
X184385469Y-71801206D01*
X184822635Y-71620573D01*
X184870000Y-71573290D01*
X184870000Y-72505096D01*
X183436659Y-74489795D01*
X183099000Y-74489795D01*
X182940763Y-74519569D01*
X182795433Y-74613087D01*
X182697936Y-74755779D01*
X182663635Y-74925160D01*
X182663635Y-76225160D01*
X182693409Y-76383397D01*
X182786927Y-76528727D01*
X182929619Y-76626224D01*
X183099000Y-76660525D01*
X184599000Y-76660525D01*
X184757237Y-76630751D01*
X184902567Y-76537233D01*
X185000064Y-76394541D01*
X185034365Y-76225160D01*
X185034365Y-74925160D01*
X185004591Y-74766923D01*
X184958467Y-74695245D01*
X186095837Y-73120368D01*
X186128652Y-73048649D01*
X186172466Y-72983077D01*
X186183088Y-72929676D01*
X186205742Y-72880165D01*
X186208614Y-72801352D01*
X186224000Y-72724000D01*
X186224000Y-58928000D01*
X186172466Y-58668923D01*
X186025711Y-58449289D01*
X185339131Y-57762709D01*
X185339206Y-57676531D01*
X185158573Y-57239365D01*
X184827000Y-56907214D01*
X184827000Y-56896000D01*
X184775467Y-56636924D01*
X184628711Y-56417289D01*
X183866711Y-55655289D01*
X183647077Y-55508534D01*
X183388000Y-55457000D01*
X171704000Y-55457000D01*
X171444924Y-55508533D01*
X171225289Y-55655289D01*
X170942000Y-55938578D01*
X170658711Y-55655289D01*
X170439077Y-55508534D01*
X170180000Y-55457000D01*
X158242000Y-55457000D01*
X157982923Y-55508534D01*
X157873106Y-55581911D01*
X157763288Y-55655289D01*
X157734000Y-55684577D01*
X157704711Y-55655289D01*
X157485077Y-55508534D01*
X157226000Y-55457000D01*
X145034000Y-55457000D01*
X144774923Y-55508534D01*
X144665106Y-55581911D01*
X144555288Y-55655289D01*
X144399000Y-55811578D01*
X144242711Y-55655289D01*
X144023077Y-55508534D01*
X143764000Y-55457000D01*
X131826000Y-55457000D01*
X131566923Y-55508534D01*
X131457106Y-55581911D01*
X131347288Y-55655289D01*
X130839290Y-56163288D01*
X130839289Y-56163289D01*
X130692534Y-56382923D01*
X130641000Y-56642000D01*
X130641000Y-56907784D01*
X130310603Y-57237606D01*
X130129207Y-57674456D01*
X130128794Y-58147469D01*
X130309427Y-58584635D01*
X130643606Y-58919397D01*
X130988124Y-59062453D01*
X130839290Y-59211288D01*
X130839289Y-59211289D01*
X130698982Y-59421273D01*
X130645365Y-59443427D01*
X130310603Y-59777606D01*
X130129207Y-60214456D01*
X130128794Y-60687469D01*
X130276523Y-61045000D01*
X122199195Y-61045000D01*
X122346793Y-60689544D01*
X122347206Y-60216531D01*
X122166573Y-59779365D01*
X121832394Y-59444603D01*
X121395544Y-59263207D01*
X120922531Y-59262794D01*
X120485365Y-59443427D01*
X120150603Y-59777606D01*
X119969207Y-60214456D01*
X119968794Y-60687469D01*
X117281960Y-60687469D01*
X117281960Y-58147469D01*
X119968794Y-58147469D01*
X120149427Y-58584635D01*
X120483606Y-58919397D01*
X120920456Y-59100793D01*
X121393469Y-59101206D01*
X121830635Y-58920573D01*
X122165397Y-58586394D01*
X122346793Y-58149544D01*
X122347206Y-57676531D01*
X122166573Y-57239365D01*
X121832394Y-56904603D01*
X121395544Y-56723207D01*
X120922531Y-56722794D01*
X120485365Y-56903427D01*
X120150603Y-57237606D01*
X119969207Y-57674456D01*
X119968794Y-58147469D01*
X117281960Y-58147469D01*
X117281960Y-52680061D01*
X187258500Y-52933599D01*
X187258500Y-52933599D01*
G37*
X187258500Y-52933599D02*
X187258960Y-52933600D01*
X188401960Y-52933600D01*
X188401960Y-140817147D01*
X117281960Y-140564051D01*
X117281960Y-111506000D01*
X118453000Y-111506000D01*
X118453000Y-122555000D01*
X118476443Y-122672856D01*
X118484016Y-122792784D01*
X118511418Y-122848686D01*
X118523564Y-122909748D01*
X118590325Y-123009663D01*
X118643215Y-123117563D01*
X123374000Y-129313440D01*
X123374000Y-135841635D01*
X122801000Y-135841635D01*
X122642763Y-135871409D01*
X122497433Y-135964927D01*
X122399936Y-136107619D01*
X122365635Y-136277000D01*
X122365635Y-139277000D01*
X122395409Y-139435237D01*
X122488927Y-139580567D01*
X122631619Y-139678064D01*
X122801000Y-139712365D01*
X125801000Y-139712365D01*
X125959237Y-139682591D01*
X126104567Y-139589073D01*
X126202064Y-139446381D01*
X126236365Y-139277000D01*
X126236365Y-138158622D01*
X143373666Y-138158622D01*
X143666416Y-138867132D01*
X144208017Y-139409678D01*
X144916014Y-139703665D01*
X145682622Y-139704334D01*
X146391132Y-139411584D01*
X146933678Y-138869983D01*
X147002600Y-138704000D01*
X173119000Y-138704000D01*
X173473748Y-138633436D01*
X173774488Y-138432488D01*
X174772488Y-137434488D01*
X174800868Y-137392014D01*
X174973436Y-137133748D01*
X175044000Y-136779000D01*
X175044000Y-131318000D01*
X174973436Y-130963252D01*
X174772488Y-130662512D01*
X168864558Y-124754582D01*
X168765156Y-124514011D01*
X168476508Y-124224860D01*
X168099179Y-124068179D01*
X167690613Y-124067822D01*
X167313011Y-124223844D01*
X167023860Y-124512492D01*
X166867179Y-124889821D01*
X166866822Y-125298387D01*
X167022844Y-125675989D01*
X167311492Y-125965140D01*
X167553765Y-126065741D01*
X173190000Y-131701976D01*
X173190000Y-136395024D01*
X172735024Y-136850000D01*
X147002989Y-136850000D01*
X146935584Y-136686868D01*
X146393983Y-136144322D01*
X145685986Y-135850335D01*
X144919378Y-135849666D01*
X144210868Y-136142416D01*
X143668322Y-136684017D01*
X143374335Y-137392014D01*
X143373666Y-138158622D01*
X126236365Y-138158622D01*
X126236365Y-136277000D01*
X126206591Y-136118763D01*
X126113073Y-135973433D01*
X125970381Y-135875936D01*
X125801000Y-135841635D01*
X125228000Y-135841635D01*
X125228000Y-129000000D01*
X125204556Y-128882142D01*
X125196984Y-128762215D01*
X125169582Y-128706312D01*
X125157436Y-128645252D01*
X125090676Y-128545338D01*
X125037785Y-128437437D01*
X121871802Y-124290970D01*
X122966635Y-124290970D01*
X123126418Y-124609739D01*
X123917187Y-124919723D01*
X124766387Y-124903497D01*
X125475582Y-124609739D01*
X125635365Y-124290970D01*
X124301000Y-122956605D01*
X122966635Y-124290970D01*
X121871802Y-124290970D01*
X120422773Y-122393187D01*
X122158277Y-122393187D01*
X122174503Y-123242387D01*
X122468261Y-123951582D01*
X122787030Y-124111365D01*
X124121395Y-122777000D01*
X124480605Y-122777000D01*
X125814970Y-124111365D01*
X126133739Y-123951582D01*
X126443723Y-123160813D01*
X126427497Y-122311613D01*
X126133739Y-121602418D01*
X125814970Y-121442635D01*
X124480605Y-122777000D01*
X124121395Y-122777000D01*
X122787030Y-121442635D01*
X122468261Y-121602418D01*
X122158277Y-122393187D01*
X120422773Y-122393187D01*
X120307000Y-122241560D01*
X120307000Y-121263030D01*
X122966635Y-121263030D01*
X124301000Y-122597395D01*
X125635365Y-121263030D01*
X125475582Y-120944261D01*
X124684813Y-120634277D01*
X123835613Y-120650503D01*
X123126418Y-120944261D01*
X122966635Y-121263030D01*
X120307000Y-121263030D01*
X120307000Y-115725603D01*
X120492752Y-115725603D01*
X120709543Y-116250275D01*
X121110614Y-116652047D01*
X121634907Y-116869752D01*
X122202603Y-116870248D01*
X122727275Y-116653457D01*
X123129047Y-116252386D01*
X123346752Y-115728093D01*
X123347248Y-115160397D01*
X123130457Y-114635725D01*
X122880170Y-114385000D01*
X126739635Y-114385000D01*
X126739635Y-119385000D01*
X126769409Y-119543237D01*
X126862927Y-119688567D01*
X127005619Y-119786064D01*
X127175000Y-119820365D01*
X128748000Y-119820365D01*
X128748000Y-120277000D01*
X128818564Y-120631748D01*
X129006847Y-120913534D01*
X129019512Y-120932488D01*
X135996512Y-127909488D01*
X136297252Y-128110436D01*
X136652000Y-128181000D01*
X156210000Y-128181000D01*
X156564748Y-128110436D01*
X156865488Y-127909488D01*
X161546976Y-123228000D01*
X174840635Y-123228000D01*
X174840635Y-123301000D01*
X174870409Y-123459237D01*
X174963927Y-123604567D01*
X175106619Y-123702064D01*
X175276000Y-123736365D01*
X175362718Y-123736365D01*
X175066953Y-124031614D01*
X174849248Y-124555907D01*
X174848752Y-125123603D01*
X175065543Y-125648275D01*
X175349000Y-125932227D01*
X175349000Y-130302000D01*
X175419564Y-130656748D01*
X175521964Y-130810000D01*
X175620512Y-130957488D01*
X179938512Y-135275488D01*
X180239252Y-135476436D01*
X180594000Y-135547000D01*
X181779007Y-135547000D01*
X181933693Y-135701957D01*
X182402875Y-135896778D01*
X182910897Y-135897221D01*
X183380417Y-135703219D01*
X183423186Y-135660525D01*
X183495927Y-135773567D01*
X183638619Y-135871064D01*
X183808000Y-135905365D01*
X185508000Y-135905365D01*
X185666237Y-135875591D01*
X185811567Y-135782073D01*
X185909064Y-135639381D01*
X185943365Y-135470000D01*
X185943365Y-133770000D01*
X185913591Y-133611763D01*
X185820073Y-133466433D01*
X185677381Y-133368936D01*
X185650407Y-133363474D01*
X185669000Y-133270000D01*
X185669000Y-131758204D01*
X185773237Y-131738591D01*
X185918567Y-131645073D01*
X186016064Y-131502381D01*
X186050365Y-131333000D01*
X186050365Y-130033000D01*
X186020591Y-129874763D01*
X185927073Y-129729433D01*
X185784381Y-129631936D01*
X185615000Y-129597635D01*
X184115000Y-129597635D01*
X183956763Y-129627409D01*
X183811433Y-129720927D01*
X183713936Y-129863619D01*
X183679635Y-130033000D01*
X183679635Y-131333000D01*
X183709409Y-131491237D01*
X183802927Y-131636567D01*
X183945619Y-131734064D01*
X184115000Y-131768365D01*
X184315000Y-131768365D01*
X184315000Y-132989578D01*
X184179289Y-133125289D01*
X184039408Y-133334635D01*
X183808000Y-133334635D01*
X183649763Y-133364409D01*
X183504433Y-133457927D01*
X183422311Y-133578117D01*
X183382307Y-133538043D01*
X182913125Y-133343222D01*
X182405103Y-133342779D01*
X181935583Y-133536781D01*
X181779091Y-133693000D01*
X180977976Y-133693000D01*
X178253726Y-130968750D01*
X180780000Y-130968750D01*
X180780000Y-131459310D01*
X180876673Y-131692699D01*
X181055302Y-131871327D01*
X181288691Y-131968000D01*
X181879250Y-131968000D01*
X182038000Y-131809250D01*
X182038000Y-130810000D01*
X182292000Y-130810000D01*
X182292000Y-131809250D01*
X182450750Y-131968000D01*
X183041309Y-131968000D01*
X183274698Y-131871327D01*
X183453327Y-131692699D01*
X183550000Y-131459310D01*
X183550000Y-130968750D01*
X183391250Y-130810000D01*
X182292000Y-130810000D01*
X182038000Y-130810000D01*
X180938750Y-130810000D01*
X180780000Y-130968750D01*
X178253726Y-130968750D01*
X177203000Y-129918024D01*
X177203000Y-129906690D01*
X180780000Y-129906690D01*
X180780000Y-130397250D01*
X180938750Y-130556000D01*
X182038000Y-130556000D01*
X182038000Y-129556750D01*
X182292000Y-129556750D01*
X182292000Y-130556000D01*
X183391250Y-130556000D01*
X183550000Y-130397250D01*
X183550000Y-129906690D01*
X183453327Y-129673301D01*
X183274698Y-129494673D01*
X183041309Y-129398000D01*
X182450750Y-129398000D01*
X182292000Y-129556750D01*
X182038000Y-129556750D01*
X181879250Y-129398000D01*
X181288691Y-129398000D01*
X181055302Y-129494673D01*
X180876673Y-129673301D01*
X180780000Y-129906690D01*
X177203000Y-129906690D01*
X177203000Y-126142750D01*
X181268000Y-126142750D01*
X181268000Y-126833309D01*
X181364673Y-127066698D01*
X181543301Y-127245327D01*
X181776690Y-127342000D01*
X182467250Y-127342000D01*
X182626000Y-127183250D01*
X182626000Y-125984000D01*
X181426750Y-125984000D01*
X181268000Y-126142750D01*
X177203000Y-126142750D01*
X177203000Y-125931941D01*
X177367227Y-125768000D01*
X178562000Y-125768000D01*
X178916748Y-125697436D01*
X179217488Y-125496488D01*
X179833285Y-124880691D01*
X181268000Y-124880691D01*
X181268000Y-125571250D01*
X181426750Y-125730000D01*
X182626000Y-125730000D01*
X182626000Y-124530750D01*
X182880000Y-124530750D01*
X182880000Y-125730000D01*
X182900000Y-125730000D01*
X182900000Y-125984000D01*
X182880000Y-125984000D01*
X182880000Y-127183250D01*
X183038750Y-127342000D01*
X183729310Y-127342000D01*
X183962699Y-127245327D01*
X184141327Y-127066698D01*
X184169944Y-126997610D01*
X184497875Y-127133778D01*
X185005897Y-127134221D01*
X185475417Y-126940219D01*
X185834957Y-126581307D01*
X186029778Y-126112125D01*
X186030221Y-125604103D01*
X185923000Y-125344609D01*
X185923000Y-122497365D01*
X186123000Y-122497365D01*
X186281237Y-122467591D01*
X186426567Y-122374073D01*
X186524064Y-122231381D01*
X186558365Y-122062000D01*
X186558365Y-120762000D01*
X186528591Y-120603763D01*
X186435073Y-120458433D01*
X186292381Y-120360936D01*
X186123000Y-120326635D01*
X184623000Y-120326635D01*
X184464763Y-120356409D01*
X184319433Y-120449927D01*
X184221936Y-120592619D01*
X184187635Y-120762000D01*
X184187635Y-122062000D01*
X184217409Y-122220237D01*
X184310927Y-122365567D01*
X184453619Y-122463064D01*
X184569000Y-122486430D01*
X184569000Y-124579839D01*
X184500103Y-124579779D01*
X184169876Y-124716226D01*
X184141327Y-124647302D01*
X183962699Y-124468673D01*
X183729310Y-124372000D01*
X183038750Y-124372000D01*
X182880000Y-124530750D01*
X182626000Y-124530750D01*
X182467250Y-124372000D01*
X181776690Y-124372000D01*
X181543301Y-124468673D01*
X181364673Y-124647302D01*
X181268000Y-124880691D01*
X179833285Y-124880691D01*
X180487488Y-124226488D01*
X180526568Y-124168000D01*
X180688436Y-123925748D01*
X180759000Y-123571000D01*
X180759000Y-121158000D01*
X180754114Y-121133436D01*
X180688437Y-120803253D01*
X180487488Y-120502512D01*
X179725488Y-119740512D01*
X179628939Y-119676000D01*
X180948578Y-119676000D01*
X181682148Y-120409571D01*
X181619433Y-120449927D01*
X181521936Y-120592619D01*
X181487635Y-120762000D01*
X181487635Y-122062000D01*
X181517409Y-122220237D01*
X181610927Y-122365567D01*
X181753619Y-122463064D01*
X181923000Y-122497365D01*
X183423000Y-122497365D01*
X183581237Y-122467591D01*
X183726567Y-122374073D01*
X183824064Y-122231381D01*
X183858365Y-122062000D01*
X183858365Y-120762000D01*
X183828591Y-120603763D01*
X183735073Y-120458433D01*
X183592381Y-120360936D01*
X183423000Y-120326635D01*
X183289202Y-120326635D01*
X183251466Y-120136923D01*
X183108028Y-119922253D01*
X183104711Y-119917288D01*
X181707711Y-118520289D01*
X181488077Y-118373534D01*
X181229000Y-118322000D01*
X162967423Y-118322000D01*
X162135682Y-117490260D01*
X162160319Y-117465666D01*
X162306109Y-117114567D01*
X162450369Y-117463703D01*
X162823334Y-117837319D01*
X163310885Y-118039769D01*
X163838798Y-118040229D01*
X164326703Y-117838631D01*
X164700319Y-117465666D01*
X164846109Y-117114567D01*
X164990369Y-117463703D01*
X165363334Y-117837319D01*
X165850885Y-118039769D01*
X166378798Y-118040229D01*
X166866703Y-117838631D01*
X167240319Y-117465666D01*
X167386109Y-117114567D01*
X167530369Y-117463703D01*
X167903334Y-117837319D01*
X168390885Y-118039769D01*
X168918798Y-118040229D01*
X169406703Y-117838631D01*
X169780319Y-117465666D01*
X169926109Y-117114567D01*
X170070369Y-117463703D01*
X170443334Y-117837319D01*
X170930885Y-118039769D01*
X171458798Y-118040229D01*
X171946703Y-117838631D01*
X172320319Y-117465666D01*
X172466109Y-117114567D01*
X172610369Y-117463703D01*
X172983334Y-117837319D01*
X173470885Y-118039769D01*
X173998798Y-118040229D01*
X174486703Y-117838631D01*
X174860319Y-117465666D01*
X175006109Y-117114567D01*
X175150369Y-117463703D01*
X175523334Y-117837319D01*
X176010885Y-118039769D01*
X176538798Y-118040229D01*
X177026703Y-117838631D01*
X177400319Y-117465666D01*
X177546109Y-117114567D01*
X177690369Y-117463703D01*
X178063334Y-117837319D01*
X178550885Y-118039769D01*
X179078798Y-118040229D01*
X179566703Y-117838631D01*
X179940319Y-117465666D01*
X180142769Y-116978115D01*
X180143229Y-116450202D01*
X179941631Y-115962297D01*
X179718723Y-115739000D01*
X183261000Y-115739000D01*
X183520077Y-115687466D01*
X183739711Y-115540711D01*
X184628711Y-114651711D01*
X184775466Y-114432077D01*
X184827000Y-114173000D01*
X184827000Y-111126392D01*
X184896000Y-111140365D01*
X185796000Y-111140365D01*
X185954237Y-111110591D01*
X186099567Y-111017073D01*
X186197064Y-110874381D01*
X186231365Y-110705000D01*
X186231365Y-110532000D01*
X186309000Y-110532000D01*
X186568077Y-110480466D01*
X186787711Y-110333711D01*
X187422712Y-109698711D01*
X187569467Y-109479076D01*
X187621000Y-109220000D01*
X187621000Y-94120312D01*
X187814140Y-93927508D01*
X187970821Y-93550179D01*
X187971178Y-93141613D01*
X187815156Y-92764011D01*
X187526508Y-92474860D01*
X187149179Y-92318179D01*
X186740613Y-92317822D01*
X186363011Y-92473844D01*
X186073860Y-92762492D01*
X186023000Y-92884976D01*
X186023000Y-88784083D01*
X186131387Y-88784178D01*
X186508989Y-88628156D01*
X186798140Y-88339508D01*
X186954821Y-87962179D01*
X186955178Y-87553613D01*
X186799156Y-87176011D01*
X186510508Y-86886860D01*
X186133179Y-86730179D01*
X185724613Y-86729822D01*
X185347011Y-86885844D01*
X185057860Y-87174492D01*
X184901179Y-87551821D01*
X184900939Y-87826639D01*
X184867289Y-87860289D01*
X184720534Y-88079923D01*
X184669000Y-88339000D01*
X184669000Y-95847585D01*
X184628711Y-95787288D01*
X182757922Y-93916500D01*
X183993711Y-92680711D01*
X184002204Y-92668000D01*
X184140466Y-92461077D01*
X184192000Y-92202000D01*
X184192000Y-82786180D01*
X184140466Y-82527103D01*
X183993711Y-82307469D01*
X182892495Y-81206253D01*
X182892495Y-80427830D01*
X182862721Y-80269593D01*
X182769203Y-80124263D01*
X182626511Y-80026766D01*
X182457130Y-79992465D01*
X181657030Y-79992465D01*
X181498793Y-80022239D01*
X181353463Y-80115757D01*
X181255966Y-80258449D01*
X181221665Y-80427830D01*
X181221665Y-82228690D01*
X181251439Y-82386927D01*
X181344957Y-82532257D01*
X181487649Y-82629754D01*
X181657030Y-82664055D01*
X182435453Y-82664055D01*
X182838000Y-83066602D01*
X182838000Y-91921578D01*
X182133365Y-92626213D01*
X182133365Y-92080000D01*
X182103591Y-91921763D01*
X182010073Y-91776433D01*
X181867381Y-91678936D01*
X181698000Y-91644635D01*
X181248057Y-91644635D01*
X179180422Y-89577000D01*
X180186578Y-89577000D01*
X180329060Y-89719482D01*
X180328822Y-89992387D01*
X180484844Y-90369989D01*
X180773492Y-90659140D01*
X181150821Y-90815821D01*
X181559387Y-90816178D01*
X181936989Y-90660156D01*
X182226140Y-90371508D01*
X182382821Y-89994179D01*
X182383178Y-89585613D01*
X182227156Y-89208011D01*
X181938508Y-88918860D01*
X181561179Y-88762179D01*
X181286361Y-88761939D01*
X180945711Y-88421289D01*
X180823317Y-88339508D01*
X180726077Y-88274534D01*
X180467000Y-88223000D01*
X169164000Y-88223000D01*
X168904923Y-88274534D01*
X168875358Y-88294289D01*
X168685288Y-88421289D01*
X167161289Y-89945289D01*
X167014534Y-90164923D01*
X166963000Y-90424000D01*
X166963000Y-90787401D01*
X166839381Y-90702936D01*
X166670000Y-90668635D01*
X166070000Y-90668635D01*
X165911763Y-90698409D01*
X165766433Y-90791927D01*
X165668936Y-90934619D01*
X165634635Y-91104000D01*
X165634635Y-92604000D01*
X165664409Y-92762237D01*
X165757927Y-92907567D01*
X165900619Y-93005064D01*
X166070000Y-93039365D01*
X166670000Y-93039365D01*
X166828237Y-93009591D01*
X166963000Y-92922873D01*
X166963000Y-94700000D01*
X162192533Y-94700000D01*
X162126508Y-94633860D01*
X161749179Y-94477179D01*
X161340613Y-94476822D01*
X160963011Y-94632844D01*
X160673860Y-94921492D01*
X160517179Y-95298821D01*
X160516822Y-95707387D01*
X160672844Y-96084989D01*
X160961492Y-96374140D01*
X161338821Y-96530821D01*
X161747387Y-96531178D01*
X162124989Y-96375156D01*
X162414140Y-96086508D01*
X162427639Y-96054000D01*
X167039205Y-96054000D01*
X167080378Y-96115619D01*
X167161289Y-96236711D01*
X167796289Y-96871712D01*
X167886519Y-96932001D01*
X167915014Y-96954117D01*
X167979000Y-97338032D01*
X167979000Y-100316916D01*
X167905297Y-100347369D01*
X167531681Y-100720334D01*
X167385891Y-101071433D01*
X167241631Y-100722297D01*
X166868666Y-100348681D01*
X166381115Y-100146231D01*
X165853202Y-100145771D01*
X165365297Y-100347369D01*
X164991681Y-100720334D01*
X164845891Y-101071433D01*
X164701631Y-100722297D01*
X164328666Y-100348681D01*
X163841115Y-100146231D01*
X163313202Y-100145771D01*
X162825297Y-100347369D01*
X162451681Y-100720334D01*
X162305891Y-101071433D01*
X162161631Y-100722297D01*
X161788666Y-100348681D01*
X161301115Y-100146231D01*
X160773202Y-100145771D01*
X160285297Y-100347369D01*
X159911681Y-100720334D01*
X159808000Y-100970024D01*
X159808000Y-86739750D01*
X165435000Y-86739750D01*
X165435000Y-87330309D01*
X165531673Y-87563698D01*
X165710301Y-87742327D01*
X165943690Y-87839000D01*
X166084250Y-87839000D01*
X166243000Y-87680250D01*
X166243000Y-86581000D01*
X165593750Y-86581000D01*
X165435000Y-86739750D01*
X159808000Y-86739750D01*
X159808000Y-85090000D01*
X159756466Y-84830923D01*
X159625574Y-84635029D01*
X159609711Y-84611288D01*
X156379000Y-81380578D01*
X156379000Y-81288890D01*
X157405030Y-81288890D01*
X157405030Y-82029880D01*
X157501703Y-82263269D01*
X157680332Y-82441897D01*
X157913721Y-82538570D01*
X158154330Y-82538570D01*
X158313080Y-82379820D01*
X158313080Y-81130140D01*
X158567080Y-81130140D01*
X158567080Y-82379820D01*
X158725830Y-82538570D01*
X158966439Y-82538570D01*
X159199828Y-82441897D01*
X159378457Y-82263269D01*
X159475130Y-82029880D01*
X159475130Y-81288890D01*
X159316380Y-81130140D01*
X158567080Y-81130140D01*
X158313080Y-81130140D01*
X157563780Y-81130140D01*
X157405030Y-81288890D01*
X156379000Y-81288890D01*
X156379000Y-80391000D01*
X156376349Y-80377674D01*
X156327467Y-80131924D01*
X156223549Y-79976400D01*
X157405030Y-79976400D01*
X157405030Y-80717390D01*
X157563780Y-80876140D01*
X158313080Y-80876140D01*
X158313080Y-79626460D01*
X158567080Y-79626460D01*
X158567080Y-80876140D01*
X159316380Y-80876140D01*
X159475130Y-80717390D01*
X159475130Y-80102710D01*
X159504665Y-80102710D01*
X159504665Y-81903570D01*
X159534439Y-82061807D01*
X159627957Y-82207137D01*
X159663080Y-82231135D01*
X159663080Y-84216280D01*
X159714614Y-84475357D01*
X159805441Y-84611289D01*
X159861369Y-84694991D01*
X160501409Y-85335031D01*
X160721043Y-85481786D01*
X160980120Y-85533320D01*
X165453379Y-85533320D01*
X165435000Y-85577691D01*
X165435000Y-86168250D01*
X165593750Y-86327000D01*
X166243000Y-86327000D01*
X166243000Y-86307000D01*
X166497000Y-86307000D01*
X166497000Y-86327000D01*
X166517000Y-86327000D01*
X166517000Y-86581000D01*
X166497000Y-86581000D01*
X166497000Y-87680250D01*
X166655750Y-87839000D01*
X166796310Y-87839000D01*
X167029699Y-87742327D01*
X167168446Y-87603579D01*
X167170619Y-87605064D01*
X167340000Y-87639365D01*
X167940000Y-87639365D01*
X168098237Y-87609591D01*
X168243567Y-87516073D01*
X168274381Y-87470975D01*
X168297927Y-87507567D01*
X168440619Y-87605064D01*
X168610000Y-87639365D01*
X169210000Y-87639365D01*
X169368237Y-87609591D01*
X169513567Y-87516073D01*
X169544381Y-87470975D01*
X169567927Y-87507567D01*
X169710619Y-87605064D01*
X169880000Y-87639365D01*
X170480000Y-87639365D01*
X170638237Y-87609591D01*
X170783567Y-87516073D01*
X170814381Y-87470975D01*
X170837927Y-87507567D01*
X170980619Y-87605064D01*
X171150000Y-87639365D01*
X171750000Y-87639365D01*
X171908237Y-87609591D01*
X172053567Y-87516073D01*
X172084381Y-87470975D01*
X172107927Y-87507567D01*
X172250619Y-87605064D01*
X172420000Y-87639365D01*
X173020000Y-87639365D01*
X173178237Y-87609591D01*
X173323567Y-87516073D01*
X173354381Y-87470975D01*
X173377927Y-87507567D01*
X173520619Y-87605064D01*
X173690000Y-87639365D01*
X174290000Y-87639365D01*
X174448237Y-87609591D01*
X174593567Y-87516073D01*
X174624381Y-87470975D01*
X174647927Y-87507567D01*
X174790619Y-87605064D01*
X174960000Y-87639365D01*
X175560000Y-87639365D01*
X175718237Y-87609591D01*
X175863567Y-87516073D01*
X175961064Y-87373381D01*
X175995365Y-87204000D01*
X175995365Y-85704000D01*
X175973520Y-85587902D01*
X178197471Y-83363951D01*
X178344227Y-83144316D01*
X178395760Y-82885240D01*
X178395760Y-82718484D01*
X178546287Y-82690161D01*
X178691617Y-82596643D01*
X178789114Y-82453951D01*
X178823415Y-82284570D01*
X178823415Y-81614010D01*
X179122030Y-81614010D01*
X179122030Y-82355000D01*
X179218703Y-82588389D01*
X179397332Y-82767017D01*
X179630721Y-82863690D01*
X179871330Y-82863690D01*
X180030080Y-82704940D01*
X180030080Y-81455260D01*
X180284080Y-81455260D01*
X180284080Y-82704940D01*
X180442830Y-82863690D01*
X180683439Y-82863690D01*
X180916828Y-82767017D01*
X181095457Y-82588389D01*
X181192130Y-82355000D01*
X181192130Y-81614010D01*
X181033380Y-81455260D01*
X180284080Y-81455260D01*
X180030080Y-81455260D01*
X179280780Y-81455260D01*
X179122030Y-81614010D01*
X178823415Y-81614010D01*
X178823415Y-80483710D01*
X178793641Y-80325473D01*
X178778228Y-80301520D01*
X179122030Y-80301520D01*
X179122030Y-81042510D01*
X179280780Y-81201260D01*
X180030080Y-81201260D01*
X180030080Y-79951580D01*
X180284080Y-79951580D01*
X180284080Y-81201260D01*
X181033380Y-81201260D01*
X181192130Y-81042510D01*
X181192130Y-80301520D01*
X181095457Y-80068131D01*
X180916828Y-79889503D01*
X180683439Y-79792830D01*
X180442830Y-79792830D01*
X180284080Y-79951580D01*
X180030080Y-79951580D01*
X179871330Y-79792830D01*
X179630721Y-79792830D01*
X179397332Y-79889503D01*
X179218703Y-80068131D01*
X179122030Y-80301520D01*
X178778228Y-80301520D01*
X178700123Y-80180143D01*
X178557431Y-80082646D01*
X178388050Y-80048345D01*
X177587950Y-80048345D01*
X177429713Y-80078119D01*
X177284383Y-80171637D01*
X177186886Y-80314329D01*
X177152585Y-80483710D01*
X177152585Y-80995688D01*
X177123050Y-81039890D01*
X177123050Y-80357400D01*
X177026377Y-80124011D01*
X176847748Y-79945383D01*
X176614359Y-79848710D01*
X176373750Y-79848710D01*
X176215000Y-80007460D01*
X176215000Y-81257140D01*
X176235000Y-81257140D01*
X176235000Y-81511140D01*
X176215000Y-81511140D01*
X176215000Y-82760820D01*
X176373750Y-82919570D01*
X176614359Y-82919570D01*
X176806663Y-82839915D01*
X174781289Y-84865289D01*
X174667000Y-85036334D01*
X174667000Y-83846422D01*
X174885311Y-83628112D01*
X175011671Y-83439000D01*
X175032066Y-83408477D01*
X175083600Y-83149400D01*
X175083600Y-82583291D01*
X175110217Y-82566163D01*
X175114608Y-82559736D01*
X175149623Y-82644269D01*
X175328252Y-82822897D01*
X175561641Y-82919570D01*
X175802250Y-82919570D01*
X175961000Y-82760820D01*
X175961000Y-81511140D01*
X175941000Y-81511140D01*
X175941000Y-81257140D01*
X175961000Y-81257140D01*
X175961000Y-80007460D01*
X175802250Y-79848710D01*
X175561641Y-79848710D01*
X175328252Y-79945383D01*
X175149623Y-80124011D01*
X175131058Y-80168832D01*
X175118723Y-80149663D01*
X174976031Y-80052166D01*
X174806650Y-80017865D01*
X174006550Y-80017865D01*
X173848313Y-80047639D01*
X173702983Y-80141157D01*
X173605486Y-80283849D01*
X173571185Y-80453230D01*
X173571185Y-82254090D01*
X173600959Y-82412327D01*
X173694477Y-82557657D01*
X173729600Y-82581655D01*
X173729600Y-82868977D01*
X173511289Y-83087289D01*
X173364534Y-83306923D01*
X173313000Y-83566000D01*
X173313000Y-85290334D01*
X173198711Y-85119289D01*
X171771440Y-83692018D01*
X171771440Y-82802602D01*
X171980241Y-82889090D01*
X172220850Y-82889090D01*
X172379600Y-82730340D01*
X172379600Y-81480660D01*
X172633600Y-81480660D01*
X172633600Y-82730340D01*
X172792350Y-82889090D01*
X173032959Y-82889090D01*
X173266348Y-82792417D01*
X173444977Y-82613789D01*
X173541650Y-82380400D01*
X173541650Y-81639410D01*
X173382900Y-81480660D01*
X172633600Y-81480660D01*
X172379600Y-81480660D01*
X172359600Y-81480660D01*
X172359600Y-81226660D01*
X172379600Y-81226660D01*
X172379600Y-79976980D01*
X172633600Y-79976980D01*
X172633600Y-81226660D01*
X173382900Y-81226660D01*
X173541650Y-81067910D01*
X173541650Y-80326920D01*
X173444977Y-80093531D01*
X173266348Y-79914903D01*
X173032959Y-79818230D01*
X172792350Y-79818230D01*
X172633600Y-79976980D01*
X172379600Y-79976980D01*
X172220850Y-79818230D01*
X171980241Y-79818230D01*
X171746852Y-79914903D01*
X171698017Y-79963737D01*
X171663871Y-79940406D01*
X171494490Y-79906105D01*
X170694390Y-79906105D01*
X170536153Y-79935879D01*
X170390823Y-80029397D01*
X170293326Y-80172089D01*
X170259025Y-80341470D01*
X170259025Y-82142330D01*
X170288799Y-82300567D01*
X170382317Y-82445897D01*
X170417440Y-82469895D01*
X170417440Y-83776954D01*
X169600775Y-82960289D01*
X169381141Y-82813534D01*
X169199133Y-82777330D01*
X169321442Y-82777330D01*
X169321442Y-82618582D01*
X169480190Y-82777330D01*
X169720799Y-82777330D01*
X169954188Y-82680657D01*
X170132817Y-82502029D01*
X170229490Y-82268640D01*
X170229490Y-81527650D01*
X170070740Y-81368900D01*
X169321440Y-81368900D01*
X169321440Y-81388900D01*
X169067440Y-81388900D01*
X169067440Y-81368900D01*
X169047440Y-81368900D01*
X169047440Y-81114900D01*
X169067440Y-81114900D01*
X169067440Y-79865220D01*
X169321440Y-79865220D01*
X169321440Y-81114900D01*
X170070740Y-81114900D01*
X170229490Y-80956150D01*
X170229490Y-80215160D01*
X170132817Y-79981771D01*
X169954188Y-79803143D01*
X169720799Y-79706470D01*
X169480190Y-79706470D01*
X169321440Y-79865220D01*
X169067440Y-79865220D01*
X168908690Y-79706470D01*
X168668081Y-79706470D01*
X168434692Y-79803143D01*
X168256063Y-79981771D01*
X168189163Y-80143281D01*
X168154043Y-80088703D01*
X168011351Y-79991206D01*
X167841970Y-79956905D01*
X167041870Y-79956905D01*
X166883633Y-79986679D01*
X166738303Y-80080197D01*
X166640806Y-80222889D01*
X166606505Y-80392270D01*
X166606505Y-82193130D01*
X166636279Y-82351367D01*
X166729797Y-82496697D01*
X166764920Y-82520695D01*
X166764920Y-83113920D01*
X166816454Y-83372997D01*
X166887496Y-83479318D01*
X165335740Y-83479318D01*
X164618800Y-82762378D01*
X164618800Y-82568086D01*
X164782172Y-82731457D01*
X165015561Y-82828130D01*
X165256170Y-82828130D01*
X165414920Y-82669380D01*
X165414920Y-81419700D01*
X165668920Y-81419700D01*
X165668920Y-82669380D01*
X165827670Y-82828130D01*
X166068279Y-82828130D01*
X166301668Y-82731457D01*
X166480297Y-82552829D01*
X166576970Y-82319440D01*
X166576970Y-81578450D01*
X166418220Y-81419700D01*
X165668920Y-81419700D01*
X165414920Y-81419700D01*
X165394920Y-81419700D01*
X165394920Y-81165700D01*
X165414920Y-81165700D01*
X165414920Y-79916020D01*
X165668920Y-79916020D01*
X165668920Y-81165700D01*
X166418220Y-81165700D01*
X166576970Y-81006950D01*
X166576970Y-80265960D01*
X166480297Y-80032571D01*
X166301668Y-79853943D01*
X166068279Y-79757270D01*
X165827670Y-79757270D01*
X165668920Y-79916020D01*
X165414920Y-79916020D01*
X165256170Y-79757270D01*
X165015561Y-79757270D01*
X164782172Y-79853943D01*
X164620826Y-80015289D01*
X164511231Y-79940406D01*
X164341850Y-79906105D01*
X163541750Y-79906105D01*
X163383513Y-79935879D01*
X163238183Y-80029397D01*
X163140686Y-80172089D01*
X163106385Y-80341470D01*
X163106385Y-82142330D01*
X163136159Y-82300567D01*
X163229677Y-82445897D01*
X163264800Y-82469895D01*
X163264800Y-83042800D01*
X163316334Y-83301877D01*
X163444526Y-83493729D01*
X163463089Y-83521511D01*
X164120898Y-84179320D01*
X161260542Y-84179320D01*
X161017080Y-83935858D01*
X161017080Y-82293579D01*
X161103423Y-82502029D01*
X161282052Y-82680657D01*
X161515441Y-82777330D01*
X161756050Y-82777330D01*
X161914800Y-82618580D01*
X161914800Y-81368900D01*
X162168800Y-81368900D01*
X162168800Y-82618580D01*
X162327550Y-82777330D01*
X162568159Y-82777330D01*
X162801548Y-82680657D01*
X162980177Y-82502029D01*
X163076850Y-82268640D01*
X163076850Y-81527650D01*
X162918100Y-81368900D01*
X162168800Y-81368900D01*
X161914800Y-81368900D01*
X161894800Y-81368900D01*
X161894800Y-81114900D01*
X161914800Y-81114900D01*
X161914800Y-79865220D01*
X162168800Y-79865220D01*
X162168800Y-81114900D01*
X162918100Y-81114900D01*
X163076850Y-80956150D01*
X163076850Y-80215160D01*
X162980177Y-79981771D01*
X162801548Y-79803143D01*
X162568159Y-79706470D01*
X162327550Y-79706470D01*
X162168800Y-79865220D01*
X161914800Y-79865220D01*
X161756050Y-79706470D01*
X161515441Y-79706470D01*
X161282052Y-79803143D01*
X161143763Y-79941431D01*
X161052203Y-79799143D01*
X160909511Y-79701646D01*
X160740130Y-79667345D01*
X159940030Y-79667345D01*
X159781793Y-79697119D01*
X159636463Y-79790637D01*
X159538966Y-79933329D01*
X159504665Y-80102710D01*
X159475130Y-80102710D01*
X159475130Y-79976400D01*
X159378457Y-79743011D01*
X159199828Y-79564383D01*
X158966439Y-79467710D01*
X158725830Y-79467710D01*
X158567080Y-79626460D01*
X158313080Y-79626460D01*
X158154330Y-79467710D01*
X157913721Y-79467710D01*
X157680332Y-79564383D01*
X157501703Y-79743011D01*
X157405030Y-79976400D01*
X156223549Y-79976400D01*
X156180711Y-79912289D01*
X155181932Y-78913510D01*
X155200778Y-78868125D01*
X155201221Y-78360103D01*
X155007219Y-77890583D01*
X154648307Y-77531043D01*
X154179125Y-77336222D01*
X153671103Y-77335779D01*
X153201583Y-77529781D01*
X152842043Y-77888693D01*
X152647222Y-78357875D01*
X152646779Y-78865897D01*
X152840781Y-79335417D01*
X153199693Y-79694957D01*
X153653088Y-79883223D01*
X153201583Y-80069781D01*
X153045091Y-80226000D01*
X152783976Y-80226000D01*
X152311000Y-79753024D01*
X152311000Y-75502574D01*
X152410821Y-75262179D01*
X152411178Y-74853613D01*
X152255156Y-74476011D01*
X151966508Y-74186860D01*
X151589179Y-74030179D01*
X151180613Y-74029822D01*
X150803011Y-74185844D01*
X150513860Y-74474492D01*
X150357179Y-74851821D01*
X150356822Y-75260387D01*
X150457000Y-75502836D01*
X150457000Y-80137000D01*
X150527564Y-80491748D01*
X150708935Y-80763189D01*
X150728512Y-80792488D01*
X151744512Y-81808488D01*
X152045252Y-82009436D01*
X152400000Y-82080000D01*
X153045007Y-82080000D01*
X153199693Y-82234957D01*
X153366099Y-82304055D01*
X153139920Y-82397741D01*
X153059647Y-82649042D01*
X153924000Y-83513395D01*
X154788353Y-82649042D01*
X154708080Y-82397741D01*
X154467083Y-82310318D01*
X154646417Y-82236219D01*
X155005957Y-81877307D01*
X155047923Y-81776241D01*
X155076534Y-81920077D01*
X155183391Y-82080000D01*
X155223289Y-82139711D01*
X158454000Y-85370423D01*
X158454000Y-87011578D01*
X157196711Y-85754289D01*
X157093837Y-85685551D01*
X156977077Y-85607534D01*
X156718000Y-85556000D01*
X155025985Y-85556000D01*
X155007219Y-85510583D01*
X154648307Y-85151043D01*
X154481901Y-85081945D01*
X154708080Y-84988259D01*
X154788353Y-84736958D01*
X153924000Y-83872605D01*
X153059647Y-84736958D01*
X153139920Y-84988259D01*
X153380917Y-85075682D01*
X153201583Y-85149781D01*
X152842043Y-85508693D01*
X152647222Y-85977875D01*
X152646779Y-86485897D01*
X152840781Y-86955417D01*
X153199693Y-87314957D01*
X153653088Y-87503223D01*
X153201583Y-87689781D01*
X152842043Y-88048693D01*
X152647222Y-88517875D01*
X152646779Y-89025897D01*
X152840781Y-89495417D01*
X153199693Y-89854957D01*
X153615549Y-90027635D01*
X153074000Y-90027635D01*
X152915763Y-90057409D01*
X152770433Y-90150927D01*
X152672936Y-90293619D01*
X152638635Y-90463000D01*
X152638635Y-92163000D01*
X152668409Y-92321237D01*
X152761927Y-92466567D01*
X152904619Y-92564064D01*
X153074000Y-92598365D01*
X154774000Y-92598365D01*
X154932237Y-92568591D01*
X155077567Y-92475073D01*
X155175064Y-92332381D01*
X155209365Y-92163000D01*
X155209365Y-92031787D01*
X156353994Y-93176417D01*
X156353994Y-105009850D01*
X156405528Y-105268927D01*
X156456603Y-105345366D01*
X156552283Y-105488561D01*
X160359000Y-109295278D01*
X160359000Y-115556916D01*
X160285297Y-115587369D01*
X159911681Y-115960334D01*
X159765891Y-116311433D01*
X159621631Y-115962297D01*
X159248666Y-115588681D01*
X158761115Y-115386231D01*
X158233202Y-115385771D01*
X157745297Y-115587369D01*
X157371681Y-115960334D01*
X157225891Y-116311433D01*
X157081631Y-115962297D01*
X156708666Y-115588681D01*
X156221115Y-115386231D01*
X155693202Y-115385771D01*
X155205297Y-115587369D01*
X154831681Y-115960334D01*
X154804862Y-116024920D01*
X154752643Y-115898852D01*
X154496159Y-115812446D01*
X153595605Y-116713000D01*
X154496159Y-117613554D01*
X154752643Y-117527148D01*
X154801456Y-117393728D01*
X154830369Y-117463703D01*
X155203334Y-117837319D01*
X155690885Y-118039769D01*
X156218798Y-118040229D01*
X156706703Y-117838631D01*
X157080319Y-117465666D01*
X157226109Y-117114567D01*
X157370369Y-117463703D01*
X157569000Y-117662681D01*
X157569000Y-117983000D01*
X157596578Y-118121642D01*
X157612029Y-118262149D01*
X158374029Y-120675149D01*
X158393623Y-120710827D01*
X158401564Y-120750748D01*
X158480098Y-120868282D01*
X158548143Y-120992181D01*
X158579898Y-121017644D01*
X158602512Y-121051488D01*
X158720045Y-121130021D01*
X158830326Y-121218450D01*
X158869409Y-121229823D01*
X158903252Y-121252436D01*
X159041892Y-121280013D01*
X159177618Y-121319508D01*
X159218077Y-121315059D01*
X159258000Y-121323000D01*
X174840635Y-121323000D01*
X174840635Y-121374000D01*
X161163000Y-121374000D01*
X160808253Y-121444563D01*
X160507512Y-121645512D01*
X155826024Y-126327000D01*
X137035976Y-126327000D01*
X134999946Y-124290970D01*
X143966635Y-124290970D01*
X144126418Y-124609739D01*
X144917187Y-124919723D01*
X145766387Y-124903497D01*
X146475582Y-124609739D01*
X146635365Y-124290970D01*
X145301000Y-122956605D01*
X143966635Y-124290970D01*
X134999946Y-124290970D01*
X133102163Y-122393187D01*
X143158277Y-122393187D01*
X143174503Y-123242387D01*
X143468261Y-123951582D01*
X143787030Y-124111365D01*
X145121395Y-122777000D01*
X145480605Y-122777000D01*
X146814970Y-124111365D01*
X147133739Y-123951582D01*
X147443723Y-123160813D01*
X147427497Y-122311613D01*
X147133739Y-121602418D01*
X146814970Y-121442635D01*
X145480605Y-122777000D01*
X145121395Y-122777000D01*
X143787030Y-121442635D01*
X143468261Y-121602418D01*
X143158277Y-122393187D01*
X133102163Y-122393187D01*
X131972006Y-121263030D01*
X143966635Y-121263030D01*
X145301000Y-122597395D01*
X146635365Y-121263030D01*
X146475582Y-120944261D01*
X145684813Y-120634277D01*
X144835613Y-120650503D01*
X144126418Y-120944261D01*
X143966635Y-121263030D01*
X131972006Y-121263030D01*
X130602000Y-119893024D01*
X130602000Y-119820365D01*
X132175000Y-119820365D01*
X132333237Y-119790591D01*
X132478567Y-119697073D01*
X132576064Y-119554381D01*
X132610365Y-119385000D01*
X132610365Y-117270750D01*
X136940000Y-117270750D01*
X136940000Y-119611309D01*
X137036673Y-119844698D01*
X137215301Y-120023327D01*
X137448690Y-120120000D01*
X139789250Y-120120000D01*
X139948000Y-119961250D01*
X139948000Y-117112000D01*
X140202000Y-117112000D01*
X140202000Y-119961250D01*
X140360750Y-120120000D01*
X142701310Y-120120000D01*
X142934699Y-120023327D01*
X143113327Y-119844698D01*
X143210000Y-119611309D01*
X143210000Y-117270750D01*
X143051250Y-117112000D01*
X140202000Y-117112000D01*
X139948000Y-117112000D01*
X137098750Y-117112000D01*
X136940000Y-117270750D01*
X132610365Y-117270750D01*
X132610365Y-114385000D01*
X132605415Y-114358691D01*
X136940000Y-114358691D01*
X136940000Y-116699250D01*
X137098750Y-116858000D01*
X139948000Y-116858000D01*
X139948000Y-114008750D01*
X140202000Y-114008750D01*
X140202000Y-116858000D01*
X143051250Y-116858000D01*
X143210000Y-116699250D01*
X143210000Y-116523159D01*
X147435446Y-116523159D01*
X147521852Y-116779643D01*
X148095336Y-116989458D01*
X148705460Y-116963839D01*
X149150148Y-116779643D01*
X149236554Y-116523159D01*
X148336000Y-115622605D01*
X147435446Y-116523159D01*
X143210000Y-116523159D01*
X143210000Y-115202336D01*
X146789542Y-115202336D01*
X146815161Y-115812460D01*
X146999357Y-116257148D01*
X147255841Y-116343554D01*
X148156395Y-115443000D01*
X148515605Y-115443000D01*
X149416159Y-116343554D01*
X149621242Y-116274464D01*
X149549231Y-116447885D01*
X149548771Y-116975798D01*
X149750369Y-117463703D01*
X150123334Y-117837319D01*
X150610885Y-118039769D01*
X151138798Y-118040229D01*
X151626703Y-117838631D01*
X151672254Y-117793159D01*
X152515446Y-117793159D01*
X152601852Y-118049643D01*
X153175336Y-118259458D01*
X153785460Y-118233839D01*
X154230148Y-118049643D01*
X154316554Y-117793159D01*
X153416000Y-116892605D01*
X152515446Y-117793159D01*
X151672254Y-117793159D01*
X152000319Y-117465666D01*
X152027138Y-117401080D01*
X152079357Y-117527148D01*
X152335841Y-117613554D01*
X153236395Y-116713000D01*
X152335841Y-115812446D01*
X152079357Y-115898852D01*
X152030544Y-116032272D01*
X152001631Y-115962297D01*
X151672750Y-115632841D01*
X152515446Y-115632841D01*
X153416000Y-116533395D01*
X154316554Y-115632841D01*
X154230148Y-115376357D01*
X153656664Y-115166542D01*
X153046540Y-115192161D01*
X152601852Y-115376357D01*
X152515446Y-115632841D01*
X151672750Y-115632841D01*
X151628666Y-115588681D01*
X151141115Y-115386231D01*
X150613202Y-115385771D01*
X150125297Y-115587369D01*
X149798240Y-115913856D01*
X149882458Y-115683664D01*
X149856839Y-115073540D01*
X149672643Y-114628852D01*
X149416159Y-114542446D01*
X148515605Y-115443000D01*
X148156395Y-115443000D01*
X147255841Y-114542446D01*
X146999357Y-114628852D01*
X146789542Y-115202336D01*
X143210000Y-115202336D01*
X143210000Y-114358691D01*
X143113327Y-114125302D01*
X142971185Y-113983159D01*
X147435446Y-113983159D01*
X147499401Y-114173000D01*
X147435446Y-114362841D01*
X148336000Y-115263395D01*
X149236554Y-114362841D01*
X149172599Y-114173000D01*
X149236554Y-113983159D01*
X148336000Y-113082605D01*
X147435446Y-113983159D01*
X142971185Y-113983159D01*
X142934699Y-113946673D01*
X142701310Y-113850000D01*
X140360750Y-113850000D01*
X140202000Y-114008750D01*
X139948000Y-114008750D01*
X139789250Y-113850000D01*
X137448690Y-113850000D01*
X137215301Y-113946673D01*
X137036673Y-114125302D01*
X136940000Y-114358691D01*
X132605415Y-114358691D01*
X132580591Y-114226763D01*
X132487073Y-114081433D01*
X132344381Y-113983936D01*
X132175000Y-113949635D01*
X127175000Y-113949635D01*
X127016763Y-113979409D01*
X126871433Y-114072927D01*
X126773936Y-114215619D01*
X126739635Y-114385000D01*
X122880170Y-114385000D01*
X122800589Y-114305280D01*
X122892927Y-114055532D01*
X121920000Y-113082605D01*
X120947073Y-114055532D01*
X121039532Y-114305608D01*
X120710953Y-114633614D01*
X120493248Y-115157907D01*
X120492752Y-115725603D01*
X120307000Y-115725603D01*
X120307000Y-113309840D01*
X120500613Y-113777264D01*
X120767468Y-113875927D01*
X121740395Y-112903000D01*
X122099605Y-112903000D01*
X123072532Y-113875927D01*
X123339387Y-113777264D01*
X123565908Y-113167539D01*
X123547214Y-112662336D01*
X146789542Y-112662336D01*
X146815161Y-113272460D01*
X146999357Y-113717148D01*
X147255841Y-113803554D01*
X148156395Y-112903000D01*
X148515605Y-112903000D01*
X149416159Y-113803554D01*
X149672643Y-113717148D01*
X149882458Y-113143664D01*
X149856839Y-112533540D01*
X149672643Y-112088852D01*
X149416159Y-112002446D01*
X148515605Y-112903000D01*
X148156395Y-112903000D01*
X147255841Y-112002446D01*
X146999357Y-112088852D01*
X146789542Y-112662336D01*
X123547214Y-112662336D01*
X123541856Y-112517540D01*
X123339387Y-112028736D01*
X123072532Y-111930073D01*
X122099605Y-112903000D01*
X121740395Y-112903000D01*
X120767468Y-111930073D01*
X120500613Y-112028736D01*
X120307000Y-112549883D01*
X120307000Y-111824062D01*
X120722381Y-111290000D01*
X120829059Y-111290000D01*
X121039411Y-111500720D01*
X120947073Y-111750468D01*
X121920000Y-112723395D01*
X122892927Y-111750468D01*
X122800468Y-111500392D01*
X123011227Y-111290000D01*
X147386359Y-111290000D01*
X147583334Y-111487319D01*
X147647920Y-111514138D01*
X147521852Y-111566357D01*
X147435446Y-111822841D01*
X148336000Y-112723395D01*
X149236554Y-111822841D01*
X149150148Y-111566357D01*
X149016728Y-111517544D01*
X149086703Y-111488631D01*
X149460319Y-111115666D01*
X149662769Y-110628115D01*
X149663229Y-110100202D01*
X149461631Y-109612297D01*
X149088666Y-109238681D01*
X148737567Y-109092891D01*
X149086703Y-108948631D01*
X149460319Y-108575666D01*
X149662769Y-108088115D01*
X149663229Y-107560202D01*
X149461631Y-107072297D01*
X149088666Y-106698681D01*
X148737567Y-106552891D01*
X149086703Y-106408631D01*
X149460319Y-106035666D01*
X149662769Y-105548115D01*
X149663229Y-105020202D01*
X149461631Y-104532297D01*
X149088666Y-104158681D01*
X148737567Y-104012891D01*
X149086703Y-103868631D01*
X149460319Y-103495666D01*
X149662769Y-103008115D01*
X149663229Y-102480202D01*
X149461631Y-101992297D01*
X149088666Y-101618681D01*
X148601115Y-101416231D01*
X148073202Y-101415771D01*
X147585297Y-101617369D01*
X147211681Y-101990334D01*
X147180262Y-102066000D01*
X123355365Y-102066000D01*
X123355365Y-101743000D01*
X123325591Y-101584763D01*
X123232073Y-101439433D01*
X123089381Y-101341936D01*
X122920000Y-101307635D01*
X120920000Y-101307635D01*
X120761763Y-101337409D01*
X120616433Y-101430927D01*
X120518936Y-101573619D01*
X120484635Y-101743000D01*
X120484635Y-103743000D01*
X120514409Y-103901237D01*
X120607927Y-104046567D01*
X120750619Y-104144064D01*
X120920000Y-104178365D01*
X121006718Y-104178365D01*
X120710953Y-104473614D01*
X120493248Y-104997907D01*
X120492752Y-105565603D01*
X120709543Y-106090275D01*
X121110614Y-106492047D01*
X121257118Y-106552881D01*
X121112725Y-106612543D01*
X120710953Y-107013614D01*
X120493248Y-107537907D01*
X120492752Y-108105603D01*
X120709543Y-108630275D01*
X121110614Y-109032047D01*
X121257118Y-109092881D01*
X121112725Y-109152543D01*
X120828773Y-109436000D01*
X120269000Y-109436000D01*
X120211995Y-109447339D01*
X120154020Y-109443158D01*
X120036107Y-109482325D01*
X119914252Y-109506564D01*
X119865924Y-109538856D01*
X119810765Y-109557178D01*
X119716821Y-109638483D01*
X119613512Y-109707512D01*
X119581219Y-109755841D01*
X119537271Y-109793877D01*
X118648270Y-110936877D01*
X118592589Y-111047949D01*
X118523564Y-111151252D01*
X118512225Y-111208258D01*
X118486176Y-111260220D01*
X118477239Y-111384145D01*
X118453000Y-111506000D01*
X117281960Y-111506000D01*
X117281960Y-98882387D01*
X123559822Y-98882387D01*
X123715844Y-99259989D01*
X124004492Y-99549140D01*
X124381821Y-99705821D01*
X124790387Y-99706178D01*
X124968115Y-99632742D01*
X126156844Y-99710046D01*
X126187083Y-99706049D01*
X126217000Y-99712000D01*
X126839635Y-99712000D01*
X126839635Y-101285000D01*
X126869409Y-101443237D01*
X126962927Y-101588567D01*
X127105619Y-101686064D01*
X127275000Y-101720365D01*
X132275000Y-101720365D01*
X132433237Y-101690591D01*
X132578567Y-101597073D01*
X132676064Y-101454381D01*
X132710365Y-101285000D01*
X132710365Y-99070750D01*
X136940000Y-99070750D01*
X136940000Y-101411309D01*
X137036673Y-101644698D01*
X137215301Y-101823327D01*
X137448690Y-101920000D01*
X139789250Y-101920000D01*
X139948000Y-101761250D01*
X139948000Y-98912000D01*
X140202000Y-98912000D01*
X140202000Y-101761250D01*
X140360750Y-101920000D01*
X142701310Y-101920000D01*
X142934699Y-101823327D01*
X143113327Y-101644698D01*
X143210000Y-101411309D01*
X143210000Y-99070750D01*
X143051250Y-98912000D01*
X140202000Y-98912000D01*
X139948000Y-98912000D01*
X137098750Y-98912000D01*
X136940000Y-99070750D01*
X132710365Y-99070750D01*
X132710365Y-96285000D01*
X132686599Y-96158691D01*
X136940000Y-96158691D01*
X136940000Y-98499250D01*
X137098750Y-98658000D01*
X139948000Y-98658000D01*
X139948000Y-95808750D01*
X140202000Y-95808750D01*
X140202000Y-98658000D01*
X143051250Y-98658000D01*
X143210000Y-98499250D01*
X143210000Y-96158691D01*
X143113327Y-95925302D01*
X142934699Y-95746673D01*
X142701310Y-95650000D01*
X140360750Y-95650000D01*
X140202000Y-95808750D01*
X139948000Y-95808750D01*
X139789250Y-95650000D01*
X137448690Y-95650000D01*
X137215301Y-95746673D01*
X137036673Y-95925302D01*
X136940000Y-96158691D01*
X132686599Y-96158691D01*
X132680591Y-96126763D01*
X132587073Y-95981433D01*
X132444381Y-95883936D01*
X132275000Y-95849635D01*
X127275000Y-95849635D01*
X127116763Y-95879409D01*
X126971433Y-95972927D01*
X126873936Y-96115619D01*
X126839635Y-96285000D01*
X126839635Y-97858000D01*
X126247109Y-97858000D01*
X125109723Y-97784035D01*
X124792179Y-97652179D01*
X124383613Y-97651822D01*
X124006011Y-97807844D01*
X123716860Y-98096492D01*
X123560179Y-98473821D01*
X123559822Y-98882387D01*
X117281960Y-98882387D01*
X117281960Y-83464279D01*
X152427282Y-83464279D01*
X152453685Y-84054458D01*
X152628741Y-84477080D01*
X152880042Y-84557353D01*
X153744395Y-83693000D01*
X154103605Y-83693000D01*
X154967958Y-84557353D01*
X155219259Y-84477080D01*
X155420718Y-83921721D01*
X155394315Y-83331542D01*
X155219259Y-82908920D01*
X154967958Y-82828647D01*
X154103605Y-83693000D01*
X153744395Y-83693000D01*
X152880042Y-82828647D01*
X152628741Y-82908920D01*
X152427282Y-83464279D01*
X117281960Y-83464279D01*
X117281960Y-60687469D01*
X119968794Y-60687469D01*
X120149427Y-61124635D01*
X120481000Y-61456786D01*
X120481000Y-61468000D01*
X120532534Y-61727077D01*
X120583127Y-61802794D01*
X120656558Y-61912692D01*
X120485365Y-61983427D01*
X120150603Y-62317606D01*
X119969207Y-62754456D01*
X119968794Y-63227469D01*
X120149427Y-63664635D01*
X120483606Y-63999397D01*
X120828124Y-64142453D01*
X120679290Y-64291288D01*
X120679289Y-64291289D01*
X120538982Y-64501273D01*
X120485365Y-64523427D01*
X120150603Y-64857606D01*
X119969207Y-65294456D01*
X119968794Y-65767469D01*
X120149427Y-66204635D01*
X120483606Y-66539397D01*
X120920456Y-66720793D01*
X121393469Y-66721206D01*
X121830635Y-66540573D01*
X122165397Y-66206394D01*
X122346793Y-65769544D01*
X122347206Y-65296531D01*
X122199477Y-64939000D01*
X130276805Y-64939000D01*
X130129207Y-65294456D01*
X130128794Y-65767469D01*
X130309427Y-66204635D01*
X130643606Y-66539397D01*
X131080456Y-66720793D01*
X131553469Y-66721206D01*
X131730597Y-66648019D01*
X132363289Y-67280711D01*
X132582923Y-67427466D01*
X132842000Y-67479000D01*
X133324805Y-67479000D01*
X133177207Y-67834456D01*
X133176797Y-68303780D01*
X132363289Y-69117289D01*
X132216534Y-69336923D01*
X132165000Y-69596000D01*
X132165000Y-69777510D01*
X131992394Y-69604603D01*
X131555544Y-69423207D01*
X131082531Y-69422794D01*
X130645365Y-69603427D01*
X130310603Y-69937606D01*
X130129207Y-70374456D01*
X130128794Y-70847469D01*
X130276523Y-71205000D01*
X124232422Y-71205000D01*
X123613000Y-70585578D01*
X123613000Y-70104000D01*
X123594423Y-70010607D01*
X123561467Y-69844924D01*
X123414711Y-69625289D01*
X122274080Y-68484658D01*
X122346793Y-68309544D01*
X122346794Y-68307469D01*
X130128794Y-68307469D01*
X130309427Y-68744635D01*
X130643606Y-69079397D01*
X131080456Y-69260793D01*
X131553469Y-69261206D01*
X131990635Y-69080573D01*
X132325397Y-68746394D01*
X132506793Y-68309544D01*
X132507206Y-67836531D01*
X132326573Y-67399365D01*
X131992394Y-67064603D01*
X131555544Y-66883207D01*
X131082531Y-66882794D01*
X130645365Y-67063427D01*
X130310603Y-67397606D01*
X130129207Y-67834456D01*
X130128794Y-68307469D01*
X122346794Y-68307469D01*
X122347206Y-67836531D01*
X122166573Y-67399365D01*
X121832394Y-67064603D01*
X121395544Y-66883207D01*
X120922531Y-66882794D01*
X120485365Y-67063427D01*
X120150603Y-67397606D01*
X119969207Y-67834456D01*
X119968794Y-68307469D01*
X120149427Y-68744635D01*
X120483606Y-69079397D01*
X120920456Y-69260793D01*
X121135559Y-69260981D01*
X121297700Y-69423122D01*
X120922531Y-69422794D01*
X120485365Y-69603427D01*
X120150603Y-69937606D01*
X119969207Y-70374456D01*
X119968794Y-70847469D01*
X120149427Y-71284635D01*
X120483606Y-71619397D01*
X120920456Y-71800793D01*
X121135559Y-71800981D01*
X122457289Y-73122711D01*
X122676924Y-73269467D01*
X122936000Y-73321000D01*
X133604000Y-73321000D01*
X133863077Y-73269466D01*
X134082711Y-73122711D01*
X134366000Y-72839422D01*
X134649289Y-73122711D01*
X134868924Y-73269467D01*
X135128000Y-73321000D01*
X146812000Y-73321000D01*
X147071077Y-73269466D01*
X147290711Y-73122711D01*
X147574000Y-72839422D01*
X147857289Y-73122711D01*
X148076924Y-73269467D01*
X148336000Y-73321000D01*
X153755000Y-73321000D01*
X153755000Y-73717635D01*
X153729000Y-73717635D01*
X153570763Y-73747409D01*
X153425433Y-73840927D01*
X153327936Y-73983619D01*
X153293635Y-74153000D01*
X153293635Y-75453000D01*
X153323409Y-75611237D01*
X153416927Y-75756567D01*
X153559619Y-75854064D01*
X153729000Y-75888365D01*
X155229000Y-75888365D01*
X155387237Y-75858591D01*
X155532567Y-75765073D01*
X155630064Y-75622381D01*
X155664365Y-75453000D01*
X155664365Y-74153000D01*
X155993635Y-74153000D01*
X155993635Y-75453000D01*
X156023409Y-75611237D01*
X156116927Y-75756567D01*
X156259619Y-75854064D01*
X156429000Y-75888365D01*
X157306943Y-75888365D01*
X158554665Y-77136088D01*
X158554665Y-78901290D01*
X158584439Y-79059527D01*
X158677957Y-79204857D01*
X158820649Y-79302354D01*
X158990030Y-79336655D01*
X159790130Y-79336655D01*
X159948367Y-79306881D01*
X160093697Y-79213363D01*
X160191194Y-79070671D01*
X160225495Y-78901290D01*
X160225495Y-77100430D01*
X160195721Y-76942193D01*
X160102203Y-76796863D01*
X159994214Y-76723077D01*
X159929827Y-76626716D01*
X159868791Y-76535368D01*
X158364365Y-75030943D01*
X158364365Y-74153000D01*
X158334591Y-73994763D01*
X158241073Y-73849433D01*
X158098381Y-73751936D01*
X157929000Y-73717635D01*
X156429000Y-73717635D01*
X156270763Y-73747409D01*
X156125433Y-73840927D01*
X156027936Y-73983619D01*
X155993635Y-74153000D01*
X155664365Y-74153000D01*
X155634591Y-73994763D01*
X155541073Y-73849433D01*
X155398381Y-73751936D01*
X155229000Y-73717635D01*
X155109000Y-73717635D01*
X155109000Y-73321000D01*
X160274000Y-73321000D01*
X160533077Y-73269466D01*
X160752711Y-73122711D01*
X160782000Y-73093423D01*
X160811288Y-73122711D01*
X160856465Y-73152897D01*
X161030923Y-73269466D01*
X161290000Y-73321000D01*
X162363635Y-73321000D01*
X162363635Y-74205692D01*
X162314800Y-74451200D01*
X162314800Y-77009989D01*
X162288183Y-77027117D01*
X162190686Y-77169809D01*
X162156385Y-77339190D01*
X162156385Y-79140050D01*
X162186159Y-79298287D01*
X162279677Y-79443617D01*
X162422369Y-79541114D01*
X162591750Y-79575415D01*
X163391850Y-79575415D01*
X163550087Y-79545641D01*
X163695417Y-79452123D01*
X163792914Y-79309431D01*
X163827215Y-79140050D01*
X163827215Y-77339190D01*
X163797441Y-77180953D01*
X163703923Y-77035623D01*
X163668800Y-77011625D01*
X163668800Y-75179365D01*
X164099000Y-75179365D01*
X164257237Y-75149591D01*
X164402567Y-75056073D01*
X164500064Y-74913381D01*
X164534365Y-74744000D01*
X164534365Y-73321000D01*
X172837530Y-73321000D01*
X170467890Y-75690640D01*
X168414700Y-75690640D01*
X168155624Y-75742173D01*
X167935989Y-75888928D01*
X166870293Y-76954625D01*
X166091870Y-76954625D01*
X165933633Y-76984399D01*
X165788303Y-77077917D01*
X165690806Y-77220609D01*
X165656505Y-77389990D01*
X165656505Y-79190850D01*
X165686279Y-79349087D01*
X165779797Y-79494417D01*
X165922489Y-79591914D01*
X166091870Y-79626215D01*
X166891970Y-79626215D01*
X167050207Y-79596441D01*
X167195537Y-79502923D01*
X167293034Y-79360231D01*
X167327335Y-79190850D01*
X167327335Y-78412427D01*
X168695123Y-77044640D01*
X169428850Y-77044640D01*
X169343326Y-77169809D01*
X169309025Y-77339190D01*
X169309025Y-79140050D01*
X169338799Y-79298287D01*
X169432317Y-79443617D01*
X169575009Y-79541114D01*
X169744390Y-79575415D01*
X170544490Y-79575415D01*
X170702727Y-79545641D01*
X170848057Y-79452123D01*
X170945554Y-79309431D01*
X170979855Y-79140050D01*
X170979855Y-78361627D01*
X175201967Y-74139515D01*
X175577845Y-74515393D01*
X175710789Y-74606229D01*
X175879681Y-74642866D01*
X176049520Y-74610909D01*
X176193545Y-74515393D01*
X177254205Y-73454733D01*
X177345041Y-73321789D01*
X177381678Y-73152897D01*
X177349721Y-72983058D01*
X177254205Y-72839033D01*
X176334967Y-71919795D01*
X176227208Y-71846167D01*
X176495468Y-71577907D01*
X176567795Y-71686967D01*
X177487033Y-72606205D01*
X177619977Y-72697041D01*
X177788869Y-72733678D01*
X177958708Y-72701721D01*
X178102733Y-72606205D01*
X179012760Y-71696178D01*
X179012760Y-72267058D01*
X176290218Y-74989600D01*
X176141380Y-74989600D01*
X175882303Y-75041134D01*
X175675426Y-75179365D01*
X175662669Y-75187889D01*
X173834973Y-77015585D01*
X173056550Y-77015585D01*
X172898313Y-77045359D01*
X172752983Y-77138877D01*
X172655486Y-77281569D01*
X172621185Y-77450950D01*
X172621185Y-79251810D01*
X172650959Y-79410047D01*
X172744477Y-79555377D01*
X172887169Y-79652874D01*
X173056550Y-79687175D01*
X173856650Y-79687175D01*
X174014887Y-79657401D01*
X174160217Y-79563883D01*
X174257714Y-79421191D01*
X174292015Y-79251810D01*
X174292015Y-78473387D01*
X176421802Y-76343600D01*
X176570640Y-76343600D01*
X176829717Y-76292066D01*
X177049351Y-76145311D01*
X177371920Y-75822742D01*
X177371920Y-76780637D01*
X177106492Y-77046065D01*
X176637950Y-77046065D01*
X176479713Y-77075839D01*
X176334383Y-77169357D01*
X176236886Y-77312049D01*
X176202585Y-77481430D01*
X176202585Y-77993408D01*
X176143294Y-78082144D01*
X176091760Y-78341220D01*
X176143294Y-78600296D01*
X176202585Y-78689032D01*
X176202585Y-79282290D01*
X176232359Y-79440527D01*
X176325877Y-79585857D01*
X176468569Y-79683354D01*
X176637950Y-79717655D01*
X177438050Y-79717655D01*
X177596287Y-79687881D01*
X177741617Y-79594363D01*
X177839114Y-79451671D01*
X177873415Y-79282290D01*
X177873415Y-78193987D01*
X178527632Y-77539771D01*
X178674387Y-77320136D01*
X178725920Y-77061060D01*
X178725920Y-75916542D01*
X180066702Y-74575760D01*
X180153440Y-74575760D01*
X180095433Y-74613087D01*
X179997936Y-74755779D01*
X179963635Y-74925160D01*
X179963635Y-76225160D01*
X179993409Y-76383397D01*
X180086927Y-76528727D01*
X180229619Y-76626224D01*
X180399000Y-76660525D01*
X180472000Y-76660525D01*
X180472000Y-77069374D01*
X180403463Y-77113477D01*
X180305966Y-77256169D01*
X180271665Y-77425550D01*
X180271665Y-79226410D01*
X180301439Y-79384647D01*
X180394957Y-79529977D01*
X180537649Y-79627474D01*
X180707030Y-79661775D01*
X181507130Y-79661775D01*
X181665367Y-79632001D01*
X181810697Y-79538483D01*
X181908194Y-79395791D01*
X181942495Y-79226410D01*
X181942495Y-77425550D01*
X181912721Y-77267313D01*
X181826000Y-77132546D01*
X181826000Y-76660525D01*
X181899000Y-76660525D01*
X182057237Y-76630751D01*
X182202567Y-76537233D01*
X182300064Y-76394541D01*
X182334365Y-76225160D01*
X182334365Y-74925160D01*
X182304591Y-74766923D01*
X182211073Y-74621593D01*
X182068381Y-74524096D01*
X181899000Y-74489795D01*
X180523607Y-74489795D01*
X180691711Y-74377471D01*
X182215711Y-72853472D01*
X182355675Y-72644000D01*
X182362466Y-72633837D01*
X182414000Y-72374760D01*
X182414000Y-69332285D01*
X182545237Y-69307591D01*
X182690567Y-69214073D01*
X182788064Y-69071381D01*
X182822365Y-68902000D01*
X182822365Y-67479000D01*
X183108805Y-67479000D01*
X182961207Y-67834456D01*
X182960794Y-68307469D01*
X183141427Y-68744635D01*
X183475606Y-69079397D01*
X183912456Y-69260793D01*
X184385469Y-69261206D01*
X184822635Y-69080573D01*
X184870000Y-69033290D01*
X184870000Y-69650289D01*
X184824394Y-69604603D01*
X184387544Y-69423207D01*
X183914531Y-69422794D01*
X183477365Y-69603427D01*
X183142603Y-69937606D01*
X182961207Y-70374456D01*
X182960794Y-70847469D01*
X183141427Y-71284635D01*
X183475606Y-71619397D01*
X183912456Y-71800793D01*
X184385469Y-71801206D01*
X184822635Y-71620573D01*
X184870000Y-71573290D01*
X184870000Y-72505096D01*
X183436659Y-74489795D01*
X183099000Y-74489795D01*
X182940763Y-74519569D01*
X182795433Y-74613087D01*
X182697936Y-74755779D01*
X182663635Y-74925160D01*
X182663635Y-76225160D01*
X182693409Y-76383397D01*
X182786927Y-76528727D01*
X182929619Y-76626224D01*
X183099000Y-76660525D01*
X184599000Y-76660525D01*
X184757237Y-76630751D01*
X184902567Y-76537233D01*
X185000064Y-76394541D01*
X185034365Y-76225160D01*
X185034365Y-74925160D01*
X185004591Y-74766923D01*
X184958467Y-74695245D01*
X186095837Y-73120368D01*
X186128652Y-73048649D01*
X186172466Y-72983077D01*
X186183088Y-72929676D01*
X186205742Y-72880165D01*
X186208614Y-72801352D01*
X186224000Y-72724000D01*
X186224000Y-58928000D01*
X186172466Y-58668923D01*
X186025711Y-58449289D01*
X185339131Y-57762709D01*
X185339206Y-57676531D01*
X185158573Y-57239365D01*
X184827000Y-56907214D01*
X184827000Y-56896000D01*
X184775467Y-56636924D01*
X184628711Y-56417289D01*
X183866711Y-55655289D01*
X183647077Y-55508534D01*
X183388000Y-55457000D01*
X171704000Y-55457000D01*
X171444924Y-55508533D01*
X171225289Y-55655289D01*
X170942000Y-55938578D01*
X170658711Y-55655289D01*
X170439077Y-55508534D01*
X170180000Y-55457000D01*
X158242000Y-55457000D01*
X157982923Y-55508534D01*
X157873106Y-55581911D01*
X157763288Y-55655289D01*
X157734000Y-55684577D01*
X157704711Y-55655289D01*
X157485077Y-55508534D01*
X157226000Y-55457000D01*
X145034000Y-55457000D01*
X144774923Y-55508534D01*
X144665106Y-55581911D01*
X144555288Y-55655289D01*
X144399000Y-55811578D01*
X144242711Y-55655289D01*
X144023077Y-55508534D01*
X143764000Y-55457000D01*
X131826000Y-55457000D01*
X131566923Y-55508534D01*
X131457106Y-55581911D01*
X131347288Y-55655289D01*
X130839290Y-56163288D01*
X130839289Y-56163289D01*
X130692534Y-56382923D01*
X130641000Y-56642000D01*
X130641000Y-56907784D01*
X130310603Y-57237606D01*
X130129207Y-57674456D01*
X130128794Y-58147469D01*
X130309427Y-58584635D01*
X130643606Y-58919397D01*
X130988124Y-59062453D01*
X130839290Y-59211288D01*
X130839289Y-59211289D01*
X130698982Y-59421273D01*
X130645365Y-59443427D01*
X130310603Y-59777606D01*
X130129207Y-60214456D01*
X130128794Y-60687469D01*
X130276523Y-61045000D01*
X122199195Y-61045000D01*
X122346793Y-60689544D01*
X122347206Y-60216531D01*
X122166573Y-59779365D01*
X121832394Y-59444603D01*
X121395544Y-59263207D01*
X120922531Y-59262794D01*
X120485365Y-59443427D01*
X120150603Y-59777606D01*
X119969207Y-60214456D01*
X119968794Y-60687469D01*
X117281960Y-60687469D01*
X117281960Y-58147469D01*
X119968794Y-58147469D01*
X120149427Y-58584635D01*
X120483606Y-58919397D01*
X120920456Y-59100793D01*
X121393469Y-59101206D01*
X121830635Y-58920573D01*
X122165397Y-58586394D01*
X122346793Y-58149544D01*
X122347206Y-57676531D01*
X122166573Y-57239365D01*
X121832394Y-56904603D01*
X121395544Y-56723207D01*
X120922531Y-56722794D01*
X120485365Y-56903427D01*
X120150603Y-57237606D01*
X119969207Y-57674456D01*
X119968794Y-58147469D01*
X117281960Y-58147469D01*
X117281960Y-52680061D01*
X187258500Y-52933599D01*
M02*
