M48
;DRILL file {KiCad 4.0.2+dfsg1-stable} date So  7. júl 2018, 04:35:59 CEST
;FORMAT={-:-/ absolute / metric / decimal}
FMAT,2
METRIC,TZ
T1C0.600
T2C0.762
T3C1.000
%
G90
G05
M71
T1
X122.301Y-93.853
X124.587Y-98.679
X151.384Y-75.057
X161.036Y-87.249
X161.544Y-95.504
X167.894Y-125.095
X169.291Y-133.858
X171.577Y-98.806
X175.641Y-98.933
X177.419Y-99.06
X181.356Y-89.789
X181.483Y-87.884
X185.928Y-87.757
X186.944Y-93.345
T2
X121.158Y-57.912
X121.158Y-60.452
X121.158Y-62.992
X121.158Y-65.532
X121.158Y-68.072
X121.158Y-70.612
X131.318Y-57.912
X131.318Y-60.452
X131.318Y-62.992
X131.318Y-65.532
X131.318Y-68.072
X131.318Y-70.612
X134.366Y-57.912
X134.366Y-60.452
X134.366Y-62.992
X134.366Y-65.532
X134.366Y-68.072
X134.366Y-70.612
X144.526Y-57.912
X144.526Y-60.452
X144.526Y-62.992
X144.526Y-65.532
X144.526Y-68.072
X144.526Y-70.612
X147.574Y-57.912
X147.574Y-60.452
X147.574Y-62.992
X147.574Y-65.532
X147.574Y-68.072
X147.574Y-70.612
X157.734Y-57.912
X157.734Y-60.452
X157.734Y-62.992
X157.734Y-65.532
X157.734Y-68.072
X157.734Y-70.612
X160.782Y-57.912
X160.782Y-60.452
X160.782Y-62.992
X160.782Y-65.532
X160.782Y-68.072
X160.782Y-70.612
X170.942Y-57.912
X170.942Y-60.452
X170.942Y-62.992
X170.942Y-65.532
X170.942Y-68.072
X170.942Y-70.612
X173.99Y-57.912
X173.99Y-60.452
X173.99Y-62.992
X173.99Y-65.532
X173.99Y-68.072
X173.99Y-70.612
X184.15Y-57.912
X184.15Y-60.452
X184.15Y-62.992
X184.15Y-65.532
X184.15Y-68.072
X184.15Y-70.612
T3
X121.92Y-102.743
X121.92Y-105.283
X121.92Y-107.823
X121.92Y-110.363
X121.92Y-112.903
X121.92Y-115.443
X176.276Y-122.301
X176.276Y-124.841
X182.658Y-134.62
X182.753Y-125.857
X184.658Y-134.62
X184.753Y-125.857
T0
M30
